<?xml version="1.0" standalone="no"?>
<!--Created with Sketsa SVG Editor (http://www.kiyut.com)-->
<svg contentScriptType="text/ecmascript" width="500.0px" xmlns:xlink="http://www.w3.org/1999/xlink" baseProfile="full"
    zoomAndPan="magnify" contentStyleType="text/css" height="500.0px" preserveAspectRatio="xMidYMid meet" xmlns="http://www.w3.org/2000/svg"
    version="1.0">
    <rect fill="#ffffff" x="97" width="172" height="202" y="118" stroke="#818181"/>
    <line y2="290" fill="#ffffff" x1="97" x2="269" stroke="#818181" y1="290"/>
    <rect x="97" y="94" fill="#c8dfff" width="34" rx="3" ry="3" height="24" stroke="#000000"/>
    <line y2="118" fill="none" x1="121" x2="121" stroke="#818181" y1="94"/>
    <rect fill="#000000" x="104" width="12" height="11" y="101" stroke="#818181"/>
    <rect fill="#000000" x="100" width="12" y="120" height="12" stroke="none"/>
    <rect fill="#111111" x="114" width="12" height="12" y="120" stroke="none"/>
    <rect fill="#2d2d2d" x="128" width="12" height="12" y="120" stroke="none"/>
    <rect fill="#434343" x="142" width="12" height="12" y="120" stroke="none"/>
    <rect fill="#5b5b5b" x="156" width="12" y="120" height="12" stroke="none"/>
    <rect fill="#737373" x="170" width="12" y="120" height="12" stroke="none"/>
    <rect fill="#8b8b8b" x="184" width="12" y="120" height="12" stroke="none"/>
    <rect fill="#a2a2a2" x="198" width="12" y="120" height="12" stroke="none"/>
    <rect fill="#b9b9b9" x="212" width="12" height="12" y="120" stroke="none"/>
    <rect fill="#d0d0d0" x="226" width="12" height="12" y="120" stroke="none"/>
    <rect fill="#e6e6e6" x="240" width="12" y="120" height="12" stroke="none"/>
    <rect fill="#ffffff" x="254" width="12" y="120" height="12" stroke="none"/>
    <rect fill="#7f7f00" x="100.0" width="12" height="12" y="134.0" stroke="none"/>
    <rect fill="#bfbf00" x="114.0" width="12" y="134.0" height="12" stroke="none"/>
    <rect fill="#ffff00" x="128.0" width="12" y="134.0" height="12" stroke="none"/>
    <rect fill="#ffff40" x="142.0" width="12" y="134.0" height="12" stroke="none"/>
    <rect fill="#ffff80" x="156.0" width="12" height="12" y="134.0" stroke="none"/>
    <rect fill="#ffffbf" x="170.0" width="12" height="12" y="134.0" stroke="none"/>
    <rect fill="#525330" x="184.0" width="12" height="12" y="134.0" stroke="none"/>
    <rect fill="#898a49" x="198.0" width="12" height="12" y="134.0" stroke="none"/>
    <rect fill="#aea945" x="212.0" width="12" y="134.0" height="12" stroke="none"/>
    <rect fill="#c3be71" x="226.0" width="12" y="134.0" height="12" stroke="none"/>
    <rect fill="#e0dcaa" x="240.0" width="12" height="12" y="134.0" stroke="none"/>
    <rect fill="#fcfae1" x="254.0" width="12" height="12" y="134.0" stroke="none"/>
    <rect fill="#407f00" x="100.0" width="12" height="12" y="148.0" stroke="none"/>
    <rect fill="#60bf00" x="114.0" width="12" y="148.0" height="12" stroke="none"/>
    <rect fill="#80ff00" x="128.0" width="12" y="148.0" height="12" stroke="none"/>
    <rect fill="#a0ff40" x="142.0" width="12" y="148.0" height="12" stroke="none"/>
    <rect fill="#c0ff80" x="156.0" width="12" height="12" y="148.0" stroke="none"/>
    <rect fill="#dfffbf" x="170.0" width="12" height="12" y="148.0" stroke="none"/>
    <rect fill="#3b5738" x="184.0" width="12" height="12" y="148.0" stroke="none"/>
    <rect fill="#668f5a" x="198.0" width="12" height="12" y="148.0" stroke="none"/>
    <rect fill="#7f9757" x="212.0" width="12" y="148.0" height="12" stroke="none"/>
    <rect fill="#8a9b55" x="226.0" width="12" y="148.0" height="12" stroke="none"/>
    <rect fill="#b7c296" x="240.0" width="12" height="12" y="148.0" stroke="none"/>
    <rect fill="#e6ebd5" x="254.0" width="12" height="12" y="148.0" stroke="none"/>
    <rect fill="#007f40" x="100.0" width="12" y="162.0" height="12" stroke="none"/>
    <rect fill="#00bf60" x="114.0" width="12" height="12" y="162.0" stroke="none"/>
    <rect fill="#00ff80" x="128.0" width="12" height="12" y="162.0" stroke="none"/>
    <rect fill="#40ffa0" x="142.0" width="12" height="12" y="162.0" stroke="none"/>
    <rect fill="#80ffc0" x="156.0" width="12" y="162.0" height="12" stroke="none"/>
    <rect fill="#bfffdf" x="170.0" width="12" y="162.0" height="12" stroke="none"/>
    <rect fill="#033d3d" x="184.0" width="12" y="162.0" height="12" stroke="none"/>
    <rect fill="#438059" x="198.0" width="12" y="162.0" height="12" stroke="none"/>
    <rect fill="#7fa37c" x="212.0" width="12" height="12" y="162.0" stroke="none"/>
    <rect fill="#8dae94" x="226.0" width="12" height="12" y="162.0" stroke="none"/>
    <rect fill="#acc6b5" x="240.0" width="12" y="162.0" height="12" stroke="none"/>
    <rect fill="#ddebe2" x="254.0" width="12" y="162.0" height="12" stroke="none"/>
    <rect fill="#007f7f" x="100.0" width="12" height="12" y="176.0" stroke="none"/>
    <rect fill="#00bfbf" x="114.0" width="12" y="176.0" height="12" stroke="none"/>
    <rect fill="#00ffff" x="128.0" width="12" y="176.0" height="12" stroke="none"/>
    <rect fill="#40ffff" x="142.0" width="12" y="176.0" height="12" stroke="none"/>
    <rect fill="#80ffff" x="156.0" width="12" height="12" y="176.0" stroke="none"/>
    <rect fill="#bfffff" x="170.0" width="12" height="12" y="176.0" stroke="none"/>
    <rect fill="#033d3d" x="184.0" width="12" height="12" y="176.0" stroke="none"/>
    <rect fill="#347d7e" x="198.0" width="12" height="12" y="176.0" stroke="none"/>
    <rect fill="#609a9f" x="212.0" width="12" y="176.0" height="12" stroke="none"/>
    <rect fill="#96bdc4" x="226.0" width="12" y="176.0" height="12" stroke="none"/>
    <rect fill="#b5d1d7" x="240.0" width="12" height="12" y="176.0" stroke="none"/>
    <rect fill="#e2f1f4" x="254.0" width="12" height="12" y="176.0" stroke="none"/>
    <rect fill="#00407f" x="100.0" width="12" y="190.0" height="12" stroke="none"/>
    <rect fill="#0060bf" x="114.0" width="12" height="12" y="190.0" stroke="none"/>
    <rect fill="#0080ff" x="128.0" width="12" height="12" y="190.0" stroke="none"/>
    <rect fill="#40a0ff" x="142.0" width="12" height="12" y="190.0" stroke="none"/>
    <rect fill="#80c0ff" x="156.0" width="12" y="190.0" height="12" stroke="none"/>
    <rect fill="#bfdfff" x="170.0" width="12" y="190.0" height="12" stroke="none"/>
    <rect fill="#1b2c48" x="184.0" width="12" y="190.0" height="12" stroke="none"/>
    <rect fill="#385376" x="198.0" width="12" y="190.0" height="12" stroke="none"/>
    <rect fill="#57708f" x="212.0" width="12" height="12" y="190.0" stroke="none"/>
    <rect fill="#7792ac" x="226.0" width="12" height="12" y="190.0" stroke="none"/>
    <rect fill="#a8bed1" x="240.0" width="12" y="190.0" height="12" stroke="none"/>
    <rect fill="#deebf6" x="254.0" width="12" y="190.0" height="12" stroke="none"/>
    <rect fill="#00007f" x="100.0" width="12" y="204.0" height="12" stroke="none"/>
    <rect fill="#0000bf" x="114.0" width="12" height="12" y="204.0" stroke="none"/>
    <rect fill="#0000ff" x="128.0" width="12" height="12" y="204.0" stroke="none"/>
    <rect fill="#4040ff" x="142.0" width="12" height="12" y="204.0" stroke="none"/>
    <rect fill="#8080ff" x="156.0" width="12" y="204.0" height="12" stroke="none"/>
    <rect fill="#bfbfff" x="170.0" width="12" y="204.0" height="12" stroke="none"/>
    <rect fill="#212143" x="184.0" width="12" y="204.0" height="12" stroke="none"/>
    <rect fill="#373e68" x="198.0" width="12" y="204.0" height="12" stroke="none"/>
    <rect fill="#444f75" x="212.0" width="12" height="12" y="204.0" stroke="none"/>
    <rect fill="#585e82" x="226.0" width="12" height="12" y="204.0" stroke="none"/>
    <rect fill="#8687a4" x="240.0" width="12" y="204.0" height="12" stroke="none"/>
    <rect fill="#d2d1e1" x="254.0" width="12" y="204.0" height="12" stroke="none"/>
    <rect fill="#40007f" x="100.0" width="12" height="12" y="218.0" stroke="none"/>
    <rect fill="#6000bf" x="114.0" width="12" y="218.0" height="12" stroke="none"/>
    <rect fill="#8000ff" x="128.0" width="12" y="218.0" height="12" stroke="none"/>
    <rect fill="#a040ff" x="142.0" width="12" y="218.0" height="12" stroke="none"/>
    <rect fill="#c080ff" x="156.0" width="12" height="12" y="218.0" stroke="none"/>
    <rect fill="#dfbfff" x="170.0" width="12" height="12" y="218.0" stroke="none"/>
    <rect fill="#302449" x="184.0" width="12" height="12" y="218.0" stroke="none"/>
    <rect fill="#54466f" x="198.0" width="12" height="12" y="218.0" stroke="none"/>
    <rect fill="#655a7f" x="212.0" width="12" y="218.0" height="12" stroke="none"/>
    <rect fill="#726284" x="226.0" width="12" y="218.0" height="12" stroke="none"/>
    <rect fill="#9e8fa9" x="240.0" width="12" height="12" y="218.0" stroke="none"/>
    <rect fill="#dcd1df" x="254.0" width="12" height="12" y="218.0" stroke="none"/>
    <rect fill="#7f007f" x="100.0" width="12" height="12" y="232.0" stroke="none"/>
    <rect fill="#bf00bf" x="114.0" width="12" y="232.0" height="12" stroke="none"/>
    <rect fill="#ff00ff" x="128.0" width="12" y="232.0" height="12" stroke="none"/>
    <rect fill="#ff40ff" x="142.0" width="12" y="232.0" height="12" stroke="none"/>
    <rect fill="#ff80ff" x="156.0" width="12" height="12" y="232.0" stroke="none"/>
    <rect fill="#ffbfff" x="170.0" width="12" height="12" y="232.0" stroke="none"/>
    <rect fill="#4a234a" x="184.0" width="12" height="12" y="232.0" stroke="none"/>
    <rect fill="#794a72" x="198.0" width="12" height="12" y="232.0" stroke="none"/>
    <rect fill="#936386" x="212.0" width="12" y="232.0" height="12" stroke="none"/>
    <rect fill="#9d7292" x="226.0" width="12" y="232.0" height="12" stroke="none"/>
    <rect fill="#c0a0b6" x="240.0" width="12" height="12" y="232.0" stroke="none"/>
    <rect fill="#ecdae5" x="254.0" width="12" height="12" y="232.0" stroke="none"/>
    <rect fill="#7f003f" x="100.0" width="12" y="246.0" height="12" stroke="none"/>
    <rect fill="#bf005f" x="114.0" width="12" height="12" y="246.0" stroke="none"/>
    <rect fill="#ff007f" x="128.0" width="12" height="12" y="246.0" stroke="none"/>
    <rect fill="#ff409f" x="142.0" width="12" height="12" y="246.0" stroke="none"/>
    <rect fill="#ff80bf" x="156.0" width="12" y="246.0" height="12" stroke="none"/>
    <rect fill="#ffbfdf" x="170.0" width="12" y="246.0" height="12" stroke="none"/>
    <rect fill="#451528" x="184.0" width="12" y="246.0" height="12" stroke="none"/>
    <rect fill="#823857" x="198.0" width="12" y="246.0" height="12" stroke="none"/>
    <rect fill="#a94a76" x="212.0" width="12" height="12" y="246.0" stroke="none"/>
    <rect fill="#bc6f95" x="226.0" width="12" height="12" y="246.0" stroke="none"/>
    <rect fill="#d8a5bb" x="240.0" width="12" y="246.0" height="12" stroke="none"/>
    <rect fill="#f7dde9" x="254.0" width="12" y="246.0" height="12" stroke="none"/>
    <rect fill="#800000" x="100.0" width="12" y="260.0" height="12" stroke="none"/>
    <rect fill="#c00000" x="114.0" width="12" height="12" y="260.0" stroke="none"/>
    <rect fill="#ff0000" x="128.0" width="12" height="12" y="260.0" stroke="none"/>
    <rect fill="#ff4040" x="142.0" width="12" height="12" y="260.0" stroke="none"/>
    <rect fill="#ff8080" x="156.0" width="12" y="260.0" height="12" stroke="none"/>
    <rect fill="#ffc0c0" x="170.0" width="12" y="260.0" height="12" stroke="none"/>
    <rect fill="#441415" x="184.0" width="12" y="260.0" height="12" stroke="none"/>
    <rect fill="#82393c" x="198.0" width="12" y="260.0" height="12" stroke="none"/>
    <rect fill="#aa4d4e" x="212.0" width="12" height="12" y="260.0" stroke="none"/>
    <rect fill="#bc6e6e" x="226.0" width="12" height="12" y="260.0" stroke="none"/>
    <rect fill="#d8a3a4" x="240.0" width="12" y="260.0" height="12" stroke="none"/>
    <rect fill="#f8dddd" x="254.0" width="12" y="260.0" height="12" stroke="none"/>
    <rect fill="#7f3f00" x="100.0" width="12" height="12" y="274.0" stroke="none"/>
    <rect fill="#bf5f00" x="114.0" width="12" y="274.0" height="12" stroke="none"/>
    <rect fill="#ff7f00" x="128.0" width="12" y="274.0" height="12" stroke="none"/>
    <rect fill="#ff9f40" x="142.0" width="12" y="274.0" height="12" stroke="#000000"/>
    <rect fill="#ffbf80" x="156.0" width="12" height="12" y="274.0" stroke="none"/>
    <rect fill="#ffbf80" x="170.0" width="12" height="12" y="274.0" stroke="none"/>
    <rect fill="#482c1b" x="184.0" width="12" height="12" y="274.0" stroke="none"/>
    <rect fill="#855a40" x="198.0" width="12" height="12" y="274.0" stroke="none"/>
    <rect fill="#b27c51" x="212.0" width="12" y="274.0" height="12" stroke="none"/>
    <rect fill="#c49b71" x="226.0" width="12" y="274.0" height="12" stroke="none"/>
    <rect fill="#e1c4a8" x="240.0" width="12" height="12" y="274.0" stroke="none"/>
    <rect fill="#fdeee0" x="254.0" width="12" height="12" y="274.0" stroke="none"/>
    <rect fill="#fea243" x="104" width="44" height="21" y="294" stroke="#818181"/>
    <polygon fill="#000000" points="124.5,104.5 128.5,104.5 126.5,107.0" stroke-linejoin="round" stroke="#000000"/>
</svg>