<?xml version="1.0" standalone="no"?>
<!--Created with Sketsa SVG Editor (http://www.kiyut.com)-->
<?xml-stylesheet type="text/css" href="..\flowchart.css" ?>
<svg contentScriptType="text/ecmascript" width="100.0px" xmlns:xlink="http://www.w3.org/1999/xlink" baseProfile="full"
    zoomAndPan="magnify" contentStyleType="text/css" height="100.0px" preserveAspectRatio="xMidYMid meet" xmlns="http://www.w3.org/2000/svg"
    version="1.0">
    <path d="M 21.0 6.0 A 5.0 5.0 0.0 0 1 26.0 1.0 L 94.0 1.0 A 5.0 5.0 0.0 0 1 99.0 6.0 L 99.0 46.0 A 50.0 50.0 0.0 0 0 
        60.0 46.0 A 50.0 50.0 0.0 0 1 21.0 46.0 z"/>
    <path d="M 16.0 11.0 A 5.0 5.0 0.0 0 1 21.0 6.0 L 89.0 6.0 A 5.0 5.0 0.0 0 1 94.0 11.0 L 94.0 51.0 A 50.0 50.0 0.0 0 
        0 55.0 51.0 A 50.0 50.0 0.0 0 1 16.0 51.0 z"/>
    <path d="M 11.0 16.0 A 5.0 5.0 0.0 0 1 16.0 11.0 L 84.0 11.0 A 5.0 5.0 0.0 0 1 89.0 16.0 L 89.0 56.0 A 50.0 50.0 0.0 
        0 0 50.0 56.0 A 50.0 50.0 0.0 0 1 11.0 56.0 z"/>
</svg>