<?xml version="1.0" standalone="no"?>
<!DOCTYPE svg PUBLIC "-//W3C//DTD SVG 1.1//EN"
    "http://www.w3.org/Graphics/SVG/1.1/DTD/svg11.dtd">
<?xml-stylesheet type="text/css" href="..\storage.css" ?>
<!-- Generator: Adobe Illustrator 14.0.0, SVG Export Plug-In . SVG Version: 6.00 Build 43363)  -->
<svg contentScriptType="text/ecmascript" zoomAndPan="magnify" xmlns:xlink="http://www.w3.org/1999/xlink" baseProfile="full"
    contentStyleType="text/css" id="Layer_1" enable-background="new 0 0 70 70" version="1.1" width="70px" xml:space="preserve"
    preserveAspectRatio="xMidYMid meet" viewBox="0 0 70 70" height="70px" xmlns="http://www.w3.org/2000/svg" x="0px" y="0px">      
    <g>           
        <path d="M63.776,16.575c0.112-0.259,0.174-0.522,0.174-0.789L63.776,16.575z"/>           
        <path d="M6.224,16.575L6.05,15.786C6.05,16.053,6.111,16.316,6.224,16.575z"/>           
        <path d="M35.001,20.024c15.986,0,28.949-3.232,28.949-7.238c0-4.004-12.963-7.237-28.949-7.237 
            c-15.988,0-28.951,3.233-28.951,7.237C6.05,16.792,19.013,20.024,35.001,20.024z"/>           
        <path d="M19.768,33.98v-9.195l10.614,8.672h15.622v-9.195l13.629,11.134l4.144-18.822 
            c-1.571,3.633-13.854,6.449-28.775,6.449c-14.923,0-27.206-2.816-28.777-6.449l3.832,17.405H19.768z"/>           
        <path d="M46.004,50.919h-14.24l-11.996,9.694v-9.171h-5.869l1.802,8.183c0,2.672,8.637,4.826,19.301,4.826 
            c10.662,0,19.299-2.154,19.299-4.826l1.67-7.588l-9.966,8.054V50.919z"/>           
        <polygon points="22.268,55.379 30.773,48.504 30.773,48.504 37.375,42.843 29.067,35.611 29.067,35.611 
            22.268,30.056 22.268,36.48 8.724,36.48 8.724,48.942 22.268,48.942"/>           
        <polygon points="34.246,48.419 48.504,48.419 48.504,54.856 64.086,42.263 48.504,29.533 48.504,35.958 
            33.473,35.958 41.208,42.833"/> </g> </svg>