<?xml version="1.0" standalone="no"?>
<!DOCTYPE svg PUBLIC "-//W3C//DTD SVG 1.1//EN"
    "http://www.w3.org/Graphics/SVG/1.1/DTD/svg11.dtd">
<?xml-stylesheet type="text/css" href="..\storage.css" ?>
<!-- Generator: Adobe Illustrator 14.0.0, SVG Export Plug-In . SVG Version: 6.00 Build 43363)  -->
<svg contentScriptType="text/ecmascript" zoomAndPan="magnify" xmlns:xlink="http://www.w3.org/1999/xlink" baseProfile="full"
    contentStyleType="text/css" id="Layer_1" enable-background="new 0 0 70 70" version="1.1" width="70px" xml:space="preserve"
    preserveAspectRatio="xMidYMid meet" viewBox="0 0 70 70" height="70px" xmlns="http://www.w3.org/2000/svg" x="0px" y="0px">                              
    <path d="M8.566,20.571c0.014,0.036,0.021,0.073,0.036,0.109l-0.014-0.064C8.582,20.602,8.572,20.586,8.566,20.571z"/>                       
    <path d="M52.476,25.018c-3.063,0.656-6.726,1.141-10.757,1.397c-2.371,0.162-4.641,0.23-6.596,0.207 
        c-13.751,0-25.068-2.594-26.521-5.94l8.733,39.515c0,2.462,7.96,4.447,17.787,4.447c9.826,0,17.787-1.985,17.787-4.447 
        l8.693-39.342C60.729,22.693,57.061,24.07,52.476,25.018z"/>                       
    <path d="M8.537,20.482c-0.022-0.067-0.044-0.134-0.059-0.202C8.492,20.349,8.516,20.416,8.537,20.482z"/>                       
    <path d="M61.803,19.951l-0.007,0.032l0.003,0.006C61.799,19.977,61.803,19.964,61.803,19.951z"/>                               
    <path d="M61.034,17.626c0-2.104-4.588-3.958-11.556-5.048V7.854H49V8 
        H21V7.854h-0.479v4.725c-6.969,1.09-11.558,2.944-11.558,5.048c0,0.161,0.035,0.319,0.087,0.476l0.157-0.476 
        c0.059,1.657,3.194,3.393,8.718,4.583c4.571,0.928,10.539,1.491,17.073,1.491c2.616-0.015,4.966-0.098,7.096-0.23 
        c4.143-0.273,7.864-0.779,10.89-1.454c6.729-1.587,8.077-3.798,7.849-4.349l0.144,0.345 
        C61.011,17.884,61.034,17.756,61.034,17.626z" clip-rule="evenodd" fill-rule="evenodd"/>                   
    <polygon points="46,3 24,3 21,6 49,6"/> </svg>