<?xml version="1.0" standalone="no"?>
<!DOCTYPE svg PUBLIC "-//W3C//DTD SVG 1.1//EN"
    "http://www.w3.org/Graphics/SVG/1.1/DTD/svg11.dtd">
<?xml-stylesheet type="text/css" href="..\storage.css" ?>
<!-- Generator: Adobe Illustrator 14.0.0, SVG Export Plug-In . SVG Version: 6.00 Build 43363)  -->
<svg contentScriptType="text/ecmascript" zoomAndPan="magnify" xmlns:xlink="http://www.w3.org/1999/xlink" baseProfile="full"
    contentStyleType="text/css" id="Layer_1" enable-background="new 0 0 70 70" version="1.1" width="70px" xml:space="preserve"
    preserveAspectRatio="xMidYMid meet" viewBox="0 0 70 70" height="70px" xmlns="http://www.w3.org/2000/svg" x="0px" y="0px">      
    <g>           
        <g>                
            <g>                     
                <g>                          
                    <path d="M63.95,15.786c0,4.006-12.963,7.238-28.949,7.238 
                        c-15.988,0-28.951-3.232-28.951-7.238l9.65,43.839c0,2.672,8.637,4.826,19.301,4.826c10.662,0,19.299-2.154,19.299-4.826l0,0 
                        L63.95,15.786z" clip-rule="evenodd" fill-rule="evenodd"/>    </g>                     
                <g>                          
                    <path d="M63.95,12.786c0-4.004-12.963-7.237-28.949-7.237 
                        c-15.988,0-28.951,3.233-28.951,7.237c0,4.006,12.963,7.238,28.951,7.238C50.987,20.024,63.95,16.792,63.95,12.786L63.95,12.786 
                        z" clip-rule="evenodd" fill-rule="evenodd"/>    </g>   </g>  </g> </g> </svg>