<?xml version="1.0" standalone="no"?>
<!DOCTYPE svg PUBLIC "-//W3C//DTD SVG 1.1//EN"
    "http://www.w3.org/Graphics/SVG/1.1/DTD/svg11.dtd">
<?xml-stylesheet type="text/css" href="..\storage.css" ?>
<!-- Generator: Adobe Illustrator 14.0.0, SVG Export Plug-In . SVG Version: 6.00 Build 43363)  -->
<svg contentScriptType="text/ecmascript" zoomAndPan="magnify" xmlns:xlink="http://www.w3.org/1999/xlink" baseProfile="full"
    contentStyleType="text/css" id="Layer_1" enable-background="new 0 0 70 70" version="1.1" width="70px" xml:space="preserve"
    preserveAspectRatio="xMidYMid meet" viewBox="0 0 70 70" height="70px" xmlns="http://www.w3.org/2000/svg" x="0px" y="0px">      
    <g>           
        <g>                
            <g>                     
                <g>                          
                    <path d="M63.95,17.287c0,4.006-12.963,7.238-28.95,7.238 
                        c-15.988,0-28.951-3.232-28.951-7.238l9.65,43.838c0,2.672,8.638,4.826,19.301,4.826s19.3-2.154,19.3-4.826l0,0L63.95,17.287z"
                        clip-rule="evenodd" fill-rule="evenodd"/>    </g>                     
                <g>                          
                    <path d="M63.95,14.287c0-4.004-12.963-7.238-28.95-7.238 
                        c-15.988,0-28.951,3.234-28.951,7.238c0,4.006,12.963,7.238,28.951,7.238C50.987,21.525,63.95,18.293,63.95,14.287L63.95,14.287 
                        z" clip-rule="evenodd" fill-rule="evenodd"/>    </g>   </g>  </g>           
        <g>                
            <circle fill="#FFFFFF" clip-rule="evenodd" r="5.832" fill-rule="evenodd" cx="24.743" cy="53.136"/>  </g>           
        <rect x="28.454" y="29.867" fill="#FFFFFF" width="11.829" fill-rule="evenodd" height="11.83" clip-rule="evenodd"/>           
        <polygon fill="#FFFFFF" clip-rule="evenodd" fill-rule="evenodd" points="49.668,58.824 37.977,58.824 
            43.823,47.955"/> </g> </svg>