<?xml version="1.0" standalone="no"?>
<!--Created with Sketsa SVG Editor (http://www.kiyut.com)-->
<svg contentScriptType="text/ecmascript" width="1000.0px" xmlns:xlink="http://www.w3.org/1999/xlink" baseProfile="full"
    zoomAndPan="magnify" contentStyleType="text/css" height="1000.0px" preserveAspectRatio="xMidYMid meet" xmlns="http://www.w3.org/2000/svg"
    version="1.0">
    <rect x="100" y="100" fill="#f2f2f2" width="448" rx="3" height="252" ry="3" stroke="#000000"/>
    <rect x="158" fill="#ffffff" width="377" height="147" y="155" stroke="none"/>
    <polyline fill="none" stroke-width="2" points="158.0,155.0 158.0,303.0 536.0,303.0" stroke="#808080"/>
    <line y2="303" fill="none" x1="220" x2="220" y1="155" stroke="#808080"/>
    <line y2="303" fill="none" x1="280" x2="280" y1="155" stroke="#808080"/>
    <line y2="303" fill="none" x1="340.0" x2="340" y1="155" stroke="#808080"/>
    <line y2="303" fill="none" x1="398" x2="398" y1="155" stroke="#808080"/>
    <line y2="303" fill="none" x1="458" x2="458" y1="155" stroke="#808080"/>
    <line y2="303" fill="none" x1="518" x2="518" y1="155" stroke="#808080"/>
    <line y2="170.0" fill="none" x1="157.33333" x2="535.3333" y1="170.0" stroke="#808080"/>
    <line y2="196.0" fill="none" x1="159.33333" x2="534.6667" y1="196.66667" stroke="#808080"/>
    <line y2="223.33333" fill="none" x1="158.0" x2="535.3333" y1="224.0" stroke="#808080"/>
    <line y2="250.0" fill="none" x1="158.0" x2="536.6667" y1="250.0" stroke="#808080"/>
    <line y2="277.33334" fill="none" x1="158.66667" x2="536.0" y1="277.33334" stroke="#808080"/>
    <rect fill="#2c457e" x="159" width="307" height="8" y="170" stroke="#2c457e"/>
    <rect fill="#3a5ba6" x="159.0" width="291" y="179.0" height="8.0" stroke="#3a5ba6"/>
    <rect fill="#4c77d9" x="159.0" width="230" height="8.0" y="188.0" stroke="#4c77d9"/>
    <rect fill="#2c457e" x="159.0" width="341" y="210.0" height="8.0" stroke="#2c457e"/>
    <rect fill="#3a5ba6" x="159.0" width="349.0" height="8.0" y="219.0" stroke="#3a5ba6"/>
    <rect fill="#4c77d9" x="159.0" width="330" y="228.0" height="8.0" stroke="#4c77d9"/>
    <rect fill="#2c457e" x="159.0" width="201.0" height="8.0" y="260.0" stroke="#2c457e"/>
    <rect fill="#3a5ba6" x="159.0" width="252.0" y="269.0" height="8.0" stroke="#3a5ba6"/>
    <rect fill="#4c77d9" x="159.0" width="243" height="8.0" y="278.0" stroke="#4c77d9"/>
</svg>