<?xml version="1.0" standalone="no"?>
<!--Created with Sketsa SVG Editor (http://www.kiyut.com)-->
<svg contentScriptType="text/ecmascript" width="1000.0px" xmlns:xlink="http://www.w3.org/1999/xlink" baseProfile="full"
    zoomAndPan="magnify" contentStyleType="text/css" height="1000.0px" preserveAspectRatio="xMidYMid meet" xmlns="http://www.w3.org/2000/svg"
    version="1.0">
    <rect x="100.0" y="100.0" fill="#f2f2f2" width="346.0" rx="3" ry="3" height="253" stroke="#000000"/>
    <path fill="#66ff66" d="M 204.0 247.0 L 204.0 334.0 A 87.0 87.0 0.0 0 1 117.0 247.0 z" stroke="#66ff66"/>
    <path fill="#ff3300" d="M 204.0 247.0 L 117.0 247.0 A 87.0 87.0 0.0 0 1 142.5 185.5 z" stroke="#ff3300"/>
    <path fill="#006666" d="M 204.0 247.0 L 143.0 185.0 A 87.0 87.0 0.0 0 1 204.0 160.0 z" stroke="#006666"/>
    <path fill="#ffcc00" d="M 204.0 334.0 L 204.0 160.0 A 87.0 87.0 0.0 1 1 204.0 334.0" stroke="#ffcc00"/>
    <rect fill="#ffcc00" x="327" width="19" height="19" y="182" stroke="#ffffff"/>
    <rect fill="#006666" x="327" width="19" y="218" height="19" stroke="#ffffff"/>
    <rect fill="#ff3300" x="327" width="19" y="254" height="19" stroke="#ffffff"/>
    <rect fill="#66ff66" x="327" width="19" y="292" height="19" stroke="#ffffff"/>
    <ellipse fill="none" rx="87" cx="204" ry="87" cy="247" stroke="#ffffff" stroke-width="2"/>
    <line fill="none" x1="204" x2="204" y1="159.5" y2="333.5" stroke="#ffffff" stroke-width="2"/>
    <line fill="none" x1="142.5" x2="204" y1="185.5" y2="247" stroke="#ffffff" stroke-width="2"/>
    <line fill="none" x1="117.0" x2="204" y1="247.0" y2="247" stroke="#ffffff" stroke-width="2"/>
</svg>