<?xml version="1.0" standalone="no"?>
<!--Created with Sketsa SVG Editor (http://www.kiyut.com)-->
<svg contentScriptType="text/ecmascript" width="1000.0px" xmlns:xlink="http://www.w3.org/1999/xlink" baseProfile="full"
    zoomAndPan="magnify" contentStyleType="text/css" height="1000.0px" preserveAspectRatio="xMidYMid meet" xmlns="http://www.w3.org/2000/svg"
    version="1.0">
    <rect x="200" fill="#cccccc" width="609" y="100.0" height="23" stroke="#ffffff"/>
    <rect x="200" fill="#ffffff" width="609" y="123" height="23" stroke="none"/>
    <rect x="200" fill="#edf5ff" width="609" y="146" height="23" stroke="none"/>
    <rect x="200" fill="#ffffff" width="609" y="169" height="23" stroke="none"/>
    <rect x="200" fill="#edf5ff" width="609" y="192" height="23" stroke="none"/>
    <rect x="200" fill="#ffffff" width="609" y="215" height="23" stroke="#ffffff"/>
    <rect x="200" fill="#edf5ff" width="609" y="238" height="23" stroke="none"/>
    <line y2="261" fill="none" x1="310.0" x2="310.0" y1="100.0" stroke="#ffffff"/>
    <line y2="261" fill="none" x1="396" x2="396" y1="100.0" stroke="#ffffff"/>
    <line y2="261" fill="none" x1="496" x2="496" y1="100.0" stroke="#ffffff"/>
    <line y2="261" fill="none" x1="678" x2="678" y1="100" stroke="#ffffff"/>
    <rect fill="#666666" x="396.0" width="100" y="100" height="23" stroke="none"/>
    <polygon fill="#000000" points="403.9583,357.2083 403.9583,363.04166 408.12497,360.125" transform="matrix(0.0 1.0 -1.0 0.0 847.01514 -294.64786)"
        stroke-linejoin="round" stroke="#000000"/>
    <line y2="123" fill="none" x1="794.0" x2="794" y1="100.0" stroke="#ffffff"/>
    <rect fill="none" x="200.0" width="609" y="100.0" height="161" stroke="#ffffff"/>
    <rect fill="#ffffff" x="794.0" width="15.0" y="123.0" height="138" stroke="#ffffff"/>
    <rect x="795" y="139" fill="#cccccc" width="13" rx="2" height="64" ry="2" stroke="#666666"/>
    <rect fill="#ffffff" x="794" width="15" height="15" y="123" stroke="#000000"/>
    <polygon fill="#000000" points="421.3333,41.33333 421.3333,50.33333 428.3333,45.83333" transform="matrix(0.0 -1.0 -1.0 -0.0 847.01514 555.0188)"
        stroke-linejoin="round" stroke="#000000"/>
    <rect fill="#ffffff" x="794" width="15" y="246" height="15" stroke="#000000"/>
    <polygon fill="#000000" points="544.3333,41.33333 544.3333,50.33333 551.3333,45.83333" transform="matrix(0 1 -1 0 847.01514 -294.64786)"
        stroke-linejoin="round" stroke="#000000"/>
    <rect fill="#edf5ff" x="396.0" width="100" height="23" y="123" stroke="none"/>
    <rect fill="#dce9ff" x="396.0" width="100" height="23" y="146" stroke="none"/>
    <rect fill="#edf5ff" x="396.0" width="100" height="23" y="169" stroke="none"/>
    <rect fill="#dce9ff" x="396.0" width="100" height="23" y="192" stroke="none"/>
    <rect fill="#edf5ff" x="396.0" width="100" height="23" y="215" stroke="none"/>
    <rect fill="#dce9ff" x="396.0" width="100" height="23" y="238" stroke="none"/>
    <line y2="146" fill="none" x1="200" x2="794" y1="146" stroke="#ffffff"/>
    <line y2="169.0" fill="none" x1="200" x2="794.0" y1="169.0" stroke="#ffffff"/>
    <line y2="192.0" fill="none" x1="200" x2="794.0" y1="192" stroke="#ffffff"/>
    <line y2="215.0" fill="none" x1="200" x2="794" y1="215" stroke="#ffffff"/>
    <line y2="238" fill="none" x1="200" x2="794" y1="238" stroke="#ffffff"/>
    <line y2="123" fill="none" x1="200.0" x2="794.0" y1="123" stroke="#ffffff"/>
</svg>