<?xml version="1.0" standalone="no"?>
<!--Created with Sketsa SVG Editor (http://www.kiyut.com)-->
<?xml-stylesheet type="text/css" href="..\heat_exchangers.css" ?>
<svg contentScriptType="text/ecmascript" width="100.0px" xmlns:xlink="http://www.w3.org/1999/xlink" baseProfile="full"
    zoomAndPan="magnify" contentStyleType="text/css" height="100.0px" preserveAspectRatio="xMidYMid meet" xmlns="http://www.w3.org/2000/svg"
    version="1.0">
    <path d="M 10.0 41.0 L 20.0 41.0 L 20.0 35.0 L 25.0 35.0 L 25.0 41.0 L 75.0 41.0 L 75.0 35.0 L 80.0 35.0 L 80.0 41.0 
        L 90.0 41.0 A 6.0 8.0 0.0 0 1 90.0 59.0 L 80.0 59.0 L 80.0 65.0 L 75.0 65.0 L 75.0 59.0 L 25.0 59.0 L 25.0 65.0 
        L 20.0 65.0 L 20.0 59.0 L 10.0 59.0 L 5.0 58.0 L 5.0 55.0 L 10.0 54.0 L 88.0 54.0 A 3.5 4.0 0.0 0 0 88.0 46.0 L 
        10.0 46.0 L 5.0 45.0 L 5.0 42.0 z"/>
    <line y2="49" x1="10" x2="10" y1="38"/>
    <line y2="62" x1="10" x2="10" y1="51"/>
    <line y2="41" x1="20.0" x2="25" y1="41"/>
    <line y2="41" x1="75" x2="80" y1="41"/>
    <line y2="59" x1="80" x2="75" y1="59"/>
    <line y2="59" x1="25" x2="20.0" y1="59.0"/>
    <line y2="44.5" stroke-width="0.5" x1="7" x2="7.0" y1="43"/>
    <line y2="44" stroke-width="0.5" x1="8" x2="8" y1="42"/>
    <line y2="57.5" stroke-width="0.5" x1="7" x2="7" y1="56"/>
    <line y2="57" stroke-width="0.5" x1="8" x2="8" y1="55"/>
</svg>