<?xml version="1.0" standalone="no"?>
<!--Created with Sketsa SVG Editor (http://www.kiyut.com)-->
<?xml-stylesheet type="text/css" href="..\basic.css" ?>
<svg contentScriptType="text/ecmascript" width="100.0px" xmlns:xlink="http://www.w3.org/1999/xlink" baseProfile="full"
    zoomAndPan="magnify" contentStyleType="text/css" height="100.0px" preserveAspectRatio="xMidYMid meet" xmlns="http://www.w3.org/2000/svg"
    version="1.0">
    <path d="M 2.0 70.0 L 40.0 70.0 A 2.5 2.5 0.0 0 0 42.5 67.5 L 42.5 60.0 L 57.5 60.0 L 57.5 67.5 A 2.5 2.5 0.0 0 0 
        60.0 70.0 L 98.0 70.0 L 85.0 50.0 L 98.0 30.0 L 72.5 30.0 L 72.5 22.5 A 2.5 2.5 0.0 0 0 70.0 20.0 L 30.0 20.0 A 
        2.5 2.5 0.0 0 0 27.5 22.5 L 27.5 30.0 L 2.0 30.0 L 15.0 50.0 z"/>
    <path fill="none" d="M 42.5 67.5 A 2.5 2.5 0.0 0 0 40.0 65.0 L 30.0 65.0 A 2.5 2.5 0.0 1 1 30.0 60.0 L 70.0 60.0 A 
        2.5 2.5 0.0 0 1 70.0 65.0 L 60.0 65.0 A 2.5 2.5 0.0 0 0 57.5 67.5 M 27.5 62.5 L 27.5 30.0 M 72.5 62.5 L 72.5 
        30.0"/>
</svg>