<?xml version="1.0" standalone="no"?>
<!--Created with Sketsa SVG Editor (http://www.kiyut.com)-->
<?xml-stylesheet type="text/css" href="..\balloons.css" ?>
<svg contentScriptType="text/ecmascript" width="100.0px" xmlns:xlink="http://www.w3.org/1999/xlink" baseProfile="full"
    zoomAndPan="magnify" contentStyleType="text/css" height="100.0px" preserveAspectRatio="xMidYMid meet" xmlns="http://www.w3.org/2000/svg"
    version="1.0">
    <path stroke-linejoin="round" d="M 18.0 50.0 A 8.0 8.0 0.0 1 1 18.0 35.0 A 12.0 12.0 0.0 0 1 39.0 27.0 A 14.0 14.0 
        0.0 0 1 65.0 27.0 A 12.0 12.0 0.0 0 1 85.0 35.0 A 8.0 8.0 0.0 1 1 85.0 50.0 A 12.0 12.0 0.0 0 1 64.0 57.0 A 14.0 
        14.0 0.0 0 1 40.0 57.0 A 10.0 8.0 0.0 0 1 18.0 50.0 z"/>
    <ellipse rx="6" ry="2.7" cx="21" cy="67"/>
    <ellipse rx="3.8" ry="1.8" cx="14" cy="73.5"/>
    <ellipse rx="2.4" ry="1.3" cx="8.3" cy="78.3"/>
</svg>