<?xml version="1.0" standalone="no"?>
<!--Created with Sketsa SVG Editor (http://www.kiyut.com)-->
<?xml-stylesheet type="text/css" href="..\balloons.css" ?>
<svg contentScriptType="text/ecmascript" width="100.0px" xmlns:xlink="http://www.w3.org/1999/xlink" baseProfile="full"
    zoomAndPan="magnify" contentStyleType="text/css" height="100.0px" preserveAspectRatio="xMidYMid meet" xmlns="http://www.w3.org/2000/svg"
    version="1.0">
    <polygon points="17.8,64.0 12.2,66.8 14.0,61.0 9.5,64.0 11.2,59.3 5.7,60.9 9.5,56.5 3.8,56.3 8.7,52.8 2.9,50.9 
        8.2,48.3 3.2,45.7 8.8,44.29 3.7,40.0 9.4,39.9 5.7,35.2 11.1,36.2 8.8,31.4 14.4,33.3 13.1,28.8 18.6,30.7 
        17.8,26.25 22.1,29.4 22.7,24.4 26.3,28.1 26.7,23.5 31.4,27.0 33.2,21.4 36.2,26.3 37.6,20.7 41.1,26.1 43.5,20.1 
        45.7,25.9 48.5,20.1 50.0,26.1 54.2,21.1 53.7,26.4 58.3,20.7 58.0,26.7 63.4,21.5 64.0,27.2 69.0,22.8 69.1,28.8 
        74.8,24.5 73.4,30.1 80.5,26.3 77.8,31.9 86.8,27.9 83.0,33.7 91.0,32.0 88.1,37.1 94.1,37.0 89.9,40.2 96.2,41.3 
        90.8,44.1 96.1,45.9 89.7,46.9 95.3,50.4 89.5,50.9 93.8,54.9 87.1,53.6 90.7,58.9 84.9,56.7 87.6,61.8 82.1,60.8 
        82.7,66.1 79.2,63.0 78.5,68.7 74.9,64.8 74.6,71.3 70.9,66.1 69.1,72.2 66.6,66.7 64.1,73.8 62.6,67.7 59.8,73.9 
        57.9,68.2 55.7,74.0 53.8,68.2 51.3,74.6 49.9,68.2 47.3,73.8 46.1,67.5 43.0,74.3 41.7,67.5 39.2,74.8 38.5,67.9 
        35.3,75.2 33.8,66.7 31.5,73.4 29.7,67.9 6.7,80.0" stroke-miterlimit="10"/>
</svg>