<?xml version="1.0" standalone="no"?>
<!--Created with Sketsa SVG Editor (http://www.kiyut.com)-->
<?xml-stylesheet type="text/css" href="..\basic.css" ?>
<svg contentScriptType="text/ecmascript" width="100.0px" xmlns:xlink="http://www.w3.org/1999/xlink" baseProfile="full"
    zoomAndPan="magnify" contentStyleType="text/css" height="100.0px" preserveAspectRatio="xMidYMid meet" xmlns="http://www.w3.org/2000/svg"
    version="1.0">
    <path d="M 8.0 67.0 A 12.0 12.0 0.0 0 1 24.0 59.0 A 20.0 20.0 0.0 0 1 34.0 70.0 A 200.0 200.0 0.0 0 1 71.0 6.0 A 
        18.0 18.0 0.0 0 1 88.0 2.0 A 4.5 4.5 0.0 0 1 91.0 9.0 A 230.0 230.0 0.0 0 0 43.0 95.0 A 20.0 20.0 0.0 0 1 25.0 
        95.0 A 100.0 100.0 0.0 0 0 8.0 69.0 A 2.0 2.0 0.0 0 1 8.0 67.0 z"/>
</svg>