<?xml version="1.0" standalone="no"?>
<!--Created with Sketsa SVG Editor (http://www.kiyut.com)-->
<?xml-stylesheet type="text/css" href="..\tech.css" ?>
<svg contentScriptType="text/ecmascript" width="100.0px" xmlns:xlink="http://www.w3.org/1999/xlink" baseProfile="full"
    zoomAndPan="magnify" contentStyleType="text/css" height="100.0px" preserveAspectRatio="xMidYMid meet" xmlns="http://www.w3.org/2000/svg"
    version="1.0">
    <path d="M 66.74 26.06 h 12.63 l -5.91 31.66 c -0.54 2.26 -1.75 7.32 0.94 7.32 c 5.65 0.0 12.5 -5.99 12.5 -20.23 c 
        0.0 -21.29 -14.79 -32.2 -35.22 -32.2 c -22.3 -2.86E-6 -36.55 15.57 -36.55 37.39 c -9.54E-7 23.28 16.13 37.12 
        38.84 37.12 c 10.08 0.0 18.83 -2.93 25.4 -7.85 h 13.18 C 83.0 92.32 69.29 99.38 52.9 99.38 C 24.27 99.38 0.75 
        78.88 0.75 50.01 C 0.75 21.66 23.73 0.38 52.09 0.38 c 23.66 0.0 46.77 15.57 46.77 40.19 c 0.0 30.47 -25.27 38.45 
        -33.19 38.45 c -4.98 0.0 -8.2 -2.26 -8.34 -6.51 h -0.27 c -2.69 3.59 -6.86 6.65 -12.9 6.65 c -11.57 0.0 -22.18 
        -10.91 -22.18 -24.08 c 0.0 -15.57 10.62 -30.34 27.02 -30.34 c 6.85 1.91E-6 12.5 2.26 16.52 7.71 L 66.74 26.06 z 
        M 61.63 49.87 c 0.0 -6.38 -4.16 -10.77 -10.61 -10.77 c -7.79 0.0 -13.31 6.92 -13.31 13.83 c 0.0 6.12 3.64 10.91 
        10.22 10.91 C 56.26 63.84 61.63 57.46 61.63 49.87 z"/>
</svg>