<?xml version="1.0" standalone="no"?>
<!--Created with Sketsa SVG Editor (http://www.kiyut.com)-->
<?xml-stylesheet type="text/css" href="..\tech.css" ?>
<svg contentScriptType="text/ecmascript" width="100.0px" xmlns:xlink="http://www.w3.org/1999/xlink" baseProfile="full"
    zoomAndPan="magnify" contentStyleType="text/css" height="100.0px" preserveAspectRatio="xMidYMid meet" xmlns="http://www.w3.org/2000/svg"
    version="1.0">
    <path d="M 11.31 82.09 C 3.94 73.55 0.25 63.69 0.25 52.5 c 0.0 -13.32 4.48 -24.63 13.44 -33.94 C 23.64 8.18 36.98 
        3.0 53.73 3.0 c 14.5 0.0 25.91 3.67 34.22 11.03 C 95.73 20.97 99.63 29.97 99.63 41.04 c 0.0 9.31 -2.78 17.26 
        -8.34 23.86 c -5.56 6.6 -11.78 9.89 -18.67 9.89 c -4.03 0.0 -7.01 -0.97 -8.92 -2.91 c -1.91 -1.94 -2.87 -4.28 
        -2.87 -7.02 c 0.0 -0.45 0.04 -0.92 0.12 -1.41 c 0.08 -0.5 0.18 -1.0 0.31 -1.54 c -2.16 4.7 -4.89 8.02 -8.19 9.96 
        c -3.3 1.94 -6.7 2.91 -10.21 2.91 c -5.01 0.0 -9.08 -1.82 -12.19 -5.46 c -3.12 -3.63 -4.67 -8.31 -4.67 -14.02 c 
        0.0 -8.13 2.66 -15.29 7.98 -21.5 c 5.31 -6.21 11.03 -9.31 17.14 -9.31 c 4.15 0.0 7.59 1.21 10.3 3.61 c 2.71 2.41 
        4.15 5.31 4.31 8.7 l 3.05 -10.29 h 8.99 l -8.13 26.83 c -0.61 2.09 -1.06 3.76 -1.34 5.02 c -0.28 1.27 -0.43 2.39 
        -0.43 3.37 c 0.0 1.83 0.56 3.17 1.68 4.01 c 1.12 0.84 2.39 1.25 3.82 1.25 c 4.64 0.0 8.81 -2.42 12.5 -7.29 c 
        3.69 -4.86 5.53 -11.21 5.53 -19.05 c 0.0 -9.48 -3.3 -16.92 -9.9 -22.33 c -6.6 -5.41 -15.48 -8.12 -26.64 -8.12 c 
        -15.48 0.0 -27.32 4.53 -35.51 13.6 C 12.31 31.55 8.81 41.24 8.81 52.92 c 0.0 10.21 3.34 18.79 10.02 25.73 c 7.82 
        8.21 18.97 12.31 33.43 12.31 c 6.77 0.0 13.06 -1.07 18.89 -3.21 c 5.83 -2.14 11.16 -5.03 16.01 -8.67 l 4.03 5.51 
        c -3.66 3.27 -9.15 6.33 -16.44 9.19 c -7.29 2.86 -15.32 4.29 -24.08 4.29 C 33.64 98.07 20.52 92.74 11.31 82.09 z 
        M 60.26 33.9 c -1.69 -2.02 -4.01 -3.03 -6.98 -3.03 c -4.64 0.0 -8.66 2.74 -12.06 8.24 c -3.39 5.5 -5.09 10.96 
        -5.09 16.39 c 0.0 4.0 0.87 7.06 2.63 9.16 c 1.74 2.1 3.94 3.15 6.59 3.15 c 5.49 0.0 9.78 -3.22 12.84 -9.65 c 
        3.08 -6.43 4.61 -12.24 4.61 -17.43 C 62.8 38.2 61.95 35.93 60.26 33.9 z"/>
</svg>