<?xml version="1.0" standalone="no"?>
<!--Created with Sketsa SVG Editor (http://www.kiyut.com)-->
<?xml-stylesheet type="text/css" href="..\tech.css" ?>
<svg contentScriptType="text/ecmascript" width="100.0px" xmlns:xlink="http://www.w3.org/1999/xlink" baseProfile="full"
    zoomAndPan="magnify" contentStyleType="text/css" height="100.0px" preserveAspectRatio="xMidYMid meet" xmlns="http://www.w3.org/2000/svg"
    version="1.0">
    <path d="M 26.17 52.77 c -6.33 0.0 -11.48 5.2 -11.48 11.6 c 0.0 6.4 5.15 11.61 11.48 11.61 c 6.33 0.0 11.48 -5.21 
        11.48 -11.61 C 37.65 57.97 32.49 52.77 26.17 52.77 z M 51.45 7.86 H 11.1 C 5.18 7.86 0.38 12.73 0.38 18.71 v 
        62.82 c 0.0 5.97 4.81 10.84 10.73 10.84 h 40.35 c 5.91 0.0 10.72 -4.87 10.72 -10.84 V 18.71 C 62.17 12.73 57.36 
        7.86 51.45 7.86 z M 26.17 80.32 c -8.7 0.0 -15.77 -7.15 -15.77 -15.95 c 0.0 -8.79 7.07 -15.94 15.77 -15.94 c 
        8.69 0.0 15.76 7.15 15.76 15.94 C 41.93 73.16 34.86 80.32 26.17 80.32 z M 45.08 33.63 c -5.25 0.0 -9.52 -4.32 
        -9.52 -9.63 c 0.0 -5.31 4.27 -9.63 9.52 -9.63 c 5.25 0.0 9.53 4.32 9.53 9.63 C 54.61 29.31 50.34 33.63 45.08 
        33.63 z M 45.08 18.7 c -2.88 0.0 -5.23 2.38 -5.23 5.3 c 0.0 2.92 2.35 5.29 5.23 5.29 c 2.89 0.0 5.24 -2.37 5.24 
        -5.29 C 50.32 21.08 47.97 18.7 45.08 18.7 z M 65.45 68.39 L 69.74 68.39 L 69.74 21.7 L 65.45 21.7 L 65.45 68.39 
        z M 73.59 68.39 L 77.88 68.39 L 77.88 24.19 L 73.59 24.19 L 73.59 68.39 z M 86.02 38.54 L 86.02 30.69 L 81.72 
        30.69 L 81.72 72.53 L 65.52 72.53 L 65.52 76.87 L 85.95 76.87 L 85.95 76.8 L 86.02 76.8 L 86.02 67.84 L 99.25 
        67.84 L 99.25 38.54 z"/>
</svg>