<?xml version="1.0" standalone="no"?>
<!--Created with Sketsa SVG Editor (http://www.kiyut.com)-->
<?xml-stylesheet type="text/css" href="..\tech.css" ?>
<svg contentScriptType="text/ecmascript" width="100.0px" xmlns:xlink="http://www.w3.org/1999/xlink" baseProfile="full"
    zoomAndPan="magnify" contentStyleType="text/css" height="100.0px" preserveAspectRatio="xMidYMid meet" xmlns="http://www.w3.org/2000/svg"
    version="1.0">
    <path d="M 58.76 31.87 c 7.9 0.0 14.75 4.38 18.53 10.83 l 22.31 0.03 V 30.55 c 0.0 -4.53 -3.62 -8.21 -8.06 -8.21 H 
        8.41 C 3.96 22.34 0.38 26.02 0.38 30.55 l 0.02 12.08 l 39.81 0.03 C 44.02 36.23 50.85 31.87 58.76 31.87 z M 
        21.22 18.48 h -7.4 l -0.85 2.71 h 8.86 L 21.22 18.48 z M 87.9 17.03 h -9.85 L 76.31 21.22 H 89.5 L 87.9 17.03 z 
        M 54.11 19.77 h -8.47 V 15.59 h 8.47 V 19.77 z M 61.88 13.92 H 37.95 l -4.93 7.35 h 33.37 L 61.88 13.92 z M 
        78.45 44.89 c 1.23 2.77 1.96 5.81 1.96 9.06 c 0.0 12.18 -9.7 22.07 -21.65 22.07 c -11.97 0.0 -21.67 -9.89 -21.67 
        -22.07 c 0.0 -3.24 0.72 -6.29 1.96 -9.07 H 0.38 v 33.25 c 0.0 4.51 3.58 8.18 8.04 8.18 h 83.13 c 4.44 0.0 8.06 
        -3.68 8.06 -8.18 L 99.63 44.89 H 78.45 z M 70.56 46.69 c -0.34 -0.62 -0.77 -1.19 -1.23 -1.74 c -2.53 -3.1 -6.31 
        -5.14 -10.57 -5.14 c -4.28 0.0 -8.06 2.03 -10.59 5.11 c -0.46 0.56 -0.89 1.14 -1.26 1.77 c -1.27 2.13 -2.04 4.58 
        -2.04 7.25 c 0.0 7.79 6.21 14.11 13.88 14.11 c 7.63 0.0 13.85 -6.33 13.85 -14.11 C 72.6 51.28 71.85 48.82 70.56 
        46.69 z"/>
</svg>