<?xml version="1.0" standalone="no"?>
<!--Created with Sketsa SVG Editor (http://www.kiyut.com)-->
<?xml-stylesheet type="text/css" href="..\tech.css" ?>
<svg contentScriptType="text/ecmascript" width="100.0px" xmlns:xlink="http://www.w3.org/1999/xlink" baseProfile="full"
    zoomAndPan="magnify" contentStyleType="text/css" height="100.0px" preserveAspectRatio="xMidYMid meet" xmlns="http://www.w3.org/2000/svg"
    version="1.0">
    <path d="M 35.34 98.42 c -1.11 -0.3 -3.21 -1.6 -4.66 -2.9 c -4.49 -4.03 -4.35 -2.7 -4.35 -39.61 C 26.34 34.05 26.53 
        22.98 26.93 21.53 c 0.87 -3.16 5.51 -7.63 8.39 -8.09 l 2.21 -0.35 l 0.18 -5.25 C 37.93 1.65 38.67 0.33 41.93 
        0.33 c 3.18 0.0 3.76 1.09 3.76 7.08 v 5.12 l 9.28 0.26 c 8.02 0.22 9.57 0.41 11.47 1.38 c 2.88 1.47 5.94 4.9 
        6.65 7.46 c 0.37 1.34 0.57 13.22 0.57 34.28 c 0.0 36.89 0.15 35.58 -4.33 39.59 c -1.66 1.48 -3.51 2.57 -5.03 
        2.95 C 61.32 99.21 38.2 99.17 35.34 98.42 z M 68.18 46.91 c 0.68 -0.68 0.97 -22.57 0.32 -24.26 c -0.29 -0.75 
        -2.4 -0.85 -18.23 -0.85 c -15.83 0.0 -17.94 0.1 -18.23 0.85 c -0.65 1.69 -0.36 23.58 0.32 24.26 C 33.28 47.83 
        67.26 47.83 68.18 46.91 z"/>
</svg>