<?xml version="1.0" standalone="no"?>
<!--Created with Sketsa SVG Editor (http://www.kiyut.com)-->
<?xml-stylesheet type="text/css" href="..\tech.css" ?>
<svg contentScriptType="text/ecmascript" width="100.0px" xmlns:xlink="http://www.w3.org/1999/xlink" baseProfile="full"
    zoomAndPan="magnify" contentStyleType="text/css" height="100.0px" preserveAspectRatio="xMidYMid meet" xmlns="http://www.w3.org/2000/svg"
    version="1.0">
    <path d="M 80.16 61.02 H 68.87 v -22.17 h 11.29 c 10.59 0.0 19.21 -8.63 19.21 -19.24 C 99.38 9.0 90.76 0.38 80.16 
        0.38 c -10.59 0.0 -19.21 8.63 -19.21 19.24 v 11.31 H 38.8 V 19.61 C 38.8 9.0 30.18 0.38 19.59 0.38 S 0.37 9.0 
        0.37 19.61 c 0.0 10.61 8.62 19.24 19.21 19.24 h 11.29 v 22.17 H 19.59 C 8.99 61.02 0.37 69.65 0.37 80.26 C 0.37 
        90.87 8.99 99.5 19.59 99.5 s 19.21 -8.63 19.21 -19.24 V 68.96 h 22.15 v 11.3 c 0.0 10.61 8.62 19.24 19.21 19.24 
        C 90.76 99.5 99.38 90.87 99.38 80.26 C 99.38 69.65 90.76 61.02 80.16 61.02 z M 68.87 19.61 c 0.0 -6.23 5.06 
        -11.3 11.29 -11.3 c 6.23 0.0 11.29 5.07 11.29 11.3 c 0.0 6.23 -5.06 11.31 -11.29 11.31 H 68.87 V 19.61 z M 19.59 
        30.92 c -6.23 0.0 -11.29 -5.07 -11.29 -11.31 c 0.0 -6.23 5.06 -11.3 11.29 -11.3 c 6.23 -9.54E-7 11.29 5.07 11.29 
        11.3 v 11.31 H 19.59 z M 30.88 80.26 c 0.0 6.23 -5.06 11.3 -11.29 11.3 c -6.23 0.0 -11.29 -5.07 -11.29 -11.3 c 
        0.0 -6.23 5.06 -11.3 11.29 -11.3 h 11.29 V 80.26 z M 38.8 61.02 v -22.17 h 22.15 v 22.17 H 38.8 z M 80.16 91.57 
        c -6.23 0.0 -11.29 -5.07 -11.29 -11.3 V 68.96 h 11.29 c 6.23 0.0 11.29 5.07 11.29 11.3 C 91.45 86.5 86.39 91.57 
        80.16 91.57 z"/>
</svg>