<?xml version="1.0" standalone="no"?>
<!--Created with Sketsa SVG Editor (http://www.kiyut.com)-->
<?xml-stylesheet type="text/css" href="..\tech.css" ?>
<svg contentScriptType="text/ecmascript" width="100.0px" xmlns:xlink="http://www.w3.org/1999/xlink" baseProfile="full"
    zoomAndPan="magnify" contentStyleType="text/css" height="100.0px" preserveAspectRatio="xMidYMid meet" xmlns="http://www.w3.org/2000/svg"
    version="1.0">
    <path d="M 37.1 74.31 h 25.32 v 8.35 h -25.32 z M 37.1 91.02 h 25.32 v 8.35 h -25.32 z M 49.76 27.97 c -10.57 0.0 
        -19.14 8.48 -19.14 18.94 c 0.0 10.46 8.57 18.94 19.14 18.94 c 10.57 0.0 19.14 -8.48 19.14 -18.94 C 68.9 36.45 
        60.33 27.97 49.76 27.97 z M 49.93 57.59 c -5.93 0.0 -10.74 -4.76 -10.74 -10.63 c 0.0 -5.87 4.81 -10.63 10.74 
        -10.63 c 5.93 0.0 10.74 4.76 10.74 10.63 C 60.67 52.83 55.86 57.59 49.93 57.59 z M 61.42 19.84 L 81.08 0.37 L 
        96.72 15.95 L 77.06 35.22 z M 3.38 18.86 L 21.28 1.13 L 27.25 6.95 L 9.34 24.77 z M 15.31 30.58 L 21.28 36.49 L 
        39.18 18.77 L 33.22 12.85 z"/>
</svg>