<?xml version="1.0" standalone="no"?>
<!--Created with Sketsa SVG Editor (http://www.kiyut.com)-->
<?xml-stylesheet type="text/css" href="..\tech.css" ?>
<svg contentScriptType="text/ecmascript" width="100.0px" xmlns:xlink="http://www.w3.org/1999/xlink" baseProfile="full"
    zoomAndPan="magnify" contentStyleType="text/css" height="100.0px" preserveAspectRatio="xMidYMid meet" xmlns="http://www.w3.org/2000/svg"
    version="1.0">
    <path d="M 99.51 88.34 H 0.39 V 12.92 h 99.13 V 88.34 L 99.51 88.34 z M 12.12 81.36 h 75.67 L 62.89 55.65 l -4.71 
        4.79 c -2.04 2.06 -4.96 3.24 -8.03 3.24 c -0.02 0.0 -0.03 -0.0 -0.05 -0.0 c -3.08 -0.01 -6.01 -1.22 -8.04 -3.3 l 
        -4.79 -4.9 L 12.12 81.36 L 12.12 81.36 z M 7.3 24.89 v 51.46 L 32.39 50.51 L 7.3 24.89 L 7.3 24.89 z M 67.76 
        50.7 l 24.84 25.65 V 25.47 L 67.76 50.7 L 67.76 50.7 z M 12.13 19.9 l 34.84 35.57 c 0.75 0.77 1.9 1.22 3.15 1.22 
        c 0.01 0.0 0.01 0.0 0.02 0.0 c 1.23 0.0 2.4 -0.44 3.13 -1.18 L 88.33 19.9 H 12.13 L 12.13 19.9 z"/>
</svg>