<?xml version="1.0" standalone="no"?>
<!--Created with Sketsa SVG Editor (http://www.kiyut.com)-->
<?xml-stylesheet type="text/css" href="..\tech.css" ?>
<svg contentScriptType="text/ecmascript" width="100.0px" xmlns:xlink="http://www.w3.org/1999/xlink" baseProfile="full"
    zoomAndPan="magnify" contentStyleType="text/css" height="100.0px" preserveAspectRatio="xMidYMid meet" xmlns="http://www.w3.org/2000/svg"
    version="1.0">
    <path d="M 3.75 53.59 C 3.73 40.87 9.07 31.24 14.23 25.13 l 0.0 0.0 c 5.19 -6.16 10.22 -9.13 10.68 -9.41 l 0.0 0.0 c 
        3.37 -1.97 7.7 -0.84 9.67 2.53 l 0.0 0.0 c 1.97 3.35 0.85 7.66 -2.49 9.64 l 0.0 0.0 l 9.99E-4 9.88E-4 c 0.0 0.0 
        -0.0 9.88E-4 -0.01 0.01 l 0.0 0.0 c -0.01 0.0 -0.02 0.01 -0.04 0.03 l 0.0 0.0 c -0.07 0.04 -0.19 0.12 -0.37 0.24 
        l 0.0 0.0 c -0.35 0.23 -0.9 0.62 -1.57 1.15 l 0.0 0.0 c -1.35 1.06 -3.2 2.71 -5.03 4.89 l 0.0 0.0 c -3.67 4.42 
        -7.17 10.68 -7.18 19.4 l 0.0 0.0 c 0.0 8.79 3.55 16.69 9.31 22.47 l 0.0 0.0 c 5.78 5.76 13.69 9.31 22.48 9.31 l 
        0.0 0.0 c 8.79 -0.0 16.7 -3.55 22.48 -9.31 l 0.0 0.0 c 5.77 -5.77 9.31 -13.68 9.32 -22.47 l 0.0 0.0 c -0.02 
        -8.45 -3.29 -14.58 -6.84 -18.98 l 0.0 0.0 c -3.37 -4.17 -6.98 -6.5 -7.34 -6.71 l 0.0 0.0 c -0.0 -0.0 -0.01 -0.0 
        -0.01 -0.01 l 0.0 0.0 c -0.01 -0.0 -0.01 -0.0 -0.01 -0.01 l 0.0 0.0 c -0.0 -0.0 -0.01 -0.0 -0.01 -0.0 l 0.0 0.0 
        l 0.0 0.0 c -3.34 -1.98 -4.45 -6.29 -2.49 -9.64 l 0.0 0.0 c 1.97 -3.37 6.3 -4.5 9.67 -2.53 l 0.0 0.0 c 0.45 0.28 
        5.49 3.25 10.68 9.41 l 0.0 0.0 c 5.16 6.11 10.5 15.74 10.48 28.47 l 0.0 0.0 C 95.59 78.94 75.03 99.49 49.67 99.5 
        l 0.0 0.0 C 24.32 99.49 3.76 78.94 3.75 53.59 L 3.75 53.59 z M 42.61 50.06 v -21.19 V 7.69 C 42.61 3.79 45.77 
        0.63 49.68 0.63 l 0.0 0.0 c 3.9 0.0 7.06 3.16 7.06 7.06 l 0.0 0.0 v 21.19 v 21.19 h 0.0 c 0.0 3.9 -3.17 7.06 
        -7.06 7.06 l 0.0 0.0 C 45.77 57.12 42.61 53.96 42.61 50.06 L 42.61 50.06 z"/>
</svg>