<?xml version="1.0" standalone="no"?>
<!--Created with Sketsa SVG Editor (http://www.kiyut.com)-->
<?xml-stylesheet type="text/css" href="..\tech.css" ?>
<svg contentScriptType="text/ecmascript" width="100.0px" xmlns:xlink="http://www.w3.org/1999/xlink" baseProfile="full"
    zoomAndPan="magnify" contentStyleType="text/css" height="100.0px" preserveAspectRatio="xMidYMid meet" xmlns="http://www.w3.org/2000/svg"
    version="1.0">
    <path d="M 80.12 73.72 c 8.3 0.0 15.05 -6.77 15.05 -15.15 c 0.0 -8.39 -6.75 -15.18 -15.05 -15.18 c -8.34 0.0 -15.07 
        6.79 -15.07 15.18 C 65.05 66.95 71.78 73.72 80.12 73.72 M 20.05 73.72 c 8.3 0.0 15.07 -6.77 15.07 -15.15 c 0.0 
        -8.39 -6.76 -15.18 -15.07 -15.18 c -8.33 0.0 -15.07 6.79 -15.07 15.18 C 4.99 66.95 11.73 73.72 20.05 73.72 M 
        61.36 43.52 H 38.85 v 15.13 H 61.36 V 43.52 z M 76.24 27.48 H 24.16 v 9.79 h 52.09 V 27.48 z M 82.26 37.26 H 
        99.63 v 41.26 H 0.38 V 37.26 h 17.78 l 0.03 -8.89 c 0.0 -3.34 2.66 -6.05 5.98 -6.05 h 52.07 c 3.29 0.0 5.98 2.71 
        5.98 6.05 L 82.26 37.26 z"/>
</svg>