<?xml version="1.0" standalone="no"?>
<!--Created with Sketsa SVG Editor (http://www.kiyut.com)-->
<?xml-stylesheet type="text/css" href="..\tech.css" ?>
<svg contentScriptType="text/ecmascript" width="100.0px" xmlns:xlink="http://www.w3.org/1999/xlink" baseProfile="full"
    zoomAndPan="magnify" contentStyleType="text/css" height="100.0px" preserveAspectRatio="xMidYMid meet" xmlns="http://www.w3.org/2000/svg"
    version="1.0">
    <path id="path3484_1_" d="M 35.71 1.08 c 0.0 0.0 -21.83 0.28 -21.54 19.7 c 0.28 19.42 4.25 36.59 10.77 46.16 c 6.52 
        9.57 23.24 34.62 42.24 32.09 c 0.0 0.0 9.36 -1.97 16.44 -6.48 L 60.66 74.82 c 0.0 0.0 -6.8 4.22 -11.06 -1.41 c 
        -4.25 -5.63 -17.58 -31.8 -17.58 -31.8 s -3.69 -8.44 4.54 -12.1 L 35.71 1.08 z M 38.27 1.08 c 0.0 0.0 1.7 -0.56 
        4.82 1.13 c 3.12 1.69 3.12 3.09 3.12 3.09 l 0.28 19.42 c 0.0 1.91E-6 -0.85 1.13 -1.98 2.25 c -1.13 1.13 -4.82 
        2.82 -5.39 1.69 C 38.55 27.54 38.27 1.08 38.27 1.08 z M 62.57 72.75 l 6.31 -3.27 c 0.0 0.0 1.42 -0.28 3.68 1.13 
        c 2.27 1.41 14.17 10.7 14.17 10.7 s 1.98 1.69 1.42 3.66 c -0.57 1.97 -1.98 6.19 -1.98 6.19 L 62.57 72.75 z"/>
</svg>