<?xml version="1.0" standalone="no"?>
<!--Created with Sketsa SVG Editor (http://www.kiyut.com)-->
<?xml-stylesheet type="text/css" href="..\tech.css" ?>
<svg contentScriptType="text/ecmascript" width="100.0px" xmlns:xlink="http://www.w3.org/1999/xlink" baseProfile="full"
    zoomAndPan="magnify" contentStyleType="text/css" height="100.0px" preserveAspectRatio="xMidYMid meet" xmlns="http://www.w3.org/2000/svg"
    version="1.0">
    <path d="M 64.12 22.98 l 0.04 -21.92 l 5.26 -0.02 c 0.0 0.0 1.63 0.67 1.64 1.65 c 0.0 0.99 -0.05 17.76 -0.05 17.76 s 
        -0.11 1.46 -1.58 1.67 C 68.72 22.22 64.12 22.98 64.12 22.98 L 64.12 22.98 L 64.12 22.98 z M 42.2 84.56 c 7.42 
        15.91 13.18 14.74 13.18 14.74 l 7.28 -0.03 l -0.02 -21.92 c 0.0 0.0 -13.18 -0.44 -14.66 -3.89 l 0.06 -46.21 c 
        1.46 -3.46 14.32 -4.01 14.32 -4.01 L 62.28 1.33 L 54.93 1.36 c 0.0 0.0 -5.46 -0.97 -13.05 14.88 C 28.55 44.09 
        37.79 75.09 42.2 84.56 L 42.2 84.56 L 42.2 84.56 z M 64.33 77.64 l 0.02 21.63 l 5.31 -0.02 c 0.0 0.0 1.58 -0.68 
        1.58 -1.67 c -0.0 -0.99 -0.01 -16.76 -0.01 -16.76 s -0.22 -2.14 -1.69 -2.33 C 68.83 78.4 64.33 77.64 64.33 77.64 
        L 64.33 77.64 L 64.33 77.64 z"/>
</svg>