<?xml version="1.0" standalone="no"?>
<!--Created with Sketsa SVG Editor (http://www.kiyut.com)-->
<?xml-stylesheet type="text/css" href="..\tech.css" ?>
<svg contentScriptType="text/ecmascript" width="100.0px" xmlns:xlink="http://www.w3.org/1999/xlink" baseProfile="full"
    zoomAndPan="magnify" contentStyleType="text/css" height="100.0px" preserveAspectRatio="xMidYMid meet" xmlns="http://www.w3.org/2000/svg"
    version="1.0">
    <path d="M 34.85 41.13 h 5.95 c 1.69 0.0 3.05 -1.33 3.05 -2.99 V 20.58 c 0.0 -1.66 -1.36 -3.0 -3.05 -3.0 h -5.95 V 
        41.13 z M 34.85 76.11 h 5.95 c 1.69 0.0 3.05 1.34 3.05 3.0 v 17.56 c 0.0 1.65 -1.36 2.99 -3.05 2.99 h -5.95 V 
        76.11 z M 27.73 58.63 c -0.05 -16.05 3.0 -17.49 4.74 -17.49 c 0.19 0.0 0.31 0.0 0.5 0.0 V 17.59 c 0.0 0.0 -0.45 
        0.0 -0.62 0.0 C 29.26 17.59 14.17 23.11 14.17 58.63 C 14.17 94.14 29.26 99.67 32.35 99.67 c 0.17 0.0 0.62 0.0 
        0.62 0.0 V 76.11 c -0.19 0.0 -0.31 0.0 -0.5 0.0 C 30.73 76.11 27.78 74.66 27.73 58.63 z M 48.18 24.33 c 1.02 
        1.21 1.57 2.74 1.57 4.32 c 0.0 1.58 -0.55 3.11 -1.57 4.32 l 3.36 2.73 c 1.64 -1.98 2.55 -4.49 2.55 -7.06 c 0.0 
        -2.57 -0.9 -5.08 -2.55 -7.06 L 48.18 24.33 z M 58.97 43.59 c 3.67 -3.97 5.69 -9.12 5.69 -14.5 c 0.0 -5.36 -2.0 
        -10.51 -5.67 -14.47 l -3.26 2.82 c 2.95 3.18 4.59 7.32 4.59 11.65 c 0.0 4.35 -1.64 8.5 -4.64 11.69 L 58.97 43.59 
        z M 66.39 51.47 c 5.69 -5.95 8.83 -13.75 8.83 -21.94 c 0.0 -8.17 -3.12 -15.94 -8.76 -21.89 l -3.21 2.9 c 4.9 
        5.15 7.62 11.9 7.62 18.99 c 0.0 7.12 -2.71 13.88 -7.66 19.04 L 66.39 51.47 z M 73.84 59.36 c 7.69 -7.94 11.93 
        -18.38 11.93 -29.39 c 0.0 -10.97 -4.21 -21.37 -11.85 -29.3 l -3.14 2.97 C 77.65 10.76 81.44 20.12 81.44 29.97 c 
        0.0 9.9 -3.81 19.28 -10.74 26.41 L 73.84 59.36 z"/>
</svg>