<?xml version="1.0" standalone="no"?>
<!--Created with Sketsa SVG Editor (http://www.kiyut.com)-->
<?xml-stylesheet type="text/css" href="..\tech.css" ?>
<svg contentScriptType="text/ecmascript" width="100.0px" xmlns:xlink="http://www.w3.org/1999/xlink" baseProfile="full"
    zoomAndPan="magnify" contentStyleType="text/css" height="100.0px" preserveAspectRatio="xMidYMid meet" xmlns="http://www.w3.org/2000/svg"
    version="1.0">
    <path d="M 54.88 0.8 C 50.2 1.33 33.1 9.03 32.59 48.78 c -0.52 41.84 17.61 50.64 22.34 50.57 V 71.7 c -3.89 -0.02 
        -4.68 -4.22 -5.6 -12.88 c -0.57 -5.75 -0.74 -12.84 0.0 -19.89 c 0.56 -4.96 1.49 -9.79 5.6 -9.8 L 54.88 0.8 L 
        54.88 0.8 z M 65.02 99.4 c 1.83 -0.02 3.13 -1.48 3.13 -3.13 l 0.0 0.0 c 0.0 0.0 0.0 -21.54 0.0 -21.53 c 0.0 
        -1.73 -1.4 -3.08 -3.13 -3.09 h -7.92 V 99.4 C 57.1 99.4 65.02 99.39 65.02 99.4 L 65.02 99.4 L 65.02 99.4 z M 
        65.02 29.14 c 1.83 0.0 3.13 -1.45 3.13 -3.08 l 0.0 0.0 c 0.0 0.0 0.0 -22.18 0.0 -22.18 C 68.15 2.16 66.74 0.81 
        65.02 0.8 h -7.92 v 28.34 C 57.1 29.14 65.02 29.16 65.02 29.14 L 65.02 29.14 L 65.02 29.14 z"/>
</svg>