<?xml version="1.0" standalone="no"?>
<!--Created with Sketsa SVG Editor (http://www.kiyut.com)-->
<?xml-stylesheet type="text/css" href="..\tech.css" ?>
<svg contentScriptType="text/ecmascript" width="100.0px" xmlns:xlink="http://www.w3.org/1999/xlink" baseProfile="full"
    zoomAndPan="magnify" contentStyleType="text/css" height="100.0px" preserveAspectRatio="xMidYMid meet" xmlns="http://www.w3.org/2000/svg"
    version="1.0">
    <path d="M 62.61 96.74 l 4.14 -1.49 c 0.0 0.0 1.38 -0.56 1.1 -1.66 l -4.96 -17.48 c 0.0 0.0 -0.01 -1.27 -1.27 -1.49 
        l -4.58 0.46 L 62.61 96.74 z M 62.61 3.01 l 4.14 1.49 c 0.0 0.0 1.38 0.56 1.1 1.66 l -4.96 17.48 c 0.0 0.0 -0.01 
        1.27 -1.27 1.49 l -4.58 -0.46 L 62.61 3.01 z M 48.71 75.65 c -3.38 0.11 -3.29 -2.31 -3.29 -2.31 l -0.01 -23.47 l 
        0.01 -23.47 c 0.0 0.0 -0.09 -2.42 3.29 -2.31 l 4.74 0.4 l 5.71 -22.71 l -2.94 -1.04 c 0.0 -1.49E-8 -0.43 -0.16 
        -1.08 -0.01 c 0.0 0.0 -4.57 0.32 -14.69 5.89 c 0.0 0.0 -1.13 0.61 -1.41 1.83 c 0.0 0.0 -7.16 23.63 -6.77 41.42 C 
        31.9 67.66 39.06 91.29 39.06 91.29 c 0.28 1.22 1.41 1.83 1.41 1.83 c 10.12 5.57 14.69 5.89 14.69 5.89 c 0.65 
        0.15 1.08 -0.01 1.08 -0.01 l 2.94 -1.04 l -5.71 -22.71 L 48.71 75.65 z"/>
</svg>