<?xml version="1.0" standalone="no"?>
<!--Created with Sketsa SVG Editor (http://www.kiyut.com)-->
<?xml-stylesheet type="text/css" href="..\tech.css" ?>
<svg contentScriptType="text/ecmascript" width="100.0px" xmlns:xlink="http://www.w3.org/1999/xlink" baseProfile="full"
    zoomAndPan="magnify" contentStyleType="text/css" height="100.0px" preserveAspectRatio="xMidYMid meet" xmlns="http://www.w3.org/2000/svg"
    version="1.0">
    <path id="path5210_1_" d="M 23.39 11.89 c 2.1 0.0 3.76 -1.69 3.76 -3.74 c 0.0 -2.04 -1.66 -3.71 -3.76 -3.71 c -2.09 
        0.0 -3.77 1.67 -3.77 3.71 C 19.61 10.21 21.3 11.89 23.39 11.89 M 34.47 11.89 c 2.09 0.0 3.77 -1.69 3.77 -3.74 c 
        0.0 -2.04 -1.69 -3.71 -3.77 -3.71 c -2.07 0.0 -3.76 1.67 -3.76 3.71 C 30.71 10.21 32.4 11.89 34.47 11.89 M 84.49 
        0.67 c 1.91 0.0 3.45 1.51 3.45 3.37 v 11.55 H 12.18 V 4.06 c 0.0 -1.86 1.55 -3.38 3.43 -3.38 L 84.49 0.67 z M 
        49.47 81.96 c 13.49 0.0 24.4 -10.73 24.4 -23.99 c 0.0 -13.25 -10.92 -24.0 -24.4 -24.0 C 36.0 33.97 25.08 44.72 
        25.08 57.97 C 25.08 71.23 36.0 81.96 49.47 81.96 M 12.0 98.97 V 24.19 c 0.0 -1.86 1.53 -3.37 3.43 -3.37 h 68.89 
        c 1.89 0.0 3.43 1.51 3.43 3.37 V 99.0 L 12.0 98.97 z M 69.25 51.84 c 0.5 1.75 0.77 3.59 0.77 5.51 c 0.0 11.12 
        -9.2 20.14 -20.52 20.14 c -11.33 0.0 -20.51 -9.02 -20.51 -20.14 c 0.0 -2.08 0.32 -4.06 0.88 -5.94 v 0.04 c 1.32 
        1.4 3.18 2.27 5.28 2.27 c 1.82 0.0 3.46 -0.64 4.73 -1.75 h -0.03 c 1.28 1.11 2.94 1.75 4.75 1.75 c 1.88 0.0 3.59 
        -0.69 4.86 -1.89 v 0.03 c 1.27 1.17 2.97 1.86 4.88 1.86 c 1.94 0.0 3.72 -0.75 4.97 -1.98 v 0.03 c 1.29 1.24 3.04 
        1.96 4.98 1.96 c 1.88 0.0 3.63 -0.72 4.92 -1.92 L 69.25 51.84 z"/>
</svg>