<?xml version="1.0" standalone="no"?>
<!--Created with Sketsa SVG Editor (http://www.kiyut.com)-->
<?xml-stylesheet type="text/css" href="..\op_amps.css" ?>
<svg contentScriptType="text/ecmascript" width="100.0px" xmlns:xlink="http://www.w3.org/1999/xlink" baseProfile="full"
    zoomAndPan="magnify" contentStyleType="text/css" height="100.0px" preserveAspectRatio="xMidYMid meet" xmlns="http://www.w3.org/2000/svg"
    version="1.0">
    <polygon points="35.0,15.0 75.0,35.0 35.0,55.0"/>
    <polyline fill="none" points="30.0,25.0 30.0,5.0 45.0,5.0"/>
    <rect x="45" width="20" y="3" height="4"/>
    <rect x="83" width="4" y="40" height="20"/>
    <rect x="83" width="4" height="20" y="70"/>
    <line y2="32" x1="25" x2="25" y1="18"/>
    <line y2="32" x1="20" x2="20" y1="18"/>
    <line y2="35" x1="75" x2="100" y1="35"/>
    <line y2="25.0" x1="25" x2="35" y1="25.0"/>
    <line y2="70" x1="85" x2="85" y1="60"/>
    <line y2="95" x1="85" x2="85" y1="90"/>
    <polyline fill="none" points="35.0,45.0 30.0,45.0 30.0,65.0 85.0,65.0"/>
    <polyline fill="none" points="20.0,25.0 5.0,25.0 5.0,95.0 100.0,95.0"/>
    <polyline fill="none" points="65.0,5.0 85.0,5.0 85.0,40.0"/>
</svg>