<?xml version="1.0" standalone="no"?>
<!DOCTYPE svg PUBLIC "-//W3C//DTD SVG 1.1//EN"
    "http://www.w3.org/Graphics/SVG/1.1/DTD/svg11.dtd">
<?xml-stylesheet type="text/css" href="..\messaging.css" ?>
<!-- Generator: Adobe Illustrator 14.0.0, SVG Export Plug-In . SVG Version: 6.00 Build 43363)  -->
<svg contentScriptType="text/ecmascript" zoomAndPan="magnify" xmlns:xlink="http://www.w3.org/1999/xlink" baseProfile="full"
    contentStyleType="text/css" id="Layer_1" enable-background="new 0 0 70 70" version="1.1" width="70px" xml:space="preserve"
    preserveAspectRatio="xMidYMid meet" viewBox="0 0 70 70" height="70px" xmlns="http://www.w3.org/2000/svg" x="0px" y="0px">      
    <g>           
        <g>                
            <path d="M68.696,19.941H17.412c0.467,1.158,0.729,2.422,0.729,3.749c0,3.061-1.371,5.796-3.524,7.624h54.079 
                V19.941z"/>  </g>           
        <path d="M66.696,36.643v5.486H9.134v-5.486H66.696 M68.696,34.643H7.134v9.486h61.563V34.643L68.696,34.643z"/>           
        <path d="M66.696,49.787v5.486H9.134v-5.486H66.696 M68.696,47.787H7.134v9.486h61.563V47.787L68.696,47.787z"/>           
        <g>                
            <path fill="#FFFFFF" d=
                "M26.132,22.18h5.875v1.303h-4.147v1.511h3.807v1.204h-3.807v1.729h4.235v1.303h-5.963V22.18z"/>                
            <path fill="#FFFFFF" d=
                "M33.14,24.124h1.474v0.691h0.022c0.406-0.523,1-0.829,1.738-0.829c0.715,0,1.353,0.236,1.66,0.849 
                c0.33-0.444,0.925-0.849,1.717-0.849c1.211,0,2.079,0.503,2.079,1.826v3.416h-1.562v-2.893c0-0.682-0.066-1.244-0.957-1.244 
                c-0.881,0-1.046,0.651-1.046,1.293v2.844h-1.562v-2.863c0-0.593,0.043-1.273-0.947-1.273c-0.308,0-1.056,0.178-1.056,1.175v2.962 
                H33.14V24.124z"/>                
            <path fill="#FFFFFF" d=
                "M42.995,25.694c0.088-1.313,1.396-1.708,2.674-1.708c1.133,0,2.496,0.227,2.496,1.451v2.655 
                c0,0.465,0.056,0.929,0.199,1.136h-1.585c-0.055-0.158-0.099-0.326-0.11-0.493c-0.494,0.464-1.221,0.632-1.914,0.632 
                c-1.078,0-1.936-0.484-1.936-1.53c0-1.155,0.968-1.433,1.936-1.551c0.957-0.128,1.849-0.099,1.849-0.671 
                c0-0.603-0.462-0.691-1.013-0.691c-0.594,0-0.979,0.217-1.033,0.771H42.995z 
                M46.604,26.73c-0.265,0.207-0.814,0.217-1.298,0.296 
                c-0.484,0.089-0.925,0.237-0.925,0.751c0,0.523,0.451,0.651,0.958,0.651c1.221,0,1.265-0.868,1.265-1.175V26.73z"/>                
            <path fill="#FFFFFF" d="M50.981,23.334h-1.563V22.18h1.563V23.334z M49.419,24.124h1.563v5.104h-1.563V24.124z"/>                
            <path fill="#FFFFFF" d="M52.257,22.18h1.563v7.049h-1.563V22.18z"/>  </g>           
        <circle cx="8.224" r="6.939" cy="23.672"/> </g> </svg>