<?xml version="1.0" standalone="no"?>
<!DOCTYPE svg PUBLIC "-//W3C//DTD SVG 1.1//EN"
    "http://www.w3.org/Graphics/SVG/1.1/DTD/svg11.dtd">
<?xml-stylesheet type="text/css" href="..\messaging.css" ?>
<!-- Generator: Adobe Illustrator 14.0.0, SVG Export Plug-In . SVG Version: 6.00 Build 43363)  -->
<svg contentScriptType="text/ecmascript" zoomAndPan="magnify" xmlns:xlink="http://www.w3.org/1999/xlink" baseProfile="full"
    contentStyleType="text/css" id="Layer_1" enable-background="new 0 0 70 70" version="1.1" width="70px" xml:space="preserve"
    preserveAspectRatio="xMidYMid meet" viewBox="0 0 70 70" height="70px" xmlns="http://www.w3.org/2000/svg" x="0px" y="0px">      
    <g>           
        <g>                
            <path d="M68.696,19.941H17.412c0.467,1.158,0.729,2.422,0.729,3.749c0,3.061-1.371,5.796-3.524,7.624h54.079 
                V19.941z"/>  </g>           
        <path d="M66.696,36.643v5.486H9.134v-5.486H66.696 M68.696,34.643H7.134v9.486h61.563V34.643L68.696,34.643z"/>           
        <path d="M66.696,49.787v5.486H9.134v-5.486H66.696 M68.696,47.787H7.134v9.486h61.563V47.787L68.696,47.787z"/>           
        <circle cx="8.224" r="6.939" cy="23.672"/>           
        <g>                
            <path fill="#FFFFFF" d=
                "M26.53,22.209h1.728v2.705h3.18v-2.705h1.727v7.049h-1.727v-3.041h-3.18v3.041H26.53V22.209z"/>                
            <path fill="#FFFFFF" d="M36.42,23.512h-2.354v-1.303h6.437v1.303h-2.354v5.746H36.42V23.512z"/>                
            <path fill="#FFFFFF" d="M43.141,23.512h-2.354v-1.303h6.437v1.303h-2.354v5.746h-1.728V23.512z"/>                
            <path fill="#FFFFFF" d=
                "M48.123,22.209h3.543c1.958,0,2.717,1.115,2.717,2.26c0,1.146-0.759,2.262-2.717,2.262h-1.815v2.527 
                h-1.728V22.209z 
                M49.851,25.525h1.342c0.804,0,1.519-0.158,1.519-1.057s-0.715-1.057-1.519-1.057h-1.342V25.525z"/>  </g> </g> </svg>