<?xml version="1.0" standalone="no"?>
<!--Created with Sketsa SVG Editor (http://www.kiyut.com)-->
<?xml-stylesheet type="text/css" href="..\inductors.css" ?>
<svg contentScriptType="text/ecmascript" width="100.0px" xmlns:xlink="http://www.w3.org/1999/xlink" baseProfile="full"
    zoomAndPan="magnify" contentStyleType="text/css" height="100.0px" preserveAspectRatio="xMidYMid meet" xmlns="http://www.w3.org/2000/svg"
    version="1.0">
    <path stroke-linejoin="round" fill="none" d="M 0.0 50.0 L 18.0 50.0 A 9.0 9.0 0.0 0 1 34.0 45.0 A 10.0 10.0 0.0 0 1 
        36.0 53.0 A 2.0 2.0 0.0 0 1 32.0 53.0 A 10.0 10.0 0.0 0 1 34.0 45.0 A 11.0 12.0 0.0 0 1 50.0 45.0 A 10.0 10.0 
        0.0 0 1 52.0 53.0 A 2.0 2.0 0.0 0 1 48.0 53.0 A 10.0 10.0 0.0 0 1 50.0 45.0 A 11.0 12.0 0.0 0 1 66.0 45.0 A 10.0 
        10.0 0.0 0 1 68.0 53.0 A 2.0 2.0 0.0 0 1 64.0 53.0 A 10.0 10.0 0.0 0 1 66.0 45.0 A 9.0 9.0 0.0 0 1 82.0 50.0 L 
        100.0 50.0"/>
</svg>