<?xml version="1.0" standalone="no"?>
<!--Created with Sketsa SVG Editor (http://www.kiyut.com)-->
<?xml-stylesheet type="text/css" href="..\inductors.css" ?>
<svg contentScriptType="text/ecmascript" width="100.0px" xmlns:xlink="http://www.w3.org/1999/xlink" baseProfile="full"
    zoomAndPan="magnify" contentStyleType="text/css" height="100.0px" preserveAspectRatio="xMidYMid meet" xmlns="http://www.w3.org/2000/svg"
    version="1.0">
    <path stroke-linejoin="round" fill="none" d="M 18.0 80.0 L 18.0 66.0 A 8.0 8.0 0.0 0 1 34.0 66.0 A 8.0 8.0 0.0 0 1 
        50.0 66.0 A 8.0 8.0 0.0 0 1 66.0 66.0 A 8.0 8.0 0.0 0 1 82.0 66.0 L 82.0 80.0"/>
    <line y2="52" x1="18" x2="82" y1="52"/>
    <line y2="50" x1="18" x2="82" y1="50"/>
    <line y2="48" x1="18" x2="82" y1="48"/>
    <path stroke-linejoin="round" fill="none" d="M 18.0 20.0 L 18.0 34.0 A 8.0 8.0 0.0 0 0 34.0 34.0 A 8.0 8.0 0.0 0 0 
        50.0 34.0 A 8.0 8.0 0.0 0 0 66.0 34.0 A 8.0 8.0 0.0 0 0 82.0 34.0 L 82.0 20.0"/>
</svg>