<?xml version="1.0" standalone="no"?>
<!--Created with Sketsa SVG Editor (http://www.kiyut.com)-->
<?xml-stylesheet type="text/css" href="..\science.css" ?>
<svg contentScriptType="text/ecmascript" width="100.0px" xmlns:xlink="http://www.w3.org/1999/xlink" baseProfile="full"
    zoomAndPan="magnify" contentStyleType="text/css" height="100.0px" preserveAspectRatio="xMidYMid meet" xmlns="http://www.w3.org/2000/svg"
    version="1.0">
    <path d="M 19.62 85.24 L 38.89 85.24 L 40.21 99.38 L 20.94 99.38 z M 77.51 99.38 L 58.25 99.38 L 59.57 85.24 L 78.84 
        85.24 M 49.29 0.37 c -0.02 0.0 -0.04 0.0 -0.06 0.0 s -0.04 0.0 -0.06 0.0 C 33.6 0.24 12.2 9.27 14.42 29.58 l 5.1 
        54.13 l 19.17 -0.04 l -5.3 -52.87 c -0.34 -9.37 6.58 -12.7 15.61 -12.91 c 0.08 9.92E-4 0.16 9.92E-4 0.24 0.0 c 
        0.08 9.92E-4 0.16 9.92E-4 0.24 0.0 c 9.03 0.21 15.95 3.54 15.61 12.91 L 59.77 83.66 l 19.17 0.04 L 84.04 29.58 C 
        86.26 9.27 64.86 0.24 49.29 0.37 z" transform="matrix(1.0 0.0 0.0 1.0 0.12 -0.0)"/>
</svg>