<?xml version="1.0" standalone="no"?>
<!--Created with Sketsa SVG Editor (http://www.kiyut.com)-->
<?xml-stylesheet type="text/css" href="..\science.css" ?>
<svg contentScriptType="text/ecmascript" width="100.0px" xmlns:xlink="http://www.w3.org/1999/xlink" baseProfile="full"
    zoomAndPan="magnify" contentStyleType="text/css" height="100.0px" preserveAspectRatio="xMidYMid meet" xmlns="http://www.w3.org/2000/svg"
    version="1.0">
    <path d="M 28.2 49.94 C 28.2 22.57 37.92 0.38 49.9 0.38 c 11.99 0.0 21.7 22.19 21.7 49.56 c 0.0 27.37 -9.72 49.56 
        -21.7 49.56 C 37.92 99.5 28.2 77.31 28.2 49.94 z M 49.9 95.3 c 10.97 0.0 19.86 -20.31 19.86 -45.36 c 0.0 -25.06 
        -8.89 -45.36 -19.86 -45.36 c -10.97 -3.81E-6 -19.86 20.31 -19.86 45.36 C 30.04 74.99 38.93 95.3 49.9 95.3 z M 
        60.75 68.56 C 36.83 82.25 12.59 85.01 6.6 74.72 C 0.61 64.43 15.14 45.0 39.05 31.31 c 23.92 -13.69 48.16 -16.44 
        54.15 -6.15 C 99.19 35.44 84.66 54.88 60.75 68.56 z M 89.54 27.26 c -5.48 -9.42 -27.68 -6.89 -49.56 5.63 C 18.08 
        45.42 4.78 63.21 10.27 72.62 C 15.75 82.04 37.94 79.51 59.83 66.99 C 81.72 54.46 95.02 36.67 89.54 27.26 z M 
        60.75 31.31 c 23.91 13.69 38.44 33.12 32.45 43.41 c -5.99 10.29 -30.24 7.53 -54.15 -6.16 C 15.14 54.88 0.61 
        35.44 6.6 25.16 C 12.59 14.87 36.83 17.63 60.75 31.31 z M 10.27 27.26 c -5.48 9.42 7.82 27.2 29.71 39.73 c 21.89 
        12.53 44.08 15.05 49.56 5.63 c 5.48 -9.42 -7.82 -27.2 -29.71 -39.73 C 37.94 20.36 15.75 17.84 10.27 27.26 z"/>
    <circle cx="49.9" r="8.07" cy="49.94"/>
</svg>