<?xml version="1.0" standalone="no"?>
<!--Created with Sketsa SVG Editor (http://www.kiyut.com)-->
<?xml-stylesheet type="text/css" href="..\science.css" ?>
<svg contentScriptType="text/ecmascript" width="100.0px" xmlns:xlink="http://www.w3.org/1999/xlink" baseProfile="full"
    zoomAndPan="magnify" contentStyleType="text/css" height="100.0px" preserveAspectRatio="xMidYMid meet" xmlns="http://www.w3.org/2000/svg"
    version="1.0">
    <path d="M 99.75 49.81 c 0.0 -6.8 -10.54 -11.82 -24.57 -14.53 c 1.14 -3.32 2.09 -6.54 2.74 -9.54 C 80.1 15.72 79.05 
        8.89 74.97 6.51 C 73.96 5.93 72.79 5.63 71.51 5.63 c -5.57 0.0 -13.34 5.67 -21.32 15.0 C 42.21 11.29 34.44 5.63 
        28.87 5.63 c -1.28 0.0 -2.45 0.3 -3.46 0.89 c -5.84 3.4 -4.87 15.14 -0.17 28.77 C 11.18 37.98 0.63 43.01 0.63 
        49.81 c 0.0 6.8 10.54 11.82 24.57 14.53 c -1.15 3.32 -2.09 6.54 -2.74 9.54 c -2.17 10.03 -1.13 16.86 2.95 19.23 
        c 1.01 0.59 2.18 0.89 3.46 0.89 c 5.58 0.0 13.35 -5.67 21.32 -15.0 c 7.98 9.33 15.75 15.0 21.32 15.0 c 1.29 0.0 
        2.45 -0.3 3.46 -0.89 c 4.08 -2.37 5.13 -9.2 2.95 -19.23 c -0.65 -3.0 -1.59 -6.22 -2.74 -9.54 C 89.21 61.64 99.75 
        56.61 99.75 49.81 z M 71.51 8.21 c 0.83 0.0 1.57 0.19 2.18 0.54 c 2.99 1.74 3.62 7.73 1.73 16.44 c -0.66 3.02 
        -1.61 6.26 -2.79 9.63 c -4.13 -0.69 -8.51 -1.19 -12.98 -1.49 c -2.55 -3.89 -5.16 -7.46 -7.77 -10.67 C 59.4 13.8 
        66.69 8.21 71.51 8.21 z M 62.39 56.92 c -1.36 2.38 -2.77 4.68 -4.2 6.9 c -2.57 0.13 -5.24 0.21 -8.0 0.21 s -5.43 
        -0.07 -8.0 -0.21 c -1.44 -2.22 -2.84 -4.52 -4.2 -6.9 c -1.38 -2.41 -2.65 -4.77 -3.82 -7.08 c 1.19 -2.37 2.46 
        -4.75 3.82 -7.13 c 1.36 -2.38 2.77 -4.68 4.2 -6.9 c 2.57 -0.13 5.24 -0.2 8.0 -0.2 s 5.43 0.07 8.0 0.2 c 1.44 
        2.22 2.84 4.52 4.2 6.9 c 1.36 2.37 2.62 4.75 3.81 7.11 C 65.01 52.18 63.75 54.55 62.39 56.92 z M 67.6 52.69 c 
        1.57 3.3 2.97 6.56 4.16 9.72 c -3.22 0.52 -6.7 0.93 -10.4 1.2 c 1.09 -1.75 2.17 -3.55 3.24 -5.4 C 65.66 56.38 
        66.65 54.53 67.6 52.69 z M 56.43 66.47 c -2.05 3.02 -4.15 5.85 -6.24 8.44 c -2.09 -2.59 -4.18 -5.43 -6.24 -8.44 
        c 2.08 0.09 4.16 0.14 6.24 0.14 C 52.27 66.61 54.35 66.56 56.43 66.47 z M 39.01 63.62 c -3.7 -0.28 -7.18 -0.68 
        -10.4 -1.2 c 1.19 -3.16 2.59 -6.41 4.16 -9.72 c 0.96 1.86 1.96 3.7 3.0 5.52 C 36.83 60.06 37.91 61.87 39.01 
        63.62 z M 32.76 46.96 c -1.62 -3.39 -3.02 -6.65 -4.19 -9.74 c 3.23 -0.52 6.72 -0.93 10.44 -1.21 c -1.1 1.75 
        -2.18 3.55 -3.24 5.41 C 34.71 43.26 33.72 45.12 32.76 46.96 z M 43.95 33.16 c 2.05 -3.02 4.14 -5.85 6.23 -8.45 c 
        2.09 2.59 4.19 5.43 6.24 8.45 c -2.07 -0.09 -4.16 -0.14 -6.24 -0.14 C 48.11 33.02 46.03 33.07 43.95 33.16 z M 
        64.61 41.42 c -1.06 -1.86 -2.14 -3.66 -3.24 -5.41 c 3.7 0.28 7.17 0.69 10.4 1.2 c -1.19 3.16 -2.59 6.42 -4.16 
        9.72 C 66.65 45.1 65.66 43.25 64.61 41.42 z M 26.69 8.75 c 0.61 -0.36 1.35 -0.54 2.18 -0.54 c 4.82 0.0 12.11 
        5.59 19.63 14.45 c -2.6 3.21 -5.22 6.78 -7.77 10.67 c -4.49 0.3 -8.88 0.8 -13.03 1.5 C 22.85 21.04 22.71 11.07 
        26.69 8.75 z M 3.19 49.81 c 0.0 -4.64 8.63 -9.49 22.89 -12.16 c 1.47 3.97 3.24 8.07 5.23 12.14 c -2.04 4.14 
        -3.81 8.23 -5.28 12.17 C 11.8 59.3 3.19 54.45 3.19 49.81 z M 28.87 91.42 c -0.84 0.0 -1.55 -0.18 -2.18 -0.54 c 
        -2.99 -1.74 -3.62 -7.73 -1.73 -16.44 c 0.66 -3.02 1.61 -6.27 2.79 -9.63 c 4.13 0.7 8.51 1.19 12.98 1.49 c 2.55 
        3.89 5.16 7.46 7.77 10.67 C 40.98 85.83 33.69 91.42 28.87 91.42 z M 75.42 74.44 c 1.89 8.71 1.26 14.7 -1.73 
        16.44 c -0.62 0.35 -1.35 0.54 -2.18 0.54 c -4.82 0.0 -12.11 -5.59 -19.62 -14.45 c 2.61 -3.21 5.22 -6.79 7.77 
        -10.67 c 4.47 -0.3 8.85 -0.8 12.98 -1.49 C 73.81 68.17 74.77 71.42 75.42 74.44 z M 74.34 61.96 c -1.46 -3.93 
        -3.23 -8.01 -5.26 -12.15 c 2.04 -4.14 3.8 -8.22 5.27 -12.15 c 14.24 2.67 22.85 7.52 22.85 12.15 C 97.19 54.45 
        88.58 59.3 74.34 61.96 z"/>
    <circle cx="50.19" r="5.44" cy="49.81"/>
</svg>