<?xml version="1.0" standalone="no"?>
<!DOCTYPE svg PUBLIC "-//W3C//DTD SVG 1.1//EN"
    "http://www.w3.org/Graphics/SVG/1.1/DTD/svg11.dtd">
<?xml-stylesheet type="text/css" href="..\database.css" ?>
<!-- Generator: Adobe Illustrator 14.0.0, SVG Export Plug-In . SVG Version: 6.00 Build 43363)  -->
<svg contentScriptType="text/ecmascript" zoomAndPan="magnify" xmlns:xlink="http://www.w3.org/1999/xlink" baseProfile="full"
    contentStyleType="text/css" id="Layer_1" enable-background="new 0 0 70 70" version="1.1" width="70px" xml:space="preserve"
    preserveAspectRatio="xMidYMid meet" viewBox="0 0 70 70" height="70px" xmlns="http://www.w3.org/2000/svg" x="0px" y="0px">      
    <g>           
        <path d="M59.58,15.229c-1.393,3.831-11.05,6.125-24.662,6.125 
            S12,18.729,10.256,15.009l0.025-0.03l0.013,43.167l-0.025,0.03c0,4.013,11.036,7.277,24.648,7.277s24.65-3.265,24.65-7.277l0,0 
            l0.026-0.03l0.013-42.948L59.58,15.229z" clip-rule="evenodd" fill-rule="evenodd"/>           
        <path d="M59.649,12.063c0-3.525-11.038-6.371-24.65-6.371 
            s-24.648,2.846-24.648,6.371c0,3.514,11.036,6.373,24.648,6.373S59.649,15.576,59.649,12.063L59.649,12.063z"
            clip-rule="evenodd" fill-rule="evenodd"/> </g> </svg>