<?xml version="1.0" standalone="no"?>
<!DOCTYPE svg PUBLIC "-//W3C//DTD SVG 1.1//EN"
    "http://www.w3.org/Graphics/SVG/1.1/DTD/svg11.dtd">
<?xml-stylesheet type="text/css" href="..\database.css" ?>
<!-- Generator: Adobe Illustrator 14.0.0, SVG Export Plug-In . SVG Version: 6.00 Build 43363)  -->
<svg contentScriptType="text/ecmascript" zoomAndPan="magnify" xmlns:xlink="http://www.w3.org/1999/xlink" baseProfile="full"
    contentStyleType="text/css" id="Layer_1" enable-background="new 0 0 70 70" version="1.1" width="70px" xml:space="preserve"
    preserveAspectRatio="xMidYMid meet" viewBox="0 0 70 70" height="70px" xmlns="http://www.w3.org/2000/svg" x="0px" y="0px">                              
    <path d="M 39.629 39.51 c -0.012 -0.077 -0.016 -0.154 -0.016 -0.231 c 0.0 -0.128 0.029 -0.25 0.057 -0.373 c 0.578 
        -2.634 7.199 -4.013 13.758 -4.013 c 2.223 0.0 4.451 0.162 6.451 0.473 V 11.019 c 0.0 -2.762 -2.238 -5.0 -5.0 
        -5.0 H 9.182 c -2.76 0.0 -5.0 2.238 -5.0 5.0 V 57.83 c 0.0 2.762 2.24 5.0 5.0 5.0 L 40.4 62.766 c -0.508 -0.513 
        -0.787 -1.085 -0.787 -1.671 L 39.629 39.51 z"/>                                                            
    <path d="M 59.879 43.196 v -0.0040 c -0.346 0.057 -0.688 0.101 -1.032 0.146 c -0.177 0.023 -0.346 0.049 -0.527 0.07 
        c -0.321 0.037 -0.646 0.064 -0.971 0.092 c -0.207 0.018 -0.414 0.037 -0.626 0.052 c -0.414 0.028 -0.832 0.052 
        -1.261 0.068 c -0.068 0.0030 -0.138 0.0050 -0.207 0.0070 c -0.49 0.017 -0.989 0.028 -1.509 0.031 c -0.105 0.0010 
        -0.211 0.0050 -0.318 0.0050 c -4.928 0.0 -9.887 -0.781 -12.299 -2.285 v 19.816 c 0.135 0.456 1.306 1.054 2.947 
        1.59 c 2.216 0.653 5.634 1.195 10.152 1.195 c 8.271 0.0 11.705 -1.87 11.705 -2.871 l 0.016 -19.909 C 64.662 
        42.039 62.575 42.754 59.879 43.196 z"/>                                                            
    <path d="M 53.428 36.393 c -7.969 0.0 -12.314 1.906 -12.314 2.886 s 4.346 2.887 12.314 2.887 c 2.532 0.0 4.695 
        -0.193 6.473 -0.488 c 3.815 -0.632 5.842 -1.731 5.842 -2.399 s -2.026 -1.767 -5.842 -2.398 C 58.123 36.586 55.96 
        36.393 53.428 36.393 z"/>                                 
    <path fill="#FFFFFF" d="M 52.238 55.064 v 0.387 c 0.0 1.236 0.352 2.029 1.753 2.029 c 0.812 0.0 1.587 -0.517 1.587 
        -1.623 c 0.0 -1.199 -0.609 -1.643 -2.361 -2.251 c -2.361 -0.812 -3.45 -1.79 -3.45 -3.985 c 0.0 -2.563 1.567 
        -3.873 4.077 -3.873 c 2.361 0.0 4.076 1.014 4.076 3.541 v 0.369 h -2.545 c 0.0 -1.235 -0.424 -1.955 -1.439 
        -1.955 c -1.199 0.0 -1.513 0.756 -1.513 1.531 c 0.0 0.812 0.24 1.31 1.365 1.789 l 2.048 0.886 c 1.992 0.867 
        2.509 1.882 2.509 3.487 c 0.0 2.785 -1.697 4.039 -4.575 4.039 c -3.007 0.0 -4.188 -1.401 -4.188 -3.837 v -0.534 
        H 52.238 z"/> </svg>