<?xml version="1.0" standalone="no"?>
<!DOCTYPE svg PUBLIC "-//W3C//DTD SVG 1.1//EN"
    "http://www.w3.org/Graphics/SVG/1.1/DTD/svg11.dtd">
<?xml-stylesheet type="text/css" href="..\database.css" ?>
<!-- Generator: Adobe Illustrator 14.0.0, SVG Export Plug-In . SVG Version: 6.00 Build 43363)  -->
<svg contentScriptType="text/ecmascript" zoomAndPan="magnify" xmlns:xlink="http://www.w3.org/1999/xlink" baseProfile="full"
    contentStyleType="text/css" id="Layer_1" enable-background="new 0 0 70 70" version="1.1" width="70px" xml:space="preserve"
    preserveAspectRatio="xMidYMid meet" viewBox="0 0 70 70" height="70px" xmlns="http://www.w3.org/2000/svg" x="0px" y="0px">      
    <g>           
        <path d="M39.629,39.51c-0.012-0.077-0.016-0.154-0.016-0.231c0-0.128,0.029-0.25,0.057-0.373 
            c0.578-2.634,7.199-4.013,13.758-4.013c2.223,0,4.451,0.162,6.451,0.473V11.019c0-2.762-2.238-5-5-5H9.182c-2.76,0-5,2.238-5,5 
            V57.83c0,2.762,2.24,5,5,5L40.4,62.766c-0.508-0.513-0.787-1.085-0.787-1.671L39.629,39.51z 
            M46.359,14.367h1.768v9.581h4.277 v1.488h-6.045V14.367z 
            M19.918,25.436h-1.675v-9.209h-0.03l-2.232,9.209h-1.488l-2.232-9.209h-0.031v9.209h-1.675V14.367h2.76 
            l1.953,8.201h0.031l1.923-8.201h2.697V25.436z M25.402,25.747c-0.65,2.278-1.193,2.573-2.914,2.542 
            c-0.217,0-0.449-0.031-0.666-0.062v-1.334c0.186,0.031,0.355,0.063,0.543,0.063c0.572,0,0.945-0.124,1.131-0.651l0.217-0.682 
            l-2.371-8.527h1.798l1.442,6.264h0.03l1.333-6.264h1.752L25.402,25.747z 
            M32.084,25.653c-2.744,0-3.364-1.829-3.364-3.379V22.01 
            h1.767v0.279c0,1.349,0.59,2.03,1.814,2.03c1.116,0,1.674-0.79,1.674-1.612c0-1.162-0.588-1.674-1.58-1.969l-1.21-0.419 
            c-1.612-0.62-2.31-1.457-2.31-3.038c0-2.016,1.363-3.132,3.441-3.132c2.837,0,3.131,1.768,3.131,2.915v0.248h-1.767v-0.232 
            c0-1.008-0.45-1.598-1.55-1.598c-0.76,0-1.488,0.419-1.488,1.598c0,0.945,0.48,1.426,1.658,1.875l1.193,0.435 
            c1.566,0.558,2.248,1.411,2.248,2.93C35.742,24.676,34.316,25.653,32.084,25.653z 
            M37.291,19.902c0-3.953,1.115-5.752,3.658-5.752 
            s3.658,1.799,3.658,5.752c0,2.046-0.371,3.581-0.867,4.387l1.131,1.194l-1.053,0.945l-1.133-1.147 
            c-0.449,0.264-1.039,0.372-1.736,0.372C38.406,25.653,37.291,23.855,37.291,19.902z"/>           
        <path d="M41.586,24.211l-0.838-0.821l1.008-1.008l0.729,0.729c0.248-0.667,0.357-1.705,0.357-3.256 
            c0-3.721-0.838-4.372-1.893-4.372s-1.891,0.651-1.891,4.372c0,3.813,0.836,4.465,1.891,4.465 
            C41.182,24.32,41.383,24.289,41.586,24.211z"/>           
        <path d="M59.879,43.196v-0.004c-0.346,0.057-0.688,0.101-1.032,0.146c-0.177,0.023-0.347,0.049-0.526,0.07 
            c-0.322,0.037-0.646,0.064-0.972,0.092c-0.207,0.018-0.413,0.037-0.626,0.052c-0.414,0.028-0.832,0.052-1.261,0.068 
            c-0.068,0.003-0.138,0.005-0.207,0.007c-0.49,0.017-0.989,0.028-1.509,0.031c-0.105,0.001-0.211,0.005-0.318,0.005 
            c-4.928,0-9.887-0.781-12.299-2.285v19.816c0.135,0.456,1.306,1.054,2.947,1.59c2.215,0.653,5.634,1.195,10.152,1.195 
            c8.271,0,11.705-1.87,11.705-2.871l0.016-19.909C64.662,42.039,62.575,42.754,59.879,43.196z 
            M47.69,46.271h3.949l1.881,9.298 
            h0.037l1.9-9.298h3.93v13.172h-2.436V48.928h-0.037l-2.342,10.515h-2.066l-2.344-10.515h-0.037v10.515H47.69V46.271z"/>           
        <path d="M53.428,36.393c-7.969,0-12.314,1.906-12.314,2.886s4.346,2.887,12.314,2.887 
            c2.532,0,4.695-0.193,6.473-0.488c3.814-0.632,5.842-1.731,5.842-2.399s-2.027-1.767-5.842-2.398 
            C58.123,36.586,55.96,36.393,53.428,36.393z"/>           
        <polygon fill="#FFFFFF" points="50.126,48.928 50.163,48.928 52.507,59.443 54.573,59.443 56.915,48.928 
            56.952,48.928 56.952,59.443 59.388,59.443 59.388,46.271 55.458,46.271 53.558,55.569 53.521,55.569 
            51.64,46.271 47.69,46.271 47.69,59.443 50.126,59.443"/>           
        <polygon fill="#FFFFFF" points="15.298,22.568 15.267,22.568 13.313,14.367 10.554,14.367 10.554,25.436 
            12.229,25.436 12.229,16.227 12.26,16.227 14.492,25.436 15.98,25.436 18.213,16.227 18.243,16.227 
            18.243,25.436 19.918,25.436 19.918,14.367 17.221,14.367"/>           
        <path fill="#FFFFFF" d=
            "M24.612,23.359h-0.03l-1.442-6.264h-1.798l2.371,8.527l-0.217,0.682c-0.186,0.527-0.559,0.651-1.131,0.651 
            c-0.188,0-0.357-0.031-0.543-0.063v1.334c0.217,0.03,0.449,0.062,0.666,0.062c1.721,0.031,2.264-0.264,2.914-2.542l2.295-8.651 
            h-1.752L24.612,23.359z"/>           
        <path fill="#FFFFFF" d=
            "M33.494,19.39l-1.193-0.435c-1.178-0.449-1.658-0.93-1.658-1.875c0-1.179,0.729-1.598,1.488-1.598 
            c1.1,0,1.55,0.59,1.55,1.598v0.232h1.767v-0.248c0-1.147-0.294-2.915-3.131-2.915c-2.078,0-3.441,1.116-3.441,3.132 
            c0,1.581,0.697,2.418,2.31,3.038l1.21,0.419c0.992,0.295,1.58,0.807,1.58,1.969c0,0.822-0.558,1.612-1.674,1.612 
            c-1.225,0-1.814-0.682-1.814-2.03V22.01H28.72v0.264c0,1.55,0.62,3.379,3.364,3.379c2.232,0,3.658-0.977,3.658-3.333 
            C35.742,20.801,35.061,19.948,33.494,19.39z"/>           
        <path fill="#FFFFFF" d="M42.686,25.281l1.133,1.147l1.053-0.945l-1.131-1.194c0.496-0.806,0.867-2.341,0.867-4.387 
            c0-3.953-1.115-5.752-3.658-5.752s-3.658,1.799-3.658,5.752s1.115,5.751,3.658,5.751C41.646,25.653,42.236,25.544,42.686,25.281z 
            M39.059,19.855c0-3.721,0.836-4.372,1.891-4.372s1.893,0.651,1.893,4.372c0,1.551-0.109,2.589-0.357,3.256l-0.729-0.729 
            l-1.008,1.008l0.838,0.821c-0.203,0.077-0.404,0.108-0.637,0.108C39.895,24.32,39.059,23.668,39.059,19.855z"/>           
        <polygon fill="#FFFFFF" points="52.404,23.948 48.127,23.948 48.127,14.367 46.359,14.367 46.359,25.436 
            52.404,25.436"/> </g> </svg>