<?xml version="1.0" standalone="no"?>
<!DOCTYPE svg PUBLIC "-//W3C//DTD SVG 1.1//EN"
    "http://www.w3.org/Graphics/SVG/1.1/DTD/svg11.dtd">
<?xml-stylesheet type="text/css" href="..\database.css" ?>
<!-- Generator: Adobe Illustrator 14.0.0, SVG Export Plug-In . SVG Version: 6.00 Build 43363)  -->
<svg contentScriptType="text/ecmascript" zoomAndPan="magnify" xmlns:xlink="http://www.w3.org/1999/xlink" baseProfile="full"
    contentStyleType="text/css" id="Layer_1" enable-background="new 0 0 70 70" version="1.1" width="70px" xml:space="preserve"
    preserveAspectRatio="xMidYMid meet" viewBox="0 0 70 70" height="70px" xmlns="http://www.w3.org/2000/svg" x="0px" y="0px">                
    <g>                             
        <g>                                          
            <path d="M40.056,39.51c-0.012-0.077-0.016-0.154-0.016-0.231c0-0.128,0.029-0.25,0.057-0.373 
                c0.578-2.634,7.199-4.013,13.758-4.013c2.223,0,4.451,0.162,6.451,0.473V11.019c0-2.762-2.238-5-5-5H9.608c-2.76,0-5,2.238-5,5 
                V57.83c0,2.762,2.24,5,5,5l31.219-0.064c-0.508-0.513-0.787-1.085-0.787-1.671L40.056,39.51z"/>                                          
            <path d="M60.306,43.196v-0.004c-0.346,0.057-0.688,0.101-1.032,0.146c-0.177,0.023-0.346,0.049-0.527,0.07 
                c-0.321,0.037-0.646,0.064-0.971,0.092c-0.207,0.018-0.414,0.037-0.626,0.052c-0.414,0.028-0.832,0.052-1.261,0.068 
                c-0.068,0.003-0.138,0.005-0.207,0.007c-0.49,0.017-0.989,0.028-1.509,0.031c-0.105,0.001-0.211,0.005-0.318,0.005 
                c-4.928,0-9.887-0.781-12.299-2.285v19.816c0.135,0.456,1.306,1.054,2.947,1.59c2.216,0.653,5.634,1.195,10.152,1.195 
                c8.271,0,11.705-1.87,11.705-2.871l0.016-19.909C65.089,42.039,63.002,42.754,60.306,43.196z"/>                                          
            <path d="M53.854,36.393c-7.969,0-12.314,1.906-12.314,2.886s4.346,2.887,12.314,2.887 
                c2.532,0,4.695-0.193,6.473-0.488c3.815-0.632,5.842-1.731,5.842-2.399s-2.026-1.767-5.842-2.398 
                C58.55,36.586,56.387,36.393,53.854,36.393z"/>  </g>                             
        <g>                                          
            <path fill="#FFFFFF" d=
                "M48.117,47.005h3.949l1.881,9.299h0.037l1.9-9.299h3.93v13.172h-2.436V49.663h-0.037l-2.343,10.515h-2.066 
                L50.59,49.663h-0.037v10.515h-2.436V47.005z"/>  </g> </g> </svg>