<?xml version="1.0" standalone="no"?>
<!DOCTYPE svg PUBLIC "-//W3C//DTD SVG 1.1//EN"
    "http://www.w3.org/Graphics/SVG/1.1/DTD/svg11.dtd">
<?xml-stylesheet type="text/css" href="..\database.css" ?>
<!-- Generator: Adobe Illustrator 14.0.0, SVG Export Plug-In . SVG Version: 6.00 Build 43363)  -->
<svg contentScriptType="text/ecmascript" zoomAndPan="magnify" xmlns:xlink="http://www.w3.org/1999/xlink" baseProfile="full"
    contentStyleType="text/css" id="Layer_1" enable-background="new 0 0 70 70" version="1.1" width="70px" xml:space="preserve"
    preserveAspectRatio="xMidYMid meet" viewBox="0 0 70 70" height="70px" xmlns="http://www.w3.org/2000/svg" x="0px" y="0px">      
    <g>           
        <path d="M37.629,39.51c-0.012-0.077-0.016-0.154-0.016-0.231c0-0.128,0.029-0.25,0.057-0.373 
            c0.578-2.634,7.199-4.013,13.758-4.013c2.223,0,4.451,0.162,6.451,0.473V11.019c0-2.762-2.238-5-5-5H7.182c-2.76,0-5,2.238-5,5 
            V57.83c0,2.762,2.24,5,5,5L38.4,62.766c-0.508-0.513-0.787-1.085-0.787-1.671L37.629,39.51z"/>           
        <path d="M57.879,43.196v-0.004c-0.346,0.057-0.688,0.101-1.032,0.146c-0.177,0.023-0.346,0.049-0.527,0.07 
            c-0.321,0.037-0.646,0.064-0.971,0.092c-0.207,0.018-0.414,0.037-0.626,0.052c-0.414,0.028-0.832,0.052-1.261,0.068 
            c-0.068,0.003-0.138,0.005-0.207,0.007c-0.49,0.017-0.989,0.028-1.509,0.031c-0.105,0.001-0.211,0.005-0.318,0.005 
            c-4.928,0-9.887-0.781-12.299-2.285v19.816c0.135,0.456,1.306,1.054,2.947,1.59c2.216,0.653,5.634,1.195,10.152,1.195 
            c8.271,0,11.705-1.87,11.705-2.871l0.016-19.909C62.662,42.039,60.575,42.754,57.879,43.196z 
            M47.757,46.414h4.908 
            c2.176,0,3.504,1.144,3.504,3.395c0,1.753-0.7,2.933-2.195,3.247v0.037c1.809,0.239,2.086,1.235,2.122,4.021 
            c0.019,1.383,0.093,2.103,0.591,2.361v0.11h-2.879c-0.258-0.369-0.313-0.867-0.332-1.384l-0.073-2.527 
            c-0.036-1.033-0.498-1.66-1.567-1.66h-1.421v5.571h-2.657V46.414z"/>           
        <path d="M53.513,50.196c0-1.218-0.646-1.826-1.844-1.826h-1.255v3.8h1.106 
            C52.794,52.169,53.513,51.616,53.513,50.196z"/>           
        <path d="M51.428,36.393c-7.969,0-12.314,1.906-12.314,2.886s4.346,2.887,12.314,2.887 
            c2.532,0,4.695-0.193,6.473-0.488c3.815-0.632,5.842-1.731,5.842-2.399s-2.026-1.767-5.842-2.398 
            C56.123,36.586,53.96,36.393,51.428,36.393z"/>           
        <path fill="#FFFFFF" d=
            "M50.414,54.014h1.421c1.069,0,1.531,0.627,1.567,1.66l0.073,2.527c0.02,0.517,0.074,1.015,0.332,1.384 
            h2.879v-0.11c-0.498-0.259-0.572-0.979-0.591-2.361c-0.036-2.786-0.313-3.782-2.122-4.021v-0.037 
            c1.495-0.314,2.195-1.494,2.195-3.247c0-2.251-1.328-3.395-3.504-3.395h-4.908v13.172h2.657V54.014z 
            M50.414,48.37h1.255 c1.198,0,1.844,0.608,1.844,1.826c0,1.42-0.719,1.974-1.992,1.974h-1.106V48.37z"/> </g> </svg>