<?xml version="1.0" standalone="no"?>
<!--Created with Sketsa SVG Editor (http://www.kiyut.com)-->
<?xml-stylesheet type="text/css" href="..\basic.css" ?>
<svg contentScriptType="text/ecmascript" width="100.0px" xmlns:xlink="http://www.w3.org/1999/xlink" baseProfile="full"
    zoomAndPan="magnify" contentStyleType="text/css" height="100.0px" preserveAspectRatio="xMidYMid meet" xmlns="http://www.w3.org/2000/svg"
    version="1.0">
    <ellipse rx="49.5" ry="49.5" cx="50" cy="50.0"/>
    <ellipse rx="46" ry="46" cx="50.0" cy="50.0"/>
    <ellipse rx="39" ry="39" cx="50.0" cy="50.0"/>
    <line y2="16.5" fill="none" x1="50.0" x2="52" y1="50.0"/>
    <line y2="50" fill="none" x1="50" x2="72" y1="50"/>
    <line y2="16" fill="none" x1="50" x2="50" y1="11"/>
    <line y2="21" fill="none" x1="69.5" x2="66.7" y1="16.1"/>
    <line y2="33.3" fill="none" x1="83.7" x2="78.8" y1="30.3"/>
    <line y2="50" fill="none" x1="89" x2="84" y1="50"/>
    <line y2="66.7" fill="none" x1="83.7" x2="78.8" y1="69.7"/>
    <line y2="21" fill="none" x1="30.5" x2="33.3" y1="16.1"/>
    <line y2="79" fill="none" x1="69.5" x2="66.7" y1="83.9"/>
    <line y2="89" fill="none" x1="50" x2="50" y1="84"/>
    <line y2="79" fill="none" x1="30.5" x2="33.3" y1="83.9"/>
    <line y2="66.7" fill="none" x1="16.3" x2="21.2" y1="69.7"/>
    <line y2="50" fill="none" x1="11" x2="16" y1="50"/>
    <line y2="33.3" fill="none" x1="16.3" x2="21.2" y1="30.3"/>
</svg>