<?xml version="1.0" standalone="no"?>
<!DOCTYPE svg PUBLIC "-//W3C//DTD SVG 1.0//EN"
    "http://www.w3.org/TR/2001/REC-SVG-20010904/DTD/svg10.dtd">
<?xml-stylesheet type="text/css" href="..\cisco_network.css" ?>
<svg contentScriptType="text/ecmascript" zoomAndPan="magnify" xmlns:xlink="http://www.w3.org/1999/xlink" baseProfile="full"
    contentStyleType="text/css" enable-background="new" version="1.0" width="51.3921" preserveAspectRatio="none"
    viewBox="36 -955.01 58.016 30.016" height="26.589" xmlns="http://www.w3.org/2000/svg" color-interpolation-filters="sRGB"
    x="0" y="45.411">
    <path d="M 258,-2822 L 278,-2863 L 141,-2863 L 110,-2822 L 258,-2822 Z M 278,-2826 L 278,-2863 L 258,-2822 L 
        258,-2778 L 278,-2826 Z M 258,-2778 L 258,-2822 L 110,-2822 L 110,-2778 L 258,-2778 Z" stroke-width="2"
        transform="matrix(0.33333, 0, 0, 0.33333, 0, 0)"/>
    <path fill="#ffffff" d="M 253,-2844 L 197,-2851 L 195,-2847 L 146,-2847 L 140,-2840 L 191,-2840 L 188,-2836 L 
        253,-2844 Z" stroke-width="2.54" transform="matrix(0.33333, 0, 0, 0.33333, 0, 0)" stroke="none"/>
</svg>