<?xml version="1.0" standalone="no"?>
<!DOCTYPE svg PUBLIC "-//W3C//DTD SVG 1.0//EN"
    "http://www.w3.org/TR/2001/REC-SVG-20010904/DTD/svg10.dtd">
<?xml-stylesheet type="text/css" href="..\cisco_network.css" ?>
<svg contentScriptType="text/ecmascript" zoomAndPan="magnify" xmlns:xlink="http://www.w3.org/1999/xlink" baseProfile="full"
    contentStyleType="text/css" enable-background="new" version="1.0" width="45.1843" preserveAspectRatio="none"
    viewBox="551.01 -960.99 51.008 34.976" height="30.9827" xmlns="http://www.w3.org/2000/svg"
    color-interpolation-filters="sRGB" x="0" y="1.5">
    <path stroke-width="2" d="M1802,-2852 C1802,-2837 1769,-2824 1729,-2824 C1688,-2824 1655,-2837 1655,-2852 
        C1655,-2811 1655,-2811 1655,-2811 C1655,-2795 1688,-2782 1729,-2782 C1769,-2782 1802,-2795 1802,-2811 Z 
        M1729,-2824 C1769,-2824 1802,-2837 1802,-2852 C1802,-2868 1769,-2881 1729,-2881 C1688,-2881 1655,-2868 
        1655,-2852 C1655,-2837 1688,-2824 1729,-2824 Z" transform="matrix(0.33333, 0, 0, 0.33333, 0, 0)"/>
    <path fill="#ffffff" d="M1712,-2864 L1718,-2855 L1695,-2849 L1700,-2853 L1664,-2859 L1673,-2866 L1708,-2860 
        L1712,-2864 Z M1744,-2842 L1740,-2851 L1761,-2855 L1757,-2852 L1792,-2846 L1783,-2839 L1749,-2846 L1744,-2842 Z 
        M1733,-2869 L1756,-2875 L1756,-2865 L1750,-2866 L1739,-2857 L1728,-2858 L1740,-2867 L1733,-2869 Z M1723,-2833 
        L1701,-2829 L1700,-2839 L1706,-2838 L1718,-2848 L1729,-2846 L1716,-2835 L1723,-2833 Z" transform="matrix(0.33333, 0, 0, 0.33333, 0, 0)"
        stroke="none"/>
    <path fill="#ffffff" d="M1762,-2803 C1762,-2794 1748,-2786 1730,-2786 C1712,-2786 1698,-2794 1698,-2803 C1698,-2812 
        1712,-2819 1730,-2819 C1748,-2819 1762,-2812 1762,-2803 Z" transform="matrix(0.33333, 0, 0, 0.33333, 0, 0)"
        stroke="none"/>
    <path d="M1710,-2800 L1720,-2810 L1715,-2815 L1730,-2816 L1729,-2801 L1724,-2806 L1714,-2796 L1710,-2800 Z 
        M1728,-2792 L1738,-2802 L1733,-2807 L1748,-2808 L1747,-2793 L1742,-2798 L1732,-2788 L1728,-2792 Z" transform="matrix(0.33333, 0, 0, 0.33333, 0, 0)"/>
</svg>