<?xml version="1.0" standalone="no"?>
<!DOCTYPE svg PUBLIC "-//W3C//DTD SVG 1.0//EN"
    "http://www.w3.org/TR/2001/REC-SVG-20010904/DTD/svg10.dtd">
<?xml-stylesheet type="text/css" href="..\cisco_network.css" ?>
<svg contentScriptType="text/ecmascript" zoomAndPan="magnify" xmlns:xlink="http://www.w3.org/1999/xlink" baseProfile="full"
    contentStyleType="text/css" enable-background="new" version="1.0" width="37.1906" preserveAspectRatio="none"
    viewBox="379.01 -560.99 41.984 56" height="49.6063" xmlns="http://www.w3.org/2000/svg" color-interpolation-filters="sRGB"
    x="0" y="1.5">
    <path fill="#6daed7" stroke-width="2" d="M1239,-1518 L1239,-1594 L1140,-1594 L1140,-1518 L1239,-1518 Z" transform="matrix(0.33333, 0, 0, 0.33333, 0, 0)"/>
    <path d="M1258,-1537 L1258,-1612 L1239,-1594 L1239,-1518 L1258,-1537 Z" stroke-width="2" transform="matrix(0.33333, 0, 0, 0.33333, 0, 0)"/>
    <path d="M1260,-1613 L1239,-1594 L1140,-1594 L1165,-1613 L1260,-1613 Z" stroke-width="2" transform="matrix(0.33333, 0, 0, 0.33333, 0, 0)"/>
    <path d="M1260,-1683 L1239,-1663 L1140,-1663 L1165,-1683 L1260,-1683 Z M1239,-1593 L1239,-1663 L1140,-1663 
        L1140,-1593 L1239,-1593 Z M1258,-1611 L1258,-1682 L1239,-1663 L1239,-1593 L1258,-1611 Z" stroke-width="2"
        transform="matrix(0.33333, 0, 0, 0.33333, 0, 0)"/>
    <path fill="#ffffff" d="M1180,-1630 L1165,-1630 L1165,-1634 L1160,-1628 L1165,-1622 L1165,-1626 L1180,-1626 
        L1180,-1630 Z M1188,-1618 L1188,-1603 L1185,-1603 L1190,-1597 L1196,-1603 L1192,-1603 L1192,-1618 L1188,-1618 Z 
        M1188,-1638 L1188,-1653 L1185,-1653 L1190,-1658 L1196,-1653 L1192,-1653 L1192,-1638 L1188,-1638 Z M1201,-1626 
        L1215,-1626 L1215,-1622 L1221,-1628 L1215,-1634 L1215,-1630 L1201,-1630 L1201,-1626 Z" transform="matrix(0.33333, 0, 0, 0.33333, 0, 0)"
        stroke="none"/>
    <path fill="none" d="M1214,-1604 C1212,-1601 1199,-1609 1186,-1622 C1173,-1635 1164,-1648 1167,-1651 C1170,-1654 
        1183,-1646 1196,-1633 C1209,-1620 1217,-1607 1214,-1604 Z" transform="matrix(0.33333, 0, 0, 0.33333, 0, 0)"/>
    <path fill="none" d="M1214,-1651 C1217,-1648 1208,-1635 1195,-1622 C1182,-1609 1170,-1601 1167,-1604 C1164,-1607 
        1172,-1619 1185,-1633 C1198,-1646 1211,-1654 1214,-1651 Z" transform="matrix(0.33333, 0, 0, 0.33333, 0, 0)"/>
    <path fill="#b5b5b5" d="M1196,-1619 C1201,-1623 1203,-1629 1199,-1634 C1196,-1639 1189,-1640 1184,-1637 C1179,-1634 
        1178,-1627 1181,-1622 C1185,-1617 1192,-1616 1196,-1619 Z" transform="matrix(0.33333, 0, 0, 0.33333, 0, 0)"
        stroke="none"/>
    <path fill="none" d="M1186,-1568 L1161,-1568" stroke-width="6" transform="matrix(0.33333, 0, 0, 0.33333, 0, 0)"/>
    <path fill="none" d="M1195,-1576 L1223,-1576" stroke-width="6" transform="matrix(0.33333, 0, 0, 0.33333, 0, 0)"/>
    <path fill="#ffffff" d="M1217,-1586 L1217,-1567 L1228,-1576 L1217,-1586 Z" transform="matrix(0.33333, 0, 0, 0.33333, 0, 0)"/>
    <path fill="#ffffff" d="M1164,-1559 L1164,-1577 L1152,-1568 L1164,-1559 Z" transform="matrix(0.33333, 0, 0, 0.33333, 0, 0)"/>
    <path fill="none" d="M1186,-1535 L1161,-1535" stroke-width="6" transform="matrix(0.33333, 0, 0, 0.33333, 0, 0)"/>
    <path fill="none" d="M1195,-1543 L1223,-1543" stroke-width="6" transform="matrix(0.33333, 0, 0, 0.33333, 0, 0)"/>
    <path fill="#ffffff" d="M1217,-1553 L1217,-1534 L1228,-1543 L1217,-1553 Z" transform="matrix(0.33333, 0, 0, 0.33333, 0, 0)"/>
    <path fill="#ffffff" d="M1164,-1526 L1164,-1544 L1152,-1535 L1164,-1526 Z" transform="matrix(0.33333, 0, 0, 0.33333, 0, 0)"/>
</svg>