<?xml version="1.0" standalone="no"?>
<!DOCTYPE svg PUBLIC "-//W3C//DTD SVG 1.0//EN"
    "http://www.w3.org/TR/2001/REC-SVG-20010904/DTD/svg10.dtd">
<?xml-stylesheet type="text/css" href="..\cisco_network.css" ?>
<svg contentScriptType="text/ecmascript" zoomAndPan="magnify" xmlns:xlink="http://www.w3.org/1999/xlink" baseProfile="full"
    contentStyleType="text/css" enable-background="new" version="1.0" width="37.2189" preserveAspectRatio="none"
    viewBox="396.99 -964.99 42.016 41.984" height="37.1906" xmlns="http://www.w3.org/2000/svg"
    color-interpolation-filters="sRGB" x="0" y="1.5">
    <path d="M1301,-2771 L1301,-2879 L1194,-2879 L1194,-2771 L1301,-2771 Z" stroke-width="2" transform="matrix(0.33333, 0, 0, 0.33333, 0, 0)"/>
    <path fill="none" stroke-width="4" d="M1218,-2835 C1222,-2835 1226,-2838 1226,-2843 C1226,-2847 1222,-2851 
        1218,-2851 C1213,-2851 1210,-2847 1210,-2843 C1210,-2838 1213,-2835 1218,-2835 Z" transform="matrix(0.33333, 0, 0, 0.33333, 0, 0)"/>
    <path fill="none" d="M1218,-2851 L1232,-2851" stroke-width="4" transform="matrix(0.33333, 0, 0, 0.33333, 0, 0)"/>
    <path fill="#ffffff" d="M1232,-2856 L1232,-2846 L1238,-2851 L1232,-2856 Z" stroke-width="4" transform="matrix(0.33333, 0, 0, 0.33333, 0, 0)"/>
    <path fill="none" d="M1210,-2843 L1210,-2857" stroke-width="4" transform="matrix(0.33333, 0, 0, 0.33333, 0, 0)"/>
    <path fill="#ffffff" d="M1204,-2857 L1215,-2857 L1210,-2863 L1204,-2857 Z" stroke-width="4" transform="matrix(0.33333, 0, 0, 0.33333, 0, 0)"/>
    <path fill="none" d="M1226,-2843 L1226,-2829" stroke-width="4" transform="matrix(0.33333, 0, 0, 0.33333, 0, 0)"/>
    <path fill="#ffffff" d="M1231,-2829 L1221,-2829 L1226,-2823 L1231,-2829 Z" stroke-width="4" transform="matrix(0.33333, 0, 0, 0.33333, 0, 0)"/>
    <path fill="none" d="M1218,-2835 L1204,-2835" stroke-width="4" transform="matrix(0.33333, 0, 0, 0.33333, 0, 0)"/>
    <path fill="#ffffff" d="M1204,-2829 L1204,-2840 L1197,-2835 L1204,-2829 Z" stroke-width="4" transform="matrix(0.33333, 0, 0, 0.33333, 0, 0)"/>
    <path d="M1300,-2879 L1194,-2879 L1211,-2893 L1314,-2893 L1314,-2892 L1314,-2785 L1300,-2771 L1300,-2879 L1300,-2879 
        Z" stroke-width="2" transform="matrix(0.33333, 0, 0, 0.33333, 0, 0)"/>
    <path fill="none" d="M1300,-2879 L1314,-2893" stroke-width="2" transform="matrix(0.33333, 0, 0, 0.33333, 0, 0)"/>
    <path fill="#000000" stroke-width="2.54" d="M1300,-2807 L1194,-2807 Z" transform="matrix(0.33333, 0, 0, 0.33333, 0, 0)"
        stroke="none"/>
    <path fill="none" d="M1300,-2807 L1194,-2807" stroke-width="2" transform="matrix(0.33333, 0, 0, 0.33333, 0, 0)"/>
    <path fill="#000000" d="M1267,-2809 L1267,-2879 Z" stroke-width="2.54" transform="matrix(0.33333, 0, 0, 0.33333, 0, 0)"/>
    <path fill="none" d="M1267,-2809 L1267,-2879" stroke-width="2" transform="matrix(0.33333, 0, 0, 0.33333, 0, 0)"/>
    <path fill="#000000" stroke-width="2.54" d="M1255,-2809 L1255,-2879 Z" transform="matrix(0.33333, 0, 0, 0.33333, 0, 0)"
        stroke="none"/>
    <path fill="none" d="M1255,-2809 L1255,-2879" stroke-width="2" transform="matrix(0.33333, 0, 0, 0.33333, 0, 0)"/>
    <path fill="#000000" stroke-width="2.54" d="M1290,-2809 L1290,-2879 Z" transform="matrix(0.33333, 0, 0, 0.33333, 0, 0)"
        stroke="none"/>
    <path fill="none" stroke-width="2" d="M1290,-2809 L1290,-2879" transform="matrix(0.33333, 0, 0, 0.33333, 0, 0)"/>
    <path fill="#000000" stroke-width="2.54" d="M1278,-2809 L1278,-2879 Z" transform="matrix(0.33333, 0, 0, 0.33333, 0, 0)"
        stroke="none"/>
    <path fill="none" d="M1278,-2809 L1278,-2879" stroke-width="2" transform="matrix(0.33333, 0, 0, 0.33333, 0, 0)"/>
    <path fill="#000000" d="M1243,-2809 L1243,-2810 Z" transform="matrix(0.33333, 0, 0, 0.33333, 0, 0)" stroke="none"/>
    <path fill="none" d="M1243,-2809 L1243,-2810" stroke-width="2" transform="matrix(0.33333, 0, 0, 0.33333, 0, 0)"/>
    <path fill="#000000" d="M1243,-2809 L1243,-2877 Z" transform="matrix(0.33333, 0, 0, 0.33333, 0, 0)" stroke="none"/>
    <path fill="none" d="M1243,-2809 L1243,-2877" stroke-width="2" transform="matrix(0.33333, 0, 0, 0.33333, 0, 0)"/>
    <path d="M1234,-2797 L1203,-2797 L1203,-2802 L1234,-2802 L1234,-2797 Z" stroke-width="2" transform="matrix(0.33333, 0, 0, 0.33333, 0, 0)"/>
    <path d="M1263,-2788 L1232,-2788 L1232,-2792 L1263,-2792 L1263,-2788 Z" stroke-width="2" transform="matrix(0.33333, 0, 0, 0.33333, 0, 0)"/>
    <path d="M1292,-2779 L1261,-2779 L1261,-2783 L1292,-2783 L1292,-2779 Z" stroke-width="2" transform="matrix(0.33333, 0, 0, 0.33333, 0, 0)"/>
</svg>