<?xml version="1.0" standalone="no"?>
<!DOCTYPE svg PUBLIC "-//W3C//DTD SVG 1.0//EN"
    "http://www.w3.org/TR/2001/REC-SVG-20010904/DTD/svg10.dtd">
<?xml-stylesheet type="text/css" href="..\cisco_network.css" ?>
<svg contentScriptType="text/ecmascript" zoomAndPan="magnify" xmlns:xlink="http://www.w3.org/1999/xlink" baseProfile="full"
    contentStyleType="text/css" enable-background="new" version="1.0" width="45.1559" preserveAspectRatio="none"
    viewBox="474.02 -974.02 50.976 51.008" height="45.1843" xmlns="http://www.w3.org/2000/svg"
    color-interpolation-filters="sRGB" x="0" y="1.5">
    <path stroke-width="2" d="M1573,-2892 C1573,-2876 1540,-2863 1500,-2863 C1459,-2863 1426,-2876 1426,-2892 
        C1426,-2802 1426,-2802 1426,-2802 C1426,-2786 1459,-2773 1500,-2773 C1540,-2773 1573,-2786 1573,-2802 Z"
        transform="matrix(0.33333, 0, 0, 0.33333, 0, 0)"/>
    <path d="M1500,-2863 C1540,-2863 1573,-2876 1573,-2892 C1573,-2907 1540,-2920 1500,-2920 C1459,-2920 1426,-2907 
        1426,-2892 C1426,-2876 1459,-2863 1500,-2863 Z" stroke-width="2" transform="matrix(0.33333, 0, 0, 0.33333, 0, 0)"/>
    <path fill="#ffffff" stroke-width="2.54" d="M1483,-2903 L1489,-2894 L1466,-2888 L1471,-2893 L1436,-2899 L1445,-2905 
        L1479,-2900 L1483,-2903 Z M1515,-2881 L1511,-2890 L1532,-2894 L1528,-2891 L1563,-2885 L1555,-2879 L1520,-2885 
        L1515,-2881 Z M1494,-2872 L1472,-2868 L1471,-2878 L1477,-2877 L1490,-2887 L1500,-2885 L1487,-2874 L1494,-2872 Z"
        transform="matrix(0.33333, 0, 0, 0.33333, 0, 0)" stroke="none"/>
    <path fill="none" d="M1562,-2866 L1562,-2798 M1554,-2862 L1554,-2794 M1546,-2859 L1546,-2791 M1536,-2856 L1536,-2788 
        M1527,-2854 L1527,-2786 M1518,-2853 L1518,-2785 M1508,-2851 L1508,-2783 M1435,-2866 L1435,-2798 M1443,-2862 
        L1443,-2794 M1451,-2859 L1451,-2791 M1461,-2856 L1461,-2788 M1470,-2854 L1470,-2786 M1479,-2853 L1479,-2785 
        M1489,-2851 L1489,-2783 M1499,-2851 L1499,-2783" stroke-width="2" transform="matrix(0.33333, 0, 0, 0.33333, 0, 0)"/>
    <path fill="#ffffff" stroke-width="2.54" d="M1502,-2908 L1526,-2915 L1526,-2905 L1520,-2906 L1509,-2896 L1498,-2898 
        L1510,-2907 L1502,-2908 Z" transform="matrix(0.33333, 0, 0, 0.33333, 0, 0)" stroke="none"/>
</svg>