<?xml version="1.0" standalone="no"?>
<!DOCTYPE svg PUBLIC "-//W3C//DTD SVG 1.0//EN"
    "http://www.w3.org/TR/2001/REC-SVG-20010904/DTD/svg10.dtd">
<?xml-stylesheet type="text/css" href="..\cisco_network.css" ?>
<svg contentScriptType="text/ecmascript" zoomAndPan="magnify" xmlns:xlink="http://www.w3.org/1999/xlink" baseProfile="full"
    contentStyleType="text/css" enable-background="new" version="1.0" width="44.3055" preserveAspectRatio="none"
    viewBox="632 -952 50.016 23.008" height="20.3811" xmlns="http://www.w3.org/2000/svg" color-interpolation-filters="sRGB"
    x="0" y="1.5">
    <path stroke-width="2" d="M1899,-2830 L1930,-2853 L2042,-2853 L2020,-2830 L1899,-2830 Z M2020,-2791 L2042,-2814 
        L2042,-2853 L2020,-2830 L2020,-2791 Z M2020,-2791 L2020,-2830 L1899,-2830 L1899,-2791 L2020,-2791 Z" transform="matrix(0.33333, 0, 0, 0.33333, 0, 0)"/>
    <path fill="none" d="M2010,-2810 C2010,-2810 2002,-2790 1993,-2810 C1984,-2830 1976,-2810 1976,-2810 C1976,-2810 
        1968,-2790 1958,-2810 C1949,-2830 1941,-2810 1941,-2810 C1941,-2810 1933,-2790 1924,-2810 C1915,-2830 1907,-2810 
        1907,-2810" stroke-width="2" transform="matrix(0.33333, 0, 0, 0.33333, 0, 0)" stroke-linecap="round"/>
    <path fill="none" d="M1907,-2810 C1907,-2810 1915,-2790 1924,-2810 C1933,-2830 1941,-2810 1941,-2810 C1941,-2810 
        1949,-2790 1959,-2810 C1968,-2830 1976,-2810 1976,-2810 C1976,-2810 1984,-2790 1993,-2810 C2002,-2830 2010,-2810 
        2010,-2810" stroke-width="4" transform="matrix(0.33333, 0, 0, 0.33333, 0, 0)" stroke-linecap="round"/>
    <path fill="none" d="M2012,-2810 C2012,-2810 2004,-2790 1995,-2810 C1985,-2830 1978,-2810 1978,-2810 C1978,-2810 
        1970,-2790 1960,-2810 C1951,-2830 1943,-2810 1943,-2810 C1943,-2810 1935,-2790 1926,-2810 C1916,-2830 1909,-2810 
        1909,-2810" stroke-width="2" transform="matrix(0.33333, 0, 0, 0.33333, 0, 0)" stroke="#000000" stroke-linecap="round"/>
    <path fill="none" d="M1909,-2810 C1909,-2810 1916,-2790 1926,-2810 C1935,-2830 1943,-2810 1943,-2810 C1943,-2810 
        1951,-2790 1960,-2810 C1970,-2830 1978,-2810 1978,-2810 C1978,-2810 1985,-2790 1995,-2810 C2004,-2830 2012,-2810 
        2012,-2810" stroke-width="4" transform="matrix(0.33333, 0, 0, 0.33333, 0, 0)" stroke="#000000" stroke-linecap="round"/>
    <path fill="none" d="M2010,-2810 C2010,-2810 2002,-2790 1993,-2810 C1984,-2830 1976,-2810 1976,-2810 C1976,-2810 
        1968,-2790 1958,-2810 C1949,-2830 1941,-2810 1941,-2810 C1941,-2810 1933,-2790 1924,-2810 C1915,-2830 1907,-2810 
        1907,-2810" stroke-width="2" transform="matrix(0.33333, 0, 0, 0.33333, 0, 0)" stroke-linecap="round"/>
    <path fill="none" d="M1907,-2810 C1907,-2810 1915,-2790 1924,-2810 C1933,-2830 1941,-2810 1941,-2810 C1941,-2810 
        1949,-2790 1959,-2810 C1968,-2830 1976,-2810 1976,-2810 C1976,-2810 1984,-2790 1993,-2810 C2002,-2830 2010,-2810 
        2010,-2810" stroke-width="4" transform="matrix(0.33333, 0, 0, 0.33333, 0, 0)" stroke-linecap="round"/>
    <path fill="none" d="M2012,-2810 C2012,-2810 2004,-2790 1995,-2810 C1985,-2830 1978,-2810 1978,-2810 C1978,-2810 
        1970,-2790 1960,-2810 C1951,-2830 1943,-2810 1943,-2810 C1943,-2810 1935,-2790 1926,-2810 C1916,-2830 1909,-2810 
        1909,-2810" stroke-width="2" transform="matrix(0.33333, 0, 0, 0.33333, 0, 0)" stroke="#000000" stroke-linecap="round"/>
    <path fill="none" d="M1909,-2810 C1909,-2810 1916,-2790 1926,-2810 C1935,-2830 1943,-2810 1943,-2810 C1943,-2810 
        1951,-2790 1960,-2810 C1970,-2830 1978,-2810 1978,-2810 C1978,-2810 1985,-2790 1995,-2810 C2004,-2830 2012,-2810 
        2012,-2810" stroke-width="4" transform="matrix(0.33333, 0, 0, 0.33333, 0, 0)" stroke="#000000" stroke-linecap="round"/>
    <path fill="none" d="M2010,-2810 C2010,-2810 2002,-2790 1993,-2810 C1984,-2830 1976,-2810 1976,-2810 C1976,-2810 
        1968,-2790 1958,-2810 C1949,-2830 1941,-2810 1941,-2810 C1941,-2810 1933,-2790 1924,-2810 C1915,-2830 1907,-2810 
        1907,-2810" stroke-width="2" transform="matrix(0.33333, 0, 0, 0.33333, 0, 0)" stroke-linecap="round"/>
    <path fill="none" d="M1907,-2810 C1907,-2810 1915,-2790 1924,-2810 C1933,-2830 1941,-2810 1941,-2810 C1941,-2810 
        1949,-2790 1959,-2810 C1968,-2830 1976,-2810 1976,-2810 C1976,-2810 1984,-2790 1993,-2810 C2002,-2830 2010,-2810 
        2010,-2810" stroke-width="4" transform="matrix(0.33333, 0, 0, 0.33333, 0, 0)" stroke-linecap="round"/>
</svg>