<?xml version="1.0" standalone="no"?>
<!DOCTYPE svg PUBLIC "-//W3C//DTD SVG 1.0//EN"
    "http://www.w3.org/TR/2001/REC-SVG-20010904/DTD/svg10.dtd">
<?xml-stylesheet type="text/css" href="..\cisco_network.css" ?>
<svg contentScriptType="text/ecmascript" zoomAndPan="magnify" xmlns:xlink="http://www.w3.org/1999/xlink" baseProfile="full"
    contentStyleType="text/css" enable-background="new" version="1.0" width="43.3984" preserveAspectRatio="none"
    viewBox="376 -551.01 48.992 34.016" height="30.1323" xmlns="http://www.w3.org/2000/svg" color-interpolation-filters="sRGB"
    x="0" y="1.5">
    <path stroke-width="2" d="M1130,-1640 L1146,-1652 L1272,-1652 L1255,-1640 L1130,-1640 Z" transform="matrix(0.33333, 0, 0, 0.33333, 0, 0)"/>
    <path fill="none" stroke-width="2" d="M1255,-1551 L1130,-1551" transform="matrix(0.33333, 0, 0, 0.33333, 0, 0)"
        stroke-linejoin="round" stroke-linecap="round"/>
    <path stroke-width="2" d="M1256,-1640 L1256,-1551 L1129,-1551 L1129,-1640 L1256,-1640 Z M1271,-1565 L1271,-1652 
        L1255,-1640 L1255,-1552 L1271,-1565 Z" transform="matrix(0.33333, 0, 0, 0.33333, 0, 0)"/>
    <path fill="#ffffff" stroke-width="2.54" d="M1245,-1585 L1228,-1585 L1228,-1588 L1220,-1583 L1228,-1578 L1228,-1580 
        L1245,-1580 L1245,-1585 Z M1163,-1614 L1146,-1614 L1146,-1616 L1138,-1611 L1146,-1606 L1146,-1608 L1163,-1608 
        L1163,-1614 Z M1223,-1608 L1239,-1608 L1239,-1606 L1247,-1611 L1239,-1616 L1239,-1613 L1223,-1613 L1223,-1608 Z 
        M1139,-1580 L1155,-1580 L1155,-1577 L1163,-1582 L1155,-1588 L1155,-1585 L1139,-1585 L1139,-1580 Z" transform="matrix(0.33333, 0, 0, 0.33333, 0, 0)"
        stroke="none"/>
    <path fill="#ffffff" d="M1154,-1559 C1154,-1561 1155,-1563 1157,-1563 C1159,-1563 1160,-1561 1160,-1560 C1160,-1558 
        1159,-1557 1157,-1557 C1156,-1556 1154,-1558 1154,-1559 Z" transform="matrix(0.33333, 0, 0, 0.33333, 0, 0)"
        stroke="#000000"/>
    <path fill="#ffffff" d="M1161,-1557 L1154,-1563 L1171,-1581 L1177,-1575 L1161,-1557 Z" transform="matrix(0.33333, 0, 0, 0.33333, 0, 0)"
        stroke="#000000"/>
    <path fill="#ffffff" d="M1166,-1604 C1165,-1588 1176,-1574 1191,-1572 C1207,-1570 1221,-1582 1223,-1597 C1224,-1613 
        1213,-1627 1198,-1629 C1182,-1630 1168,-1619 1166,-1604 Z M1170,-1603 C1172,-1617 1184,-1626 1197,-1625 
        C1211,-1623 1220,-1611 1219,-1598 C1217,-1584 1205,-1575 1192,-1576 C1178,-1578 1169,-1590 1170,-1603 Z"
        transform="matrix(0.33333, 0, 0, 0.33333, 0, 0)" stroke="#000000"/>
    <path fill="#ffffff" d="M1163,-1602 C1161,-1587 1172,-1573 1188,-1571 C1203,-1569 1217,-1580 1219,-1596 C1221,-1611 
        1210,-1625 1194,-1627 C1179,-1629 1165,-1618 1163,-1602 Z M1167,-1602 C1168,-1615 1180,-1625 1194,-1623 
        C1207,-1622 1217,-1610 1215,-1596 C1214,-1583 1202,-1573 1188,-1575 C1175,-1576 1165,-1589 1167,-1602 Z"
        transform="matrix(0.33333, 0, 0, 0.33333, 0, 0)" stroke="#000000"/>
    <path fill="#000000" d="M1157,-1560 L1157,-1560 Z" stroke-width="2.54" transform="matrix(0.33333, 0, 0, 0.33333, 0, 0)"
        stroke="none"/>
    <path fill="none" d="M1157,-1560 L1157,-1560" stroke-width="2.54" transform="matrix(0.33333, 0, 0, 0.33333, 0, 0)"
        stroke="none"/>
    <path d="M1202,-1584 C1203,-1584 1203,-1584 1203,-1585 C1203,-1599 1203,-1599 1203,-1599 C1203,-1600 1203,-1600 
        1202,-1600 C1180,-1600 1180,-1600 1180,-1600 C1180,-1600 1179,-1600 1179,-1599 C1179,-1585 1179,-1585 1179,-1585 
        C1179,-1584 1180,-1584 1180,-1584 Z" transform="matrix(0.33333, 0, 0, 0.33333, 0, 0)" stroke-linejoin="round"
        stroke-linecap="round"/>
    <path d="M1203,-1600 L1208,-1605 L1184,-1605 L1179,-1600 L1203,-1600 Z M1208,-1588 L1208,-1605 L1203,-1600 
        L1203,-1584 L1208,-1588 Z" transform="matrix(0.33333, 0, 0, 0.33333, 0, 0)" stroke-linejoin="round"
        stroke-linecap="round"/>
    <path d="M1194,-1615 C1190,-1615 1187,-1612 1187,-1609 C1187,-1603 1187,-1603 1187,-1603 C1188,-1603 1187,-1602 
        1186,-1602 C1186,-1602 1185,-1602 1185,-1603 C1185,-1608 1185,-1608 1185,-1608 C1185,-1613 1189,-1617 1194,-1617 
        C1198,-1617 1202,-1613 1202,-1608 C1202,-1602 1202,-1602 1202,-1602 C1202,-1602 1202,-1601 1201,-1601 
        C1200,-1602 1200,-1602 1200,-1603 C1200,-1609 1200,-1609 1200,-1609 C1200,-1612 1197,-1615 1194,-1615 Z"
        transform="matrix(0.33333, 0, 0, 0.33333, 0, 0)" stroke-linejoin="round" stroke-linecap="round"/>
    <path fill="#ffffff" d="M1191,-1590 C1192,-1590 1193,-1592 1193,-1593 C1193,-1594 1192,-1596 1191,-1596 C1190,-1596 
        1189,-1594 1189,-1593 C1189,-1592 1190,-1590 1191,-1590 Z" stroke-width="2.54" transform="matrix(0.33333, 0, 0, 0.33333, 0, 0)"
        stroke="none"/>
    <path fill="#ffffff" d="M1192,-1588 L1192,-1593 L1191,-1592 L1191,-1587 L1192,-1588 Z" stroke-width="2.54"
        transform="matrix(0.33333, 0, 0, 0.33333, 0, 0)" stroke="none"/>
</svg>