<?xml version="1.0" standalone="no"?>
<!DOCTYPE svg PUBLIC "-//W3C//DTD SVG 1.0//EN"
    "http://www.w3.org/TR/2001/REC-SVG-20010904/DTD/svg10.dtd">
<?xml-stylesheet type="text/css" href="..\cisco_network.css" ?>
<svg contentScriptType="text/ecmascript" zoomAndPan="magnify" xmlns:xlink="http://www.w3.org/1999/xlink" baseProfile="full"
    contentStyleType="text/css" enable-background="new" version="1.0" width="45.1843" preserveAspectRatio="none"
    viewBox="384 -558.02 51.008 34.016" height="30.1323" xmlns="http://www.w3.org/2000/svg" color-interpolation-filters="sRGB"
    x="0" y="1.5">
    <path stroke-width="2" d="M1155,-1576 L1288,-1576 L1288,-1654 L1155,-1654 L1155,-1576 Z M1304,-1599 L1288,-1576 
        L1288,-1654 L1304,-1673 L1304,-1599 Z M1179,-1673 L1304,-1673 L1288,-1654 L1155,-1654 L1179,-1673 Z" transform="matrix(0.33333, 0, 0, 0.33333, 0, 0)"/>
    <path fill="#ffffff" stroke-width="2.54" d="M1218,-1607 L1218,-1597 L1211,-1597 L1222,-1580 L1233,-1597 L1225,-1597 
        L1225,-1607 Z" transform="matrix(0.33333, 0, 0, 0.33333, 0, 0)" stroke="none"/>
    <path fill="none" stroke-width="2.54" d="M1218,-1607 L1218,-1597 L1211,-1597 L1222,-1580 L1233,-1597 L1225,-1597 
        L1225,-1607" transform="matrix(0.33333, 0, 0, 0.33333, 0, 0)" stroke="none"/>
    <path fill="#ffffff" stroke-width="2.54" d="M1240,-1613 L1182,-1613 L1182,-1621 L1165,-1610 L1182,-1598 L1182,-1607 
        L1218,-1607 Z" transform="matrix(0.33333, 0, 0, 0.33333, 0, 0)" stroke="none"/>
    <path fill="none" stroke-width="2.54" d="M1240,-1613 L1182,-1613 L1182,-1621 L1165,-1610 L1182,-1598 L1182,-1607 
        L1218,-1607" transform="matrix(0.33333, 0, 0, 0.33333, 0, 0)" stroke="none"/>
    <path fill="#ffffff" stroke-width="2.54" d="M1226,-1607 L1264,-1607 L1264,-1599 L1281,-1610 L1264,-1622 L1264,-1613 
        L1205,-1613 Z" transform="matrix(0.33333, 0, 0, 0.33333, 0, 0)" stroke="none"/>
    <path fill="none" stroke-width="2.54" d="M1226,-1607 L1264,-1607 L1264,-1599 L1281,-1610 L1264,-1622 L1264,-1613 
        L1205,-1613" transform="matrix(0.33333, 0, 0, 0.33333, 0, 0)" stroke="none"/>
    <text x="0,20,40,60" font-size="28" y="0" transform="matrix(0.33333, 0, 0, 0.33333, 396.55, -541.11)" fill="#ffffff"
        font-family="'Helvetica'" font-style="normal" stroke="none" font-weight="700" stroke-width="2.54" xml:space="preserve">ADM</text>
</svg>