<?xml version="1.0" standalone="no"?>
<!DOCTYPE svg PUBLIC "-//W3C//DTD SVG 1.0//EN"
    "http://www.w3.org/TR/2001/REC-SVG-20010904/DTD/svg10.dtd">
<?xml-stylesheet type="text/css" href="..\cisco_network.css" ?>
<svg contentScriptType="text/ecmascript" zoomAndPan="magnify" xmlns:xlink="http://www.w3.org/1999/xlink" baseProfile="full"
    contentStyleType="text/css" enable-background="new" version="1.0" width="38.9764" preserveAspectRatio="none"
    viewBox="387.01 -572 44 51.008" height="45.1843" xmlns="http://www.w3.org/2000/svg" color-interpolation-filters="sRGB"
    x="0" y="1.5">
    <path stroke-width="2" d="M1209,-1697 C1209,-1687 1201,-1679 1191,-1679 C1181,-1679 1174,-1687 1174,-1697 
        C1174,-1707 1181,-1715 1191,-1715 C1201,-1715 1209,-1707 1209,-1697 Z" transform="matrix(0.33333, 0, 0, 0.33333, 0, 0)"/>
    <path d="M1292,-1562 L1219,-1562 L1219,-1640 L1292,-1640 L1292,-1562 Z M1244,-1650 L1287,-1650 L1287,-1641 
        L1244,-1641 L1244,-1650 Z" stroke-width="2" transform="matrix(0.33333, 0, 0, 0.33333, 0, 0)"/>
    <path stroke-width="2" d="M1279,-1675 C1279,-1650 1279,-1650 1279,-1650 C1245,-1650 1245,-1650 1245,-1650 
        C1245,-1684 1245,-1684 1245,-1684 C1275,-1680 1275,-1680 1275,-1680 C1275,-1680 1279,-1680 1279,-1675 Z"
        transform="matrix(0.33333, 0, 0, 0.33333, 0, 0)"/>
    <path stroke-width="2" d="M1214,-1572 C1194,-1572 1194,-1572 1194,-1572 C1194,-1596 1194,-1596 1194,-1596 
        C1184,-1596 1184,-1596 1184,-1596 C1184,-1572 1184,-1572 1184,-1572 C1164,-1572 1164,-1572 1164,-1572 
        C1162,-1572 1161,-1571 1161,-1569 C1161,-1566 1161,-1566 1161,-1566 C1161,-1564 1162,-1562 1164,-1562 
        C1214,-1562 1214,-1562 1214,-1562 C1216,-1562 1217,-1564 1217,-1566 C1217,-1569 1217,-1569 1217,-1569 
        C1217,-1571 1216,-1572 1214,-1572 Z" transform="matrix(0.33333, 0, 0, 0.33333, 0, 0)"/>
    <path stroke-width="2" d="M1215,-1608 C1173,-1608 1173,-1608 1173,-1608 C1173,-1667 1173,-1667 1173,-1667 
        C1173,-1669 1172,-1671 1170,-1671 C1166,-1671 1166,-1671 1166,-1671 C1164,-1671 1162,-1669 1162,-1667 
        C1162,-1600 1162,-1600 1162,-1600 C1162,-1598 1164,-1597 1166,-1597 C1170,-1597 1170,-1597 1170,-1597 
        C1215,-1597 1215,-1597 1215,-1597 C1217,-1597 1219,-1598 1219,-1600 C1219,-1604 1219,-1604 1219,-1604 
        C1219,-1606 1217,-1608 1215,-1608 Z" transform="matrix(0.33333, 0, 0, 0.33333, 0, 0)"/>
    <path stroke-width="2" d="M1205,-1675 C1237,-1652 1237,-1652 1237,-1652 C1239,-1651 1240,-1649 1240,-1647 
        C1240,-1644 1237,-1641 1233,-1641 C1232,-1641 1231,-1641 1230,-1642 C1203,-1658 1203,-1658 1203,-1658 
        C1203,-1628 1203,-1628 1203,-1628 C1218,-1628 1218,-1628 1218,-1628 C1218,-1609 1218,-1609 1218,-1609 
        C1175,-1609 1175,-1609 1175,-1609 C1175,-1673 1175,-1673 1175,-1673 C1175,-1673 1175,-1678 1184,-1678 
        C1199,-1678 1199,-1678 1199,-1678 C1199,-1678 1202,-1678 1205,-1675 Z" transform="matrix(0.33333, 0, 0, 0.33333, 0, 0)"/>
</svg>