<?xml version="1.0" standalone="no"?>
<!DOCTYPE svg PUBLIC "-//W3C//DTD SVG 1.0//EN"
    "http://www.w3.org/TR/2001/REC-SVG-20010904/DTD/svg10.dtd">
<?xml-stylesheet type="text/css" href="..\cisco_network.css" ?>
<svg contentScriptType="text/ecmascript" zoomAndPan="magnify" xmlns:xlink="http://www.w3.org/1999/xlink" baseProfile="full"
    contentStyleType="text/css" enable-background="new" version="1.0" width="34.5543" preserveAspectRatio="none"
    viewBox="388.99 -548.99 39.008 44" height="38.9764" xmlns="http://www.w3.org/2000/svg" color-interpolation-filters="sRGB"
    x="0" y="1.5">
    <path fill="#000000" stroke-width="2.54" d="M1169,-1556 L1169,-1518 L1264,-1518 L1264,-1556 Z" transform="matrix(0.33333, 0, 0, 0.33333, 0, 0)"
        stroke="none"/>
    <path fill="none" stroke-width="2" d="M1169,-1556 L1169,-1518 L1264,-1518 L1264,-1556" transform="matrix(0.33333, 0, 0, 0.33333, 0, 0)"/>
    <path stroke-width="2" d="M1169,-1632 L1186,-1644 L1281,-1644 L1264,-1632 L1169,-1632 Z" transform="matrix(0.33333, 0, 0, 0.33333, 0, 0)"/>
    <path fill="#000000" stroke-width="2" d="M1264,-1517 L1281,-1531 L1281,-1569 L1264,-1556 L1264,-1517 Z" transform="matrix(0.33333, 0, 0, 0.33333, 0, 0)"
        stroke-linejoin="round" stroke-linecap="round"/>
    <path fill="none" stroke-width="2" d="M1264,-1543 L1169,-1543 M1264,-1530 L1169,-1530 M1279,-1542 L1265,-1530 
        M1197,-1530 L1197,-1518 M1234,-1530 L1234,-1518 M1216,-1543 L1216,-1531 M1180,-1543 L1180,-1531 M1253,-1543 
        L1253,-1531" transform="matrix(0.33333, 0, 0, 0.33333, 0, 0)" stroke-linejoin="round" stroke-linecap="round"/>
    <path d="M1264,-1632 L1264,-1543 L1169,-1543 L1169,-1632 L1264,-1632 Z M1280,-1557 L1280,-1644 L1264,-1632 
        L1264,-1544 L1280,-1557 Z" stroke-width="2" transform="matrix(0.33333, 0, 0, 0.33333, 0, 0)"/>
    <path fill="none" stroke-width="2" d="M1277,-1553 L1277,-1539 M1271,-1535 L1271,-1521" transform="matrix(0.33333, 0, 0, 0.33333, 0, 0)"
        stroke-linejoin="round" stroke-linecap="round"/>
    <path fill="#000000" stroke-width="2.54" d="M1202,-1527 L1202,-1527 Z" transform="matrix(0.33333, 0, 0, 0.33333, 0, 0)"
        stroke="none"/>
    <path fill="none" d="M1202,-1527 L1202,-1527" stroke-width="2" transform="matrix(0.33333, 0, 0, 0.33333, 0, 0)"/>
    <path fill="#ffffff" stroke-width="2.54" d="M1187,-1598 L1224,-1598 L1224,-1601 L1232,-1596 L1224,-1591 L1224,-1593 
        L1187,-1593 L1187,-1598 Z M1244,-1585 L1213,-1585 L1213,-1588 L1204,-1583 L1213,-1578 L1213,-1580 L1244,-1580 
        L1244,-1585 Z" transform="matrix(0.33333, 0, 0, 0.33333, 0, 0)" stroke="none"/>
    <path fill="#ffffff" d="M1256,-1554 C1254,-1553 1252,-1555 1252,-1556 C1252,-1558 1253,-1559 1255,-1560 C1257,-1560 
        1258,-1559 1258,-1557 C1259,-1555 1257,-1554 1256,-1554 Z" transform="matrix(0.33333, 0, 0, 0.33333, 0, 0)"
        stroke="#000000"/>
    <path fill="#ffffff" d="M1258,-1560 L1252,-1554 L1233,-1569 L1239,-1575 L1258,-1560 Z" transform="matrix(0.33333, 0, 0, 0.33333, 0, 0)"
        stroke="#000000"/>
    <path fill="#ffffff" d="M1190,-1594 C1188,-1578 1199,-1564 1215,-1562 C1230,-1560 1244,-1572 1246,-1587 C1248,-1603 
        1236,-1617 1221,-1619 C1205,-1620 1191,-1609 1190,-1594 Z M1194,-1593 C1195,-1606 1207,-1616 1221,-1615 
        C1234,-1613 1243,-1601 1242,-1588 C1240,-1574 1228,-1565 1215,-1566 C1202,-1568 1192,-1580 1194,-1593 Z"
        transform="matrix(0.33333, 0, 0, 0.33333, 0, 0)" stroke="#000000"/>
    <path fill="#ffffff" d="M1186,-1592 C1184,-1577 1196,-1563 1211,-1561 C1227,-1559 1241,-1570 1242,-1586 C1244,-1601 
        1233,-1615 1217,-1617 C1202,-1619 1188,-1608 1186,-1592 Z M1190,-1592 C1192,-1605 1204,-1615 1217,-1613 
        C1230,-1612 1240,-1600 1238,-1586 C1237,-1573 1225,-1563 1212,-1565 C1198,-1566 1189,-1579 1190,-1592 Z"
        transform="matrix(0.33333, 0, 0, 0.33333, 0, 0)" stroke="#000000"/>
    <path fill="#000000" stroke-width="2.54" d="M1255,-1557 L1255,-1557 Z" transform="matrix(0.33333, 0, 0, 0.33333, 0, 0)"
        stroke="none"/>
    <path fill="none" stroke-width="2.54" d="M1255,-1557 L1255,-1557" transform="matrix(0.33333, 0, 0, 0.33333, 0, 0)"
        stroke="none"/>
    <path fill="none" stroke-width="2" d="M1244,-1582 L1259,-1582 M1174,-1596 L1190,-1596" transform="matrix(0.33333, 0, 0, 0.33333, 0, 0)"/>
</svg>