<?xml version="1.0" standalone="no"?>
<!DOCTYPE svg PUBLIC "-//W3C//DTD SVG 1.0//EN"
    "http://www.w3.org/TR/2001/REC-SVG-20010904/DTD/svg10.dtd">
<?xml-stylesheet type="text/css" href="..\cisco_network.css" ?>
<svg contentScriptType="text/ecmascript" zoomAndPan="magnify" xmlns:xlink="http://www.w3.org/1999/xlink" baseProfile="full"
    contentStyleType="text/css" enable-background="new" version="1.0" width="50.485" preserveAspectRatio="none" viewBox="384 -604 56.992 55.008"
    height="48.7276" xmlns="http://www.w3.org/2000/svg" color-interpolation-filters="sRGB" x="0" y="1.5">
    <path d="M1321,-1757 L1321,-1680 L1280,-1648 L1196,-1648 L1155,-1680 L1155,-1757 Z" stroke-width="2.54" transform="matrix(0.33333, 0, 0, 0.33333, 0, 0)"
        stroke="none"/>
    <path fill="none" stroke-width="2" d="M1321,-1757 L1321,-1680 L1280,-1648 L1196,-1648 L1155,-1680 L1155,-1757"
        transform="matrix(0.33333, 0, 0, 0.33333, 0, 0)"/>
    <path d="M1196,-1649 L1196,-1725 Z" stroke-width="2.54" transform="matrix(0.33333, 0, 0, 0.33333, 0, 0)" stroke="none"/>
    <path fill="none" stroke-width="2" d="M1196,-1649 L1196,-1725" transform="matrix(0.33333, 0, 0, 0.33333, 0, 0)"/>
    <path d="M1280,-1649 L1280,-1725 Z" stroke-width="2.54" transform="matrix(0.33333, 0, 0, 0.33333, 0, 0)" stroke="none"/>
    <path fill="none" stroke-width="2" d="M1280,-1649 L1280,-1725" transform="matrix(0.33333, 0, 0, 0.33333, 0, 0)"/>
    <path d="M1321,-1779 L1321,-1756 L1280,-1724 L1196,-1724 L1155,-1756 L1155,-1779 Z" stroke-width="2.54" transform="matrix(0.33333, 0, 0, 0.33333, 0, 0)"/>
    <path fill="none" stroke-width="2" d="M1321,-1779 L1321,-1756 L1280,-1724 L1196,-1724 L1155,-1756 L1155,-1779"
        transform="matrix(0.33333, 0, 0, 0.33333, 0, 0)"/>
    <path d="M1279,-1810 L1197,-1810 L1155,-1779 L1196,-1746 L1280,-1746 L1321,-1779 L1279,-1810 Z" stroke-width="2"
        transform="matrix(0.33333, 0, 0, 0.33333, 0, 0)"/>
    <path d="M1196,-1725 L1196,-1746 Z" stroke-width="2.54" transform="matrix(0.33333, 0, 0, 0.33333, 0, 0)" stroke="none"/>
    <path fill="none" stroke-width="2" d="M1196,-1725 L1196,-1746" transform="matrix(0.33333, 0, 0, 0.33333, 0, 0)"/>
    <path d="M1280,-1725 L1280,-1746 Z" stroke-width="2.54" transform="matrix(0.33333, 0, 0, 0.33333, 0, 0)" stroke="none"/>
    <path fill="none" stroke-width="2" d="M1280,-1725 L1280,-1746" transform="matrix(0.33333, 0, 0, 0.33333, 0, 0)"/>
    <path fill="#ffffff" stroke-width="2.54" d="M1222,-1791 L1228,-1781 L1204,-1777 L1210,-1781 L1175,-1790 L1184,-1796 
        L1218,-1788 L1222,-1791 Z M1253,-1766 L1249,-1776 L1270,-1778 L1266,-1775 L1300,-1767 L1292,-1761 L1258,-1770 
        L1253,-1766 Z M1243,-1794 L1267,-1799 L1267,-1789 L1261,-1790 L1249,-1782 L1238,-1784 L1251,-1792 L1243,-1794 Z 
        M1231,-1759 L1209,-1757 L1208,-1767 L1215,-1765 L1228,-1775 L1238,-1772 L1224,-1762 L1231,-1759 Z" transform="matrix(0.33333, 0, 0, 0.33333, 0, 0)"
        stroke="none"/>
    <path fill="none" d="M1221,-1777 L1241,-1774 M1180,-1782 L1200,-1780 M1172,-1792 L1188,-1790 M1190,-1790 L1166,-1773 
        M1210,-1786 L1177,-1763 M1232,-1784 L1191,-1752 M1189,-1771 L1209,-1768 M1277,-1762 L1297,-1760 M1236,-1768 
        L1256,-1765 M1246,-1776 L1207,-1747 M1267,-1773 L1233,-1748 M1287,-1770 L1258,-1748 M1310,-1771 L1290,-1754 
        M1204,-1763 L1224,-1760 M1245,-1757 L1265,-1754 M1215,-1809 L1189,-1789 M1242,-1810 L1210,-1785 M1288,-1788 
        L1306,-1785 M1265,-1809 L1223,-1777 M1285,-1804 L1243,-1774 M1297,-1795 L1265,-1771 M1310,-1786 L1286,-1768 
        M1215,-1789 L1235,-1786 M1256,-1783 L1277,-1780 M1298,-1777 L1314,-1774" transform="matrix(0.33333, 0, 0, 0.33333, 0, 0)"/>
    <text x="0,28,50,78" font-size="36" y="0" transform="matrix(0.33333, 0, 0, 0.33333, 400.81, -558.04)" fill="#ffffff"
        font-family="'Helvetica'" font-style="normal" stroke="none" font-weight="700" xml:space="preserve">QFP</text>
</svg>