<?xml version="1.0" standalone="no"?>
<!DOCTYPE svg PUBLIC "-//W3C//DTD SVG 1.0//EN"
    "http://www.w3.org/TR/2001/REC-SVG-20010904/DTD/svg10.dtd">
<?xml-stylesheet type="text/css" href="..\cisco_network.css" ?>
<svg contentScriptType="text/ecmascript" zoomAndPan="magnify" xmlns:xlink="http://www.w3.org/1999/xlink" baseProfile="full"
    contentStyleType="text/css" enable-background="new" version="1.0" width="57.5717" preserveAspectRatio="none"
    viewBox="376 -558.02 64.992 32" height="28.3465" xmlns="http://www.w3.org/2000/svg" color-interpolation-filters="sRGB"
    x="0" y="1.5">
    <path stroke-width="2" d="M1131,-1626 L1189,-1672 L1322,-1672 L1274,-1626 L1131,-1626 Z M1274,-1579 L1322,-1626 
        L1322,-1673 L1274,-1626 L1274,-1579 Z M1274,-1579 L1274,-1626 L1131,-1626 L1131,-1579 L1274,-1579 Z" transform="matrix(0.33333, 0, 0, 0.33333, 0, 0)"/>
    <path fill="#ffffff" d="M1216,-1619 C1216,-1619 1218,-1619 1219,-1617 C1219,-1610 1219,-1610 1219,-1610 C1232,-1607 
        1232,-1607 1232,-1607 C1233,-1610 1233,-1610 1233,-1610 C1230,-1619 1230,-1619 1230,-1619 C1213,-1623 1203,-1622 
        1203,-1622 C1203,-1622 1203,-1622 1203,-1622 C1203,-1622 1195,-1623 1178,-1619 C1175,-1610 1175,-1610 1175,-1610 
        C1176,-1607 1176,-1607 1176,-1607 C1189,-1610 1189,-1610 1189,-1610 C1189,-1617 1189,-1617 1189,-1617 
        C1190,-1619 1192,-1619 1192,-1619 Z" stroke-width="2.54" transform="matrix(0.33333, 0, 0, 0.33333, 0, 0)"
        stroke="none"/>
    <path fill="#000000" d="M1217,-1584 L1217,-1611 L1191,-1611 L1191,-1584 L1217,-1584 Z" stroke-width="2" transform="matrix(0.33333, 0, 0, 0.33333, 0, 0)"/>
    <text x="0,9" font-size="32" y="0" transform="matrix(0.33333, 0, 0, 0.33333, 398.2, -528.56)" fill="#ffffff"
        font-family="'Helvetica'" font-style="normal" stroke="none" font-weight="700" xml:space="preserve">V</text>
    <path fill="#999999" d="M1185,-1637 C1185,-1634 1179,-1632 1172,-1632 C1165,-1632 1159,-1634 1159,-1637 C1159,-1640 
        1165,-1642 1172,-1642 C1179,-1642 1185,-1640 1185,-1637 Z" stroke-width="2.54" transform="matrix(0.33333, 0, 0, 0.33333, 0, 0)"
        stroke="none"/>
    <path fill="#ffffff" d="M1185,-1640 C1185,-1637 1179,-1635 1172,-1635 C1165,-1635 1159,-1637 1159,-1640 C1159,-1643 
        1165,-1645 1172,-1645 C1179,-1645 1185,-1643 1185,-1640 Z" stroke-width="2.54" transform="matrix(0.33333, 0, 0, 0.33333, 0, 0)"
        stroke="none"/>
</svg>