<?xml version="1.0" standalone="no"?>
<!DOCTYPE svg PUBLIC "-//W3C//DTD SVG 1.0//EN"
    "http://www.w3.org/TR/2001/REC-SVG-20010904/DTD/svg10.dtd">
<?xml-stylesheet type="text/css" href="..\cisco_network.css" ?>
<svg contentScriptType="text/ecmascript" zoomAndPan="magnify" xmlns:xlink="http://www.w3.org/1999/xlink" baseProfile="full"
    contentStyleType="text/css" enable-background="new" version="1.0" width="36.3118" preserveAspectRatio="none"
    viewBox="391.01 -574.02 40.992 41.024" height="36.3402" xmlns="http://www.w3.org/2000/svg"
    color-interpolation-filters="sRGB" x="0" y="1.5">
    <path stroke-width="2" d="M1265,-1601 L1265,-1694 L1175,-1694 L1175,-1601 L1265,-1601 Z" transform="matrix(0.33333, 0, 0, 0.33333, 0, 0)"/>
    <path fill="none" stroke-width="6" d="M1191,-1622 L1210,-1622 L1236,-1676 L1255,-1676" transform="matrix(0.33333, 0, 0, 0.33333, 0, 0)"
        stroke="#000000"/>
    <path fill="#000000" stroke-width="2.54" d="M1249,-1686 L1249,-1666 L1261,-1676 L1249,-1686 Z M1194,-1612 
        L1194,-1631 L1183,-1622 L1194,-1612 Z" transform="matrix(0.33333, 0, 0, 0.33333, 0, 0)" stroke="none"/>
    <path fill="#ffffff" stroke-width="2.54" d="M1191,-1610 L1191,-1629 L1180,-1620 L1191,-1610 Z M1247,-1684 
        L1247,-1665 L1259,-1674 L1247,-1684 Z" transform="matrix(0.33333, 0, 0, 0.33333, 0, 0)" stroke="none"/>
    <path fill="#000000" stroke-width="2.54" d="M1194,-1666 L1194,-1685 L1183,-1676 L1194,-1666 Z" transform="matrix(0.33333, 0, 0, 0.33333, 0, 0)"
        stroke="none"/>
    <path fill="#ffffff" stroke-width="2.54" d="M1191,-1664 L1191,-1683 L1180,-1674 L1191,-1664 Z" transform="matrix(0.33333, 0, 0, 0.33333, 0, 0)"
        stroke="none"/>
    <path fill="none" stroke-width="6" d="M1255,-1622 L1236,-1622 L1209,-1676 L1193,-1676" transform="matrix(0.33333, 0, 0, 0.33333, 0, 0)"
        stroke="#000000"/>
    <path fill="none" d="M1255,-1620 L1235,-1620 L1208,-1674 L1187,-1674" stroke-width="6" transform="matrix(0.33333, 0, 0, 0.33333, 0, 0)"
        stroke="#ffffff"/>
    <path stroke-width="2" d="M1294,-1721 L1265,-1694 L1174,-1694 L1207,-1721 L1294,-1721 Z M1295,-1637 L1295,-1721 
        L1265,-1694 L1265,-1602 L1295,-1637 Z" transform="matrix(0.33333, 0, 0, 0.33333, 0, 0)"/>
    <path fill="none" stroke-width="6" d="M1187,-1620 L1207,-1620 L1233,-1674 L1254,-1674" transform="matrix(0.33333, 0, 0, 0.33333, 0, 0)"
        stroke="#ffffff"/>
    <path fill="#000000" stroke-width="2.54" d="M1249,-1631 L1249,-1612 L1261,-1621 L1249,-1631 Z" transform="matrix(0.33333, 0, 0, 0.33333, 0, 0)"
        stroke="none"/>
    <path fill="#ffffff" stroke-width="2.54" d="M1247,-1630 L1247,-1611 L1259,-1620 L1247,-1630 Z" transform="matrix(0.33333, 0, 0, 0.33333, 0, 0)"
        stroke="none"/>
    <path fill="#000000" stroke-width="2.54" d="M1265,-1716 L1269,-1719 L1281,-1715 L1260,-1710 L1265,-1715 L1244,-1715 
        L1245,-1716 L1265,-1716 Z" transform="matrix(0.33333, 0, 0, 0.33333, 0, 0)" stroke="none"/>
    <path fill="#ffffff" stroke-width="2.54" d="M1249,-1704 L1253,-1707 L1263,-1704 L1242,-1699 L1246,-1703 L1225,-1703 
        L1228,-1704 L1249,-1704 Z M1239,-1712 L1237,-1710 L1220,-1710 L1216,-1708 L1206,-1711 L1227,-1716 L1221,-1712 
        L1239,-1712 Z M1224,-1700 L1221,-1698 L1204,-1698 L1201,-1696 L1191,-1700 L1212,-1704 L1206,-1700 L1224,-1700 Z 
        M1265,-1715 L1269,-1718 L1280,-1714 L1259,-1710 L1262,-1713 L1242,-1713 L1244,-1715 L1265,-1715 Z" transform="matrix(0.33333, 0, 0, 0.33333, 0, 0)"
        stroke="none"/>
</svg>