<?xml version="1.0" standalone="no"?>
<!DOCTYPE svg PUBLIC "-//W3C//DTD SVG 1.0//EN"
    "http://www.w3.org/TR/2001/REC-SVG-20010904/DTD/svg10.dtd">
<?xml-stylesheet type="text/css" href="..\cisco_network.css" ?>
<svg contentScriptType="text/ecmascript" zoomAndPan="magnify" xmlns:xlink="http://www.w3.org/1999/xlink" baseProfile="full"
    contentStyleType="text/css" enable-background="new" version="1.0" width="31.8898" preserveAspectRatio="none"
    viewBox="388.99 -559.01 36 36" height="31.8898" xmlns="http://www.w3.org/2000/svg" color-interpolation-filters="sRGB"
    x="0" y="1.5">
    <path stroke-width="2" d="M1255,-1571 L1255,-1659 L1169,-1659 L1169,-1571 L1255,-1571 Z M1255,-1659 L1169,-1659 
        L1191,-1677 L1273,-1677 L1273,-1677 L1273,-1589 L1255,-1571 L1255,-1659 L1255,-1659 Z" transform="matrix(0.33333, 0, 0, 0.33333, 0, 0)"/>
    <path fill="none" stroke-width="2" d="M1255,-1659 L1273,-1677" transform="matrix(0.33333, 0, 0, 0.33333, 0, 0)"/>
    <path fill="none" stroke-width="6" d="M1244,-1589 L1225,-1589 L1199,-1641 L1182,-1641 M1181,-1589 L1199,-1589 
        L1225,-1641 L1245,-1641" transform="matrix(0.33333, 0, 0, 0.33333, 0, 0)"/>
    <path fill="#ffffff" d="M1238,-1650 L1238,-1632 L1249,-1641 L1238,-1650 Z M1238,-1599 L1238,-1580 L1249,-1589 
        L1238,-1599 Z M1185,-1631 L1185,-1650 L1174,-1641 L1185,-1631 Z M1185,-1580 L1185,-1598 L1174,-1589 L1185,-1580 
        Z" transform="matrix(0.33333, 0, 0, 0.33333, 0, 0)" stroke="#ffffff"/>
</svg>