<?xml version="1.0" standalone="no"?>
<!DOCTYPE svg PUBLIC "-//W3C//DTD SVG 1.0//EN"
    "http://www.w3.org/TR/2001/REC-SVG-20010904/DTD/svg10.dtd">
<?xml-stylesheet type="text/css" href="..\cisco_network.css" ?>
<svg contentScriptType="text/ecmascript" zoomAndPan="magnify" xmlns:xlink="http://www.w3.org/1999/xlink" baseProfile="full"
    contentStyleType="text/css" enable-background="new" version="1.0" width="43.4268" preserveAspectRatio="none"
    viewBox="384.99 -556.99 49.024 33.984" height="30.1039" xmlns="http://www.w3.org/2000/svg"
    color-interpolation-filters="sRGB" x="0" y="1.5">
    <path stroke-width="2" d="M1302,-1641 C1302,-1625 1269,-1612 1229,-1612 C1188,-1612 1155,-1625 1155,-1641 
        C1155,-1599 1155,-1599 1155,-1599 C1155,-1583 1188,-1570 1229,-1570 C1269,-1570 1302,-1583 1302,-1599 Z 
        M1229,-1612 C1269,-1612 1302,-1625 1302,-1641 C1302,-1657 1269,-1670 1229,-1670 C1188,-1670 1155,-1657 
        1155,-1641 C1155,-1625 1188,-1612 1229,-1612 Z" transform="matrix(0.33333, 0, 0, 0.33333, 0, 0)"/>
    <path fill="#ffffff" d="M1212,-1652 L1218,-1643 L1195,-1638 L1200,-1642 L1165,-1648 L1174,-1655 L1208,-1649 
        L1212,-1652 Z M1244,-1630 L1240,-1639 L1261,-1644 L1257,-1640 L1292,-1634 L1284,-1628 L1249,-1634 L1244,-1630 Z 
        M1233,-1657 L1256,-1663 L1257,-1654 L1251,-1655 L1239,-1645 L1229,-1647 L1240,-1656 L1233,-1657 Z M1223,-1621 
        L1201,-1617 L1200,-1628 L1207,-1626 L1219,-1637 L1229,-1635 L1216,-1623 L1223,-1621 Z M1230,-1593 L1243,-1583 
        L1248,-1583 L1248,-1586 L1262,-1581 L1248,-1576 L1248,-1579 L1241,-1579 L1226,-1590 L1212,-1579 L1205,-1579 
        L1205,-1576 L1191,-1581 L1205,-1586 L1205,-1583 L1210,-1583 L1223,-1593 L1210,-1603 L1205,-1603 L1205,-1600 
        L1191,-1605 L1205,-1610 L1205,-1607 L1212,-1607 L1226,-1596 L1241,-1607 L1248,-1607 L1248,-1610 L1262,-1605 
        L1248,-1600 L1248,-1603 L1243,-1603 L1230,-1593 Z" stroke-width="2.54" transform="matrix(0.33333, 0, 0, 0.33333, 0, 0)"
        stroke="none"/>
</svg>