<?xml version="1.0" standalone="no"?>
<!DOCTYPE svg PUBLIC "-//W3C//DTD SVG 1.0//EN"
    "http://www.w3.org/TR/2001/REC-SVG-20010904/DTD/svg10.dtd">
<?xml-stylesheet type="text/css" href="..\cisco_network.css" ?>
<svg contentScriptType="text/ecmascript" zoomAndPan="magnify" xmlns:xlink="http://www.w3.org/1999/xlink" baseProfile="full"
    contentStyleType="text/css" enable-background="new" version="1.0" width="44.3055" preserveAspectRatio="none"
    viewBox="384 -551.01 50.016 47.008" height="41.6409" xmlns="http://www.w3.org/2000/svg" color-interpolation-filters="sRGB"
    x="0" y="1.5">
    <path fill="#808080" stroke-width="2" d="M1300,-1623 C1300,-1608 1267,-1595 1227,-1595 C1186,-1595 1153,-1608 
        1153,-1623 C1153,-1590 1153,-1590 1153,-1590 C1153,-1574 1186,-1561 1227,-1561 C1267,-1561 1300,-1574 1300,-1590 
        Z" transform="matrix(0.33333, 0, 0, 0.33333, 0, 0)"/>
    <path stroke-width="2" d="M1300,-1591 C1300,-1575 1267,-1562 1227,-1562 C1186,-1562 1153,-1575 1153,-1591 
        C1153,-1540 1153,-1540 1153,-1540 C1153,-1524 1186,-1512 1227,-1512 C1267,-1512 1300,-1524 1300,-1540 Z"
        transform="matrix(0.33333, 0, 0, 0.33333, 0, 0)"/>
    <path fill="#808080" stroke-width="2" d="M1227,-1595 C1267,-1595 1300,-1608 1300,-1623 C1300,-1639 1267,-1652 
        1227,-1652 C1186,-1652 1153,-1639 1153,-1623 C1153,-1608 1186,-1595 1227,-1595 Z" transform="matrix(0.33333, 0, 0, 0.33333, 0, 0)"/>
    <path fill="#ffffff" d="M1210,-1635 L1216,-1626 L1193,-1620 L1198,-1624 L1163,-1630 L1171,-1637 L1206,-1631 
        L1210,-1635 Z M1242,-1613 L1238,-1622 L1259,-1626 L1255,-1623 L1290,-1617 L1281,-1610 L1247,-1617 L1242,-1613 Z 
        M1231,-1640 L1254,-1646 L1254,-1636 L1249,-1637 L1237,-1628 L1226,-1629 L1238,-1639 L1231,-1640 Z M1221,-1604 
        L1199,-1600 L1198,-1610 L1204,-1609 L1217,-1619 L1227,-1617 L1214,-1606 L1221,-1604 Z" stroke-width="2.54"
        transform="matrix(0.33333, 0, 0, 0.33333, 0, 0)" stroke="none"/>
    <path stroke-width="2.54" d="M1155,-1582 C1162,-1569 1189,-1560 1225,-1560 C1260,-1560 1290,-1570 1299,-1582 
        C1299,-1590 1299,-1590 1299,-1590 C1299,-1576 1264,-1564 1225,-1564 C1186,-1564 1156,-1576 1154,-1589 Z"
        transform="matrix(0.33333, 0, 0, 0.33333, 0, 0)" stroke="none"/>
    <path fill="#808080" d="M1220,-1569 L1220,-1566 L1207,-1566 L1226,-1542 L1244,-1566 L1232,-1566 L1232,-1569 
        L1220,-1569 Z" stroke-width="2.54" transform="matrix(0.33333, 0, 0, 0.33333, 0, 0)" stroke="none"/>
    <path fill="#ffffff" d="M1208,-1521 L1252,-1565 L1248,-1567 L1204,-1523 L1208,-1521 Z M1243,-1522 L1200,-1565 
        L1204,-1567 L1247,-1524 L1243,-1522 Z" stroke-width="2.54" transform="matrix(0.33333, 0, 0, 0.33333, 0, 0)"
        stroke="none"/>
    <path fill="#ffffff" d="M1232,-1524 C1232,-1520 1232,-1520 1232,-1520 C1243,-1521 1261,-1522 1270,-1525 C1271,-1529 
        1271,-1529 1271,-1529 C1261,-1526 1243,-1525 1232,-1524 Z" stroke-width="2.54" transform="matrix(0.33333, 0, 0, 0.33333, 0, 0)"
        stroke="none"/>
    <path fill="#ffffff" d="M1183,-1525 C1193,-1522 1208,-1521 1220,-1520 C1220,-1524 1220,-1524 1220,-1524 C1208,-1524 
        1192,-1527 1183,-1529 Z" stroke-width="2.54" transform="matrix(0.33333, 0, 0, 0.33333, 0, 0)" stroke="none"/>
    <path fill="#ffffff" d="M1182,-1567 C1191,-1565 1207,-1563 1219,-1562 C1219,-1566 1219,-1566 1219,-1566 C1206,-1567 
        1190,-1569 1182,-1571 Z" stroke-width="2.54" transform="matrix(0.33333, 0, 0, 0.33333, 0, 0)" stroke="none"/>
    <path fill="#ffffff" d="M1232,-1566 C1232,-1562 1232,-1562 1232,-1562 C1244,-1562 1261,-1564 1271,-1567 C1271,-1571 
        1271,-1571 1271,-1571 C1262,-1568 1244,-1566 1232,-1566 Z" stroke-width="2.54" transform="matrix(0.33333, 0, 0, 0.33333, 0, 0)"
        stroke="none"/>
    <path fill="#ffffff" d="M1191,-1534 L1186,-1535 L1194,-1556 L1200,-1555 L1208,-1531 L1202,-1532 L1201,-1537 
        L1192,-1538 L1191,-1534 Z M1194,-1542 L1200,-1541 L1197,-1551 L1197,-1551 L1194,-1542 Z" stroke-width="2.54"
        transform="matrix(0.33333, 0, 0, 0.33333, 0, 0)" stroke="none"/>
    <path fill="#ffffff" d="M1253,-1532 C1248,-1531 1248,-1531 1248,-1531 C1248,-1554 1248,-1554 1248,-1554 C1258,-1556 
        1258,-1556 1258,-1556 C1263,-1556 1266,-1554 1266,-1549 C1266,-1547 1264,-1542 1258,-1541 C1253,-1540 1253,-1540 
        1253,-1540 Z M1257,-1545 C1261,-1545 1261,-1548 1261,-1549 C1261,-1551 1260,-1552 1257,-1552 C1253,-1551 
        1253,-1551 1253,-1551 C1253,-1544 1253,-1544 1253,-1544 Z" stroke-width="2.54" transform="matrix(0.33333, 0, 0, 0.33333, 0, 0)"
        stroke="none"/>
</svg>