<?xml version="1.0" standalone="no"?>
<!DOCTYPE svg PUBLIC "-//W3C//DTD SVG 1.0//EN"
    "http://www.w3.org/TR/2001/REC-SVG-20010904/DTD/svg10.dtd">
<?xml-stylesheet type="text/css" href="..\cisco_network.css" ?>
<svg contentScriptType="text/ecmascript" zoomAndPan="magnify" xmlns:xlink="http://www.w3.org/1999/xlink" baseProfile="full"
    contentStyleType="text/css" enable-background="new" version="1.0" width="57.5717" preserveAspectRatio="none"
    viewBox="378.02 -556.99 64.992 28" height="24.8031" xmlns="http://www.w3.org/2000/svg" color-interpolation-filters="sRGB"
    x="0" y="1.5">
    <path stroke-width="2" d="M1280,-1591 L1280,-1622 L1138,-1622 L1138,-1591 L1280,-1591 Z M1137,-1622 L1195,-1668 
        L1328,-1668 L1280,-1622 L1137,-1622 Z M1280,-1590 L1328,-1637 L1328,-1668 L1280,-1622 L1280,-1590 Z" transform="matrix(0.33333, 0, 0, 0.33333, 0, 0)"/>
    <path fill="#ffffff" d="M1230,-1656 L1233,-1646 L1211,-1648 L1217,-1651 L1195,-1663 L1203,-1666 L1225,-1655 
        L1230,-1656 Z M1241,-1634 L1237,-1644 L1259,-1641 L1255,-1640 L1279,-1628 L1270,-1625 L1246,-1636 L1241,-1634 Z 
        M1286,-1665 L1310,-1663 L1307,-1654 L1302,-1657 L1253,-1645 L1243,-1650 L1293,-1661 L1286,-1665 Z M1182,-1625 
        L1160,-1628 L1162,-1638 L1168,-1635 L1218,-1645 L1227,-1640 L1176,-1629 L1182,-1625 Z" transform="matrix(0.33333, 0, 0, 0.33333, 0, 0)"
        stroke="none"/>
    <path fill="#ffffff" d="M1178,-1601 L1147,-1601 L1147,-1613 L1178,-1613 L1178,-1601 Z M1268,-1601 L1237,-1601 
        L1237,-1613 L1268,-1613 L1268,-1601 Z" transform="matrix(0.33333, 0, 0, 0.33333, 0, 0)" stroke="none"/>
</svg>