<?xml version="1.0" standalone="no"?>
<!DOCTYPE svg PUBLIC "-//W3C//DTD SVG 1.0//EN"
    "http://www.w3.org/TR/2001/REC-SVG-20010904/DTD/svg10.dtd">
<?xml-stylesheet type="text/css" href="..\cisco_network.css" ?>
<svg contentScriptType="text/ecmascript" zoomAndPan="magnify" xmlns:xlink="http://www.w3.org/1999/xlink" baseProfile="full"
    contentStyleType="text/css" enable-background="new" version="1.0" width="30.1323" preserveAspectRatio="none"
    viewBox="392 -572 34.016 48.992" height="43.3984" xmlns="http://www.w3.org/2000/svg" color-interpolation-filters="sRGB"
    x="0" y="1.5">
    <path d="M1276,-1604 L1276,-1715 L1249,-1688 L1249,-1572 L1276,-1604 Z M1249,-1688 L1178,-1688 L1178,-1572 
        L1249,-1572 L1249,-1688 Z M1249,-1688 L1276,-1715 L1276,-1715 L1212,-1715 L1178,-1688 L1249,-1688 L1249,-1688 Z"
        stroke-width="2" transform="matrix(0.33333, 0, 0, 0.33333, 0, 0)"/>
    <path fill="none" d="M1199,-1608 L1199,-1598 L1209,-1598 M1198,-1598 L1209,-1598 M1185,-1608 L1185,-1598 L1195,-1598 
        M1183,-1598 L1195,-1598 M1199,-1625 L1199,-1615 L1209,-1615 M1198,-1615 L1209,-1615 M1185,-1625 L1185,-1615 
        L1195,-1615 M1183,-1615 L1195,-1615 M1199,-1645 L1199,-1635 L1209,-1635 M1198,-1635 L1209,-1635 M1185,-1645 
        L1185,-1635 L1195,-1635 M1183,-1635 L1195,-1635 M1199,-1664 L1199,-1654 L1209,-1654 M1198,-1654 L1209,-1654 
        M1185,-1664 L1185,-1654 L1195,-1654 M1183,-1654 L1195,-1654 M1199,-1684 L1199,-1674 L1209,-1674 M1198,-1674 
        L1209,-1674 M1185,-1684 L1185,-1674 L1195,-1674 M1183,-1674 L1195,-1674 M1230,-1608 L1230,-1598 L1240,-1598 
        M1229,-1598 L1240,-1598 M1216,-1608 L1216,-1598 L1226,-1598 M1215,-1598 L1226,-1598 M1230,-1625 L1230,-1615 
        L1240,-1615 M1229,-1615 L1240,-1615 M1216,-1625 L1216,-1615 L1226,-1615 M1215,-1615 L1226,-1615 M1230,-1645 
        L1230,-1635 L1240,-1635 M1229,-1635 L1240,-1635 M1216,-1645 L1216,-1635 L1226,-1635 M1215,-1635 L1226,-1635 
        M1230,-1664 L1230,-1654 L1240,-1654 M1229,-1654 L1240,-1654 M1216,-1664 L1216,-1654 L1226,-1654 M1215,-1654 
        L1226,-1654 M1230,-1684 L1230,-1674 L1240,-1674 M1229,-1674 L1240,-1674 M1216,-1684 L1216,-1674 L1226,-1674 
        M1215,-1674 L1226,-1674" transform="matrix(0.33333, 0, 0, 0.33333, 0, 0)" stroke="#ffffff"/>
</svg>