<?xml version="1.0" standalone="no"?>
<!DOCTYPE svg PUBLIC "-//W3C//DTD SVG 1.0//EN"
    "http://www.w3.org/TR/2001/REC-SVG-20010904/DTD/svg10.dtd">
<?xml-stylesheet type="text/css" href="..\cisco_network.css" ?>
<svg contentScriptType="text/ecmascript" zoomAndPan="magnify" xmlns:xlink="http://www.w3.org/1999/xlink" baseProfile="full"
    contentStyleType="text/css" enable-background="new" version="1.0" width="25.7102" preserveAspectRatio="none"
    viewBox="392.99 -568.99 29.024 48" height="42.5197" xmlns="http://www.w3.org/2000/svg" color-interpolation-filters="sRGB"
    x="0" y="1.5">
    <path d="M1264,-1579 L1249,-1564 L1249,-1690 L1264,-1705 L1264,-1579 Z M1182,-1564 L1249,-1564 L1249,-1690 
        L1182,-1690 L1182,-1564 Z M1197,-1705 L1264,-1705 L1249,-1690 L1182,-1690 L1197,-1705 Z" stroke-width="2"
        transform="matrix(0.33333, 0, 0, 0.33333, 0, 0)"/>
    <path fill="#ffffff" stroke-width="2.54" d="M1229,-1659 L1229,-1676 L1200,-1676 L1200,-1659 L1229,-1659 Z"
        transform="matrix(0.33333, 0, 0, 0.33333, 0, 0)" stroke="none"/>
    <path fill="#ffffff" d="M1195,-1640 C1197,-1640 1199,-1642 1199,-1645 C1199,-1647 1197,-1649 1195,-1649 C1192,-1649 
        1190,-1647 1190,-1645 C1190,-1642 1192,-1640 1195,-1640 Z" stroke-width="2.54" transform="matrix(0.33333, 0, 0, 0.33333, 0, 0)"
        stroke="none"/>
    <path fill="#ffffff" d="M1195,-1625 C1197,-1625 1199,-1627 1199,-1629 C1199,-1632 1197,-1634 1195,-1634 C1192,-1634 
        1190,-1632 1190,-1629 C1190,-1627 1192,-1625 1195,-1625 Z" stroke-width="2.54" transform="matrix(0.33333, 0, 0, 0.33333, 0, 0)"
        stroke="none"/>
    <path fill="#ffffff" d="M1195,-1610 C1197,-1610 1199,-1612 1199,-1614 C1199,-1616 1197,-1618 1195,-1618 C1192,-1618 
        1190,-1616 1190,-1614 C1190,-1612 1192,-1610 1195,-1610 Z" stroke-width="2.54" transform="matrix(0.33333, 0, 0, 0.33333, 0, 0)"
        stroke="none"/>
    <path fill="#ffffff" d="M1195,-1594 C1197,-1594 1199,-1596 1199,-1599 C1199,-1601 1197,-1603 1195,-1603 C1192,-1603 
        1190,-1601 1190,-1599 C1190,-1596 1192,-1594 1195,-1594 Z" stroke-width="2.54" transform="matrix(0.33333, 0, 0, 0.33333, 0, 0)"
        stroke="none"/>
    <path fill="#ffffff" d="M1195,-1579 C1197,-1579 1199,-1581 1199,-1583 C1199,-1586 1197,-1588 1195,-1588 C1192,-1588 
        1190,-1586 1190,-1583 C1190,-1581 1192,-1579 1195,-1579 Z" stroke-width="2.54" transform="matrix(0.33333, 0, 0, 0.33333, 0, 0)"
        stroke="none"/>
    <path fill="none" d="M1200,-1646 L1227,-1646 M1200,-1631 L1227,-1631 M1200,-1615 L1227,-1615 M1200,-1600 L1227,-1600 
        M1200,-1585 L1227,-1585" stroke-width="2" transform="matrix(0.33333, 0, 0, 0.33333, 0, 0)" stroke="#ffffff"/>
    <path fill="#ffffff" d="M1234,-1640 C1236,-1640 1238,-1642 1238,-1645 C1238,-1647 1236,-1649 1234,-1649 C1231,-1649 
        1229,-1647 1229,-1645 C1229,-1642 1231,-1640 1234,-1640 Z" stroke-width="2.54" transform="matrix(0.33333, 0, 0, 0.33333, 0, 0)"
        stroke="none"/>
    <path fill="#ffffff" d="M1234,-1625 C1236,-1625 1238,-1627 1238,-1629 C1238,-1632 1236,-1634 1234,-1634 C1231,-1634 
        1229,-1632 1229,-1629 C1229,-1627 1231,-1625 1234,-1625 Z" stroke-width="2.54" transform="matrix(0.33333, 0, 0, 0.33333, 0, 0)"
        stroke="none"/>
    <path fill="#ffffff" d="M1234,-1610 C1236,-1610 1238,-1612 1238,-1614 C1238,-1616 1236,-1618 1234,-1618 C1231,-1618 
        1229,-1616 1229,-1614 C1229,-1612 1231,-1610 1234,-1610 Z" stroke-width="2.54" transform="matrix(0.33333, 0, 0, 0.33333, 0, 0)"
        stroke="none"/>
    <path fill="#ffffff" d="M1234,-1594 C1236,-1594 1238,-1596 1238,-1599 C1238,-1601 1236,-1603 1234,-1603 C1231,-1603 
        1229,-1601 1229,-1599 C1229,-1596 1231,-1594 1234,-1594 Z" stroke-width="2.54" transform="matrix(0.33333, 0, 0, 0.33333, 0, 0)"
        stroke="none"/>
    <path fill="#ffffff" d="M1234,-1579 C1236,-1579 1238,-1581 1238,-1583 C1238,-1586 1236,-1588 1234,-1588 C1231,-1588 
        1229,-1586 1229,-1583 C1229,-1581 1231,-1579 1234,-1579 Z" stroke-width="2.54" transform="matrix(0.33333, 0, 0, 0.33333, 0, 0)"
        stroke="none"/>
</svg>