<?xml version="1.0" standalone="no"?>
<!DOCTYPE svg PUBLIC "-//W3C//DTD SVG 1.0//EN"
    "http://www.w3.org/TR/2001/REC-SVG-20010904/DTD/svg10.dtd">
<?xml-stylesheet type="text/css" href="..\cisco_network.css" ?>
<svg contentScriptType="text/ecmascript" zoomAndPan="magnify" xmlns:xlink="http://www.w3.org/1999/xlink" baseProfile="full"
    contentStyleType="text/css" enable-background="new" version="1.0" width="42.5197" preserveAspectRatio="none"
    viewBox="436.99 -578.02 48 37.024" height="32.7969" xmlns="http://www.w3.org/2000/svg" color-interpolation-filters="sRGB"
    x="0" y="1.5">
    <path d="M1440,-1714 C1440,-1714 1440,-1714 1440,-1714 C1440,-1714 1395,-1664 1322,-1711 C1322,-1711 1322,-1711 
        1322,-1711 C1322,-1711 1322,-1711 1322,-1711 C1315,-1712 1315,-1712 1315,-1712 C1315,-1712 1315,-1712 1315,-1712 
        C1316,-1711 1316,-1711 1316,-1711 C1337,-1732 1337,-1732 1337,-1732 C1338,-1732 1338,-1732 1338,-1732 
        C1338,-1732 1338,-1732 1338,-1732 C1421,-1672 1454,-1732 1454,-1732" stroke-width="2" transform="matrix(0.33333, 0, 0, 0.33333, 0, 0)"/>
    <path d="M1440,-1714 C1440,-1714 1440,-1714 1440,-1714 C1440,-1714 1395,-1664 1322,-1711 C1322,-1711 1322,-1711 
        1322,-1711 C1322,-1711 1322,-1711 1322,-1711 C1315,-1712 1315,-1712 1315,-1712 C1315,-1712 1315,-1712 1315,-1712 
        C1316,-1711 1316,-1711 1316,-1711 C1337,-1732 1337,-1732 1337,-1732 C1338,-1732 1338,-1732 1338,-1732 
        C1338,-1732 1338,-1732 1338,-1732 C1421,-1672 1454,-1732 1454,-1732" stroke-width="2" transform="matrix(0.33333, 0, 0, 0.33333, 0, 0)"/>
    <path d="M1315,-1625 C1315,-1714 1315,-1714 1315,-1714 C1315,-1714 1315,-1714 1315,-1714 C1315,-1714 1315,-1714 
        1315,-1714 C1315,-1714 1315,-1714 1315,-1714 C1388,-1667 1434,-1715 1434,-1715 C1434,-1715 1434,-1715 1434,-1715 
        C1434,-1715 1434,-1715 1434,-1715 C1434,-1715 1434,-1715 1434,-1715 C1434,-1715 1434,-1715 1434,-1715 
        C1434,-1625 1434,-1625 1434,-1625" stroke-width="2" transform="matrix(0.33333, 0, 0, 0.33333, 0, 0)"/>
    <path d="M1315,-1625 C1315,-1714 1315,-1714 1315,-1714 C1315,-1714 1315,-1714 1315,-1714 C1315,-1714 1315,-1714 
        1315,-1714 C1315,-1714 1315,-1714 1315,-1714 C1388,-1667 1434,-1715 1434,-1715 C1434,-1715 1434,-1715 1434,-1715 
        C1434,-1715 1434,-1715 1434,-1715 C1434,-1715 1434,-1715 1434,-1715 C1434,-1715 1434,-1715 1434,-1715 
        C1434,-1625 1434,-1625 1434,-1625" stroke-width="2" transform="matrix(0.33333, 0, 0, 0.33333, 0, 0)"/>
    <path d="M1433,-1713 L1433,-1714 L1433,-1625 L1455,-1648 L1455,-1732 L1433,-1713 Z" stroke-width="2" transform="matrix(0.33333, 0, 0, 0.33333, 0, 0)"/>
</svg>