<?xml version="1.0" standalone="no"?>
<!DOCTYPE svg PUBLIC "-//W3C//DTD SVG 1.0//EN"
    "http://www.w3.org/TR/2001/REC-SVG-20010904/DTD/svg10.dtd">
<?xml-stylesheet type="text/css" href="..\cisco_network.css" ?>
<svg contentScriptType="text/ecmascript" zoomAndPan="magnify" xmlns:xlink="http://www.w3.org/1999/xlink" baseProfile="full"
    contentStyleType="text/css" enable-background="new" version="1.0" width="28.3465" preserveAspectRatio="none"
    viewBox="395.01 -564 32 48" height="42.5197" xmlns="http://www.w3.org/2000/svg" color-interpolation-filters="sRGB"
    x="0" y="1.5">
    <path d="M1187,-1549 L1187,-1676 L1261,-1676 L1261,-1549 L1187,-1549 Z M1209,-1691 L1187,-1676 L1261,-1676 
        L1280,-1691 L1209,-1691 Z M1280,-1572 L1280,-1691 L1261,-1675 L1261,-1549 L1280,-1572 Z" stroke-width="2"
        transform="matrix(0.33333, 0, 0, 0.33333, 0, 0)"/>
    <path fill="#ffffff" d="M1225,-1674 L1190,-1613 L1261,-1613 L1225,-1674 Z M1225,-1552 L1190,-1613 L1261,-1613 
        L1225,-1552 Z" stroke-width="2.54" transform="matrix(0.33333, 0, 0, 0.33333, 0, 0)" stroke="none"/>
    <path stroke-width="2.54" d="M1221,-1600 C1229,-1608 1229,-1608 1229,-1608 C1221,-1608 1217,-1607 1211,-1607 
        C1209,-1598 1207,-1592 1204,-1586 C1213,-1593 1213,-1593 1213,-1593 C1219,-1588 1226,-1586 1232,-1589 
        C1232,-1589 1233,-1589 1233,-1590 C1243,-1599 1243,-1599 1243,-1599 C1237,-1593 1227,-1593 1221,-1600 Z"
        transform="matrix(0.33333, 0, 0, 0.33333, 0, 0)" stroke="none"/>
    <path stroke-width="2.54" d="M1213,-1613 C1211,-1621 1212,-1630 1217,-1637 C1218,-1638 1219,-1639 1220,-1640 
        C1210,-1631 1210,-1631 1210,-1631 C1209,-1630 1208,-1629 1207,-1628 C1202,-1621 1201,-1612 1203,-1604 Z"
        transform="matrix(0.33333, 0, 0, 0.33333, 0, 0)" stroke="none"/>
    <path stroke-width="2.54" d="M1233,-1640 C1229,-1642 1225,-1642 1221,-1641 C1221,-1641 1220,-1640 1220,-1640 
        C1210,-1631 1210,-1631 1210,-1631 C1214,-1635 1220,-1636 1226,-1633 C1220,-1629 1220,-1629 1220,-1629 
        C1237,-1629 1237,-1629 1237,-1629 C1240,-1646 1240,-1646 1240,-1646 Z" transform="matrix(0.33333, 0, 0, 0.33333, 0, 0)"
        stroke="none"/>
    <path stroke-width="2.54" d="M1246,-1634 C1253,-1621 1250,-1608 1246,-1602 C1245,-1601 1244,-1600 1243,-1599 
        C1233,-1590 1233,-1590 1233,-1590 C1234,-1590 1235,-1591 1236,-1593 C1244,-1605 1239,-1617 1236,-1625 Z"
        transform="matrix(0.33333, 0, 0, 0.33333, 0, 0)" stroke="none"/>
</svg>