<?xml version="1.0" standalone="no"?>
<!DOCTYPE svg PUBLIC "-//W3C//DTD SVG 1.0//EN"
    "http://www.w3.org/TR/2001/REC-SVG-20010904/DTD/svg10.dtd">
<?xml-stylesheet type="text/css" href="..\cisco_network.css" ?>
<svg contentScriptType="text/ecmascript" zoomAndPan="magnify" xmlns:xlink="http://www.w3.org/1999/xlink" baseProfile="full"
    contentStyleType="text/css" enable-background="new" version="1.0" width="41.6126" preserveAspectRatio="none"
    viewBox="390.02 -556 46.976 24" height="21.2598" xmlns="http://www.w3.org/2000/svg" color-interpolation-filters="sRGB"
    x="0" y="1.5">
    <path d="M1172,-1631 L1213,-1665 L1310,-1665 L1275,-1631 L1172,-1631 Z M1275,-1598 L1310,-1635 L1310,-1665 
        L1275,-1631 L1275,-1598 Z M1275,-1598 L1275,-1631 L1172,-1631 L1172,-1598 L1275,-1598 Z" stroke-width="2"
        transform="matrix(0.33333, 0, 0, 0.33333, 0, 0)"/>
    <path fill="#ffffff" d="M1228,-1612 L1188,-1612 L1188,-1617 L1228,-1617 L1228,-1625 L1246,-1615 L1228,-1605 
        L1228,-1612 Z" stroke-width="2" transform="matrix(0.33333, 0, 0, 0.33333, 0, 0)" stroke="#ffffff"/>
    <path fill="#ffffff" d="M1192,-1617 L1192,-1625 L1174,-1615 L1192,-1605 L1192,-1612 Z" stroke-width="2.54"
        transform="matrix(0.33333, 0, 0, 0.33333, 0, 0)" stroke="#ffffff"/>
    <path fill="none" d="M1192,-1617 L1192,-1625 L1174,-1615 L1192,-1605 L1192,-1612" stroke-width="2" transform="matrix(0.33333, 0, 0, 0.33333, 0, 0)"/>
    <path fill="#ffffff" d="M1271,-1617 L1271,-1625 L1253,-1615 L1271,-1605 L1271,-1612 L1271,-1617 Z" stroke-width="2"
        transform="matrix(0.33333, 0, 0, 0.33333, 0, 0)" stroke="#ffffff"/>
</svg>