<?xml version="1.0" standalone="no"?>
<!DOCTYPE svg PUBLIC "-//W3C//DTD SVG 1.0//EN"
    "http://www.w3.org/TR/2001/REC-SVG-20010904/DTD/svg10.dtd">
<?xml-stylesheet type="text/css" href="..\cisco_network.css" ?>
<svg contentScriptType="text/ecmascript" zoomAndPan="magnify" xmlns:xlink="http://www.w3.org/1999/xlink" baseProfile="full"
    contentStyleType="text/css" enable-background="new" version="1.0" width="43.3984" preserveAspectRatio="none"
    viewBox="384 -551.01 48.992 48.992" height="43.3984" xmlns="http://www.w3.org/2000/svg" color-interpolation-filters="sRGB"
    x="0" y="1.5">
    <path d="M1226,-1596 C1266,-1596 1299,-1609 1299,-1625 C1299,-1641 1266,-1654 1226,-1654 C1185,-1654 1152,-1641 
        1152,-1625 C1152,-1609 1185,-1596 1226,-1596 Z" stroke-width="2" transform="matrix(0.33333, 0, 0, 0.33333, 0, 0)"/>
    <path fill="#ffffff" d="M1152,-1625 C1152,-1609 1185,-1596 1226,-1596 C1266,-1596 1299,-1609 1299,-1625 C1299,-1534 
        1299,-1534 1299,-1534 C1299,-1518 1266,-1505 1226,-1505 C1185,-1505 1152,-1518 1152,-1534 Z" stroke-width="2.54"
        transform="matrix(0.33333, 0, 0, 0.33333, 0, 0)" stroke="none"/>
    <path stroke-width="2" d="M1299,-1625 C1299,-1609 1266,-1596 1226,-1596 C1185,-1596 1152,-1609 1152,-1625 
        C1152,-1534 1152,-1534 1152,-1534 C1152,-1518 1185,-1505 1226,-1505 C1266,-1505 1299,-1518 1299,-1534 Z"
        transform="matrix(0.33333, 0, 0, 0.33333, 0, 0)"/>
    <path fill="#ffffff" stroke-width="2.54" d="M1210,-1637 L1216,-1628 L1193,-1623 L1198,-1627 L1162,-1633 L1171,-1640 
        L1206,-1634 L1210,-1637 Z M1242,-1615 L1238,-1624 L1259,-1629 L1255,-1625 L1290,-1619 L1281,-1613 L1247,-1619 
        L1242,-1615 Z M1231,-1642 L1254,-1648 L1254,-1638 L1249,-1640 L1237,-1630 L1226,-1632 L1238,-1641 L1231,-1642 Z 
        M1221,-1606 L1199,-1602 L1198,-1612 L1204,-1611 L1216,-1621 L1227,-1620 L1214,-1608 L1221,-1606 Z" transform="matrix(0.33333, 0, 0, 0.33333, 0, 0)"
        stroke="none"/>
    <path fill="#ffffff" d="M1238,-1542 L1211,-1542 L1211,-1570 L1238,-1570 L1238,-1542 Z M1192,-1589 L1192,-1578 
        L1172,-1578 L1172,-1589 L1192,-1589 Z M1192,-1561 L1192,-1549 L1172,-1549 L1172,-1561 L1192,-1561 Z M1192,-1534 
        L1192,-1523 L1172,-1523 L1172,-1534 L1192,-1534 Z M1235,-1534 L1235,-1523 L1214,-1523 L1214,-1534 L1235,-1534 Z 
        M1279,-1589 L1279,-1578 L1258,-1578 L1258,-1589 L1279,-1589 Z M1235,-1589 L1235,-1578 L1214,-1578 L1214,-1589 
        L1235,-1589 Z M1279,-1561 L1279,-1549 L1258,-1549 L1258,-1561 L1279,-1561 Z M1279,-1534 L1279,-1523 L1258,-1523 
        L1258,-1534 L1279,-1534 Z" stroke-width="2" transform="matrix(0.33333, 0, 0, 0.33333, 0, 0)" stroke="#000000"/>
    <path fill="none" d="M1183,-1556 L1269,-1556 M1225,-1582 L1225,-1528 M1186,-1528 L1266,-1583 M1264,-1528 
        L1185,-1583" stroke-width="3" transform="matrix(0.33333, 0, 0, 0.33333, 0, 0)" stroke="#ffffff"/>
</svg>