<?xml version="1.0" standalone="no"?>
<!DOCTYPE svg PUBLIC "-//W3C//DTD SVG 1.0//EN"
    "http://www.w3.org/TR/2001/REC-SVG-20010904/DTD/svg10.dtd">
<?xml-stylesheet type="text/css" href="..\cisco_network.css" ?>
<svg contentScriptType="text/ecmascript" zoomAndPan="magnify" xmlns:xlink="http://www.w3.org/1999/xlink" baseProfile="full"
    contentStyleType="text/css" enable-background="new" version="1.0" width="53.1496" preserveAspectRatio="none"
    viewBox="384 -572 60 39.008" height="34.5543" xmlns="http://www.w3.org/2000/svg" color-interpolation-filters="sRGB"
    x="0" y="1.5">
    <path d="M1156,-1675 L1156,-1603 L1288,-1603 L1288,-1675 Z" stroke-width="2.54" transform="matrix(0.33333, 0, 0, 0.33333, 0, 0)"
        stroke="none"/>
    <path fill="none" d="M1156,-1675 L1156,-1603 L1288,-1603 L1288,-1675" stroke-width="2" transform="matrix(0.33333, 0, 0, 0.33333, 0, 0)"/>
    <path fill="#ffffff" d="M1239,-1644 C1239,-1641 1232,-1639 1224,-1639 C1216,-1639 1209,-1641 1209,-1644 C1209,-1625 
        1209,-1625 1209,-1625 C1209,-1622 1216,-1620 1224,-1620 C1232,-1620 1239,-1622 1239,-1625 Z" stroke-width="2.54"
        transform="matrix(0.33333, 0, 0, 0.33333, 0, 0)" stroke="none"/>
    <path stroke-width="3" d="M1224,-1639 C1232,-1639 1239,-1641 1239,-1644 C1239,-1646 1232,-1648 1224,-1648 
        C1216,-1648 1209,-1646 1209,-1644 C1209,-1641 1216,-1639 1224,-1639 Z" transform="matrix(0.33333, 0, 0, 0.33333, 0, 0)"
        stroke="#ffffff"/>
    <path fill="#ffffff" stroke-width="3" d="M1224,-1618 C1232,-1618 1239,-1620 1239,-1623 C1239,-1625 1232,-1627 
        1224,-1627 C1216,-1627 1209,-1625 1209,-1623 C1209,-1620 1216,-1618 1224,-1618 Z" transform="matrix(0.33333, 0, 0, 0.33333, 0, 0)"/>
    <path d="M1155,-1675 L1204,-1715 L1329,-1715 L1288,-1675 L1155,-1675 Z M1288,-1674 L1288,-1602 L1329,-1645 
        L1329,-1714 L1288,-1674 Z" stroke-width="2" transform="matrix(0.33333, 0, 0, 0.33333, 0, 0)"/>
    <path fill="#ffffff" d="M1271,-1636 L1247,-1636 L1247,-1640 L1271,-1640 L1271,-1646 L1285,-1638 L1271,-1630 
        L1271,-1636 Z M1267,-1656 L1246,-1642 L1244,-1646 L1265,-1659 L1261,-1664 L1277,-1665 L1270,-1650 L1267,-1656 Z 
        M1267,-1621 L1246,-1634 L1244,-1631 L1265,-1617 L1261,-1612 L1277,-1611 L1270,-1626 L1267,-1621 Z M1174,-1636 
        L1198,-1636 L1198,-1640 L1174,-1640 L1174,-1646 L1160,-1638 L1174,-1630 L1174,-1636 Z M1225,-1667 L1225,-1675 
        L1221,-1675 L1221,-1667 L1215,-1667 L1223,-1652 L1231,-1667 L1225,-1667 Z M1178,-1656 L1198,-1642 L1201,-1646 
        L1180,-1659 L1183,-1664 L1167,-1665 L1175,-1650 L1178,-1656 Z M1178,-1621 L1198,-1634 L1201,-1631 L1180,-1617 
        L1183,-1612 L1167,-1611 L1175,-1626 L1178,-1621 Z" stroke-width="2.54" transform="matrix(0.33333, 0, 0, 0.33333, 0, 0)"
        stroke="none"/>
</svg>