<?xml version="1.0" standalone="no"?>
<!DOCTYPE svg PUBLIC "-//W3C//DTD SVG 1.0//EN"
    "http://www.w3.org/TR/2001/REC-SVG-20010904/DTD/svg10.dtd">
<?xml-stylesheet type="text/css" href="..\cisco_network.css" ?>
<svg contentScriptType="text/ecmascript" zoomAndPan="magnify" xmlns:xlink="http://www.w3.org/1999/xlink" baseProfile="full"
    contentStyleType="text/css" enable-background="new" version="1.0" width="17.7165" preserveAspectRatio="none"
    viewBox="400 -546.02 20 36" height="31.8898" xmlns="http://www.w3.org/2000/svg" color-interpolation-filters="sRGB"
    x="0" y="1.5">
    <path stroke-width="2.54" d="M1255,-1592 C1256,-1595 1260,-1612 1260,-1614 C1261,-1617 1260,-1620 1258,-1620 
        C1259,-1621 1259,-1621 1259,-1621 C1258,-1622 1258,-1622 1258,-1622 C1258,-1622 1258,-1622 1258,-1622 
        C1258,-1622 1259,-1626 1259,-1628 C1260,-1633 1260,-1636 1260,-1636 C1260,-1636 1260,-1637 1259,-1637 
        C1256,-1638 1256,-1638 1256,-1638 C1256,-1638 1255,-1638 1255,-1637 C1255,-1637 1254,-1635 1252,-1630 
        C1251,-1628 1251,-1624 1251,-1624 C1251,-1624 1251,-1624 1251,-1624 C1249,-1625 1247,-1625 1245,-1626 
        C1241,-1627 1236,-1628 1232,-1629 C1232,-1629 1231,-1629 1231,-1628 C1231,-1628 1231,-1628 1231,-1628 
        C1230,-1628 1227,-1626 1226,-1624 C1225,-1622 1220,-1605 1219,-1602 C1218,-1598 1216,-1590 1215,-1585 
        C1215,-1581 1214,-1574 1211,-1564 C1209,-1558 1207,-1549 1205,-1545 C1205,-1544 1202,-1539 1206,-1538 
        C1211,-1536 1217,-1534 1220,-1533 C1223,-1533 1229,-1531 1233,-1530 C1238,-1530 1238,-1535 1238,-1536 
        C1239,-1540 1241,-1549 1243,-1555 C1245,-1565 1249,-1572 1250,-1576 C1252,-1580 1254,-1588 1255,-1592 Z"
        transform="matrix(0.33333, 0, 0, 0.33333, 0, 0)" stroke="none"/>
    <path stroke-width="2.54" d="M1256,-1636 C1256,-1636 1254,-1636 1253,-1636 C1252,-1637 1251,-1637 1251,-1637"
        transform="matrix(0.33333, 0, 0, 0.33333, 0, 0)" stroke="none"/>
    <path stroke-width="2.54" d="M1251,-1591 C1252,-1594 1256,-1611 1256,-1614 C1256,-1616 1255,-1619 1254,-1620 
        C1254,-1621 1254,-1621 1254,-1621 C1254,-1621 1253,-1621 1253,-1621 C1253,-1621 1253,-1621 1253,-1621 
        C1253,-1621 1254,-1625 1255,-1628 C1256,-1633 1256,-1635 1256,-1635 C1256,-1636 1255,-1637 1255,-1637 
        C1252,-1638 1252,-1638 1252,-1638 C1251,-1638 1251,-1637 1250,-1637 C1250,-1637 1249,-1634 1248,-1630 
        C1247,-1627 1246,-1624 1246,-1624 C1246,-1624 1246,-1624 1246,-1624 C1244,-1625 1243,-1625 1241,-1626 
        C1236,-1627 1232,-1628 1227,-1628 C1227,-1628 1227,-1628 1226,-1627 C1226,-1627 1226,-1627 1226,-1627 
        C1225,-1627 1223,-1625 1222,-1623 C1221,-1621 1215,-1605 1214,-1601 C1213,-1598 1212,-1589 1211,-1585 
        C1210,-1581 1209,-1573 1207,-1563 C1205,-1557 1202,-1548 1201,-1545 C1201,-1544 1198,-1539 1202,-1537 
        C1206,-1536 1212,-1534 1215,-1533 C1218,-1532 1224,-1531 1229,-1530 C1233,-1529 1233,-1535 1233,-1536 
        C1234,-1540 1236,-1549 1238,-1554 C1241,-1564 1244,-1571 1246,-1575 C1247,-1579 1250,-1588 1251,-1591 Z"
        transform="matrix(0.33333, 0, 0, 0.33333, 0, 0)" stroke="none"/>
    <path stroke-width="2.54" d="M1219,-1567 C1218,-1566 1217,-1565 1215,-1565 C1213,-1566 1212,-1567 1213,-1569 
        C1213,-1571 1215,-1572 1217,-1571 C1218,-1571 1219,-1569 1219,-1567 Z" transform="matrix(0.33333, 0, 0, 0.33333, 0, 0)"
        stroke="none"/>
    <path stroke-width="2.54" d="M1227,-1564 C1227,-1562 1225,-1561 1223,-1562 C1221,-1562 1220,-1564 1221,-1566 
        C1221,-1567 1223,-1568 1225,-1568 C1227,-1567 1228,-1566 1227,-1564 Z" transform="matrix(0.33333, 0, 0, 0.33333, 0, 0)"
        stroke="none"/>
    <path stroke-width="2.54" d="M1236,-1563 C1236,-1561 1234,-1560 1232,-1560 C1230,-1561 1229,-1563 1230,-1564 
        C1230,-1566 1232,-1567 1234,-1567 C1235,-1566 1236,-1564 1236,-1563 Z" transform="matrix(0.33333, 0, 0, 0.33333, 0, 0)"
        stroke="none"/>
    <path stroke-width="2.54" d="M1217,-1560 C1216,-1558 1215,-1557 1213,-1558 C1211,-1558 1210,-1560 1211,-1562 
        C1211,-1564 1213,-1565 1215,-1564 C1216,-1564 1217,-1562 1217,-1560 Z" transform="matrix(0.33333, 0, 0, 0.33333, 0, 0)"
        stroke="none"/>
    <path stroke-width="2.54" d="M1225,-1557 C1225,-1555 1223,-1554 1221,-1554 C1219,-1555 1218,-1557 1219,-1558 
        C1219,-1560 1221,-1561 1223,-1561 C1225,-1560 1226,-1558 1225,-1557 Z" transform="matrix(0.33333, 0, 0, 0.33333, 0, 0)"
        stroke="none"/>
    <path stroke-width="2.54" d="M1234,-1555 C1234,-1554 1232,-1553 1230,-1553 C1228,-1554 1227,-1555 1228,-1557 
        C1228,-1559 1230,-1560 1232,-1559 C1233,-1559 1234,-1557 1234,-1555 Z" transform="matrix(0.33333, 0, 0, 0.33333, 0, 0)"
        stroke="none"/>
    <path stroke-width="2.54" d="M1215,-1553 C1214,-1551 1213,-1550 1211,-1551 C1209,-1551 1208,-1553 1209,-1555 
        C1209,-1556 1211,-1558 1213,-1557 C1214,-1557 1215,-1555 1215,-1553 Z" transform="matrix(0.33333, 0, 0, 0.33333, 0, 0)"
        stroke="none"/>
    <path stroke-width="2.54" d="M1223,-1550 C1223,-1548 1221,-1547 1219,-1547 C1217,-1548 1216,-1550 1217,-1551 
        C1217,-1553 1219,-1554 1221,-1554 C1223,-1553 1224,-1551 1223,-1550 Z" transform="matrix(0.33333, 0, 0, 0.33333, 0, 0)"
        stroke="none"/>
    <path stroke-width="2.54" d="M1232,-1548 C1232,-1547 1230,-1546 1228,-1546 C1226,-1546 1225,-1548 1226,-1550 
        C1226,-1552 1228,-1553 1230,-1552 C1231,-1552 1233,-1550 1232,-1548 Z" transform="matrix(0.33333, 0, 0, 0.33333, 0, 0)"
        stroke="none"/>
    <path stroke-width="2.54" d="M1213,-1546 C1212,-1544 1211,-1543 1209,-1544 C1207,-1544 1206,-1546 1207,-1548 
        C1207,-1549 1209,-1550 1211,-1550 C1212,-1549 1213,-1548 1213,-1546 Z M1221,-1542 C1221,-1541 1219,-1540 
        1217,-1540 C1215,-1541 1214,-1542 1215,-1544 C1215,-1546 1217,-1547 1219,-1546 C1221,-1546 1222,-1544 1221,-1542 
        Z" transform="matrix(0.33333, 0, 0, 0.33333, 0, 0)" stroke="none"/>
    <path stroke-width="2.54" d="M1230,-1541 C1230,-1539 1228,-1538 1226,-1539 C1224,-1539 1223,-1541 1224,-1543 
        C1224,-1545 1226,-1546 1228,-1545 C1230,-1545 1231,-1543 1230,-1541 Z" transform="matrix(0.33333, 0, 0, 0.33333, 0, 0)"
        stroke="none"/>
    <path stroke-width="2.54" d="M1217,-1538 C1217,-1537 1217,-1537 1216,-1537 C1216,-1537 1216,-1538 1216,-1538 
        C1216,-1538 1216,-1538 1217,-1538 C1217,-1538 1217,-1538 1217,-1538 Z M1216,-1538 C1215,-1534 1215,-1534 
        1215,-1534 M1216,-1537 C1215,-1534 1215,-1534 1215,-1534 M1217,-1538 C1216,-1534 1216,-1534 1216,-1534 
        M1217,-1537 C1216,-1534 1216,-1534 1216,-1534 M1223,-1592 C1223,-1589 1223,-1589 1223,-1589 M1224,-1591 
        C1223,-1589 1223,-1589 1223,-1589 M1238,-1587 C1238,-1585 1238,-1585 1238,-1585 M1238,-1588 C1237,-1585 
        1237,-1585 1237,-1585" transform="matrix(0.33333, 0, 0, 0.33333, 0, 0)" stroke="none"/>
    <path stroke-width="2.54" d="M1253,-1621 C1253,-1621 1254,-1625 1255,-1628 C1256,-1633 1256,-1635 1256,-1635 
        C1256,-1636 1255,-1637 1255,-1637 C1252,-1638 1252,-1638 1252,-1638 C1251,-1638 1251,-1637 1250,-1637 
        C1250,-1637 1249,-1634 1248,-1630 C1247,-1627 1246,-1624 1246,-1624 M1245,-1587 C1245,-1586 1244,-1586 
        1243,-1586 C1218,-1593 1218,-1593 1218,-1593 C1218,-1593 1217,-1594 1217,-1594 C1222,-1610 1222,-1610 1222,-1610 
        C1222,-1611 1223,-1611 1223,-1611 C1248,-1604 1248,-1604 1248,-1604 C1249,-1604 1249,-1603 1249,-1603 Z 
        M1254,-1623 C1251,-1624 1249,-1624 1246,-1625 M1228,-1628 C1228,-1628 1222,-1616 1218,-1604 C1214,-1589 
        1214,-1584 1214,-1577 C1214,-1576 1216,-1574 1217,-1573 C1218,-1573 1219,-1573 1219,-1573 C1219,-1573 1220,-1573 
        1221,-1572 C1222,-1571 1223,-1571 1223,-1571 C1224,-1570 1224,-1570 1225,-1570 C1227,-1569 1227,-1569 1228,-1569 
        C1228,-1569 1229,-1569 1230,-1570 C1231,-1570 1232,-1569 1233,-1569 C1233,-1569 1234,-1569 1234,-1569 
        C1236,-1568 1238,-1569 1239,-1570 C1243,-1576 1245,-1580 1249,-1595 C1252,-1608 1253,-1621 1253,-1621 
        M1224,-1622 C1229,-1622 1234,-1620 1239,-1619 C1244,-1618 1249,-1616 1253,-1614" transform="matrix(0.33333, 0, 0, 0.33333, 0, 0)"
        stroke="none"/>
    <path stroke-width="2.54" d="M1235,-1577 C1234,-1573 1230,-1571 1226,-1572 C1222,-1573 1220,-1577 1221,-1581 
        C1222,-1585 1226,-1587 1230,-1586 C1234,-1585 1236,-1581 1235,-1577 Z M1221,-1589 C1222,-1589 1223,-1588 
        1224,-1588 C1224,-1588 1224,-1587 1224,-1587 C1223,-1587 1223,-1587 1222,-1586 C1222,-1586 1222,-1586 1221,-1586 
        C1220,-1587 1218,-1588 1218,-1589 C1217,-1589 1218,-1589 1218,-1589 C1219,-1590 1220,-1589 1221,-1589 Z 
        M1216,-1581 C1217,-1581 1218,-1580 1219,-1580 C1219,-1580 1220,-1579 1219,-1579 C1219,-1578 1219,-1576 
        1220,-1575 C1220,-1575 1220,-1574 1220,-1574 C1219,-1574 1218,-1575 1217,-1575 C1217,-1575 1216,-1576 1216,-1576 
        C1216,-1577 1216,-1580 1216,-1581 C1216,-1581 1216,-1581 1216,-1581 Z" transform="matrix(0.33333, 0, 0, 0.33333, 0, 0)"
        stroke="none"/>
    <path stroke-width="2.54" d="M1239,-1584 C1238,-1585 1237,-1585 1236,-1585 C1236,-1585 1236,-1584 1236,-1584 
        C1236,-1584 1236,-1583 1236,-1582 C1236,-1582 1237,-1582 1237,-1582 C1238,-1582 1241,-1582 1242,-1582 
        C1242,-1582 1242,-1583 1242,-1583 C1241,-1583 1240,-1584 1239,-1584 Z M1239,-1575 C1238,-1575 1237,-1575 
        1237,-1575 C1236,-1575 1235,-1575 1235,-1574 C1235,-1574 1234,-1572 1233,-1572 C1232,-1571 1232,-1571 1233,-1571 
        C1233,-1571 1235,-1570 1235,-1570 C1236,-1570 1236,-1570 1237,-1571 C1238,-1571 1239,-1573 1239,-1574 
        C1239,-1575 1239,-1575 1239,-1575 Z" transform="matrix(0.33333, 0, 0, 0.33333, 0, 0)" stroke="none"/>
    <path d="M1238,-1617 L1240,-1626 Z" stroke-width="2.54" transform="matrix(0.33333, 0, 0, 0.33333, 0, 0)" stroke="none"/>
    <path fill="none" d="M1238,-1617 L1240,-1626" stroke-width="2.54" transform="matrix(0.33333, 0, 0, 0.33333, 0, 0)"
        stroke="none"/>
    <path d="M1239,-1617 L1241,-1625 Z" stroke-width="2.54" transform="matrix(0.33333, 0, 0, 0.33333, 0, 0)" stroke="none"/>
    <path fill="none" d="M1239,-1617 L1241,-1625" stroke-width="2.54" transform="matrix(0.33333, 0, 0, 0.33333, 0, 0)"
        stroke="none"/>
    <path stroke-width="2.54" d="M1255,-1592 C1256,-1595 1260,-1612 1260,-1614 C1261,-1617 1260,-1620 1258,-1620 
        C1259,-1621 1259,-1621 1259,-1621 C1258,-1622 1258,-1622 1258,-1622 C1258,-1622 1258,-1622 1258,-1622 
        C1258,-1622 1259,-1626 1259,-1628 C1260,-1633 1260,-1636 1260,-1636 C1260,-1636 1260,-1637 1259,-1637 
        C1256,-1638 1256,-1638 1256,-1638 C1256,-1638 1255,-1638 1255,-1637 C1255,-1637 1254,-1635 1252,-1630 
        C1251,-1628 1251,-1624 1251,-1624 C1251,-1624 1251,-1624 1251,-1624 C1249,-1625 1247,-1625 1245,-1626 
        C1241,-1627 1236,-1628 1232,-1629 C1232,-1629 1231,-1629 1231,-1628 C1231,-1628 1231,-1628 1231,-1628 
        C1230,-1628 1227,-1626 1226,-1624 C1225,-1622 1220,-1605 1219,-1602 C1218,-1598 1216,-1590 1215,-1585 
        C1215,-1581 1214,-1574 1211,-1564 C1209,-1558 1207,-1549 1205,-1545 C1205,-1544 1202,-1539 1206,-1538 
        C1211,-1536 1217,-1534 1220,-1533 C1223,-1533 1229,-1531 1233,-1530 C1238,-1530 1238,-1535 1238,-1536 
        C1239,-1540 1241,-1549 1243,-1555 C1245,-1565 1249,-1572 1250,-1576 C1252,-1580 1254,-1588 1255,-1592 Z"
        transform="matrix(0.33333, 0, 0, 0.33333, 0, 0)" stroke="none"/>
    <path fill="#000000" d="M1256,-1636 C1256,-1636 1254,-1636 1253,-1636 C1252,-1637 1251,-1637 1251,-1637" transform="matrix(0.33333, 0, 0, 0.33333, 0, 0)"/>
    <path fill="none" d="M1256,-1636 C1256,-1636 1254,-1636 1253,-1636 C1252,-1637 1251,-1637 1251,-1637" transform="matrix(0.33333, 0, 0, 0.33333, 0, 0)"/>
    <path d="M1251,-1591 C1252,-1594 1256,-1611 1256,-1614 C1256,-1616 1255,-1619 1254,-1620 C1254,-1621 1254,-1621 
        1254,-1621 C1254,-1621 1253,-1621 1253,-1621 C1253,-1621 1253,-1621 1253,-1621 C1253,-1621 1254,-1625 1255,-1628 
        C1256,-1633 1256,-1635 1256,-1635 C1256,-1636 1255,-1637 1255,-1637 C1252,-1638 1252,-1638 1252,-1638 
        C1251,-1638 1251,-1637 1250,-1637 C1250,-1637 1249,-1634 1248,-1630 C1247,-1627 1246,-1624 1246,-1624 
        C1246,-1624 1246,-1624 1246,-1624 C1244,-1625 1243,-1625 1241,-1626 C1236,-1627 1232,-1628 1227,-1628 
        C1227,-1628 1227,-1628 1226,-1627 C1226,-1627 1226,-1627 1226,-1627 C1225,-1627 1223,-1625 1222,-1623 
        C1221,-1621 1215,-1605 1214,-1601 C1213,-1598 1212,-1589 1211,-1585 C1210,-1581 1209,-1573 1207,-1563 
        C1205,-1557 1202,-1548 1201,-1545 C1201,-1544 1198,-1539 1202,-1537 C1206,-1536 1212,-1534 1215,-1533 
        C1218,-1532 1224,-1531 1229,-1530 C1233,-1529 1233,-1535 1233,-1536 C1234,-1540 1236,-1549 1238,-1554 
        C1241,-1564 1244,-1571 1246,-1575 C1247,-1579 1250,-1588 1251,-1591 Z" stroke="#ffffff" transform="matrix(0.33333, 0, 0, 0.33333, 0, 0)"/>
    <path fill="#000000" d="M1219,-1567 C1218,-1566 1217,-1565 1215,-1565 C1213,-1566 1212,-1567 1213,-1569 C1213,-1571 
        1215,-1572 1217,-1571 C1218,-1571 1219,-1569 1219,-1567 Z" transform="matrix(0.33333, 0, 0, 0.33333, 0, 0)"/>
    <path fill="#000000" d="M1227,-1564 C1227,-1562 1225,-1561 1223,-1562 C1221,-1562 1220,-1564 1221,-1566 C1221,-1567 
        1223,-1568 1225,-1568 C1227,-1567 1228,-1566 1227,-1564 Z" transform="matrix(0.33333, 0, 0, 0.33333, 0, 0)"/>
    <path fill="#000000" d="M1236,-1563 C1236,-1561 1234,-1560 1232,-1560 C1230,-1561 1229,-1563 1230,-1564 C1230,-1566 
        1232,-1567 1234,-1567 C1235,-1566 1236,-1564 1236,-1563 Z" transform="matrix(0.33333, 0, 0, 0.33333, 0, 0)"/>
    <path fill="#000000" d="M1217,-1560 C1216,-1558 1215,-1557 1213,-1558 C1211,-1558 1210,-1560 1211,-1562 C1211,-1564 
        1213,-1565 1215,-1564 C1216,-1564 1217,-1562 1217,-1560 Z" transform="matrix(0.33333, 0, 0, 0.33333, 0, 0)"/>
    <path fill="#000000" d="M1225,-1557 C1225,-1555 1223,-1554 1221,-1554 C1219,-1555 1218,-1557 1219,-1558 C1219,-1560 
        1221,-1561 1223,-1561 C1225,-1560 1226,-1558 1225,-1557 Z" transform="matrix(0.33333, 0, 0, 0.33333, 0, 0)"/>
    <path fill="#000000" d="M1234,-1555 C1234,-1554 1232,-1553 1230,-1553 C1228,-1554 1227,-1555 1228,-1557 C1228,-1559 
        1230,-1560 1232,-1559 C1233,-1559 1234,-1557 1234,-1555 Z" transform="matrix(0.33333, 0, 0, 0.33333, 0, 0)"/>
    <path fill="#000000" d="M1215,-1553 C1214,-1551 1213,-1550 1211,-1551 C1209,-1551 1208,-1553 1209,-1555 C1209,-1556 
        1211,-1558 1213,-1557 C1214,-1557 1215,-1555 1215,-1553 Z" transform="matrix(0.33333, 0, 0, 0.33333, 0, 0)"/>
    <path fill="#000000" d="M1223,-1550 C1223,-1548 1221,-1547 1219,-1547 C1217,-1548 1216,-1550 1217,-1551 C1217,-1553 
        1219,-1554 1221,-1554 C1223,-1553 1224,-1551 1223,-1550 Z" transform="matrix(0.33333, 0, 0, 0.33333, 0, 0)"/>
    <path fill="#000000" d="M1232,-1548 C1232,-1547 1230,-1546 1228,-1546 C1226,-1546 1225,-1548 1226,-1550 C1226,-1552 
        1228,-1553 1230,-1552 C1231,-1552 1233,-1550 1232,-1548 Z" transform="matrix(0.33333, 0, 0, 0.33333, 0, 0)"/>
    <path fill="#000000" d="M1213,-1546 C1212,-1544 1211,-1543 1209,-1544 C1207,-1544 1206,-1546 1207,-1548 C1207,-1549 
        1209,-1550 1211,-1550 C1212,-1549 1213,-1548 1213,-1546 Z M1221,-1542 C1221,-1541 1219,-1540 1217,-1540 
        C1215,-1541 1214,-1542 1215,-1544 C1215,-1546 1217,-1547 1219,-1546 C1221,-1546 1222,-1544 1221,-1542 Z"
        transform="matrix(0.33333, 0, 0, 0.33333, 0, 0)"/>
    <path fill="#000000" d="M1230,-1541 C1230,-1539 1228,-1538 1226,-1539 C1224,-1539 1223,-1541 1224,-1543 C1224,-1545 
        1226,-1546 1228,-1545 C1230,-1545 1231,-1543 1230,-1541 Z" transform="matrix(0.33333, 0, 0, 0.33333, 0, 0)"/>
    <path fill="#000000" d="M1217,-1538 C1217,-1537 1217,-1537 1216,-1537 C1216,-1537 1216,-1538 1216,-1538 C1216,-1538 
        1216,-1538 1217,-1538 C1217,-1538 1217,-1538 1217,-1538 Z M1216,-1538 C1215,-1534 1215,-1534 1215,-1534 
        M1216,-1537 C1215,-1534 1215,-1534 1215,-1534 M1217,-1538 C1216,-1534 1216,-1534 1216,-1534 M1217,-1537 
        C1216,-1534 1216,-1534 1216,-1534 M1223,-1592 C1223,-1589 1223,-1589 1223,-1589 M1224,-1591 C1223,-1589 
        1223,-1589 1223,-1589 M1238,-1587 C1238,-1585 1238,-1585 1238,-1585 M1238,-1588 C1237,-1585 1237,-1585 
        1237,-1585" transform="matrix(0.33333, 0, 0, 0.33333, 0, 0)"/>
    <path fill="#000000" d="M1217,-1538 C1217,-1537 1217,-1537 1216,-1537 C1216,-1537 1216,-1538 1216,-1538 C1216,-1538 
        1216,-1538 1217,-1538 C1217,-1538 1217,-1538 1217,-1538 Z M1216,-1538 C1215,-1534 1215,-1534 1215,-1534 
        M1216,-1537 C1215,-1534 1215,-1534 1215,-1534 M1217,-1538 C1216,-1534 1216,-1534 1216,-1534 M1217,-1537 
        C1216,-1534 1216,-1534 1216,-1534 M1223,-1592 C1223,-1589 1223,-1589 1223,-1589 M1224,-1591 C1223,-1589 
        1223,-1589 1223,-1589 M1238,-1587 C1238,-1585 1238,-1585 1238,-1585 M1238,-1588 C1237,-1585 1237,-1585 
        1237,-1585" transform="matrix(0.33333, 0, 0, 0.33333, 0, 0)"/>
    <path stroke-width="2.54" d="M1253,-1621 C1253,-1621 1254,-1625 1255,-1628 C1256,-1633 1256,-1635 1256,-1635 
        C1256,-1636 1255,-1637 1255,-1637 C1252,-1638 1252,-1638 1252,-1638 C1251,-1638 1251,-1637 1250,-1637 
        C1250,-1637 1249,-1634 1248,-1630 C1247,-1627 1246,-1624 1246,-1624 M1245,-1587 C1245,-1586 1244,-1586 
        1243,-1586 C1218,-1593 1218,-1593 1218,-1593 C1218,-1593 1217,-1594 1217,-1594 C1222,-1610 1222,-1610 1222,-1610 
        C1222,-1611 1223,-1611 1223,-1611 C1248,-1604 1248,-1604 1248,-1604 C1249,-1604 1249,-1603 1249,-1603 Z 
        M1254,-1623 C1251,-1624 1249,-1624 1246,-1625 M1228,-1628 C1228,-1628 1222,-1616 1218,-1604 C1214,-1589 
        1214,-1584 1214,-1577 C1214,-1576 1216,-1574 1217,-1573 C1218,-1573 1219,-1573 1219,-1573 C1219,-1573 1220,-1573 
        1221,-1572 C1222,-1571 1223,-1571 1223,-1571 C1224,-1570 1224,-1570 1225,-1570 C1227,-1569 1227,-1569 1228,-1569 
        C1228,-1569 1229,-1569 1230,-1570 C1231,-1570 1232,-1569 1233,-1569 C1233,-1569 1234,-1569 1234,-1569 
        C1236,-1568 1238,-1569 1239,-1570 C1243,-1576 1245,-1580 1249,-1595 C1252,-1608 1253,-1621 1253,-1621 
        M1224,-1622 C1229,-1622 1234,-1620 1239,-1619 C1244,-1618 1249,-1616 1253,-1614" transform="matrix(0.33333, 0, 0, 0.33333, 0, 0)"
        stroke="none"/>
    <path d="M1235,-1577 C1234,-1573 1230,-1571 1226,-1572 C1222,-1573 1220,-1577 1221,-1581 C1222,-1585 1226,-1587 
        1230,-1586 C1234,-1585 1236,-1581 1235,-1577 Z M1221,-1589 C1222,-1589 1223,-1588 1224,-1588 C1224,-1588 
        1224,-1587 1224,-1587 C1223,-1587 1223,-1587 1222,-1586 C1222,-1586 1222,-1586 1221,-1586 C1220,-1587 1218,-1588 
        1218,-1589 C1217,-1589 1218,-1589 1218,-1589 C1219,-1590 1220,-1589 1221,-1589 Z M1216,-1581 C1217,-1581 
        1218,-1580 1219,-1580 C1219,-1580 1220,-1579 1219,-1579 C1219,-1578 1219,-1576 1220,-1575 C1220,-1575 1220,-1574 
        1220,-1574 C1219,-1574 1218,-1575 1217,-1575 C1217,-1575 1216,-1576 1216,-1576 C1216,-1577 1216,-1580 1216,-1581 
        C1216,-1581 1216,-1581 1216,-1581 Z" transform="matrix(0.33333, 0, 0, 0.33333, 0, 0)"/>
    <path fill="#000000" d="M1239,-1584 C1238,-1585 1237,-1585 1236,-1585 C1236,-1585 1236,-1584 1236,-1584 C1236,-1584 
        1236,-1583 1236,-1582 C1236,-1582 1237,-1582 1237,-1582 C1238,-1582 1241,-1582 1242,-1582 C1242,-1582 1242,-1583 
        1242,-1583 C1241,-1583 1240,-1584 1239,-1584 Z M1239,-1575 C1238,-1575 1237,-1575 1237,-1575 C1236,-1575 
        1235,-1575 1235,-1574 C1235,-1574 1234,-1572 1233,-1572 C1232,-1571 1232,-1571 1233,-1571 C1233,-1571 1235,-1570 
        1235,-1570 C1236,-1570 1236,-1570 1237,-1571 C1238,-1571 1239,-1573 1239,-1574 C1239,-1575 1239,-1575 1239,-1575 
        Z" transform="matrix(0.33333, 0, 0, 0.33333, 0, 0)"/>
    <path fill="#000000" d="M1238,-1617 L1240,-1626 Z" stroke-width="2.54" transform="matrix(0.33333, 0, 0, 0.33333, 0, 0)"
        stroke="none"/>
    <path fill="none" d="M1238,-1617 L1240,-1626" transform="matrix(0.33333, 0, 0, 0.33333, 0, 0)"/>
    <path fill="#000000" d="M1239,-1617 L1241,-1625 Z" stroke-width="2.54" transform="matrix(0.33333, 0, 0, 0.33333, 0, 0)"
        stroke="none"/>
    <path fill="none" d="M1239,-1617 L1241,-1625" transform="matrix(0.33333, 0, 0, 0.33333, 0, 0)"/>
    <path fill="none" d="M1255,-1592 C1256,-1595 1260,-1612 1260,-1614 C1261,-1617 1260,-1620 1258,-1620 C1259,-1621 
        1259,-1621 1259,-1621 C1258,-1622 1258,-1622 1258,-1622 C1258,-1622 1258,-1622 1258,-1622 C1258,-1622 1259,-1626 
        1259,-1628 C1260,-1633 1260,-1636 1260,-1636 C1260,-1636 1260,-1637 1259,-1637 C1256,-1638 1256,-1638 1256,-1638 
        C1256,-1638 1255,-1638 1255,-1637 C1255,-1637 1254,-1635 1252,-1630 C1251,-1628 1251,-1624 1251,-1624 
        C1251,-1624 1251,-1624 1251,-1624 C1249,-1625 1247,-1625 1245,-1626 C1241,-1627 1236,-1628 1232,-1629 
        C1232,-1629 1231,-1629 1231,-1628 C1231,-1628 1231,-1628 1231,-1628 C1230,-1628 1227,-1626 1226,-1624 
        C1225,-1622 1220,-1605 1219,-1602 C1218,-1598 1216,-1590 1215,-1585 C1215,-1581 1214,-1574 1211,-1564 
        C1209,-1558 1207,-1549 1205,-1545 C1205,-1544 1202,-1539 1206,-1538 C1211,-1536 1217,-1534 1220,-1533 
        C1223,-1533 1229,-1531 1233,-1530 C1238,-1530 1238,-1535 1238,-1536 C1239,-1540 1241,-1549 1243,-1555 
        C1245,-1565 1249,-1572 1250,-1576 C1252,-1580 1254,-1588 1255,-1592 Z" transform="matrix(0.33333, 0, 0, 0.33333, 0, 0)"/>
    <path fill="none" d="M1256,-1636 C1256,-1636 1254,-1636 1253,-1636 C1252,-1637 1251,-1637 1251,-1637" transform="matrix(0.33333, 0, 0, 0.33333, 0, 0)"/>
    <path fill="none" d="M1251,-1591 C1252,-1594 1256,-1611 1256,-1614 C1256,-1616 1255,-1619 1254,-1620 C1254,-1621 
        1254,-1621 1254,-1621 C1254,-1621 1253,-1621 1253,-1621 C1253,-1621 1253,-1621 1253,-1621 C1253,-1621 1254,-1625 
        1255,-1628 C1256,-1633 1256,-1635 1256,-1635 C1256,-1636 1255,-1637 1255,-1637 C1252,-1638 1252,-1638 1252,-1638 
        C1251,-1638 1251,-1637 1250,-1637 C1250,-1637 1249,-1634 1248,-1630 C1247,-1627 1246,-1624 1246,-1624 
        C1246,-1624 1246,-1624 1246,-1624 C1244,-1625 1243,-1625 1241,-1626 C1236,-1627 1232,-1628 1227,-1628 
        C1227,-1628 1227,-1628 1226,-1627 C1226,-1627 1226,-1627 1226,-1627 C1225,-1627 1223,-1625 1222,-1623 
        C1221,-1621 1215,-1605 1214,-1601 C1213,-1598 1212,-1589 1211,-1585 C1210,-1581 1209,-1573 1207,-1563 
        C1205,-1557 1202,-1548 1201,-1545 C1201,-1544 1198,-1539 1202,-1537 C1206,-1536 1212,-1534 1215,-1533 
        C1218,-1532 1224,-1531 1229,-1530 C1233,-1529 1233,-1535 1233,-1536 C1234,-1540 1236,-1549 1238,-1554 
        C1241,-1564 1244,-1571 1246,-1575 C1247,-1579 1250,-1588 1251,-1591 Z" transform="matrix(0.33333, 0, 0, 0.33333, 0, 0)"/>
    <path fill="none" d="M1219,-1567 C1218,-1566 1217,-1565 1215,-1565 C1213,-1566 1212,-1567 1213,-1569 C1213,-1571 
        1215,-1572 1217,-1571 C1218,-1571 1219,-1569 1219,-1567 Z" transform="matrix(0.33333, 0, 0, 0.33333, 0, 0)"/>
    <path fill="none" d="M1227,-1564 C1227,-1562 1225,-1561 1223,-1562 C1221,-1562 1220,-1564 1221,-1566 C1221,-1567 
        1223,-1568 1225,-1568 C1227,-1567 1228,-1566 1227,-1564 Z" transform="matrix(0.33333, 0, 0, 0.33333, 0, 0)"/>
    <path fill="none" d="M1236,-1563 C1236,-1561 1234,-1560 1232,-1560 C1230,-1561 1229,-1563 1230,-1564 C1230,-1566 
        1232,-1567 1234,-1567 C1235,-1566 1236,-1564 1236,-1563 Z" transform="matrix(0.33333, 0, 0, 0.33333, 0, 0)"/>
    <path fill="none" d="M1217,-1560 C1216,-1558 1215,-1557 1213,-1558 C1211,-1558 1210,-1560 1211,-1562 C1211,-1564 
        1213,-1565 1215,-1564 C1216,-1564 1217,-1562 1217,-1560 Z" transform="matrix(0.33333, 0, 0, 0.33333, 0, 0)"/>
    <path fill="none" d="M1225,-1557 C1225,-1555 1223,-1554 1221,-1554 C1219,-1555 1218,-1557 1219,-1558 C1219,-1560 
        1221,-1561 1223,-1561 C1225,-1560 1226,-1558 1225,-1557 Z" transform="matrix(0.33333, 0, 0, 0.33333, 0, 0)"/>
    <path fill="none" d="M1234,-1555 C1234,-1554 1232,-1553 1230,-1553 C1228,-1554 1227,-1555 1228,-1557 C1228,-1559 
        1230,-1560 1232,-1559 C1233,-1559 1234,-1557 1234,-1555 Z" transform="matrix(0.33333, 0, 0, 0.33333, 0, 0)"/>
    <path fill="none" d="M1215,-1553 C1214,-1551 1213,-1550 1211,-1551 C1209,-1551 1208,-1553 1209,-1555 C1209,-1556 
        1211,-1558 1213,-1557 C1214,-1557 1215,-1555 1215,-1553 Z" transform="matrix(0.33333, 0, 0, 0.33333, 0, 0)"/>
    <path fill="none" d="M1223,-1550 C1223,-1548 1221,-1547 1219,-1547 C1217,-1548 1216,-1550 1217,-1551 C1217,-1553 
        1219,-1554 1221,-1554 C1223,-1553 1224,-1551 1223,-1550 Z" transform="matrix(0.33333, 0, 0, 0.33333, 0, 0)"/>
    <path fill="none" d="M1232,-1548 C1232,-1547 1230,-1546 1228,-1546 C1226,-1546 1225,-1548 1226,-1550 C1226,-1552 
        1228,-1553 1230,-1552 C1231,-1552 1233,-1550 1232,-1548 Z" transform="matrix(0.33333, 0, 0, 0.33333, 0, 0)"/>
    <path fill="none" d="M1213,-1546 C1212,-1544 1211,-1543 1209,-1544 C1207,-1544 1206,-1546 1207,-1548 C1207,-1549 
        1209,-1550 1211,-1550 C1212,-1549 1213,-1548 1213,-1546 Z M1221,-1542 C1221,-1541 1219,-1540 1217,-1540 
        C1215,-1541 1214,-1542 1215,-1544 C1215,-1546 1217,-1547 1219,-1546 C1221,-1546 1222,-1544 1221,-1542 Z"
        transform="matrix(0.33333, 0, 0, 0.33333, 0, 0)"/>
    <path fill="none" d="M1230,-1541 C1230,-1539 1228,-1538 1226,-1539 C1224,-1539 1223,-1541 1224,-1543 C1224,-1545 
        1226,-1546 1228,-1545 C1230,-1545 1231,-1543 1230,-1541 Z" transform="matrix(0.33333, 0, 0, 0.33333, 0, 0)"/>
    <path fill="none" d="M1217,-1538 C1217,-1537 1217,-1537 1216,-1537 C1216,-1537 1216,-1538 1216,-1538 C1216,-1538 
        1216,-1538 1217,-1538 C1217,-1538 1217,-1538 1217,-1538 Z M1216,-1538 C1215,-1534 1215,-1534 1215,-1534 
        M1216,-1537 C1215,-1534 1215,-1534 1215,-1534 M1217,-1538 C1216,-1534 1216,-1534 1216,-1534 M1217,-1537 
        C1216,-1534 1216,-1534 1216,-1534 M1223,-1592 C1223,-1589 1223,-1589 1223,-1589 M1224,-1591 C1223,-1589 
        1223,-1589 1223,-1589 M1238,-1587 C1238,-1585 1238,-1585 1238,-1585 M1238,-1588 C1237,-1585 1237,-1585 
        1237,-1585" transform="matrix(0.33333, 0, 0, 0.33333, 0, 0)"/>
    <path fill="none" d="M1253,-1621 C1253,-1621 1254,-1625 1255,-1628 C1256,-1633 1256,-1635 1256,-1635 C1256,-1636 
        1255,-1637 1255,-1637 C1252,-1638 1252,-1638 1252,-1638 C1251,-1638 1251,-1637 1250,-1637 C1250,-1637 1249,-1634 
        1248,-1630 C1247,-1627 1246,-1624 1246,-1624 M1245,-1587 C1245,-1586 1244,-1586 1243,-1586 C1218,-1593 
        1218,-1593 1218,-1593 C1218,-1593 1217,-1594 1217,-1594 C1222,-1610 1222,-1610 1222,-1610 C1222,-1611 1223,-1611 
        1223,-1611 C1248,-1604 1248,-1604 1248,-1604 C1249,-1604 1249,-1603 1249,-1603 Z M1254,-1623 C1251,-1624 
        1249,-1624 1246,-1625 M1228,-1628 C1228,-1628 1222,-1616 1218,-1604 C1214,-1589 1214,-1584 1214,-1577 
        C1214,-1576 1216,-1574 1217,-1573 C1218,-1573 1219,-1573 1219,-1573 C1219,-1573 1220,-1573 1221,-1572 
        C1222,-1571 1223,-1571 1223,-1571 C1224,-1570 1224,-1570 1225,-1570 C1227,-1569 1227,-1569 1228,-1569 
        C1228,-1569 1229,-1569 1230,-1570 C1231,-1570 1232,-1569 1233,-1569 C1233,-1569 1234,-1569 1234,-1569 
        C1236,-1568 1238,-1569 1239,-1570 C1243,-1576 1245,-1580 1249,-1595 C1252,-1608 1253,-1621 1253,-1621 
        M1224,-1622 C1229,-1622 1234,-1620 1239,-1619 C1244,-1618 1249,-1616 1253,-1614" transform="matrix(0.33333, 0, 0, 0.33333, 0, 0)"/>
    <path fill="none" d="M1235,-1577 C1234,-1573 1230,-1571 1226,-1572 C1222,-1573 1220,-1577 1221,-1581 C1222,-1585 
        1226,-1587 1230,-1586 C1234,-1585 1236,-1581 1235,-1577 Z M1221,-1589 C1222,-1589 1223,-1588 1224,-1588 
        C1224,-1588 1224,-1587 1224,-1587 C1223,-1587 1223,-1587 1222,-1586 C1222,-1586 1222,-1586 1221,-1586 
        C1220,-1587 1218,-1588 1218,-1589 C1217,-1589 1218,-1589 1218,-1589 C1219,-1590 1220,-1589 1221,-1589 Z 
        M1216,-1581 C1217,-1581 1218,-1580 1219,-1580 C1219,-1580 1220,-1579 1219,-1579 C1219,-1578 1219,-1576 
        1220,-1575 C1220,-1575 1220,-1574 1220,-1574 C1219,-1574 1218,-1575 1217,-1575 C1217,-1575 1216,-1576 1216,-1576 
        C1216,-1577 1216,-1580 1216,-1581 C1216,-1581 1216,-1581 1216,-1581 Z" transform="matrix(0.33333, 0, 0, 0.33333, 0, 0)"/>
    <path fill="none" d="M1239,-1584 C1238,-1585 1237,-1585 1236,-1585 C1236,-1585 1236,-1584 1236,-1584 C1236,-1584 
        1236,-1583 1236,-1582 C1236,-1582 1237,-1582 1237,-1582 C1238,-1582 1241,-1582 1242,-1582 C1242,-1582 1242,-1583 
        1242,-1583 C1241,-1583 1240,-1584 1239,-1584 Z M1239,-1575 C1238,-1575 1237,-1575 1237,-1575 C1236,-1575 
        1235,-1575 1235,-1574 C1235,-1574 1234,-1572 1233,-1572 C1232,-1571 1232,-1571 1233,-1571 C1233,-1571 1235,-1570 
        1235,-1570 C1236,-1570 1236,-1570 1237,-1571 C1238,-1571 1239,-1573 1239,-1574 C1239,-1575 1239,-1575 1239,-1575 
        Z" transform="matrix(0.33333, 0, 0, 0.33333, 0, 0)"/>
    <path fill="none" d="M1238,-1617 L1240,-1626" transform="matrix(0.33333, 0, 0, 0.33333, 0, 0)"/>
    <path fill="none" d="M1239,-1617 L1241,-1625" transform="matrix(0.33333, 0, 0, 0.33333, 0, 0)"/>
    <path stroke-width="2.54" d="M1255,-1592 C1256,-1595 1260,-1612 1260,-1614 C1261,-1617 1260,-1620 1258,-1620 
        C1259,-1621 1259,-1621 1259,-1621 C1258,-1622 1258,-1622 1258,-1622 C1258,-1622 1258,-1622 1258,-1622 
        C1258,-1622 1259,-1626 1259,-1628 C1260,-1633 1260,-1636 1260,-1636 C1260,-1636 1260,-1637 1259,-1637 
        C1256,-1638 1256,-1638 1256,-1638 C1256,-1638 1255,-1638 1255,-1637 C1255,-1637 1254,-1635 1252,-1630 
        C1251,-1628 1251,-1624 1251,-1624 C1251,-1624 1251,-1624 1251,-1624 C1249,-1625 1247,-1625 1245,-1626 
        C1241,-1627 1236,-1628 1232,-1629 C1232,-1629 1231,-1629 1231,-1628 C1231,-1628 1231,-1628 1231,-1628 
        C1230,-1628 1227,-1626 1226,-1624 C1225,-1622 1220,-1605 1219,-1602 C1218,-1598 1216,-1590 1215,-1585 
        C1215,-1581 1214,-1574 1211,-1564 C1209,-1558 1207,-1549 1205,-1545 C1205,-1544 1202,-1539 1206,-1538 
        C1211,-1536 1217,-1534 1220,-1533 C1223,-1533 1229,-1531 1233,-1530 C1238,-1530 1238,-1535 1238,-1536 
        C1239,-1540 1241,-1549 1243,-1555 C1245,-1565 1249,-1572 1250,-1576 C1252,-1580 1254,-1588 1255,-1592 Z"
        transform="matrix(0.33333, 0, 0, 0.33333, 0, 0)" stroke="none"/>
    <path stroke-width="2.54" d="M1256,-1636 C1256,-1636 1254,-1636 1253,-1636 C1252,-1637 1251,-1637 1251,-1637"
        transform="matrix(0.33333, 0, 0, 0.33333, 0, 0)" stroke="none"/>
    <path stroke-width="2.54" d="M1251,-1591 C1252,-1594 1256,-1611 1256,-1614 C1256,-1616 1255,-1619 1254,-1620 
        C1254,-1621 1254,-1621 1254,-1621 C1254,-1621 1253,-1621 1253,-1621 C1253,-1621 1253,-1621 1253,-1621 
        C1253,-1621 1254,-1625 1255,-1628 C1256,-1633 1256,-1635 1256,-1635 C1256,-1636 1255,-1637 1255,-1637 
        C1252,-1638 1252,-1638 1252,-1638 C1251,-1638 1251,-1637 1250,-1637 C1250,-1637 1249,-1634 1248,-1630 
        C1247,-1627 1246,-1624 1246,-1624 C1246,-1624 1246,-1624 1246,-1624 C1244,-1625 1243,-1625 1241,-1626 
        C1236,-1627 1232,-1628 1227,-1628 C1227,-1628 1227,-1628 1226,-1627 C1226,-1627 1226,-1627 1226,-1627 
        C1225,-1627 1223,-1625 1222,-1623 C1221,-1621 1215,-1605 1214,-1601 C1213,-1598 1212,-1589 1211,-1585 
        C1210,-1581 1209,-1573 1207,-1563 C1205,-1557 1202,-1548 1201,-1545 C1201,-1544 1198,-1539 1202,-1537 
        C1206,-1536 1212,-1534 1215,-1533 C1218,-1532 1224,-1531 1229,-1530 C1233,-1529 1233,-1535 1233,-1536 
        C1234,-1540 1236,-1549 1238,-1554 C1241,-1564 1244,-1571 1246,-1575 C1247,-1579 1250,-1588 1251,-1591 Z"
        transform="matrix(0.33333, 0, 0, 0.33333, 0, 0)" stroke="none"/>
    <path stroke-width="2.54" d="M1219,-1567 C1218,-1566 1217,-1565 1215,-1565 C1213,-1566 1212,-1567 1213,-1569 
        C1213,-1571 1215,-1572 1217,-1571 C1218,-1571 1219,-1569 1219,-1567 Z" transform="matrix(0.33333, 0, 0, 0.33333, 0, 0)"
        stroke="none"/>
    <path stroke-width="2.54" d="M1227,-1564 C1227,-1562 1225,-1561 1223,-1562 C1221,-1562 1220,-1564 1221,-1566 
        C1221,-1567 1223,-1568 1225,-1568 C1227,-1567 1228,-1566 1227,-1564 Z" transform="matrix(0.33333, 0, 0, 0.33333, 0, 0)"
        stroke="none"/>
    <path stroke-width="2.54" d="M1236,-1563 C1236,-1561 1234,-1560 1232,-1560 C1230,-1561 1229,-1563 1230,-1564 
        C1230,-1566 1232,-1567 1234,-1567 C1235,-1566 1236,-1564 1236,-1563 Z" transform="matrix(0.33333, 0, 0, 0.33333, 0, 0)"
        stroke="none"/>
    <path stroke-width="2.54" d="M1217,-1560 C1216,-1558 1215,-1557 1213,-1558 C1211,-1558 1210,-1560 1211,-1562 
        C1211,-1564 1213,-1565 1215,-1564 C1216,-1564 1217,-1562 1217,-1560 Z" transform="matrix(0.33333, 0, 0, 0.33333, 0, 0)"
        stroke="none"/>
    <path stroke-width="2.54" d="M1225,-1557 C1225,-1555 1223,-1554 1221,-1554 C1219,-1555 1218,-1557 1219,-1558 
        C1219,-1560 1221,-1561 1223,-1561 C1225,-1560 1226,-1558 1225,-1557 Z" transform="matrix(0.33333, 0, 0, 0.33333, 0, 0)"
        stroke="none"/>
    <path stroke-width="2.54" d="M1234,-1555 C1234,-1554 1232,-1553 1230,-1553 C1228,-1554 1227,-1555 1228,-1557 
        C1228,-1559 1230,-1560 1232,-1559 C1233,-1559 1234,-1557 1234,-1555 Z" transform="matrix(0.33333, 0, 0, 0.33333, 0, 0)"
        stroke="none"/>
    <path stroke-width="2.54" d="M1215,-1553 C1214,-1551 1213,-1550 1211,-1551 C1209,-1551 1208,-1553 1209,-1555 
        C1209,-1556 1211,-1558 1213,-1557 C1214,-1557 1215,-1555 1215,-1553 Z" transform="matrix(0.33333, 0, 0, 0.33333, 0, 0)"
        stroke="none"/>
    <path stroke-width="2.54" d="M1223,-1550 C1223,-1548 1221,-1547 1219,-1547 C1217,-1548 1216,-1550 1217,-1551 
        C1217,-1553 1219,-1554 1221,-1554 C1223,-1553 1224,-1551 1223,-1550 Z" transform="matrix(0.33333, 0, 0, 0.33333, 0, 0)"
        stroke="none"/>
    <path stroke-width="2.54" d="M1232,-1548 C1232,-1547 1230,-1546 1228,-1546 C1226,-1546 1225,-1548 1226,-1550 
        C1226,-1552 1228,-1553 1230,-1552 C1231,-1552 1233,-1550 1232,-1548 Z" transform="matrix(0.33333, 0, 0, 0.33333, 0, 0)"
        stroke="none"/>
    <path stroke-width="2.54" d="M1213,-1546 C1212,-1544 1211,-1543 1209,-1544 C1207,-1544 1206,-1546 1207,-1548 
        C1207,-1549 1209,-1550 1211,-1550 C1212,-1549 1213,-1548 1213,-1546 Z M1221,-1542 C1221,-1541 1219,-1540 
        1217,-1540 C1215,-1541 1214,-1542 1215,-1544 C1215,-1546 1217,-1547 1219,-1546 C1221,-1546 1222,-1544 1221,-1542 
        Z" transform="matrix(0.33333, 0, 0, 0.33333, 0, 0)" stroke="none"/>
    <path stroke-width="2.54" d="M1230,-1541 C1230,-1539 1228,-1538 1226,-1539 C1224,-1539 1223,-1541 1224,-1543 
        C1224,-1545 1226,-1546 1228,-1545 C1230,-1545 1231,-1543 1230,-1541 Z" transform="matrix(0.33333, 0, 0, 0.33333, 0, 0)"
        stroke="none"/>
    <path stroke-width="2.54" d="M1217,-1538 C1217,-1537 1217,-1537 1216,-1537 C1216,-1537 1216,-1538 1216,-1538 
        C1216,-1538 1216,-1538 1217,-1538 C1217,-1538 1217,-1538 1217,-1538 Z M1216,-1538 C1215,-1534 1215,-1534 
        1215,-1534 M1216,-1537 C1215,-1534 1215,-1534 1215,-1534 M1217,-1538 C1216,-1534 1216,-1534 1216,-1534 
        M1217,-1537 C1216,-1534 1216,-1534 1216,-1534 M1223,-1592 C1223,-1589 1223,-1589 1223,-1589 M1224,-1591 
        C1223,-1589 1223,-1589 1223,-1589 M1238,-1587 C1238,-1585 1238,-1585 1238,-1585 M1238,-1588 C1237,-1585 
        1237,-1585 1237,-1585" transform="matrix(0.33333, 0, 0, 0.33333, 0, 0)" stroke="none"/>
    <path stroke-width="2.54" d="M1253,-1621 C1253,-1621 1254,-1625 1255,-1628 C1256,-1633 1256,-1635 1256,-1635 
        C1256,-1636 1255,-1637 1255,-1637 C1252,-1638 1252,-1638 1252,-1638 C1251,-1638 1251,-1637 1250,-1637 
        C1250,-1637 1249,-1634 1248,-1630 C1247,-1627 1246,-1624 1246,-1624 M1245,-1587 C1245,-1586 1244,-1586 
        1243,-1586 C1218,-1593 1218,-1593 1218,-1593 C1218,-1593 1217,-1594 1217,-1594 C1222,-1610 1222,-1610 1222,-1610 
        C1222,-1611 1223,-1611 1223,-1611 C1248,-1604 1248,-1604 1248,-1604 C1249,-1604 1249,-1603 1249,-1603 Z 
        M1254,-1623 C1251,-1624 1249,-1624 1246,-1625 M1228,-1628 C1228,-1628 1222,-1616 1218,-1604 C1214,-1589 
        1214,-1584 1214,-1577 C1214,-1576 1216,-1574 1217,-1573 C1218,-1573 1219,-1573 1219,-1573 C1219,-1573 1220,-1573 
        1221,-1572 C1222,-1571 1223,-1571 1223,-1571 C1224,-1570 1224,-1570 1225,-1570 C1227,-1569 1227,-1569 1228,-1569 
        C1228,-1569 1229,-1569 1230,-1570 C1231,-1570 1232,-1569 1233,-1569 C1233,-1569 1234,-1569 1234,-1569 
        C1236,-1568 1238,-1569 1239,-1570 C1243,-1576 1245,-1580 1249,-1595 C1252,-1608 1253,-1621 1253,-1621 
        M1224,-1622 C1229,-1622 1234,-1620 1239,-1619 C1244,-1618 1249,-1616 1253,-1614" transform="matrix(0.33333, 0, 0, 0.33333, 0, 0)"
        stroke="none"/>
    <path stroke-width="2.54" d="M1235,-1577 C1234,-1573 1230,-1571 1226,-1572 C1222,-1573 1220,-1577 1221,-1581 
        C1222,-1585 1226,-1587 1230,-1586 C1234,-1585 1236,-1581 1235,-1577 Z M1221,-1589 C1222,-1589 1223,-1588 
        1224,-1588 C1224,-1588 1224,-1587 1224,-1587 C1223,-1587 1223,-1587 1222,-1586 C1222,-1586 1222,-1586 1221,-1586 
        C1220,-1587 1218,-1588 1218,-1589 C1217,-1589 1218,-1589 1218,-1589 C1219,-1590 1220,-1589 1221,-1589 Z 
        M1216,-1581 C1217,-1581 1218,-1580 1219,-1580 C1219,-1580 1220,-1579 1219,-1579 C1219,-1578 1219,-1576 
        1220,-1575 C1220,-1575 1220,-1574 1220,-1574 C1219,-1574 1218,-1575 1217,-1575 C1217,-1575 1216,-1576 1216,-1576 
        C1216,-1577 1216,-1580 1216,-1581 C1216,-1581 1216,-1581 1216,-1581 Z" transform="matrix(0.33333, 0, 0, 0.33333, 0, 0)"
        stroke="none"/>
    <path stroke-width="2.54" d="M1239,-1584 C1238,-1585 1237,-1585 1236,-1585 C1236,-1585 1236,-1584 1236,-1584 
        C1236,-1584 1236,-1583 1236,-1582 C1236,-1582 1237,-1582 1237,-1582 C1238,-1582 1241,-1582 1242,-1582 
        C1242,-1582 1242,-1583 1242,-1583 C1241,-1583 1240,-1584 1239,-1584 Z M1239,-1575 C1238,-1575 1237,-1575 
        1237,-1575 C1236,-1575 1235,-1575 1235,-1574 C1235,-1574 1234,-1572 1233,-1572 C1232,-1571 1232,-1571 1233,-1571 
        C1233,-1571 1235,-1570 1235,-1570 C1236,-1570 1236,-1570 1237,-1571 C1238,-1571 1239,-1573 1239,-1574 
        C1239,-1575 1239,-1575 1239,-1575 Z" transform="matrix(0.33333, 0, 0, 0.33333, 0, 0)" stroke="none"/>
    <path d="M1238,-1617 L1240,-1626 Z" stroke-width="2.54" transform="matrix(0.33333, 0, 0, 0.33333, 0, 0)" stroke="none"/>
    <path fill="none" d="M1238,-1617 L1240,-1626" stroke-width="2.54" transform="matrix(0.33333, 0, 0, 0.33333, 0, 0)"
        stroke="none"/>
    <path d="M1239,-1617 L1241,-1625 Z" stroke-width="2.54" transform="matrix(0.33333, 0, 0, 0.33333, 0, 0)" stroke="none"/>
    <path fill="none" d="M1239,-1617 L1241,-1625" stroke-width="2.54" transform="matrix(0.33333, 0, 0, 0.33333, 0, 0)"
        stroke="none"/>
    <path stroke-width="2.54" d="M1255,-1592 C1256,-1595 1260,-1612 1260,-1614 C1261,-1617 1260,-1620 1258,-1620 
        C1259,-1621 1259,-1621 1259,-1621 C1258,-1622 1258,-1622 1258,-1622 C1258,-1622 1258,-1622 1258,-1622 
        C1258,-1622 1259,-1626 1259,-1628 C1260,-1633 1260,-1636 1260,-1636 C1260,-1636 1260,-1637 1259,-1637 
        C1256,-1638 1256,-1638 1256,-1638 C1256,-1638 1255,-1638 1255,-1637 C1255,-1637 1254,-1635 1252,-1630 
        C1251,-1628 1251,-1624 1251,-1624 C1251,-1624 1251,-1624 1251,-1624 C1249,-1625 1247,-1625 1245,-1626 
        C1241,-1627 1236,-1628 1232,-1629 C1232,-1629 1231,-1629 1231,-1628 C1231,-1628 1231,-1628 1231,-1628 
        C1230,-1628 1227,-1626 1226,-1624 C1225,-1622 1220,-1605 1219,-1602 C1218,-1598 1216,-1590 1215,-1585 
        C1215,-1581 1214,-1574 1211,-1564 C1209,-1558 1207,-1549 1205,-1545 C1205,-1544 1202,-1539 1206,-1538 
        C1211,-1536 1217,-1534 1220,-1533 C1223,-1533 1229,-1531 1233,-1530 C1238,-1530 1238,-1535 1238,-1536 
        C1239,-1540 1241,-1549 1243,-1555 C1245,-1565 1249,-1572 1250,-1576 C1252,-1580 1254,-1588 1255,-1592 Z"
        transform="matrix(0.33333, 0, 0, 0.33333, 0, 0)" stroke="none"/>
    <path fill="#000000" d="M1256,-1636 C1256,-1636 1254,-1636 1253,-1636 C1252,-1637 1251,-1637 1251,-1637" transform="matrix(0.33333, 0, 0, 0.33333, 0, 0)"/>
    <path fill="#000000" d="M1256,-1636 C1256,-1636 1254,-1636 1253,-1636 C1252,-1637 1251,-1637 1251,-1637" transform="matrix(0.33333, 0, 0, 0.33333, 0, 0)"/>
    <path d="M1251,-1591 C1252,-1594 1256,-1611 1256,-1614 C1256,-1616 1255,-1619 1254,-1620 C1254,-1621 1254,-1621 
        1254,-1621 C1254,-1621 1253,-1621 1253,-1621 C1253,-1621 1253,-1621 1253,-1621 C1253,-1621 1254,-1625 1255,-1628 
        C1256,-1633 1256,-1635 1256,-1635 C1256,-1636 1255,-1637 1255,-1637 C1252,-1638 1252,-1638 1252,-1638 
        C1251,-1638 1251,-1637 1250,-1637 C1250,-1637 1249,-1634 1248,-1630 C1247,-1627 1246,-1624 1246,-1624 
        C1246,-1624 1246,-1624 1246,-1624 C1244,-1625 1243,-1625 1241,-1626 C1236,-1627 1232,-1628 1227,-1628 
        C1227,-1628 1227,-1628 1226,-1627 C1226,-1627 1226,-1627 1226,-1627 C1225,-1627 1223,-1625 1222,-1623 
        C1221,-1621 1215,-1605 1214,-1601 C1213,-1598 1212,-1589 1211,-1585 C1210,-1581 1209,-1573 1207,-1563 
        C1205,-1557 1202,-1548 1201,-1545 C1201,-1544 1198,-1539 1202,-1537 C1206,-1536 1212,-1534 1215,-1533 
        C1218,-1532 1224,-1531 1229,-1530 C1233,-1529 1233,-1535 1233,-1536 C1234,-1540 1236,-1549 1238,-1554 
        C1241,-1564 1244,-1571 1246,-1575 C1247,-1579 1250,-1588 1251,-1591 Z" transform="matrix(0.33333, 0, 0, 0.33333, 0, 0)"/>
    <path fill="#000000" d="M1219,-1567 C1218,-1566 1217,-1565 1215,-1565 C1213,-1566 1212,-1567 1213,-1569 C1213,-1571 
        1215,-1572 1217,-1571 C1218,-1571 1219,-1569 1219,-1567 Z" transform="matrix(0.33333, 0, 0, 0.33333, 0, 0)"/>
    <path fill="#000000" d="M1227,-1564 C1227,-1562 1225,-1561 1223,-1562 C1221,-1562 1220,-1564 1221,-1566 C1221,-1567 
        1223,-1568 1225,-1568 C1227,-1567 1228,-1566 1227,-1564 Z" transform="matrix(0.33333, 0, 0, 0.33333, 0, 0)"/>
    <path fill="#000000" d="M1236,-1563 C1236,-1561 1234,-1560 1232,-1560 C1230,-1561 1229,-1563 1230,-1564 C1230,-1566 
        1232,-1567 1234,-1567 C1235,-1566 1236,-1564 1236,-1563 Z" transform="matrix(0.33333, 0, 0, 0.33333, 0, 0)"/>
    <path fill="#000000" d="M1217,-1560 C1216,-1558 1215,-1557 1213,-1558 C1211,-1558 1210,-1560 1211,-1562 C1211,-1564 
        1213,-1565 1215,-1564 C1216,-1564 1217,-1562 1217,-1560 Z" transform="matrix(0.33333, 0, 0, 0.33333, 0, 0)"/>
    <path fill="#000000" d="M1225,-1557 C1225,-1555 1223,-1554 1221,-1554 C1219,-1555 1218,-1557 1219,-1558 C1219,-1560 
        1221,-1561 1223,-1561 C1225,-1560 1226,-1558 1225,-1557 Z" transform="matrix(0.33333, 0, 0, 0.33333, 0, 0)"/>
    <path fill="#000000" d="M1234,-1555 C1234,-1554 1232,-1553 1230,-1553 C1228,-1554 1227,-1555 1228,-1557 C1228,-1559 
        1230,-1560 1232,-1559 C1233,-1559 1234,-1557 1234,-1555 Z" transform="matrix(0.33333, 0, 0, 0.33333, 0, 0)"/>
    <path fill="#000000" d="M1215,-1553 C1214,-1551 1213,-1550 1211,-1551 C1209,-1551 1208,-1553 1209,-1555 C1209,-1556 
        1211,-1558 1213,-1557 C1214,-1557 1215,-1555 1215,-1553 Z" transform="matrix(0.33333, 0, 0, 0.33333, 0, 0)"/>
    <path fill="#000000" d="M1223,-1550 C1223,-1548 1221,-1547 1219,-1547 C1217,-1548 1216,-1550 1217,-1551 C1217,-1553 
        1219,-1554 1221,-1554 C1223,-1553 1224,-1551 1223,-1550 Z" transform="matrix(0.33333, 0, 0, 0.33333, 0, 0)"/>
    <path fill="#000000" d="M1232,-1548 C1232,-1547 1230,-1546 1228,-1546 C1226,-1546 1225,-1548 1226,-1550 C1226,-1552 
        1228,-1553 1230,-1552 C1231,-1552 1233,-1550 1232,-1548 Z" transform="matrix(0.33333, 0, 0, 0.33333, 0, 0)"/>
    <path fill="#000000" d="M1213,-1546 C1212,-1544 1211,-1543 1209,-1544 C1207,-1544 1206,-1546 1207,-1548 C1207,-1549 
        1209,-1550 1211,-1550 C1212,-1549 1213,-1548 1213,-1546 Z M1221,-1542 C1221,-1541 1219,-1540 1217,-1540 
        C1215,-1541 1214,-1542 1215,-1544 C1215,-1546 1217,-1547 1219,-1546 C1221,-1546 1222,-1544 1221,-1542 Z"
        transform="matrix(0.33333, 0, 0, 0.33333, 0, 0)"/>
    <path fill="#000000" d="M1230,-1541 C1230,-1539 1228,-1538 1226,-1539 C1224,-1539 1223,-1541 1224,-1543 C1224,-1545 
        1226,-1546 1228,-1545 C1230,-1545 1231,-1543 1230,-1541 Z" transform="matrix(0.33333, 0, 0, 0.33333, 0, 0)"/>
    <path fill="#000000" d="M1217,-1538 C1217,-1537 1217,-1537 1216,-1537 C1216,-1537 1216,-1538 1216,-1538 C1216,-1538 
        1216,-1538 1217,-1538 C1217,-1538 1217,-1538 1217,-1538 Z M1216,-1538 C1215,-1534 1215,-1534 1215,-1534 
        M1216,-1537 C1215,-1534 1215,-1534 1215,-1534 M1217,-1538 C1216,-1534 1216,-1534 1216,-1534 M1217,-1537 
        C1216,-1534 1216,-1534 1216,-1534 M1223,-1592 C1223,-1589 1223,-1589 1223,-1589 M1224,-1591 C1223,-1589 
        1223,-1589 1223,-1589 M1238,-1587 C1238,-1585 1238,-1585 1238,-1585 M1238,-1588 C1237,-1585 1237,-1585 
        1237,-1585" transform="matrix(0.33333, 0, 0, 0.33333, 0, 0)"/>
    <path fill="#000000" d="M1217,-1538 C1217,-1537 1217,-1537 1216,-1537 C1216,-1537 1216,-1538 1216,-1538 C1216,-1538 
        1216,-1538 1217,-1538 C1217,-1538 1217,-1538 1217,-1538 Z M1216,-1538 C1215,-1534 1215,-1534 1215,-1534 
        M1216,-1537 C1215,-1534 1215,-1534 1215,-1534 M1217,-1538 C1216,-1534 1216,-1534 1216,-1534 M1217,-1537 
        C1216,-1534 1216,-1534 1216,-1534 M1223,-1592 C1223,-1589 1223,-1589 1223,-1589 M1224,-1591 C1223,-1589 
        1223,-1589 1223,-1589 M1238,-1587 C1238,-1585 1238,-1585 1238,-1585 M1238,-1588 C1237,-1585 1237,-1585 
        1237,-1585" transform="matrix(0.33333, 0, 0, 0.33333, 0, 0)"/>
    <path stroke-width="2.54" d="M1253,-1621 C1253,-1621 1254,-1625 1255,-1628 C1256,-1633 1256,-1635 1256,-1635 
        C1256,-1636 1255,-1637 1255,-1637 C1252,-1638 1252,-1638 1252,-1638 C1251,-1638 1251,-1637 1250,-1637 
        C1250,-1637 1249,-1634 1248,-1630 C1247,-1627 1246,-1624 1246,-1624 M1245,-1587 C1245,-1586 1244,-1586 
        1243,-1586 C1218,-1593 1218,-1593 1218,-1593 C1218,-1593 1217,-1594 1217,-1594 C1222,-1610 1222,-1610 1222,-1610 
        C1222,-1611 1223,-1611 1223,-1611 C1248,-1604 1248,-1604 1248,-1604 C1249,-1604 1249,-1603 1249,-1603 Z 
        M1254,-1623 C1251,-1624 1249,-1624 1246,-1625 M1228,-1628 C1228,-1628 1222,-1616 1218,-1604 C1214,-1589 
        1214,-1584 1214,-1577 C1214,-1576 1216,-1574 1217,-1573 C1218,-1573 1219,-1573 1219,-1573 C1219,-1573 1220,-1573 
        1221,-1572 C1222,-1571 1223,-1571 1223,-1571 C1224,-1570 1224,-1570 1225,-1570 C1227,-1569 1227,-1569 1228,-1569 
        C1228,-1569 1229,-1569 1230,-1570 C1231,-1570 1232,-1569 1233,-1569 C1233,-1569 1234,-1569 1234,-1569 
        C1236,-1568 1238,-1569 1239,-1570 C1243,-1576 1245,-1580 1249,-1595 C1252,-1608 1253,-1621 1253,-1621 
        M1224,-1622 C1229,-1622 1234,-1620 1239,-1619 C1244,-1618 1249,-1616 1253,-1614" transform="matrix(0.33333, 0, 0, 0.33333, 0, 0)"
        stroke="none"/>
    <path d="M1235,-1577 C1234,-1573 1230,-1571 1226,-1572 C1222,-1573 1220,-1577 1221,-1581 C1222,-1585 1226,-1587 
        1230,-1586 C1234,-1585 1236,-1581 1235,-1577 Z M1221,-1589 C1222,-1589 1223,-1588 1224,-1588 C1224,-1588 
        1224,-1587 1224,-1587 C1223,-1587 1223,-1587 1222,-1586 C1222,-1586 1222,-1586 1221,-1586 C1220,-1587 1218,-1588 
        1218,-1589 C1217,-1589 1218,-1589 1218,-1589 C1219,-1590 1220,-1589 1221,-1589 Z M1216,-1581 C1217,-1581 
        1218,-1580 1219,-1580 C1219,-1580 1220,-1579 1219,-1579 C1219,-1578 1219,-1576 1220,-1575 C1220,-1575 1220,-1574 
        1220,-1574 C1219,-1574 1218,-1575 1217,-1575 C1217,-1575 1216,-1576 1216,-1576 C1216,-1577 1216,-1580 1216,-1581 
        C1216,-1581 1216,-1581 1216,-1581 Z" transform="matrix(0.33333, 0, 0, 0.33333, 0, 0)"/>
    <path fill="#000000" d="M1239,-1584 C1238,-1585 1237,-1585 1236,-1585 C1236,-1585 1236,-1584 1236,-1584 C1236,-1584 
        1236,-1583 1236,-1582 C1236,-1582 1237,-1582 1237,-1582 C1238,-1582 1241,-1582 1242,-1582 C1242,-1582 1242,-1583 
        1242,-1583 C1241,-1583 1240,-1584 1239,-1584 Z M1239,-1575 C1238,-1575 1237,-1575 1237,-1575 C1236,-1575 
        1235,-1575 1235,-1574 C1235,-1574 1234,-1572 1233,-1572 C1232,-1571 1232,-1571 1233,-1571 C1233,-1571 1235,-1570 
        1235,-1570 C1236,-1570 1236,-1570 1237,-1571 C1238,-1571 1239,-1573 1239,-1574 C1239,-1575 1239,-1575 1239,-1575 
        Z" transform="matrix(0.33333, 0, 0, 0.33333, 0, 0)"/>
    <path fill="#000000" d="M1238,-1617 L1240,-1626 Z" stroke-width="2.54" transform="matrix(0.33333, 0, 0, 0.33333, 0, 0)"
        stroke="none"/>
    <path fill="none" d="M1238,-1617 L1240,-1626" transform="matrix(0.33333, 0, 0, 0.33333, 0, 0)"/>
    <path fill="#000000" d="M1239,-1617 L1241,-1625 Z" stroke-width="2.54" transform="matrix(0.33333, 0, 0, 0.33333, 0, 0)"
        stroke="none"/>
    <path fill="none" d="M1239,-1617 L1241,-1625" transform="matrix(0.33333, 0, 0, 0.33333, 0, 0)"/>
    <path fill="none" d="M1255,-1592 C1256,-1595 1260,-1612 1260,-1614 C1261,-1617 1260,-1620 1258,-1620 C1259,-1621 
        1259,-1621 1259,-1621 C1258,-1622 1258,-1622 1258,-1622 C1258,-1622 1258,-1622 1258,-1622 C1258,-1622 1259,-1626 
        1259,-1628 C1260,-1633 1260,-1636 1260,-1636 C1260,-1636 1260,-1637 1259,-1637 C1256,-1638 1256,-1638 1256,-1638 
        C1256,-1638 1255,-1638 1255,-1637 C1255,-1637 1254,-1635 1252,-1630 C1251,-1628 1251,-1624 1251,-1624 
        C1251,-1624 1251,-1624 1251,-1624 C1249,-1625 1247,-1625 1245,-1626 C1241,-1627 1236,-1628 1232,-1629 
        C1232,-1629 1231,-1629 1231,-1628 C1231,-1628 1231,-1628 1231,-1628 C1230,-1628 1227,-1626 1226,-1624 
        C1225,-1622 1220,-1605 1219,-1602 C1218,-1598 1216,-1590 1215,-1585 C1215,-1581 1214,-1574 1211,-1564 
        C1209,-1558 1207,-1549 1205,-1545 C1205,-1544 1202,-1539 1206,-1538 C1211,-1536 1217,-1534 1220,-1533 
        C1223,-1533 1229,-1531 1233,-1530 C1238,-1530 1238,-1535 1238,-1536 C1239,-1540 1241,-1549 1243,-1555 
        C1245,-1565 1249,-1572 1250,-1576 C1252,-1580 1254,-1588 1255,-1592 Z" transform="matrix(0.33333, 0, 0, 0.33333, 0, 0)"/>
    <path fill="none" d="M1256,-1636 C1256,-1636 1254,-1636 1253,-1636 C1252,-1637 1251,-1637 1251,-1637" transform="matrix(0.33333, 0, 0, 0.33333, 0, 0)"/>
    <path fill="none" d="M1251,-1591 C1252,-1594 1256,-1611 1256,-1614 C1256,-1616 1255,-1619 1254,-1620 C1254,-1621 
        1254,-1621 1254,-1621 C1254,-1621 1253,-1621 1253,-1621 C1253,-1621 1253,-1621 1253,-1621 C1253,-1621 1254,-1625 
        1255,-1628 C1256,-1633 1256,-1635 1256,-1635 C1256,-1636 1255,-1637 1255,-1637 C1252,-1638 1252,-1638 1252,-1638 
        C1251,-1638 1251,-1637 1250,-1637 C1250,-1637 1249,-1634 1248,-1630 C1247,-1627 1246,-1624 1246,-1624 
        C1246,-1624 1246,-1624 1246,-1624 C1244,-1625 1243,-1625 1241,-1626 C1236,-1627 1232,-1628 1227,-1628 
        C1227,-1628 1227,-1628 1226,-1627 C1226,-1627 1226,-1627 1226,-1627 C1225,-1627 1223,-1625 1222,-1623 
        C1221,-1621 1215,-1605 1214,-1601 C1213,-1598 1212,-1589 1211,-1585 C1210,-1581 1209,-1573 1207,-1563 
        C1205,-1557 1202,-1548 1201,-1545 C1201,-1544 1198,-1539 1202,-1537 C1206,-1536 1212,-1534 1215,-1533 
        C1218,-1532 1224,-1531 1229,-1530 C1233,-1529 1233,-1535 1233,-1536 C1234,-1540 1236,-1549 1238,-1554 
        C1241,-1564 1244,-1571 1246,-1575 C1247,-1579 1250,-1588 1251,-1591 Z" transform="matrix(0.33333, 0, 0, 0.33333, 0, 0)"/>
    <path fill="none" d="M1219,-1567 C1218,-1566 1217,-1565 1215,-1565 C1213,-1566 1212,-1567 1213,-1569 C1213,-1571 
        1215,-1572 1217,-1571 C1218,-1571 1219,-1569 1219,-1567 Z" transform="matrix(0.33333, 0, 0, 0.33333, 0, 0)"/>
    <path fill="none" d="M1227,-1564 C1227,-1562 1225,-1561 1223,-1562 C1221,-1562 1220,-1564 1221,-1566 C1221,-1567 
        1223,-1568 1225,-1568 C1227,-1567 1228,-1566 1227,-1564 Z" transform="matrix(0.33333, 0, 0, 0.33333, 0, 0)"/>
    <path fill="none" d="M1236,-1563 C1236,-1561 1234,-1560 1232,-1560 C1230,-1561 1229,-1563 1230,-1564 C1230,-1566 
        1232,-1567 1234,-1567 C1235,-1566 1236,-1564 1236,-1563 Z" transform="matrix(0.33333, 0, 0, 0.33333, 0, 0)"/>
    <path fill="none" d="M1217,-1560 C1216,-1558 1215,-1557 1213,-1558 C1211,-1558 1210,-1560 1211,-1562 C1211,-1564 
        1213,-1565 1215,-1564 C1216,-1564 1217,-1562 1217,-1560 Z" transform="matrix(0.33333, 0, 0, 0.33333, 0, 0)"/>
    <path fill="none" d="M1225,-1557 C1225,-1555 1223,-1554 1221,-1554 C1219,-1555 1218,-1557 1219,-1558 C1219,-1560 
        1221,-1561 1223,-1561 C1225,-1560 1226,-1558 1225,-1557 Z" transform="matrix(0.33333, 0, 0, 0.33333, 0, 0)"/>
    <path fill="none" d="M1234,-1555 C1234,-1554 1232,-1553 1230,-1553 C1228,-1554 1227,-1555 1228,-1557 C1228,-1559 
        1230,-1560 1232,-1559 C1233,-1559 1234,-1557 1234,-1555 Z" transform="matrix(0.33333, 0, 0, 0.33333, 0, 0)"/>
    <path fill="none" d="M1215,-1553 C1214,-1551 1213,-1550 1211,-1551 C1209,-1551 1208,-1553 1209,-1555 C1209,-1556 
        1211,-1558 1213,-1557 C1214,-1557 1215,-1555 1215,-1553 Z" transform="matrix(0.33333, 0, 0, 0.33333, 0, 0)"/>
    <path fill="none" d="M1223,-1550 C1223,-1548 1221,-1547 1219,-1547 C1217,-1548 1216,-1550 1217,-1551 C1217,-1553 
        1219,-1554 1221,-1554 C1223,-1553 1224,-1551 1223,-1550 Z" transform="matrix(0.33333, 0, 0, 0.33333, 0, 0)"/>
    <path fill="none" d="M1232,-1548 C1232,-1547 1230,-1546 1228,-1546 C1226,-1546 1225,-1548 1226,-1550 C1226,-1552 
        1228,-1553 1230,-1552 C1231,-1552 1233,-1550 1232,-1548 Z" transform="matrix(0.33333, 0, 0, 0.33333, 0, 0)"/>
    <path fill="none" d="M1213,-1546 C1212,-1544 1211,-1543 1209,-1544 C1207,-1544 1206,-1546 1207,-1548 C1207,-1549 
        1209,-1550 1211,-1550 C1212,-1549 1213,-1548 1213,-1546 Z M1221,-1542 C1221,-1541 1219,-1540 1217,-1540 
        C1215,-1541 1214,-1542 1215,-1544 C1215,-1546 1217,-1547 1219,-1546 C1221,-1546 1222,-1544 1221,-1542 Z"
        transform="matrix(0.33333, 0, 0, 0.33333, 0, 0)"/>
    <path fill="none" d="M1230,-1541 C1230,-1539 1228,-1538 1226,-1539 C1224,-1539 1223,-1541 1224,-1543 C1224,-1545 
        1226,-1546 1228,-1545 C1230,-1545 1231,-1543 1230,-1541 Z" transform="matrix(0.33333, 0, 0, 0.33333, 0, 0)"/>
    <path fill="none" d="M1217,-1538 C1217,-1537 1217,-1537 1216,-1537 C1216,-1537 1216,-1538 1216,-1538 C1216,-1538 
        1216,-1538 1217,-1538 C1217,-1538 1217,-1538 1217,-1538 Z M1216,-1538 C1215,-1534 1215,-1534 1215,-1534 
        M1216,-1537 C1215,-1534 1215,-1534 1215,-1534 M1217,-1538 C1216,-1534 1216,-1534 1216,-1534 M1217,-1537 
        C1216,-1534 1216,-1534 1216,-1534 M1223,-1592 C1223,-1589 1223,-1589 1223,-1589 M1224,-1591 C1223,-1589 
        1223,-1589 1223,-1589 M1238,-1587 C1238,-1585 1238,-1585 1238,-1585 M1238,-1588 C1237,-1585 1237,-1585 
        1237,-1585" transform="matrix(0.33333, 0, 0, 0.33333, 0, 0)"/>
    <path fill="none" d="M1253,-1621 C1253,-1621 1254,-1625 1255,-1628 C1256,-1633 1256,-1635 1256,-1635 C1256,-1636 
        1255,-1637 1255,-1637 C1252,-1638 1252,-1638 1252,-1638 C1251,-1638 1251,-1637 1250,-1637 C1250,-1637 1249,-1634 
        1248,-1630 C1247,-1627 1246,-1624 1246,-1624 M1245,-1587 C1245,-1586 1244,-1586 1243,-1586 C1218,-1593 
        1218,-1593 1218,-1593 C1218,-1593 1217,-1594 1217,-1594 C1222,-1610 1222,-1610 1222,-1610 C1222,-1611 1223,-1611 
        1223,-1611 C1248,-1604 1248,-1604 1248,-1604 C1249,-1604 1249,-1603 1249,-1603 Z M1254,-1623 C1251,-1624 
        1249,-1624 1246,-1625 M1228,-1628 C1228,-1628 1222,-1616 1218,-1604 C1214,-1589 1214,-1584 1214,-1577 
        C1214,-1576 1216,-1574 1217,-1573 C1218,-1573 1219,-1573 1219,-1573 C1219,-1573 1220,-1573 1221,-1572 
        C1222,-1571 1223,-1571 1223,-1571 C1224,-1570 1224,-1570 1225,-1570 C1227,-1569 1227,-1569 1228,-1569 
        C1228,-1569 1229,-1569 1230,-1570 C1231,-1570 1232,-1569 1233,-1569 C1233,-1569 1234,-1569 1234,-1569 
        C1236,-1568 1238,-1569 1239,-1570 C1243,-1576 1245,-1580 1249,-1595 C1252,-1608 1253,-1621 1253,-1621 
        M1224,-1622 C1229,-1622 1234,-1620 1239,-1619 C1244,-1618 1249,-1616 1253,-1614" transform="matrix(0.33333, 0, 0, 0.33333, 0, 0)"/>
    <path fill="none" d="M1235,-1577 C1234,-1573 1230,-1571 1226,-1572 C1222,-1573 1220,-1577 1221,-1581 C1222,-1585 
        1226,-1587 1230,-1586 C1234,-1585 1236,-1581 1235,-1577 Z M1221,-1589 C1222,-1589 1223,-1588 1224,-1588 
        C1224,-1588 1224,-1587 1224,-1587 C1223,-1587 1223,-1587 1222,-1586 C1222,-1586 1222,-1586 1221,-1586 
        C1220,-1587 1218,-1588 1218,-1589 C1217,-1589 1218,-1589 1218,-1589 C1219,-1590 1220,-1589 1221,-1589 Z 
        M1216,-1581 C1217,-1581 1218,-1580 1219,-1580 C1219,-1580 1220,-1579 1219,-1579 C1219,-1578 1219,-1576 
        1220,-1575 C1220,-1575 1220,-1574 1220,-1574 C1219,-1574 1218,-1575 1217,-1575 C1217,-1575 1216,-1576 1216,-1576 
        C1216,-1577 1216,-1580 1216,-1581 C1216,-1581 1216,-1581 1216,-1581 Z" transform="matrix(0.33333, 0, 0, 0.33333, 0, 0)"/>
    <path fill="none" d="M1239,-1584 C1238,-1585 1237,-1585 1236,-1585 C1236,-1585 1236,-1584 1236,-1584 C1236,-1584 
        1236,-1583 1236,-1582 C1236,-1582 1237,-1582 1237,-1582 C1238,-1582 1241,-1582 1242,-1582 C1242,-1582 1242,-1583 
        1242,-1583 C1241,-1583 1240,-1584 1239,-1584 Z M1239,-1575 C1238,-1575 1237,-1575 1237,-1575 C1236,-1575 
        1235,-1575 1235,-1574 C1235,-1574 1234,-1572 1233,-1572 C1232,-1571 1232,-1571 1233,-1571 C1233,-1571 1235,-1570 
        1235,-1570 C1236,-1570 1236,-1570 1237,-1571 C1238,-1571 1239,-1573 1239,-1574 C1239,-1575 1239,-1575 1239,-1575 
        Z" transform="matrix(0.33333, 0, 0, 0.33333, 0, 0)"/>
    <path fill="none" d="M1238,-1617 L1240,-1626 M1239,-1617 L1241,-1625"/>
</svg>