<?xml version="1.0" standalone="no"?>
<!DOCTYPE svg PUBLIC "-//W3C//DTD SVG 1.0//EN"
    "http://www.w3.org/TR/2001/REC-SVG-20010904/DTD/svg10.dtd">
<?xml-stylesheet type="text/css" href="..\cisco_network.css" ?>
<svg contentScriptType="text/ecmascript" zoomAndPan="magnify" xmlns:xlink="http://www.w3.org/1999/xlink" baseProfile="full"
    contentStyleType="text/css" enable-background="new" version="1.0" width="24.8031" preserveAspectRatio="none"
    viewBox="394.02 -562.02 28 41.024" height="36.3402" xmlns="http://www.w3.org/2000/svg" color-interpolation-filters="sRGB"
    x="0" y="1.5">
    <path d="M1245,-1664 L1184,-1664 L1184,-1566 L1245,-1566 Z" stroke-width="2.54" transform="matrix(0.33333, 0, 0, 0.33333, 0, 0)"
        stroke="none"/>
    <path fill="none" d="M1245,-1664 L1184,-1664 L1184,-1566 L1245,-1566" stroke-width="2" transform="matrix(0.33333, 0, 0, 0.33333, 0, 0)"/>
    <path d="M1245,-1566 L1265,-1586 L1265,-1684 L1203,-1684 L1184,-1664 L1245,-1664 L1245,-1566 Z" stroke-width="2"
        transform="matrix(0.33333, 0, 0, 0.33333, 0, 0)"/>
    <path d="M1245,-1664 L1265,-1684 Z" stroke-width="2.54" transform="matrix(0.33333, 0, 0, 0.33333, 0, 0)" stroke="none"/>
    <path fill="none" d="M1245,-1664 L1265,-1684" stroke-width="2" transform="matrix(0.33333, 0, 0, 0.33333, 0, 0)"/>
    <path d="M1185,-1636 L1245,-1636 Z" stroke-width="2.54" transform="matrix(0.33333, 0, 0, 0.33333, 0, 0)" stroke="none"/>
    <path fill="none" d="M1185,-1636 L1245,-1636 M1199,-1649 L1216,-1649 M1223,-1643 L1223,-1655 L1192,-1655 L1192,-1643 
        L1223,-1643 Z" stroke-width="2" transform="matrix(0.33333, 0, 0, 0.33333, 0, 0)"/>
    <path fill="#ffffff" d="M1196,-1590 L1196,-1614 L1219,-1602 L1196,-1590 Z M1229,-1591 L1229,-1613 L1222,-1613 
        L1222,-1591 L1229,-1591 Z" stroke-width="2.54" transform="matrix(0.33333, 0, 0, 0.33333, 0, 0)" stroke="none"/>
    <path fill="none" stroke-width="3" d="M1213,-1577 C1227,-1577 1239,-1588 1239,-1602 C1239,-1616 1227,-1627 
        1213,-1627 C1199,-1627 1188,-1616 1188,-1602 C1188,-1588 1199,-1577 1213,-1577 Z" transform="matrix(0.33333, 0, 0, 0.33333, 0, 0)"/>
</svg>