<?xml version="1.0" standalone="no"?>
<!DOCTYPE svg PUBLIC "-//W3C//DTD SVG 1.0//EN"
    "http://www.w3.org/TR/2001/REC-SVG-20010904/DTD/svg10.dtd">
<?xml-stylesheet type="text/css" href="..\cisco_network.css" ?>
<svg contentScriptType="text/ecmascript" zoomAndPan="magnify" xmlns:xlink="http://www.w3.org/1999/xlink" baseProfile="full"
    contentStyleType="text/css" enable-background="new" version="1.0" width="44.2772" preserveAspectRatio="none"
    viewBox="382.02 -564 49.984 44.992" height="39.8551" xmlns="http://www.w3.org/2000/svg" color-interpolation-filters="sRGB"
    x="0" y="1.5">
    <path stroke-width="2" d="M1273,-1577 L1273,-1601 L1147,-1601 L1147,-1577 L1273,-1577 Z" transform="matrix(0.33333, 0, 0, 0.33333, 0, 0)"/>
    <path d="M1234,-1588 L1266,-1588 Z" stroke-width="2.54" transform="matrix(0.33333, 0, 0, 0.33333, 0, 0)" stroke="none"/>
    <path fill="none" stroke-width="2" d="M1234,-1588 L1266,-1588" transform="matrix(0.33333, 0, 0, 0.33333, 0, 0)"/>
    <path d="M1234,-1589 L1266,-1589 Z" stroke-width="2.54" transform="matrix(0.33333, 0, 0, 0.33333, 0, 0)" stroke="none"/>
    <path fill="none" stroke-width="2" d="M1234,-1589 L1266,-1589" transform="matrix(0.33333, 0, 0, 0.33333, 0, 0)"/>
    <path stroke-width="2" d="M1294,-1600 L1294,-1621 L1273,-1601 L1273,-1577 L1294,-1600 Z M1250,-1558 L1250,-1563 
        L1262,-1579 L1262,-1569 L1250,-1558 Z M1250,-1563 L1250,-1558 L1149,-1558 L1149,-1563 L1250,-1563 Z M1250,-1563 
        L1150,-1563 L1161,-1579 L1262,-1579 L1250,-1563 Z M1294,-1621 L1168,-1621 L1147,-1601 L1273,-1601 L1294,-1621 Z 
        M1270,-1621 L1186,-1621 L1172,-1607 L1256,-1607 L1270,-1621 Z M1256,-1613 L1256,-1676 L1169,-1676 L1169,-1613 
        L1256,-1613 Z" transform="matrix(0.33333, 0, 0, 0.33333, 0, 0)"/>
    <path d="M1177,-1662 C1177,-1669 1183,-1670 1183,-1670 C1183,-1670 1234,-1670 1240,-1670 C1249,-1670 1248,-1662 
        1248,-1662 C1248,-1662 1248,-1631 1248,-1626 C1248,-1622 1242,-1620 1242,-1620 C1242,-1620 1190,-1620 1184,-1620 
        C1179,-1620 1177,-1626 1177,-1626 Z" stroke-width="2" transform="matrix(0.33333, 0, 0, 0.33333, 0, 0)"/>
    <path d="M1271,-1690 L1184,-1690 L1169,-1676 L1256,-1676 L1271,-1690 Z" stroke-width="2" transform="matrix(0.33333, 0, 0, 0.33333, 0, 0)"/>
    <path d="M1271,-1626 L1271,-1690 L1256,-1676 L1256,-1613 L1271,-1626 Z" stroke-width="2" transform="matrix(0.33333, 0, 0, 0.33333, 0, 0)"/>
    <path d="M1226,-1659 L1226,-1630 Z" stroke-width="2.54" transform="matrix(0.33333, 0, 0, 0.33333, 0, 0)" stroke="none"/>
    <path fill="none" d="M1226,-1659 L1226,-1630" stroke-width="2" transform="matrix(0.33333, 0, 0, 0.33333, 0, 0)"/>
    <path d="M1198,-1630 L1198,-1663 Z" stroke-width="2.54" transform="matrix(0.33333, 0, 0, 0.33333, 0, 0)" stroke="none"/>
    <path fill="none" d="M1198,-1630 L1198,-1663" stroke-width="2" transform="matrix(0.33333, 0, 0, 0.33333, 0, 0)"/>
    <path d="M1198,-1630 C1204,-1616 1209,-1632 1209,-1632 C1236,-1632 1236,-1632 1236,-1632 C1233,-1625 1229,-1624 
        1229,-1624 C1205,-1624 1205,-1624 1205,-1624 C1200,-1625 1198,-1630 1198,-1630 Z" stroke-width="2" transform="matrix(0.33333, 0, 0, 0.33333, 0, 0)"/>
    <path fill="none" d="M1205,-1647 L1220,-1647 M1205,-1644 L1220,-1644 M1205,-1639 L1220,-1639 M1205,-1636 
        L1220,-1636" stroke-width="2" transform="matrix(0.33333, 0, 0, 0.33333, 0, 0)"/>
    <path stroke-width="2" d="M1226,-1660 C1224,-1665 1224,-1665 1224,-1665 C1198,-1665 1198,-1665 1198,-1665 
        C1198,-1665 1194,-1665 1193,-1658 C1193,-1652 1193,-1652 1193,-1652 C1198,-1652 1198,-1652 1198,-1652 
        C1198,-1660 1198,-1660 1198,-1660" transform="matrix(0.33333, 0, 0, 0.33333, 0, 0)"/>
    <path stroke-width="2" d="M1226,-1660 C1224,-1665 1224,-1665 1224,-1665 C1198,-1665 1198,-1665 1198,-1665 
        C1198,-1665 1194,-1665 1193,-1658 C1193,-1652 1193,-1652 1193,-1652 C1198,-1652 1198,-1652 1198,-1652 
        C1198,-1660 1198,-1660 1198,-1660" transform="matrix(0.33333, 0, 0, 0.33333, 0, 0)"/>
    <path stroke-width="2" d="M1198,-1665 C1198,-1665 1193,-1665 1192,-1658 C1192,-1652 1192,-1652 1192,-1652"
        transform="matrix(0.33333, 0, 0, 0.33333, 0, 0)"/>
    <path stroke-width="2" d="M1198,-1665 C1198,-1665 1193,-1665 1192,-1658 C1192,-1652 1192,-1652 1192,-1652"
        transform="matrix(0.33333, 0, 0, 0.33333, 0, 0)"/>
    <path d="M1205,-1655 L1220,-1655 M1205,-1658 L1220,-1658 M1199,-1630 L1199,-1661" stroke-width="2" transform="matrix(0.33333, 0, 0, 0.33333, 0, 0)"/>
</svg>