<?xml version="1.0" standalone="no"?>
<!DOCTYPE svg PUBLIC "-//W3C//DTD SVG 1.0//EN"
    "http://www.w3.org/TR/2001/REC-SVG-20010904/DTD/svg10.dtd">
<?xml-stylesheet type="text/css" href="..\cisco_network.css" ?>
<svg contentScriptType="text/ecmascript" zoomAndPan="magnify" xmlns:xlink="http://www.w3.org/1999/xlink" baseProfile="full"
    contentStyleType="text/css" enable-background="new" version="1.0" width="43.3984" preserveAspectRatio="none"
    viewBox="384 -548.99 48.992 42.976" height="38.0693" xmlns="http://www.w3.org/2000/svg" color-interpolation-filters="sRGB"
    x="0" y="1.5">
    <path d="M1298,-1618 C1298,-1602 1266,-1589 1226,-1589 C1185,-1589 1153,-1602 1153,-1618 C1153,-1548 1153,-1548 
        1153,-1548 C1153,-1533 1185,-1520 1226,-1520 C1266,-1520 1298,-1533 1298,-1548 Z" stroke-width="2" transform="matrix(0.33333, 0, 0, 0.33333, 0, 0)"/>
    <path d="M1226,-1589 C1266,-1589 1298,-1602 1298,-1618 C1298,-1633 1266,-1646 1226,-1646 C1185,-1646 1153,-1633 
        1153,-1618 C1153,-1602 1185,-1589 1226,-1589 Z" stroke-width="2" transform="matrix(0.33333, 0, 0, 0.33333, 0, 0)"/>
    <path fill="#ffffff" d="M1210,-1629 L1216,-1620 L1193,-1615 L1198,-1619 L1162,-1625 L1171,-1631 L1205,-1626 
        L1210,-1629 Z" stroke-width="2.54" transform="matrix(0.33333, 0, 0, 0.33333, 0, 0)" stroke="none"/>
    <path fill="#ffffff" d="M1242,-1607 L1238,-1616 L1259,-1620 L1255,-1617 L1289,-1611 L1281,-1605 L1247,-1611 
        L1242,-1607 Z" stroke-width="2.54" transform="matrix(0.33333, 0, 0, 0.33333, 0, 0)" stroke="none"/>
    <path fill="#ffffff" d="M1231,-1634 L1254,-1640 L1254,-1630 L1248,-1631 L1237,-1622 L1226,-1624 L1238,-1633 
        L1231,-1634 Z" stroke-width="2.54" transform="matrix(0.33333, 0, 0, 0.33333, 0, 0)" stroke="none"/>
    <path fill="#ffffff" d="M1221,-1598 L1199,-1594 L1198,-1604 L1204,-1603 L1216,-1613 L1227,-1612 L1214,-1600 
        L1221,-1598 Z" stroke-width="2.54" transform="matrix(0.33333, 0, 0, 0.33333, 0, 0)" stroke="none"/>
    <path fill="#ffffff" d="M1286,-1539 L1286,-1564 L1271,-1552 L1286,-1539 Z M1165,-1539 L1165,-1564 L1180,-1552 
        L1165,-1539 Z M1175,-1588 L1175,-1563 L1160,-1575 L1175,-1588 Z M1275,-1588 L1275,-1563 L1290,-1575 L1275,-1588 
        Z" transform="matrix(0.33333, 0, 0, 0.33333, 0, 0)" stroke="#000000"/>
    <path stoke="#ffffff" fill="none" d="M1278,-1576 L1269,-1576 M1282,-1552 L1293,-1552 M1169,-1552 L1157,-1552 
        M1170,-1575 L1181,-1575" stroke-width="3" transform="matrix(0.33333, 0, 0, 0.33333, 0, 0)"/>
    <path fill="#ffffff" d="M1258,-1568 L1258,-1524 L1193,-1524 L1192,-1568 L1258,-1568 Z" transform="matrix(0.33333, 0, 0, 0.33333, 0, 0)"
        stroke="#000000"/>
    <path fill="#ffffff" d="M1242,-1581 C1242,-1581 1245,-1581 1245,-1579 C1246,-1570 1246,-1570 1246,-1570 C1263,-1567 
        1263,-1567 1263,-1567 C1265,-1571 1265,-1571 1265,-1571 C1261,-1581 1261,-1581 1261,-1581 C1239,-1587 1218,-1585 
        1218,-1585 C1218,-1585 1218,-1585 1218,-1585 C1218,-1585 1211,-1587 1189,-1581 C1185,-1571 1185,-1571 1185,-1571 
        C1186,-1567 1186,-1567 1186,-1567 C1203,-1570 1203,-1570 1203,-1570 C1204,-1579 1204,-1579 1204,-1579 
        C1205,-1581 1207,-1581 1207,-1581 Z" transform="matrix(0.33333, 0, 0, 0.33333, 0, 0)" stroke="#000000"/>
    <path fill="#ffffff" d="M1254,-1566 L1254,-1558 L1196,-1558 L1196,-1566 L1254,-1566 Z M1254,-1554 L1254,-1527 
        L1196,-1527 L1196,-1554 L1254,-1554 Z" transform="matrix(0.33333, 0, 0, 0.33333, 0, 0)" stroke="#000000"/>
    <path fill="none" d="M1250,-1529 L1200,-1529 L1200,-1553 L1250,-1553 L1250,-1529 Z" transform="matrix(0.33333, 0, 0, 0.33333, 0, 0)"
        stroke="#000000"/>
    <path fill="#ffffff" d="M1196,-1554 L1226,-1539 L1254,-1554 L1196,-1554 Z" transform="matrix(0.33333, 0, 0, 0.33333, 0, 0)"
        stroke="#000000"/>
</svg>