<?xml version="1.0" standalone="no"?>
<!DOCTYPE svg PUBLIC "-//W3C//DTD SVG 1.0//EN"
    "http://www.w3.org/TR/2001/REC-SVG-20010904/DTD/svg10.dtd">
<?xml-stylesheet type="text/css" href="..\cisco_network.css" ?>
<svg contentScriptType="text/ecmascript" zoomAndPan="magnify" xmlns:xlink="http://www.w3.org/1999/xlink" baseProfile="full"
    contentStyleType="text/css" enable-background="new" version="1.0" width="47.8205" preserveAspectRatio="none"
    viewBox="386.02 -568.99 53.984 44" height="38.9764" xmlns="http://www.w3.org/2000/svg" color-interpolation-filters="sRGB"
    x="0" y="1.5">
    <path d="M1177,-1604 L1177,-1621 L1269,-1621 L1269,-1604 L1177,-1604 Z" stroke-width="2" transform="matrix(0.33333, 0, 0, 0.33333, 0, 0)"/>
    <path d="M1284,-1636 L1284,-1619 L1269,-1604 L1269,-1621 L1177,-1621 Z" stroke-width="2.54" transform="matrix(0.33333, 0, 0, 0.33333, 0, 0)"
        stroke="none"/>
    <path fill="none" d="M1284,-1636 L1284,-1619 L1269,-1604 L1269,-1621 L1177,-1621" stroke-width="2" transform="matrix(0.33333, 0, 0, 0.33333, 0, 0)"/>
    <path fill="#000000" d="M1177,-1636 L1284,-1636 Z" stroke-width="2.54" transform="matrix(0.33333, 0, 0, 0.33333, 0, 0)"
        stroke="none"/>
    <path fill="none" d="M1177,-1636 L1284,-1636" stroke-width="2" transform="matrix(0.33333, 0, 0, 0.33333, 0, 0)"
        stroke-linejoin="bevel"/>
    <path fill="#000000" d="M1269,-1621 L1284,-1636 Z" stroke-width="2.54" transform="matrix(0.33333, 0, 0, 0.33333, 0, 0)"
        stroke="none"/>
    <path fill="none" d="M1269,-1621 L1284,-1636" stroke-width="2" transform="matrix(0.33333, 0, 0, 0.33333, 0, 0)"
        stroke-linejoin="bevel"/>
    <path d="M1264,-1591 L1264,-1601 L1159,-1601 L1171,-1613 L1276,-1613 L1276,-1603 L1264,-1591 Z M1264,-1601 
        L1264,-1591 L1159,-1591 L1159,-1601 L1264,-1601 Z" stroke-width="2" transform="matrix(0.33333, 0, 0, 0.33333, 0, 0)"/>
    <path fill="#000000" d="M1264,-1601 L1276,-1613 Z" stroke-width="2.54" transform="matrix(0.33333, 0, 0, 0.33333, 0, 0)"
        stroke="none"/>
    <path fill="none" d="M1264,-1601 L1276,-1613" stroke-width="2" transform="matrix(0.33333, 0, 0, 0.33333, 0, 0)"
        stroke-linejoin="bevel"/>
    <path d="M1269,-1621 L1269,-1690 L1177,-1690 L1177,-1621 L1269,-1621 Z M1269,-1621 L1284,-1636 L1284,-1706 
        L1193,-1706 L1177,-1690 L1269,-1690 L1269,-1621 Z M1261,-1629 L1261,-1682 L1185,-1682 L1185,-1629 L1261,-1629 Z"
        stroke-width="2" transform="matrix(0.33333, 0, 0, 0.33333, 0, 0)"/>
    <path fill="#000000" d="M1269,-1690 L1284,-1706 Z" stroke-width="2.54" transform="matrix(0.33333, 0, 0, 0.33333, 0, 0)"
        stroke="none"/>
    <path fill="none" d="M1269,-1690 L1284,-1706" stroke-width="2" transform="matrix(0.33333, 0, 0, 0.33333, 0, 0)"
        stroke-linejoin="bevel"/>
    <path d="M1318,-1588 L1303,-1610 L1288,-1599 L1303,-1578 L1318,-1588 Z" stroke-width="2" transform="matrix(0.33333, 0, 0, 0.33333, 0, 0)"/>
    <path fill="none" d="M1295,-1605 C1293,-1610 1288,-1607 1289,-1614 C1290,-1622 1285,-1627 1275,-1623" stroke-width="2"
        transform="matrix(0.33333, 0, 0, 0.33333, 0, 0)" stroke="#000000"/>
    <path fill="none" stroke-width="2" d="M1207,-1659 C1212,-1659 1216,-1663 1216,-1668 C1216,-1673 1212,-1677 
        1207,-1677 C1203,-1677 1199,-1673 1199,-1668 C1199,-1663 1203,-1659 1207,-1659 Z" transform="matrix(0.33333, 0, 0, 0.33333, 0, 0)"/>
    <path fill="none" stroke-width="2" d="M1238,-1659 C1243,-1659 1247,-1663 1247,-1668 C1247,-1673 1243,-1677 
        1238,-1677 C1233,-1677 1230,-1673 1230,-1668 C1230,-1663 1233,-1659 1238,-1659 Z" transform="matrix(0.33333, 0, 0, 0.33333, 0, 0)"/>
    <path fill="none" stroke-width="2" d="M1223,-1633 C1228,-1633 1231,-1637 1231,-1641 C1231,-1646 1228,-1650 
        1223,-1650 C1218,-1650 1214,-1646 1214,-1641 C1214,-1637 1218,-1633 1223,-1633 Z" transform="matrix(0.33333, 0, 0, 0.33333, 0, 0)"/>
    <path fill="none" d="M1207,-1659 L1212,-1651 L1214,-1656 L1219,-1649 M1227,-1648 L1231,-1656 L1234,-1652 L1238,-1659 
        M1230,-1668 L1222,-1666 L1224,-1670 L1216,-1668" stroke-width="2" transform="matrix(0.33333, 0, 0, 0.33333, 0, 0)"/>
</svg>