<?xml version="1.0" standalone="no"?>
<!DOCTYPE svg PUBLIC "-//W3C//DTD SVG 1.0//EN"
    "http://www.w3.org/TR/2001/REC-SVG-20010904/DTD/svg10.dtd">
<?xml-stylesheet type="text/css" href="..\cisco_network.css" ?>
<svg contentScriptType="text/ecmascript" zoomAndPan="magnify" xmlns:xlink="http://www.w3.org/1999/xlink" baseProfile="full"
    contentStyleType="text/css" enable-background="new" version="1.0" width="31.011" preserveAspectRatio="none" viewBox="176 -472 35.008 44"
    height="38.9764" xmlns="http://www.w3.org/2000/svg" color-interpolation-filters="sRGB" x="0" y="1.5">
    <path d="M594,-1287 L594,-1400 L530,-1400 L530,-1287 L594,-1287 Z" stroke-width="2" transform="matrix(0.33333, 0, 0, 0.33333, 0, 0)"/>
    <path fill="none" d="M530,-1295 L594,-1295" stroke-width="2" transform="matrix(0.33333, 0, 0, 0.33333, 0, 0)"/>
    <path fill="none" stroke-width="2" d="M591,-1313 C591,-1306 586,-1301 579,-1301 C572,-1301 566,-1306 566,-1313 
        C566,-1320 572,-1326 579,-1326 C586,-1326 591,-1320 591,-1313 Z" transform="matrix(0.33333, 0, 0, 0.33333, 0, 0)"
        stroke="#ffffff"/>
    <path fill="#ffffff" stroke-width="2" d="M582,-1313 C582,-1311 581,-1310 579,-1310 C577,-1310 575,-1311 575,-1313 
        C575,-1315 577,-1317 579,-1317 C581,-1317 582,-1315 582,-1313 Z" transform="matrix(0.33333, 0, 0, 0.33333, 0, 0)"/>
    <path fill="none" stroke-width="2" d="M558,-1313 C558,-1306 552,-1301 545,-1301 C539,-1301 533,-1306 533,-1313 
        C533,-1320 539,-1326 545,-1326 C552,-1326 558,-1320 558,-1313 Z" transform="matrix(0.33333, 0, 0, 0.33333, 0, 0)"
        stroke="#ffffff"/>
    <path fill="none" d="M540,-1308 L550,-1318 M540,-1318 L550,-1308" stroke-width="3" transform="matrix(0.33333, 0, 0, 0.33333, 0, 0)"
        stroke-linecap="round" stroke="#ffffff"/>
    <path fill="none" stroke-width="2" d="M574,-1340 C574,-1334 569,-1328 562,-1328 C555,-1328 549,-1334 549,-1340 
        C549,-1347 555,-1353 562,-1353 C569,-1353 574,-1347 574,-1340 Z" transform="matrix(0.33333, 0, 0, 0.33333, 0, 0)"
        stroke="#ffffff"/>
    <path fill="none" d="M559,-1335 L555,-1339 M569,-1344 L559,-1335" stroke-width="3" transform="matrix(0.33333, 0, 0, 0.33333, 0, 0)"
        stroke-linecap="round" stroke="#ffffff"/>
    <path stroke-width="2" d="M530,-1400 L552,-1414 L615,-1414 L594,-1400 L530,-1400 Z M594,-1287 L614,-1303 L614,-1414 
        L594,-1400 L594,-1287 Z" transform="matrix(0.33333, 0, 0, 0.33333, 0, 0)"/>
    <path fill="none" d="M530,-1357 L594,-1357" transform="matrix(0.33333, 0, 0, 0.33333, 0, 0)"/>
    <path stroke-width="2" d="M565,-1380 L565,-1392 L535,-1392 L535,-1380 L565,-1380 Z" transform="matrix(0.33333, 0, 0, 0.33333, 0, 0)"/>
    <path fill="none" d="M538,-1385 L562,-1385" stroke-width="2" transform="matrix(0.33333, 0, 0, 0.33333, 0, 0)"/>
    <path fill="#ffffff" d="M614,-1362 C616,-1362 616,-1362 616,-1362 C630,-1362 633,-1349 633,-1349 C633,-1363 
        633,-1363 633,-1363 C633,-1363 630,-1376 616,-1376 C614,-1376 614,-1376 614,-1376" stroke-width="2" transform="matrix(0.33333, 0, 0, 0.33333, 0, 0)"
        stroke="#000000"/>
    <path fill="#ffffff" d="M614,-1362 C616,-1362 616,-1362 616,-1362 C630,-1362 633,-1349 633,-1349 C633,-1363 
        633,-1363 633,-1363 C633,-1363 630,-1376 616,-1376 C614,-1376 614,-1376 614,-1376" stroke-width="2" transform="matrix(0.33333, 0, 0, 0.33333, 0, 0)"
        stroke="#000000"/>
    <path fill="#ffffff" d="M633,-1364 C633,-1348 633,-1348 633,-1348 C631,-1329 597,-1330 597,-1330 C597,-1329 
        597,-1329 597,-1329 C597,-1316 597,-1316 597,-1316 C575,-1338 575,-1338 575,-1338 C597,-1360 597,-1360 597,-1360 
        C597,-1346 597,-1346 597,-1346 C597,-1346 632,-1345 633,-1364" stroke-width="2" transform="matrix(0.33333, 0, 0, 0.33333, 0, 0)"
        stroke="#000000"/>
    <path fill="#ffffff" d="M633,-1364 C633,-1348 633,-1348 633,-1348 C631,-1329 597,-1330 597,-1330 C597,-1329 
        597,-1329 597,-1329 C597,-1316 597,-1316 597,-1316 C575,-1338 575,-1338 575,-1338 C597,-1360 597,-1360 597,-1360 
        C597,-1346 597,-1346 597,-1346 C597,-1346 632,-1345 633,-1364" stroke-width="2" transform="matrix(0.33333, 0, 0, 0.33333, 0, 0)"
        stroke="#000000"/>
</svg>