<?xml version="1.0" standalone="no"?>
<!DOCTYPE svg PUBLIC "-//W3C//DTD SVG 1.0//EN"
    "http://www.w3.org/TR/2001/REC-SVG-20010904/DTD/svg10.dtd">
<?xml-stylesheet type="text/css" href="..\cisco_network.css" ?>
<svg contentScriptType="text/ecmascript" zoomAndPan="magnify" xmlns:xlink="http://www.w3.org/1999/xlink" baseProfile="full"
    contentStyleType="text/css" enable-background="new" version="1.0" width="45.1843" preserveAspectRatio="none"
    viewBox="384 -562.02 51.008 44" height="38.9764" xmlns="http://www.w3.org/2000/svg" color-interpolation-filters="sRGB"
    x="0" y="1.5">
    <path fill="#000000" stroke-width="2" d="M1277,-1611 L1265,-1596 L1170,-1596 L1185,-1611 L1277,-1611 Z" transform="matrix(0.33333, 0, 0, 0.33333, 0, 0)"/>
    <path d="M1170,-1578 L1170,-1596 L1261,-1596 L1261,-1578 L1170,-1578 Z M1169,-1668 L1261,-1668 L1261,-1599 
        L1169,-1599 L1169,-1668 Z M1261,-1599 L1276,-1615 L1276,-1684 L1261,-1668 L1261,-1599 Z M1295,-1563 L1302,-1577 
        L1286,-1577 L1279,-1563 L1295,-1563 Z M1279,-1563 L1295,-1563 L1295,-1559 L1279,-1559 L1279,-1563 Z M1295,-1559 
        L1295,-1563 L1302,-1577 L1302,-1568 L1295,-1559 Z M1261,-1578 L1261,-1595 L1277,-1611 L1277,-1594 L1261,-1578 Z"
        stroke-width="2" transform="matrix(0.33333, 0, 0, 0.33333, 0, 0)"/>
    <path stroke-width="2" d="M1184,-1660 C1245,-1660 1245,-1660 1245,-1660 C1249,-1660 1253,-1657 1253,-1653 
        C1253,-1615 1253,-1615 1253,-1615 C1253,-1611 1249,-1607 1245,-1607 C1184,-1607 1184,-1607 1184,-1607 
        C1180,-1607 1177,-1611 1177,-1615 C1177,-1653 1177,-1653 1177,-1653 C1177,-1657 1180,-1660 1184,-1660 Z"
        transform="matrix(0.33333, 0, 0, 0.33333, 0, 0)"/>
    <path d="M1276,-1684 L1187,-1684 L1169,-1668 L1261,-1668 L1276,-1684 Z M1258,-1556 L1258,-1562 L1270,-1578 
        L1270,-1568 L1258,-1556 Z M1258,-1562 L1153,-1562 L1165,-1578 L1270,-1578 L1258,-1562 Z M1258,-1562 L1258,-1556 
        L1153,-1556 L1153,-1562 L1258,-1562 Z" transform="matrix(0.33333, 0, 0, 0.33333, 0, 0)"/>
    <path fill="none" d="M1298,-1577 C1310,-1583 1300,-1608 1276,-1596" stroke-width="2" transform="matrix(0.33333, 0, 0, 0.33333, 0, 0)"
        stroke="#000000"/>
    <path fill="#ffffff" d="M1213,-1637 C1216,-1637 1216,-1637 1216,-1637 C1217,-1636 1217,-1636 1217,-1636 C1220,-1636 
        1220,-1636 1220,-1636 C1223,-1639 1223,-1639 1223,-1639 C1226,-1639 1226,-1639 1226,-1639 C1228,-1636 1228,-1636 
        1228,-1636 C1231,-1636 1231,-1636 1231,-1636 C1234,-1639 1234,-1639 1234,-1639 C1237,-1639 1237,-1639 1237,-1639 
        C1239,-1636 1239,-1636 1239,-1636 C1242,-1636 1242,-1636 1242,-1636 C1243,-1638 1243,-1638 1243,-1638 
        C1251,-1633 1251,-1633 1251,-1633 C1245,-1629 1245,-1629 1245,-1629 C1213,-1629 1213,-1629 1213,-1629 
        C1213,-1628 1213,-1628 1213,-1628 C1208,-1628 1208,-1628 1208,-1628 C1207,-1628 1206,-1627 1205,-1626 
        C1203,-1622 1199,-1620 1194,-1620 C1186,-1620 1180,-1626 1180,-1633 C1180,-1641 1186,-1647 1194,-1647 
        C1199,-1647 1203,-1644 1205,-1640 C1206,-1639 1207,-1639 1208,-1639 C1213,-1639 1213,-1639 1213,-1639 
        C1213,-1637 1213,-1637 1213,-1637" stroke-width="2.54" transform="matrix(0.33333, 0, 0, 0.33333, 0, 0)" stroke="none"/>
    <path fill="none" d="M1248,-1631 C1213,-1631 1213,-1631 1213,-1631 C1212,-1631 1210,-1631 1208,-1630 C1210,-1629 
        1212,-1629 1213,-1629" transform="matrix(0.33333, 0, 0, 0.33333, 0, 0)" stroke-linejoin="round" stroke="#000000"/>
    <path fill="none" d="M1249,-1634 C1215,-1634 1215,-1634 1215,-1634 C1213,-1634 1210,-1634 1209,-1635" transform="matrix(0.33333, 0, 0, 0.33333, 0, 0)"
        stroke-linejoin="round" stroke="#000000"/>
    <path fill="#ffffff" d="M1194,-1621 C1200,-1621 1206,-1626 1206,-1633 C1206,-1640 1200,-1645 1194,-1645 C1187,-1645 
        1182,-1640 1182,-1633 C1182,-1626 1187,-1621 1194,-1621 Z" transform="matrix(0.33333, 0, 0, 0.33333, 0, 0)"
        stroke-linejoin="round" stroke="#000000"/>
    <path fill="#ffffff" d="M1187,-1630 C1189,-1630 1190,-1631 1190,-1633 C1190,-1635 1189,-1636 1187,-1636 C1185,-1636 
        1184,-1635 1184,-1633 C1184,-1631 1185,-1630 1187,-1630 Z" transform="matrix(0.33333, 0, 0, 0.33333, 0, 0)"
        stroke-linejoin="round" stroke="#000000"/>
</svg>