<?xml version="1.0" standalone="no"?>
<!DOCTYPE svg PUBLIC "-//W3C//DTD SVG 1.0//EN"
    "http://www.w3.org/TR/2001/REC-SVG-20010904/DTD/svg10.dtd">
<?xml-stylesheet type="text/css" href="..\cisco_network.css" ?>
<svg contentScriptType="text/ecmascript" zoomAndPan="magnify" xmlns:xlink="http://www.w3.org/1999/xlink" baseProfile="full"
    contentStyleType="text/css" enable-background="new" version="1.0" width="51.3921" preserveAspectRatio="none"
    viewBox="380.99 -548 58.016 41.984" height="37.1906" xmlns="http://www.w3.org/2000/svg" color-interpolation-filters="sRGB"
    x="0" y="1.5">
    <path d="M1144,-1520 L1297,-1520 L1297,-1620 L1144,-1620 L1144,-1520 Z M1314,-1546 L1297,-1520 L1297,-1620 
        L1314,-1641 L1314,-1546 Z M1170,-1641 L1314,-1641 L1297,-1620 L1144,-1620 L1170,-1641 Z" stroke-width="2"
        transform="matrix(0.33333, 0, 0, 0.33333, 0, 0)"/>
    <path fill="#ffffff" d="M1166,-1594 L1153,-1594 L1153,-1598 L1166,-1598 L1166,-1604 L1181,-1596 L1166,-1587 
        L1166,-1594 Z M1166,-1568 L1153,-1568 L1153,-1573 L1166,-1573 L1166,-1579 L1181,-1570 L1166,-1562 L1166,-1568 Z 
        M1166,-1543 L1153,-1543 L1153,-1547 L1166,-1547 L1166,-1554 L1181,-1545 L1166,-1537 L1166,-1543 Z M1270,-1572 
        L1288,-1572 L1288,-1568 L1270,-1568 L1270,-1561 L1255,-1570 L1270,-1578 L1270,-1572 Z M1280,-1568 L1263,-1568 
        L1263,-1572 L1280,-1572 L1280,-1579 L1295,-1570 L1280,-1562 L1280,-1568 Z" stroke-width="2.54" transform="matrix(0.33333, 0, 0, 0.33333, 0, 0)"
        stroke="none"/>
    <path stroke-width="2" d="M1195,-1561 C1251,-1561 1251,-1561 1251,-1561 C1251,-1593 1251,-1593 1251,-1593 
        C1251,-1595 1247,-1595 1247,-1595 C1219,-1595 1219,-1595 1219,-1595 C1219,-1601 1219,-1601 1219,-1601 
        C1200,-1601 1200,-1601 1200,-1601 C1200,-1596 1200,-1596 1200,-1596 C1195,-1596 1195,-1596 1195,-1596 Z"
        transform="matrix(0.33333, 0, 0, 0.33333, 0, 0)" stroke="#ffffff"/>
    <path d="M1191,-1556 C1247,-1556 1247,-1556 1247,-1556 C1247,-1588 1247,-1588 1247,-1588 C1247,-1590 1242,-1590 
        1242,-1590 C1214,-1590 1214,-1590 1214,-1590 C1214,-1596 1214,-1596 1214,-1596 C1196,-1596 1196,-1596 1196,-1596 
        C1196,-1591 1196,-1591 1196,-1591 C1191,-1591 1191,-1591 1191,-1591 Z" stroke-width="2" transform="matrix(0.33333, 0, 0, 0.33333, 0, 0)"
        stroke="#ffffff"/>
    <path stroke-width="2" d="M1185,-1551 C1241,-1551 1241,-1551 1241,-1551 C1241,-1582 1241,-1582 1241,-1582 
        C1241,-1585 1237,-1584 1237,-1584 C1209,-1584 1209,-1584 1209,-1584 C1209,-1590 1209,-1590 1209,-1590 
        C1190,-1590 1190,-1590 1190,-1590 C1190,-1586 1190,-1586 1190,-1586 C1185,-1586 1185,-1586 1185,-1586 Z"
        transform="matrix(0.33333, 0, 0, 0.33333, 0, 0)" stroke="#ffffff"/>
</svg>