<?xml version="1.0" standalone="no"?>
<!DOCTYPE svg PUBLIC "-//W3C//DTD SVG 1.0//EN"
    "http://www.w3.org/TR/2001/REC-SVG-20010904/DTD/svg10.dtd">
<?xml-stylesheet type="text/css" href="..\cisco_network.css" ?>
<svg contentScriptType="text/ecmascript" zoomAndPan="magnify" xmlns:xlink="http://www.w3.org/1999/xlink" baseProfile="full"
    contentStyleType="text/css" enable-background="new" version="1.0" width="63.3933" preserveAspectRatio="none"
    viewBox="355.01 -571.01 109.98 64" height="36.8887" xmlns="http://www.w3.org/2000/svg" color-interpolation-filters="sRGB"
    x="0" y="1.5">
    <path fill="#ffffff" d="M1180,-1691 C1123,-1702 1092,-1673 1097,-1647 C1097,-1646 1097,-1646 1097,-1646 C1052,-1638 
        1064,-1585 1086,-1585 C1088,-1585 1088,-1585 1088,-1585 C1082,-1560 1135,-1535 1164,-1548 C1166,-1550 1166,-1550 
        1166,-1550 C1176,-1527 1214,-1524 1250,-1523 C1282,-1522 1300,-1524 1314,-1538 C1316,-1538 1316,-1538 1316,-1538 
        C1367,-1534 1390,-1569 1379,-1594 C1382,-1595 1382,-1595 1382,-1595 C1399,-1599 1401,-1639 1371,-1645 
        C1372,-1647 1372,-1647 1372,-1647 C1385,-1673 1354,-1697 1312,-1693 C1309,-1694 1309,-1694 1309,-1694 
        C1279,-1722 1192,-1717 1182,-1690 Z" stroke-width="2" transform="matrix(0.33333, 0, 0, 0.33333, 0, 0)" stroke="#0f73a0"/>
</svg>