<?xml version="1.0" standalone="no"?>
<!DOCTYPE svg PUBLIC "-//W3C//DTD SVG 1.0//EN"
    "http://www.w3.org/TR/2001/REC-SVG-20010904/DTD/svg10.dtd">
<?xml-stylesheet type="text/css" href="..\cisco_network.css" ?>
<svg contentScriptType="text/ecmascript" zoomAndPan="magnify" xmlns:xlink="http://www.w3.org/1999/xlink" baseProfile="full"
    contentStyleType="text/css" enable-background="new" version="1.0" width="54.0283" preserveAspectRatio="none"
    viewBox="378.02 -548 60.992 41.984" height="37.1906" xmlns="http://www.w3.org/2000/svg" color-interpolation-filters="sRGB"
    x="0" y="1.5">
    <path stroke-width="2" d="M1136,-1520 L1299,-1520 L1299,-1620 L1136,-1620 L1136,-1520 Z M1317,-1546 L1299,-1520 
        L1299,-1620 L1317,-1642 L1317,-1546 Z M1162,-1642 L1317,-1642 L1299,-1620 L1136,-1620 L1162,-1642 Z" transform="matrix(0.33333, 0, 0, 0.33333, 0, 0)"/>
    <path fill="#ffffff" d="M1170,-1569 L1145,-1569 L1145,-1573 L1170,-1573 L1170,-1579 L1185,-1571 L1170,-1562 
        L1170,-1569 Z M1268,-1594 L1242,-1594 L1242,-1598 L1268,-1598 L1268,-1605 L1282,-1596 L1268,-1588 L1268,-1594 Z 
        M1280,-1569 L1242,-1569 L1242,-1573 L1280,-1573 L1280,-1579 L1294,-1571 L1280,-1562 L1280,-1569 Z M1268,-1543 
        L1242,-1543 L1242,-1548 L1268,-1548 L1268,-1554 L1282,-1545 L1268,-1537 L1268,-1543 Z" stroke-width="2.54"
        transform="matrix(0.33333, 0, 0, 0.33333, 0, 0)" stroke="none"/>
    <path d="M1236,-1582 C1236,-1578 1226,-1574 1213,-1574 C1201,-1574 1191,-1578 1191,-1582 C1191,-1563 1191,-1563 
        1191,-1563 C1191,-1558 1201,-1555 1213,-1555 C1226,-1555 1236,-1558 1236,-1563 Z" stroke-width="2" transform="matrix(0.33333, 0, 0, 0.33333, 0, 0)"
        stroke="#ffffff"/>
    <path stroke-width="2" d="M1213,-1574 C1226,-1574 1236,-1578 1236,-1582 C1236,-1587 1226,-1590 1213,-1590 
        C1201,-1590 1191,-1587 1191,-1582 C1191,-1578 1201,-1574 1213,-1574 Z" transform="matrix(0.33333, 0, 0, 0.33333, 0, 0)"
        stroke="#ffffff"/>
</svg>