<?xml version="1.0" standalone="no"?>
<!DOCTYPE svg PUBLIC "-//W3C//DTD SVG 1.0//EN"
    "http://www.w3.org/TR/2001/REC-SVG-20010904/DTD/svg10.dtd">
<?xml-stylesheet type="text/css" href="..\cisco_network.css" ?>
<svg contentScriptType="text/ecmascript" zoomAndPan="magnify" xmlns:xlink="http://www.w3.org/1999/xlink" baseProfile="full"
    contentStyleType="text/css" enable-background="new" version="1.0" width="55.7858" preserveAspectRatio="none"
    viewBox="386.02 -574.02 62.976 42.016" height="37.2189" xmlns="http://www.w3.org/2000/svg"
    color-interpolation-filters="sRGB" x="0" y="1.5">
    <path stroke-width="2" d="M1331,-1598 L1160,-1598 L1160,-1705 L1331,-1705 L1331,-1598 Z M1173,-1719 L1344,-1719 
        L1331,-1705 L1160,-1705 L1173,-1719 ZM1344,-1618 L1330,-1599 L1330,-1706 L1344,-1720 L1344,-1618 Z" transform="matrix(0.33333, 0, 0, 0.33333, 0, 0)"/>
    <path fill="#ffffff" d="M1239,-1633 C1251,-1642 1251,-1642 1251,-1642 C1239,-1642 1233,-1642 1225,-1641 C1221,-1630 
        1221,-1627 1217,-1619 C1227,-1624 1227,-1624 1227,-1624 C1236,-1617 1247,-1616 1257,-1619 C1257,-1619 1257,-1620 
        1257,-1620 C1273,-1631 1273,-1631 1273,-1631 C1263,-1624 1249,-1625 1239,-1633 Z" transform="matrix(0.33333, 0, 0, 0.33333, 0, 0)"
        stroke="#000000"/>
    <path fill="#ffffff" d="M1228,-1649 C1225,-1659 1226,-1670 1233,-1678 C1235,-1679 1236,-1680 1237,-1682 C1222,-1670 
        1222,-1670 1222,-1670 C1221,-1669 1219,-1668 1218,-1667 C1211,-1659 1210,-1648 1213,-1638 Z" transform="matrix(0.33333, 0, 0, 0.33333, 0, 0)"
        stroke="#000000"/>
    <path fill="#ffffff" d="M1258,-1682 C1252,-1684 1246,-1685 1240,-1683 C1239,-1683 1238,-1682 1237,-1682 C1222,-1670 
        1222,-1670 1222,-1670 C1229,-1676 1238,-1677 1247,-1674 C1238,-1668 1238,-1668 1238,-1668 C1264,-1668 1264,-1668 
        1264,-1668 C1266,-1687 1266,-1687 1266,-1687 Z" transform="matrix(0.33333, 0, 0, 0.33333, 0, 0)" stroke="#000000"/>
    <path fill="#ffffff" d="M1278,-1674 C1287,-1659 1284,-1643 1277,-1635 C1276,-1633 1274,-1632 1273,-1631 C1257,-1620 
        1257,-1620 1257,-1620 C1259,-1621 1260,-1622 1262,-1624 C1274,-1639 1267,-1653 1263,-1663 Z" transform="matrix(0.33333, 0, 0, 0.33333, 0, 0)"
        stroke="#000000"/>
    <path fill="#ffffff" d="M1192,-1646 L1167,-1647 L1167,-1652 L1192,-1652 L1192,-1659 L1207,-1649 L1192,-1639 
        L1192,-1646 Z M1302,-1646 L1327,-1647 L1327,-1652 L1302,-1652 L1302,-1659 L1287,-1649 L1302,-1639 L1302,-1646 Z"
        stroke-width="2.54" transform="matrix(0.33333, 0, 0, 0.33333, 0, 0)" stroke="none"/>
</svg>