<?xml version="1.0" standalone="no"?>
<!DOCTYPE svg PUBLIC "-//W3C//DTD SVG 1.0//EN"
    "http://www.w3.org/TR/2001/REC-SVG-20010904/DTD/svg10.dtd">
<?xml-stylesheet type="text/css" href="..\cisco_network.css" ?>
<svg contentScriptType="text/ecmascript" zoomAndPan="magnify" xmlns:xlink="http://www.w3.org/1999/xlink" baseProfile="full"
    contentStyleType="text/css" enable-background="new" version="1.0" width="51.3921" preserveAspectRatio="none"
    viewBox="388.99 -528 58.016 41.984" height="37.1906" xmlns="http://www.w3.org/2000/svg" color-interpolation-filters="sRGB"
    x="0" y="1.5">
    <path d="M1170,-1462 L1323,-1462 L1323,-1562 L1170,-1562 L1170,-1462 Z M1340,-1487 L1323,-1462 L1323,-1562 
        L1340,-1583 L1340,-1487 Z M1196,-1583 L1340,-1583 L1323,-1562 L1170,-1562 L1196,-1583 Z" stroke-width="2"
        transform="matrix(0.33333, 0, 0, 0.33333, 0, 0)"/>
    <path fill="#ffffff" d="M1204,-1536 L1179,-1535 L1179,-1540 L1204,-1540 L1204,-1546 L1219,-1538 L1204,-1529 
        L1204,-1536 Z M1204,-1510 L1179,-1510 L1179,-1514 L1204,-1514 L1204,-1521 L1219,-1512 L1204,-1504 L1204,-1510 Z 
        M1204,-1485 L1179,-1485 L1179,-1489 L1204,-1489 L1204,-1495 L1219,-1487 L1204,-1478 L1204,-1485 Z M1290,-1513 
        L1315,-1514 L1315,-1509 L1290,-1509 L1290,-1503 L1275,-1511 L1290,-1520 L1290,-1513 Z" stroke-width="2.54"
        transform="matrix(0.33333, 0, 0, 0.33333, 0, 0)" stroke="none"/>
    <path fill="#ffffff" d="M1269,-1526 C1269,-1523 1260,-1520 1249,-1520 C1237,-1520 1228,-1523 1228,-1526 C1228,-1500 
        1228,-1500 1228,-1500 C1228,-1497 1237,-1494 1249,-1494 C1260,-1494 1269,-1497 1269,-1500 Z" stroke-width="2.54"
        transform="matrix(0.33333, 0, 0, 0.33333, 0, 0)" stroke="none"/>
    <path stroke-width="3" d="M1249,-1520 C1260,-1520 1269,-1523 1269,-1526 C1269,-1530 1260,-1532 1249,-1532 
        C1237,-1532 1228,-1530 1228,-1526 C1228,-1523 1237,-1520 1249,-1520 Z" transform="matrix(0.33333, 0, 0, 0.33333, 0, 0)"
        stroke="#ffffff"/>
    <path fill="#ffffff" d="M1249,-1491 C1260,-1491 1269,-1494 1269,-1497 C1269,-1501 1260,-1504 1249,-1504 C1237,-1504 
        1228,-1501 1228,-1497 C1228,-1494 1237,-1491 1249,-1491 Z" stroke-width="3" transform="matrix(0.33333, 0, 0, 0.33333, 0, 0)"
        stroke="#ffffff"/>
</svg>