<?xml version="1.0" standalone="no"?>
<!DOCTYPE svg PUBLIC "-//W3C//DTD SVG 1.0//EN"
    "http://www.w3.org/TR/2001/REC-SVG-20010904/DTD/svg10.dtd">
<?xml-stylesheet type="text/css" href="..\cisco_network.css" ?>
<svg contentScriptType="text/ecmascript" zoomAndPan="magnify" xmlns:xlink="http://www.w3.org/1999/xlink" baseProfile="full"
    contentStyleType="text/css" enable-background="new" version="1.0" width="37.2189" preserveAspectRatio="none"
    viewBox="392 -570.02 42.016 56" height="49.6063" xmlns="http://www.w3.org/2000/svg" color-interpolation-filters="sRGB"
    x="0" y="1.5">
    <path d="M1299,-1564 L1299,-1707 L1279,-1688 L1279,-1545 L1299,-1564 Z M1299,-1707 L1279,-1688 L1179,-1688 
        L1205,-1707 L1299,-1707 Z M1279,-1589 L1279,-1688 L1179,-1688 L1179,-1589 L1279,-1589 Z M1279,-1545 L1279,-1588 
        L1179,-1588 L1179,-1545 L1279,-1545 Z" stroke-width="2" transform="matrix(0.33333, 0, 0, 0.33333, 0, 0)"/>
    <path fill="#ffffff" d="M1220,-1650 L1205,-1666 L1208,-1668 L1198,-1670 L1200,-1661 L1202,-1663 L1218,-1648 
        L1220,-1650 Z M1215,-1641 L1193,-1641 L1193,-1644 L1185,-1639 L1193,-1633 L1193,-1637 L1215,-1637 L1215,-1641 Z 
        M1218,-1630 L1202,-1614 L1200,-1617 L1198,-1607 L1208,-1609 L1205,-1612 L1220,-1627 L1218,-1630 Z M1228,-1624 
        L1228,-1603 L1224,-1603 L1229,-1595 L1235,-1603 L1231,-1603 L1231,-1624 L1228,-1624 Z M1228,-1653 L1228,-1674 
        L1224,-1674 L1229,-1682 L1235,-1674 L1231,-1674 L1231,-1653 L1228,-1653 Z M1238,-1627 L1254,-1612 L1251,-1609 
        L1261,-1607 L1259,-1617 L1256,-1614 L1241,-1630 L1238,-1627 Z M1244,-1637 L1265,-1637 L1265,-1633 L1274,-1639 
        L1265,-1644 L1265,-1641 L1244,-1641 L1244,-1637 Z M1241,-1648 L1256,-1663 L1259,-1661 L1261,-1670 L1251,-1668 
        L1254,-1666 L1238,-1650 L1241,-1648 Z" stroke-width="2.54" transform="matrix(0.33333, 0, 0, 0.33333, 0, 0)"
        stroke="none"/>
    <path fill="#ffffff" d="M1242,-1621 C1253,-1628 1255,-1642 1248,-1652 C1241,-1662 1227,-1664 1217,-1657 C1207,-1650 
        1204,-1636 1211,-1626 C1218,-1616 1232,-1614 1242,-1621 Z" stroke-width="2" transform="matrix(0.33333, 0, 0, 0.33333, 0, 0)"
        stroke="#000000"/>
    <path fill="#ffffff" d="M1230,-1565 L1252,-1565 L1252,-1561 L1260,-1567 L1252,-1572 L1252,-1569 L1230,-1569 
        L1230,-1565 Z M1230,-1571 L1250,-1578 L1251,-1575 L1257,-1583 L1247,-1585 L1249,-1582 L1229,-1574 L1230,-1571 Z 
        M1230,-1563 L1250,-1555 L1251,-1559 L1257,-1551 L1247,-1549 L1249,-1552 L1229,-1560 L1230,-1563 Z M1197,-1565 
        L1218,-1565 L1218,-1561 L1226,-1567 L1218,-1572 L1218,-1569 L1197,-1569 L1197,-1565 Z" stroke-width="2.54"
        transform="matrix(0.33333, 0, 0, 0.33333, 0, 0)" stroke="none"/>
</svg>