<?xml version="1.0" standalone="no"?>
<!DOCTYPE svg PUBLIC "-//W3C//DTD SVG 1.0//EN"
    "http://www.w3.org/TR/2001/REC-SVG-20010904/DTD/svg10.dtd">
<?xml-stylesheet type="text/css" href="..\cisco_network.css" ?>
<svg contentScriptType="text/ecmascript" zoomAndPan="magnify" xmlns:xlink="http://www.w3.org/1999/xlink" baseProfile="full"
    contentStyleType="text/css" enable-background="new" version="1.0" width="35.4331" preserveAspectRatio="none"
    viewBox="323.01 -626.02 40 42.016" height="37.2189" xmlns="http://www.w3.org/2000/svg" color-interpolation-filters="sRGB"
    x="0" y="1.5">
    <path stroke-width="2" d="M972,-1754 L972,-1865 L1077,-1865 L1077,-1754 L972,-1754 Z M983,-1877 L972,-1865 
        L1077,-1865 L1088,-1877 L983,-1877 Z M1088,-1765 L1088,-1877 L1077,-1865 L1077,-1754 L1088,-1765 Z" transform="matrix(0.33333, 0, 0, 0.33333, 0, 0)"/>
    <path fill="none" d="M1070,-1860 L981,-1860 L981,-1760 L1070,-1760 L1070,-1860 Z" stroke-width="2" transform="matrix(0.33333, 0, 0, 0.33333, 0, 0)"/>
    <path stroke-width="2" d="M1038,-1777 C1038,-1770 1032,-1765 1025,-1765 C1019,-1765 1013,-1770 1013,-1777 
        C1013,-1784 1019,-1789 1025,-1789 C1032,-1789 1038,-1784 1038,-1777 Z" transform="matrix(0.33333, 0, 0, 0.33333, 0, 0)"
        stroke="#ffffff"/>
    <text font-size="20" transform="matrix(0.33333, 0, 0, 0.33333, 339.58, -589.88)" fill="#ffffff" font-family="'Helvetica'"
        font-style="normal" stroke="none" font-weight="700" stroke-width="2" xml:space="preserve">V</text>
    <text font-size="16" transform="matrix(0.33333, 0, 0, 0.33333, 334.3, -613.31)" fill="#ffffff" font-family="'Helvetica'"
        font-style="normal" stroke="none" font-weight="700" stroke-width="2" xml:space="preserve">WWW</text>
    <path fill="none" d="M995,-1795 L1063,-1795" stroke-width="2" transform="matrix(0.33333, 0, 0, 0.33333, 0, 0)"
        stroke="#ffffff"/>
    <path fill="#ffffff" d="M1001,-1801 L998,-1795 L1001,-1789 L987,-1795 L1001,-1801 Z" stroke-width="2.54" transform="matrix(0.33333, 0, 0, 0.33333, 0, 0)"
        stroke="none"/>
    <path fill="none" d="M1057,-1833 L989,-1833" stroke-width="2" transform="matrix(0.33333, 0, 0, 0.33333, 0, 0)"
        stroke="#ffffff"/>
    <path fill="#ffffff" d="M1051,-1827 L1054,-1833 L1051,-1838 L1065,-1833 L1051,-1827 Z" stroke-width="2.54"
        transform="matrix(0.33333, 0, 0, 0.33333, 0, 0)" stroke="none"/>
    <path fill="none" d="M1047,-1804 L1006,-1804 L1006,-1825 L1047,-1825 L1047,-1804 Z" stroke-width="2" transform="matrix(0.33333, 0, 0, 0.33333, 0, 0)"
        stroke="#ffffff"/>
    <path fill="none" d="M1006,-1825 L1026,-1815 L1047,-1825" stroke-width="2" transform="matrix(0.33333, 0, 0, 0.33333, 0, 0)"
        stroke="#ffffff"/>
</svg>