<?xml version="1.0" standalone="no"?>
<!DOCTYPE svg PUBLIC "-//W3C//DTD SVG 1.0//EN"
    "http://www.w3.org/TR/2001/REC-SVG-20010904/DTD/svg10.dtd">
<?xml-stylesheet type="text/css" href="..\cisco_network.css" ?>
<svg contentScriptType="text/ecmascript" zoomAndPan="magnify" xmlns:xlink="http://www.w3.org/1999/xlink" baseProfile="full"
    contentStyleType="text/css" enable-background="new" version="1.0" width="44.2772" preserveAspectRatio="none"
    viewBox="383.01 -568 49.984 32.992" height="29.2252" xmlns="http://www.w3.org/2000/svg" color-interpolation-filters="sRGB"
    x="0" y="1.5">
    <path d="M1298,-1676 C1298,-1660 1265,-1647 1224,-1647 C1184,-1647 1151,-1660 1151,-1676 C1151,-1634 1151,-1634 
        1151,-1634 C1151,-1618 1184,-1605 1224,-1605 C1265,-1605 1298,-1618 1298,-1634 Z" stroke-width="2" transform="matrix(0.33333, 0, 0, 0.33333, 0, 0)"/>
    <path d="M1224,-1647 C1265,-1647 1298,-1660 1298,-1676 C1298,-1692 1265,-1704 1224,-1704 C1184,-1704 1151,-1692 
        1151,-1676 C1151,-1660 1184,-1647 1224,-1647 Z" stroke-width="2" transform="matrix(0.33333, 0, 0, 0.33333, 0, 0)"/>
    <path fill="#ffffff" d="M1208,-1687 L1214,-1678 L1191,-1673 L1196,-1677 L1160,-1683 L1169,-1690 L1203,-1684 
        L1208,-1687 Z M1240,-1665 L1236,-1674 L1256,-1678 L1253,-1675 L1287,-1669 L1279,-1663 L1245,-1669 L1240,-1665 Z 
        M1228,-1692 L1252,-1698 L1252,-1688 L1246,-1690 L1235,-1680 L1224,-1682 L1236,-1691 L1228,-1692 Z M1219,-1656 
        L1196,-1652 L1196,-1662 L1202,-1661 L1214,-1671 L1225,-1670 L1212,-1658 L1219,-1656 Z M1221,-1626 L1242,-1626 
        L1242,-1623 L1250,-1628 L1242,-1633 L1242,-1630 L1221,-1630 L1221,-1626 Z M1220,-1632 L1240,-1640 L1242,-1636 
        L1247,-1644 L1238,-1646 L1239,-1643 L1219,-1635 L1220,-1632 Z M1220,-1624 L1240,-1617 L1242,-1620 L1247,-1612 
        L1238,-1610 L1239,-1613 L1219,-1621 L1220,-1624 Z M1187,-1626 L1208,-1626 L1208,-1623 L1216,-1628 L1208,-1633 
        L1208,-1630 L1187,-1630 L1187,-1626 Z" stroke-width="2.54" transform="matrix(0.33333, 0, 0, 0.33333, 0, 0)"
        stroke="none"/>
</svg>