<?xml version="1.0" standalone="no"?>
<!DOCTYPE svg PUBLIC "-//W3C//DTD SVG 1.0//EN"
    "http://www.w3.org/TR/2001/REC-SVG-20010904/DTD/svg10.dtd">
<?xml-stylesheet type="text/css" href="..\cisco_network.css" ?>
<svg contentScriptType="text/ecmascript" zoomAndPan="magnify" xmlns:xlink="http://www.w3.org/1999/xlink" baseProfile="full"
    contentStyleType="text/css" enable-background="new" version="1.0" width="49.6063" preserveAspectRatio="none"
    viewBox="383.01 -568.99 56 40.992" height="36.3118" xmlns="http://www.w3.org/2000/svg" color-interpolation-filters="sRGB"
    x="0" y="1.5">
    <path d="M1301,-1584 L1194,-1584 L1194,-1692 L1301,-1692 L1301,-1584 Z M1207,-1706 L1314,-1706 L1301,-1692 
        L1193,-1692 L1207,-1706 Z M1314,-1605 L1301,-1585 L1301,-1693 L1314,-1706 L1314,-1605 Z M1194,-1584 L1151,-1584 
        L1151,-1692 L1194,-1692 L1194,-1584 Z M1165,-1706 L1208,-1706 L1195,-1692 L1152,-1692 L1165,-1706 Z"
        stroke-width="2" transform="matrix(0.33333, 0, 0, 0.33333, 0, 0)"/>
    <path fill="none" d="M1194,-1692 L1194,-1584" stroke-width="2" transform="matrix(0.33333, 0, 0, 0.33333, 0, 0)"/>
    <path fill="none" d="M1195,-1653 L1152,-1653" stroke-width="2" transform="matrix(0.33333, 0, 0, 0.33333, 0, 0)"/>
    <path fill="#ffffff" d="M1232,-1640 L1209,-1640 L1209,-1644 L1200,-1638 L1209,-1633 L1209,-1637 L1232,-1637 
        L1232,-1640 Z M1236,-1628 L1219,-1612 L1216,-1615 L1214,-1605 L1225,-1607 L1222,-1609 L1238,-1626 L1236,-1628 Z 
        M1246,-1622 L1246,-1599 L1242,-1599 L1248,-1591 L1254,-1599 L1250,-1599 L1250,-1622 L1246,-1622 Z M1258,-1626 
        L1275,-1609 L1272,-1607 L1282,-1605 L1280,-1615 L1277,-1612 L1261,-1628 L1258,-1626 Z M1264,-1637 L1287,-1637 
        L1287,-1633 L1296,-1638 L1287,-1644 L1287,-1640 L1264,-1640 L1264,-1637 Z M1261,-1648 L1277,-1665 L1280,-1662 
        L1282,-1672 L1272,-1670 L1275,-1667 L1258,-1651 L1261,-1648 Z M1250,-1654 L1250,-1678 L1254,-1678 L1248,-1686 
        L1242,-1678 L1246,-1678 L1246,-1654 L1250,-1654 Z M1238,-1651 L1222,-1667 L1225,-1670 L1214,-1672 L1216,-1662 
        L1219,-1665 L1236,-1648 L1238,-1651 Z" stroke-width="2.54" transform="matrix(0.33333, 0, 0, 0.33333, 0, 0)"
        stroke="none"/>
    <path fill="#ffffff" d="M1268,-1653 C1260,-1663 1245,-1666 1234,-1659 C1223,-1651 1221,-1636 1228,-1625 C1236,-1614 
        1251,-1612 1262,-1619 C1273,-1627 1275,-1642 1268,-1653 Z" stroke-width="2.54" transform="matrix(0.33333, 0, 0, 0.33333, 0, 0)"
        stroke="none"/>
    <path fill="#ffffff" d="M1168,-1672 L1162,-1672 L1162,-1674 L1159,-1672 L1162,-1670 L1162,-1671 L1168,-1671 
        L1168,-1672 Z M1169,-1669 L1165,-1664 L1164,-1665 L1163,-1662 L1166,-1662 L1165,-1663 L1170,-1668 L1169,-1669 Z 
        M1173,-1667 L1173,-1660 L1172,-1660 L1173,-1657 L1175,-1660 L1174,-1660 L1174,-1667 L1173,-1667 Z M1176,-1668 
        L1181,-1663 L1180,-1662 L1183,-1662 L1183,-1665 L1182,-1664 L1177,-1669 L1176,-1668 Z M1178,-1671 L1185,-1671 
        L1185,-1670 L1188,-1672 L1185,-1674 L1185,-1672 L1178,-1672 L1178,-1671 Z M1177,-1675 L1182,-1680 L1183,-1679 
        L1183,-1682 L1180,-1681 L1181,-1681 L1176,-1676 L1177,-1675 Z M1174,-1677 L1174,-1684 L1175,-1684 L1173,-1686 
        L1172,-1684 L1173,-1684 L1173,-1677 L1174,-1677 Z M1170,-1676 L1165,-1681 L1166,-1681 L1163,-1682 L1164,-1679 
        L1165,-1680 L1169,-1675 L1170,-1676 Z" stroke-width="2.54" transform="matrix(0.33333, 0, 0, 0.33333, 0, 0)"
        stroke="none"/>
    <path fill="#ffffff" d="M1179,-1676 C1177,-1679 1172,-1680 1169,-1678 C1166,-1676 1165,-1671 1167,-1668 C1170,-1665 
        1174,-1664 1177,-1666 C1181,-1668 1181,-1673 1179,-1676 Z" stroke-width="2.54" transform="matrix(0.33333, 0, 0, 0.33333, 0, 0)"
        stroke="none"/>
    <path fill="#ffffff" d="M1171,-1618 L1171,-1599 L1168,-1599 L1172,-1591 L1177,-1599 L1174,-1599 L1174,-1618 
        L1171,-1618 Z M1176,-1618 L1183,-1600 L1180,-1599 L1187,-1594 L1189,-1602 L1186,-1601 L1179,-1619 L1176,-1618 Z 
        M1169,-1618 L1162,-1600 L1165,-1599 L1158,-1594 L1156,-1602 L1159,-1601 L1166,-1619 L1169,-1618 Z M1171,-1648 
        L1171,-1629 L1168,-1629 L1172,-1622 L1177,-1629 L1174,-1629 L1174,-1648 L1171,-1648 Z" stroke-width="2.54"
        transform="matrix(0.33333, 0, 0, 0.33333, 0, 0)" stroke="none"/>
</svg>