<?xml version="1.0" standalone="no"?>
<!DOCTYPE svg PUBLIC "-//W3C//DTD SVG 1.0//EN"
    "http://www.w3.org/TR/2001/REC-SVG-20010904/DTD/svg10.dtd">
<?xml-stylesheet type="text/css" href="..\cisco_network.css" ?>
<svg contentScriptType="text/ecmascript" zoomAndPan="magnify" xmlns:xlink="http://www.w3.org/1999/xlink" baseProfile="full"
    contentStyleType="text/css" enable-background="new" version="1.0" width="53.1496" preserveAspectRatio="none"
    viewBox="380.99 -568 60 41.984" height="37.1906" xmlns="http://www.w3.org/2000/svg" color-interpolation-filters="sRGB"
    x="0" y="1.5">
    <path d="M1288,-1582 L1288,-1669 L1145,-1669 L1145,-1582 L1288,-1582 Z M1145,-1669 L1188,-1702 L1322,-1702 
        L1288,-1669 L1145,-1669 Z M1288,-1581 L1321,-1619 L1321,-1702 L1288,-1669 L1288,-1581 Z" stroke-width="2"
        transform="matrix(0.33333, 0, 0, 0.33333, 0, 0)"/>
    <path fill="#ffffff" d="M1200,-1638 C1203,-1651 1195,-1658 1188,-1657 C1187,-1657 1187,-1657 1187,-1657 C1185,-1667 
        1170,-1664 1170,-1659 C1170,-1659 1170,-1659 1170,-1659 C1163,-1660 1155,-1648 1159,-1641 C1160,-1641 1160,-1641 
        1160,-1641 C1153,-1638 1152,-1630 1152,-1622 C1152,-1614 1152,-1610 1156,-1607 C1156,-1606 1156,-1606 1156,-1606 
        C1155,-1595 1165,-1589 1172,-1592 C1173,-1591 1173,-1591 1173,-1591 C1174,-1587 1185,-1587 1187,-1594 
        C1188,-1593 1188,-1593 1188,-1593 C1195,-1590 1202,-1597 1201,-1607 C1201,-1608 1201,-1608 1201,-1608 
        C1209,-1615 1208,-1635 1200,-1637 Z" stroke-width="2.54" transform="matrix(0.33333, 0, 0, 0.33333, 0, 0)"
        stroke="none"/>
    <path fill="#ffffff" d="M1273,-1638 C1276,-1651 1268,-1658 1260,-1657 C1260,-1657 1260,-1657 1260,-1657 C1258,-1667 
        1242,-1664 1242,-1659 C1242,-1659 1242,-1659 1242,-1659 C1235,-1660 1228,-1648 1232,-1641 C1232,-1641 1232,-1641 
        1232,-1641 C1226,-1638 1225,-1630 1224,-1622 C1224,-1614 1225,-1610 1229,-1607 C1229,-1606 1229,-1606 1229,-1606 
        C1227,-1595 1238,-1589 1245,-1592 C1245,-1591 1245,-1591 1245,-1591 C1246,-1587 1258,-1587 1260,-1594 
        C1260,-1593 1260,-1593 1260,-1593 C1268,-1590 1275,-1597 1273,-1607 C1274,-1608 1274,-1608 1274,-1608 
        C1282,-1615 1280,-1635 1273,-1637 Z" stroke-width="2.54" transform="matrix(0.33333, 0, 0, 0.33333, 0, 0)"
        stroke="none"/>
    <path d="M1183,-1636 L1175,-1645 L1171,-1641 L1170,-1653 L1182,-1652 L1178,-1648 L1186,-1640 L1183,-1636 Z 
        M1183,-1612 L1175,-1604 L1171,-1608 L1170,-1596 L1182,-1596 L1178,-1601 L1186,-1609 L1183,-1612 Z M1175,-1622 
        L1163,-1622 L1163,-1616 L1154,-1624 L1163,-1633 L1163,-1627 L1175,-1627 L1175,-1622 Z M1249,-1636 L1257,-1645 
        L1262,-1641 L1262,-1653 L1250,-1652 L1254,-1648 L1246,-1640 L1249,-1636 Z M1249,-1612 L1257,-1604 L1262,-1608 
        L1262,-1596 L1250,-1596 L1254,-1601 L1246,-1609 L1249,-1612 Z M1256,-1622 L1268,-1622 L1268,-1616 L1277,-1624 
        L1268,-1633 L1268,-1627 L1256,-1627 L1256,-1622 Z" stroke-width="2.54" transform="matrix(0.33333, 0, 0, 0.33333, 0, 0)"
        stroke="none"/>
    <path fill="#ffffff" d="M1204,-1626 L1227,-1626 L1227,-1622 L1204,-1622 L1204,-1626 Z" stroke-width="2.54"
        transform="matrix(0.33333, 0, 0, 0.33333, 0, 0)" stroke="none"/>
    <path d="M1224,-1622 L1236,-1622 L1236,-1616 L1245,-1624 L1236,-1633 L1236,-1627 L1224,-1627 L1224,-1622 Z 
        M1206,-1622 L1194,-1622 L1194,-1616 L1185,-1624 L1194,-1633 L1194,-1627 L1206,-1627 L1206,-1622 Z" stroke-width="2.54"
        transform="matrix(0.33333, 0, 0, 0.33333, 0, 0)" stroke="none"/>
</svg>