<?xml version="1.0" standalone="no"?>
<!DOCTYPE svg PUBLIC "-//W3C//DTD SVG 1.0//EN"
    "http://www.w3.org/TR/2001/REC-SVG-20010904/DTD/svg10.dtd">
<?xml-stylesheet type="text/css" href="..\cisco_network.css" ?>
<svg contentScriptType="text/ecmascript" zoomAndPan="magnify" xmlns:xlink="http://www.w3.org/1999/xlink" baseProfile="full"
    contentStyleType="text/css" enable-background="new" version="1.0" width="42.5197" preserveAspectRatio="none"
    viewBox="368 -596.99 48 32" height="28.3465" xmlns="http://www.w3.org/2000/svg" color-interpolation-filters="sRGB"
    x="0" y="1.5">
    <path d="M1105,-1696 L1232,-1696 L1232,-1770 L1105,-1770 L1105,-1696 Z M1247,-1718 L1232,-1696 L1232,-1770 
        L1247,-1789 L1247,-1718 Z M1128,-1789 L1247,-1789 L1232,-1770 L1105,-1770 L1128,-1789 Z" stroke-width="2"
        transform="matrix(0.33333, 0, 0, 0.33333, 0, 0)"/>
    <path fill="none" d="M1165,-1748 L1165,-1748" stroke-width="2" transform="matrix(0.33333, 0, 0, 0.33333, 0, 0)"/>
    <path fill="#ffffff" d="M1199,-1734 L1217,-1734 L1217,-1730 L1226,-1736 L1217,-1742 L1217,-1737 L1199,-1737 
        L1199,-1734 Z" stroke-width="2.54" transform="matrix(0.33333, 0, 0, 0.33333, 0, 0)" stroke="none"/>
    <path fill="#ffffff" d="M1214,-1704 C1213,-1704 1211,-1705 1211,-1707 C1210,-1708 1211,-1710 1213,-1710 C1215,-1711 
        1217,-1710 1217,-1708 C1217,-1706 1216,-1704 1214,-1704 Z" stroke-width="2" transform="matrix(0.33333, 0, 0, 0.33333, 0, 0)"
        stroke="#000000"/>
    <path fill="#ffffff" d="M1220,-1704 C1220,-1702 1218,-1699 1215,-1699 C1213,-1699 1211,-1702 1211,-1704 C1211,-1707 
        1213,-1709 1215,-1709 C1218,-1709 1220,-1707 1220,-1704 Z" stroke-width="2" transform="matrix(0.33333, 0, 0, 0.33333, 0, 0)"
        stroke="#000000"/>
    <path fill="#ffffff" d="M1219,-1708 L1213,-1699 L1186,-1716 L1192,-1726 L1219,-1708 Z" stroke-width="2" transform="matrix(0.33333, 0, 0, 0.33333, 0, 0)"
        stroke="#000000"/>
    <path fill="#ffffff" d="M1159,-1765 C1143,-1762 1132,-1745 1136,-1729 C1140,-1713 1156,-1702 1172,-1706 C1189,-1709 
        1199,-1726 1195,-1742 C1192,-1758 1176,-1769 1159,-1765 Z" stroke-width="2" transform="matrix(0.33333, 0, 0, 0.33333, 0, 0)"
        stroke="#000000"/>
    <path fill="#ffffff" d="M1135,-1737 L1126,-1737 L1126,-1733 L1136,-1733 Z" stroke-width="2.54" transform="matrix(0.33333, 0, 0, 0.33333, 0, 0)"
        stroke="none"/>
    <path fill="none" d="M1135,-1737 L1126,-1737 L1126,-1733 L1136,-1733" stroke-width="2.54" transform="matrix(0.33333, 0, 0, 0.33333, 0, 0)"
        stroke="none"/>
    <path fill="#ffffff" d="M1142,-1718 L1129,-1709 L1131,-1707 L1144,-1715 Z" stroke-width="2.54" transform="matrix(0.33333, 0, 0, 0.33333, 0, 0)"
        stroke="none"/>
    <path fill="none" d="M1142,-1718 L1129,-1709 L1131,-1707 L1144,-1715" stroke-width="2.54" transform="matrix(0.33333, 0, 0, 0.33333, 0, 0)"
        stroke="none"/>
    <path fill="#ffffff" d="M1141,-1755 L1130,-1762 L1128,-1759 L1139,-1752 Z" stroke-width="2.54" transform="matrix(0.33333, 0, 0, 0.33333, 0, 0)"
        stroke="none"/>
    <path fill="none" d="M1141,-1755 L1130,-1762 L1128,-1759 L1139,-1752" stroke-width="2.54" transform="matrix(0.33333, 0, 0, 0.33333, 0, 0)"
        stroke="none"/>
    <path fill="#ffffff" d="M1171,-1710 C1157,-1707 1143,-1716 1140,-1730 C1137,-1744 1146,-1758 1160,-1761 C1174,-1764 
        1188,-1755 1191,-1741 C1194,-1727 1185,-1713 1171,-1710 Z" stroke-width="2" transform="matrix(0.33333, 0, 0, 0.33333, 0, 0)"
        stroke="#000000"/>
    <path fill="#000000" d="M1156,-1755 L1156,-1715 L1180,-1732 L1191,-1732 L1191,-1738 L1180,-1738 L1156,-1755 
        L1156,-1755 Z" stroke-width="2.54" transform="matrix(0.33333, 0, 0, 0.33333, 0, 0)" stroke="none"/>
    <path fill="#000000" d="M1135,-1733 L1146,-1733 L1146,-1729 L1155,-1735 L1146,-1741 L1146,-1737 L1135,-1737 Z"
        stroke-width="2.54" transform="matrix(0.33333, 0, 0, 0.33333, 0, 0)" stroke="none"/>
    <path fill="none" d="M1135,-1733 L1146,-1733 L1146,-1729 L1155,-1735 L1146,-1741 L1146,-1737 L1135,-1737"
        stroke-width="2.54" transform="matrix(0.33333, 0, 0, 0.33333, 0, 0)" stroke="none"/>
    <path fill="#000000" d="M1144,-1715 L1148,-1717 L1150,-1714 L1154,-1724 L1144,-1724 L1146,-1720 L1142,-1718 Z"
        stroke-width="2.54" transform="matrix(0.33333, 0, 0, 0.33333, 0, 0)" stroke="none"/>
    <path fill="none" d="M1144,-1715 L1148,-1717 L1150,-1714 L1154,-1724 L1144,-1724 L1146,-1720 L1142,-1718"
        stroke-width="2.54" transform="matrix(0.33333, 0, 0, 0.33333, 0, 0)" stroke="none"/>
    <path fill="#000000" d="M1140,-1752 L1146,-1749 L1144,-1745 L1154,-1745 L1150,-1755 L1148,-1751 L1142,-1755 Z"
        stroke-width="2.54" transform="matrix(0.33333, 0, 0, 0.33333, 0, 0)" stroke="none"/>
    <path fill="none" d="M1140,-1752 L1146,-1749 L1144,-1745 L1154,-1745 L1150,-1755 L1148,-1751 L1142,-1755"
        stroke-width="2.54" transform="matrix(0.33333, 0, 0, 0.33333, 0, 0)" stroke="none"/>
</svg>