<?xml version="1.0" standalone="no"?>
<!DOCTYPE svg PUBLIC "-//W3C//DTD SVG 1.0//EN"
    "http://www.w3.org/TR/2001/REC-SVG-20010904/DTD/svg10.dtd">
<?xml-stylesheet type="text/css" href="..\cisco_network.css" ?>
<svg contentScriptType="text/ecmascript" zoomAndPan="magnify" xmlns:xlink="http://www.w3.org/1999/xlink" baseProfile="full"
    contentStyleType="text/css" enable-background="new" version="1.0" width="37.1906" preserveAspectRatio="none"
    viewBox="387.01 -555.01 41.984 56" height="49.6063" xmlns="http://www.w3.org/2000/svg" color-interpolation-filters="sRGB"
    x="0" y="1.5">
    <path d="M1285,-1519 L1285,-1662 L1264,-1643 L1264,-1500 L1285,-1519 Z M1285,-1662 L1264,-1643 L1164,-1643 
        L1190,-1662 L1285,-1662 Z M1264,-1544 L1264,-1643 L1164,-1643 L1164,-1544 L1264,-1544 Z M1264,-1500 L1264,-1543 
        L1164,-1543 L1164,-1500 L1264,-1500 Z" stroke-width="2" transform="matrix(0.33333, 0, 0, 0.33333, 0, 0)"/>
    <path fill="#ffffff" d="M1205,-1605 L1190,-1620 L1193,-1623 L1183,-1625 L1185,-1615 L1188,-1618 L1203,-1603 
        L1205,-1605 Z M1200,-1595 L1178,-1595 L1178,-1599 L1170,-1593 L1178,-1588 L1178,-1592 L1200,-1592 L1200,-1595 Z 
        M1203,-1584 L1188,-1569 L1185,-1572 L1183,-1562 L1193,-1564 L1190,-1567 L1205,-1582 L1203,-1584 Z M1213,-1579 
        L1213,-1557 L1209,-1557 L1215,-1549 L1220,-1557 L1216,-1557 L1216,-1579 L1213,-1579 Z M1213,-1608 L1213,-1629 
        L1209,-1629 L1215,-1637 L1220,-1629 L1216,-1629 L1216,-1608 L1213,-1608 Z M1224,-1582 L1239,-1567 L1236,-1564 
        L1246,-1562 L1244,-1572 L1241,-1569 L1226,-1584 L1224,-1582 Z M1229,-1592 L1251,-1592 L1251,-1588 L1259,-1593 
        L1251,-1599 L1251,-1595 L1229,-1595 L1229,-1592 Z M1226,-1603 L1241,-1618 L1244,-1615 L1246,-1625 L1236,-1623 
        L1239,-1620 L1224,-1605 L1226,-1603 Z" stroke-width="2.54" transform="matrix(0.33333, 0, 0, 0.33333, 0, 0)"
        stroke="none"/>
    <path fill="#ffffff" d="M1228,-1575 C1238,-1582 1240,-1596 1233,-1606 C1226,-1617 1212,-1619 1202,-1612 C1192,-1605 
        1190,-1591 1197,-1581 C1204,-1571 1218,-1568 1228,-1575 Z" stroke-width="2.54" transform="matrix(0.33333, 0, 0, 0.33333, 0, 0)"
        stroke="none"/>
    <path fill="#ffffff" d="M1228,-1520 L1249,-1520 L1249,-1516 L1257,-1522 L1249,-1527 L1249,-1523 L1228,-1523 
        L1228,-1520 Z M1227,-1526 L1248,-1533 L1249,-1530 L1255,-1537 L1245,-1540 L1246,-1536 L1226,-1529 L1227,-1526 Z 
        M1227,-1517 L1248,-1510 L1249,-1514 L1255,-1506 L1245,-1503 L1246,-1507 L1226,-1514 L1227,-1517 Z M1195,-1520 
        L1215,-1520 L1215,-1516 L1223,-1522 L1215,-1527 L1215,-1523 L1195,-1523 L1195,-1520 Z" stroke-width="2.54"
        transform="matrix(0.33333, 0, 0, 0.33333, 0, 0)" stroke="none"/>
    <path stroke-width="2" d="M1186,-1537 C1181,-1537 1178,-1534 1178,-1530 C1178,-1524 1178,-1524 1178,-1524 
        C1178,-1523 1178,-1523 1177,-1522 C1176,-1522 1175,-1523 1175,-1523 C1175,-1530 1175,-1530 1175,-1530 
        C1175,-1535 1180,-1540 1185,-1540 C1191,-1540 1195,-1535 1195,-1530 C1195,-1523 1195,-1523 1195,-1523 
        C1195,-1522 1195,-1522 1194,-1522 C1193,-1522 1193,-1523 1193,-1523 C1193,-1530 1193,-1530 1193,-1530 
        C1193,-1534 1190,-1537 1186,-1537 Z" transform="matrix(0.33333, 0, 0, 0.33333, 0, 0)" stroke="#ffffff"/>
    <path d="M1198,-1505 C1199,-1505 1199,-1506 1199,-1506 C1199,-1523 1199,-1523 1199,-1523 C1199,-1524 1199,-1524 
        1198,-1524 C1172,-1524 1172,-1524 1172,-1524 C1172,-1524 1171,-1524 1171,-1523 C1171,-1506 1171,-1506 1171,-1506 
        C1171,-1506 1172,-1505 1172,-1505 Z" stroke-width="2" transform="matrix(0.33333, 0, 0, 0.33333, 0, 0)" stroke="#ffffff"/>
    <path fill="#000000" d="M1188,-1527 L1188,-1527 Z" stroke-width="2.54" transform="matrix(0.33333, 0, 0, 0.33333, 0, 0)"
        stroke="none"/>
    <path fill="none" d="M1188,-1527 L1188,-1527" stroke-width="2" transform="matrix(0.33333, 0, 0, 0.33333, 0, 0)"/>
</svg>