<?xml version="1.0" standalone="no"?>
<!DOCTYPE svg PUBLIC "-//W3C//DTD SVG 1.0//EN"
    "http://www.w3.org/TR/2001/REC-SVG-20010904/DTD/svg10.dtd">
<?xml-stylesheet type="text/css" href="..\cisco_network.css" ?>
<svg contentScriptType="text/ecmascript" zoomAndPan="magnify" xmlns:xlink="http://www.w3.org/1999/xlink" baseProfile="full"
    contentStyleType="text/css" enable-background="new" version="1.0" width="58.4504" preserveAspectRatio="none"
    viewBox="367.01 -550.02 65.984 34.016" height="30.1323" xmlns="http://www.w3.org/2000/svg"
    color-interpolation-filters="sRGB" x="0" y="1.5">
    <path d="M1280,-1550 L1280,-1633 L1102,-1633 L1102,-1550 L1280,-1550 Z" stroke-width="2" transform="matrix(0.33333, 0, 0, 0.33333, 0, 0)"/>
    <path fill="none" stroke-width="6" d="M1238,-1571 C1246,-1571 1253,-1578 1253,-1587 C1253,-1595 1246,-1602 
        1238,-1602 C1229,-1602 1222,-1595 1222,-1587 C1222,-1578 1229,-1571 1238,-1571 Z" transform="matrix(0.33333, 0, 0, 0.33333, 0, 0)"
        stroke="#ffffff"/>
    <path fill="none" d="M1238,-1602 L1264,-1602" stroke-width="6" transform="matrix(0.33333, 0, 0, 0.33333, 0, 0)"
        stroke="#ffffff"/>
    <path fill="#ffffff" d="M1264,-1612 L1264,-1593 L1276,-1602 L1264,-1612 Z" transform="matrix(0.33333, 0, 0, 0.33333, 0, 0)"
        stroke="#ffffff"/>
    <path fill="none" stroke-width="6" d="M1222,-1587 L1222,-1613" transform="matrix(0.33333, 0, 0, 0.33333, 0, 0)"
        stroke="#ffffff"/>
    <path fill="#ffffff" d="M1213,-1613 L1232,-1613 L1223,-1625 L1213,-1613 Z" transform="matrix(0.33333, 0, 0, 0.33333, 0, 0)"
        stroke="#ffffff"/>
    <path fill="none" stroke-width="6" d="M1238,-1572 L1211,-1572" transform="matrix(0.33333, 0, 0, 0.33333, 0, 0)"
        stroke="#ffffff"/>
    <path fill="#ffffff" d="M1211,-1561 L1211,-1581 L1199,-1571 L1211,-1561 Z" transform="matrix(0.33333, 0, 0, 0.33333, 0, 0)"
        stroke="#ffffff"/>
    <path fill="none" stroke-width="6" d="M1144,-1571 C1135,-1571 1128,-1578 1128,-1587 C1128,-1595 1135,-1602 
        1144,-1602 C1152,-1602 1159,-1595 1159,-1587 C1159,-1578 1152,-1571 1144,-1571 Z" transform="matrix(0.33333, 0, 0, 0.33333, 0, 0)"
        stroke="#ffffff"/>
    <path fill="none" d="M1144,-1602 L1117,-1602" stroke-width="6" transform="matrix(0.33333, 0, 0, 0.33333, 0, 0)"
        stroke="#ffffff"/>
    <path fill="#ffffff" d="M1117,-1612 L1117,-1593 L1105,-1602 L1117,-1612 Z" transform="matrix(0.33333, 0, 0, 0.33333, 0, 0)"
        stroke="#ffffff"/>
    <path fill="none" d="M1159,-1587 L1159,-1613" stroke-width="6" transform="matrix(0.33333, 0, 0, 0.33333, 0, 0)"
        stroke="#ffffff"/>
    <path fill="#ffffff" d="M1169,-1613 L1149,-1613 L1159,-1625 L1169,-1613 Z" transform="matrix(0.33333, 0, 0, 0.33333, 0, 0)"
        stroke="#ffffff"/>
    <path fill="none" d="M1143,-1572 L1170,-1572" stroke-width="6" transform="matrix(0.33333, 0, 0, 0.33333, 0, 0)"
        stroke="#ffffff"/>
    <path fill="#ffffff" d="M1170,-1561 L1170,-1581 L1182,-1571 L1170,-1561 Z" transform="matrix(0.33333, 0, 0, 0.33333, 0, 0)"
        stroke="#ffffff"/>
    <path stroke-width="2" d="M1279,-1633 L1103,-1633 L1124,-1651 L1297,-1651 L1297,-1650 L1297,-1568 L1280,-1550 
        L1280,-1633 L1279,-1633 Z" transform="matrix(0.33333, 0, 0, 0.33333, 0, 0)"/>
    <path fill="none" d="M1280,-1633 L1298,-1651" stroke-width="2" transform="matrix(0.33333, 0, 0, 0.33333, 0, 0)"/>
    <path fill="none" d="M1191,-1614 L1191,-1566" stroke-width="4" transform="matrix(0.33333, 0, 0, 0.33333, 0, 0)"
        stroke="#ffffff"/>
</svg>