<?xml version="1.0" standalone="no"?>
<!DOCTYPE svg PUBLIC "-//W3C//DTD SVG 1.0//EN"
    "http://www.w3.org/TR/2001/REC-SVG-20010904/DTD/svg10.dtd">
<?xml-stylesheet type="text/css" href="..\cisco_network.css" ?>
<svg contentScriptType="text/ecmascript" zoomAndPan="magnify" xmlns:xlink="http://www.w3.org/1999/xlink" baseProfile="full"
    contentStyleType="text/css" enable-background="new" version="1.0" width="40.7622" preserveAspectRatio="none"
    viewBox="384.99 -566.02 46.016 38.016" height="33.6756" xmlns="http://www.w3.org/2000/svg"
    color-interpolation-filters="sRGB" x="0" y="1.5">
    <path d="M1276,-1584 L1291,-1595 L1229,-1696 L1214,-1687 Z" stroke-width="2.54" transform="matrix(0.33333, 0, 0, 0.33333, 0, 0)"
        stroke="none"/>
    <path fill="none" d="M1276,-1584 L1291,-1595 L1229,-1696 L1214,-1687" stroke-width="2" transform="matrix(0.33333, 0, 0, 0.33333, 0, 0)"/>
    <path d="M1156,-1585 L1276,-1585 L1213,-1686 L1156,-1585 L1156,-1585 Z" stroke-width="2" transform="matrix(0.33333, 0, 0, 0.33333, 0, 0)"/>
    <path fill="#ffffff" d="M1214,-1616 C1218,-1616 1222,-1620 1222,-1625 C1222,-1629 1218,-1633 1214,-1633 C1209,-1633 
        1205,-1629 1205,-1625 C1205,-1620 1209,-1616 1214,-1616 Z" stroke-width="2.54" transform="matrix(0.33333, 0, 0, 0.33333, 0, 0)"
        stroke="none"/>
    <path fill="#ffffff" d="M1214,-1648 C1218,-1648 1222,-1652 1222,-1656 C1222,-1661 1218,-1665 1214,-1665 C1209,-1665 
        1205,-1661 1205,-1656 C1205,-1652 1209,-1648 1214,-1648 Z" stroke-width="2.54" transform="matrix(0.33333, 0, 0, 0.33333, 0, 0)"
        stroke="none"/>
    <path fill="#ffffff" d="M1237,-1593 C1242,-1593 1246,-1596 1246,-1601 C1246,-1606 1242,-1610 1237,-1610 C1232,-1610 
        1228,-1606 1228,-1601 C1228,-1596 1232,-1593 1237,-1593 Z" stroke-width="2.54" transform="matrix(0.33333, 0, 0, 0.33333, 0, 0)"
        stroke="none"/>
    <path fill="#ffffff" d="M1190,-1593 C1195,-1593 1199,-1597 1199,-1601 C1199,-1606 1195,-1610 1190,-1610 C1186,-1610 
        1182,-1606 1182,-1601 C1182,-1597 1186,-1593 1190,-1593 Z" stroke-width="2.54" transform="matrix(0.33333, 0, 0, 0.33333, 0, 0)"
        stroke="none"/>
    <path fill="none" d="M1213,-1655 L1213,-1625 L1190,-1601 M1213,-1624 L1235,-1602" stroke-width="4" transform="matrix(0.33333, 0, 0, 0.33333, 0, 0)"
        stroke="#ffffff"/>
</svg>