<?xml version="1.0" standalone="no"?>
<!DOCTYPE svg PUBLIC "-//W3C//DTD SVG 1.0//EN"
    "http://www.w3.org/TR/2001/REC-SVG-20010904/DTD/svg10.dtd">
<?xml-stylesheet type="text/css" href="..\cisco_network.css" ?>
<svg contentScriptType="text/ecmascript" zoomAndPan="magnify" xmlns:xlink="http://www.w3.org/1999/xlink" baseProfile="full"
    contentStyleType="text/css" enable-background="new" version="1.0" width="30.1039" preserveAspectRatio="none"
    viewBox="394.02 -576 33.984 44" height="38.9764" xmlns="http://www.w3.org/2000/svg" color-interpolation-filters="sRGB"
    x="0" y="1.5">
    <path d="M1282,-1728 L1265,-1712 L1186,-1712 L1206,-1728 L1282,-1728 Z" stroke-width="2" transform="matrix(0.33333, 0, 0, 0.33333, 0, 0)"/>
    <path d="M1265,-1633 L1265,-1712 L1186,-1712 L1186,-1633 L1265,-1633 Z" stroke-width="2.54" transform="matrix(0.33333, 0, 0, 0.33333, 0, 0)"
        stroke="none"/>
    <path d="M1265,-1633 L1265,-1712 L1186,-1712 L1186,-1633 L1265,-1633 Z" stroke-width="2" transform="matrix(0.33333, 0, 0, 0.33333, 0, 0)"/>
    <path fill="none" d="M1265,-1633 L1265,-1712 L1186,-1712 L1186,-1633 L1265,-1633 Z" stroke-width="2" transform="matrix(0.33333, 0, 0, 0.33333, 0, 0)"/>
    <path d="M1265,-1600 L1265,-1634 L1186,-1634 L1186,-1600 L1265,-1600 Z" stroke-width="2" transform="matrix(0.33333, 0, 0, 0.33333, 0, 0)"/>
    <path d="M1280,-1648 L1280,-1727 L1265,-1712 L1265,-1633 L1280,-1648 Z" stroke-width="2.54" transform="matrix(0.33333, 0, 0, 0.33333, 0, 0)"
        stroke="none"/>
    <path d="M1280,-1648 L1280,-1727 L1265,-1712 L1265,-1633 L1280,-1648 Z" stroke-width="2" transform="matrix(0.33333, 0, 0, 0.33333, 0, 0)"/>
    <path fill="none" d="M1280,-1648 L1280,-1727 L1265,-1712 L1265,-1633 L1280,-1648 Z" stroke-width="2" transform="matrix(0.33333, 0, 0, 0.33333, 0, 0)"/>
    <path d="M1280,-1615 L1280,-1649 L1265,-1634 L1265,-1600 L1280,-1615 Z" stroke-width="2" transform="matrix(0.33333, 0, 0, 0.33333, 0, 0)"/>
    <path fill="#ffffff" d="M1214,-1675 L1197,-1675 L1197,-1679 L1190,-1673 L1197,-1666 L1197,-1671 L1214,-1671 
        L1214,-1675 Z M1224,-1661 L1224,-1644 L1219,-1644 L1226,-1637 L1232,-1644 L1228,-1644 L1228,-1661 L1224,-1661 Z 
        M1224,-1684 L1224,-1701 L1219,-1701 L1226,-1708 L1232,-1701 L1228,-1701 L1228,-1684 L1224,-1684 Z M1237,-1671 
        L1255,-1671 L1255,-1666 L1261,-1673 L1255,-1679 L1255,-1675 L1237,-1675 L1237,-1671 Z" stroke-width="2.54"
        transform="matrix(0.33333, 0, 0, 0.33333, 0, 0)" stroke="none"/>
    <path fill="none" stroke-width="2" d="M1253,-1645 C1250,-1642 1235,-1651 1220,-1666 C1205,-1681 1196,-1696 
        1199,-1699 C1202,-1703 1217,-1693 1232,-1679 C1247,-1664 1256,-1649 1253,-1645 Z" transform="matrix(0.33333, 0, 0, 0.33333, 0, 0)"
        stroke="#ffffff"/>
    <path fill="none" d="M1252,-1700 C1256,-1696 1246,-1682 1231,-1667 C1217,-1652 1202,-1642 1198,-1645 C1195,-1648 
        1204,-1663 1219,-1678 C1234,-1693 1249,-1703 1252,-1700 Z" stroke-width="2" transform="matrix(0.33333, 0, 0, 0.33333, 0, 0)"
        stroke="#ffffff"/>
    <path stroke-linecap="round" transform="matrix(0.33333, 0, 0, 0.33333, 0, 0)" fill="none" stroke-linejoin="round" d=
        "M1186,-1709 L1186,-1598" stroke="#ffffff" stroke-width="2"/>
    <path fill="#b5b5b5" d="M1233,-1663 C1238,-1667 1240,-1675 1236,-1680 C1232,-1686 1224,-1687 1218,-1683 C1213,-1679 
        1211,-1672 1215,-1666 C1219,-1660 1227,-1659 1233,-1663 Z" stroke-width="2.54" transform="matrix(0.33333, 0, 0, 0.33333, 0, 0)"
        stroke="none"/>
</svg>