<?xml version="1.0" standalone="no"?>
<!DOCTYPE svg PUBLIC "-//W3C//DTD SVG 1.0//EN"
    "http://www.w3.org/TR/2001/REC-SVG-20010904/DTD/svg10.dtd">
<?xml-stylesheet type="text/css" href="..\cisco_network.css" ?>
<svg contentScriptType="text/ecmascript" zoomAndPan="magnify" xmlns:xlink="http://www.w3.org/1999/xlink" baseProfile="full"
    contentStyleType="text/css" enable-background="new" version="1.0" width="51.3921" preserveAspectRatio="none"
    viewBox="380.99 -568 58.016 41.984" height="37.1906" xmlns="http://www.w3.org/2000/svg" color-interpolation-filters="sRGB"
    x="0" y="1.5">
    <path d="M1145,-1579 L1298,-1579 L1298,-1679 L1145,-1679 L1145,-1579 Z M1316,-1605 L1298,-1579 L1298,-1679 
        L1316,-1701 L1316,-1605 Z M1172,-1701 L1316,-1701 L1298,-1679 L1145,-1679 L1172,-1701 Z" stroke-width="2"
        transform="matrix(0.33333, 0, 0, 0.33333, 0, 0)"/>
    <path fill="#ffffff" d="M1192,-1625 L1167,-1625 L1167,-1629 L1192,-1629 L1192,-1636 L1207,-1627 L1192,-1619 
        L1192,-1625 Z M1246,-1625 L1220,-1625 L1220,-1629 L1246,-1629 L1246,-1636 L1260,-1627 L1246,-1619 L1246,-1625 Z 
        M1241,-1646 L1220,-1632 L1218,-1635 L1239,-1649 L1235,-1654 L1252,-1655 L1245,-1640 L1241,-1646 Z M1241,-1609 
        L1220,-1623 L1218,-1619 L1239,-1606 L1235,-1600 L1252,-1599 L1245,-1614 L1241,-1609 Z" stroke-width="2.54"
        transform="matrix(0.33333, 0, 0, 0.33333, 0, 0)" stroke="none"/>
    <path fill="none" stroke-width="2" d="M1200,-1660 C1175,-1665 1162,-1652 1164,-1642 C1165,-1641 1165,-1641 
        1165,-1641 C1145,-1638 1150,-1615 1160,-1615 C1160,-1615 1160,-1615 1160,-1615 C1158,-1604 1181,-1594 1193,-1599 
        C1194,-1600 1194,-1600 1194,-1600 C1198,-1590 1214,-1589 1230,-1588 C1243,-1588 1251,-1589 1257,-1595 
        C1258,-1595 1258,-1595 1258,-1595 C1280,-1593 1290,-1608 1285,-1619 C1286,-1619 1286,-1619 1286,-1619 
        C1294,-1621 1294,-1638 1282,-1641 C1282,-1641 1282,-1641 1282,-1641 C1287,-1653 1274,-1663 1256,-1661 
        C1255,-1662 1255,-1662 1255,-1662 C1242,-1673 1205,-1671 1201,-1660 Z" transform="matrix(0.33333, 0, 0, 0.33333, 0, 0)"
        stroke="#ffffff"/>
</svg>