<?xml version="1.0" standalone="no"?>
<!DOCTYPE svg PUBLIC "-//W3C//DTD SVG 1.0//EN"
    "http://www.w3.org/TR/2001/REC-SVG-20010904/DTD/svg10.dtd">
<?xml-stylesheet type="text/css" href="..\cisco_network.css" ?>
<svg contentScriptType="text/ecmascript" zoomAndPan="magnify" xmlns:xlink="http://www.w3.org/1999/xlink" baseProfile="full"
    contentStyleType="text/css" enable-background="new" version="1.0" width="21.2598" preserveAspectRatio="none"
    viewBox="398.02 -544.99 24 1.984" height="1.75748" xmlns="http://www.w3.org/2000/svg" color-interpolation-filters="sRGB"
    x="0" y="1.5">
    <path d="M1200,-1628 C1197,-1628 1195,-1630 1195,-1632 C1195,-1634 1197,-1636 1200,-1636 C1202,-1636 1204,-1634 
        1204,-1632 C1204,-1630 1202,-1628 1200,-1628 Z M1220,-1628 C1218,-1628 1216,-1630 1216,-1632 C1216,-1634 
        1218,-1636 1220,-1636 C1222,-1636 1224,-1634 1224,-1632 C1224,-1630 1222,-1628 1220,-1628 Z M1240,-1628 
        C1238,-1628 1236,-1630 1236,-1632 C1236,-1634 1238,-1636 1240,-1636 C1243,-1636 1245,-1634 1245,-1632 
        C1245,-1630 1243,-1628 1240,-1628 Z M1262,-1628 C1260,-1628 1258,-1630 1258,-1632 C1258,-1634 1260,-1636 
        1262,-1636 C1264,-1636 1266,-1634 1266,-1632 C1266,-1630 1264,-1628 1262,-1628 Z" transform="matrix(0.33333, 0, 0, 0.33333, 0, 0)"
        stroke="none"/>
</svg>