<?xml version="1.0" standalone="no"?>
<!DOCTYPE svg PUBLIC "-//W3C//DTD SVG 1.0//EN"
    "http://www.w3.org/TR/2001/REC-SVG-20010904/DTD/svg10.dtd">
<?xml-stylesheet type="text/css" href="..\cisco_network.css" ?>
<svg contentScriptType="text/ecmascript" zoomAndPan="magnify" xmlns:xlink="http://www.w3.org/1999/xlink" baseProfile="full"
    contentStyleType="text/css" enable-background="new" version="1.0" width="43.3984" preserveAspectRatio="none"
    viewBox="386.02 -566.02 48.992 35.008" height="31.011" xmlns="http://www.w3.org/2000/svg"
    color-interpolation-filters="sRGB" x="0" y="1.5">
    <path fill="none" d="M1270,-1615 C1270,-1615 1262,-1595 1253,-1615 C1244,-1636 1236,-1615 1236,-1615 C1236,-1615 
        1228,-1595 1219,-1615 C1209,-1636 1201,-1615 1201,-1615 C1201,-1615 1194,-1595 1184,-1615 C1175,-1636 1167,-1615 
        1167,-1615" stroke-width="2" transform="matrix(0.33333, 0, 0, 0.33333, 0, 0)" stroke-linecap="round"/>
    <path fill="none" d="M1167,-1615 C1167,-1615 1175,-1595 1184,-1615 C1194,-1636 1201,-1615 1201,-1615 C1201,-1615 
        1209,-1595 1219,-1615 C1228,-1636 1236,-1615 1236,-1615 C1236,-1615 1244,-1595 1253,-1615 C1262,-1636 1270,-1615 
        1270,-1615" stroke-width="4" transform="matrix(0.33333, 0, 0, 0.33333, 0, 0)" stroke-linecap="round"/>
    <path fill="none" d="M1272,-1615 C1272,-1615 1264,-1595 1255,-1615 C1245,-1636 1238,-1615 1238,-1615 C1238,-1615 
        1230,-1595 1220,-1615 C1211,-1636 1203,-1615 1203,-1615 C1203,-1615 1195,-1595 1186,-1615 C1177,-1636 1169,-1615 
        1169,-1615" stroke-width="2" transform="matrix(0.33333, 0, 0, 0.33333, 0, 0)" stroke-linecap="round" stroke="#000000"/>
    <path fill="none" d="M1169,-1615 C1169,-1615 1177,-1595 1186,-1615 C1195,-1636 1203,-1615 1203,-1615 C1203,-1615 
        1211,-1595 1220,-1615 C1230,-1636 1238,-1615 1238,-1615 C1238,-1615 1245,-1595 1255,-1615 C1264,-1636 1272,-1615 
        1272,-1615" stroke-width="4" transform="matrix(0.33333, 0, 0, 0.33333, 0, 0)" stroke-linecap="round" stroke="#000000"/>
    <path fill="none" d="M1270,-1615 C1270,-1615 1262,-1595 1253,-1615 C1244,-1636 1236,-1615 1236,-1615 C1236,-1615 
        1228,-1595 1219,-1615 C1209,-1636 1201,-1615 1201,-1615 C1201,-1615 1194,-1595 1184,-1615 C1175,-1636 1167,-1615 
        1167,-1615" stroke-width="2" transform="matrix(0.33333, 0, 0, 0.33333, 0, 0)" stroke-linecap="round"/>
    <path fill="none" d="M1167,-1615 C1167,-1615 1175,-1595 1184,-1615 C1194,-1636 1201,-1615 1201,-1615 C1201,-1615 
        1209,-1595 1219,-1615 C1228,-1636 1236,-1615 1236,-1615 C1236,-1615 1244,-1595 1253,-1615 C1262,-1636 1270,-1615 
        1270,-1615" stroke-width="4" transform="matrix(0.33333, 0, 0, 0.33333, 0, 0)" stroke-linecap="round"/>
    <path d="M1159,-1674 L1190,-1697 L1302,-1697 L1280,-1674 L1159,-1674 Z M1280,-1596 L1302,-1619 L1302,-1697 
        L1280,-1674 L1280,-1596 Z M1280,-1596 L1280,-1674 L1159,-1674 L1159,-1596 L1280,-1596 Z" stroke-width="2"
        transform="matrix(0.33333, 0, 0, 0.33333, 0, 0)"/>
    <path fill="none" d="M1270,-1654 C1270,-1654 1262,-1634 1253,-1654 C1244,-1674 1236,-1654 1236,-1654 C1236,-1654 
        1228,-1634 1219,-1654 C1209,-1674 1201,-1654 1201,-1654 C1201,-1654 1194,-1634 1184,-1654 C1175,-1674 1167,-1654 
        1167,-1654" stroke-width="2" transform="matrix(0.33333, 0, 0, 0.33333, 0, 0)" stroke-linecap="round"/>
    <path fill="none" d="M1167,-1654 C1167,-1654 1175,-1634 1184,-1654 C1194,-1674 1201,-1654 1201,-1654 C1201,-1654 
        1209,-1634 1219,-1654 C1228,-1674 1236,-1654 1236,-1654 C1236,-1654 1244,-1634 1253,-1654 C1262,-1674 1270,-1654 
        1270,-1654" stroke-width="4" transform="matrix(0.33333, 0, 0, 0.33333, 0, 0)" stroke-linecap="round"/>
    <path fill="none" d="M1272,-1654 C1272,-1654 1264,-1634 1255,-1654 C1245,-1674 1238,-1654 1238,-1654 C1238,-1654 
        1230,-1634 1220,-1654 C1211,-1674 1203,-1654 1203,-1654 C1203,-1654 1195,-1634 1186,-1654 C1177,-1674 1169,-1654 
        1169,-1654" stroke-width="2" transform="matrix(0.33333, 0, 0, 0.33333, 0, 0)" stroke-linecap="round" stroke="#000000"/>
    <path fill="none" d="M1169,-1654 C1169,-1654 1177,-1634 1186,-1654 C1195,-1674 1203,-1654 1203,-1654 C1203,-1654 
        1211,-1634 1220,-1654 C1230,-1674 1238,-1654 1238,-1654 C1238,-1654 1245,-1634 1255,-1654 C1264,-1674 1272,-1654 
        1272,-1654" stroke-width="4" transform="matrix(0.33333, 0, 0, 0.33333, 0, 0)" stroke-linecap="round" stroke="#000000"/>
    <path fill="none" d="M1270,-1654 C1270,-1654 1262,-1634 1253,-1654 C1244,-1674 1236,-1654 1236,-1654 C1236,-1654 
        1228,-1634 1219,-1654 C1209,-1674 1201,-1654 1201,-1654 C1201,-1654 1194,-1634 1184,-1654 C1175,-1674 1167,-1654 
        1167,-1654" stroke-width="2" transform="matrix(0.33333, 0, 0, 0.33333, 0, 0)" stroke-linecap="round"/>
    <path fill="none" d="M1167,-1654 C1167,-1654 1175,-1634 1184,-1654 C1194,-1674 1201,-1654 1201,-1654 C1201,-1654 
        1209,-1634 1219,-1654 C1228,-1674 1236,-1654 1236,-1654 C1236,-1654 1244,-1634 1253,-1654 C1262,-1674 1270,-1654 
        1270,-1654" stroke-width="4" transform="matrix(0.33333, 0, 0, 0.33333, 0, 0)" stroke-linecap="round"/>
    <path fill="none" d="M1272,-1654 C1272,-1654 1264,-1634 1255,-1654 C1245,-1674 1238,-1654 1238,-1654 C1238,-1654 
        1230,-1634 1220,-1654 C1211,-1674 1203,-1654 1203,-1654 C1203,-1654 1195,-1634 1186,-1654 C1177,-1674 1169,-1654 
        1169,-1654" stroke-width="2" transform="matrix(0.33333, 0, 0, 0.33333, 0, 0)" stroke-linecap="round" stroke="#000000"/>
    <path fill="none" d="M1169,-1654 C1169,-1654 1177,-1634 1186,-1654 C1195,-1674 1203,-1654 1203,-1654 C1203,-1654 
        1211,-1634 1220,-1654 C1230,-1674 1238,-1654 1238,-1654 C1238,-1654 1245,-1634 1255,-1654 C1264,-1674 1272,-1654 
        1272,-1654" stroke-width="4" transform="matrix(0.33333, 0, 0, 0.33333, 0, 0)" stroke-linecap="round" stroke="#000000"/>
    <path fill="none" d="M1270,-1654 C1270,-1654 1262,-1634 1253,-1654 C1244,-1674 1236,-1654 1236,-1654 C1236,-1654 
        1228,-1634 1219,-1654 C1209,-1674 1201,-1654 1201,-1654 C1201,-1654 1194,-1634 1184,-1654 C1175,-1674 1167,-1654 
        1167,-1654" stroke-width="2" transform="matrix(0.33333, 0, 0, 0.33333, 0, 0)" stroke="#ffffff" stroke-linecap="round"/>
    <path fill="none" d="M1167,-1654 C1167,-1654 1175,-1634 1184,-1654 C1194,-1674 1201,-1654 1201,-1654 C1201,-1654 
        1209,-1634 1219,-1654 C1228,-1674 1236,-1654 1236,-1654 C1236,-1654 1244,-1634 1253,-1654 C1262,-1674 1270,-1654 
        1270,-1654" stroke-width="4" transform="matrix(0.33333, 0, 0, 0.33333, 0, 0)" stroke-linecap="round" stroke="#ffffff"/>
    <path fill="none" d="M1272,-1615 C1272,-1615 1264,-1595 1255,-1615 C1245,-1636 1238,-1615 1238,-1615 C1238,-1615 
        1230,-1595 1220,-1615 C1211,-1636 1203,-1615 1203,-1615 C1203,-1615 1195,-1595 1186,-1615 C1177,-1636 1169,-1615 
        1169,-1615" stroke-width="2" transform="matrix(0.33333, 0, 0, 0.33333, 0, 0)" stroke-linecap="round" stroke="#000000"/>
    <path fill="none" d="M1169,-1615 C1169,-1615 1177,-1595 1186,-1615 C1195,-1636 1203,-1615 1203,-1615 C1203,-1615 
        1211,-1595 1220,-1615 C1230,-1636 1238,-1615 1238,-1615 C1238,-1615 1245,-1595 1255,-1615 C1264,-1636 1272,-1615 
        1272,-1615" stroke-width="4" transform="matrix(0.33333, 0, 0, 0.33333, 0, 0)" stroke-linecap="round" stroke="#000000"/>
    <path fill="none" d="M1270,-1615 C1270,-1615 1262,-1595 1253,-1615 C1244,-1636 1236,-1615 1236,-1615 C1236,-1615 
        1228,-1595 1219,-1615 C1209,-1636 1201,-1615 1201,-1615 C1201,-1615 1194,-1595 1184,-1615 C1175,-1636 1167,-1615 
        1167,-1615" stroke-width="2" transform="matrix(0.33333, 0, 0, 0.33333, 0, 0)" stroke="#ffffff" stroke-linecap="round"/>
    <path fill="none" d="M1167,-1615 C1167,-1615 1175,-1595 1184,-1615 C1194,-1636 1201,-1615 1201,-1615 C1201,-1615 
        1209,-1595 1219,-1615 C1228,-1636 1236,-1615 1236,-1615 C1236,-1615 1244,-1595 1253,-1615 C1262,-1636 1270,-1615 
        1270,-1615" stroke-width="4" transform="matrix(0.33333, 0, 0, 0.33333, 0, 0)" stroke-linecap="round" stroke="#ffffff"/>
</svg>