<?xml version="1.0" standalone="no"?>
<!DOCTYPE svg PUBLIC "-//W3C//DTD SVG 1.0//EN"
    "http://www.w3.org/TR/2001/REC-SVG-20010904/DTD/svg10.dtd">
<?xml-stylesheet type="text/css" href="..\cisco_network.css" ?>
<svg contentScriptType="text/ecmascript" zoomAndPan="magnify" xmlns:xlink="http://www.w3.org/1999/xlink" baseProfile="full"
    contentStyleType="text/css" enable-background="new" version="1.0" width="29.2252" preserveAspectRatio="none"
    viewBox="392 -568.99 32.992 45.984" height="40.7339" xmlns="http://www.w3.org/2000/svg" color-interpolation-filters="sRGB"
    x="0" y="1.5">
    <path d="M1218,-1669 L1198,-1701 L1203,-1707 L1225,-1675 L1218,-1669 Z M1198,-1573 L1218,-1605 L1218,-1669 
        L1198,-1701 L1198,-1573 L1198,-1573 Z" stroke-width="2" transform="matrix(0.33333, 0, 0, 0.33333, 0, 0)"/>
    <path d="M1218,-1605 L1218,-1669 Z" stroke-width="2.54" transform="matrix(0.33333, 0, 0, 0.33333, 0, 0)" stroke="none"/>
    <path fill="none" d="M1218,-1605 L1218,-1669" stroke-width="2" transform="matrix(0.33333, 0, 0, 0.33333, 0, 0)"/>
    <path d="M1218,-1605 L1218,-1669 Z" stroke-width="2.54" transform="matrix(0.33333, 0, 0, 0.33333, 0, 0)" stroke="none"/>
    <path fill="none" d="M1218,-1605 L1218,-1669" stroke-width="2" transform="matrix(0.33333, 0, 0, 0.33333, 0, 0)"/>
    <path d="M1250,-1605 L1250,-1669 L1256,-1675 L1256,-1611 L1250,-1605 Z M1250,-1669 L1219,-1669 L1225,-1675 
        L1256,-1675 L1250,-1669 Z M1219,-1669 L1219,-1605 L1250,-1605 L1250,-1669 L1219,-1669 L1219,-1669 Z"
        stroke-width="2" transform="matrix(0.33333, 0, 0, 0.33333, 0, 0)"/>
    <path fill="#000000" d="M1219,-1605 L1250,-1605 Z" stroke-width="2.54" transform="matrix(0.33333, 0, 0, 0.33333, 0, 0)"
        stroke="none"/>
    <path fill="none" d="M1219,-1605 L1250,-1605" transform="matrix(0.33333, 0, 0, 0.33333, 0, 0)" stroke-linejoin="round"
        stroke-linecap="round"/>
    <path d="M1250,-1605 L1250,-1669 Z" stroke-width="2.54" transform="matrix(0.33333, 0, 0, 0.33333, 0, 0)" stroke="none"/>
    <path fill="none" d="M1250,-1605 L1250,-1669" stroke-width="2" transform="matrix(0.33333, 0, 0, 0.33333, 0, 0)"/>
    <path fill="none" d="M1250,-1669 L1219,-1669" stroke-width="2" transform="matrix(0.33333, 0, 0, 0.33333, 0, 0)"
        stroke="#ffffff"/>
    <path fill="none" d="M1219,-1605 L1250,-1605" transform="matrix(0.33333, 0, 0, 0.33333, 0, 0)" stroke-linejoin="round"
        stroke-linecap="round"/>
    <path fill="none" d="M1250,-1605 L1250,-1669" stroke-width="2" transform="matrix(0.33333, 0, 0, 0.33333, 0, 0)"
        stroke="#ffffff"/>
    <path fill="none" d="M1250,-1669 L1219,-1669" stroke-width="2" transform="matrix(0.33333, 0, 0, 0.33333, 0, 0)"/>
    <path fill="none" d="M1218,-1641 L1198,-1675 M1218,-1641 L1198,-1654 M1218,-1640 L1198,-1606 M1218,-1640 L1198,-1627 
        M1218,-1641 L1198,-1641" transform="matrix(0.33333, 0, 0, 0.33333, 0, 0)" stroke-linejoin="round"
        stroke-linecap="round"/>
    <path stroke-linecap="round" transform="matrix(0.33333, 0, 0, 0.33333, 0, 0)" fill="none" stroke-linejoin="round" d=
        "M1198,-1675 L1178,-1675 M1198,-1654 L1178,-1654 M1198,-1640 L1178,-1640 M1198,-1628 L1178,-1628 M1198,-1606 
        L1178,-1606" stroke="#036c9b" stroke-width="2"/>
    <path fill="none" d="M1274,-1640 L1253,-1640" stroke-width="7" transform="matrix(0.33333, 0, 0, 0.33333, 0, 0)"
        stroke="#036c9b" stroke-linejoin="round"/>
</svg>