<?xml version="1.0" standalone="no"?>
<!DOCTYPE svg PUBLIC "-//W3C//DTD SVG 1.0//EN"
    "http://www.w3.org/TR/2001/REC-SVG-20010904/DTD/svg10.dtd">
<?xml-stylesheet type="text/css" href="..\cisco_network.css" ?>
<svg contentScriptType="text/ecmascript" zoomAndPan="magnify" xmlns:xlink="http://www.w3.org/1999/xlink" baseProfile="full"
    contentStyleType="text/css" enable-background="new" version="1.0" width="70.8661" preserveAspectRatio="none"
    viewBox="368.99 -560.99 80 38.976" height="34.526" xmlns="http://www.w3.org/2000/svg" color-interpolation-filters="sRGB"
    x="0" y="1.5">
    <path d="M1108,-1569 L1108,-1622 L1267,-1622 L1267,-1569 L1108,-1569 Z M1108,-1622 L1267,-1622 L1292,-1647 
        L1139,-1647 L1108,-1622 Z M1267,-1569 L1292,-1598 L1292,-1647 L1267,-1622 L1267,-1569 Z M1152,-1653 L1150,-1642 
        L1169,-1642 L1167,-1653 L1152,-1653 Z M1127,-1636 L1125,-1625 L1145,-1625 L1143,-1636 L1127,-1636 Z M1154,-1640 
        L1166,-1640 L1163,-1646 L1154,-1640 Z" stroke-width="2" transform="matrix(0.33333, 0, 0, 0.33333, 0, 0)"/>
    <path d="M1152,-1653 C1139,-1654 1127,-1639 1127,-1636 C1143,-1636 1143,-1636 1143,-1636 C1143,-1639 1154,-1654 
        1167,-1653 Z" stroke-width="2" transform="matrix(0.33333, 0, 0, 0.33333, 0, 0)"/>
    <path d="M1169,-1642 C1166,-1640 1166,-1640 1166,-1640 C1163,-1646 1163,-1646 1163,-1646 C1153,-1639 1153,-1639 
        1153,-1639 C1152,-1630 1152,-1630 1152,-1630 C1145,-1625 1145,-1625 1145,-1625 C1143,-1636 1143,-1636 1143,-1636 
        C1143,-1639 1154,-1654 1167,-1653 Z" stroke-width="2" transform="matrix(0.33333, 0, 0, 0.33333, 0, 0)"/>
    <path d="M1189,-1682 L1164,-1656 L1167,-1656 L1192,-1682 L1189,-1682 Z M1214,-1647 L1189,-1622 L1167,-1656 
        L1192,-1682 L1214,-1647 Z" stroke-width="2" transform="matrix(0.33333, 0, 0, 0.33333, 0, 0)"/>
    <path stroke-width="2" d="M1185,-1622 L1164,-1656 L1167,-1656 L1189,-1622 L1185,-1622 Z" transform="matrix(0.33333, 0, 0, 0.33333, 0, 0)"/>
    <path stroke-width="2" d="M1346,-1639 L1321,-1613 L1267,-1594 L1293,-1620 L1346,-1639 Z M1346,-1635 L1321,-1609 
        L1321,-1613 L1346,-1639 L1346,-1635 Z M1267,-1594 L1267,-1591 L1321,-1609 L1321,-1613 L1267,-1594 Z" transform="matrix(0.33333, 0, 0, 0.33333, 0, 0)"/>
    <path fill="none" stroke-width="2" d="M1188,-1676 L1209,-1643" transform="matrix(0.33333, 0, 0, 0.33333, 0, 0)"/>
    <path fill="none" stroke-width="2" d="M1183,-1671 L1204,-1638" transform="matrix(0.33333, 0, 0, 0.33333, 0, 0)"/>
    <path fill="none" stroke-width="2" d="M1178,-1666 L1198,-1633" transform="matrix(0.33333, 0, 0, 0.33333, 0, 0)"/>
    <path fill="none" stroke-width="2" d="M1173,-1661 L1193,-1628" transform="matrix(0.33333, 0, 0, 0.33333, 0, 0)"/>
</svg>