<?xml version="1.0" standalone="no"?>
<!DOCTYPE svg PUBLIC "-//W3C//DTD SVG 1.0//EN"
    "http://www.w3.org/TR/2001/REC-SVG-20010904/DTD/svg10.dtd">
<?xml-stylesheet type="text/css" href="..\cisco_network.css" ?>
<svg contentScriptType="text/ecmascript" zoomAndPan="magnify" xmlns:xlink="http://www.w3.org/1999/xlink" baseProfile="full"
    contentStyleType="text/css" enable-background="new" version="1.0" width="43.3984" preserveAspectRatio="none"
    viewBox="386.02 -556 48.992 28.992" height="25.6819" xmlns="http://www.w3.org/2000/svg" color-interpolation-filters="sRGB"
    x="0" y="1.5">
    <path d="M1292,-1583 L1292,-1654 L1159,-1654 L1159,-1583 L1292,-1583 Z" stroke-width="2" transform="matrix(0.33333, 0, 0, 0.33333, 0, 0)"/>
    <path d="M1292,-1583 L1292,-1654 L1159,-1654 L1159,-1583 L1292,-1583 Z" stroke-width="2.54" transform="matrix(0.33333, 0, 0, 0.33333, 0, 0)"
        stroke="none"/>
    <path fill="none" d="M1292,-1583 L1292,-1654 L1159,-1654 L1159,-1583 L1292,-1583" stroke-width="2" transform="matrix(0.33333, 0, 0, 0.33333, 0, 0)"/>
    <path d="M1159,-1654 L1170,-1665 L1303,-1665 L1292,-1654 L1159,-1654 Z" stroke-width="2" transform="matrix(0.33333, 0, 0, 0.33333, 0, 0)"/>
    <path d="M1159,-1654 L1170,-1665 L1303,-1665 L1292,-1654 L1159,-1654 Z" stroke-width="2.54" transform="matrix(0.33333, 0, 0, 0.33333, 0, 0)"
        stroke="none"/>
    <path fill="none" d="M1159,-1654 L1170,-1665 L1303,-1665 L1292,-1654 L1159,-1654" stroke-width="2" transform="matrix(0.33333, 0, 0, 0.33333, 0, 0)"/>
    <path d="M1292,-1583 L1303,-1591 L1303,-1665 L1292,-1654 L1292,-1583 Z" stroke-width="2" transform="matrix(0.33333, 0, 0, 0.33333, 0, 0)"/>
    <path d="M1292,-1583 L1303,-1591 L1303,-1665 L1292,-1654 L1292,-1583 Z" stroke-width="2.54" transform="matrix(0.33333, 0, 0, 0.33333, 0, 0)"
        stroke="none"/>
    <path fill="none" d="M1292,-1583 L1303,-1591 L1303,-1665 L1292,-1654 L1292,-1583" stroke-width="2" transform="matrix(0.33333, 0, 0, 0.33333, 0, 0)"/>
    <path d="M1170,-1630 L1170,-1606 L1173,-1603 L1197,-1603 L1200,-1606 L1200,-1630 L1197,-1633 L1173,-1633 L1170,-1630 
        Z" stroke-width="2" fill-rule="evenodd" transform="matrix(0.33333, 0, 0, 0.33333, 0, 0)"/>
    <path d="M1170,-1630 L1170,-1606 L1173,-1603 L1197,-1603 L1200,-1606 L1200,-1630 L1197,-1633 L1173,-1633 L1170,-1630 
        Z" stroke-width="2.54" transform="matrix(0.33333, 0, 0, 0.33333, 0, 0)" stroke="none"/>
    <path fill="none" d="M1170,-1630 L1170,-1606 L1173,-1603 L1197,-1603 L1200,-1606 L1200,-1630 L1197,-1633 L1173,-1633 
        L1170,-1630" stroke-width="2" transform="matrix(0.33333, 0, 0, 0.33333, 0, 0)" stroke="#ffffff"/>
    <path d="M1170,-1630 L1173,-1627 L1186,-1625 L1197,-1627 L1200,-1630 Z" stroke-width="2.54" transform="matrix(0.33333, 0, 0, 0.33333, 0, 0)"
        stroke="none"/>
    <path fill="none" d="M1170,-1630 L1173,-1627 L1186,-1625 L1197,-1627 L1200,-1630" stroke-width="2" transform="matrix(0.33333, 0, 0, 0.33333, 0, 0)"
        stroke="#ffffff"/>
    <path d="M1211,-1630 L1211,-1606 L1213,-1603 L1238,-1603 L1240,-1606 L1240,-1630 L1238,-1633 L1213,-1633 L1211,-1630 
        Z" stroke-width="2" fill-rule="evenodd" transform="matrix(0.33333, 0, 0, 0.33333, 0, 0)"/>
    <path d="M1211,-1630 L1211,-1606 L1213,-1603 L1238,-1603 L1240,-1606 L1240,-1630 L1238,-1633 L1213,-1633 L1211,-1630 
        Z" stroke-width="2.54" transform="matrix(0.33333, 0, 0, 0.33333, 0, 0)" stroke="none"/>
    <path fill="none" d="M1211,-1630 L1211,-1606 L1213,-1603 L1238,-1603 L1240,-1606 L1240,-1630 L1238,-1633 L1213,-1633 
        L1211,-1630" stroke-width="2" transform="matrix(0.33333, 0, 0, 0.33333, 0, 0)" stroke="#ffffff"/>
    <path d="M1211,-1630 L1213,-1627 L1227,-1625 L1238,-1627 L1240,-1630 Z" stroke-width="2.54" transform="matrix(0.33333, 0, 0, 0.33333, 0, 0)"
        stroke="none"/>
    <path fill="none" d="M1211,-1630 L1213,-1627 L1227,-1625 L1238,-1627 L1240,-1630" stroke-width="2" transform="matrix(0.33333, 0, 0, 0.33333, 0, 0)"
        stroke="#ffffff"/>
    <path d="M1251,-1627 L1251,-1606 L1254,-1603 L1267,-1600 L1278,-1603 L1281,-1606 L1281,-1627 L1278,-1630 L1267,-1633 
        L1254,-1630 L1251,-1627 Z" stroke-width="2" fill-rule="evenodd" transform="matrix(0.33333, 0, 0, 0.33333, 0, 0)"/>
    <path d="M1251,-1627 L1251,-1606 L1254,-1603 L1267,-1600 L1278,-1603 L1281,-1606 L1281,-1627 L1278,-1630 L1267,-1633 
        L1254,-1630 L1251,-1627 Z" stroke-width="2.54" transform="matrix(0.33333, 0, 0, 0.33333, 0, 0)" stroke="none"/>
    <path fill="none" d="M1251,-1627 L1251,-1606 L1254,-1603 L1267,-1600 L1278,-1603 L1281,-1606 L1281,-1627 L1278,-1630 
        L1267,-1633 L1254,-1630 L1251,-1627" stroke-width="2" transform="matrix(0.33333, 0, 0, 0.33333, 0, 0)" stroke="#ffffff"/>
    <path d="M1251,-1627 L1254,-1625 L1267,-1625 L1278,-1625 L1281,-1627 Z" stroke-width="2.54" transform="matrix(0.33333, 0, 0, 0.33333, 0, 0)"
        stroke="none"/>
    <path fill="none" d="M1251,-1627 L1254,-1625 L1267,-1625 L1278,-1625 L1281,-1627" stroke-width="2" transform="matrix(0.33333, 0, 0, 0.33333, 0, 0)"
        stroke="#ffffff"/>
</svg>