<?xml version="1.0" standalone="no"?>
<!DOCTYPE svg PUBLIC "-//W3C//DTD SVG 1.0//EN"
    "http://www.w3.org/TR/2001/REC-SVG-20010904/DTD/svg10.dtd">
<?xml-stylesheet type="text/css" href="..\cisco_network.css" ?>
<svg contentScriptType="text/ecmascript" zoomAndPan="magnify" xmlns:xlink="http://www.w3.org/1999/xlink" baseProfile="full"
    contentStyleType="text/css" enable-background="new" version="1.0" width="75.2882" preserveAspectRatio="none"
    viewBox="367.01 -564 84.992 31.008" height="27.4677" xmlns="http://www.w3.org/2000/svg" color-interpolation-filters="sRGB"
    x="0" y="1.5">
    <path fill="none" d="M1264,-1608 C1310,-1608 1347,-1625 1347,-1646 C1347,-1666 1310,-1683 1264,-1683 C1218,-1683 
        1181,-1666 1181,-1646 C1181,-1625 1218,-1608 1264,-1608 Z" stroke-width="2" transform="matrix(0.33333, 0, 0, 0.33333, 0, 0)"
        stroke="#036c9b"/>
    <text font-size="32" transform="matrix(0.33333, 0, 0, 0.33333, 408.68, -544.73)" fill="#000000" font-family="'Helvetica'"
        font-style="normal" stroke="none" font-weight="400" stroke-width="2" xml:space="preserve">FDDI</text>
    <path fill="none" d="M1264,-1601 C1315,-1601 1357,-1621 1357,-1646 C1357,-1671 1315,-1691 1264,-1691 C1213,-1691 
        1171,-1671 1171,-1646 C1171,-1621 1213,-1601 1264,-1601 Z" stroke-width="2" transform="matrix(0.33333, 0, 0, 0.33333, 0, 0)"
        stroke="#036c9b"/>
    <path fill="none" d="M1110,-1640 L1182,-1640 M1100,-1649 L1172,-1649" stroke-width="2" transform="matrix(0.33333, 0, 0, 0.33333, 0, 0)"
        stroke="#036c9b"/>
</svg>