<?xml version="1.0" standalone="no"?>
<!DOCTYPE svg PUBLIC "-//W3C//DTD SVG 1.0//EN"
    "http://www.w3.org/TR/2001/REC-SVG-20010904/DTD/svg10.dtd">
<?xml-stylesheet type="text/css" href="..\cisco_network.css" ?>
<svg contentScriptType="text/ecmascript" zoomAndPan="magnify" xmlns:xlink="http://www.w3.org/1999/xlink" baseProfile="full"
    contentStyleType="text/css" enable-background="new" version="1.0" width="24.8031" preserveAspectRatio="none"
    viewBox="396 -566.02 28 40" height="35.4331" xmlns="http://www.w3.org/2000/svg" color-interpolation-filters="sRGB"
    x="0" y="1.5">
    <path d="M1251,-1679 L1190,-1679 L1190,-1581 L1251,-1581 Z" transform="matrix(0.33333, 0, 0, 0.33333, 0, 0)" stroke="none"/>
    <path fill="none" d="M1251,-1679 L1190,-1679 L1190,-1581 L1251,-1581" transform="matrix(0.33333, 0, 0, 0.33333, 0, 0)"/>
    <path d="M1251,-1581 L1271,-1600 L1271,-1698 L1210,-1698 L1190,-1679 L1251,-1679 L1251,-1581 Z" transform="matrix(0.33333, 0, 0, 0.33333, 0, 0)"
        stroke="none"/>
    <path d="M1251,-1679 L1190,-1679 L1190,-1581 L1251,-1581 Z" transform="matrix(0.33333, 0, 0, 0.33333, 0, 0)" stroke="none"/>
    <path fill="none" d="M1251,-1679 L1190,-1679 L1190,-1581 L1251,-1581" stroke-width="2" transform="matrix(0.33333, 0, 0, 0.33333, 0, 0)"/>
    <path stroke-width="2" d="M1251,-1581 L1271,-1600 L1271,-1698 L1210,-1698 L1190,-1679 L1251,-1679 L1251,-1581 Z"
        transform="matrix(0.33333, 0, 0, 0.33333, 0, 0)"/>
    <path fill="#000000" d="M1251,-1679 L1271,-1698 Z" transform="matrix(0.33333, 0, 0, 0.33333, 0, 0)"/>
    <path fill="none" stroke-width="2" d="M1251,-1679 L1271,-1698" transform="matrix(0.33333, 0, 0, 0.33333, 0, 0)"
        stroke-linejoin="round" stroke-linecap="round"/>
    <path fill="none" d="M1251,-1679 L1190,-1679 L1190,-1581 L1251,-1581 M1251,-1581 L1271,-1600 L1271,-1698 L1210,-1698 
        L1190,-1679 L1251,-1679 L1251,-1581 Z M1251,-1679 L1271,-1698" stroke-width="2" transform="matrix(0.33333, 0, 0, 0.33333, 0, 0)"/>
    <path stroke-width="2.54" d="M1251,-1679 L1190,-1679 L1190,-1581 L1251,-1581 Z" transform="matrix(0.33333, 0, 0, 0.33333, 0, 0)"
        stroke="none"/>
    <path fill="none" stroke-width="2.54" d="M1251,-1679 L1190,-1679 L1190,-1581 L1251,-1581" transform="matrix(0.33333, 0, 0, 0.33333, 0, 0)"
        stroke="none"/>
    <path stroke-width="2.54" d="M1251,-1581 L1271,-1600 L1271,-1698 L1210,-1698 L1190,-1679 L1251,-1679 L1251,-1581 Z"
        transform="matrix(0.33333, 0, 0, 0.33333, 0, 0)" stroke="none"/>
    <path stroke-width="2.54" d="M1251,-1679 L1271,-1698 Z" transform="matrix(0.33333, 0, 0, 0.33333, 0, 0)" stroke="none"/>
    <path fill="none" d="M1251,-1679 L1271,-1698" transform="matrix(0.33333, 0, 0, 0.33333, 0, 0)" stroke="none"/>
    <path d="M1251,-1679 L1190,-1679 L1190,-1581 L1251,-1581 Z" transform="matrix(0.33333, 0, 0, 0.33333, 0, 0)" stroke="none"/>
    <path fill="none" stroke-width="2" d="M1251,-1679 L1190,-1679 L1190,-1581 L1251,-1581" transform="matrix(0.33333, 0, 0, 0.33333, 0, 0)"/>
    <path d="M1251,-1581 L1271,-1600 L1271,-1698 L1210,-1698 L1190,-1679 L1251,-1679 L1251,-1581 Z" stroke-width="2"
        transform="matrix(0.33333, 0, 0, 0.33333, 0, 0)"/>
    <path fill="#000000" d="M1251,-1679 L1271,-1698 Z" transform="matrix(0.33333, 0, 0, 0.33333, 0, 0)" stroke="none"/>
    <path fill="none" stroke-width="2" d="M1251,-1679 L1271,-1698" transform="matrix(0.33333, 0, 0, 0.33333, 0, 0)"
        stroke-linejoin="round" stroke-linecap="round"/>
    <path fill="none" stroke-width="2" d="M1251,-1679 L1190,-1679 L1190,-1581 L1251,-1581 M1251,-1581 L1271,-1600 
        L1271,-1698 L1210,-1698 L1190,-1679 L1251,-1679 L1251,-1581 Z M1251,-1679 L1271,-1698" transform="matrix(0.33333, 0, 0, 0.33333, 0, 0)"/>
    <path fill="#ffffff" d="M1219,-1604 C1219,-1602 1214,-1600 1207,-1600 C1201,-1600 1196,-1602 1196,-1604 C1196,-1607 
        1201,-1609 1207,-1609 C1214,-1609 1219,-1607 1219,-1604 Z" transform="matrix(0.33333, 0, 0, 0.33333, 0, 0)"
        stroke-linejoin="round" stroke-linecap="round" stroke="#000000"/>
    <path fill="#000000" d="M1211,-1605 C1211,-1604 1209,-1603 1207,-1603 C1205,-1603 1204,-1604 1204,-1605 C1204,-1605 
        1205,-1606 1207,-1606 C1209,-1606 1211,-1605 1211,-1605 Z" transform="matrix(0.33333, 0, 0, 0.33333, 0, 0)"
        stroke="none"/>
    <path fill="#000000" d="M1211,-1607 C1211,-1606 1209,-1606 1207,-1606 C1205,-1606 1204,-1606 1204,-1607 C1204,-1608 
        1205,-1608 1207,-1608 C1209,-1608 1211,-1608 1211,-1607 Z" transform="matrix(0.33333, 0, 0, 0.33333, 0, 0)"
        stroke="none"/>
    <path fill="#ffffff" d="M1219,-1609 C1219,-1607 1214,-1605 1207,-1605 C1201,-1605 1196,-1607 1196,-1609 C1196,-1612 
        1201,-1613 1207,-1613 C1214,-1613 1219,-1612 1219,-1609 Z" transform="matrix(0.33333, 0, 0, 0.33333, 0, 0)"
        stroke-linejoin="round" stroke-linecap="round" stroke="#000000"/>
    <path fill="#000000" d="M1211,-1609 C1211,-1609 1209,-1608 1207,-1608 C1205,-1608 1204,-1609 1204,-1609 C1204,-1610 
        1205,-1611 1207,-1611 C1209,-1611 1211,-1610 1211,-1609 Z" transform="matrix(0.33333, 0, 0, 0.33333, 0, 0)"
        stroke="none"/>
    <path fill="#000000" d="M1211,-1612 C1211,-1611 1209,-1610 1207,-1610 C1205,-1610 1204,-1611 1204,-1612 C1204,-1612 
        1205,-1613 1207,-1613 C1209,-1613 1211,-1612 1211,-1612 Z" transform="matrix(0.33333, 0, 0, 0.33333, 0, 0)"
        stroke="none"/>
    <path fill="#ffffff" d="M1219,-1614 C1219,-1611 1214,-1609 1207,-1609 C1201,-1609 1196,-1611 1196,-1614 C1196,-1616 
        1201,-1618 1207,-1618 C1214,-1618 1219,-1616 1219,-1614 Z" transform="matrix(0.33333, 0, 0, 0.33333, 0, 0)"
        stroke-linejoin="round" stroke-linecap="round" stroke="#000000"/>
    <path fill="#000000" d="M1211,-1614 C1211,-1613 1209,-1613 1207,-1613 C1205,-1613 1204,-1613 1204,-1614 C1204,-1615 
        1205,-1615 1207,-1615 C1209,-1615 1211,-1615 1211,-1614 Z" transform="matrix(0.33333, 0, 0, 0.33333, 0, 0)"
        stroke="none"/>
    <path fill="#ffffff" d="M1219,-1623 C1219,-1621 1214,-1619 1207,-1619 C1201,-1619 1196,-1621 1196,-1623 C1196,-1626 
        1201,-1628 1207,-1628 C1214,-1628 1219,-1626 1219,-1623 Z" transform="matrix(0.33333, 0, 0, 0.33333, 0, 0)"
        stroke-linejoin="round" stroke-linecap="round" stroke="#000000"/>
    <path fill="#000000" d="M1211,-1624 C1211,-1623 1209,-1622 1207,-1622 C1205,-1622 1204,-1623 1204,-1624 C1204,-1624 
        1205,-1625 1207,-1625 C1209,-1625 1211,-1624 1211,-1624 Z" transform="matrix(0.33333, 0, 0, 0.33333, 0, 0)"
        stroke="none"/>
    <path fill="#000000" d="M1211,-1626 C1211,-1625 1209,-1625 1207,-1625 C1205,-1625 1204,-1625 1204,-1626 C1204,-1627 
        1205,-1627 1207,-1627 C1209,-1627 1211,-1627 1211,-1626 Z" transform="matrix(0.33333, 0, 0, 0.33333, 0, 0)"
        stroke="none"/>
    <path fill="#ffffff" d="M1219,-1628 C1219,-1626 1214,-1624 1207,-1624 C1201,-1624 1196,-1626 1196,-1628 C1196,-1631 
        1201,-1633 1207,-1633 C1214,-1633 1219,-1631 1219,-1628 Z" transform="matrix(0.33333, 0, 0, 0.33333, 0, 0)"
        stroke-linejoin="round" stroke-linecap="round" stroke="#000000"/>
    <path fill="#000000" d="M1211,-1629 C1211,-1628 1209,-1627 1207,-1627 C1205,-1627 1204,-1628 1204,-1629 C1204,-1629 
        1205,-1630 1207,-1630 C1209,-1630 1211,-1629 1211,-1629 Z" transform="matrix(0.33333, 0, 0, 0.33333, 0, 0)"
        stroke="none"/>
    <path fill="#000000" d="M1211,-1631 C1211,-1630 1209,-1630 1207,-1630 C1205,-1630 1204,-1630 1204,-1631 C1204,-1632 
        1205,-1632 1207,-1632 C1209,-1632 1211,-1632 1211,-1631 Z" transform="matrix(0.33333, 0, 0, 0.33333, 0, 0)"
        stroke="none"/>
    <path fill="#ffffff" d="M1219,-1633 C1219,-1631 1214,-1629 1207,-1629 C1201,-1629 1196,-1631 1196,-1633 C1196,-1636 
        1201,-1637 1207,-1637 C1214,-1637 1219,-1636 1219,-1633 Z" transform="matrix(0.33333, 0, 0, 0.33333, 0, 0)"
        stroke-linejoin="round" stroke-linecap="round" stroke="#000000"/>
    <path fill="#000000" d="M1211,-1633 C1211,-1633 1209,-1632 1207,-1632 C1205,-1632 1204,-1633 1204,-1633 C1204,-1634 
        1205,-1635 1207,-1635 C1209,-1635 1211,-1634 1211,-1633 Z" transform="matrix(0.33333, 0, 0, 0.33333, 0, 0)"
        stroke="none"/>
    <path fill="#ffffff" d="M1219,-1643 C1219,-1640 1214,-1638 1207,-1638 C1201,-1638 1196,-1640 1196,-1643 C1196,-1645 
        1201,-1647 1207,-1647 C1214,-1647 1219,-1645 1219,-1643 Z" transform="matrix(0.33333, 0, 0, 0.33333, 0, 0)"
        stroke-linecap="round" stroke-linejoin="round" stroke="#000000"/>
    <path fill="#000000" d="M1211,-1643 C1211,-1642 1209,-1642 1207,-1642 C1205,-1642 1204,-1642 1204,-1643 C1204,-1644 
        1205,-1644 1207,-1644 C1209,-1644 1211,-1644 1211,-1643 Z" transform="matrix(0.33333, 0, 0, 0.33333, 0, 0)"
        stroke="none"/>
    <path fill="#000000" d="M1211,-1645 C1211,-1645 1209,-1644 1207,-1644 C1205,-1644 1204,-1645 1204,-1645 C1204,-1646 
        1205,-1647 1207,-1647 C1209,-1647 1211,-1646 1211,-1645 Z" transform="matrix(0.33333, 0, 0, 0.33333, 0, 0)"
        stroke="none"/>
    <path fill="#ffffff" d="M1219,-1647 C1219,-1645 1214,-1643 1207,-1643 C1201,-1643 1196,-1645 1196,-1647 C1196,-1650 
        1201,-1652 1207,-1652 C1214,-1652 1219,-1650 1219,-1647 Z" transform="matrix(0.33333, 0, 0, 0.33333, 0, 0)"
        stroke-linecap="round" stroke-linejoin="round" stroke="#000000"/>
    <path fill="#000000" d="M1211,-1648 C1211,-1647 1209,-1646 1207,-1646 C1205,-1646 1204,-1647 1204,-1648 C1204,-1648 
        1205,-1649 1207,-1649 C1209,-1649 1211,-1648 1211,-1648 Z" transform="matrix(0.33333, 0, 0, 0.33333, 0, 0)"
        stroke="none"/>
    <path fill="#000000" d="M1211,-1650 C1211,-1649 1209,-1649 1207,-1649 C1205,-1649 1204,-1649 1204,-1650 C1204,-1651 
        1205,-1651 1207,-1651 C1209,-1651 1211,-1651 1211,-1650 Z" transform="matrix(0.33333, 0, 0, 0.33333, 0, 0)"
        stroke="none"/>
    <path fill="#ffffff" d="M1219,-1652 C1219,-1650 1214,-1648 1207,-1648 C1201,-1648 1196,-1650 1196,-1652 C1196,-1655 
        1201,-1657 1207,-1657 C1214,-1657 1219,-1655 1219,-1652 Z" transform="matrix(0.33333, 0, 0, 0.33333, 0, 0)"
        stroke-linecap="round" stroke-linejoin="round" stroke="#000000"/>
    <path fill="#000000" d="M1211,-1653 C1211,-1652 1209,-1651 1207,-1651 C1205,-1651 1204,-1652 1204,-1653 C1204,-1653 
        1205,-1654 1207,-1654 C1209,-1654 1211,-1653 1211,-1653 Z" transform="matrix(0.33333, 0, 0, 0.33333, 0, 0)"
        stroke="none"/>
    <path fill="#ffffff" d="M1245,-1604 C1245,-1602 1240,-1600 1233,-1600 C1227,-1600 1222,-1602 1222,-1604 C1222,-1607 
        1227,-1609 1233,-1609 C1240,-1609 1245,-1607 1245,-1604 Z" transform="matrix(0.33333, 0, 0, 0.33333, 0, 0)"
        stroke-linecap="round" stroke-linejoin="round" stroke="#000000"/>
    <path fill="#000000" d="M1237,-1605 C1237,-1604 1235,-1603 1233,-1603 C1231,-1603 1230,-1604 1230,-1605 C1230,-1605 
        1231,-1606 1233,-1606 C1235,-1606 1237,-1605 1237,-1605 Z" transform="matrix(0.33333, 0, 0, 0.33333, 0, 0)"
        stroke="none"/>
    <path fill="#000000" d="M1237,-1607 C1237,-1606 1235,-1606 1233,-1606 C1231,-1606 1230,-1606 1230,-1607 C1230,-1608 
        1231,-1608 1233,-1608 C1235,-1608 1237,-1608 1237,-1607 Z" transform="matrix(0.33333, 0, 0, 0.33333, 0, 0)"
        stroke="none"/>
    <path fill="#ffffff" d="M1245,-1609 C1245,-1607 1240,-1605 1233,-1605 C1227,-1605 1222,-1607 1222,-1609 C1222,-1612 
        1227,-1613 1233,-1613 C1240,-1613 1245,-1612 1245,-1609 Z" transform="matrix(0.33333, 0, 0, 0.33333, 0, 0)"
        stroke-linecap="round" stroke-linejoin="round" stroke="#000000"/>
    <path fill="#000000" d="M1237,-1609 C1237,-1609 1235,-1608 1233,-1608 C1231,-1608 1230,-1609 1230,-1609 C1230,-1610 
        1231,-1611 1233,-1611 C1235,-1611 1237,-1610 1237,-1609 Z" transform="matrix(0.33333, 0, 0, 0.33333, 0, 0)"
        stroke="none"/>
    <path fill="#000000" d="M1237,-1612 C1237,-1611 1235,-1610 1233,-1610 C1231,-1610 1230,-1611 1230,-1612 C1230,-1612 
        1231,-1613 1233,-1613 C1235,-1613 1237,-1612 1237,-1612 Z" transform="matrix(0.33333, 0, 0, 0.33333, 0, 0)"
        stroke="none"/>
    <path fill="#ffffff" d="M1245,-1614 C1245,-1611 1240,-1609 1233,-1609 C1227,-1609 1222,-1611 1222,-1614 C1222,-1616 
        1227,-1618 1233,-1618 C1240,-1618 1245,-1616 1245,-1614 Z" transform="matrix(0.33333, 0, 0, 0.33333, 0, 0)"
        stroke-linecap="round" stroke-linejoin="round" stroke="#000000"/>
    <path fill="#000000" d="M1237,-1614 C1237,-1613 1235,-1613 1233,-1613 C1231,-1613 1230,-1613 1230,-1614 C1230,-1615 
        1231,-1615 1233,-1615 C1235,-1615 1237,-1615 1237,-1614 Z" transform="matrix(0.33333, 0, 0, 0.33333, 0, 0)"
        stroke="none"/>
    <path fill="#ffffff" d="M1245,-1623 C1245,-1621 1240,-1619 1233,-1619 C1227,-1619 1222,-1621 1222,-1623 C1222,-1626 
        1227,-1628 1233,-1628 C1240,-1628 1245,-1626 1245,-1623 Z" transform="matrix(0.33333, 0, 0, 0.33333, 0, 0)"
        stroke-linecap="round" stroke-linejoin="round" stroke="#000000"/>
    <path fill="#000000" d="M1237,-1624 C1237,-1623 1235,-1622 1233,-1622 C1231,-1622 1230,-1623 1230,-1624 C1230,-1624 
        1231,-1625 1233,-1625 C1235,-1625 1237,-1624 1237,-1624 Z" transform="matrix(0.33333, 0, 0, 0.33333, 0, 0)"
        stroke="none"/>
    <path fill="#000000" d="M1237,-1626 C1237,-1625 1235,-1625 1233,-1625 C1231,-1625 1230,-1625 1230,-1626 C1230,-1627 
        1231,-1627 1233,-1627 C1235,-1627 1237,-1627 1237,-1626 Z" transform="matrix(0.33333, 0, 0, 0.33333, 0, 0)"
        stroke="none"/>
    <path fill="#ffffff" d="M1245,-1628 C1245,-1626 1240,-1624 1233,-1624 C1227,-1624 1222,-1626 1222,-1628 C1222,-1631 
        1227,-1633 1233,-1633 C1240,-1633 1245,-1631 1245,-1628 Z" transform="matrix(0.33333, 0, 0, 0.33333, 0, 0)"
        stroke-linecap="round" stroke-linejoin="round" stroke="#000000"/>
    <path fill="#000000" d="M1237,-1629 C1237,-1628 1235,-1627 1233,-1627 C1231,-1627 1230,-1628 1230,-1629 C1230,-1629 
        1231,-1630 1233,-1630 C1235,-1630 1237,-1629 1237,-1629 Z" transform="matrix(0.33333, 0, 0, 0.33333, 0, 0)"
        stroke="none"/>
    <path fill="#000000" d="M1237,-1631 C1237,-1630 1235,-1630 1233,-1630 C1231,-1630 1230,-1630 1230,-1631 C1230,-1632 
        1231,-1632 1233,-1632 C1235,-1632 1237,-1632 1237,-1631 Z" transform="matrix(0.33333, 0, 0, 0.33333, 0, 0)"
        stroke="none"/>
    <path fill="#ffffff" d="M1245,-1633 C1245,-1631 1240,-1629 1233,-1629 C1227,-1629 1222,-1631 1222,-1633 C1222,-1636 
        1227,-1637 1233,-1637 C1240,-1637 1245,-1636 1245,-1633 Z" transform="matrix(0.33333, 0, 0, 0.33333, 0, 0)"
        stroke-linecap="round" stroke-linejoin="round" stroke="#000000"/>
    <path fill="#000000" d="M1237,-1633 C1237,-1633 1235,-1632 1233,-1632 C1231,-1632 1230,-1633 1230,-1633 C1230,-1634 
        1231,-1635 1233,-1635 C1235,-1635 1237,-1634 1237,-1633 Z" transform="matrix(0.33333, 0, 0, 0.33333, 0, 0)"
        stroke="none"/>
    <path fill="#ffffff" d="M1245,-1643 C1245,-1640 1240,-1638 1233,-1638 C1227,-1638 1222,-1640 1222,-1643 C1222,-1645 
        1227,-1647 1233,-1647 C1240,-1647 1245,-1645 1245,-1643 Z" transform="matrix(0.33333, 0, 0, 0.33333, 0, 0)"
        stroke-linecap="round" stroke-linejoin="round" stroke="#000000"/>
    <path fill="#000000" d="M1237,-1643 C1237,-1642 1235,-1642 1233,-1642 C1231,-1642 1230,-1642 1230,-1643 C1230,-1644 
        1231,-1644 1233,-1644 C1235,-1644 1237,-1644 1237,-1643 Z" transform="matrix(0.33333, 0, 0, 0.33333, 0, 0)"
        stroke="none"/>
    <path fill="#000000" d="M1237,-1645 C1237,-1645 1235,-1644 1233,-1644 C1231,-1644 1230,-1645 1230,-1645 C1230,-1646 
        1231,-1647 1233,-1647 C1235,-1647 1237,-1646 1237,-1645 Z" transform="matrix(0.33333, 0, 0, 0.33333, 0, 0)"
        stroke="none"/>
    <path fill="#ffffff" d="M1245,-1647 C1245,-1645 1240,-1643 1233,-1643 C1227,-1643 1222,-1645 1222,-1647 C1222,-1650 
        1227,-1652 1233,-1652 C1240,-1652 1245,-1650 1245,-1647 Z" transform="matrix(0.33333, 0, 0, 0.33333, 0, 0)"
        stroke-linecap="round" stroke-linejoin="round" stroke="#000000"/>
    <path fill="#000000" d="M1237,-1648 C1237,-1647 1235,-1646 1233,-1646 C1231,-1646 1230,-1647 1230,-1648 C1230,-1648 
        1231,-1649 1233,-1649 C1235,-1649 1237,-1648 1237,-1648 Z" transform="matrix(0.33333, 0, 0, 0.33333, 0, 0)"
        stroke="none"/>
    <path fill="#000000" d="M1237,-1650 C1237,-1649 1235,-1649 1233,-1649 C1231,-1649 1230,-1649 1230,-1650 C1230,-1651 
        1231,-1651 1233,-1651 C1235,-1651 1237,-1651 1237,-1650 Z" transform="matrix(0.33333, 0, 0, 0.33333, 0, 0)"
        stroke="none"/>
    <path fill="#ffffff" d="M1245,-1652 C1245,-1650 1240,-1648 1233,-1648 C1227,-1648 1222,-1650 1222,-1652 C1222,-1655 
        1227,-1657 1233,-1657 C1240,-1657 1245,-1655 1245,-1652 Z" transform="matrix(0.33333, 0, 0, 0.33333, 0, 0)"
        stroke-linecap="round" stroke-linejoin="round" stroke="#000000"/>
    <path fill="#000000" d="M1237,-1653 C1237,-1652 1235,-1651 1233,-1651 C1231,-1651 1230,-1652 1230,-1653 C1230,-1653 
        1231,-1654 1233,-1654 C1235,-1654 1237,-1653 1237,-1653 Z" transform="matrix(0.33333, 0, 0, 0.33333, 0, 0)"
        stroke="none"/>
</svg>