<?xml version="1.0" standalone="no"?>
<!DOCTYPE svg PUBLIC "-//W3C//DTD SVG 1.0//EN"
    "http://www.w3.org/TR/2001/REC-SVG-20010904/DTD/svg10.dtd">
<?xml-stylesheet type="text/css" href="..\cisco_network.css" ?>
<svg contentScriptType="text/ecmascript" zoomAndPan="magnify" xmlns:xlink="http://www.w3.org/1999/xlink" baseProfile="full"
    contentStyleType="text/css" enable-background="new" version="1.0" width="57.6" preserveAspectRatio="none" viewBox="376.99 -571.01 65.024 48"
    height="42.5197" xmlns="http://www.w3.org/2000/svg" color-interpolation-filters="sRGB" x="0" y="1.5">
    <path d="M1276,-1617 L1276,-1663 L1133,-1663 L1133,-1617 L1276,-1617 Z M1133,-1663 L1191,-1710 L1324,-1710 
        L1276,-1663 L1133,-1663 Z M1276,-1616 L1324,-1667 L1324,-1710 L1276,-1663 L1276,-1616 Z" stroke-width="2"
        transform="matrix(0.33333, 0, 0, 0.33333, 0, 0)"/>
    <path fill="#ffffff" d="M1217,-1675 L1214,-1673 L1178,-1673 L1175,-1670 L1165,-1674 L1185,-1679 L1181,-1675 
        L1217,-1675 Z M1245,-1693 L1242,-1691 L1206,-1691 L1203,-1687 L1193,-1691 L1213,-1697 L1209,-1693 L1245,-1693 Z 
        M1223,-1682 L1226,-1684 L1261,-1684 L1265,-1687 L1275,-1683 L1255,-1678 L1259,-1682 L1223,-1682 Z M1242,-1699 
        L1244,-1701 L1280,-1701 L1284,-1705 L1293,-1701 L1274,-1695 L1277,-1699 L1242,-1699 Z" transform="matrix(0.33333, 0, 0, 0.33333, 0, 0)"
        stroke="none"/>
    <path d="M1276,-1572 L1276,-1618 L1133,-1618 L1133,-1572 L1276,-1572 Z M1276,-1570 L1324,-1622 L1324,-1665 
        L1276,-1618 L1276,-1570 Z" stroke-width="2" transform="matrix(0.33333, 0, 0, 0.33333, 0, 0)"/>
    <path fill="#ffffff" d="M1188,-1642 L1161,-1642 L1161,-1644 L1151,-1640 L1161,-1637 L1161,-1639 L1188,-1639 
        L1188,-1642 Z M1203,-1634 L1203,-1624 L1196,-1624 L1206,-1621 L1217,-1624 L1210,-1624 L1210,-1634 L1203,-1634 Z 
        M1203,-1647 L1203,-1656 L1196,-1656 L1206,-1660 L1217,-1656 L1210,-1656 L1210,-1647 L1203,-1647 Z M1225,-1639 
        L1251,-1639 L1251,-1637 L1262,-1640 L1251,-1644 L1251,-1642 L1225,-1642 L1225,-1639 Z" transform="matrix(0.33333, 0, 0, 0.33333, 0, 0)"
        stroke="none"/>
    <path fill="none" stroke-width="2" d="M1249,-1625 C1244,-1623 1221,-1628 1198,-1637 C1174,-1645 1160,-1653 
        1165,-1655 C1170,-1657 1193,-1652 1216,-1643 C1239,-1635 1254,-1627 1249,-1625 Z" transform="matrix(0.33333, 0, 0, 0.33333, 0, 0)"/>
    <path fill="none" stroke-width="2" d="M1248,-1655 C1253,-1653 1239,-1645 1215,-1637 C1192,-1629 1169,-1623 
        1164,-1625 C1158,-1627 1173,-1635 1196,-1643 C1220,-1652 1243,-1657 1248,-1655 Z" transform="matrix(0.33333, 0, 0, 0.33333, 0, 0)"/>
    <path fill="#b5b5b5" d="M1217,-1635 C1226,-1637 1228,-1641 1222,-1644 C1216,-1648 1204,-1648 1195,-1646 C1186,-1644 
        1184,-1640 1190,-1637 C1196,-1633 1208,-1633 1217,-1635 Z" transform="matrix(0.33333, 0, 0, 0.33333, 0, 0)"
        stroke="none"/>
</svg>