<?xml version="1.0" standalone="no"?>
<!DOCTYPE svg PUBLIC "-//W3C//DTD SVG 1.0//EN"
    "http://www.w3.org/TR/2001/REC-SVG-20010904/DTD/svg10.dtd">
<?xml-stylesheet type="text/css" href="..\cisco_network.css" ?>
<svg contentScriptType="text/ecmascript" zoomAndPan="magnify" xmlns:xlink="http://www.w3.org/1999/xlink" baseProfile="full"
    contentStyleType="text/css" enable-background="new" version="1.0" width="28.3465" preserveAspectRatio="none"
    viewBox="392.99 -568 32 40" height="35.4331" xmlns="http://www.w3.org/2000/svg" color-interpolation-filters="sRGB"
    x="0" y="1.5">
    <path d="M1255,-1685 L1194,-1685 L1194,-1587 L1255,-1587 Z" stroke="none" transform="matrix(0.33333, 0, 0, 0.33333, 0, 0)"/>
    <path fill="none" d="M1255,-1685 L1194,-1685 L1194,-1587 L1255,-1587" stroke-width="2" transform="matrix(0.33333, 0, 0, 0.33333, 0, 0)"/>
    <path d="M1255,-1587 L1275,-1607 L1275,-1705 L1213,-1705 L1194,-1685 L1255,-1685 L1255,-1587 Z" stroke-width="2"
        transform="matrix(0.33333, 0, 0, 0.33333, 0, 0)"/>
    <path fill="none" d="M1195,-1655 L1255,-1655" stroke-width="2" transform="matrix(0.33333, 0, 0, 0.33333, 0, 0)"/>
    <path fill="none" d="M1195,-1624 L1255,-1624" stroke-width="2" transform="matrix(0.33333, 0, 0, 0.33333, 0, 0)"/>
    <path fill="none" d="M1217,-1671 L1234,-1671" stroke-width="2" transform="matrix(0.33333, 0, 0, 0.33333, 0, 0)"/>
    <path d="M1241,-1665 L1241,-1677 L1210,-1677 L1210,-1665 L1241,-1665 Z" stroke-width="2" transform="matrix(0.33333, 0, 0, 0.33333, 0, 0)"/>
    <path fill="none" d="M1217,-1608 L1234,-1608" stroke-width="2" transform="matrix(0.33333, 0, 0, 0.33333, 0, 0)"/>
    <path d="M1241,-1602 L1241,-1615 L1210,-1615 L1210,-1602 L1241,-1602 Z" stroke-width="2" transform="matrix(0.33333, 0, 0, 0.33333, 0, 0)"/>
    <path fill="none" d="M1195,-1594 L1255,-1594" stroke-width="2" transform="matrix(0.33333, 0, 0, 0.33333, 0, 0)"/>
    <path d="M1241,-1611 L1255,-1624 L1255,-1647 L1193,-1647 L1179,-1633 L1241,-1633 L1241,-1611 Z" stroke-width="2"
        transform="matrix(0.33333, 0, 0, 0.33333, 0, 0)"/>
    <path fill="none" d="M1241,-1633 L1255,-1647" stroke-width="2" transform="matrix(0.33333, 0, 0, 0.33333, 0, 0)"/>
    <path d="M1241,-1611 L1179,-1611 L1179,-1642 L1241,-1642 L1241,-1611 Z" stroke-width="2" transform="matrix(0.33333, 0, 0, 0.33333, 0, 0)"/>
    <path fill="none" d="M1203,-1626 L1220,-1626" stroke-width="2" transform="matrix(0.33333, 0, 0, 0.33333, 0, 0)"/>
    <path d="M1227,-1620 L1227,-1632 L1196,-1632 L1196,-1620 L1227,-1620 Z" stroke-width="2" transform="matrix(0.33333, 0, 0, 0.33333, 0, 0)"/>
</svg>