<?xml version="1.0" standalone="no"?>
<!DOCTYPE svg PUBLIC "-//W3C//DTD SVG 1.0//EN"
    "http://www.w3.org/TR/2001/REC-SVG-20010904/DTD/svg10.dtd">
<?xml-stylesheet type="text/css" href="..\cisco_network.css" ?>
<svg contentScriptType="text/ecmascript" zoomAndPan="magnify" xmlns:xlink="http://www.w3.org/1999/xlink" baseProfile="full"
    contentStyleType="text/css" enable-background="new" version="1.0" width="30.1039" preserveAspectRatio="none"
    viewBox="394.02 -586.02 33.984 54.016" height="47.8488" xmlns="http://www.w3.org/2000/svg"
    color-interpolation-filters="sRGB" x="0" y="1.5">
    <path d="M1282,-1757 L1271,-1745 L1184,-1745 L1199,-1757 L1282,-1757 Z M1184,-1710 L1184,-1745 L1271,-1745 
        L1271,-1710 L1184,-1710 Z M1282,-1722 L1282,-1757 L1271,-1745 L1271,-1710 L1282,-1722 Z M1271,-1711 L1271,-1641 
        L1282,-1653 L1282,-1722 L1271,-1711 Z" stroke-width="2" transform="matrix(0.33333, 0, 0, 0.33333, 0, 0)"/>
    <path fill="none" stroke-width="2" d="M1271,-1734 L1185,-1734 M1278,-1752 L1191,-1752 M1271,-1722 L1185,-1722 
        M1283,-1747 L1272,-1735 M1283,-1735 L1272,-1723 M1210,-1745 L1210,-1734 M1244,-1745 L1244,-1734 M1210,-1722 
        L1210,-1711 M1244,-1722 L1244,-1711 M1228,-1734 L1228,-1723 M1194,-1734 L1194,-1723 M1261,-1734 L1261,-1723 
        M1223,-1758 L1210,-1746 M1256,-1758 L1244,-1746" transform="matrix(0.33333, 0, 0, 0.33333, 0, 0)"
        stroke-linejoin="round" stroke-linecap="round"/>
    <path d="M1271,-1711 L1271,-1642 L1184,-1642 L1184,-1711 Z" transform="matrix(0.33333, 0, 0, 0.33333, 0, 0)" stroke="none"/>
    <path fill="none" d="M1271,-1711 L1271,-1642 L1184,-1642 L1184,-1711" stroke-width="2" transform="matrix(0.33333, 0, 0, 0.33333, 0, 0)"/>
    <path stroke-width="2" d="M1184,-1599 L1184,-1642 L1271,-1642 L1271,-1599 L1184,-1599 Z M1282,-1611 L1282,-1653 
        L1271,-1642 L1271,-1599 L1282,-1611 Z" transform="matrix(0.33333, 0, 0, 0.33333, 0, 0)"/>
    <path fill="#ffffff" d="M1229,-1684 L1229,-1699 L1232,-1699 L1228,-1705 L1224,-1699 L1227,-1699 L1227,-1684 
        L1229,-1684 Z M1222,-1682 L1211,-1693 L1213,-1694 L1206,-1696 L1208,-1689 L1209,-1691 L1220,-1680 L1222,-1682 Z 
        M1218,-1675 L1203,-1675 L1203,-1678 L1197,-1674 L1203,-1670 L1203,-1673 L1218,-1673 L1218,-1675 Z M1220,-1667 
        L1209,-1657 L1208,-1659 L1206,-1652 L1213,-1653 L1211,-1655 L1222,-1666 L1220,-1667 Z M1227,-1669 L1227,-1640 
        L1224,-1640 L1228,-1634 L1232,-1640 L1229,-1640 L1229,-1669 L1227,-1669 Z M1235,-1666 L1245,-1655 L1243,-1653 
        L1250,-1652 L1249,-1659 L1247,-1657 L1236,-1667 L1235,-1666 Z M1238,-1673 L1254,-1673 L1254,-1670 L1259,-1674 
        L1254,-1678 L1254,-1675 L1238,-1675 L1238,-1673 Z M1236,-1680 L1247,-1691 L1249,-1689 L1250,-1696 L1243,-1694 
        L1245,-1693 L1235,-1682 L1236,-1680 Z" transform="matrix(0.33333, 0, 0, 0.33333, 0, 0)" stroke="none"/>
    <path fill="#ffffff" d="M1237,-1661 C1244,-1666 1246,-1676 1241,-1683 C1236,-1690 1227,-1692 1219,-1687 C1212,-1682 
        1211,-1672 1216,-1665 C1221,-1658 1230,-1656 1237,-1661 Z" transform="matrix(0.33333, 0, 0, 0.33333, 0, 0)"
        stroke="none"/>
    <path stroke-linecap="round" transform="matrix(0.33333, 0, 0, 0.33333, 0, 0)" fill="none" stroke-linejoin="round" d=
        "M1278,-1752 L1278,-1717" stroke="#ffffff" stroke-width="2"/>
    <path fill="#ffffff" d="M1227,-1625 L1250,-1625 L1250,-1627 L1258,-1623 L1250,-1618 L1250,-1620 L1227,-1620 
        L1227,-1625 Z M1227,-1611 L1250,-1611 L1250,-1613 L1258,-1609 L1250,-1604 L1250,-1606 L1227,-1606 L1227,-1611 Z 
        M1228,-1632 L1205,-1632 L1205,-1634 L1197,-1630 L1205,-1625 L1205,-1627 L1228,-1627 L1228,-1632 Z M1228,-1618 
        L1205,-1618 L1205,-1620 L1197,-1615 L1205,-1611 L1205,-1613 L1228,-1613 L1228,-1618 Z" transform="matrix(0.33333, 0, 0, 0.33333, 0, 0)"
        stroke="none"/>
    <path fill="none" d="M1271,-1710 L1185,-1710 M1283,-1723 L1272,-1711 M1271,-1642 L1185,-1642 M1282,-1653 
        L1272,-1642" stroke-width="2" transform="matrix(0.33333, 0, 0, 0.33333, 0, 0)" stroke-linecap="round"
        stroke-linejoin="round"/>
</svg>