<?xml version="1.0" standalone="no"?>
<!DOCTYPE svg PUBLIC "-//W3C//DTD SVG 1.0//EN"
    "http://www.w3.org/TR/2001/REC-SVG-20010904/DTD/svg10.dtd">
<?xml-stylesheet type="text/css" href="..\cisco_network.css" ?>
<svg contentScriptType="text/ecmascript" zoomAndPan="magnify" xmlns:xlink="http://www.w3.org/1999/xlink" baseProfile="full"
    contentStyleType="text/css" enable-background="new" version="1.0" width="45.1559" preserveAspectRatio="none"
    viewBox="394.02 -652.99 50.976 36" height="31.8898" xmlns="http://www.w3.org/2000/svg" color-interpolation-filters="sRGB"
    x="0" y="1.5">
    <path fill="#ffffff" d="M1234,-1949 C1208,-1954 1194,-1941 1196,-1929 C1196,-1928 1196,-1928 1196,-1928 C1175,-1925 
        1181,-1900 1191,-1900 C1192,-1900 1192,-1900 1192,-1900 C1189,-1889 1213,-1877 1227,-1883 C1228,-1884 1228,-1884 
        1228,-1884 C1233,-1874 1250,-1872 1267,-1871 C1281,-1871 1290,-1872 1296,-1879 C1297,-1878 1297,-1878 1297,-1878 
        C1320,-1876 1331,-1893 1326,-1904 C1327,-1905 1327,-1905 1327,-1905 C1335,-1907 1336,-1925 1322,-1928 
        C1323,-1929 1323,-1929 1323,-1929 C1329,-1941 1315,-1952 1295,-1950 C1294,-1951 1294,-1951 1294,-1951 
        C1280,-1963 1240,-1961 1235,-1949 Z" stroke-width="2" transform="matrix(0.33333, 0, 0, 0.33333, 0, 0)" stroke="#0e6f9c"/>
    <path fill="none" d="M1246,-1930 L1246,-1862 L1310,-1862 L1310,-1930 L1246,-1930 Z M1246,-1930 L1310,-1862 
        M1246,-1862 L1310,-1930" stroke-width="8" transform="matrix(0.33333, 0, 0, 0.33333, 0, 0)" stroke="#0e6f9c"/>
    <path fill="#ffffff" d="M1256,-1920 L1256,-1941 L1236,-1941 L1236,-1920 L1256,-1920 Z M1320,-1920 L1320,-1941 
        L1300,-1941 L1300,-1920 L1320,-1920 Z M1256,-1851 L1256,-1872 L1236,-1872 L1236,-1851 L1256,-1851 Z M1320,-1851 
        L1320,-1872 L1300,-1872 L1300,-1851 L1320,-1851 Z M1288,-1886 L1288,-1907 L1267,-1907 L1267,-1886 L1288,-1886 Z"
        stroke-width="2" transform="matrix(0.33333, 0, 0, 0.33333, 0, 0)" stroke="#0e6f9c"/>
</svg>