<?xml version="1.0" standalone="no"?>
<!DOCTYPE svg PUBLIC "-//W3C//DTD SVG 1.0//EN"
    "http://www.w3.org/TR/2001/REC-SVG-20010904/DTD/svg10.dtd">
<?xml-stylesheet type="text/css" href="..\cisco_network.css" ?>
<svg contentScriptType="text/ecmascript" zoomAndPan="magnify" xmlns:xlink="http://www.w3.org/1999/xlink" baseProfile="full"
    contentStyleType="text/css" enable-background="new" version="1.0" width="37.2189" preserveAspectRatio="none"
    viewBox="388 -571.01 42.016 47.008" height="41.6409" xmlns="http://www.w3.org/2000/svg" color-interpolation-filters="sRGB"
    x="0" y="1.5">
    <path d="M1289,-1689 C1289,-1675 1261,-1664 1227,-1664 C1192,-1664 1164,-1675 1164,-1689 C1164,-1597 1164,-1597 
        1164,-1597 C1164,-1584 1192,-1573 1227,-1573 C1261,-1573 1289,-1584 1289,-1597 Z" stroke-width="2" transform="matrix(0.33333, 0, 0, 0.33333, 0, 0)"/>
    <path d="M1227,-1664 C1261,-1664 1289,-1675 1289,-1689 C1289,-1702 1261,-1713 1227,-1713 C1192,-1713 1164,-1702 
        1164,-1689 C1164,-1675 1192,-1664 1227,-1664 Z" stroke-width="2" transform="matrix(0.33333, 0, 0, 0.33333, 0, 0)"/>
    <path fill="#ffffff" d="M1212,-1698 L1218,-1690 L1198,-1686 L1202,-1689 L1172,-1695 L1180,-1700 L1209,-1695 
        L1212,-1698 Z M1240,-1679 L1236,-1687 L1254,-1691 L1251,-1688 L1280,-1683 L1273,-1678 L1244,-1683 L1240,-1679 Z 
        M1230,-1702 L1250,-1708 L1250,-1699 L1245,-1700 L1236,-1692 L1226,-1694 L1236,-1701 L1230,-1702 Z M1222,-1672 
        L1203,-1669 L1202,-1677 L1208,-1676 L1218,-1685 L1227,-1683 L1216,-1674 L1222,-1672 Z M1228,-1632 L1228,-1652 
        L1231,-1652 L1226,-1659 L1221,-1652 L1224,-1652 L1224,-1632 L1228,-1632 Z M1218,-1629 L1204,-1643 L1206,-1646 
        L1197,-1648 L1199,-1639 L1201,-1641 L1215,-1627 L1218,-1629 Z M1212,-1620 L1193,-1620 L1193,-1624 L1185,-1619 
        L1193,-1614 L1193,-1617 L1212,-1617 L1212,-1620 Z M1215,-1610 L1201,-1596 L1199,-1599 L1197,-1590 L1206,-1592 
        L1204,-1594 L1218,-1608 L1215,-1610 Z M1224,-1605 L1224,-1585 L1221,-1585 L1226,-1578 L1231,-1585 L1228,-1585 
        L1228,-1605 L1224,-1605 Z M1234,-1608 L1248,-1594 L1246,-1592 L1255,-1590 L1253,-1599 L1251,-1596 L1237,-1610 
        L1234,-1608 Z M1240,-1617 L1259,-1617 L1259,-1614 L1267,-1619 L1259,-1624 L1259,-1620 L1240,-1620 L1240,-1617 Z 
        M1237,-1627 L1251,-1641 L1253,-1639 L1255,-1648 L1246,-1646 L1248,-1643 L1234,-1629 L1237,-1627 Z" transform="matrix(0.33333, 0, 0, 0.33333, 0, 0)"
        stroke="none"/>
    <path fill="#ffffff" d="M1238,-1602 C1247,-1609 1250,-1621 1243,-1631 C1237,-1640 1224,-1642 1215,-1636 C1205,-1629 
        1203,-1616 1210,-1607 C1216,-1598 1229,-1596 1238,-1602 Z" transform="matrix(0.33333, 0, 0, 0.33333, 0, 0)"
        stroke="none"/>
</svg>