<?xml version="1.0" standalone="no"?>
<!DOCTYPE svg PUBLIC "-//W3C//DTD SVG 1.0//EN"
    "http://www.w3.org/TR/2001/REC-SVG-20010904/DTD/svg10.dtd">
<?xml-stylesheet type="text/css" href="..\cisco_network.css" ?>
<svg contentScriptType="text/ecmascript" zoomAndPan="magnify" xmlns:xlink="http://www.w3.org/1999/xlink" baseProfile="full"
    contentStyleType="text/css" enable-background="new" version="1.0" width="60.2362" preserveAspectRatio="none"
    viewBox="380.99 -572.99 68 48.992" height="43.3984" xmlns="http://www.w3.org/2000/svg" color-interpolation-filters="sRGB"
    x="0" y="1.5">
    <path stroke-width="2" d="M1291,-1649 L1291,-1663 L1201,-1663 L1201,-1649 L1291,-1649 Z" transform="matrix(0.33333, 0, 0, 0.33333, 0, 0)"/>
    <path d="M1291,-1663 C1291,-1683 1271,-1700 1246,-1700 C1221,-1700 1201,-1683 1201,-1663 Z" stroke-width="2"
        transform="matrix(0.33333, 0, 0, 0.33333, 0, 0)"/>
    <path fill="none" d="M1247,-1719 L1247,-1698" stroke-width="2" transform="matrix(0.33333, 0, 0, 0.33333, 0, 0)"/>
    <path d="M1264,-1706 C1264,-1705 1256,-1705 1255,-1706 C1253,-1708 1248,-1708 1247,-1706 C1247,-1716 1247,-1716 
        1247,-1716 C1248,-1718 1253,-1718 1255,-1717 C1256,-1716 1264,-1716 1264,-1717 Z" stroke-width="2" transform="matrix(0.33333, 0, 0, 0.33333, 0, 0)"/>
    <path d="M1347,-1572 L1347,-1649 L1145,-1649 L1145,-1572 L1347,-1572 Z" stroke-width="2" transform="matrix(0.33333, 0, 0, 0.33333, 0, 0)"/>
    <path d="M1271,-1573 C1271,-1598 1271,-1598 1271,-1598 C1271,-1610 1260,-1619 1246,-1619 C1232,-1619 1221,-1610 
        1221,-1598 C1221,-1573 1221,-1573 1221,-1573" stroke-width="2" transform="matrix(0.33333, 0, 0, 0.33333, 0, 0)"/>
    <path d="M1271,-1573 C1271,-1598 1271,-1598 1271,-1598 C1271,-1610 1260,-1619 1246,-1619 C1232,-1619 1221,-1610 
        1221,-1598 C1221,-1573 1221,-1573 1221,-1573" stroke-width="2" transform="matrix(0.33333, 0, 0, 0.33333, 0, 0)"/>
    <path d="M1167,-1626 L1167,-1639 L1154,-1639 L1154,-1626 L1167,-1626 Z M1167,-1604 L1167,-1617 L1154,-1617 
        L1154,-1604 L1167,-1604 Z M1167,-1582 L1167,-1594 L1154,-1594 L1154,-1582 L1167,-1582 Z M1187,-1626 L1187,-1639 
        L1173,-1639 L1173,-1626 L1187,-1626 Z M1187,-1604 L1187,-1617 L1173,-1617 L1173,-1604 L1187,-1604 Z M1187,-1582 
        L1187,-1594 L1173,-1594 L1173,-1582 L1187,-1582 Z M1325,-1626 L1325,-1639 L1338,-1639 L1338,-1626 L1325,-1626 Z 
        M1325,-1604 L1325,-1617 L1338,-1617 L1338,-1604 L1325,-1604 Z M1325,-1582 L1325,-1594 L1338,-1594 L1338,-1582 
        L1325,-1582 Z M1305,-1626 L1305,-1639 L1319,-1639 L1319,-1626 L1305,-1626 Z M1305,-1604 L1305,-1617 L1319,-1617 
        L1319,-1604 L1305,-1604 Z M1305,-1582 L1305,-1594 L1319,-1594 L1319,-1582 L1305,-1582 Z" stroke-width="2"
        transform="matrix(0.33333, 0, 0, 0.33333, 0, 0)"/>
    <path d="M1294,-1625 L1247,-1640 L1199,-1625 L1294,-1625 Z M1299,-1657 L1299,-1663 L1194,-1663 L1194,-1657 
        L1299,-1657 Z" stroke-width="2" transform="matrix(0.33333, 0, 0, 0.33333, 0, 0)"/>
    <path d="M1213,-1572 L1213,-1625 L1205,-1625 L1205,-1572 L1213,-1572 Z M1280,-1572 L1280,-1625 L1288,-1625 
        L1288,-1572 L1280,-1572 Z" stroke-width="2" transform="matrix(0.33333, 0, 0, 0.33333, 0, 0)"/>
</svg>