<?xml version="1.0" standalone="no"?>
<!DOCTYPE svg PUBLIC "-//W3C//DTD SVG 1.0//EN"
    "http://www.w3.org/TR/2001/REC-SVG-20010904/DTD/svg10.dtd">
<?xml-stylesheet type="text/css" href="..\cisco_network.css" ?>
<svg contentScriptType="text/ecmascript" zoomAndPan="magnify" xmlns:xlink="http://www.w3.org/1999/xlink" baseProfile="full"
    contentStyleType="text/css" enable-background="new" version="1.0" width="55.8142" preserveAspectRatio="none"
    viewBox="368 -572 63.008 76" height="67.3228" xmlns="http://www.w3.org/2000/svg" color-interpolation-filters="sRGB"
    x="0" y="1.5">
    <path d="M1187,-1618 C1214,-1618 1214,-1618 1214,-1618 C1214,-1582 1214,-1582 1214,-1582 C1214,-1582 1186,-1573 
        1187,-1573 C1187,-1573 1187,-1618 1187,-1618 Z" transform="matrix(0.33333, 0, 0, 0.33333, 0, 0)" stroke="none"/>
    <path fill="#ffffff" d="M1198,-1646 C1250,-1646 1292,-1654 1292,-1664 C1292,-1673 1250,-1681 1198,-1681 C1147,-1681 
        1105,-1673 1105,-1664 C1105,-1654 1147,-1646 1198,-1646 Z" transform="matrix(0.33333, 0, 0, 0.33333, 0, 0)"
        stroke="#000000"/>
    <path d="M1199,-1615 C1251,-1615 1292,-1654 1292,-1664 C1292,-1673 1250,-1681 1198,-1681 C1147,-1681 1105,-1673 
        1105,-1664 C1105,-1654 1147,-1615 1199,-1615 Z" transform="matrix(0.33333, 0, 0, 0.33333, 0, 0)" stroke="none"/>
    <path fill="#ffffff" d="M1198,-1646 C1250,-1646 1292,-1654 1292,-1664 C1292,-1673 1250,-1681 1198,-1681 C1147,-1681 
        1105,-1673 1105,-1664 C1105,-1654 1147,-1646 1198,-1646 Z" stroke-width="2" transform="matrix(0.33333, 0, 0, 0.33333, 0, 0)"
        stroke="#036998"/>
    <path fill="none" d="M1174,-1677 C1159,-1676 1146,-1674 1136,-1672" stroke-width="2" transform="matrix(0.33333, 0, 0, 0.33333, 0, 0)"
        stroke="#036998"/>
    <path fill="none" d="M1175,-1673 C1161,-1672 1148,-1670 1139,-1668" stroke-width="2" transform="matrix(0.33333, 0, 0, 0.33333, 0, 0)"
        stroke="#036998"/>
    <path fill="none" d="M1176,-1669 C1162,-1668 1150,-1666 1141,-1663" stroke-width="2" transform="matrix(0.33333, 0, 0, 0.33333, 0, 0)"
        stroke="#036998"/>
    <path fill="none" d="M1178,-1664 C1165,-1663 1153,-1661 1145,-1658" stroke-width="2" transform="matrix(0.33333, 0, 0, 0.33333, 0, 0)"
        stroke="#036998"/>
    <path fill="none" d="M1179,-1660 C1166,-1659 1155,-1656 1148,-1653" stroke-width="2" transform="matrix(0.33333, 0, 0, 0.33333, 0, 0)"
        stroke="#036998"/>
    <path fill="none" d="M1181,-1655 C1171,-1654 1162,-1652 1156,-1649" stroke-width="2" transform="matrix(0.33333, 0, 0, 0.33333, 0, 0)"
        stroke="#036998"/>
    <path fill="none" d="M1182,-1650 C1177,-1650 1174,-1649 1170,-1648" stroke-width="2" transform="matrix(0.33333, 0, 0, 0.33333, 0, 0)"
        stroke="#036998"/>
    <path fill="none" d="M1105,-1662 L1199,-1709 L1292,-1664" stroke-width="2" transform="matrix(0.33333, 0, 0, 0.33333, 0, 0)"
        stroke="#036998"/>
    <path d="M1199,-1697 C1203,-1697 1206,-1698 1206,-1700 C1206,-1702 1203,-1703 1199,-1703 C1196,-1703 1193,-1702 
        1193,-1700 C1193,-1698 1196,-1697 1199,-1697 Z" transform="matrix(0.33333, 0, 0, 0.33333, 0, 0)" stroke="none"/>
    <path d="M1199,-1716 L1197,-1650 L1202,-1650 L1199,-1716 Z M1221,-1593 L1221,-1611 L1176,-1611 L1176,-1593 
        L1221,-1593 Z" stroke="none" transform="matrix(0.33333, 0, 0, 0.33333, 0, 0)"/>
    <path fill="#ffffff" d="M1196,-1599 L1182,-1599 L1182,-1603 L1196,-1603 L1196,-1599 Z M1215,-1599 L1201,-1599 
        L1201,-1603 L1215,-1603 L1215,-1599 Z" transform="matrix(0.33333, 0, 0, 0.33333, 0, 0)" stroke="none"/>
    <path d="M1272,-1558 C1272,-1542 1239,-1529 1198,-1529 C1158,-1529 1125,-1542 1125,-1558 C1125,-1516 1125,-1516 
        1125,-1516 C1125,-1500 1158,-1487 1198,-1487 C1239,-1487 1272,-1500 1272,-1516 Z" stroke-width="2" transform="matrix(0.33333, 0, 0, 0.33333, 0, 0)"/>
    <path d="M1198,-1529 C1239,-1529 1272,-1542 1272,-1558 C1272,-1574 1239,-1586 1198,-1586 C1158,-1586 1125,-1574 
        1125,-1558 C1125,-1542 1158,-1529 1198,-1529 Z" stroke-width="2" transform="matrix(0.33333, 0, 0, 0.33333, 0, 0)"/>
    <path fill="#ffffff" d="M1182,-1569 L1188,-1560 L1165,-1555 L1170,-1559 L1134,-1565 L1143,-1572 L1177,-1566 
        L1182,-1569 Z M1214,-1547 L1210,-1556 L1231,-1560 L1227,-1557 L1261,-1551 L1253,-1545 L1219,-1551 L1214,-1547 Z 
        M1203,-1574 L1226,-1580 L1226,-1570 L1220,-1572 L1209,-1562 L1198,-1564 L1210,-1573 L1203,-1574 Z M1193,-1538 
        L1171,-1534 L1170,-1544 L1176,-1543 L1188,-1553 L1199,-1552 L1186,-1540 L1193,-1538 Z" transform="matrix(0.33333, 0, 0, 0.33333, 0, 0)"
        stroke="none"/>
</svg>