<?xml version="1.0" standalone="no"?>
<!DOCTYPE svg PUBLIC "-//W3C//DTD SVG 1.0//EN"
    "http://www.w3.org/TR/2001/REC-SVG-20010904/DTD/svg10.dtd">
<?xml-stylesheet type="text/css" href="..\cisco_network.css" ?>
<svg contentScriptType="text/ecmascript" zoomAndPan="magnify" xmlns:xlink="http://www.w3.org/1999/xlink" baseProfile="full"
    contentStyleType="text/css" enable-background="new" version="1.0" width="49.6063" preserveAspectRatio="none"
    viewBox="375.01 -715.01 56 35.008" height="31.011" xmlns="http://www.w3.org/2000/svg" color-interpolation-filters="sRGB"
    x="0" y="1.5">
    <path stroke-width="2" d="M1268,-2042 L1268,-2126 L1148,-2126 L1148,-2042 L1268,-2042 Z M1268,-2126 L1291,-2145 
        L1179,-2145 L1148,-2126 L1268,-2126 Z M1291,-2061 L1291,-2145 L1268,-2126 L1268,-2042 L1291,-2061 Z" transform="matrix(0.33333, 0, 0, 0.33333, 0, 0)"/>
    <path stroke-linecap="square" transform="matrix(0.33333, 0, 0, 0.33333, 0, 0)" fill="none" stroke-dasharray="8,8" d=
        "M1263,-2100 L1149,-2100" stroke="#ffffff" stroke-width="3"/>
    <path fill="#ffffff" d="M1266,-2100 L1249,-2092 L1253,-2100 L1249,-2107 L1266,-2100 Z" transform="matrix(0.33333, 0, 0, 0.33333, 0, 0)"
        stroke="none"/>
    <path stroke-linecap="square" transform="matrix(0.33333, 0, 0, 0.33333, 0, 0)" fill="none" stroke-linejoin="round"
        stroke-dasharray="8,8" d="M1227,-2058 L1243,-2071 L1149,-2071" stroke="#d9d9d9" stroke-width="3"/>
    <path fill="#d9d9d9" d="M1217,-2050 L1225,-2066 L1227,-2058 L1234,-2055 L1217,-2050 Z" transform="matrix(0.33333, 0, 0, 0.33333, 0, 0)"
        stroke="none"/>
    <path fill="none" stroke-width="2" d="M1252,-2063 L1252,-2117 L1237,-2105 L1237,-2051 L1252,-2063 Z M1175,-2063 
        L1175,-2117 L1160,-2105 L1160,-2051 L1175,-2063 Z M1213,-2063 L1213,-2117 L1199,-2105 L1199,-2051 L1213,-2063 Z"
        transform="matrix(0.33333, 0, 0, 0.33333, 0, 0)"/>
    <path stroke-linecap="square" transform="matrix(0.33333, 0, 0, 0.33333, 0, 0)" fill="none" stroke-dasharray="8,8" d=
        "M1148,-2099 L1125,-2099" stroke="#000000" stroke-width="3"/>
    <path stroke-linecap="square" transform="matrix(0.33333, 0, 0, 0.33333, 0, 0)" fill="none" stroke-dasharray="8,8" d=
        "M1148,-2071 L1125,-2071" stroke="#d9d9d9" stroke-width="3"/>
    <path stroke-linecap="square" transform="matrix(0.33333, 0, 0, 0.33333, 0, 0)" fill="none" stroke-dasharray="8,8" d=
        "M1148,-2071 L1125,-2071" stroke="#8c8c8c" stroke-width="3"/>
</svg>