<?xml version="1.0" standalone="no"?>
<!DOCTYPE svg PUBLIC "-//W3C//DTD SVG 1.0//EN"
    "http://www.w3.org/TR/2001/REC-SVG-20010904/DTD/svg10.dtd">
<?xml-stylesheet type="text/css" href="..\cisco_network.css" ?>
<svg contentScriptType="text/ecmascript" zoomAndPan="magnify" xmlns:xlink="http://www.w3.org/1999/xlink" baseProfile="full"
    contentStyleType="text/css" enable-background="new" version="1.0" width="30.1039" preserveAspectRatio="none"
    viewBox="390.02 -558.02 33.984 33.024" height="29.2535" xmlns="http://www.w3.org/2000/svg"
    color-interpolation-filters="sRGB" x="0" y="1.5">
    <path fill="none" d="M1174,-1590 L1271,-1590" stroke-width="2" transform="matrix(0.33333, 0, 0, 0.33333, 0, 0)"/>
    <path fill="none" d="M1257,-1576 L1271,-1590" stroke-width="2" transform="matrix(0.33333, 0, 0, 0.33333, 0, 0)"/>
    <path d="M1257,-1576 L1257,-1639 L1173,-1639 L1173,-1576 L1257,-1576 Z M1257,-1576 L1271,-1590 L1271,-1653 
        L1187,-1653 L1173,-1639 L1257,-1639 L1257,-1576 Z M1249,-1583 L1249,-1632 L1180,-1632 L1180,-1583 L1249,-1583 Z"
        stroke-width="2" transform="matrix(0.33333, 0, 0, 0.33333, 0, 0)"/>
    <path fill="none" d="M1257,-1639 L1271,-1653" stroke-width="2" transform="matrix(0.33333, 0, 0, 0.33333, 0, 0)"/>
    <path d="M1227,-1640 L1227,-1661 L1205,-1661 L1205,-1640 L1227,-1640 Z M1227,-1640 L1240,-1652 L1240,-1672 
        L1217,-1672 L1205,-1661 L1227,-1661 L1227,-1640 Z" stroke-width="2" transform="matrix(0.33333, 0, 0, 0.33333, 0, 0)"/>
    <path fill="none" d="M1227,-1661 L1240,-1672" stroke-width="2" transform="matrix(0.33333, 0, 0, 0.33333, 0, 0)"/>
</svg>