<?xml version="1.0" standalone="no"?>
<!DOCTYPE svg PUBLIC "-//W3C//DTD SVG 1.0//EN"
    "http://www.w3.org/TR/2001/REC-SVG-20010904/DTD/svg10.dtd">
<?xml-stylesheet type="text/css" href="..\cisco_network.css" ?>
<svg contentScriptType="text/ecmascript" zoomAndPan="magnify" xmlns:xlink="http://www.w3.org/1999/xlink" baseProfile="full"
    contentStyleType="text/css" enable-background="new" version="1.0" width="36.3402" preserveAspectRatio="none"
    viewBox="388.99 -556.99 41.024 30.976" height="27.4394" xmlns="http://www.w3.org/2000/svg"
    color-interpolation-filters="sRGB" x="0" y="1.5">
    <path d="M1167,-1580 L1167,-1600 L1251,-1600 L1251,-1580 L1167,-1580 Z M1251,-1600 L1167,-1600 L1207,-1657 
        L1287,-1657 L1251,-1600 Z M1287,-1657 L1287,-1620 L1251,-1580 L1251,-1599 L1287,-1657 Z" stroke-width="2"
        transform="matrix(0.33333, 0, 0, 0.33333, 0, 0)"/>
    <path d="M1223,-1647 C1218,-1641 1212,-1634 1208,-1627 C1208,-1621 1208,-1621 1208,-1621 C1195,-1602 1195,-1602 
        1195,-1602 C1194,-1616 1194,-1616 1194,-1616 C1196,-1626 1226,-1664 1233,-1668 C1235,-1656 1235,-1656 1235,-1656 
        C1224,-1641 1224,-1641 1224,-1641 Z" stroke-width="2" transform="matrix(0.33333, 0, 0, 0.33333, 0, 0)"/>
    <path d="M1179,-1616 L1177,-1602 L1195,-1602 L1194,-1616 L1179,-1616 Z" stroke-width="2" transform="matrix(0.33333, 0, 0, 0.33333, 0, 0)"/>
    <path d="M1233,-1668 C1226,-1664 1196,-1626 1194,-1616 C1179,-1616 1179,-1616 1179,-1616 C1181,-1626 1211,-1664 
        1218,-1668 Z" stroke-width="2" transform="matrix(0.33333, 0, 0, 0.33333, 0, 0)"/>
    <path d="M1211,-1605 L1205,-1605 L1208,-1608 L1213,-1608 L1211,-1605 Z M1223,-1605 L1217,-1605 L1220,-1608 
        L1225,-1608 L1223,-1605 Z M1235,-1605 L1229,-1605 L1232,-1608 L1237,-1608 L1235,-1605 Z M1247,-1605 L1241,-1605 
        L1244,-1608 L1249,-1608 L1247,-1605 Z" stroke-width="2" transform="matrix(0.33333, 0, 0, 0.33333, 0, 0)"/>
</svg>