<?xml version="1.0" standalone="no"?>
<!DOCTYPE svg PUBLIC "-//W3C//DTD SVG 1.0//EN"
    "http://www.w3.org/TR/2001/REC-SVG-20010904/DTD/svg10.dtd">
<?xml-stylesheet type="text/css" href="..\cisco_network.css" ?>
<svg contentScriptType="text/ecmascript" zoomAndPan="magnify" xmlns:xlink="http://www.w3.org/1999/xlink" baseProfile="full"
    contentStyleType="text/css" enable-background="new" version="1.0" width="29.2252" preserveAspectRatio="none"
    viewBox="395.01 -558.02 32.992 36" height="31.8898" xmlns="http://www.w3.org/2000/svg" color-interpolation-filters="sRGB"
    x="0" y="1.5">
    <path d="M1263,-1568 L1263,-1652 L1188,-1652 L1188,-1568 L1263,-1568 Z M1263,-1568 L1283,-1588 L1283,-1672 
        L1207,-1672 L1188,-1652 L1263,-1652 L1263,-1568 Z" stroke-width="2" transform="matrix(0.33333, 0, 0, 0.33333, 0, 0)"/>
    <path fill="none" d="M1263,-1652 L1283,-1672 M1263,-1632 L1188,-1632 M1263,-1589 L1188,-1589 M1263,-1610 L1188,-1610 
        M1239,-1642 L1255,-1642 M1239,-1620 L1255,-1620 M1239,-1600 L1255,-1600 M1239,-1579 L1255,-1579" stroke-width="2"
        transform="matrix(0.33333, 0, 0, 0.33333, 0, 0)"/>
</svg>