<?xml version="1.0" standalone="no"?>
<!DOCTYPE svg PUBLIC "-//W3C//DTD SVG 1.0//EN"
    "http://www.w3.org/TR/2001/REC-SVG-20010904/DTD/svg10.dtd">
<?xml-stylesheet type="text/css" href="..\cisco_network.css" ?>
<svg contentScriptType="text/ecmascript" zoomAndPan="magnify" xmlns:xlink="http://www.w3.org/1999/xlink" baseProfile="full"
    contentStyleType="text/css" enable-background="new" version="1.0" width="43.3984" preserveAspectRatio="none"
    viewBox="384 -564 48.992 33.984" height="30.1039" xmlns="http://www.w3.org/2000/svg" color-interpolation-filters="sRGB"
    x="0" y="1.5">
    <path d="M1299,-1662 C1299,-1646 1266,-1634 1226,-1634 C1185,-1634 1152,-1646 1152,-1662 C1152,-1620 1152,-1620 
        1152,-1620 C1152,-1605 1185,-1592 1226,-1592 C1266,-1592 1299,-1605 1299,-1620 Z" stroke-width="2" transform="matrix(0.33333, 0, 0, 0.33333, 0, 0)"/>
    <path d="M1226,-1634 C1266,-1634 1299,-1646 1299,-1662 C1299,-1678 1266,-1691 1226,-1691 C1185,-1691 1152,-1678 
        1152,-1662 C1152,-1646 1185,-1634 1226,-1634 Z" stroke-width="2" transform="matrix(0.33333, 0, 0, 0.33333, 0, 0)"/>
    <path fill="#ffffff" d="M1209,-1673 L1215,-1664 L1192,-1659 L1197,-1663 L1162,-1669 L1170,-1676 L1205,-1670 
        L1209,-1673 Z M1241,-1651 L1237,-1661 L1258,-1665 L1254,-1662 L1289,-1656 L1280,-1649 L1246,-1656 L1241,-1651 Z 
        M1230,-1678 L1253,-1685 L1253,-1675 L1248,-1676 L1236,-1667 L1225,-1668 L1237,-1677 L1230,-1678 Z M1220,-1643 
        L1198,-1639 L1197,-1649 L1203,-1647 L1216,-1658 L1226,-1656 L1213,-1645 L1220,-1643 Z" transform="matrix(0.33333, 0, 0, 0.33333, 0, 0)"
        stroke="none"/>
    <text font-size="36" transform="matrix(0.33333, 0, 0, 0.33333, 399.3, -533.72)" fill="#ffffff" font-family="'Helvetica'"
        font-style="normal" stroke="none" font-weight="700" xml:space="preserve">IAD</text>
</svg>