<?xml version="1.0" standalone="no"?>
<!DOCTYPE svg PUBLIC "-//W3C//DTD SVG 1.0//EN"
    "http://www.w3.org/TR/2001/REC-SVG-20010904/DTD/svg10.dtd">
<?xml-stylesheet type="text/css" href="..\cisco_network.css" ?>
<svg contentScriptType="text/ecmascript" zoomAndPan="magnify" xmlns:xlink="http://www.w3.org/1999/xlink" baseProfile="full"
    contentStyleType="text/css" enable-background="new" version="1.0" width="23.9244" preserveAspectRatio="none"
    viewBox="396.99 -572 27.008 49.984" height="44.2772" xmlns="http://www.w3.org/2000/svg" color-interpolation-filters="sRGB"
    x="0" y="1.5">
    <path d="M1257,-1573 L1257,-1701 L1197,-1701 L1197,-1573 L1257,-1573 Z M1197,-1701 L1209,-1712 L1266,-1712 
        L1257,-1701 L1197,-1701 Z M1257,-1573 L1266,-1591 L1266,-1712 L1257,-1701 L1257,-1573 Z M1262,-1568 L1257,-1573 
        L1197,-1573 L1191,-1568 L1262,-1568 Z M1262,-1568 L1271,-1587 L1266,-1591 L1257,-1573 L1262,-1568 Z"
        stroke-width="2" transform="matrix(0.33333, 0, 0, 0.33333, 0, 0)"/>
    <path fill="none" d="M1257,-1573 L1197,-1573 M1266,-1591 L1257,-1573 M1197,-1695 L1257,-1695 M1197,-1694 
        L1257,-1694" stroke-width="2" transform="matrix(0.33333, 0, 0, 0.33333, 0, 0)"/>
    <path fill="#000000" d="M1245,-1679 L1201,-1679 L1201,-1675 L1209,-1675 Z" transform="matrix(0.33333, 0, 0, 0.33333, 0, 0)"
        stroke="none"/>
    <path fill="none" d="M1245,-1679 L1201,-1679 L1201,-1675 L1209,-1675" stroke-width="2" transform="matrix(0.33333, 0, 0, 0.33333, 0, 0)"
        stroke="#ffffff"/>
    <path fill="#000000" d="M1245,-1672 L1201,-1672 L1201,-1668 L1209,-1668 Z" transform="matrix(0.33333, 0, 0, 0.33333, 0, 0)"
        stroke="none"/>
    <path fill="none" d="M1245,-1672 L1201,-1672 L1201,-1668 L1209,-1668" stroke-width="2" transform="matrix(0.33333, 0, 0, 0.33333, 0, 0)"
        stroke="#ffffff"/>
    <path fill="#000000" d="M1245,-1664 L1201,-1664 L1201,-1660 L1209,-1660 Z" transform="matrix(0.33333, 0, 0, 0.33333, 0, 0)"
        stroke="none"/>
    <path fill="none" d="M1245,-1664 L1201,-1664 L1201,-1660 L1209,-1660" stroke-width="2" transform="matrix(0.33333, 0, 0, 0.33333, 0, 0)"
        stroke="#ffffff"/>
    <path fill="#000000" d="M1245,-1657 L1201,-1657 L1201,-1653 L1209,-1653 Z" transform="matrix(0.33333, 0, 0, 0.33333, 0, 0)"
        stroke="none"/>
    <path fill="none" d="M1245,-1657 L1201,-1657 L1201,-1653 L1209,-1653" stroke-width="2" transform="matrix(0.33333, 0, 0, 0.33333, 0, 0)"
        stroke="#ffffff"/>
    <path fill="#000000" d="M1245,-1649 L1201,-1649 L1201,-1645 L1209,-1645 Z" transform="matrix(0.33333, 0, 0, 0.33333, 0, 0)"
        stroke="none"/>
    <path fill="none" d="M1245,-1649 L1201,-1649 L1201,-1645 L1209,-1645" stroke-width="2" transform="matrix(0.33333, 0, 0, 0.33333, 0, 0)"
        stroke="#ffffff"/>
    <path fill="#000000" d="M1245,-1642 L1201,-1642 L1201,-1638 L1209,-1638 Z" transform="matrix(0.33333, 0, 0, 0.33333, 0, 0)"
        stroke="none"/>
    <path fill="none" d="M1245,-1642 L1201,-1642 L1201,-1638 L1209,-1638" stroke-width="2" transform="matrix(0.33333, 0, 0, 0.33333, 0, 0)"
        stroke="#ffffff"/>
    <path fill="#000000" d="M1245,-1635 L1201,-1635 L1201,-1631 L1209,-1631 Z" transform="matrix(0.33333, 0, 0, 0.33333, 0, 0)"
        stroke="none"/>
    <path fill="none" d="M1245,-1635 L1201,-1635 L1201,-1631 L1209,-1631" stroke-width="2" transform="matrix(0.33333, 0, 0, 0.33333, 0, 0)"
        stroke="#ffffff"/>
    <path fill="#000000" d="M1245,-1627 L1201,-1627 L1201,-1623 L1209,-1623 Z" transform="matrix(0.33333, 0, 0, 0.33333, 0, 0)"
        stroke="none"/>
    <path fill="none" d="M1245,-1627 L1201,-1627 L1201,-1623 L1209,-1623" stroke-width="2" transform="matrix(0.33333, 0, 0, 0.33333, 0, 0)"
        stroke="#ffffff"/>
    <path fill="#000000" d="M1245,-1620 L1201,-1620 L1201,-1616 L1209,-1616 Z" transform="matrix(0.33333, 0, 0, 0.33333, 0, 0)"
        stroke="none"/>
    <path fill="none" d="M1245,-1620 L1201,-1620 L1201,-1616 L1209,-1616" stroke-width="2" transform="matrix(0.33333, 0, 0, 0.33333, 0, 0)"
        stroke="#ffffff"/>
    <path fill="#000000" d="M1245,-1612 L1201,-1612 L1201,-1608 L1209,-1608 Z" transform="matrix(0.33333, 0, 0, 0.33333, 0, 0)"
        stroke="none"/>
    <path fill="none" d="M1245,-1612 L1201,-1612 L1201,-1608 L1209,-1608" stroke-width="2" transform="matrix(0.33333, 0, 0, 0.33333, 0, 0)"
        stroke="#ffffff"/>
    <path fill="#000000" d="M1245,-1605 L1201,-1605 L1201,-1601 L1209,-1601 Z" transform="matrix(0.33333, 0, 0, 0.33333, 0, 0)"
        stroke="none"/>
    <path fill="none" d="M1245,-1605 L1201,-1605 L1201,-1601 L1209,-1601" stroke-width="2" transform="matrix(0.33333, 0, 0, 0.33333, 0, 0)"
        stroke="#ffffff"/>
    <path fill="#000000" d="M1245,-1598 L1201,-1598 L1201,-1594 L1209,-1594 Z" transform="matrix(0.33333, 0, 0, 0.33333, 0, 0)"
        stroke="none"/>
    <path fill="none" d="M1245,-1598 L1201,-1598 L1201,-1594 L1209,-1594" stroke-width="2" transform="matrix(0.33333, 0, 0, 0.33333, 0, 0)"
        stroke="#ffffff"/>
    <path fill="#000000" d="M1245,-1590 L1201,-1590 L1201,-1586 L1209,-1586 Z" transform="matrix(0.33333, 0, 0, 0.33333, 0, 0)"
        stroke="none"/>
    <path fill="none" d="M1245,-1590 L1201,-1590 L1201,-1586 L1209,-1586" stroke-width="2" transform="matrix(0.33333, 0, 0, 0.33333, 0, 0)"
        stroke="#ffffff"/>
    <path fill="#000000" d="M1245,-1583 L1201,-1583 L1201,-1579 L1209,-1579 Z" transform="matrix(0.33333, 0, 0, 0.33333, 0, 0)"
        stroke="none"/>
    <path fill="none" d="M1245,-1583 L1201,-1583 L1201,-1579 L1209,-1579" stroke-width="2" transform="matrix(0.33333, 0, 0, 0.33333, 0, 0)"
        stroke="#ffffff"/>
</svg>