<?xml version="1.0" standalone="no"?>
<!DOCTYPE svg PUBLIC "-//W3C//DTD SVG 1.0//EN"
    "http://www.w3.org/TR/2001/REC-SVG-20010904/DTD/svg10.dtd">
<?xml-stylesheet type="text/css" href="..\cisco_network.css" ?>
<svg contentScriptType="text/ecmascript" zoomAndPan="magnify" xmlns:xlink="http://www.w3.org/1999/xlink" baseProfile="full"
    contentStyleType="text/css" enable-background="new" version="1.0" width="40.7339" preserveAspectRatio="none"
    viewBox="387.01 -564 45.984 48.992" height="43.3984" xmlns="http://www.w3.org/2000/svg" color-interpolation-filters="sRGB"
    x="0" y="1.5">
    <path stroke-width="2" d="M1229,-1548 L1162,-1583 L1162,-1657 L1229,-1622 L1229,-1548 Z" transform="matrix(0.33333, 0, 0, 0.33333, 0, 0)"/>
    <path stroke-width="2" d="M1229,-1548 L1296,-1583 L1296,-1657 L1229,-1622 L1229,-1548 Z" transform="matrix(0.33333, 0, 0, 0.33333, 0, 0)"/>
    <path stroke-width="2" d="M1229,-1622 L1296,-1657 L1229,-1692 L1162,-1657 L1229,-1622 Z" transform="matrix(0.33333, 0, 0, 0.33333, 0, 0)"/>
    <path stroke-width="2" d="M1296,-1583 L1229,-1548 L1229,-1622 L1296,-1657 L1296,-1583 Z" transform="matrix(0.33333, 0, 0, 0.33333, 0, 0)"/>
    <path fill="#ffffff" d="M1229,-1653 L1243,-1646 L1235,-1646 L1235,-1632 L1224,-1632 L1224,-1646 L1215,-1646 
        L1229,-1653 Z M1280,-1657 L1266,-1650 L1266,-1654 L1240,-1654 L1240,-1660 L1266,-1660 L1266,-1665 L1280,-1657 Z 
        M1229,-1661 L1215,-1668 L1224,-1668 L1224,-1682 L1235,-1682 L1235,-1668 L1243,-1668 L1229,-1661 Z M1178,-1657 
        L1192,-1665 L1192,-1660 L1218,-1660 L1218,-1654 L1192,-1654 L1192,-1650 L1178,-1657 Z" transform="matrix(0.33333, 0, 0, 0.33333, 0, 0)"
        stroke="none"/>
    <path stroke-linecap="round" transform="matrix(0.33333, 0, 0, 0.33333, 0, 0)" fill="#ffffff" stroke-linejoin="round"
        d="M1290,-1604 L1290,-1647 L1238,-1620 L1238,-1577 L1290,-1604 Z" stroke="#036c9b" stroke-width="2"/>
    <path stroke-linecap="round" transform="matrix(0.33333, 0, 0, 0.33333, 0, 0)" fill="#ffffff" stroke-linejoin="round"
        d="M1246,-1619 C1282,-1638 1282,-1638 1282,-1638 C1284,-1639 1286,-1638 1286,-1636 C1286,-1611 1286,-1611 
        1286,-1611 C1286,-1608 1284,-1605 1282,-1604 C1246,-1585 1246,-1585 1246,-1585 C1243,-1584 1242,-1585 1242,-1587 
        C1242,-1612 1242,-1612 1242,-1612 C1242,-1615 1243,-1618 1246,-1619 Z" stroke="#036c9b" stroke-width="2"/>
    <path stroke-linecap="round" transform="matrix(0.33333, 0, 0, 0.33333, 0, 0)" fill="#ffffff" stroke-linejoin="round"
        d="M1278,-1593 L1250,-1578 L1250,-1583 L1278,-1598 L1278,-1593 Z" stroke="#036c9b" stroke-width="2"/>
    <path stroke-linecap="round" transform="matrix(0.33333, 0, 0, 0.33333, 0, 0)" fill="#ffffff" stroke-linejoin="round"
        d="M1290,-1587 L1238,-1560 L1238,-1572 L1290,-1599 L1290,-1587 Z" stroke="#036c9b" stroke-width="2"/>
    <path stroke-linecap="round" transform="matrix(0.33333, 0, 0, 0.33333, 0, 0)" fill="#ffffff" stroke-linejoin="round"
        d="M1291,-1585 L1237,-1556 L1237,-1561 L1291,-1590 L1291,-1585 Z" stroke="#036c9b" stroke-width="2"/>
    <path fill="#036c9b" d="M1265,-1609 L1259,-1599 L1259,-1621 L1274,-1613 L1265,-1609 Z" transform="matrix(0.33333, 0, 0, 0.33333, 0, 0)"
        stroke="none"/>
    <path fill="#5e5e5e" d="M1265,-1608 L1269,-1600 L1270,-1601 L1266,-1609 L1265,-1608 Z" transform="matrix(0.33333, 0, 0, 0.33333, 0, 0)"
        stroke="none"/>
    <path fill="#ffffff" d="M1224,-1571 L1224,-1587 L1214,-1584 L1224,-1571 Z M1168,-1600 L1168,-1617 L1178,-1604 
        L1168,-1600 Z M1174,-1630 L1174,-1613 L1164,-1626 L1174,-1630 Z M1217,-1607 L1217,-1591 L1227,-1594 L1217,-1607 
        Z" stroke-width="2.54" transform="matrix(0.33333, 0, 0, 0.33333, 0, 0)"/>
    <path fill="#ffffff" d="M1212,-1599 L1218,-1596 L1220,-1599 L1213,-1602 L1212,-1599 Z" transform="matrix(0.33333, 0, 0, 0.33333, 0, 0)"
        stroke="none"/>
    <path fill="none" stroke-width="3" d="M1221,-1581 L1229,-1577" transform="matrix(0.33333, 0, 0, 0.33333, 0, 0)"/>
    <path fill="none" stroke-width="3" d="M1170,-1608 L1162,-1612" transform="matrix(0.33333, 0, 0, 0.33333, 0, 0)"/>
    <path fill="#ffffff" d="M1170,-1622 L1179,-1617 L1179,-1620 L1171,-1624 L1170,-1622 Z M1208,-1604 L1208,-1571 
        L1184,-1583 L1184,-1617 L1208,-1604 Z" transform="matrix(0.33333, 0, 0, 0.33333, 0, 0)" stroke="none"/>
    <path fill="#ffffff" stroke-width="2" d="M1204,-1597 L1188,-1605 L1188,-1611 L1204,-1603 L1204,-1597 Z M1204,-1576 
        L1188,-1584 L1188,-1599 L1204,-1591 L1204,-1576 Z" transform="matrix(0.33333, 0, 0, 0.33333, 0, 0)" stroke="#036c9b"/>
    <path fill="#ffffff" d="M1201,-1617 C1201,-1617 1202,-1617 1203,-1615 C1203,-1611 1203,-1611 1203,-1611 C1213,-1605 
        1213,-1605 1213,-1605 C1214,-1607 1214,-1607 1214,-1607 C1211,-1614 1211,-1614 1211,-1614 C1202,-1620 1200,-1621 
        1200,-1621 C1197,-1623 1197,-1623 1197,-1623 C1197,-1623 1189,-1626 1185,-1627 C1180,-1625 1180,-1625 1180,-1625 
        C1180,-1622 1180,-1622 1180,-1622 C1190,-1618 1190,-1618 1190,-1618 C1190,-1621 1190,-1621 1190,-1621 
        C1191,-1623 1193,-1622 1193,-1622 Z" transform="matrix(0.33333, 0, 0, 0.33333, 0, 0)" stroke="none"/>
    <path fill="none" d="M1204,-1594 L1188,-1602" stroke-width="2" transform="matrix(0.33333, 0, 0, 0.33333, 0, 0)"
        stroke="#036c9b"/>
</svg>