<?xml version="1.0" standalone="no"?>
<!DOCTYPE svg PUBLIC "-//W3C//DTD SVG 1.0//EN"
    "http://www.w3.org/TR/2001/REC-SVG-20010904/DTD/svg10.dtd">
<?xml-stylesheet type="text/css" href="..\cisco_network.css" ?>
<svg contentScriptType="text/ecmascript" zoomAndPan="magnify" xmlns:xlink="http://www.w3.org/1999/xlink" baseProfile="full"
    contentStyleType="text/css" enable-background="new" version="1.0" width="38.0976" preserveAspectRatio="none"
    viewBox="403.01 -543.01 43.008 46.016" height="40.7622" xmlns="http://www.w3.org/2000/svg"
    color-interpolation-filters="sRGB" x="0" y="1.5">
    <path fill="none" d="M1210,-1563 L1304,-1563" stroke-width="2" transform="matrix(0.33333, 0, 0, 0.33333, 0, 0)"/>
    <path d="M1304,-1494 L1304,-1524 L1210,-1524 L1210,-1494 L1304,-1494 Z" stroke-width="2" transform="matrix(0.33333, 0, 0, 0.33333, 0, 0)"/>
    <path fill="#000000" d="M1335,-1552 L1304,-1524 L1210,-1524 L1244,-1552 L1335,-1552 Z" transform="matrix(0.33333, 0, 0, 0.33333, 0, 0)"/>
    <path d="M1335,-1523 L1335,-1552 L1304,-1524 L1304,-1494 L1335,-1523 Z M1304,-1531 L1304,-1561 L1210,-1561 
        L1210,-1531 L1304,-1531 Z" stroke-width="2" transform="matrix(0.33333, 0, 0, 0.33333, 0, 0)"/>
    <path fill="#000000" d="M1335,-1590 L1304,-1562 L1210,-1562 L1244,-1590 L1335,-1590 Z" transform="matrix(0.33333, 0, 0, 0.33333, 0, 0)"/>
    <path d="M1335,-1557 L1335,-1588 L1304,-1560 L1304,-1530 L1335,-1557 Z M1304,-1568 L1304,-1598 L1210,-1598 
        L1210,-1568 L1304,-1568 Z M1335,-1626 L1304,-1598 L1210,-1598 L1244,-1626 L1335,-1626 Z M1335,-1596 L1335,-1626 
        L1304,-1598 L1304,-1568 L1335,-1596 Z" stroke-width="2" transform="matrix(0.33333, 0, 0, 0.33333, 0, 0)"/>
    <path fill="#000000" d="M1287,-1610 L1291,-1613 L1302,-1610 L1280,-1605 L1284,-1609 L1263,-1609 L1266,-1610 
        L1287,-1610 Z M1277,-1618 L1275,-1616 L1257,-1616 L1254,-1614 L1243,-1618 L1264,-1622 L1259,-1618 L1277,-1618 Z 
        M1261,-1606 L1259,-1604 L1241,-1604 L1238,-1602 L1227,-1605 L1249,-1610 L1244,-1606 L1261,-1606 Z M1304,-1621 
        L1308,-1624 L1319,-1621 L1297,-1616 L1301,-1619 L1280,-1619 L1283,-1621 L1304,-1621 Z" transform="matrix(0.33333, 0, 0, 0.33333, 0, 0)"
        stroke="none"/>
    <path fill="#ffffff" d="M1287,-1609 L1291,-1612 L1302,-1609 L1280,-1604 L1284,-1608 L1263,-1608 L1266,-1609 
        L1287,-1609 Z M1277,-1617 L1275,-1615 L1257,-1615 L1254,-1613 L1243,-1617 L1264,-1621 L1259,-1617 L1277,-1617 Z 
        M1261,-1605 L1259,-1603 L1241,-1603 L1238,-1601 L1227,-1604 L1249,-1609 L1244,-1605 L1261,-1605 Z M1304,-1620 
        L1308,-1623 L1319,-1620 L1297,-1615 L1301,-1618 L1280,-1618 L1283,-1620 L1304,-1620 Z M1261,-1564 L1261,-1585 
        L1264,-1585 L1259,-1593 L1254,-1585 L1257,-1585 L1257,-1564 L1261,-1564 Z M1250,-1557 L1235,-1572 L1238,-1574 
        L1229,-1576 L1230,-1567 L1233,-1569 L1248,-1555 L1250,-1557 Z M1245,-1547 L1224,-1547 L1224,-1551 L1216,-1546 
        L1224,-1540 L1224,-1544 L1245,-1544 L1245,-1547 Z M1248,-1537 L1233,-1522 L1230,-1525 L1229,-1515 L1238,-1517 
        L1235,-1520 L1250,-1534 L1248,-1537 Z M1257,-1531 L1257,-1511 L1254,-1511 L1259,-1503 L1264,-1511 L1261,-1511 
        L1261,-1531 L1257,-1531 Z M1268,-1534 L1283,-1520 L1280,-1517 L1289,-1515 L1287,-1525 L1285,-1522 L1270,-1537 
        L1268,-1534 Z M1273,-1544 L1294,-1544 L1294,-1540 L1302,-1546 L1294,-1551 L1294,-1547 L1273,-1547 L1273,-1544 Z 
        M1270,-1555 L1285,-1569 L1287,-1567 L1289,-1576 L1280,-1574 L1283,-1572 L1268,-1557 L1270,-1555 Z" transform="matrix(0.33333, 0, 0, 0.33333, 0, 0)"
        stroke="none"/>
    <path fill="#ffffff" d="M1268,-1533 C1275,-1538 1277,-1547 1272,-1554 C1267,-1561 1257,-1563 1251,-1558 C1244,-1553 
        1242,-1544 1247,-1537 C1252,-1530 1261,-1528 1268,-1533 Z" transform="matrix(0.33333, 0, 0, 0.33333, 0, 0)"
        stroke="#000000"/>
    <path fill="none" stroke-width="4" d="M1330,-1558 C1329,-1539 1323,-1524 1317,-1524 C1312,-1524 1308,-1541 
        1310,-1560 C1311,-1580 1317,-1595 1323,-1595 C1328,-1594 1332,-1578 1330,-1558 Z" transform="matrix(0.33333, 0, 0, 0.33333, 0, 0)"/>
</svg>