<?xml version="1.0" standalone="no"?>
<!DOCTYPE svg PUBLIC "-//W3C//DTD SVG 1.0//EN"
    "http://www.w3.org/TR/2001/REC-SVG-20010904/DTD/svg10.dtd">
<?xml-stylesheet type="text/css" href="..\cisco_network.css" ?>
<svg contentScriptType="text/ecmascript" zoomAndPan="magnify" xmlns:xlink="http://www.w3.org/1999/xlink" baseProfile="full"
    contentStyleType="text/css" enable-background="new" version="1.0" width="61.115" preserveAspectRatio="none" viewBox="390.02 -834.02 68.992 48"
    height="42.5197" xmlns="http://www.w3.org/2000/svg" color-interpolation-filters="sRGB" x="0" y="1.5">
    <path d="M1171,-2483 L1171,-2359 L1361,-2359 L1361,-2483 L1171,-2483 L1171,-2483 L1171,-2483 L1171,-2483 Z 
        M1171,-2483 L1171,-2359 L1361,-2359 L1361,-2483 L1171,-2483 L1171,-2483 L1171,-2483 L1171,-2483 Z M1171,-2483 
        L1186,-2499 L1376,-2499 L1361,-2483 L1171,-2483 L1171,-2483 L1171,-2483 L1171,-2483 Z M1171,-2483 L1186,-2499 
        L1376,-2499 L1361,-2483 L1171,-2483 L1171,-2483 L1171,-2483 L1171,-2483 Z M1361,-2483 L1376,-2499 L1376,-2375 
        L1361,-2359 L1361,-2483 L1361,-2483 L1361,-2483 L1361,-2483 Z M1361,-2483 L1376,-2499 L1376,-2375 L1361,-2359 
        L1361,-2483 L1361,-2483 L1361,-2483 L1361,-2483 Z" stroke-width="2" transform="matrix(0.33333, 0, 0, 0.33333, 0, 0)"/>
    <path d="M1323,-2456 L1323,-2463 L1341,-2451 L1323,-2439 L1323,-2446 L1300,-2446 L1300,-2456 L1323,-2456 L1323,-2456 
        L1323,-2456 L1323,-2456 Z M1228,-2425 L1228,-2432 L1245,-2420 L1228,-2408 L1228,-2415 L1184,-2415 L1184,-2425 
        L1228,-2425 L1228,-2425 L1228,-2425 L1228,-2425 Z M1323,-2394 L1323,-2401 L1341,-2389 L1323,-2377 L1323,-2384 
        L1300,-2384 L1300,-2394 L1323,-2394 L1323,-2394 L1323,-2394 L1323,-2394 Z" fill-rule="evenodd" transform="matrix(0.33333, 0, 0, 0.33333, 0, 0)"
        stroke="none"/>
    <path fill="#ffffff" d="M1321,-2458 L1321,-2465 L1338,-2454 L1321,-2441 L1321,-2449 L1298,-2449 L1298,-2458 
        L1321,-2458 L1321,-2458 L1321,-2458 L1321,-2458 Z M1225,-2427 L1225,-2435 L1243,-2422 L1225,-2410 L1225,-2418 
        L1182,-2418 L1182,-2427 L1225,-2427 L1225,-2427 L1225,-2427 L1225,-2427 Z" fill-rule="evenodd" transform="matrix(0.33333, 0, 0, 0.33333, 0, 0)"
        stroke="none"/>
    <path fill="#000000" d="M1339,-2425 L1339,-2432 L1356,-2420 L1339,-2408 L1339,-2415 L1299,-2415 L1299,-2425 
        L1339,-2425 L1339,-2425 L1339,-2425 L1339,-2425 Z" fill-rule="evenodd" transform="matrix(0.33333, 0, 0, 0.33333, 0, 0)"
        stroke="none"/>
    <path fill="#ffffff" d="M1337,-2427 L1337,-2435 L1354,-2422 L1337,-2410 L1337,-2418 L1297,-2418 L1297,-2427 
        L1337,-2427 L1337,-2427 L1337,-2427 L1337,-2427 Z M1321,-2396 L1321,-2403 L1338,-2391 L1321,-2379 L1321,-2386 
        L1298,-2386 L1298,-2396 L1321,-2396 L1321,-2396 L1321,-2396 L1321,-2396 Z" fill-rule="evenodd" transform="matrix(0.33333, 0, 0, 0.33333, 0, 0)"
        stroke="none"/>
    <path d="M1291,-2473 L1291,-2369 L1246,-2369 L1246,-2473 L1291,-2473 L1291,-2473 L1291,-2473 Z" fill-rule="evenodd"
        transform="matrix(0.33333, 0, 0, 0.33333, 0, 0)" stroke="none"/>
    <path fill="none" stroke-width="3" d="M1291,-2473 L1291,-2369 L1246,-2369 L1246,-2473 L1291,-2473 L1291,-2473 
        L1291,-2473 Z" transform="matrix(0.33333, 0, 0, 0.33333, 0, 0)" stroke="#8ec9e0" stroke-linecap="square"/>
    <path fill="#ffffff" d="M1279,-2393 L1279,-2379 L1260,-2379 L1260,-2393 L1279,-2393 L1279,-2393 L1279,-2393 Z"
        fill-rule="evenodd" transform="matrix(0.33333, 0, 0, 0.33333, 0, 0)" stroke="none"/>
    <path fill="none" d="M1279,-2393 L1279,-2379 L1260,-2379 L1260,-2393 L1279,-2393 L1279,-2393 L1279,-2393 Z"
        transform="matrix(0.33333, 0, 0, 0.33333, 0, 0)" stroke-linecap="square"/>
    <path fill="#ffffff" d="M1288,-2379 L1288,-2375 L1285,-2375 L1285,-2379 L1288,-2379 L1288,-2379 L1288,-2379 Z"
        fill-rule="evenodd" transform="matrix(0.33333, 0, 0, 0.33333, 0, 0)" stroke="none"/>
    <path fill="none" d="M1288,-2379 L1288,-2375 L1285,-2375 L1285,-2379 L1288,-2379 L1288,-2379 L1288,-2379 Z"
        transform="matrix(0.33333, 0, 0, 0.33333, 0, 0)" stroke-linecap="square"/>
    <path fill="#ffffff" d="M1288,-2388 L1288,-2383 L1285,-2383 L1285,-2388 L1288,-2388 L1288,-2388 L1288,-2388 Z"
        fill-rule="evenodd" transform="matrix(0.33333, 0, 0, 0.33333, 0, 0)" stroke="none"/>
    <path fill="none" d="M1288,-2388 L1288,-2383 L1285,-2383 L1285,-2388 L1288,-2388 L1288,-2388 L1288,-2388 Z"
        transform="matrix(0.33333, 0, 0, 0.33333, 0, 0)" stroke-linecap="square"/>
    <path fill="#ffffff" d="M1288,-2396 L1288,-2392 L1285,-2392 L1285,-2396 L1288,-2396 L1288,-2396 L1288,-2396 Z"
        fill-rule="evenodd" transform="matrix(0.33333, 0, 0, 0.33333, 0, 0)" stroke="none"/>
    <path fill="none" d="M1288,-2396 L1288,-2392 L1285,-2392 L1285,-2396 L1288,-2396 L1288,-2396 L1288,-2396 Z"
        transform="matrix(0.33333, 0, 0, 0.33333, 0, 0)" stroke-linecap="square"/>
    <path fill="#ffffff" d="M1288,-2404 L1288,-2400 L1285,-2400 L1285,-2404 L1288,-2404 L1288,-2404 L1288,-2404 Z"
        fill-rule="evenodd" transform="matrix(0.33333, 0, 0, 0.33333, 0, 0)" stroke="none"/>
    <path fill="none" d="M1288,-2404 L1288,-2400 L1285,-2400 L1285,-2404 L1288,-2404 L1288,-2404 L1288,-2404 Z"
        transform="matrix(0.33333, 0, 0, 0.33333, 0, 0)" stroke-linecap="square"/>
    <path fill="#ffffff" d="M1288,-2413 L1288,-2409 L1285,-2409 L1285,-2413 L1288,-2413 L1288,-2413 L1288,-2413 Z"
        fill-rule="evenodd" transform="matrix(0.33333, 0, 0, 0.33333, 0, 0)" stroke="none"/>
    <path fill="none" d="M1288,-2413 L1288,-2409 L1285,-2409 L1285,-2413 L1288,-2413 L1288,-2413 L1288,-2413 Z"
        transform="matrix(0.33333, 0, 0, 0.33333, 0, 0)" stroke-linecap="square"/>
    <path fill="#ffffff" d="M1288,-2421 L1288,-2417 L1285,-2417 L1285,-2421 L1288,-2421 L1288,-2421 L1288,-2421 Z"
        fill-rule="evenodd" transform="matrix(0.33333, 0, 0, 0.33333, 0, 0)" stroke="none"/>
    <path fill="none" d="M1288,-2421 L1288,-2417 L1285,-2417 L1285,-2421 L1288,-2421 L1288,-2421 L1288,-2421 Z"
        transform="matrix(0.33333, 0, 0, 0.33333, 0, 0)" stroke-linecap="square"/>
    <path fill="#ffffff" d="M1288,-2430 L1288,-2425 L1285,-2425 L1285,-2430 L1288,-2430 L1288,-2430 L1288,-2430 Z"
        fill-rule="evenodd" transform="matrix(0.33333, 0, 0, 0.33333, 0, 0)" stroke="none"/>
    <path fill="none" d="M1288,-2430 L1288,-2425 L1285,-2425 L1285,-2430 L1288,-2430 L1288,-2430 L1288,-2430 Z"
        transform="matrix(0.33333, 0, 0, 0.33333, 0, 0)" stroke-linecap="square"/>
    <path fill="#ffffff" d="M1288,-2438 L1288,-2434 L1285,-2434 L1285,-2438 L1288,-2438 L1288,-2438 L1288,-2438 Z"
        fill-rule="evenodd" transform="matrix(0.33333, 0, 0, 0.33333, 0, 0)" stroke="none"/>
    <path fill="none" d="M1288,-2438 L1288,-2434 L1285,-2434 L1285,-2438 L1288,-2438 L1288,-2438 L1288,-2438 Z"
        transform="matrix(0.33333, 0, 0, 0.33333, 0, 0)" stroke-linecap="square"/>
    <path fill="#ffffff" d="M1288,-2447 L1288,-2443 L1285,-2443 L1285,-2447 L1288,-2447 L1288,-2447 L1288,-2447 Z"
        fill-rule="evenodd" transform="matrix(0.33333, 0, 0, 0.33333, 0, 0)" stroke="none"/>
    <path fill="none" d="M1288,-2447 L1288,-2443 L1285,-2443 L1285,-2447 L1288,-2447 L1288,-2447 L1288,-2447 Z"
        transform="matrix(0.33333, 0, 0, 0.33333, 0, 0)" stroke-linecap="square"/>
    <path fill="#ffffff" d="M1288,-2455 L1288,-2451 L1285,-2451 L1285,-2455 L1288,-2455 L1288,-2455 L1288,-2455 Z"
        fill-rule="evenodd" transform="matrix(0.33333, 0, 0, 0.33333, 0, 0)" stroke="none"/>
    <path fill="none" d="M1288,-2455 L1288,-2451 L1285,-2451 L1285,-2455 L1288,-2455 L1288,-2455 L1288,-2455 Z"
        transform="matrix(0.33333, 0, 0, 0.33333, 0, 0)" stroke-linecap="square"/>
    <path fill="#ffffff" d="M1288,-2463 L1288,-2460 L1285,-2459 L1285,-2463 L1288,-2463 L1288,-2463 L1288,-2463 Z"
        fill-rule="evenodd" transform="matrix(0.33333, 0, 0, 0.33333, 0, 0)" stroke="none"/>
    <path fill="none" d="M1288,-2463 L1288,-2460 L1285,-2459 L1285,-2463 L1288,-2463 L1288,-2463 L1288,-2463 Z"
        transform="matrix(0.33333, 0, 0, 0.33333, 0, 0)" stroke-linecap="square"/>
    <path fill="#ffffff" d="M1254,-2379 L1254,-2375 L1250,-2375 L1250,-2379 L1254,-2379 L1254,-2379 L1254,-2379 Z"
        fill-rule="evenodd" transform="matrix(0.33333, 0, 0, 0.33333, 0, 0)" stroke="none"/>
    <path fill="none" d="M1254,-2379 L1254,-2375 L1250,-2375 L1250,-2379 L1254,-2379 L1254,-2379 L1254,-2379 Z"
        transform="matrix(0.33333, 0, 0, 0.33333, 0, 0)" stroke-linecap="square"/>
    <path fill="#ffffff" d="M1254,-2388 L1254,-2383 L1250,-2383 L1250,-2388 L1254,-2388 L1254,-2388 L1254,-2388 Z"
        fill-rule="evenodd" transform="matrix(0.33333, 0, 0, 0.33333, 0, 0)" stroke="none"/>
    <path fill="none" d="M1254,-2388 L1254,-2383 L1250,-2383 L1250,-2388 L1254,-2388 L1254,-2388 L1254,-2388 Z"
        transform="matrix(0.33333, 0, 0, 0.33333, 0, 0)" stroke-linecap="square"/>
    <path fill="#ffffff" d="M1254,-2396 L1254,-2392 L1250,-2392 L1250,-2396 L1254,-2396 L1254,-2396 L1254,-2396 Z"
        fill-rule="evenodd" transform="matrix(0.33333, 0, 0, 0.33333, 0, 0)" stroke="none"/>
    <path fill="none" d="M1254,-2396 L1254,-2392 L1250,-2392 L1250,-2396 L1254,-2396 L1254,-2396 L1254,-2396 Z"
        transform="matrix(0.33333, 0, 0, 0.33333, 0, 0)" stroke-linecap="square"/>
    <path fill="#ffffff" d="M1254,-2404 L1254,-2400 L1250,-2400 L1250,-2404 L1254,-2404 L1254,-2404 L1254,-2404 Z"
        fill-rule="evenodd" transform="matrix(0.33333, 0, 0, 0.33333, 0, 0)" stroke="none"/>
    <path fill="none" d="M1254,-2404 L1254,-2400 L1250,-2400 L1250,-2404 L1254,-2404 L1254,-2404 L1254,-2404 Z"
        transform="matrix(0.33333, 0, 0, 0.33333, 0, 0)" stroke-linecap="square"/>
    <path fill="#ffffff" d="M1254,-2413 L1254,-2409 L1250,-2409 L1250,-2413 L1254,-2413 L1254,-2413 L1254,-2413 Z"
        fill-rule="evenodd" transform="matrix(0.33333, 0, 0, 0.33333, 0, 0)" stroke="none"/>
    <path fill="none" d="M1254,-2413 L1254,-2409 L1250,-2409 L1250,-2413 L1254,-2413 L1254,-2413 L1254,-2413 Z"
        transform="matrix(0.33333, 0, 0, 0.33333, 0, 0)" stroke-linecap="square"/>
    <path fill="#ffffff" d="M1254,-2421 L1254,-2417 L1250,-2417 L1250,-2421 L1254,-2421 L1254,-2421 L1254,-2421 Z"
        fill-rule="evenodd" transform="matrix(0.33333, 0, 0, 0.33333, 0, 0)" stroke="none"/>
    <path fill="none" d="M1254,-2421 L1254,-2417 L1250,-2417 L1250,-2421 L1254,-2421 L1254,-2421 L1254,-2421 Z"
        transform="matrix(0.33333, 0, 0, 0.33333, 0, 0)" stroke-linecap="square"/>
    <path fill="#ffffff" d="M1254,-2430 L1254,-2425 L1250,-2425 L1250,-2430 L1254,-2430 L1254,-2430 L1254,-2430 Z"
        fill-rule="evenodd" transform="matrix(0.33333, 0, 0, 0.33333, 0, 0)" stroke="none"/>
    <path fill="none" d="M1254,-2430 L1254,-2425 L1250,-2425 L1250,-2430 L1254,-2430 L1254,-2430 L1254,-2430 Z"
        transform="matrix(0.33333, 0, 0, 0.33333, 0, 0)" stroke-linecap="square"/>
    <path fill="#ffffff" d="M1254,-2438 L1254,-2434 L1250,-2434 L1250,-2438 L1254,-2438 L1254,-2438 L1254,-2438 Z"
        fill-rule="evenodd" transform="matrix(0.33333, 0, 0, 0.33333, 0, 0)" stroke="none"/>
    <path fill="none" d="M1254,-2438 L1254,-2434 L1250,-2434 L1250,-2438 L1254,-2438 L1254,-2438 L1254,-2438 Z"
        transform="matrix(0.33333, 0, 0, 0.33333, 0, 0)" stroke-linecap="square"/>
    <path fill="#ffffff" d="M1254,-2447 L1254,-2443 L1250,-2443 L1250,-2447 L1254,-2447 L1254,-2447 L1254,-2447 Z"
        fill-rule="evenodd" transform="matrix(0.33333, 0, 0, 0.33333, 0, 0)" stroke="none"/>
    <path fill="none" d="M1254,-2447 L1254,-2443 L1250,-2443 L1250,-2447 L1254,-2447 L1254,-2447 L1254,-2447 Z"
        transform="matrix(0.33333, 0, 0, 0.33333, 0, 0)" stroke-linecap="square"/>
    <path fill="#ffffff" d="M1254,-2455 L1254,-2451 L1250,-2451 L1250,-2455 L1254,-2455 L1254,-2455 L1254,-2455 Z"
        fill-rule="evenodd" transform="matrix(0.33333, 0, 0, 0.33333, 0, 0)" stroke="none"/>
    <path fill="none" d="M1254,-2455 L1254,-2451 L1250,-2451 L1250,-2455 L1254,-2455 L1254,-2455 L1254,-2455 Z"
        transform="matrix(0.33333, 0, 0, 0.33333, 0, 0)" stroke-linecap="square"/>
    <path fill="#ffffff" d="M1254,-2463 L1254,-2459 L1250,-2459 L1250,-2463 L1254,-2463 L1254,-2463 L1254,-2463 Z"
        fill-rule="evenodd" transform="matrix(0.33333, 0, 0, 0.33333, 0, 0)" stroke="none"/>
    <path fill="none" d="M1254,-2463 L1254,-2459 L1250,-2459 L1250,-2463 L1254,-2463 L1254,-2463 L1254,-2463 Z"
        transform="matrix(0.33333, 0, 0, 0.33333, 0, 0)" stroke-linecap="square"/>
    <path fill="#ffffff" d="M1279,-2416 L1279,-2402 L1260,-2402 L1260,-2416 L1279,-2416 L1279,-2416 L1279,-2416 Z"
        fill-rule="evenodd" transform="matrix(0.33333, 0, 0, 0.33333, 0, 0)" stroke="none"/>
    <path fill="none" d="M1279,-2416 L1279,-2402 L1260,-2402 L1260,-2416 L1279,-2416 L1279,-2416 L1279,-2416 Z"
        transform="matrix(0.33333, 0, 0, 0.33333, 0, 0)" stroke-linecap="square"/>
    <path fill="#ffffff" d="M1279,-2438 L1279,-2424 L1260,-2424 L1260,-2438 L1279,-2438 L1279,-2438 L1279,-2438 Z"
        fill-rule="evenodd" transform="matrix(0.33333, 0, 0, 0.33333, 0, 0)" stroke="none"/>
    <path fill="none" d="M1279,-2438 L1279,-2424 L1260,-2424 L1260,-2438 L1279,-2438 L1279,-2438 L1279,-2438 Z"
        transform="matrix(0.33333, 0, 0, 0.33333, 0, 0)" stroke-linecap="square"/>
    <path fill="#ffffff" d="M1279,-2460 L1279,-2447 L1260,-2447 L1260,-2460 L1279,-2460 L1279,-2460 L1279,-2460 Z"
        fill-rule="evenodd" transform="matrix(0.33333, 0, 0, 0.33333, 0, 0)" stroke="none"/>
    <path fill="none" d="M1279,-2460 L1279,-2447 L1260,-2447 L1260,-2460 L1279,-2460 L1279,-2460 L1279,-2460 Z"
        transform="matrix(0.33333, 0, 0, 0.33333, 0, 0)" stroke-linecap="square"/>
    <path fill="#ffffff" d="M1199,-2473 C1187,-2475 1181,-2469 1182,-2464 C1182,-2464 1182,-2464 1182,-2464 C1173,-2462 
        1176,-2451 1180,-2451 C1180,-2451 1180,-2451 1180,-2451 C1179,-2446 1190,-2441 1196,-2444 C1196,-2444 1196,-2444 
        1196,-2444 C1199,-2439 1206,-2439 1214,-2438 C1220,-2438 1224,-2439 1227,-2442 C1227,-2441 1227,-2441 1227,-2441 
        C1238,-2441 1242,-2448 1240,-2453 C1241,-2453 1241,-2453 1241,-2453 C1244,-2454 1245,-2462 1238,-2463 
        C1239,-2464 1239,-2464 1239,-2464 C1241,-2469 1235,-2474 1226,-2473 C1226,-2474 1226,-2474 1226,-2474 
        C1220,-2479 1202,-2478 1200,-2473 Z" stroke-width="2" transform="matrix(0.33333, 0, 0, 0.33333, 0, 0)" stroke="#000000"/>
</svg>