<?xml version="1.0" standalone="no"?>
<!DOCTYPE svg PUBLIC "-//W3C//DTD SVG 1.0//EN"
    "http://www.w3.org/TR/2001/REC-SVG-20010904/DTD/svg10.dtd">
<?xml-stylesheet type="text/css" href="..\cisco_network.css" ?>
<svg contentScriptType="text/ecmascript" zoomAndPan="magnify" xmlns:xlink="http://www.w3.org/1999/xlink" baseProfile="full"
    contentStyleType="text/css" enable-background="new" version="1.0" width="23.0457" preserveAspectRatio="none"
    viewBox="396 -567.01 26.016 42.016" height="37.2189" xmlns="http://www.w3.org/2000/svg" color-interpolation-filters="sRGB"
    x="0" y="1.5">
    <path d="M1254,-1577 L1254,-1647 L1189,-1647 L1189,-1577 L1254,-1577 Z M1254,-1647 L1254,-1689 L1189,-1689 
        L1189,-1647 L1254,-1647 Z M1189,-1689 L1201,-1699 L1264,-1699 L1254,-1689 L1189,-1689 Z M1254,-1577 L1264,-1589 
        L1264,-1657 L1254,-1647 L1254,-1577 Z M1254,-1647 L1264,-1658 L1264,-1699 L1254,-1689 L1254,-1647 Z"
        stroke-width="2" transform="matrix(0.33333, 0, 0, 0.33333, 0, 0)"/>
    <path fill="none" d="M1189,-1585 L1253,-1585 M1189,-1647 L1253,-1647" stroke-width="2" transform="matrix(0.33333, 0, 0, 0.33333, 0, 0)"/>
    <path fill="#ffffff" d="M1216,-1609 L1216,-1600 L1213,-1600 L1220,-1591 L1228,-1600 L1224,-1600 L1224,-1609 
        L1216,-1609 Z M1216,-1617 L1216,-1626 L1213,-1626 L1220,-1635 L1228,-1626 L1224,-1626 L1224,-1617 L1216,-1617 Z 
        M1198,-1616 L1207,-1616 L1207,-1620 L1216,-1613 L1207,-1605 L1207,-1609 L1198,-1609 L1198,-1616 Z M1243,-1616 
        L1233,-1616 L1233,-1620 L1224,-1613 L1233,-1605 L1233,-1609 L1243,-1609 L1243,-1616 Z" transform="matrix(0.33333, 0, 0, 0.33333, 0, 0)"
        stroke="none"/>
    <path fill="none" d="M1254,-1675 L1189,-1675 M1260,-1695 L1195,-1695 M1254,-1661 L1189,-1661 M1263,-1684 L1255,-1675 
        M1263,-1669 L1255,-1660 M1259,-1694 L1259,-1654 M1208,-1689 L1208,-1675 M1233,-1689 L1233,-1675 M1208,-1660 
        L1208,-1647 M1233,-1660 L1233,-1647 M1221,-1675 L1221,-1661 M1196,-1675 L1196,-1661 M1246,-1675 L1246,-1661 
        M1221,-1700 L1208,-1689 M1246,-1700 L1233,-1689 M1264,-1658 L1253,-1646 L1189,-1646 M1264,-1596 L1253,-1585"
        stroke-width="2" transform="matrix(0.33333, 0, 0, 0.33333, 0, 0)" stroke="#ffffff"/>
</svg>