<?xml version="1.0" standalone="no"?>
<!DOCTYPE svg PUBLIC "-//W3C//DTD SVG 1.0//EN"
    "http://www.w3.org/TR/2001/REC-SVG-20010904/DTD/svg10.dtd">
<?xml-stylesheet type="text/css" href="..\cisco_network.css" ?>
<svg contentScriptType="text/ecmascript" zoomAndPan="magnify" xmlns:xlink="http://www.w3.org/1999/xlink" baseProfile="full"
    contentStyleType="text/css" enable-background="new" version="1.0" width="51.3921" preserveAspectRatio="none"
    viewBox="380.99 -540.99 58.016 29.984" height="26.5606" xmlns="http://www.w3.org/2000/svg"
    color-interpolation-filters="sRGB" x="0" y="1.5">
    <path d="M1273,-1537 L1273,-1579 L1144,-1579 L1144,-1537 L1273,-1537 Z M1144,-1579 L1196,-1621 L1316,-1621 
        L1273,-1579 L1144,-1579 Z M1273,-1536 L1316,-1579 L1316,-1621 L1273,-1579 L1273,-1536 Z" stroke-width="2"
        transform="matrix(0.33333, 0, 0, 0.33333, 0, 0)"/>
    <path fill="#ffffff" d="M1220,-1590 L1217,-1588 L1185,-1588 L1182,-1585 L1173,-1588 L1191,-1593 L1187,-1590 
        L1220,-1590 Z M1245,-1606 L1242,-1604 L1210,-1604 L1207,-1600 L1198,-1604 L1216,-1609 L1213,-1606 L1245,-1606 Z 
        M1225,-1595 L1228,-1597 L1260,-1597 L1263,-1601 L1272,-1597 L1254,-1592 L1257,-1595 L1225,-1595 Z M1242,-1611 
        L1244,-1613 L1276,-1613 L1280,-1616 L1288,-1613 L1271,-1608 L1274,-1611 L1242,-1611 Z M1209,-1556 L1232,-1556 
        L1232,-1552 L1241,-1558 L1232,-1563 L1232,-1559 L1209,-1559 L1209,-1556 Z M1208,-1562 L1230,-1569 L1231,-1566 
        L1238,-1574 L1227,-1576 L1229,-1573 L1207,-1565 L1208,-1562 Z M1208,-1554 L1230,-1546 L1231,-1550 L1238,-1542 
        L1227,-1539 L1229,-1543 L1207,-1550 L1208,-1554 Z M1173,-1556 L1195,-1556 L1195,-1552 L1204,-1558 L1195,-1563 
        L1195,-1559 L1173,-1559 L1173,-1556 Z" transform="matrix(0.33333, 0, 0, 0.33333, 0, 0)" stroke="none"/>
</svg>