<?xml version="1.0" standalone="no"?>
<!DOCTYPE svg PUBLIC "-//W3C//DTD SVG 1.0//EN"
    "http://www.w3.org/TR/2001/REC-SVG-20010904/DTD/svg10.dtd">
<?xml-stylesheet type="text/css" href="..\cisco_network.css" ?>
<svg contentScriptType="text/ecmascript" zoomAndPan="magnify" xmlns:xlink="http://www.w3.org/1999/xlink" baseProfile="full"
    contentStyleType="text/css" enable-background="new" version="1.0" width="75.2882" preserveAspectRatio="none"
    viewBox="366.02 -471.01 84.992 47.008" height="41.6409" xmlns="http://www.w3.org/2000/svg"
    color-interpolation-filters="sRGB" x="0" y="1.5">
    <path d="M1254,-1339 L1268,-1412 L1162,-1412 L1146,-1339 L1254,-1339 Z M1268,-1412 L1273,-1407 L1260,-1335 
        L1254,-1339 L1268,-1412 Z M1146,-1339 L1151,-1335 L1260,-1335 L1254,-1339 L1146,-1339 Z" stroke-width="2"
        transform="matrix(0.33333, 0, 0, 0.33333, 0, 0)"/>
    <path d="M1255,-1334 C1255,-1323 1255,-1323 1255,-1323 C1253,-1320 1253,-1320 1253,-1320 C1253,-1320 1246,-1318 
        1247,-1314 C1218,-1287 1218,-1287 1218,-1287 C1218,-1299 1218,-1299 1218,-1299 Z" stroke-width="2" transform="matrix(0.33333, 0, 0, 0.33333, 0, 0)"/>
    <path d="M1101,-1299 L1101,-1287 L1218,-1287 L1218,-1299 L1101,-1299 Z" stroke="none" transform="matrix(0.33333, 0, 0, 0.33333, 0, 0)"/>
    <path fill="none" d="M1101,-1299 L1101,-1287 L1218,-1287 L1218,-1299 L1101,-1299" stroke-width="2" transform="matrix(0.33333, 0, 0, 0.33333, 0, 0)"/>
    <path d="M1147,-1333 L1255,-1334 L1218,-1299 L1101,-1299 L1147,-1333 Z M1245,-1346 L1257,-1403 L1170,-1403 
        L1159,-1346 L1245,-1346 Z" stroke-width="2" transform="matrix(0.33333, 0, 0, 0.33333, 0, 0)"/>
    <path fill="none" d="M1150,-1332 L1123,-1310 M1159,-1332 L1131,-1310 M1167,-1332 L1140,-1310 M1176,-1332 L1149,-1310 
        M1185,-1332 L1158,-1310 M1194,-1332 L1166,-1310 M1202,-1332 L1175,-1310 M1211,-1332 L1184,-1310 M1220,-1332 
        L1193,-1310 M1229,-1332 L1201,-1310 M1237,-1332 L1210,-1310 M1246,-1332 L1219,-1310 M1126,-1312 L1223,-1312 
        M1132,-1317 L1228,-1317 M1139,-1322 L1234,-1322 M1145,-1327 L1241,-1327" stroke-width="2.54" transform="matrix(0.33333, 0, 0, 0.33333, 0, 0)"
        stroke-linejoin="round"/>
    <path fill="#ffffff" d="M1204,-1385 C1220,-1385 1220,-1385 1220,-1385 C1224,-1383 1223,-1380 1223,-1380 C1223,-1377 
        1221,-1377 1221,-1377 C1192,-1377 1192,-1377 1192,-1377 C1187,-1377 1189,-1381 1189,-1381 C1201,-1395 1201,-1395 
        1201,-1395 C1203,-1397 1207,-1395 1207,-1395 C1210,-1393 1209,-1390 1209,-1390 Z" transform="matrix(0.33333, 0, 0, 0.33333, 0, 0)"
        stroke="none"/>
    <path fill="#ffffff" d="M1215,-1363 C1200,-1363 1200,-1363 1200,-1363 C1196,-1364 1196,-1367 1196,-1367 C1196,-1370 
        1199,-1371 1199,-1371 C1227,-1371 1227,-1371 1227,-1371 C1233,-1370 1231,-1366 1231,-1366 C1219,-1352 1219,-1352 
        1219,-1352 C1217,-1350 1212,-1352 1212,-1352 C1210,-1355 1211,-1357 1211,-1357 Z" transform="matrix(0.33333, 0, 0, 0.33333, 0, 0)"
        stroke="none"/>
    <path fill="#000000" d="M1248,-1289 C1248,-1287 1246,-1285 1244,-1285 C1241,-1285 1239,-1287 1239,-1289 C1239,-1292 
        1241,-1294 1244,-1294 C1246,-1294 1248,-1292 1248,-1289 Z" transform="matrix(0.33333, 0, 0, 0.33333, 0, 0)"
        stroke="none"/>
    <path fill="none" d="M1326,-1282 C1313,-1277 1288,-1276 1267,-1279 C1254,-1282 1246,-1285 1244,-1289" stroke-width="2"
        transform="matrix(0.33333, 0, 0, 0.33333, 0, 0)" stroke="#000000" stroke-linejoin="round"/>
    <path fill="none" d="M1274,-1304 C1277,-1312 1282,-1319 1290,-1325 C1309,-1341 1334,-1344 1346,-1333 C1358,-1322 
        1352,-1301 1334,-1285 C1332,-1284 1330,-1282 1328,-1281" stroke-width="4" transform="matrix(0.33333, 0, 0, 0.33333, 0, 0)"
        stroke="#000000" stroke-linejoin="round"/>
    <path fill="#000000" stroke-width="2" d="M1336,-1281 C1336,-1277 1332,-1273 1328,-1273 C1324,-1273 1320,-1277 
        1320,-1281 C1320,-1285 1324,-1289 1328,-1289 C1332,-1289 1336,-1285 1336,-1281 Z" transform="matrix(0.33333, 0, 0, 0.33333, 0, 0)"/>
    <path fill="#000000" d="M1278,-1304 C1278,-1302 1276,-1300 1274,-1300 C1271,-1300 1269,-1302 1269,-1304 C1269,-1307 
        1271,-1309 1274,-1309 C1276,-1309 1278,-1307 1278,-1304 Z" transform="matrix(0.33333, 0, 0, 0.33333, 0, 0)"
        stroke="none"/>
</svg>