<?xml version="1.0" standalone="no"?>
<!DOCTYPE svg PUBLIC "-//W3C//DTD SVG 1.0//EN"
    "http://www.w3.org/TR/2001/REC-SVG-20010904/DTD/svg10.dtd">
<?xml-stylesheet type="text/css" href="..\cisco_network.css" ?>
<svg contentScriptType="text/ecmascript" zoomAndPan="magnify" xmlns:xlink="http://www.w3.org/1999/xlink" baseProfile="full"
    contentStyleType="text/css" enable-background="new" version="1.0" width="40.7622" preserveAspectRatio="none"
    viewBox="388 -568 46.016 40" height="35.4331" xmlns="http://www.w3.org/2000/svg" color-interpolation-filters="sRGB"
    x="0" y="1.5">
    <path d="M1299,-1681 L1299,-1640 L1263,-1607 L1263,-1647 L1299,-1681 Z" stroke-width="2" transform="matrix(0.33333, 0, 0, 0.33333, 0, 0)"/>
    <path d="M1200,-1671 L1167,-1671 L1204,-1704 L1236,-1704 L1281,-1681 L1299,-1681 L1263,-1647 L1245,-1647 Z" stroke="none"
        transform="matrix(0.33333, 0, 0, 0.33333, 0, 0)"/>
    <path fill="none" d="M1200,-1671 L1167,-1671 L1204,-1704 L1236,-1704 L1281,-1681 L1299,-1681 L1263,-1647 
        L1245,-1647" stroke-width="2" transform="matrix(0.33333, 0, 0, 0.33333, 0, 0)"/>
    <path d="M1200,-1671 L1245,-1647 L1245,-1647 L1263,-1647 L1263,-1607 L1245,-1607 L1245,-1607 L1200,-1584 L1200,-1584 
        L1167,-1584 L1167,-1671 L1200,-1671 L1200,-1671 Z" stroke-width="2" transform="matrix(0.33333, 0, 0, 0.33333, 0, 0)"/>
    <path stroke-linecap="round" transform="matrix(0.33333, 0, 0, 0.33333, 0, 0)" fill="none" stroke-linejoin="round" d=
        "M1238,-1681 L1221,-1689" stroke="#ffffff" stroke-width="2"/>
    <path fill="#ffffff" d="M1245,-1667 L1257,-1677 L1243,-1676 L1245,-1667 Z M1225,-1679 L1237,-1689 L1239,-1679 
        L1225,-1679 Z" transform="matrix(0.33333, 0, 0, 0.33333, 0, 0)" stroke="none"/>
    <path stroke-linecap="round" transform="matrix(0.33333, 0, 0, 0.33333, 0, 0)" fill="none" stroke-linejoin="round" d=
        "M1261,-1668 L1246,-1675" stroke="#ffffff" stroke-width="2"/>
    <path stroke-linecap="round" transform="matrix(0.33333, 0, 0, 0.33333, 0, 0)" fill="none" stroke-linejoin="round" d=
        "M1243,-1679 L1252,-1686" stroke="#ffffff" stroke-width="2"/>
    <path fill="#ffffff" d="M1227,-1675 L1240,-1668 L1226,-1666 L1227,-1675 Z M1244,-1689 L1257,-1682 L1256,-1690 
        L1244,-1689 Z" transform="matrix(0.33333, 0, 0, 0.33333, 0, 0)" stroke="none"/>
    <path stroke-linecap="round" transform="matrix(0.33333, 0, 0, 0.33333, 0, 0)" fill="none" stroke-linejoin="round" d=
        "M1230,-1669 L1239,-1676" stroke="#ffffff" stroke-width="2"/>
    <path fill="none" d="M1226,-1611 L1213,-1611 L1195,-1647 L1183,-1647 M1182,-1611 L1195,-1611 L1212,-1647 
        L1226,-1647" stroke-width="6" transform="matrix(0.33333, 0, 0, 0.33333, 0, 0)" stroke="#ffffff"/>
    <path fill="#ffffff" d="M1222,-1653 L1222,-1641 L1229,-1647 L1222,-1653 Z M1222,-1617 L1222,-1605 L1229,-1611 
        L1222,-1617 Z M1184,-1640 L1184,-1653 L1177,-1647 L1184,-1640 Z M1184,-1604 L1184,-1617 L1177,-1611 L1184,-1604 
        Z" transform="matrix(0.33333, 0, 0, 0.33333, 0, 0)"/>
</svg>