<?xml version="1.0" standalone="no"?>
<!DOCTYPE svg PUBLIC "-//W3C//DTD SVG 1.0//EN"
    "http://www.w3.org/TR/2001/REC-SVG-20010904/DTD/svg10.dtd">
<?xml-stylesheet type="text/css" href="..\cisco_network.css" ?>
<svg contentScriptType="text/ecmascript" zoomAndPan="magnify" xmlns:xlink="http://www.w3.org/1999/xlink" baseProfile="full"
    contentStyleType="text/css" enable-background="new" version="1.0" width="50.5134" preserveAspectRatio="none"
    viewBox="380.99 -556 57.024 32" height="28.3465" xmlns="http://www.w3.org/2000/svg" color-interpolation-filters="sRGB"
    x="0" y="1.5">
    <path d="M1224,-1658 C1186,-1658 1186,-1658 1186,-1658 C1143,-1596 1143,-1596 1143,-1596 C1181,-1596 1181,-1596 
        1181,-1596 C1227,-1589 1238,-1593 1282,-1596 C1313,-1647 1313,-1647 1313,-1647 C1302,-1647 1302,-1647 1302,-1647 
        C1310,-1658 1310,-1658 1310,-1658 C1234,-1658 1234,-1658 1234,-1658 C1225,-1647 1225,-1647 1225,-1647 
        C1216,-1647 1216,-1647 1216,-1647 Z" stroke-width="2" transform="matrix(0.33333, 0, 0, 0.33333, 0, 0)"/>
    <path d="M1224,-1600 L1197,-1600 L1212,-1619 L1238,-1619 L1224,-1600 Z M1313,-1647 L1313,-1610 L1282,-1576 
        L1282,-1596 L1313,-1647 Z" stroke-width="2" transform="matrix(0.33333, 0, 0, 0.33333, 0, 0)"/>
    <path fill="none" stroke-width="2" d="M1282,-1596 L1313,-1647" transform="matrix(0.33333, 0, 0, 0.33333, 0, 0)"/>
    <path d="M1204,-1644 C1199,-1638 1193,-1631 1189,-1624 C1189,-1620 1189,-1620 1189,-1620 C1176,-1600 1176,-1600 
        1176,-1600 C1175,-1613 1175,-1613 1175,-1613 C1177,-1623 1207,-1661 1214,-1665 C1216,-1652 1216,-1652 1216,-1652 
        C1204,-1640 1204,-1640 1204,-1640 Z" stroke-width="2" transform="matrix(0.33333, 0, 0, 0.33333, 0, 0)"/>
    <path d="M1151,-1613 L1150,-1600 L1176,-1600 L1175,-1613 L1151,-1613 Z" stroke-width="2" transform="matrix(0.33333, 0, 0, 0.33333, 0, 0)"/>
    <path d="M1214,-1665 C1207,-1661 1177,-1623 1175,-1613 C1151,-1613 1151,-1613 1151,-1613 C1153,-1623 1183,-1661 
        1190,-1665 Z" stroke-width="2" transform="matrix(0.33333, 0, 0, 0.33333, 0, 0)"/>
    <path fill="#ffffff" d="M1222,-1632 L1238,-1653 L1299,-1653 L1285,-1632 L1222,-1632 Z" transform="matrix(0.33333, 0, 0, 0.33333, 0, 0)"
        stroke="#ffffff"/>
    <path stroke-width="2" d="M1229,-1636 L1239,-1650 L1280,-1650 L1271,-1636 L1229,-1636 Z" transform="matrix(0.33333, 0, 0, 0.33333, 0, 0)"
        stroke="#036897"/>
    <path fill="none" d="M1229,-1619 L1215,-1600 M1220,-1619 L1206,-1600 M1209,-1615 L1235,-1615 M1205,-1610 L1231,-1610 
        M1200,-1604 L1227,-1604" stroke-width="2" transform="matrix(0.33333, 0, 0, 0.33333, 0, 0)"/>
    <path stroke-width="2" d="M1282,-1576 C1238,-1573 1227,-1570 1181,-1576 C1143,-1576 1143,-1576 1143,-1576 
        C1143,-1596 1143,-1596 1143,-1596 C1181,-1596 1181,-1596 1181,-1596 C1227,-1589 1238,-1593 1282,-1596 Z"
        transform="matrix(0.33333, 0, 0, 0.33333, 0, 0)"/>
    <path stroke-width="2" d="M1224,-1658 L1224,-1647 L1216,-1647 L1224,-1658 Z" transform="matrix(0.33333, 0, 0, 0.33333, 0, 0)"/>
    <path fill="#000000" d="M1310,-1658 L1310,-1647 L1302,-1647 L1310,-1658 Z" stroke-width="2" transform="matrix(0.33333, 0, 0, 0.33333, 0, 0)"/>
    <text font-size="36" transform="matrix(0.33333, 0, 0, 0.33333, 415.51, -533.09)" fill="#ffffff" font-family="'Helvetica'"
        font-style="normal" stroke="none" font-weight="700" stroke-width="2" xml:space="preserve">IP</text>
</svg>