<?xml version="1.0" standalone="no"?>
<!DOCTYPE svg PUBLIC "-//W3C//DTD SVG 1.0//EN"
    "http://www.w3.org/TR/2001/REC-SVG-20010904/DTD/svg10.dtd">
<?xml-stylesheet type="text/css" href="..\cisco_network.css" ?>
<svg contentScriptType="text/ecmascript" zoomAndPan="magnify" xmlns:xlink="http://www.w3.org/1999/xlink" baseProfile="full"
    contentStyleType="text/css" enable-background="new" version="1.0" width="43.3984" preserveAspectRatio="none"
    viewBox="382.02 -568 48.992 43.008" height="38.0976" xmlns="http://www.w3.org/2000/svg" color-interpolation-filters="sRGB"
    x="0" y="1.5">
    <path d="M1294,-1676 C1294,-1660 1261,-1647 1220,-1647 C1179,-1647 1147,-1660 1147,-1676 C1147,-1604 1147,-1604 
        1147,-1604 C1147,-1588 1179,-1575 1220,-1575 C1261,-1575 1294,-1588 1294,-1604 Z" stroke-width="2" transform="matrix(0.33333, 0, 0, 0.33333, 0, 0)"/>
    <path d="M1220,-1647 C1261,-1647 1294,-1660 1294,-1676 C1294,-1691 1261,-1704 1220,-1704 C1179,-1704 1147,-1691 
        1147,-1676 C1147,-1660 1179,-1647 1220,-1647 Z" stroke-width="2" transform="matrix(0.33333, 0, 0, 0.33333, 0, 0)"/>
    <path fill="#ffffff" d="M1203,-1687 L1209,-1678 L1186,-1672 L1191,-1677 L1156,-1683 L1165,-1689 L1199,-1684 
        L1203,-1687 Z M1236,-1665 L1232,-1674 L1252,-1678 L1249,-1675 L1283,-1669 L1275,-1663 L1241,-1669 L1236,-1665 Z 
        M1224,-1692 L1248,-1698 L1248,-1688 L1242,-1689 L1231,-1680 L1220,-1682 L1232,-1691 L1224,-1692 Z M1214,-1656 
        L1192,-1652 L1191,-1662 L1198,-1661 L1210,-1671 L1221,-1669 L1208,-1658 L1214,-1656 Z" transform="matrix(0.33333, 0, 0, 0.33333, 0, 0)"
        stroke="none"/>
    <path fill="#ffffff" d="M1257,-1596 L1257,-1615 L1246,-1606 L1257,-1596 Z M1179,-1596 L1179,-1615 L1190,-1606 
        L1179,-1596 Z M1186,-1633 L1186,-1614 L1175,-1623 L1186,-1633 Z M1249,-1633 L1249,-1614 L1260,-1623 L1249,-1633 
        Z" stroke-width="2.54" transform="matrix(0.33333, 0, 0, 0.33333, 0, 0)"/>
    <path fill="none" d="M1251,-1624 L1245,-1624 M1254,-1606 L1262,-1606 M1182,-1606 L1173,-1606 M1182,-1623 
        L1191,-1623" stroke-width="3" transform="matrix(0.33333, 0, 0, 0.33333, 0, 0)"/>
    <path fill="#ffffff" d="M1237,-1623 L1237,-1590 L1199,-1590 L1199,-1623 L1237,-1623 Z" transform="matrix(0.33333, 0, 0, 0.33333, 0, 0)"
        stroke="#036c9b"/>
    <path fill="none" d="M1233,-1613 L1203,-1613 L1203,-1619 L1233,-1619 L1233,-1613 Z M1233,-1593 L1203,-1593 
        L1203,-1608 L1233,-1608 L1233,-1593 Z" transform="matrix(0.33333, 0, 0, 0.33333, 0, 0)" stroke="#036c9b"/>
    <path fill="#ffffff" d="M1226,-1635 C1226,-1635 1228,-1635 1228,-1633 C1229,-1627 1229,-1627 1229,-1627 C1241,-1625 
        1241,-1625 1241,-1625 C1243,-1628 1243,-1628 1243,-1628 C1240,-1635 1240,-1635 1240,-1635 C1223,-1639 1217,-1638 
        1217,-1638 C1218,-1638 1218,-1638 1218,-1638 C1218,-1638 1212,-1639 1196,-1635 C1193,-1628 1193,-1628 1193,-1628 
        C1194,-1625 1194,-1625 1194,-1625 C1207,-1627 1207,-1627 1207,-1627 C1207,-1633 1207,-1633 1207,-1633 
        C1208,-1635 1210,-1635 1210,-1635 Z" transform="matrix(0.33333, 0, 0, 0.33333, 0, 0)" stroke="none"/>
    <path fill="none" d="M1233,-1611 L1203,-1611" transform="matrix(0.33333, 0, 0, 0.33333, 0, 0)" stroke="#036c9b"/>
</svg>