<?xml version="1.0" standalone="no"?>
<!DOCTYPE svg PUBLIC "-//W3C//DTD SVG 1.0//EN"
    "http://www.w3.org/TR/2001/REC-SVG-20010904/DTD/svg10.dtd">
<?xml-stylesheet type="text/css" href="..\cisco_network.css" ?>
<svg contentScriptType="text/ecmascript" zoomAndPan="magnify" xmlns:xlink="http://www.w3.org/1999/xlink" baseProfile="full"
    contentStyleType="text/css" enable-background="new" version="1.0" width="57.6" preserveAspectRatio="none" viewBox="376.99 -558.02 65.024 36"
    height="31.8898" xmlns="http://www.w3.org/2000/svg" color-interpolation-filters="sRGB" x="0" y="1.5">
    <path d="M1133,-1626 L1191,-1673 L1324,-1673 L1277,-1626 L1133,-1626 Z M1277,-1567 L1324,-1615 L1324,-1673 
        L1277,-1626 L1277,-1567 Z M1277,-1567 L1277,-1626 L1134,-1626 L1134,-1567 L1277,-1567 Z" stroke-width="2"
        transform="matrix(0.33333, 0, 0, 0.33333, 0, 0)"/>
    <path fill="#ffffff" d="M1180,-1604 L1180,-1615 L1158,-1615 L1158,-1604 L1180,-1604 Z M1229,-1604 L1229,-1615 
        L1251,-1615 L1251,-1604 L1229,-1604 Z M1180,-1576 L1180,-1587 L1158,-1587 L1158,-1576 L1180,-1576 Z M1229,-1576 
        L1229,-1587 L1251,-1587 L1251,-1576 L1229,-1576 Z" transform="matrix(0.33333, 0, 0, 0.33333, 0, 0)" stroke="none"/>
    <path fill="none" d="M1173,-1610 L1239,-1610 M1173,-1582 L1239,-1582 M1169,-1581 L1239,-1610 M1169,-1610 
        L1239,-1581" stroke-width="2" transform="matrix(0.33333, 0, 0, 0.33333, 0, 0)" stroke="#ffffff"/>
    <path fill="#ffffff" d="M1215,-1664 L1245,-1667 L1239,-1657 L1232,-1659 L1187,-1642 L1179,-1644 L1223,-1661 
        L1215,-1664 Z M1250,-1653 L1279,-1656 L1274,-1647 L1266,-1648 L1222,-1631 L1214,-1633 L1257,-1650 L1250,-1653 Z"
        transform="matrix(0.33333, 0, 0, 0.33333, 0, 0)" stroke="none"/>
</svg>