<?xml version="1.0" standalone="no"?>
<!DOCTYPE svg PUBLIC "-//W3C//DTD SVG 1.0//EN"
    "http://www.w3.org/TR/2001/REC-SVG-20010904/DTD/svg10.dtd">
<?xml-stylesheet type="text/css" href="..\cisco_network.css" ?>
<svg contentScriptType="text/ecmascript" zoomAndPan="magnify" xmlns:xlink="http://www.w3.org/1999/xlink" baseProfile="full"
    contentStyleType="text/css" enable-background="new" version="1.0" width="45.1843" preserveAspectRatio="none"
    viewBox="384.99 -563.01 51.008 32.992" height="29.2252" xmlns="http://www.w3.org/2000/svg"
    color-interpolation-filters="sRGB" x="0" y="1.5">
    <path stroke-width="2" d="M1159,-1591 L1159,-1660 L1280,-1660 L1280,-1591 L1159,-1591 Z M1280,-1591 L1280,-1660 
        L1305,-1687 L1305,-1619 L1280,-1591 Z M1280,-1660 L1159,-1660 L1189,-1687 L1305,-1687 L1280,-1660 Z" transform="matrix(0.33333, 0, 0, 0.33333, 0, 0)"/>
    <path fill="#ffffff" d="M1184,-1634 L1162,-1634 L1162,-1639 L1184,-1639 L1184,-1645 L1197,-1637 L1184,-1628 
        L1184,-1634 Z M1263,-1645 L1245,-1645 L1245,-1649 L1263,-1649 L1263,-1654 L1274,-1647 L1263,-1640 L1263,-1645 Z 
        M1263,-1624 L1245,-1624 L1245,-1627 L1263,-1627 L1263,-1633 L1274,-1625 L1263,-1618 L1263,-1624 Z M1263,-1602 
        L1245,-1602 L1245,-1606 L1263,-1606 L1263,-1611 L1274,-1604 L1263,-1597 L1263,-1602 Z M1231,-1648 L1231,-1622 
        L1200,-1622 L1200,-1648 L1231,-1648 Z" transform="matrix(0.33333, 0, 0, 0.33333, 0, 0)" stroke="none"/>
    <path fill="#ffffff" d="M1239,-1644 L1239,-1633 L1233,-1633 L1233,-1644 L1239,-1644 Z" transform="matrix(0.33333, 0, 0, 0.33333, 0, 0)"
        stroke="#000000"/>
    <path fill="none" d="M1204,-1605 L1215,-1635 L1227,-1605" stroke-width="4" transform="matrix(0.33333, 0, 0, 0.33333, 0, 0)"
        stroke-linecap="round" stroke="#ffffff"/>
    <path fill="none" d="M1224,-1638 L1233,-1638" stroke-width="6" transform="matrix(0.33333, 0, 0, 0.33333, 0, 0)"
        stroke="#ffffff" stroke-linecap="round"/>
</svg>