<?xml version="1.0" standalone="no"?>
<!DOCTYPE svg PUBLIC "-//W3C//DTD SVG 1.0//EN"
    "http://www.w3.org/TR/2001/REC-SVG-20010904/DTD/svg10.dtd">
<?xml-stylesheet type="text/css" href="..\cisco_network.css" ?>
<svg contentScriptType="text/ecmascript" zoomAndPan="magnify" xmlns:xlink="http://www.w3.org/1999/xlink" baseProfile="full"
    contentStyleType="text/css" enable-background="new" version="1.0" width="45.1843" preserveAspectRatio="none"
    viewBox="383.01 -564.99 51.008 32.992" height="29.2252" xmlns="http://www.w3.org/2000/svg"
    color-interpolation-filters="sRGB" x="0" y="1.5">
    <path d="M1152,-1597 L1152,-1665 L1274,-1665 L1274,-1597 L1152,-1597 Z M1274,-1597 L1274,-1665 L1299,-1693 
        L1299,-1624 L1274,-1597 Z M1274,-1665 L1152,-1665 L1182,-1692 L1299,-1692 L1274,-1665 Z" stroke-width="2"
        transform="matrix(0.33333, 0, 0, 0.33333, 0, 0)"/>
    <path fill="#ffffff" d="M1178,-1640 L1156,-1640 L1156,-1644 L1178,-1644 L1178,-1650 L1190,-1642 L1178,-1634 
        L1178,-1640 Z M1256,-1615 L1234,-1615 L1234,-1620 L1256,-1620 L1256,-1626 L1269,-1618 L1256,-1609 L1256,-1615 Z"
        transform="matrix(0.33333, 0, 0, 0.33333, 0, 0)" stroke="none"/>
    <path fill="#ffffff" d="M1211,-1628 L1193,-1628 L1193,-1658 L1211,-1658 L1211,-1628 Z" stroke-width="2" transform="matrix(0.33333, 0, 0, 0.33333, 0, 0)"
        stroke="#000000"/>
    <path fill="#ffffff" d="M1222,-1616 L1203,-1616 L1203,-1646 L1222,-1646 L1222,-1616 Z" stroke-width="2" transform="matrix(0.33333, 0, 0, 0.33333, 0, 0)"
        stroke="#000000"/>
    <path fill="#ffffff" d="M1232,-1603 L1214,-1603 L1214,-1633 L1232,-1633 L1232,-1603 Z" stroke-width="2" transform="matrix(0.33333, 0, 0, 0.33333, 0, 0)"
        stroke="#000000"/>
</svg>