<?xml version="1.0" standalone="no"?>
<!DOCTYPE svg PUBLIC "-//W3C//DTD SVG 1.0//EN"
    "http://www.w3.org/TR/2001/REC-SVG-20010904/DTD/svg10.dtd">
<?xml-stylesheet type="text/css" href="..\cisco_network.css" ?>
<svg contentScriptType="text/ecmascript" zoomAndPan="magnify" xmlns:xlink="http://www.w3.org/1999/xlink" baseProfile="full"
    contentStyleType="text/css" enable-background="new" version="1.0" width="57.6" preserveAspectRatio="none" viewBox="380.99 -566.02 65.024 49.024"
    height="43.4268" xmlns="http://www.w3.org/2000/svg" color-interpolation-filters="sRGB" x="0" y="1.5">
    <path d="M1290,-1602 L1290,-1649 L1147,-1649 L1147,-1602 L1290,-1602 Z M1146,-1649 L1204,-1695 L1337,-1695 
        L1290,-1649 L1146,-1649 Z M1290,-1601 L1337,-1650 L1337,-1695 L1290,-1649 L1290,-1601 Z" stroke-width="2"
        transform="matrix(0.33333, 0, 0, 0.33333, 0, 0)"/>
    <path fill="#76acc8" d="M1290,-1553 L1290,-1603 L1147,-1603 L1147,-1553 L1290,-1553 Z M1290,-1552 L1337,-1601 
        L1337,-1650 L1290,-1603 L1290,-1552 Z" stroke-width="2" transform="matrix(0.33333, 0, 0, 0.33333, 0, 0)"/>
    <path fill="#ffffff" d="M1249,-1675 L1258,-1673 L1282,-1680 L1291,-1678 L1287,-1684 L1258,-1684 L1271,-1682 
        L1249,-1675 L1249,-1675 Z M1199,-1682 L1207,-1684 L1232,-1678 L1240,-1680 L1236,-1673 L1207,-1673 L1221,-1675 
        L1199,-1682 L1199,-1682 Z M1289,-1660 L1280,-1658 L1258,-1664 L1247,-1662 L1251,-1669 L1280,-1669 L1269,-1667 
        L1289,-1660 L1289,-1660 Z M1238,-1667 L1229,-1669 L1207,-1662 L1196,-1664 L1201,-1658 L1229,-1657 L1216,-1660 
        L1238,-1667 L1238,-1667 Z" transform="matrix(0.33333, 0, 0, 0.33333, 0, 0)" stroke="none"/>
    <path fill="#ffffff" d="M1219,-1609 C1228,-1609 1236,-1611 1236,-1614 C1236,-1617 1228,-1619 1219,-1619 C1209,-1619 
        1201,-1617 1201,-1614 C1201,-1611 1209,-1609 1219,-1609 Z" transform="matrix(0.33333, 0, 0, 0.33333, 0, 0)"
        stroke="#000000" stroke-linecap="round" stroke-linejoin="round"/>
    <path fill="#ffffff" d="M1236,-1639 C1236,-1636 1228,-1633 1219,-1633 C1209,-1633 1201,-1636 1201,-1639 C1201,-1617 
        1201,-1617 1201,-1617 C1201,-1614 1209,-1611 1219,-1611 C1228,-1611 1236,-1614 1236,-1617 Z" transform="matrix(0.33333, 0, 0, 0.33333, 0, 0)"
        stroke="#000000" stroke-linecap="round" stroke-linejoin="round"/>
    <path fill="#ffffff" d="M1219,-1633 C1228,-1633 1236,-1636 1236,-1639 C1236,-1642 1228,-1644 1219,-1644 C1209,-1644 
        1201,-1642 1201,-1639 C1201,-1636 1209,-1633 1219,-1633 Z" transform="matrix(0.33333, 0, 0, 0.33333, 0, 0)"
        stroke="#000000" stroke-linecap="round" stroke-linejoin="round"/>
    <path fill="none" d="M1147,-1603 L1290,-1603" stroke-width="2" transform="matrix(0.33333, 0, 0, 0.33333, 0, 0)"
        stroke-linecap="round" stroke-linejoin="round"/>
    <path fill="#ffffff" d="M1202,-1579 L1175,-1579 L1175,-1582 L1165,-1578 L1175,-1574 L1175,-1577 L1202,-1577 
        L1202,-1579 Z M1217,-1572 L1217,-1562 L1210,-1562 L1220,-1558 L1230,-1562 L1223,-1562 L1223,-1572 L1217,-1572 Z 
        M1217,-1584 L1217,-1594 L1210,-1594 L1220,-1597 L1230,-1594 L1223,-1594 L1223,-1584 L1217,-1584 Z M1238,-1577 
        L1265,-1577 L1265,-1574 L1275,-1578 L1265,-1582 L1265,-1579 L1238,-1579 L1238,-1577 Z" transform="matrix(0.33333, 0, 0, 0.33333, 0, 0)"
        stroke="none"/>
    <path fill="none" stroke-width="2" d="M1263,-1563 C1258,-1561 1235,-1566 1211,-1574 C1188,-1583 1173,-1591 
        1178,-1593 C1183,-1595 1206,-1589 1230,-1581 C1253,-1573 1268,-1565 1263,-1563 Z" transform="matrix(0.33333, 0, 0, 0.33333, 0, 0)"/>
    <path fill="none" stroke-width="2" d="M1262,-1593 C1267,-1591 1252,-1583 1229,-1575 C1206,-1566 1183,-1561 
        1177,-1563 C1172,-1565 1187,-1573 1210,-1581 C1233,-1589 1256,-1595 1262,-1593 Z" transform="matrix(0.33333, 0, 0, 0.33333, 0, 0)"/>
    <path fill="#abcadc" stroke-width="2" d="M1231,-1573 C1240,-1575 1242,-1579 1236,-1582 C1230,-1585 1217,-1586 
        1209,-1584 C1200,-1582 1198,-1577 1204,-1574 C1210,-1571 1222,-1570 1231,-1573 Z" transform="matrix(0.33333, 0, 0, 0.33333, 0, 0)"/>
</svg>