<?xml version="1.0" standalone="no"?>
<!DOCTYPE svg PUBLIC "-//W3C//DTD SVG 1.0//EN"
    "http://www.w3.org/TR/2001/REC-SVG-20010904/DTD/svg10.dtd">
<?xml-stylesheet type="text/css" href="..\cisco_network.css" ?>
<svg contentScriptType="text/ecmascript" zoomAndPan="magnify" xmlns:xlink="http://www.w3.org/1999/xlink" baseProfile="full"
    contentStyleType="text/css" enable-background="new" version="1.0" width="43.4268" preserveAspectRatio="none"
    viewBox="380.99 -312 49.024 32.992" height="29.2252" xmlns="http://www.w3.org/2000/svg" color-interpolation-filters="sRGB"
    x="0" y="1.5">
    <path d="M1189,-882 C1162,-886 1143,-896 1143,-908 C1143,-866 1143,-866 1143,-866 C1143,-854 1162,-844 1189,-840 Z"
        stroke-width="2" transform="matrix(0.33333, 0, 0, 0.33333, 0, 0)"/>
    <path fill="#4a97b3" stroke-width="2" d="M1189,-840 C1197,-838 1206,-838 1216,-838 C1257,-838 1290,-850 1290,-866 
        C1290,-908 1290,-908 1290,-908 C1290,-892 1257,-879 1216,-879 C1207,-879 1197,-880 1189,-882 Z" transform="matrix(0.33333, 0, 0, 0.33333, 0, 0)"/>
    <path d="M1245,-934 C1236,-936 1226,-937 1216,-937 C1176,-937 1143,-924 1143,-908 C1143,-896 1161,-886 1187,-882 Z"
        stroke-width="2" transform="matrix(0.33333, 0, 0, 0.33333, 0, 0)"/>
    <path fill="#4a97b3" stroke-width="2" d="M1187,-882 C1196,-880 1206,-879 1216,-879 C1257,-879 1290,-892 1290,-908 
        C1290,-920 1271,-930 1245,-934 Z" transform="matrix(0.33333, 0, 0, 0.33333, 0, 0)"/>
    <path fill="#ffffff" d="M1199,-919 L1205,-910 L1182,-904 L1187,-909 L1151,-915 L1160,-921 L1194,-916 L1199,-919 Z 
        M1231,-897 L1227,-906 L1247,-910 L1244,-907 L1278,-901 L1270,-894 L1236,-901 L1231,-897 Z M1220,-924 L1243,-930 
        L1243,-920 L1237,-921 L1226,-912 L1215,-913 L1227,-923 L1220,-924 Z M1210,-888 L1187,-884 L1187,-894 L1193,-893 
        L1205,-903 L1216,-901 L1203,-890 L1210,-888 Z" transform="matrix(0.33333, 0, 0, 0.33333, 0, 0)" stroke="none"/>
    <text font-size="32" transform="matrix(0.33333, 0, 0, 0.33333, 397.17, -282.6)" fill="#ffffff" font-family="'Helvetica'"
        font-style="normal" stroke="none" font-weight="700" xml:space="preserve">ITP</text>
</svg>