<?xml version="1.0" standalone="no"?>
<!DOCTYPE svg PUBLIC "-//W3C//DTD SVG 1.0//EN"
    "http://www.w3.org/TR/2001/REC-SVG-20010904/DTD/svg10.dtd">
<?xml-stylesheet type="text/css" href="..\cisco_network.css" ?>
<svg contentScriptType="text/ecmascript" zoomAndPan="magnify" xmlns:xlink="http://www.w3.org/1999/xlink" baseProfile="full"
    contentStyleType="text/css" enable-background="new" version="1.0" width="17.7165" preserveAspectRatio="none"
    viewBox="396.99 -563.01 20 40" height="35.4331" xmlns="http://www.w3.org/2000/svg" color-interpolation-filters="sRGB"
    x="0" y="1.5">
    <path d="M1231,-1668 L1194,-1668 L1194,-1570 L1231,-1570 Z" stroke="none" transform="matrix(0.33333, 0, 0, 0.33333, 0, 0)"/>
    <path fill="none" d="M1231,-1668 L1194,-1668 L1194,-1570 L1231,-1570" transform="matrix(0.33333, 0, 0, 0.33333, 0, 0)"
        stroke="none"/>
    <path d="M1231,-1570 L1250,-1590 L1250,-1688 L1214,-1688 L1194,-1668 L1231,-1668 L1231,-1570 Z" stroke="none"
        transform="matrix(0.33333, 0, 0, 0.33333, 0, 0)"/>
    <path d="M1231,-1668 L1194,-1668 L1194,-1570 L1231,-1570 Z" stroke="none" transform="matrix(0.33333, 0, 0, 0.33333, 0, 0)"/>
    <path fill="none" d="M1231,-1668 L1194,-1668 L1194,-1570 L1231,-1570" stroke-width="2" transform="matrix(0.33333, 0, 0, 0.33333, 0, 0)"/>
    <path d="M1231,-1570 L1250,-1590 L1250,-1688 L1214,-1688 L1194,-1668 L1231,-1668 L1231,-1570 Z" stroke-width="2"
        transform="matrix(0.33333, 0, 0, 0.33333, 0, 0)"/>
    <path fill="none" d="M1231,-1668 L1250,-1688" stroke-width="2" transform="matrix(0.33333, 0, 0, 0.33333, 0, 0)"
        stroke-linecap="round" stroke-linejoin="round"/>
    <path fill="none" d="M1231,-1668 L1194,-1668 L1194,-1570 L1231,-1570 M1231,-1570 L1250,-1590 L1250,-1688 L1214,-1688 
        L1194,-1668 L1231,-1668 L1231,-1570 Z M1231,-1668 L1250,-1688" stroke-width="2" transform="matrix(0.33333, 0, 0, 0.33333, 0, 0)"/>
    <path d="M1231,-1668 L1194,-1668 L1194,-1570 L1231,-1570 Z" stroke="none" transform="matrix(0.33333, 0, 0, 0.33333, 0, 0)"/>
    <path d="M1231,-1570 L1250,-1590 L1250,-1688 L1214,-1688 L1194,-1668 L1231,-1668 L1231,-1570 Z" stroke="none"
        transform="matrix(0.33333, 0, 0, 0.33333, 0, 0)"/>
    <path d="M1231,-1668 L1194,-1668 L1194,-1570 L1231,-1570 Z" stroke="none" transform="matrix(0.33333, 0, 0, 0.33333, 0, 0)"/>
    <path fill="none" d="M1231,-1668 L1194,-1668 L1194,-1570 L1231,-1570" stroke-width="2" transform="matrix(0.33333, 0, 0, 0.33333, 0, 0)"/>
    <path d="M1231,-1570 L1250,-1590 L1250,-1688 L1214,-1688 L1194,-1668 L1231,-1668 L1231,-1570 Z" stroke-width="2"
        transform="matrix(0.33333, 0, 0, 0.33333, 0, 0)"/>
    <path fill="none" d="M1231,-1668 L1250,-1688" stroke-width="2" transform="matrix(0.33333, 0, 0, 0.33333, 0, 0)"
        stroke-linecap="round" stroke-linejoin="round"/>
    <path fill="none" d="M1231,-1668 L1194,-1668 L1194,-1570 L1231,-1570 M1231,-1570 L1250,-1590 L1250,-1688 L1214,-1688 
        L1194,-1668 L1231,-1668 L1231,-1570 Z M1231,-1668 L1250,-1688" stroke-width="2" transform="matrix(0.33333, 0, 0, 0.33333, 0, 0)"/>
    <path fill="#ffffff" d="M1224,-1594 C1224,-1591 1219,-1589 1213,-1589 C1206,-1589 1201,-1591 1201,-1594 C1201,-1596 
        1206,-1598 1213,-1598 C1219,-1598 1224,-1596 1224,-1594 Z" transform="matrix(0.33333, 0, 0, 0.33333, 0, 0)"
        stroke-linecap="round" stroke-linejoin="round"/>
    <path fill="#000000" d="M1216,-1594 C1216,-1593 1215,-1593 1213,-1593 C1211,-1593 1209,-1593 1209,-1594 C1209,-1595 
        1211,-1595 1213,-1595 C1215,-1595 1216,-1595 1216,-1594 Z" transform="matrix(0.33333, 0, 0, 0.33333, 0, 0)"
        stroke="none"/>
    <path fill="#000000" d="M1216,-1596 C1216,-1596 1215,-1595 1213,-1595 C1211,-1595 1209,-1596 1209,-1596 C1209,-1597 
        1211,-1598 1213,-1598 C1215,-1598 1216,-1597 1216,-1596 Z" transform="matrix(0.33333, 0, 0, 0.33333, 0, 0)"
        stroke="none"/>
    <path fill="#ffffff" d="M1224,-1598 C1224,-1596 1219,-1594 1213,-1594 C1206,-1594 1201,-1596 1201,-1598 C1201,-1601 
        1206,-1603 1213,-1603 C1219,-1603 1224,-1601 1224,-1598 Z" transform="matrix(0.33333, 0, 0, 0.33333, 0, 0)"
        stroke="#000000" stroke-linecap="round" stroke-linejoin="round"/>
    <path fill="#000000" d="M1216,-1599 C1216,-1598 1215,-1597 1213,-1597 C1211,-1597 1209,-1598 1209,-1599 C1209,-1599 
        1211,-1600 1213,-1600 C1215,-1600 1216,-1599 1216,-1599 Z" transform="matrix(0.33333, 0, 0, 0.33333, 0, 0)"
        stroke="none"/>
    <path fill="#000000" d="M1216,-1601 C1216,-1600 1215,-1600 1213,-1600 C1211,-1600 1209,-1600 1209,-1601 C1209,-1602 
        1211,-1602 1213,-1602 C1215,-1602 1216,-1602 1216,-1601 Z" transform="matrix(0.33333, 0, 0, 0.33333, 0, 0)"
        stroke="none"/>
    <path fill="#ffffff" d="M1224,-1603 C1224,-1601 1219,-1599 1213,-1599 C1206,-1599 1201,-1601 1201,-1603 C1201,-1606 
        1206,-1608 1213,-1608 C1219,-1608 1224,-1606 1224,-1603 Z" transform="matrix(0.33333, 0, 0, 0.33333, 0, 0)"
        stroke="#000000" stroke-linecap="round" stroke-linejoin="round"/>
    <path fill="#000000" d="M1216,-1603 C1216,-1603 1215,-1602 1213,-1602 C1211,-1602 1209,-1603 1209,-1603 C1209,-1604 
        1211,-1605 1213,-1605 C1215,-1605 1216,-1604 1216,-1603 Z" transform="matrix(0.33333, 0, 0, 0.33333, 0, 0)"
        stroke="none"/>
    <path fill="#ffffff" d="M1224,-1613 C1224,-1610 1219,-1608 1213,-1608 C1206,-1608 1201,-1610 1201,-1613 C1201,-1615 
        1206,-1617 1213,-1617 C1219,-1617 1224,-1615 1224,-1613 Z" transform="matrix(0.33333, 0, 0, 0.33333, 0, 0)"
        stroke="#000000" stroke-linecap="round" stroke-linejoin="round"/>
    <path fill="#000000" d="M1216,-1613 C1216,-1612 1215,-1612 1213,-1612 C1211,-1612 1209,-1612 1209,-1613 C1209,-1614 
        1211,-1614 1213,-1614 C1215,-1614 1216,-1614 1216,-1613 Z" transform="matrix(0.33333, 0, 0, 0.33333, 0, 0)"
        stroke="none"/>
    <path fill="#000000" d="M1216,-1615 C1216,-1615 1215,-1614 1213,-1614 C1211,-1614 1209,-1615 1209,-1615 C1209,-1616 
        1211,-1617 1213,-1617 C1215,-1617 1216,-1616 1216,-1615 Z" transform="matrix(0.33333, 0, 0, 0.33333, 0, 0)"
        stroke="none"/>
    <path fill="#ffffff" d="M1224,-1618 C1224,-1615 1219,-1613 1213,-1613 C1206,-1613 1201,-1615 1201,-1618 C1201,-1620 
        1206,-1622 1213,-1622 C1219,-1622 1224,-1620 1224,-1618 Z" transform="matrix(0.33333, 0, 0, 0.33333, 0, 0)"
        stroke="#000000" stroke-linejoin="round" stroke-linecap="round"/>
    <path fill="#000000" d="M1216,-1618 C1216,-1617 1215,-1617 1213,-1617 C1211,-1617 1209,-1617 1209,-1618 C1209,-1619 
        1211,-1619 1213,-1619 C1215,-1619 1216,-1619 1216,-1618 Z" transform="matrix(0.33333, 0, 0, 0.33333, 0, 0)"
        stroke="none"/>
    <path fill="#000000" d="M1216,-1620 C1216,-1620 1215,-1619 1213,-1619 C1211,-1619 1209,-1620 1209,-1620 C1209,-1621 
        1211,-1622 1213,-1622 C1215,-1622 1216,-1621 1216,-1620 Z" transform="matrix(0.33333, 0, 0, 0.33333, 0, 0)"
        stroke="none"/>
    <path fill="#ffffff" d="M1224,-1622 C1224,-1620 1219,-1618 1213,-1618 C1206,-1618 1201,-1620 1201,-1622 C1201,-1625 
        1206,-1627 1213,-1627 C1219,-1627 1224,-1625 1224,-1622 Z" transform="matrix(0.33333, 0, 0, 0.33333, 0, 0)"
        stroke="#000000" stroke-linejoin="round" stroke-linecap="round"/>
    <path fill="#000000" d="M1216,-1623 C1216,-1622 1215,-1621 1213,-1621 C1211,-1621 1209,-1622 1209,-1623 C1209,-1623 
        1211,-1624 1213,-1624 C1215,-1624 1216,-1623 1216,-1623 Z" transform="matrix(0.33333, 0, 0, 0.33333, 0, 0)"
        stroke="none"/>
    <path fill="#ffffff" d="M1224,-1632 C1224,-1630 1219,-1628 1213,-1628 C1206,-1628 1201,-1630 1201,-1632 C1201,-1634 
        1206,-1636 1213,-1636 C1219,-1636 1224,-1634 1224,-1632 Z" transform="matrix(0.33333, 0, 0, 0.33333, 0, 0)"
        stroke="#000000" stroke-linejoin="round" stroke-linecap="round"/>
    <path fill="#000000" d="M1216,-1632 C1216,-1632 1215,-1631 1213,-1631 C1211,-1631 1209,-1632 1209,-1632 C1209,-1633 
        1211,-1634 1213,-1634 C1215,-1634 1216,-1633 1216,-1632 Z" transform="matrix(0.33333, 0, 0, 0.33333, 0, 0)"
        stroke="none"/>
    <path fill="#000000" d="M1216,-1635 C1216,-1634 1215,-1633 1213,-1633 C1211,-1633 1209,-1634 1209,-1635 C1209,-1635 
        1211,-1636 1213,-1636 C1215,-1636 1216,-1635 1216,-1635 Z" transform="matrix(0.33333, 0, 0, 0.33333, 0, 0)"
        stroke="none"/>
    <path fill="#ffffff" d="M1224,-1637 C1224,-1634 1219,-1632 1213,-1632 C1206,-1632 1201,-1634 1201,-1637 C1201,-1639 
        1206,-1641 1213,-1641 C1219,-1641 1224,-1639 1224,-1637 Z" transform="matrix(0.33333, 0, 0, 0.33333, 0, 0)"
        stroke="#000000" stroke-linejoin="round" stroke-linecap="round"/>
    <path fill="#000000" d="M1216,-1637 C1216,-1636 1215,-1636 1213,-1636 C1211,-1636 1209,-1636 1209,-1637 C1209,-1638 
        1211,-1638 1213,-1638 C1215,-1638 1216,-1638 1216,-1637 Z" transform="matrix(0.33333, 0, 0, 0.33333, 0, 0)"
        stroke="none"/>
    <path fill="#000000" d="M1216,-1639 C1216,-1639 1215,-1638 1213,-1638 C1211,-1638 1209,-1639 1209,-1639 C1209,-1640 
        1211,-1641 1213,-1641 C1215,-1641 1216,-1640 1216,-1639 Z" transform="matrix(0.33333, 0, 0, 0.33333, 0, 0)"
        stroke="none"/>
    <path fill="#ffffff" d="M1224,-1642 C1224,-1639 1219,-1637 1213,-1637 C1206,-1637 1201,-1639 1201,-1642 C1201,-1644 
        1206,-1646 1213,-1646 C1219,-1646 1224,-1644 1224,-1642 Z" transform="matrix(0.33333, 0, 0, 0.33333, 0, 0)"
        stroke="#000000" stroke-linejoin="round" stroke-linecap="round"/>
    <path fill="#000000" d="M1216,-1642 C1216,-1641 1215,-1641 1213,-1641 C1211,-1641 1209,-1641 1209,-1642 C1209,-1643 
        1211,-1643 1213,-1643 C1215,-1643 1216,-1643 1216,-1642 Z" transform="matrix(0.33333, 0, 0, 0.33333, 0, 0)"
        stroke="none"/>
</svg>