<?xml version="1.0" standalone="no"?>
<!DOCTYPE svg PUBLIC "-//W3C//DTD SVG 1.0//EN"
    "http://www.w3.org/TR/2001/REC-SVG-20010904/DTD/svg10.dtd">
<?xml-stylesheet type="text/css" href="..\cisco_network.css" ?>
<svg contentScriptType="text/ecmascript" zoomAndPan="magnify" xmlns:xlink="http://www.w3.org/1999/xlink" baseProfile="full"
    contentStyleType="text/css" enable-background="new" version="1.0" width="28.3465" preserveAspectRatio="none"
    viewBox="391.01 -548.99 32 14.976" height="13.2661" xmlns="http://www.w3.org/2000/svg" color-interpolation-filters="sRGB"
    x="0" y="1.5">
    <path fill="none" d="M1195,-1626 C1200,-1626 1204,-1630 1204,-1635 C1204,-1640 1200,-1644 1195,-1644 C1190,-1644 
        1186,-1640 1186,-1635 C1186,-1630 1190,-1626 1195,-1626 Z" stroke-width="6" transform="matrix(0.33333, 0, 0, 0.33333, 0, 0)"
        stroke="#0f73a0"/>
    <path fill="none" d="M1195,-1608 C1200,-1608 1204,-1612 1204,-1617 C1204,-1622 1200,-1626 1195,-1626 C1190,-1626 
        1186,-1622 1186,-1617 C1186,-1612 1190,-1608 1195,-1608 Z" stroke-width="6" transform="matrix(0.33333, 0, 0, 0.33333, 0, 0)"
        stroke="#0f73a0"/>
    <path fill="none" d="M1182,-1619 C1186,-1619 1189,-1622 1189,-1626 C1189,-1630 1186,-1633 1182,-1633 C1178,-1633 
        1175,-1630 1175,-1626 C1175,-1622 1178,-1619 1182,-1619 Z" stroke-width="6" transform="matrix(0.33333, 0, 0, 0.33333, 0, 0)"
        stroke="#0f73a0"/>
    <path fill="none" d="M1204,-1640 C1204,-1637 1205,-1634 1206,-1631 C1207,-1628 1210,-1626 1212,-1625" stroke-width="6"
        transform="matrix(0.33333, 0, 0, 0.33333, 0, 0)" stroke="#0f73a0"/>
    <path fill="#0f73a0" d="M1204,-1611 C1204,-1614 1205,-1617 1206,-1620 C1207,-1623 1210,-1625 1212,-1626"
        stroke-width="2.54" transform="matrix(0.33333, 0, 0, 0.33333, 0, 0)" stroke="none"/>
    <path fill="#0f73a0" d="M1266,-1620 C1266,-1630 1266,-1630 1266,-1630 C1225,-1630 1225,-1630 1225,-1630 C1224,-1632 
        1223,-1633 1222,-1633 C1221,-1633 1220,-1632 1220,-1630 C1219,-1630 1219,-1630 1219,-1630 C1218,-1632 1217,-1633 
        1216,-1633 C1215,-1633 1214,-1632 1214,-1630 C1207,-1630 1207,-1630 1207,-1630 C1207,-1622 1207,-1622 1207,-1622 
        C1214,-1622 1214,-1622 1214,-1622 C1214,-1620 1215,-1618 1216,-1618 C1217,-1618 1218,-1620 1219,-1622 
        C1220,-1622 1220,-1622 1220,-1622 C1220,-1620 1221,-1618 1222,-1618 C1223,-1618 1224,-1620 1225,-1622 
        C1255,-1622 1255,-1622 1255,-1622 C1255,-1607 1255,-1607 1255,-1607 C1265,-1607 1265,-1607 1265,-1607 
        C1265,-1611 1265,-1611 1265,-1611 C1261,-1611 1261,-1611 1261,-1611 C1261,-1613 1261,-1613 1261,-1613 
        C1265,-1613 1265,-1613 1265,-1613 C1265,-1617 1265,-1617 1265,-1617 C1261,-1617 1261,-1617 1261,-1617 
        C1261,-1620 1261,-1620 1261,-1620 Z" transform="matrix(0.33333, 0, 0, 0.33333, 0, 0)" stroke="none"/>
</svg>