<?xml version="1.0" standalone="no"?>
<!DOCTYPE svg PUBLIC "-//W3C//DTD SVG 1.0//EN"
    "http://www.w3.org/TR/2001/REC-SVG-20010904/DTD/svg10.dtd">
<?xml-stylesheet type="text/css" href="..\cisco_network.css" ?>
<svg contentScriptType="text/ecmascript" zoomAndPan="magnify" xmlns:xlink="http://www.w3.org/1999/xlink" baseProfile="full"
    contentStyleType="text/css" enable-background="new" version="1.0" width="41.6409" preserveAspectRatio="none"
    viewBox="380 -558.02 47.008 64" height="56.6929" xmlns="http://www.w3.org/2000/svg" color-interpolation-filters="sRGB"
    x="0" y="1.5">
    <path fill="#000000" d="M1280,-1639 L1280,-1642 L1280,-1646 L1279,-1650 L1277,-1653 L1276,-1656 L1274,-1659 
        L1272,-1662 L1270,-1664 L1267,-1667 L1264,-1669 L1261,-1671 L1258,-1672 L1255,-1673 L1251,-1674 L1248,-1675 
        L1244,-1675 L1240,-1675 L1237,-1674 L1233,-1673 L1230,-1672 L1227,-1671 L1224,-1669 L1221,-1667 L1218,-1664 
        L1216,-1662 L1214,-1659 L1212,-1656 L1211,-1653 L1210,-1650 L1208,-1646 L1208,-1642 L1208,-1639 L1208,-1635 
        L1208,-1632 L1209,-1629 L1210,-1626 L1208,-1627 L1206,-1628 L1205,-1628 L1204,-1629 L1203,-1629 L1202,-1629 
        L1201,-1629 L1201,-1628 L1184,-1610 L1184,-1610 L1184,-1609 L1183,-1608 L1184,-1607 L1184,-1606 L1185,-1603 
        L1187,-1599 L1188,-1596 L1187,-1595 L1186,-1594 L1185,-1593 L1185,-1593 L1185,-1593 L1184,-1592 L1184,-1592 
        L1184,-1591 L1184,-1590 L1184,-1588 L1184,-1586 L1184,-1584 L1183,-1583 L1182,-1581 L1180,-1579 L1177,-1576 
        L1173,-1572 L1170,-1568 L1166,-1564 L1161,-1559 L1157,-1555 L1154,-1551 L1150,-1547 L1147,-1543 L1144,-1540 
        L1142,-1538 L1140,-1536 L1140,-1536 L1139,-1535 L1139,-1534 L1139,-1534 L1139,-1533 L1144,-1520 L1145,-1519 
        L1145,-1519 L1146,-1518 L1147,-1518 L1164,-1519 L1164,-1519 L1165,-1519 L1166,-1519 L1166,-1520 L1170,-1524 
        L1170,-1525 L1171,-1525 L1171,-1526 L1171,-1526 L1171,-1527 L1171,-1528 L1171,-1530 L1171,-1532 L1172,-1532 
        L1174,-1532 L1176,-1532 L1176,-1532 L1177,-1532 L1177,-1532 L1178,-1533 L1178,-1533 L1182,-1537 L1183,-1538 
        L1183,-1540 L1183,-1541 L1182,-1542 L1182,-1542 L1181,-1543 L1181,-1545 L1182,-1546 L1183,-1547 L1184,-1547 
        L1185,-1547 L1186,-1546 L1188,-1546 L1189,-1545 L1190,-1546 L1191,-1546 L1195,-1551 L1195,-1551 L1195,-1552 
        L1196,-1552 L1196,-1553 L1196,-1553 L1196,-1555 L1195,-1556 L1195,-1558 L1197,-1559 L1199,-1559 L1200,-1559 
        L1201,-1559 L1201,-1559 L1202,-1559 L1203,-1559 L1203,-1559 L1203,-1560 L1204,-1561 L1205,-1562 L1206,-1563 
        L1207,-1563 L1208,-1563 L1209,-1563 L1210,-1563 L1211,-1562 L1212,-1561 L1213,-1559 L1214,-1558 L1214,-1547 
        L1213,-1525 L1212,-1503 L1212,-1493 L1212,-1492 L1212,-1491 L1213,-1491 L1213,-1490 L1225,-1484 L1226,-1483 
        L1227,-1483 L1228,-1484 L1229,-1484 L1241,-1496 L1241,-1496 L1242,-1497 L1242,-1497 L1242,-1498 L1242,-1504 
        L1242,-1504 L1242,-1505 L1242,-1506 L1241,-1506 L1241,-1507 L1240,-1507 L1239,-1509 L1238,-1510 L1239,-1511 
        L1240,-1513 L1241,-1514 L1242,-1514 L1242,-1514 L1242,-1515 L1243,-1515 L1243,-1516 L1243,-1522 L1243,-1523 
        L1242,-1524 L1241,-1525 L1240,-1525 L1239,-1525 L1238,-1526 L1237,-1527 L1237,-1528 L1237,-1529 L1238,-1530 
        L1239,-1531 L1240,-1531 L1241,-1531 L1242,-1532 L1243,-1533 L1243,-1534 L1244,-1540 L1244,-1541 L1243,-1541 
        L1243,-1542 L1243,-1542 L1242,-1543 L1241,-1544 L1240,-1545 L1239,-1546 L1240,-1548 L1242,-1549 L1243,-1550 
        L1243,-1550 L1243,-1551 L1244,-1551 L1244,-1552 L1244,-1552 L1244,-1553 L1244,-1554 L1244,-1556 L1244,-1557 
        L1246,-1559 L1247,-1560 L1249,-1562 L1250,-1562 L1250,-1563 L1250,-1563 L1250,-1564 L1250,-1564 L1251,-1570 
        L1253,-1572 L1254,-1574 L1256,-1577 L1258,-1579 L1259,-1582 L1259,-1585 L1260,-1588 L1260,-1591 L1260,-1595 
        L1260,-1598 L1259,-1602 L1258,-1605 L1263,-1607 L1267,-1610 L1271,-1614 L1274,-1618 L1277,-1623 L1279,-1628 
        L1280,-1633 L1280,-1639 L1280,-1639 Z M1148,-1527 L1150,-1529 L1152,-1532 L1155,-1535 L1158,-1538 L1161,-1542 
        L1165,-1546 L1169,-1550 L1172,-1554 L1176,-1558 L1180,-1562 L1183,-1565 L1186,-1569 L1189,-1571 L1190,-1573 
        L1192,-1575 L1193,-1576 L1193,-1575 L1193,-1575 L1194,-1575 L1194,-1574 L1193,-1574 L1192,-1572 L1190,-1570 
        L1188,-1567 L1185,-1564 L1182,-1561 L1178,-1557 L1174,-1553 L1171,-1549 L1167,-1545 L1163,-1541 L1160,-1537 
        L1156,-1533 L1153,-1530 L1151,-1527 L1149,-1525 L1148,-1526 L1148,-1526 L1148,-1527 L1148,-1527 L1148,-1527 Z 
        M1200,-1565 L1199,-1565 L1198,-1564 L1196,-1564 L1195,-1564 L1194,-1564 L1193,-1564 L1192,-1564 L1192,-1564 
        L1192,-1564 L1191,-1564 L1190,-1564 L1190,-1563 L1190,-1563 L1190,-1562 L1189,-1562 L1189,-1561 L1189,-1560 
        L1190,-1558 L1190,-1556 L1190,-1554 L1189,-1553 L1189,-1553 L1189,-1553 L1188,-1552 L1186,-1553 L1185,-1553 
        L1183,-1553 L1182,-1553 L1181,-1552 L1180,-1552 L1179,-1551 L1178,-1550 L1176,-1547 L1175,-1545 L1175,-1542 
        L1177,-1540 L1176,-1539 L1175,-1539 L1175,-1538 L1175,-1538 L1174,-1538 L1173,-1538 L1172,-1538 L1171,-1538 
        L1170,-1538 L1168,-1538 L1168,-1538 L1168,-1538 L1167,-1538 L1166,-1537 L1166,-1537 L1166,-1537 L1165,-1536 
        L1165,-1536 L1165,-1535 L1165,-1535 L1165,-1534 L1165,-1532 L1165,-1529 L1165,-1527 L1164,-1527 L1164,-1526 
        L1163,-1525 L1163,-1525 L1162,-1525 L1161,-1525 L1160,-1525 L1158,-1524 L1156,-1524 L1155,-1524 L1153,-1524 
        L1152,-1524 L1196,-1572 L1202,-1567 L1201,-1566 L1201,-1566 L1200,-1565 L1200,-1565 L1200,-1565 Z M1215,-1572 
        L1214,-1571 L1213,-1571 L1213,-1570 L1212,-1569 L1211,-1569 L1211,-1569 L1210,-1569 L1209,-1569 L1207,-1569 
        L1206,-1569 L1205,-1569 L1205,-1569 L1205,-1569 L1204,-1569 L1204,-1569 L1204,-1569 L1198,-1574 L1197,-1575 
        L1192,-1580 L1146,-1530 L1146,-1531 L1146,-1532 L1146,-1533 L1146,-1533 L1146,-1534 L1148,-1536 L1150,-1539 
        L1153,-1542 L1157,-1545 L1160,-1549 L1164,-1553 L1168,-1558 L1172,-1562 L1176,-1566 L1180,-1570 L1183,-1574 
        L1186,-1577 L1188,-1579 L1189,-1580 L1189,-1581 L1190,-1581 L1190,-1582 L1190,-1582 L1190,-1583 L1190,-1584 
        L1190,-1586 L1190,-1588 L1190,-1590 L1191,-1591 L1192,-1592 L1193,-1593 L1193,-1594 L1194,-1594 L1194,-1595 
        L1194,-1596 L1194,-1597 L1193,-1598 L1192,-1601 L1191,-1605 L1190,-1608 L1191,-1609 L1193,-1610 L1194,-1613 
        L1197,-1615 L1199,-1617 L1201,-1619 L1203,-1621 L1204,-1622 L1204,-1622 L1206,-1622 L1207,-1621 L1208,-1620 
        L1210,-1620 L1211,-1619 L1212,-1618 L1214,-1617 L1214,-1617 L1214,-1617 L1214,-1617 L1214,-1617 L1215,-1616 
        L1216,-1615 L1217,-1614 L1218,-1613 L1220,-1612 L1221,-1610 L1222,-1609 L1223,-1609 L1223,-1608 L1224,-1607 
        L1224,-1606 L1225,-1605 L1226,-1605 L1227,-1604 L1228,-1604 L1229,-1604 L1230,-1604 L1232,-1604 L1233,-1605 
        L1233,-1606 L1235,-1608 L1235,-1610 L1235,-1612 L1233,-1614 L1232,-1615 L1231,-1616 L1230,-1616 L1229,-1616 
        L1228,-1616 L1227,-1617 L1226,-1617 L1225,-1618 L1226,-1619 L1228,-1619 L1229,-1619 L1230,-1619 L1231,-1619 
        L1232,-1618 L1234,-1617 L1235,-1616 L1235,-1616 L1235,-1616 L1235,-1616 L1236,-1616 L1237,-1614 L1238,-1611 
        L1238,-1608 L1236,-1603 L1235,-1603 L1235,-1602 L1235,-1601 L1235,-1600 L1235,-1600 L1236,-1598 L1237,-1596 
        L1239,-1594 L1240,-1591 L1241,-1589 L1242,-1587 L1243,-1585 L1242,-1584 L1240,-1582 L1238,-1580 L1236,-1578 
        L1234,-1575 L1232,-1573 L1230,-1571 L1229,-1570 L1228,-1571 L1227,-1571 L1225,-1572 L1223,-1572 L1221,-1573 
        L1220,-1573 L1219,-1573 L1218,-1574 L1218,-1574 L1217,-1574 L1216,-1573 L1215,-1573 L1215,-1573 L1215,-1572 
        L1215,-1572 L1215,-1572 L1215,-1572 Z M1221,-1623 L1219,-1626 L1218,-1630 L1217,-1634 L1217,-1639 L1217,-1644 
        L1219,-1649 L1221,-1654 L1225,-1658 L1229,-1661 L1233,-1664 L1239,-1666 L1244,-1666 L1250,-1666 L1255,-1664 
        L1259,-1661 L1263,-1658 L1267,-1654 L1269,-1649 L1271,-1644 L1271,-1639 L1271,-1634 L1270,-1630 L1268,-1626 
        L1266,-1622 L1263,-1619 L1260,-1616 L1257,-1614 L1253,-1612 L1251,-1614 L1250,-1615 L1248,-1617 L1246,-1618 
        L1244,-1619 L1242,-1620 L1240,-1621 L1238,-1622 L1236,-1623 L1234,-1624 L1231,-1625 L1229,-1625 L1227,-1625 
        L1225,-1624 L1223,-1624 L1221,-1623 L1221,-1623 Z M1225,-1490 L1225,-1491 L1224,-1491 L1224,-1491 L1223,-1492 
        L1224,-1507 L1225,-1528 L1225,-1548 L1226,-1558 L1226,-1558 L1227,-1558 L1227,-1558 L1228,-1558 L1227,-1548 
        L1227,-1529 L1226,-1507 L1225,-1490 L1225,-1490 Z M1238,-1554 L1237,-1553 L1235,-1551 L1233,-1549 L1233,-1549 
        L1232,-1548 L1232,-1548 L1232,-1547 L1232,-1547 L1232,-1546 L1232,-1546 L1232,-1545 L1233,-1545 L1233,-1544 
        L1235,-1543 L1236,-1541 L1238,-1539 L1238,-1539 L1238,-1538 L1237,-1538 L1237,-1537 L1236,-1536 L1235,-1536 
        L1234,-1534 L1233,-1533 L1232,-1532 L1232,-1531 L1231,-1530 L1231,-1529 L1232,-1525 L1233,-1523 L1235,-1521 
        L1237,-1520 L1237,-1519 L1237,-1518 L1237,-1518 L1237,-1517 L1236,-1516 L1234,-1515 L1232,-1513 L1232,-1513 
        L1231,-1512 L1231,-1511 L1230,-1511 L1230,-1510 L1230,-1510 L1231,-1509 L1231,-1509 L1231,-1508 L1232,-1508 
        L1233,-1506 L1235,-1504 L1236,-1503 L1236,-1502 L1236,-1501 L1236,-1500 L1236,-1499 L1236,-1499 L1235,-1498 
        L1234,-1497 L1233,-1496 L1232,-1495 L1231,-1494 L1229,-1493 L1228,-1492 L1231,-1558 L1238,-1557 L1238,-1556 
        L1238,-1555 L1238,-1555 L1238,-1554 L1238,-1554 Z M1255,-1591 L1254,-1588 L1254,-1585 L1252,-1582 L1251,-1580 
        L1250,-1578 L1248,-1576 L1247,-1574 L1245,-1573 L1245,-1571 L1245,-1568 L1245,-1567 L1245,-1566 L1244,-1566 
        L1244,-1566 L1244,-1566 L1244,-1566 L1243,-1564 L1241,-1563 L1240,-1561 L1239,-1561 L1239,-1561 L1239,-1561 
        L1239,-1560 L1239,-1560 L1231,-1561 L1231,-1561 L1229,-1561 L1223,-1561 L1220,-1493 L1220,-1494 L1219,-1494 
        L1218,-1494 L1218,-1495 L1218,-1506 L1219,-1528 L1220,-1550 L1220,-1559 L1220,-1560 L1220,-1561 L1220,-1561 
        L1219,-1561 L1219,-1562 L1218,-1563 L1217,-1564 L1216,-1565 L1217,-1565 L1217,-1566 L1218,-1567 L1218,-1567 
        L1220,-1567 L1221,-1566 L1223,-1566 L1225,-1565 L1227,-1565 L1228,-1564 L1229,-1564 L1230,-1564 L1230,-1564 
        L1231,-1564 L1232,-1564 L1233,-1565 L1249,-1582 L1250,-1583 L1250,-1584 L1250,-1585 L1250,-1586 L1249,-1587 
        L1248,-1588 L1247,-1590 L1246,-1593 L1244,-1595 L1243,-1598 L1242,-1600 L1241,-1601 L1243,-1604 L1244,-1607 
        L1244,-1610 L1244,-1612 L1246,-1610 L1248,-1609 L1250,-1606 L1252,-1604 L1253,-1601 L1254,-1598 L1254,-1595 
        L1255,-1591 L1255,-1591 Z M1256,-1607 L1256,-1608 L1255,-1609 L1255,-1609 L1255,-1610 L1259,-1612 L1263,-1615 
        L1266,-1618 L1269,-1621 L1271,-1625 L1273,-1629 L1274,-1634 L1274,-1639 L1274,-1645 L1272,-1651 L1269,-1656 
        L1265,-1660 L1261,-1664 L1256,-1667 L1250,-1668 L1244,-1669 L1238,-1668 L1232,-1667 L1227,-1664 L1222,-1660 
        L1219,-1656 L1216,-1651 L1214,-1645 L1214,-1639 L1214,-1634 L1215,-1630 L1216,-1626 L1218,-1622 L1219,-1621 
        L1221,-1619 L1222,-1618 L1223,-1616 L1223,-1616 L1224,-1616 L1225,-1615 L1225,-1615 L1226,-1614 L1227,-1614 
        L1227,-1613 L1228,-1613 L1228,-1612 L1229,-1612 L1229,-1612 L1229,-1612 L1230,-1612 L1230,-1611 L1230,-1611 
        L1230,-1610 L1230,-1610 L1230,-1610 L1230,-1610 L1230,-1610 L1230,-1610 L1229,-1609 L1229,-1609 L1228,-1609 
        L1228,-1609 L1227,-1610 L1227,-1610 L1226,-1610 L1226,-1611 L1225,-1611 L1224,-1612 L1224,-1612 L1223,-1613 
        L1222,-1613 L1221,-1614 L1220,-1615 L1219,-1616 L1218,-1617 L1218,-1618 L1217,-1619 L1216,-1620 L1215,-1622 
        L1215,-1623 L1214,-1624 L1212,-1628 L1211,-1631 L1211,-1635 L1211,-1639 L1211,-1645 L1213,-1652 L1216,-1657 
        L1220,-1662 L1225,-1666 L1231,-1670 L1237,-1671 L1244,-1672 L1251,-1671 L1257,-1670 L1262,-1666 L1268,-1662 
        L1272,-1657 L1275,-1652 L1277,-1645 L1277,-1639 L1277,-1633 L1276,-1629 L1274,-1624 L1272,-1620 L1268,-1616 
        L1265,-1613 L1261,-1610 L1256,-1607 L1256,-1607 Z" stroke-width="2.54" fill-rule="evenodd" transform="matrix(0.33333, 0, 0, 0.33333, 0, 0)"
        stroke="none"/>
    <path fill="#c1daea" d="M1218,-1574 L1219,-1573 L1220,-1573 L1221,-1573 L1223,-1572 L1225,-1572 L1227,-1571 
        L1228,-1571 L1229,-1570 L1230,-1571 L1232,-1573 L1234,-1575 L1236,-1578 L1238,-1580 L1240,-1582 L1242,-1584 
        L1243,-1585 L1242,-1587 L1241,-1589 L1240,-1591 L1239,-1594 L1237,-1596 L1236,-1598 L1235,-1600 L1235,-1600 
        L1235,-1601 L1235,-1602 L1235,-1603 L1236,-1603 L1238,-1608 L1238,-1611 L1237,-1614 L1236,-1616 L1235,-1616 
        L1235,-1616 L1235,-1616 L1235,-1616 L1234,-1617 L1232,-1618 L1231,-1619 L1230,-1619 L1229,-1619 L1228,-1619 
        L1226,-1619 L1225,-1618 L1226,-1617 L1227,-1617 L1228,-1616 L1229,-1616 L1230,-1616 L1231,-1616 L1232,-1615 
        L1233,-1614 L1235,-1612 L1235,-1610 L1235,-1608 L1233,-1606 L1233,-1605 L1232,-1604 L1230,-1604 L1229,-1604 
        L1228,-1604 L1227,-1604 L1226,-1605 L1225,-1605 L1224,-1606 L1224,-1607 L1223,-1608 L1223,-1609 L1222,-1609 
        L1221,-1610 L1220,-1612 L1218,-1613 L1217,-1614 L1216,-1615 L1215,-1616 L1214,-1617 L1214,-1617 L1214,-1617 
        L1214,-1617 L1214,-1617 L1212,-1618 L1211,-1619 L1210,-1620 L1208,-1620 L1207,-1621 L1206,-1622 L1204,-1622 
        L1204,-1622 L1203,-1621 L1201,-1619 L1199,-1617 L1197,-1615 L1194,-1613 L1193,-1610 L1191,-1609 L1190,-1608 
        L1191,-1605 L1192,-1601 L1193,-1598 L1194,-1597 L1194,-1596 L1194,-1595 L1194,-1594 L1193,-1594 L1193,-1593 
        L1192,-1592 L1191,-1591 L1190,-1590 L1190,-1588 L1190,-1586 L1190,-1584 L1190,-1583 L1190,-1582 L1190,-1582 
        L1190,-1581 L1189,-1581 L1189,-1580 L1188,-1579 L1186,-1577 L1183,-1574 L1180,-1570 L1176,-1566 L1172,-1562 
        L1168,-1558 L1164,-1553 L1160,-1549 L1157,-1545 L1153,-1542 L1150,-1539 L1148,-1536 L1146,-1534 L1146,-1533 
        L1146,-1533 L1146,-1532 L1146,-1531 L1146,-1530 L1192,-1580 L1197,-1575 L1198,-1574 L1204,-1569 L1204,-1569 
        L1204,-1569 L1205,-1569 L1205,-1569 L1205,-1569 L1206,-1569 L1207,-1569 L1209,-1569 L1210,-1569 L1211,-1569 
        L1211,-1569 L1212,-1569 L1213,-1570 L1213,-1571 L1214,-1571 L1215,-1572 L1215,-1572 L1215,-1572 L1215,-1573 
        L1215,-1573 L1216,-1573 L1217,-1574 L1218,-1574 L1218,-1574 L1218,-1574 Z M1152,-1524 L1153,-1524 L1155,-1524 
        L1156,-1524 L1158,-1524 L1160,-1525 L1161,-1525 L1162,-1525 L1163,-1525 L1163,-1525 L1164,-1526 L1164,-1527 
        L1165,-1527 L1165,-1529 L1165,-1532 L1165,-1534 L1165,-1535 L1165,-1535 L1165,-1536 L1165,-1536 L1166,-1537 
        L1166,-1537 L1166,-1537 L1167,-1538 L1168,-1538 L1168,-1538 L1168,-1538 L1170,-1538 L1171,-1538 L1172,-1538 
        L1173,-1538 L1174,-1538 L1175,-1538 L1175,-1538 L1175,-1539 L1176,-1539 L1177,-1540 L1175,-1542 L1175,-1545 
        L1176,-1547 L1178,-1550 L1179,-1551 L1180,-1552 L1181,-1552 L1182,-1553 L1183,-1553 L1185,-1553 L1186,-1553 
        L1188,-1552 L1189,-1553 L1189,-1553 L1189,-1553 L1190,-1554 L1190,-1556 L1190,-1558 L1189,-1560 L1189,-1561 
        L1189,-1562 L1190,-1562 L1190,-1563 L1190,-1563 L1190,-1564 L1191,-1564 L1192,-1564 L1192,-1564 L1192,-1564 
        L1193,-1564 L1194,-1564 L1195,-1564 L1196,-1564 L1198,-1564 L1199,-1565 L1200,-1565 L1200,-1565 L1201,-1566 
        L1201,-1566 L1202,-1567 L1196,-1572 L1152,-1524 L1152,-1524 Z" stroke-width="2.54" fill-rule="evenodd"
        transform="matrix(0.33333, 0, 0, 0.33333, 0, 0)" stroke="none"/>
    <path fill="#3a99c5" d="M1193,-1576 L1192,-1575 L1190,-1573 L1189,-1571 L1186,-1569 L1183,-1565 L1180,-1562 
        L1176,-1558 L1172,-1554 L1169,-1550 L1165,-1546 L1161,-1542 L1158,-1538 L1155,-1535 L1152,-1532 L1150,-1529 
        L1148,-1527 L1148,-1527 L1148,-1526 L1148,-1526 L1149,-1525 L1151,-1527 L1153,-1530 L1156,-1533 L1160,-1537 
        L1163,-1541 L1167,-1545 L1171,-1549 L1174,-1553 L1178,-1557 L1182,-1561 L1185,-1564 L1188,-1567 L1190,-1570 
        L1192,-1572 L1193,-1574 L1194,-1574 L1194,-1575 L1193,-1575 L1193,-1575 L1193,-1576 L1193,-1576 Z" stroke-width="2.54"
        fill-rule="evenodd" transform="matrix(0.33333, 0, 0, 0.33333, 0, 0)" stroke="none"/>
    <path fill="#c1daea" d="M1228,-1492 L1229,-1493 L1231,-1494 L1232,-1495 L1233,-1496 L1234,-1497 L1235,-1498 
        L1236,-1499 L1236,-1499 L1236,-1500 L1236,-1501 L1236,-1502 L1236,-1503 L1235,-1504 L1233,-1506 L1232,-1508 
        L1231,-1508 L1231,-1509 L1231,-1509 L1230,-1510 L1230,-1510 L1230,-1511 L1231,-1511 L1231,-1512 L1232,-1513 
        L1232,-1513 L1234,-1515 L1236,-1516 L1237,-1517 L1237,-1518 L1237,-1518 L1237,-1519 L1237,-1520 L1235,-1521 
        L1233,-1523 L1232,-1525 L1231,-1529 L1231,-1530 L1232,-1531 L1232,-1532 L1233,-1533 L1234,-1534 L1235,-1536 
        L1236,-1536 L1237,-1537 L1237,-1538 L1238,-1538 L1238,-1539 L1238,-1539 L1236,-1541 L1235,-1543 L1233,-1544 
        L1233,-1545 L1232,-1545 L1232,-1546 L1232,-1546 L1232,-1547 L1232,-1547 L1232,-1548 L1232,-1548 L1233,-1549 
        L1233,-1549 L1235,-1551 L1237,-1553 L1238,-1554 L1238,-1555 L1238,-1555 L1238,-1556 L1238,-1557 L1231,-1558 
        L1228,-1492 L1228,-1492 Z" stroke-width="2.54" fill-rule="evenodd" transform="matrix(0.33333, 0, 0, 0.33333, 0, 0)"
        stroke="none"/>
    <path fill="#3a99c5" d="M1244,-1672 L1237,-1671 L1231,-1670 L1225,-1666 L1220,-1662 L1216,-1657 L1213,-1652 
        L1211,-1645 L1211,-1639 L1211,-1635 L1211,-1631 L1212,-1628 L1214,-1624 L1215,-1623 L1215,-1622 L1216,-1620 
        L1217,-1619 L1218,-1618 L1218,-1617 L1219,-1616 L1220,-1615 L1221,-1614 L1222,-1613 L1223,-1613 L1224,-1612 
        L1224,-1612 L1225,-1611 L1226,-1611 L1226,-1610 L1227,-1610 L1227,-1610 L1228,-1609 L1228,-1609 L1229,-1609 
        L1229,-1609 L1230,-1610 L1230,-1610 L1230,-1610 L1230,-1610 L1230,-1610 L1230,-1610 L1230,-1611 L1230,-1611 
        L1230,-1612 L1229,-1612 L1229,-1612 L1229,-1612 L1228,-1612 L1228,-1613 L1227,-1613 L1227,-1614 L1226,-1614 
        L1225,-1615 L1225,-1615 L1224,-1616 L1223,-1616 L1223,-1616 L1222,-1618 L1221,-1619 L1219,-1621 L1218,-1622 
        L1216,-1626 L1215,-1630 L1214,-1634 L1214,-1639 L1214,-1645 L1216,-1651 L1219,-1656 L1222,-1660 L1227,-1664 
        L1232,-1667 L1238,-1668 L1244,-1669 L1250,-1668 L1256,-1667 L1261,-1664 L1265,-1660 L1269,-1656 L1272,-1651 
        L1274,-1645 L1274,-1639 L1274,-1634 L1273,-1629 L1271,-1625 L1269,-1621 L1266,-1618 L1263,-1615 L1259,-1612 
        L1255,-1610 L1255,-1609 L1255,-1609 L1256,-1608 L1256,-1607 L1261,-1610 L1265,-1613 L1268,-1616 L1272,-1620 
        L1274,-1624 L1276,-1629 L1277,-1633 L1277,-1639 L1277,-1645 L1275,-1652 L1272,-1657 L1268,-1662 L1262,-1666 
        L1257,-1670 L1251,-1671 L1244,-1672 L1244,-1672 Z M1223,-1492 L1224,-1491 L1224,-1491 L1225,-1491 L1225,-1490 
        L1226,-1507 L1227,-1529 L1227,-1548 L1228,-1558 L1227,-1558 L1227,-1558 L1226,-1558 L1226,-1558 L1225,-1548 
        L1225,-1528 L1224,-1507 L1223,-1492 L1223,-1492 Z" stroke-width="2.54" fill-rule="evenodd" transform="matrix(0.33333, 0, 0, 0.33333, 0, 0)"
        stroke="none"/>
    <path fill="#c1daea" d="M1244,-1612 L1244,-1610 L1244,-1607 L1243,-1604 L1241,-1601 L1242,-1600 L1243,-1598 
        L1244,-1595 L1246,-1593 L1247,-1590 L1248,-1588 L1249,-1587 L1250,-1586 L1250,-1585 L1250,-1584 L1250,-1583 
        L1249,-1582 L1233,-1565 L1232,-1564 L1231,-1564 L1230,-1564 L1230,-1564 L1229,-1564 L1228,-1564 L1227,-1565 
        L1225,-1565 L1223,-1566 L1221,-1566 L1220,-1567 L1218,-1567 L1218,-1567 L1217,-1566 L1217,-1565 L1216,-1565 
        L1217,-1564 L1218,-1563 L1219,-1562 L1219,-1561 L1220,-1561 L1220,-1561 L1220,-1560 L1220,-1559 L1220,-1550 
        L1219,-1528 L1218,-1506 L1218,-1495 L1218,-1494 L1219,-1494 L1220,-1494 L1220,-1493 L1223,-1561 L1229,-1561 
        L1231,-1561 L1231,-1561 L1239,-1560 L1239,-1560 L1239,-1561 L1239,-1561 L1239,-1561 L1240,-1561 L1241,-1563 
        L1243,-1564 L1244,-1566 L1244,-1566 L1244,-1566 L1244,-1566 L1245,-1566 L1245,-1567 L1245,-1568 L1245,-1571 
        L1245,-1573 L1247,-1574 L1248,-1576 L1250,-1578 L1251,-1580 L1252,-1582 L1254,-1585 L1254,-1588 L1255,-1591 
        L1254,-1595 L1254,-1598 L1253,-1601 L1252,-1604 L1250,-1606 L1248,-1609 L1246,-1610 L1244,-1612 L1244,-1612 Z"
        stroke-width="2.54" fill-rule="evenodd" transform="matrix(0.33333, 0, 0, 0.33333, 0, 0)" stroke="none"/>
    <path fill="#ffffff" d="M1198,-1595 L1194,-1607 L1207,-1621 L1206,-1621 L1205,-1622 L1204,-1622 L1204,-1622 
        L1203,-1621 L1201,-1619 L1199,-1617 L1197,-1615 L1194,-1613 L1193,-1610 L1191,-1609 L1190,-1608 L1191,-1605 
        L1192,-1601 L1193,-1598 L1194,-1597 L1194,-1596 L1194,-1595 L1194,-1594 L1193,-1594 L1193,-1593 L1192,-1592 
        L1191,-1591 L1190,-1590 L1190,-1588 L1190,-1586 L1190,-1584 L1190,-1583 L1190,-1582 L1190,-1582 L1190,-1581 
        L1189,-1581 L1189,-1580 L1188,-1579 L1186,-1577 L1183,-1574 L1180,-1570 L1176,-1566 L1172,-1562 L1168,-1558 
        L1164,-1553 L1160,-1549 L1157,-1545 L1153,-1542 L1150,-1539 L1148,-1536 L1146,-1534 L1146,-1533 L1146,-1533 
        L1146,-1532 L1146,-1531 L1146,-1530 L1192,-1580 L1192,-1589 L1198,-1595 L1198,-1595 Z" stroke-width="2.54"
        fill-rule="evenodd" transform="matrix(0.33333, 0, 0, 0.33333, 0, 0)" stroke="none"/>
    <path fill="#ffffff" d="M1216,-1565 L1217,-1564 L1218,-1563 L1219,-1562 L1219,-1561 L1220,-1561 L1220,-1561 
        L1220,-1560 L1220,-1559 L1220,-1550 L1219,-1528 L1218,-1506 L1218,-1495 L1218,-1494 L1219,-1494 L1220,-1494 
        L1220,-1493 L1223,-1561 L1218,-1566 L1217,-1566 L1217,-1566 L1217,-1565 L1216,-1565 L1216,-1565 Z" stroke-width="2.54"
        fill-rule="evenodd" transform="matrix(0.33333, 0, 0, 0.33333, 0, 0)" stroke="none"/>
</svg>