<?xml version="1.0" standalone="no"?>
<!DOCTYPE svg PUBLIC "-//W3C//DTD SVG 1.0//EN"
    "http://www.w3.org/TR/2001/REC-SVG-20010904/DTD/svg10.dtd">
<?xml-stylesheet type="text/css" href="..\cisco_network.css" ?>
<svg contentScriptType="text/ecmascript" zoomAndPan="magnify" xmlns:xlink="http://www.w3.org/1999/xlink" baseProfile="full"
    contentStyleType="text/css" enable-background="new" version="1.0" width="57.6" preserveAspectRatio="none" viewBox="376.99 -544 65.024 32"
    height="28.3465" xmlns="http://www.w3.org/2000/svg" color-interpolation-filters="sRGB" x="0" y="1.5">
    <path d="M1133,-1584 L1190,-1630 L1324,-1630 L1276,-1584 L1133,-1584 Z" stroke-width="2" transform="matrix(0.33333, 0, 0, 0.33333, 0, 0)"/>
    <path fill="#000000" d="M1264,-1606 L1267,-1609 L1278,-1604 L1259,-1599 L1263,-1605 L1228,-1605 L1229,-1606 
        L1264,-1606 Z M1242,-1618 L1241,-1616 L1205,-1616 L1199,-1612 L1190,-1617 L1211,-1623 L1206,-1618 L1242,-1618 Z 
        M1222,-1598 L1221,-1596 L1185,-1596 L1179,-1592 L1170,-1597 L1192,-1603 L1187,-1598 L1222,-1598 Z M1284,-1623 
        L1288,-1626 L1299,-1621 L1279,-1616 L1284,-1621 L1248,-1621 L1249,-1623 L1284,-1623 Z" transform="matrix(0.33333, 0, 0, 0.33333, 0, 0)"
        stroke="none"/>
    <path fill="#ffffff" d="M1264,-1605 L1267,-1608 L1277,-1604 L1258,-1598 L1263,-1603 L1227,-1603 L1228,-1605 
        L1264,-1605 Z M1241,-1616 L1240,-1615 L1204,-1615 L1201,-1612 L1191,-1616 L1210,-1621 L1205,-1616 L1241,-1616 Z"
        transform="matrix(0.33333, 0, 0, 0.33333, 0, 0)" stroke="none"/>
    <path d="M1276,-1537 L1324,-1589 L1324,-1630 L1276,-1584 L1276,-1537 Z" stroke-width="2" transform="matrix(0.33333, 0, 0, 0.33333, 0, 0)"/>
    <path fill="#ffffff" d="M1221,-1596 L1220,-1595 L1184,-1595 L1181,-1592 L1171,-1596 L1190,-1601 L1185,-1596 
        L1221,-1596 Z M1284,-1621 L1288,-1625 L1297,-1621 L1278,-1615 L1283,-1620 L1247,-1620 L1248,-1621 L1284,-1621 Z"
        transform="matrix(0.33333, 0, 0, 0.33333, 0, 0)" stroke="none"/>
    <path fill="none" d="M1282,-1620 L1277,-1615 M1260,-1602 L1258,-1599 M1228,-1605 L1227,-1604 M1249,-1622 
        L1247,-1620" transform="matrix(0.33333, 0, 0, 0.33333, 0, 0)" stroke-linecap="round" stroke="#000000"/>
    <path d="M1276,-1537 L1276,-1584 L1133,-1584 L1133,-1537 L1276,-1537 Z" stroke-width="2" transform="matrix(0.33333, 0, 0, 0.33333, 0, 0)"/>
    <path fill="#ffffff" d="M1171,-1566 L1171,-1575 L1173,-1575 L1170,-1579 L1168,-1575 L1169,-1575 L1169,-1566 
        L1171,-1566 Z M1166,-1565 L1160,-1571 L1161,-1572 L1157,-1573 L1157,-1569 L1159,-1570 L1165,-1564 L1166,-1565 Z 
        M1164,-1561 L1155,-1561 L1155,-1562 L1151,-1560 L1155,-1557 L1155,-1559 L1164,-1559 L1164,-1561 Z M1165,-1556 
        L1159,-1549 L1157,-1550 L1157,-1546 L1161,-1547 L1160,-1548 L1166,-1555 L1165,-1556 Z M1169,-1553 L1169,-1544 
        L1168,-1544 L1170,-1541 L1173,-1544 L1171,-1544 L1171,-1553 L1169,-1553 Z M1175,-1564 L1182,-1570 L1183,-1569 
        L1184,-1573 L1180,-1572 L1181,-1571 L1174,-1565 L1175,-1564 Z" transform="matrix(0.33333, 0, 0, 0.33333, 0, 0)"
        stroke="none"/>
    <path fill="#ffffff" d="M1176,-1552 C1180,-1555 1181,-1561 1178,-1565 C1175,-1570 1169,-1571 1165,-1568 C1161,-1565 
        1159,-1559 1163,-1554 C1166,-1550 1172,-1549 1176,-1552 Z" transform="matrix(0.33333, 0, 0, 0.33333, 0, 0)"
        stroke="none"/>
    <path fill="#ffffff" d="M1175,-1555 L1182,-1548 L1181,-1547 L1185,-1546 L1184,-1550 L1183,-1549 L1176,-1556 
        L1175,-1555 Z" transform="matrix(0.33333, 0, 0, 0.33333, 0, 0)" stroke="none"/>
    <path fill="none" d="M1176,-1560 L1237,-1560" stroke-width="4" transform="matrix(0.33333, 0, 0, 0.33333, 0, 0)"/>
    <path fill="#ffffff" d="M1241,-1556 L1241,-1549 L1240,-1549 L1241,-1547 L1243,-1549 L1242,-1549 L1242,-1556 
        L1241,-1556 Z M1244,-1556 L1249,-1552 L1248,-1551 L1251,-1551 L1250,-1553 L1249,-1553 L1245,-1557 L1244,-1556 Z 
        M1246,-1560 L1252,-1560 L1252,-1558 L1255,-1560 L1252,-1562 L1252,-1561 L1246,-1561 L1246,-1560 Z M1245,-1563 
        L1249,-1567 L1250,-1567 L1251,-1570 L1248,-1569 L1249,-1568 L1244,-1564 L1245,-1563 Z M1242,-1564 L1242,-1571 
        L1243,-1571 L1241,-1573 L1240,-1571 L1241,-1571 L1241,-1564 L1242,-1564 Z M1238,-1557 L1233,-1553 L1232,-1553 
        L1232,-1551 L1235,-1551 L1234,-1552 L1239,-1556 L1238,-1557 Z" transform="matrix(0.33333, 0, 0, 0.33333, 0, 0)"
        stroke="none"/>
    <path fill="#ffffff" d="M1237,-1565 C1234,-1563 1234,-1559 1236,-1556 C1238,-1553 1242,-1552 1245,-1554 C1248,-1557 
        1249,-1561 1247,-1564 C1245,-1567 1240,-1568 1237,-1565 Z" transform="matrix(0.33333, 0, 0, 0.33333, 0, 0)"
        stroke="none"/>
    <path fill="#ffffff" d="M1238,-1564 L1233,-1568 L1234,-1569 L1231,-1570 L1232,-1567 L1233,-1567 L1237,-1563 
        L1238,-1564 Z" transform="matrix(0.33333, 0, 0, 0.33333, 0, 0)" stroke="none"/>
</svg>