<?xml version="1.0" standalone="no"?>
<!DOCTYPE svg PUBLIC "-//W3C//DTD SVG 1.0//EN"
    "http://www.w3.org/TR/2001/REC-SVG-20010904/DTD/svg10.dtd">
<?xml-stylesheet type="text/css" href="..\cisco_network.css" ?>
<svg contentScriptType="text/ecmascript" zoomAndPan="magnify" xmlns:xlink="http://www.w3.org/1999/xlink" baseProfile="full"
    contentStyleType="text/css" enable-background="new" version="1.0" width="36.3118" preserveAspectRatio="none"
    viewBox="388 -567.01 40.992 40.992" height="36.3118" xmlns="http://www.w3.org/2000/svg" color-interpolation-filters="sRGB"
    x="0" y="1.5">
    <path stroke-width="2" d="M1165,-1579 L1165,-1685 L1272,-1685 L1272,-1579 L1165,-1579 Z M1286,-1592 L1286,-1699 
        L1272,-1685 L1272,-1579 L1286,-1592 Z M1184,-1699 L1165,-1686 L1272,-1686 L1286,-1699 L1184,-1699 Z" transform="matrix(0.33333, 0, 0, 0.33333, 0, 0)"/>
    <path d="M1272,-1685 L1165,-1685 Z" transform="matrix(0.33333, 0, 0, 0.33333, 0, 0)" stroke="none"/>
    <path fill="none" d="M1272,-1685 L1165,-1685" stroke-width="2" transform="matrix(0.33333, 0, 0, 0.33333, 0, 0)"/>
    <path d="M1272,-1685 L1286,-1699 Z" transform="matrix(0.33333, 0, 0, 0.33333, 0, 0)" stroke="none"/>
    <path fill="none" d="M1272,-1685 L1286,-1699" stroke-width="2" transform="matrix(0.33333, 0, 0, 0.33333, 0, 0)"/>
    <path d="M1272,-1685 L1272,-1579 Z" transform="matrix(0.33333, 0, 0, 0.33333, 0, 0)" stroke="none"/>
    <path fill="none" d="M1272,-1685 L1272,-1579" stroke-width="2" transform="matrix(0.33333, 0, 0, 0.33333, 0, 0)"/>
    <path d="M1272,-1685 L1165,-1685 Z" transform="matrix(0.33333, 0, 0, 0.33333, 0, 0)" stroke="none"/>
    <path fill="none" d="M1272,-1685 L1165,-1685" stroke-width="2" transform="matrix(0.33333, 0, 0, 0.33333, 0, 0)"/>
    <path fill="none" d="M1272,-1685 L1286,-1699" stroke-width="2" transform="matrix(0.33333, 0, 0, 0.33333, 0, 0)"/>
    <path fill="#ffffff" d="M1221,-1648 L1221,-1671 L1225,-1671 L1219,-1679 L1214,-1671 L1217,-1671 L1217,-1648 
        L1221,-1648 Z M1209,-1644 L1193,-1661 L1196,-1663 L1186,-1665 L1188,-1655 L1190,-1658 L1207,-1642 L1209,-1644 Z 
        M1203,-1633 L1180,-1633 L1180,-1637 L1172,-1632 L1180,-1626 L1180,-1630 L1203,-1630 L1203,-1633 Z M1207,-1622 
        L1190,-1605 L1188,-1608 L1186,-1598 L1196,-1600 L1193,-1603 L1209,-1619 L1207,-1622 Z M1217,-1616 L1217,-1593 
        L1214,-1593 L1219,-1584 L1225,-1593 L1221,-1593 L1221,-1616 L1217,-1616 Z M1229,-1619 L1246,-1603 L1243,-1600 
        L1253,-1598 L1251,-1608 L1248,-1605 L1232,-1622 L1229,-1619 Z M1235,-1630 L1258,-1630 L1258,-1626 L1267,-1632 
        L1258,-1637 L1258,-1633 L1235,-1633 L1235,-1630 Z M1232,-1642 L1248,-1658 L1251,-1655 L1253,-1665 L1243,-1663 
        L1246,-1661 L1229,-1644 L1232,-1642 Z" transform="matrix(0.33333, 0, 0, 0.33333, 0, 0)" stroke="none"/>
    <path fill="#ffffff" d="M1233,-1612 C1244,-1620 1247,-1635 1239,-1646 C1232,-1657 1217,-1659 1206,-1652 C1195,-1644 
        1192,-1629 1200,-1618 C1208,-1607 1223,-1604 1233,-1612 Z" stroke-width="2" transform="matrix(0.33333, 0, 0, 0.33333, 0, 0)"
        stroke="#036c9b"/>
</svg>