<?xml version="1.0" standalone="no"?>
<!DOCTYPE svg PUBLIC "-//W3C//DTD SVG 1.0//EN"
    "http://www.w3.org/TR/2001/REC-SVG-20010904/DTD/svg10.dtd">
<?xml-stylesheet type="text/css" href="..\cisco_network.css" ?>
<svg contentScriptType="text/ecmascript" zoomAndPan="magnify" xmlns:xlink="http://www.w3.org/1999/xlink" baseProfile="full"
    contentStyleType="text/css" enable-background="new" version="1.0" width="38.0976" preserveAspectRatio="none"
    viewBox="387.01 -579.01 43.008 67.008" height="59.3575" xmlns="http://www.w3.org/2000/svg"
    color-interpolation-filters="sRGB" x="0" y="1.5">
    <path stroke-width="2" d="M1276,-1666 C1282,-1669 1276,-1680 1258,-1671" transform="matrix(0.33333, 0, 0, 0.33333, 0, 0)"/>
    <path stroke-width="2" d="M1276,-1666 C1282,-1669 1276,-1680 1258,-1671" transform="matrix(0.33333, 0, 0, 0.33333, 0, 0)"/>
    <path d="M1262,-1668 L1262,-1708 L1208,-1708 L1208,-1668 Z" transform="matrix(0.33333, 0, 0, 0.33333, 0, 0)" stroke="none"/>
    <path fill="none" d="M1262,-1668 L1262,-1708 L1208,-1708 L1208,-1668" stroke-width="2" transform="matrix(0.33333, 0, 0, 0.33333, 0, 0)"/>
    <path stroke-width="2" d="M1262,-1708 L1262,-1668 L1268,-1679 L1268,-1714 L1262,-1708 Z M1268,-1714 L1229,-1714 
        L1208,-1708 L1262,-1708 L1268,-1714 Z M1257,-1672 L1257,-1704 L1213,-1704 L1213,-1672 L1257,-1672 Z" transform="matrix(0.33333, 0, 0, 0.33333, 0, 0)"/>
    <path d="M1253,-1663 L1256,-1658 L1262,-1664 L1261,-1667 Z" transform="matrix(0.33333, 0, 0, 0.33333, 0, 0)" stroke="none"/>
    <path fill="none" d="M1253,-1663 L1256,-1658 L1262,-1664 L1261,-1667" stroke-width="2" transform="matrix(0.33333, 0, 0, 0.33333, 0, 0)"/>
    <path stroke-width="2" d="M1253,-1663 L1262,-1668 L1208,-1668 L1220,-1663 L1253,-1663 Z M1256,-1658 L1253,-1663 
        L1220,-1663 L1217,-1658 L1256,-1658 Z" transform="matrix(0.33333, 0, 0, 0.33333, 0, 0)"/>
    <path stroke-width="2" d="M1185,-1642 C1185,-1642 1185,-1642 1185,-1642 C1185,-1580 1185,-1580 1185,-1580 
        C1185,-1580 1180,-1580 1180,-1580 C1180,-1575 1180,-1573 1180,-1568 C1180,-1568 1174,-1568 1174,-1568 
        C1174,-1586 1174,-1624 1174,-1644" transform="matrix(0.33333, 0, 0, 0.33333, 0, 0)"/>
    <path stroke-width="2" d="M1185,-1642 C1185,-1642 1185,-1642 1185,-1642 C1185,-1580 1185,-1580 1185,-1580 
        C1185,-1580 1180,-1580 1180,-1580 C1180,-1575 1180,-1573 1180,-1568 C1180,-1568 1174,-1568 1174,-1568 
        C1174,-1586 1174,-1624 1174,-1644" transform="matrix(0.33333, 0, 0, 0.33333, 0, 0)"/>
    <path stroke-width="2" d="M1286,-1646 C1286,-1654 1289,-1655 1290,-1656 C1290,-1657 1290,-1659 1290,-1660 
        C1287,-1660 1286,-1660 1282,-1660 C1196,-1661 1196,-1661 1196,-1661 C1196,-1660 1182,-1657 1182,-1657 
        C1178,-1657 1176,-1655 1172,-1655 C1172,-1654 1172,-1654 1172,-1653 C1173,-1652 1174,-1652 1175,-1651 
        C1176,-1648 1176,-1647 1176,-1645 C1176,-1643 1176,-1642 1176,-1640" transform="matrix(0.33333, 0, 0, 0.33333, 0, 0)"/>
    <path stroke-width="2" d="M1286,-1646 C1286,-1654 1289,-1655 1290,-1656 C1290,-1657 1290,-1659 1290,-1660 
        C1287,-1660 1286,-1660 1282,-1660 C1196,-1661 1196,-1661 1196,-1661 C1196,-1660 1182,-1657 1182,-1657 
        C1178,-1657 1176,-1655 1172,-1655 C1172,-1654 1172,-1654 1172,-1653 C1173,-1652 1174,-1652 1175,-1651 
        C1176,-1648 1176,-1647 1176,-1645 C1176,-1643 1176,-1642 1176,-1640" transform="matrix(0.33333, 0, 0, 0.33333, 0, 0)"/>
    <path stroke-width="2" d="M1286,-1643 C1285,-1643 1285,-1643 1285,-1643 C1285,-1582 1285,-1582 1285,-1582 
        C1285,-1582 1280,-1582 1280,-1582 C1280,-1576 1280,-1575 1281,-1570 C1280,-1570 1275,-1570 1275,-1570 
        C1275,-1588 1275,-1625 1274,-1646" transform="matrix(0.33333, 0, 0, 0.33333, 0, 0)"/>
    <path stroke-width="2" d="M1286,-1643 C1285,-1643 1285,-1643 1285,-1643 C1285,-1582 1285,-1582 1285,-1582 
        C1285,-1582 1280,-1582 1280,-1582 C1280,-1576 1280,-1575 1281,-1570 C1280,-1570 1275,-1570 1275,-1570 
        C1275,-1588 1275,-1625 1274,-1646" transform="matrix(0.33333, 0, 0, 0.33333, 0, 0)"/>
    <path d="M1284,-1638 L1284,-1650 L1175,-1651 L1175,-1640 L1284,-1638 Z M1289,-1643 L1289,-1655 L1284,-1650 
        L1284,-1638 L1289,-1643 Z M1289,-1660 L1283,-1654 L1172,-1655 L1196,-1661 L1289,-1660 Z M1275,-1657 L1275,-1659 
        L1278,-1666 L1278,-1661 L1275,-1657 Z M1275,-1659 L1278,-1666 L1271,-1666 L1267,-1659 L1275,-1659 Z M1267,-1659 
        L1275,-1659 L1275,-1657 L1267,-1657 L1267,-1659 Z M1258,-1656 L1258,-1659 L1263,-1666 L1263,-1662 L1258,-1656 Z 
        M1258,-1659 L1208,-1659 L1214,-1666 L1263,-1666 L1258,-1659 Z M1258,-1659 L1258,-1656 L1208,-1656 L1208,-1659 
        L1258,-1659 Z" transform="matrix(0.33333, 0, 0, 0.33333, 0, 0)"/>
    <path d="M1244,-1570 C1243,-1565 1242,-1564 1248,-1563 C1248,-1562 1248,-1562 1248,-1562 C1248,-1562 1249,-1564 
        1249,-1561 C1249,-1561 1250,-1557 1233,-1561 C1233,-1561 1232,-1565 1230,-1563 C1230,-1562 1230,-1562 1230,-1562 
        C1231,-1565 1233,-1565 1232,-1569 C1232,-1569 1232,-1569 1232,-1569 Z" stroke-width="2" transform="matrix(0.33333, 0, 0, 0.33333, 0, 0)"/>
    <path d="M1254,-1657 C1255,-1658 1254,-1657 1255,-1659 C1257,-1661 1258,-1662 1260,-1664 C1261,-1665 1261,-1667 
        1262,-1668 C1263,-1669 1265,-1669 1267,-1668 C1268,-1668 1268,-1668 1269,-1667 C1270,-1667 1271,-1666 1270,-1665 
        C1271,-1665 1271,-1665 1271,-1664 C1271,-1664 1271,-1664 1271,-1664 C1272,-1662 1274,-1661 1273,-1660 
        C1272,-1660 1271,-1661 1270,-1660 C1269,-1660 1269,-1660 1268,-1659 C1268,-1658 1267,-1658 1266,-1658 
        C1265,-1658 1264,-1657 1263,-1657 C1263,-1657 1262,-1656 1261,-1656 C1259,-1655 1260,-1655 1258,-1654 
        C1257,-1654 1255,-1656 1254,-1657 Z" stroke-width="2" transform="matrix(0.33333, 0, 0, 0.33333, 0, 0)"/>
    <path d="M1248,-1562 C1251,-1562 1255,-1563 1254,-1561 C1254,-1557 1254,-1557 1252,-1555 C1251,-1554 1251,-1555 
        1250,-1554 C1245,-1553 1237,-1558 1236,-1554 C1236,-1554 1234,-1551 1234,-1550 C1233,-1550 1232,-1550 1232,-1550 
        C1229,-1556 1228,-1559 1229,-1562 C1231,-1564 1233,-1561 1233,-1561 C1252,-1557 1249,-1561 1249,-1561 
        C1249,-1564 1248,-1562 1248,-1562 Z" stroke-width="2" transform="matrix(0.33333, 0, 0, 0.33333, 0, 0)"/>
    <path d="M1185,-1639 C1182,-1627 1182,-1616 1185,-1605 C1186,-1604 1187,-1604 1188,-1603 C1195,-1604 1195,-1604 
        1203,-1603 C1212,-1603 1212,-1603 1212,-1603 C1213,-1602 1214,-1603 1214,-1602 C1218,-1597 1239,-1605 1240,-1599 
        C1240,-1601 1231,-1597 1231,-1593 C1232,-1586 1231,-1572 1230,-1566 C1232,-1565 1228,-1565 1232,-1563 
        C1237,-1562 1244,-1565 1244,-1565 C1246,-1566 1246,-1564 1248,-1565 C1249,-1583 1248,-1595 1250,-1613 
        C1250,-1616 1249,-1616 1249,-1618 C1249,-1620 1247,-1620 1246,-1622 C1243,-1623 1238,-1623 1235,-1623 
        C1225,-1625 1225,-1625 1225,-1625 C1226,-1628 1226,-1641 1226,-1643 C1228,-1644 1228,-1653 1229,-1654 
        C1230,-1661 1230,-1661 1230,-1661 C1230,-1660 1229,-1658 1232,-1656 C1234,-1656 1233,-1655 1235,-1655 
        C1235,-1655 1235,-1655 1235,-1654 C1236,-1654 1236,-1654 1237,-1654 C1238,-1652 1241,-1653 1242,-1651 
        C1245,-1651 1247,-1649 1249,-1650 C1250,-1650 1251,-1651 1252,-1650 C1255,-1652 1257,-1651 1259,-1653 
        C1259,-1654 1261,-1654 1262,-1654 C1263,-1656 1263,-1654 1263,-1656 C1264,-1656 1265,-1656 1266,-1656 
        C1266,-1656 1268,-1660 1268,-1661 C1268,-1661 1266,-1667 1260,-1666 C1254,-1667 1254,-1667 1254,-1667 
        C1250,-1667 1246,-1667 1243,-1671 C1242,-1673 1242,-1673 1242,-1673 C1242,-1676 1242,-1676 1242,-1676 
        C1243,-1678 1241,-1684 1240,-1686 C1237,-1689 1239,-1687 1235,-1690 C1187,-1694 1187,-1694 1187,-1694 
        C1187,-1694 1186,-1694 1186,-1694 C1182,-1694 1179,-1695 1175,-1693 C1175,-1691 1173,-1687 1173,-1685 
        C1174,-1682 1168,-1682 1170,-1679 C1171,-1678 1170,-1677 1171,-1676 C1170,-1671 1171,-1675 1170,-1671 
        C1169,-1671 1169,-1671 1169,-1671 C1164,-1657 1162,-1643 1162,-1643 C1162,-1642 1163,-1642 1163,-1642 
        C1166,-1638 1183,-1633 1183,-1633 C1183,-1633 1183,-1633 1183,-1633" stroke-width="2" transform="matrix(0.33333, 0, 0, 0.33333, 0, 0)"/>
    <path d="M1185,-1639 C1182,-1627 1182,-1616 1185,-1605 C1186,-1604 1187,-1604 1188,-1603 C1195,-1604 1195,-1604 
        1203,-1603 C1212,-1603 1212,-1603 1212,-1603 C1213,-1602 1214,-1603 1214,-1602 C1218,-1597 1239,-1605 1240,-1599 
        C1240,-1601 1231,-1597 1231,-1593 C1232,-1586 1231,-1572 1230,-1566 C1232,-1565 1228,-1565 1232,-1563 
        C1237,-1562 1244,-1565 1244,-1565 C1246,-1566 1246,-1564 1248,-1565 C1249,-1583 1248,-1595 1250,-1613 
        C1250,-1616 1249,-1616 1249,-1618 C1249,-1620 1247,-1620 1246,-1622 C1243,-1623 1238,-1623 1235,-1623 
        C1225,-1625 1225,-1625 1225,-1625 C1226,-1628 1226,-1641 1226,-1643 C1228,-1644 1228,-1653 1229,-1654 
        C1230,-1661 1230,-1661 1230,-1661 C1230,-1660 1229,-1658 1232,-1656 C1234,-1656 1233,-1655 1235,-1655 
        C1235,-1655 1235,-1655 1235,-1654 C1236,-1654 1236,-1654 1237,-1654 C1238,-1652 1241,-1653 1242,-1651 
        C1245,-1651 1247,-1649 1249,-1650 C1250,-1650 1251,-1651 1252,-1650 C1255,-1652 1257,-1651 1259,-1653 
        C1259,-1654 1261,-1654 1262,-1654 C1263,-1656 1263,-1654 1263,-1656 C1264,-1656 1265,-1656 1266,-1656 
        C1266,-1656 1268,-1660 1268,-1661 C1268,-1661 1266,-1667 1260,-1666 C1254,-1667 1254,-1667 1254,-1667 
        C1250,-1667 1246,-1667 1243,-1671 C1242,-1673 1242,-1673 1242,-1673 C1242,-1676 1242,-1676 1242,-1676 
        C1243,-1678 1241,-1684 1240,-1686 C1237,-1689 1239,-1687 1235,-1690 C1187,-1694 1187,-1694 1187,-1694 
        C1187,-1694 1186,-1694 1186,-1694 C1182,-1694 1179,-1695 1175,-1693 C1175,-1691 1173,-1687 1173,-1685 
        C1174,-1682 1168,-1682 1170,-1679 C1171,-1678 1170,-1677 1171,-1676 C1170,-1671 1171,-1675 1170,-1671 
        C1169,-1671 1169,-1671 1169,-1671 C1164,-1657 1162,-1643 1162,-1643 C1162,-1642 1163,-1642 1163,-1642 
        C1166,-1638 1183,-1633 1183,-1633 C1183,-1633 1183,-1633 1183,-1633" stroke-width="2" transform="matrix(0.33333, 0, 0, 0.33333, 0, 0)"/>
    <path d="M1204,-1567 C1202,-1565 1201,-1564 1200,-1562 C1203,-1565 1205,-1562 1205,-1562 C1211,-1559 1214,-1558 
        1214,-1558 C1222,-1559 1219,-1563 1219,-1563 C1215,-1565 1214,-1566 1214,-1567" transform="matrix(0.33333, 0, 0, 0.33333, 0, 0)"
        stroke="none"/>
    <path d="M1201,-1589 C1198,-1571 1198,-1571 1198,-1571 C1197,-1566 1197,-1566 1197,-1566 C1211,-1564 1211,-1564 
        1211,-1564 C1212,-1564 1212,-1564 1212,-1564 C1212,-1565 1215,-1563 1217,-1563 C1219,-1565 1217,-1564 1219,-1565 
        C1219,-1565 1218,-1572 1218,-1589" stroke-width="2" transform="matrix(0.33333, 0, 0, 0.33333, 0, 0)"/>
    <path d="M1201,-1589 C1198,-1571 1198,-1571 1198,-1571 C1197,-1566 1197,-1566 1197,-1566 C1211,-1564 1211,-1564 
        1211,-1564 C1212,-1564 1212,-1564 1212,-1564 C1212,-1565 1215,-1563 1217,-1563 C1219,-1565 1217,-1564 1219,-1565 
        C1219,-1565 1218,-1572 1218,-1589" stroke-width="2" transform="matrix(0.33333, 0, 0, 0.33333, 0, 0)"/>
    <path d="M1207,-1548 L1209,-1562 Z" stroke="none" transform="matrix(0.33333, 0, 0, 0.33333, 0, 0)"/>
    <path fill="none" d="M1207,-1548 L1209,-1562" transform="matrix(0.33333, 0, 0, 0.33333, 0, 0)" stroke="none"/>
    <path d="M1203,-1600 C1204,-1600 1205,-1601 1205,-1602 C1201,-1624 1201,-1624 1201,-1624 C1201,-1625 1200,-1626 
        1199,-1625 C1194,-1624 1194,-1624 1194,-1624 C1193,-1624 1192,-1623 1192,-1622 C1196,-1601 1196,-1601 1196,-1601 
        C1196,-1600 1197,-1599 1198,-1599 Z" stroke-width="2" transform="matrix(0.33333, 0, 0, 0.33333, 0, 0)"/>
    <path stroke-width="2" d="M1204,-1568 C1200,-1567 1196,-1567 1196,-1565 C1195,-1563 1197,-1562 1199,-1562"
        transform="matrix(0.33333, 0, 0, 0.33333, 0, 0)"/>
    <path stroke-width="2" d="M1204,-1568 C1200,-1567 1196,-1567 1196,-1565 C1195,-1563 1197,-1562 1199,-1562"
        transform="matrix(0.33333, 0, 0, 0.33333, 0, 0)"/>
    <path stroke-width="2" d="M1243,-1600 C1244,-1601 1244,-1602 1244,-1603 C1244,-1614 1244,-1614 1244,-1614 
        C1244,-1615 1243,-1616 1242,-1616 C1229,-1604 1229,-1604 1229,-1604 C1228,-1604 1227,-1603 1227,-1602 
        C1227,-1589 1227,-1589 1227,-1589 C1227,-1588 1228,-1587 1229,-1587 Z" transform="matrix(0.33333, 0, 0, 0.33333, 0, 0)"/>
    <path stroke-width="2" d="M1178,-1649 C1178,-1652 1181,-1659 1181,-1661 C1181,-1658 1180,-1647 1181,-1646 Z"
        transform="matrix(0.33333, 0, 0, 0.33333, 0, 0)"/>
    <path stroke-width="2" d="M1176,-1625 C1176,-1625 1176,-1625 1176,-1625 C1177,-1633 1172,-1645 1181,-1650 
        C1218,-1650 1189,-1649 1226,-1649 C1228,-1647 1228,-1647 1228,-1647 C1233,-1648 1232,-1624 1232,-1624 
        C1229,-1622 1229,-1622 1229,-1622" transform="matrix(0.33333, 0, 0, 0.33333, 0, 0)"/>
    <path stroke-width="2" d="M1176,-1625 C1176,-1625 1176,-1625 1176,-1625 C1177,-1633 1172,-1645 1181,-1650 
        C1218,-1650 1189,-1649 1226,-1649 C1228,-1647 1228,-1647 1228,-1647 C1233,-1648 1232,-1624 1232,-1624 
        C1229,-1622 1229,-1622 1229,-1622" transform="matrix(0.33333, 0, 0, 0.33333, 0, 0)"/>
    <path stroke-width="2" d="M1172,-1623 C1173,-1630 1168,-1645 1177,-1650 C1214,-1650 1188,-1650 1225,-1650 
        C1225,-1650 1225,-1650 1225,-1650 C1230,-1650 1228,-1622 1228,-1622 Z" transform="matrix(0.33333, 0, 0, 0.33333, 0, 0)"/>
    <path stroke-width="2" d="M1227,-1714 C1227,-1714 1227,-1714 1228,-1713 C1228,-1712 1229,-1710 1229,-1709 
        C1228,-1708 1227,-1707 1227,-1706 C1226,-1705 1224,-1706 1223,-1705 C1221,-1704 1221,-1702 1219,-1702 
        C1217,-1701 1216,-1701 1214,-1701 C1213,-1700 1212,-1699 1211,-1698 C1210,-1697 1208,-1697 1206,-1697 
        C1205,-1698 1204,-1698 1203,-1699 C1201,-1701 1199,-1703 1197,-1704 C1196,-1704 1194,-1704 1192,-1705 
        C1191,-1705 1191,-1706 1189,-1707 C1189,-1708 1188,-1710 1188,-1712 C1188,-1712 1187,-1712 1187,-1713 
        C1193,-1715 1190,-1719 1191,-1723 C1194,-1725 1191,-1726 1192,-1729 C1195,-1737 1205,-1736 1212,-1737 
        C1214,-1737 1216,-1737 1217,-1735 C1217,-1734 1219,-1734 1219,-1734 C1220,-1732 1220,-1733 1222,-1731 
        C1223,-1729 1223,-1728 1223,-1727 C1225,-1725 1227,-1724 1228,-1720 C1228,-1719 1227,-1717 1226,-1717 
        C1227,-1715 1228,-1717 1227,-1714" transform="matrix(0.33333, 0, 0, 0.33333, 0, 0)"/>
    <path d="M1227,-1714 C1227,-1714 1227,-1714 1228,-1713 C1228,-1712 1229,-1710 1229,-1709 C1228,-1708 1227,-1707 
        1227,-1706 C1226,-1705 1224,-1706 1223,-1705 C1221,-1704 1221,-1702 1219,-1702 C1217,-1701 1216,-1701 1214,-1701 
        C1213,-1700 1212,-1699 1211,-1698 C1210,-1697 1208,-1697 1206,-1697 C1205,-1698 1204,-1698 1203,-1699 
        C1201,-1701 1199,-1703 1197,-1704 C1196,-1704 1194,-1704 1192,-1705 C1191,-1705 1191,-1706 1189,-1707 
        C1189,-1708 1188,-1710 1188,-1712 C1188,-1712 1187,-1712 1187,-1713 C1193,-1715 1190,-1719 1191,-1723 
        C1194,-1725 1191,-1726 1192,-1729 C1195,-1737 1205,-1736 1212,-1737 C1214,-1737 1216,-1737 1217,-1735 
        C1217,-1734 1219,-1734 1219,-1734 C1220,-1732 1220,-1733 1222,-1731 C1223,-1729 1223,-1728 1223,-1727 
        C1225,-1725 1227,-1724 1228,-1720 C1228,-1719 1227,-1717 1226,-1717 C1227,-1715 1228,-1717 1227,-1714"
        stroke-width="2" transform="matrix(0.33333, 0, 0, 0.33333, 0, 0)"/>
    <path d="M1229,-1695 C1229,-1695 1229,-1694 1229,-1694 C1227,-1694 1227,-1690 1226,-1690 C1225,-1690 1224,-1691 
        1223,-1691 C1223,-1691 1222,-1691 1221,-1690 C1220,-1689 1219,-1689 1218,-1689 C1213,-1690 1209,-1687 1204,-1686 
        C1203,-1686 1201,-1686 1200,-1687 C1198,-1688 1198,-1691 1196,-1692 C1193,-1693 1190,-1693 1187,-1693 
        C1186,-1693 1186,-1694 1185,-1694 C1185,-1695 1185,-1695 1185,-1696 C1185,-1696 1184,-1697 1185,-1697 
        C1185,-1697 1185,-1698 1184,-1699 C1183,-1701 1185,-1710 1187,-1712 C1186,-1712 1188,-1713 1188,-1712 
        C1188,-1711 1188,-1709 1189,-1707 C1190,-1707 1191,-1706 1192,-1705 C1194,-1705 1195,-1705 1197,-1705 
        C1199,-1703 1201,-1701 1203,-1699 C1204,-1699 1205,-1698 1206,-1698 C1207,-1698 1209,-1697 1211,-1699 
        C1212,-1700 1213,-1700 1214,-1701 C1215,-1702 1217,-1702 1219,-1702 C1220,-1703 1221,-1705 1222,-1706 
        C1224,-1706 1225,-1706 1227,-1707 C1227,-1708 1228,-1709 1228,-1709 C1228,-1711 1227,-1712 1227,-1714 
        C1227,-1714 1227,-1715 1226,-1715 C1227,-1715 1227,-1715 1227,-1715 C1234,-1709 1226,-1703 1230,-1697 Z"
        stroke-width="2" transform="matrix(0.33333, 0, 0, 0.33333, 0, 0)"/>
    <path d="M1219,-1555 C1218,-1555 1216,-1554 1214,-1554 C1210,-1555 1215,-1555 1208,-1556 C1206,-1554 1206,-1551 
        1206,-1549 C1205,-1548 1205,-1549 1204,-1549 C1201,-1555 1199,-1558 1200,-1562 C1203,-1565 1205,-1562 1205,-1562 
        C1211,-1559 1214,-1558 1214,-1558 C1222,-1560 1219,-1563 1219,-1563 C1223,-1563 1223,-1563 1223,-1563 
        C1225,-1562 1219,-1555 1219,-1555 Z" transform="matrix(0.33333, 0, 0, 0.33333, 0, 0)" stroke="none"/>
    <path d="M1201,-1588 C1201,-1572 1201,-1585 1201,-1569 C1201,-1569 1201,-1568 1200,-1568 C1196,-1567 1192,-1568 
        1192,-1565 C1191,-1563 1193,-1562 1195,-1562 C1191,-1559 1187,-1555 1183,-1552 C1180,-1549 1182,-1546 1182,-1542 
        C1183,-1541 1184,-1542 1185,-1542 C1185,-1545 1186,-1547 1186,-1549 C1191,-1554 1195,-1558 1200,-1562 
        C1201,-1562 1201,-1562 1201,-1562 C1200,-1555 1197,-1544 1198,-1538 C1198,-1537 1198,-1536 1199,-1536 
        C1200,-1536 1202,-1535 1202,-1536 C1203,-1540 1201,-1544 1204,-1549 C1203,-1549 1203,-1549 1204,-1549 
        C1204,-1547 1204,-1545 1204,-1543 C1205,-1543 1207,-1542 1208,-1544 C1208,-1548 1207,-1553 1207,-1559 
        C1207,-1560 1206,-1560 1207,-1561 C1212,-1558 1216,-1553 1221,-1549 C1223,-1548 1222,-1541 1222,-1541 
        C1225,-1541 1225,-1541 1225,-1541 C1226,-1541 1226,-1541 1226,-1541 C1226,-1541 1227,-1548 1224,-1552 
        C1212,-1562 1212,-1562 1212,-1562 C1212,-1563 1214,-1563 1215,-1563 C1217,-1563 1217,-1565 1216,-1567 
        C1214,-1567 1213,-1567 1211,-1567 C1209,-1567 1209,-1568 1209,-1571 C1209,-1586 1209,-1572 1209,-1588"
        transform="matrix(0.33333, 0, 0, 0.33333, 0, 0)"/>
    <path d="M1201,-1588 C1201,-1572 1201,-1585 1201,-1569 C1201,-1569 1201,-1568 1200,-1568 C1196,-1567 1192,-1568 
        1192,-1565 C1191,-1563 1193,-1562 1195,-1562 C1191,-1559 1187,-1555 1183,-1552 C1180,-1549 1182,-1546 1182,-1542 
        C1183,-1541 1184,-1542 1185,-1542 C1185,-1545 1186,-1547 1186,-1549 C1191,-1554 1195,-1558 1200,-1562 
        C1201,-1562 1201,-1562 1201,-1562 C1200,-1555 1197,-1544 1198,-1538 C1198,-1537 1198,-1536 1199,-1536 
        C1200,-1536 1202,-1535 1202,-1536 C1203,-1540 1201,-1544 1204,-1549 C1203,-1549 1203,-1549 1204,-1549 
        C1204,-1547 1204,-1545 1204,-1543 C1205,-1543 1207,-1542 1208,-1544 C1208,-1548 1207,-1553 1207,-1559 
        C1207,-1560 1206,-1560 1207,-1561 C1212,-1558 1216,-1553 1221,-1549 C1223,-1548 1222,-1541 1222,-1541 
        C1225,-1541 1225,-1541 1225,-1541 C1226,-1541 1226,-1541 1226,-1541 C1226,-1541 1227,-1548 1224,-1552 
        C1212,-1562 1212,-1562 1212,-1562 C1212,-1563 1214,-1563 1215,-1563 C1217,-1563 1217,-1565 1216,-1567 
        C1214,-1567 1213,-1567 1211,-1567 C1209,-1567 1209,-1568 1209,-1571 C1209,-1586 1209,-1572 1209,-1588"
        transform="matrix(0.33333, 0, 0, 0.33333, 0, 0)"/>
    <path d="M1215,-1567 C1216,-1567 1216,-1566 1216,-1565 C1216,-1564 1216,-1564 1216,-1564 C1216,-1563 1216,-1563 
        1215,-1563 C1214,-1563 1214,-1563 1214,-1563 C1214,-1563 1204,-1560 1194,-1563 C1193,-1563 1192,-1563 1192,-1564 
        C1192,-1565 1192,-1565 1192,-1565 C1192,-1566 1193,-1567 1194,-1567 C1203,-1564 1215,-1567 1215,-1567 Z"
        stroke-width="2" transform="matrix(0.33333, 0, 0, 0.33333, 0, 0)"/>
    <path d="M1196,-1630 C1199,-1630 1200,-1632 1200,-1635 C1200,-1637 1199,-1639 1196,-1639 C1194,-1639 1192,-1637 
        1192,-1635 C1192,-1632 1194,-1630 1196,-1630 Z" stroke-width="2" transform="matrix(0.33333, 0, 0, 0.33333, 0, 0)"/>
    <path d="M1195,-1630 C1197,-1630 1199,-1632 1199,-1635 C1199,-1637 1197,-1639 1195,-1639 C1192,-1639 1191,-1637 
        1191,-1635 C1191,-1632 1192,-1630 1195,-1630 Z" stroke-width="2" transform="matrix(0.33333, 0, 0, 0.33333, 0, 0)"/>
    <path d="M1196,-1603 L1205,-1603 Z" stroke="none" transform="matrix(0.33333, 0, 0, 0.33333, 0, 0)"/>
    <path fill="none" d="M1196,-1603 L1205,-1603" stroke-width="2" transform="matrix(0.33333, 0, 0, 0.33333, 0, 0)"/>
    <path d="M1228,-1587 C1229,-1587 1230,-1588 1229,-1589 C1229,-1602 1229,-1602 1229,-1602 C1230,-1603 1229,-1604 
        1228,-1604 C1187,-1604 1187,-1604 1187,-1604 C1185,-1605 1185,-1605 1185,-1605 C1184,-1605 1173,-1604 1173,-1603 
        C1173,-1589 1173,-1589 1173,-1589 C1173,-1588 1174,-1587 1175,-1587 Z" stroke-width="2" transform="matrix(0.33333, 0, 0, 0.33333, 0, 0)"/>
    <path d="M1176,-1588 C1176,-1588 1175,-1588 1175,-1589 C1175,-1601 1175,-1601 1175,-1601 C1175,-1602 1176,-1603 
        1176,-1603 C1225,-1603 1225,-1603 1225,-1603 C1226,-1603 1226,-1602 1226,-1601 C1226,-1589 1226,-1589 1226,-1589 
        C1226,-1588 1226,-1588 1225,-1588 Z" stroke-width="2" transform="matrix(0.33333, 0, 0, 0.33333, 0, 0)"/>
    <path d="M1242,-1601 C1243,-1602 1243,-1604 1243,-1602 C1243,-1613 1243,-1613 1243,-1613 C1243,-1614 1242,-1614 
        1241,-1614 C1230,-1603 1230,-1603 1230,-1603 C1229,-1603 1229,-1602 1229,-1601 C1229,-1591 1229,-1591 1229,-1591 
        C1229,-1590 1229,-1589 1230,-1589 Z" stroke-width="2" transform="matrix(0.33333, 0, 0, 0.33333, 0, 0)"/>
    <path d="M1175,-1624 C1176,-1631 1171,-1644 1179,-1649 C1213,-1649 1189,-1649 1222,-1649 C1223,-1648 1223,-1648 
        1223,-1648 C1227,-1649 1226,-1624 1226,-1624 Z" stroke-width="2" transform="matrix(0.33333, 0, 0, 0.33333, 0, 0)"/>
    <path d="M1186,-1606 L1190,-1604 L1175,-1604 L1183,-1609 L1186,-1606 Z" stroke-width="2" transform="matrix(0.33333, 0, 0, 0.33333, 0, 0)"/>
</svg>