<?xml version="1.0" standalone="no"?>
<!DOCTYPE svg PUBLIC "-//W3C//DTD SVG 1.0//EN"
    "http://www.w3.org/TR/2001/REC-SVG-20010904/DTD/svg10.dtd">
<?xml-stylesheet type="text/css" href="..\cisco_network.css" ?>
<svg contentScriptType="text/ecmascript" zoomAndPan="magnify" xmlns:xlink="http://www.w3.org/1999/xlink" baseProfile="full"
    contentStyleType="text/css" enable-background="new" version="1.0" width="50.485" preserveAspectRatio="none" viewBox="379.01 -560 56.992 40.992"
    height="36.3118" xmlns="http://www.w3.org/2000/svg" color-interpolation-filters="sRGB" x="0" y="1.5">
    <path d="M1173,-1674 L1139,-1674 L1139,-1576 L1171,-1576 Z" stroke="none" transform="matrix(0.33333, 0, 0, 0.33333, 0, 0)"/>
    <path fill="none" d="M1173,-1674 L1139,-1674 L1139,-1576 L1171,-1576" stroke-width="2" transform="matrix(0.33333, 0, 0, 0.33333, 0, 0)"/>
    <path d="M1171,-1674 L1171,-1576 L1174,-1578 L1174,-1674 L1171,-1674 Z M1181,-1674 L1181,-1577 L1196,-1590 
        L1196,-1680 L1181,-1674 Z" stroke-width="2" transform="matrix(0.33333, 0, 0, 0.33333, 0, 0)"/>
    <path fill="none" d="M1168,-1668 L1141,-1668" stroke-width="2" transform="matrix(0.33333, 0, 0, 0.33333, 0, 0)"/>
    <path fill="none" d="M1166,-1658 L1143,-1658" stroke-width="2" transform="matrix(0.33333, 0, 0, 0.33333, 0, 0)"/>
    <path d="M1181,-1674 L1174,-1674 L1174,-1577 L1181,-1577 Z" stroke="none" transform="matrix(0.33333, 0, 0, 0.33333, 0, 0)"/>
    <path fill="none" d="M1181,-1674 L1174,-1674 L1174,-1577 L1181,-1577" stroke-width="2" transform="matrix(0.33333, 0, 0, 0.33333, 0, 0)"/>
    <path fill="none" d="M1137,-1663 L1172,-1663" stroke-width="2" transform="matrix(0.33333, 0, 0, 0.33333, 0, 0)"/>
    <path fill="none" d="M1137,-1653 L1172,-1653" stroke-width="2" transform="matrix(0.33333, 0, 0, 0.33333, 0, 0)"/>
    <path d="M1178,-1587 C1178,-1587 1179,-1588 1179,-1589 C1179,-1589 1178,-1590 1178,-1590 C1177,-1590 1176,-1589 
        1176,-1589 C1176,-1588 1177,-1587 1178,-1587 Z" stroke-width="2" transform="matrix(0.33333, 0, 0, 0.33333, 0, 0)"/>
    <path d="M1178,-1580 C1178,-1580 1179,-1580 1179,-1581 C1179,-1581 1178,-1582 1178,-1582 C1177,-1582 1176,-1581 
        1176,-1581 C1176,-1580 1177,-1580 1178,-1580 Z" stroke-width="2" transform="matrix(0.33333, 0, 0, 0.33333, 0, 0)"/>
    <path d="M1182,-1674 L1197,-1680 L1162,-1680 L1136,-1673 L1171,-1673 L1173,-1674 L1182,-1674 Z" stroke-width="2"
        transform="matrix(0.33333, 0, 0, 0.33333, 0, 0)"/>
    <path fill="none" d="M1284,-1599 L1192,-1599" stroke-width="2" transform="matrix(0.33333, 0, 0, 0.33333, 0, 0)"/>
    <path stroke-width="2.54" d="M1283,-1599 L1283,-1668 L1192,-1668 L1192,-1599 Z" transform="matrix(0.33333, 0, 0, 0.33333, 0, 0)"
        stroke="none"/>
    <path fill="none" d="M1283,-1599 L1283,-1668 L1192,-1668 L1192,-1599" stroke-width="2" transform="matrix(0.33333, 0, 0, 0.33333, 0, 0)"/>
    <path d="M1283,-1599 L1294,-1618 L1294,-1679 L1227,-1679 L1192,-1668 L1283,-1668 L1283,-1599 Z" stroke-width="2"
        transform="matrix(0.33333, 0, 0, 0.33333, 0, 0)"/>
    <path d="M1275,-1607 L1275,-1660 L1200,-1660 L1200,-1607 L1275,-1607 Z" stroke-width="2" transform="matrix(0.33333, 0, 0, 0.33333, 0, 0)"/>
    <path fill="none" d="M1283,-1668 L1294,-1679" stroke-width="2" transform="matrix(0.33333, 0, 0, 0.33333, 0, 0)"/>
    <path d="M1278,-1560 L1278,-1570 L1172,-1570 L1190,-1582 L1290,-1582 L1290,-1573 L1278,-1560 Z M1278,-1570 
        L1278,-1560 L1172,-1560 L1172,-1570 L1278,-1570 Z" stroke-width="2" transform="matrix(0.33333, 0, 0, 0.33333, 0, 0)"/>
    <path fill="none" stroke-width="2" d="M1278,-1570 L1290,-1582" transform="matrix(0.33333, 0, 0, 0.33333, 0, 0)"/>
    <path d="M1284,-1565 L1283,-1560 L1300,-1560 L1299,-1565 Z" stroke="none" transform="matrix(0.33333, 0, 0, 0.33333, 0, 0)"/>
    <path fill="none" stroke-width="2" d="M1284,-1565 L1283,-1560 L1300,-1560 L1299,-1565" transform="matrix(0.33333, 0, 0, 0.33333, 0, 0)"/>
    <path stroke-width="2" d="M1299,-1565 L1299,-1571 L1291,-1571 L1284,-1565 L1299,-1565 Z" transform="matrix(0.33333, 0, 0, 0.33333, 0, 0)"/>
    <path d="M1269,-1591 L1273,-1582 L1283,-1594 L1282,-1598 Z" stroke-width="2.54" transform="matrix(0.33333, 0, 0, 0.33333, 0, 0)"
        stroke="none"/>
    <path fill="none" stroke-width="2" d="M1269,-1591 L1273,-1582 L1283,-1594 L1282,-1598" transform="matrix(0.33333, 0, 0, 0.33333, 0, 0)"/>
    <path stroke-width="2" d="M1269,-1591 L1283,-1599 L1192,-1599 L1212,-1591 L1269,-1591 Z M1273,-1582 L1269,-1591 
        L1212,-1591 L1207,-1582 L1273,-1582 Z" transform="matrix(0.33333, 0, 0, 0.33333, 0, 0)"/>
    <path fill="none" d="M1295,-1571 C1297,-1573 1288,-1575 1298,-1577 C1305,-1578 1324,-1589 1279,-1590" stroke-width="2"
        transform="matrix(0.33333, 0, 0, 0.33333, 0, 0)" stroke="#0b719f"/>
</svg>