<?xml version="1.0" standalone="no"?>
<!DOCTYPE svg PUBLIC "-//W3C//DTD SVG 1.0//EN"
    "http://www.w3.org/TR/2001/REC-SVG-20010904/DTD/svg10.dtd">
<?xml-stylesheet type="text/css" href="..\cisco_network.css" ?>
<svg contentScriptType="text/ecmascript" zoomAndPan="magnify" xmlns:xlink="http://www.w3.org/1999/xlink" baseProfile="full"
    contentStyleType="text/css" enable-background="new" version="1.0" width="58.4787" preserveAspectRatio="none"
    viewBox="376.99 -590.02 66.016 97.024" height="85.9465" xmlns="http://www.w3.org/2000/svg"
    color-interpolation-filters="sRGB" x="0" y="1.5">
    <path d="M1250,-1512 C1245,-1502 1245,-1502 1245,-1502 C1245,-1502 1245,-1498 1251,-1500 C1256,-1502 1256,-1502 
        1256,-1502 C1261,-1508 1261,-1508 1261,-1508 C1262,-1509 1262,-1509 1262,-1509 C1262,-1511 1262,-1512 1262,-1514 
        C1263,-1517 1262,-1521 1263,-1524 C1265,-1531 1268,-1538 1271,-1545 C1273,-1551 1270,-1557 1272,-1563 
        C1256,-1568 1256,-1568 1256,-1568 C1255,-1551 1255,-1535 1254,-1518 C1253,-1516 1251,-1514 1249,-1512 Z"
        transform="matrix(0.33333, 0, 0, 0.33333, 0, 0)" stroke="none"/>
    <path d="M1292,-1513 C1292,-1513 1292,-1513 1292,-1513 C1292,-1511 1292,-1511 1292,-1511 C1296,-1506 1296,-1506 
        1296,-1506 C1304,-1500 1304,-1500 1304,-1500 C1308,-1500 1308,-1500 1308,-1500 C1310,-1503 1311,-1504 1311,-1504 
        C1308,-1507 1305,-1509 1303,-1513 C1302,-1515 1301,-1518 1301,-1520 C1302,-1536 1303,-1552 1305,-1567 
        C1289,-1563 1289,-1563 1289,-1563 C1287,-1563 1288,-1561 1288,-1560 C1287,-1556 1287,-1553 1288,-1549 
        C1288,-1546 1290,-1543 1290,-1539 C1292,-1530 1293,-1522 1292,-1513 Z" transform="matrix(0.33333, 0, 0, 0.33333, 0, 0)"
        stroke="none"/>
    <path d="M1175,-1760 C1175,-1759 1175,-1758 1176,-1757 C1176,-1754 1175,-1751 1174,-1748 C1173,-1747 1173,-1745 
        1172,-1745 C1171,-1746 1170,-1748 1169,-1748 C1168,-1749 1166,-1747 1165,-1746 C1168,-1743 1171,-1739 1169,-1735 
        C1166,-1740 1163,-1744 1160,-1750 C1159,-1753 1159,-1757 1161,-1759 C1164,-1763 1168,-1766 1172,-1767 
        C1178,-1769 1184,-1770 1191,-1770 C1185,-1767 1180,-1764 1174,-1761 C1174,-1760 1174,-1760 1175,-1760 Z"
        transform="matrix(0.33333, 0, 0, 0.33333, 0, 0)" stroke="none"/>
    <path d="M1196,-1759 C1194,-1756 1193,-1754 1191,-1751 C1192,-1752 1191,-1752 1191,-1752 C1190,-1752 1189,-1752 
        1189,-1752 C1188,-1753 1188,-1754 1189,-1754 C1189,-1755 1191,-1754 1191,-1754 C1194,-1759 1188,-1762 1187,-1766 
        C1191,-1766 1194,-1763 1198,-1763 C1197,-1762 1196,-1760 1196,-1759 Z" transform="matrix(0.33333, 0, 0, 0.33333, 0, 0)"
        stroke="none"/>
    <path d="M1181,-1752 C1180,-1752 1179,-1751 1179,-1752 C1178,-1756 1183,-1754 1185,-1755 C1185,-1752 1183,-1751 
        1181,-1752 Z" transform="matrix(0.33333, 0, 0, 0.33333, 0, 0)" stroke="none"/>
    <path d="M1187,-1745 C1186,-1745 1186,-1745 1185,-1745 C1186,-1746 1187,-1747 1188,-1748 C1188,-1747 1188,-1746 
        1189,-1745 C1188,-1745 1188,-1745 1187,-1745 Z" transform="matrix(0.33333, 0, 0, 0.33333, 0, 0)" stroke="none"/>
    <path d="M1187,-1740 C1185,-1740 1183,-1740 1181,-1740 C1182,-1741 1183,-1741 1183,-1741 C1185,-1742 1188,-1743 
        1189,-1740 C1188,-1740 1187,-1740 1187,-1740 Z" transform="matrix(0.33333, 0, 0, 0.33333, 0, 0)" stroke="none"/>
    <path d="M1186,-1739 C1188,-1738 1186,-1738 1186,-1738 C1185,-1737 1184,-1738 1184,-1739 C1185,-1739 1185,-1739 
        1186,-1739 Z" transform="matrix(0.33333, 0, 0, 0.33333, 0, 0)" stroke="none"/>
    <path d="M1201,-1493 C1207,-1489 1212,-1486 1217,-1482 C1216,-1481 1216,-1480 1216,-1480 C1212,-1480 1207,-1480 
        1203,-1480 C1199,-1481 1196,-1483 1192,-1485 C1192,-1485 1191,-1483 1191,-1483 C1188,-1482 1184,-1483 1182,-1485 
        C1180,-1486 1182,-1490 1181,-1492 Z" transform="matrix(0.33333, 0, 0, 0.33333, 0, 0)" stroke="none"/>
    <path d="M1181,-1492 C1181,-1492 1180,-1492 1180,-1492 C1179,-1528 1180,-1564 1179,-1600 C1173,-1565 1168,-1531 
        1161,-1494 C1161,-1494 1159,-1494 1159,-1493 C1141,-1493 1141,-1493 1141,-1493 C1142,-1495 1141,-1497 1141,-1499 
        C1143,-1518 1146,-1537 1147,-1556 C1147,-1575 1148,-1594 1149,-1614 C1149,-1617 1151,-1621 1150,-1624 
        C1150,-1625 1148,-1626 1147,-1626 C1148,-1629 1149,-1633 1150,-1636 C1144,-1642 1138,-1648 1133,-1655 
        C1131,-1657 1130,-1661 1130,-1664 C1131,-1680 1135,-1697 1135,-1714 C1143,-1719 1153,-1720 1162,-1724 
        C1165,-1725 1168,-1727 1169,-1731 C1174,-1728 1177,-1724 1182,-1721 C1183,-1721 1183,-1722 1183,-1723 
        C1184,-1723 1184,-1723 1184,-1723 C1184,-1724 1184,-1725 1185,-1726 C1185,-1726 1185,-1726 1185,-1727 
        C1186,-1727 1186,-1729 1187,-1729 C1187,-1728 1189,-1727 1190,-1726 C1197,-1723 1204,-1721 1211,-1718 
        C1213,-1717 1216,-1715 1217,-1713 C1218,-1711 1217,-1709 1217,-1706 C1216,-1704 1215,-1701 1215,-1698 
        C1215,-1687 1218,-1675 1219,-1663 C1214,-1657 1210,-1650 1206,-1643 C1207,-1637 1209,-1632 1209,-1626 
        C1209,-1626 1206,-1625 1206,-1624 C1206,-1618 1207,-1611 1207,-1604 C1205,-1567 1205,-1530 1201,-1493 Z"
        transform="matrix(0.33333, 0, 0, 0.33333, 0, 0)" stroke="none"/>
    <path d="M1159,-1493 C1158,-1491 1160,-1488 1159,-1486 C1157,-1484 1154,-1483 1151,-1481 C1150,-1481 1151,-1479 
        1149,-1479 C1144,-1478 1139,-1478 1133,-1478 C1134,-1481 1133,-1484 1134,-1486 C1136,-1489 1140,-1490 1141,-1493 
        Z" transform="matrix(0.33333, 0, 0, 0.33333, 0, 0)" stroke="none"/>
    <path d="M1153,-1668 C1153,-1673 1153,-1677 1152,-1682 C1150,-1678 1149,-1673 1149,-1668 C1149,-1666 1152,-1664 
        1153,-1662 C1154,-1664 1153,-1666 1153,-1668 Z" transform="matrix(0.33333, 0, 0, 0.33333, 0, 0)" stroke="none"/>
    <path d="M1259,-1717 C1258,-1718 1256,-1718 1256,-1720 C1257,-1720 1259,-1720 1260,-1721 C1257,-1722 1256,-1724 
        1256,-1726 C1256,-1727 1257,-1728 1257,-1728 C1258,-1728 1258,-1726 1259,-1726 C1259,-1725 1260,-1726 1260,-1726 
        C1260,-1727 1260,-1728 1259,-1730 C1261,-1729 1263,-1729 1263,-1730 C1263,-1732 1260,-1734 1262,-1736 
        C1263,-1736 1264,-1734 1265,-1735 C1265,-1737 1263,-1738 1263,-1740 C1263,-1741 1265,-1741 1266,-1742 
        C1266,-1744 1265,-1747 1265,-1748 C1267,-1753 1270,-1758 1272,-1762 C1278,-1763 1281,-1769 1291,-1763 
        C1291,-1763 1290,-1763 1290,-1763 C1290,-1762 1290,-1762 1291,-1762 C1292,-1762 1294,-1762 1295,-1761 
        C1295,-1760 1294,-1758 1294,-1757 C1295,-1756 1298,-1756 1298,-1755 C1298,-1753 1295,-1750 1296,-1748 
        C1296,-1746 1299,-1746 1300,-1744 C1301,-1742 1300,-1740 1301,-1738 C1302,-1739 1303,-1739 1304,-1740 
        C1304,-1738 1305,-1737 1305,-1736 C1306,-1737 1308,-1738 1309,-1740 C1310,-1739 1309,-1737 1309,-1737 
        C1307,-1735 1305,-1733 1303,-1733 C1303,-1732 1303,-1732 1302,-1732 C1300,-1734 1300,-1734 1300,-1734 
        C1299,-1733 1302,-1732 1301,-1732 C1301,-1730 1301,-1730 1301,-1730 C1302,-1728 1304,-1730 1306,-1730 
        C1307,-1727 1303,-1727 1303,-1725 C1302,-1724 1304,-1724 1305,-1724 C1305,-1722 1303,-1721 1302,-1720"
        transform="matrix(0.33333, 0, 0, 0.33333, 0, 0)" stroke="none"/>
    <path d="M1311,-1504 C1314,-1502 1316,-1498 1318,-1496 C1318,-1495 1317,-1494 1316,-1494 C1311,-1494 1307,-1493 
        1303,-1495 C1300,-1496 1299,-1501 1295,-1503 C1293,-1502 1294,-1500 1293,-1498 C1293,-1498 1292,-1498 1292,-1498 
        C1291,-1503 1287,-1509 1292,-1513 C1292,-1513 1292,-1513 1292,-1513 C1292,-1512 1292,-1512 1292,-1512 
        C1296,-1506 1296,-1506 1296,-1506 C1304,-1500 1304,-1500 1304,-1500 C1308,-1500 1308,-1500 1308,-1500 
        C1310,-1504 1311,-1504 1311,-1504 Z" transform="matrix(0.33333, 0, 0, 0.33333, 0, 0)" stroke="none"/>
    <path d="M1272,-1561 C1273,-1563 1276,-1563 1279,-1563 C1280,-1563 1280,-1560 1281,-1560 C1283,-1560 1285,-1563 
        1287,-1563 C1288,-1563 1288,-1562 1289,-1561 C1295,-1563 1295,-1563 1295,-1563 C1301,-1560 1301,-1560 1301,-1560 
        C1304,-1565 1304,-1565 1304,-1565 C1305,-1565 1305,-1565 1305,-1565 C1305,-1566 1306,-1566 1306,-1566 
        C1309,-1585 1309,-1604 1312,-1624 C1312,-1626 1311,-1629 1311,-1632 C1312,-1632 1313,-1633 1314,-1632 
        C1314,-1637 1312,-1641 1312,-1645 C1318,-1652 1324,-1659 1329,-1667 C1330,-1668 1330,-1671 1329,-1673 
        C1327,-1679 1325,-1685 1323,-1691 C1320,-1700 1317,-1709 1314,-1718 C1310,-1719 1306,-1719 1302,-1720 
        C1284,-1722 1284,-1722 1284,-1722 C1259,-1717 1259,-1717 1259,-1717 C1254,-1715 1248,-1713 1243,-1710 
        C1242,-1701 1243,-1693 1242,-1684 C1241,-1679 1240,-1675 1239,-1670 C1239,-1668 1238,-1666 1239,-1664 
        C1240,-1661 1240,-1658 1241,-1656 C1246,-1651 1252,-1649 1257,-1644 C1257,-1641 1256,-1638 1255,-1634 
        C1254,-1633 1256,-1633 1256,-1633 C1256,-1631 1254,-1628 1254,-1626 C1252,-1606 1252,-1586 1253,-1566 
        C1253,-1566 1256,-1567 1256,-1566 C1260,-1562 1260,-1562 1260,-1562 C1267,-1564 1267,-1564 1267,-1564 
        C1272,-1560 1272,-1560 1272,-1560" transform="matrix(0.33333, 0, 0, 0.33333, 0, 0)" stroke="none"/>
    <path d="M1297,-1728 C1296,-1729 1294,-1730 1293,-1731 C1293,-1730 1292,-1730 1292,-1730 C1292,-1728 1291,-1726 
        1293,-1726 C1294,-1726 1293,-1728 1293,-1729 C1294,-1728 1294,-1727 1295,-1727 C1296,-1726 1296,-1727 1297,-1728 
        Z" transform="matrix(0.33333, 0, 0, 0.33333, 0, 0)" stroke="none"/>
    <path fill="#ffffff" d="M1292,-1711 C1292,-1711 1292,-1711 1291,-1711 C1291,-1712 1291,-1712 1291,-1713 C1292,-1713 
        1292,-1713 1293,-1713 C1293,-1712 1293,-1712 1293,-1712 C1294,-1715 1293,-1718 1293,-1720 C1293,-1721 1291,-1721 
        1290,-1722 C1289,-1724 1288,-1730 1290,-1729 C1294,-1729 1294,-1737 1295,-1742 C1296,-1744 1295,-1745 1294,-1747 
        C1294,-1747 1294,-1746 1294,-1746 C1293,-1745 1291,-1745 1291,-1745 C1290,-1746 1290,-1747 1291,-1747 
        C1291,-1748 1295,-1749 1295,-1748 C1295,-1751 1294,-1752 1293,-1754 C1292,-1753 1291,-1753 1290,-1753 
        C1291,-1754 1291,-1756 1290,-1756 C1288,-1755 1288,-1752 1285,-1752 C1285,-1753 1285,-1754 1285,-1755 
        C1284,-1754 1283,-1752 1281,-1752 C1281,-1752 1281,-1755 1280,-1754 C1278,-1752 1281,-1751 1280,-1749 
        C1279,-1745 1279,-1742 1277,-1738 C1277,-1738 1277,-1737 1277,-1736 C1277,-1736 1278,-1735 1279,-1735 
        C1279,-1734 1278,-1735 1277,-1734 C1277,-1733 1277,-1733 1277,-1732 C1278,-1731 1279,-1731 1281,-1731 
        C1280,-1729 1278,-1728 1276,-1730 C1275,-1727 1277,-1725 1279,-1724 C1278,-1723 1276,-1724 1275,-1723 
        C1274,-1722 1275,-1720 1275,-1719 C1275,-1719 1274,-1719 1274,-1719 C1273,-1717 1274,-1715 1275,-1713 
        C1275,-1714 1275,-1714 1276,-1714 C1277,-1713 1276,-1713 1276,-1712 C1276,-1712 1275,-1712 1275,-1712 
        C1274,-1711 1275,-1711 1275,-1710 C1279,-1708 1283,-1707 1287,-1707 C1288,-1707 1290,-1708 1291,-1709 
        C1290,-1710 1288,-1709 1289,-1711 C1289,-1712 1290,-1711 1291,-1711 C1291,-1711 1290,-1710 1291,-1709 
        C1291,-1709 1291,-1709 1291,-1709 C1292,-1710 1294,-1710 1294,-1711 C1294,-1711 1294,-1712 1293,-1712 
        C1293,-1712 1293,-1711 1292,-1711 Z" transform="matrix(0.33333, 0, 0, 0.33333, 0, 0)" stroke="none"/>
    <path d="M1287,-1745 C1287,-1745 1287,-1745 1287,-1745 C1285,-1745 1283,-1745 1282,-1747 C1284,-1747 1287,-1748 
        1288,-1747 C1289,-1746 1288,-1746 1287,-1745 Z" transform="matrix(0.33333, 0, 0, 0.33333, 0, 0)" stroke="none"/>
    <path d="M1293,-1740 C1292,-1738 1291,-1740 1290,-1739 C1290,-1740 1291,-1741 1292,-1741 C1292,-1741 1293,-1740 
        1293,-1740 Z" transform="matrix(0.33333, 0, 0, 0.33333, 0, 0)" stroke="none"/>
    <path d="M1291,-1736 C1290,-1736 1289,-1735 1287,-1736 C1289,-1737 1292,-1736 1294,-1737 C1294,-1737 1294,-1736 
        1294,-1736 C1293,-1736 1292,-1736 1291,-1736 Z" transform="matrix(0.33333, 0, 0, 0.33333, 0, 0)" stroke="none"/>
    <path d="M1287,-1708 C1287,-1708 1285,-1708 1285,-1710 C1286,-1710 1286,-1711 1287,-1710 C1288,-1710 1288,-1709 
        1287,-1708 Z" transform="matrix(0.33333, 0, 0, 0.33333, 0, 0)" stroke="none"/>
    <path d="M1284,-1708 C1283,-1708 1283,-1709 1283,-1709 C1283,-1709 1282,-1710 1283,-1710 C1284,-1710 1284,-1711 
        1285,-1710 C1285,-1709 1285,-1709 1284,-1708 Z" transform="matrix(0.33333, 0, 0, 0.33333, 0, 0)" stroke="none"/>
    <path d="M1281,-1709 C1280,-1709 1280,-1709 1279,-1710 C1279,-1710 1279,-1711 1280,-1711 C1281,-1711 1282,-1711 
        1281,-1710 C1281,-1709 1281,-1709 1281,-1709 Z" transform="matrix(0.33333, 0, 0, 0.33333, 0, 0)" stroke="none"/>
    <path d="M1278,-1711 C1278,-1711 1277,-1711 1277,-1711 C1277,-1712 1278,-1713 1279,-1712 C1279,-1712 1279,-1711 
        1278,-1711 Z" transform="matrix(0.33333, 0, 0, 0.33333, 0, 0)" stroke="none"/>
    <path d="M1291,-1734 C1290,-1734 1290,-1734 1289,-1735 C1290,-1735 1292,-1735 1293,-1735 C1293,-1734 1292,-1734 
        1291,-1734 Z" transform="matrix(0.33333, 0, 0, 0.33333, 0, 0)" stroke="none"/>
    <path fill="#ffffff" d="M1165,-1725 C1171,-1707 1171,-1707 1171,-1707 C1184,-1677 1184,-1677 1184,-1677 C1190,-1708 
        1190,-1708 1190,-1708 C1189,-1726 1189,-1726 1189,-1726 C1186,-1728 1186,-1728 1186,-1728 C1182,-1721 1182,-1721 
        1182,-1721 C1169,-1730 1169,-1730 1169,-1730 C1169,-1728 1165,-1725 1165,-1725 Z" transform="matrix(0.33333, 0, 0, 0.33333, 0, 0)"
        stroke="none"/>
    <path d="M1181,-1720 L1183,-1719 L1184,-1721 L1185,-1718 L1183,-1716 L1186,-1688 L1184,-1676 L1178,-1689 L1181,-1716 
        L1179,-1718 L1181,-1720 Z" stroke="none" transform="matrix(0.33333, 0, 0, 0.33333, 0, 0)"/>
    <path fill="#ffffff" d="M1275,-1710 C1277,-1704 1277,-1704 1277,-1704 C1292,-1675 1292,-1675 1292,-1675 C1297,-1702 
        1297,-1702 1297,-1702 C1294,-1711 1294,-1711 1294,-1711 C1287,-1703 1275,-1710 1275,-1710 Z" transform="matrix(0.33333, 0, 0, 0.33333, 0, 0)"
        stroke="none"/>
    <path d="M1261,-1509 C1256,-1503 1256,-1503 1256,-1503 C1251,-1501 1251,-1501 1251,-1501 C1245,-1499 1245,-1503 
        1245,-1503 C1249,-1512 1249,-1512 1249,-1512 C1247,-1509 1245,-1506 1243,-1503 C1241,-1500 1239,-1497 1239,-1494 
        C1239,-1494 1241,-1493 1242,-1493 C1245,-1494 1249,-1494 1252,-1496 C1255,-1497 1257,-1501 1259,-1503 
        C1260,-1502 1259,-1500 1260,-1499 C1261,-1502 1261,-1506 1262,-1509 Z" transform="matrix(0.33333, 0, 0, 0.33333, 0, 0)"
        stroke="none"/>
    <path fill="#ffffff" d="M1313,-1689 C1309,-1695 1305,-1690 1305,-1690 C1303,-1686 1306,-1684 1306,-1684 C1306,-1684 
        1306,-1684 1306,-1684 C1304,-1688 1307,-1690 1307,-1690 C1310,-1687 1313,-1689 1313,-1689 Z" transform="matrix(0.33333, 0, 0, 0.33333, 0, 0)"
        stroke="none"/>
    <path fill="#ffffff" d="M1312,-1697 C1312,-1699 1309,-1698 1309,-1697 C1308,-1697 1309,-1698 1309,-1698 C1309,-1699 
        1308,-1699 1307,-1699 C1307,-1698 1307,-1697 1307,-1697 C1306,-1698 1304,-1699 1304,-1696 C1303,-1695 1305,-1696 
        1306,-1694 C1305,-1694 1304,-1695 1304,-1694 C1304,-1694 1303,-1693 1304,-1692 C1305,-1692 1306,-1693 1307,-1693 
        C1307,-1692 1306,-1690 1308,-1691 C1309,-1691 1309,-1693 1309,-1694 C1309,-1693 1310,-1693 1311,-1692 
        C1311,-1693 1312,-1693 1312,-1694 C1313,-1696 1311,-1695 1310,-1696 C1311,-1695 1312,-1696 1312,-1697 Z"
        transform="matrix(0.33333, 0, 0, 0.33333, 0, 0)" stroke="none"/>
</svg>