<?xml version="1.0" standalone="no"?>
<!DOCTYPE svg PUBLIC "-//W3C//DTD SVG 1.0//EN"
    "http://www.w3.org/TR/2001/REC-SVG-20010904/DTD/svg10.dtd">
<?xml-stylesheet type="text/css" href="..\cisco_network.css" ?>
<svg contentScriptType="text/ecmascript" zoomAndPan="magnify" xmlns:xlink="http://www.w3.org/1999/xlink" baseProfile="full"
    contentStyleType="text/css" enable-background="new" version="1.0" width="32.7969" preserveAspectRatio="none"
    viewBox="388.99 -560 37.024 37.984" height="33.6472" xmlns="http://www.w3.org/2000/svg" color-interpolation-filters="sRGB"
    x="0" y="1.5">
    <path d="M1259,-1567 L1259,-1660 L1168,-1660 L1168,-1567 L1259,-1567 Z M1277,-1678 L1259,-1660 L1168,-1660 
        L1187,-1678 L1277,-1678 Z M1277,-1590 L1277,-1678 L1259,-1660 L1259,-1568 L1277,-1590 Z" stroke-width="2"
        transform="matrix(0.33333, 0, 0, 0.33333, 0, 0)"/>
    <path fill="#ffffff" d="M1223,-1590 L1230,-1598 L1219,-1601 L1223,-1590 Z" transform="matrix(0.33333, 0, 0, 0.33333, 0, 0)"
        stroke="none"/>
    <path fill="none" d="M1224,-1597 L1237,-1583" stroke-width="3" transform="matrix(0.33333, 0, 0, 0.33333, 0, 0)"
        stroke="#ffffff"/>
    <path fill="#ffffff" d="M1181,-1630 L1189,-1637 L1177,-1641 L1181,-1630 Z" transform="matrix(0.33333, 0, 0, 0.33333, 0, 0)"
        stroke="none"/>
    <path fill="none" d="M1182,-1637 L1196,-1623" stroke-width="3" transform="matrix(0.33333, 0, 0, 0.33333, 0, 0)"
        stroke="#ffffff"/>
    <path fill="#ffffff" d="M1185,-1607 L1185,-1618 L1174,-1612 L1185,-1607 Z" transform="matrix(0.33333, 0, 0, 0.33333, 0, 0)"
        stroke="none"/>
    <path fill="none" d="M1180,-1613 L1200,-1613" stroke-width="3" transform="matrix(0.33333, 0, 0, 0.33333, 0, 0)"
        stroke="#ffffff"/>
    <path fill="#ffffff" d="M1223,-1634 L1230,-1626 L1219,-1623 L1223,-1634 Z" transform="matrix(0.33333, 0, 0, 0.33333, 0, 0)"
        stroke="none"/>
    <path fill="none" d="M1224,-1627 L1237,-1641" stroke-width="3" transform="matrix(0.33333, 0, 0, 0.33333, 0, 0)"
        stroke="#ffffff"/>
    <path fill="#ffffff" d="M1181,-1594 L1189,-1587 L1177,-1583 L1181,-1594 Z" transform="matrix(0.33333, 0, 0, 0.33333, 0, 0)"
        stroke="none"/>
    <path fill="none" d="M1182,-1587 L1196,-1601" stroke-width="3" transform="matrix(0.33333, 0, 0, 0.33333, 0, 0)"
        stroke="#ffffff"/>
    <path d="M1196,-1624 L1217,-1624 L1217,-1601 L1196,-1601 L1196,-1624 Z M1234,-1597 L1252,-1597 L1252,-1579 
        L1234,-1579 L1234,-1597 Z M1234,-1645 L1252,-1645 L1252,-1627 L1234,-1627 L1234,-1645 Z" stroke-width="2"
        transform="matrix(0.33333, 0, 0, 0.33333, 0, 0)"/>
</svg>