<?xml version="1.0" standalone="no"?>
<!DOCTYPE svg PUBLIC "-//W3C//DTD SVG 1.0//EN"
    "http://www.w3.org/TR/2001/REC-SVG-20010904/DTD/svg10.dtd">
<?xml-stylesheet type="text/css" href="..\cisco_network.css" ?>
<svg contentScriptType="text/ecmascript" zoomAndPan="magnify" xmlns:xlink="http://www.w3.org/1999/xlink" baseProfile="full"
    contentStyleType="text/css" enable-background="new" version="1.0" width="31.8898" preserveAspectRatio="none"
    viewBox="387.01 -548 36 41.984" height="37.1906" xmlns="http://www.w3.org/2000/svg" color-interpolation-filters="sRGB"
    x="0" y="1.5">
    <path fill="#ffffff" d="M1178,-1613 L1176,-1613 L1162,-1613 L1162,-1600 L1176,-1600 L1178,-1600 Z" transform="matrix(0.33333, 0, 0, 0.33333, 0, 0)"
        stroke="none"/>
    <path fill="none" d="M1178,-1613 L1176,-1613 L1162,-1613 L1162,-1600 L1176,-1600 L1178,-1600" stroke-width="2"
        transform="matrix(0.33333, 0, 0, 0.33333, 0, 0)" stroke="#036e9d"/>
    <path fill="#ffffff" d="M1248,-1600 C1250,-1600 1250,-1600 1250,-1600 C1265,-1600 1267,-1587 1267,-1587 C1267,-1600 
        1267,-1600 1267,-1600 C1267,-1600 1265,-1613 1250,-1613 C1247,-1613 1247,-1613 1247,-1613" stroke-width="2"
        transform="matrix(0.33333, 0, 0, 0.33333, 0, 0)" stroke="#036e9d"/>
    <path fill="#ffffff" d="M1248,-1600 C1250,-1600 1250,-1600 1250,-1600 C1265,-1600 1267,-1587 1267,-1587 C1267,-1600 
        1267,-1600 1267,-1600 C1267,-1600 1265,-1613 1250,-1613 C1247,-1613 1247,-1613 1247,-1613" stroke-width="2"
        transform="matrix(0.33333, 0, 0, 0.33333, 0, 0)" stroke="#036e9d"/>
    <path d="M1240,-1520 L1240,-1632 L1176,-1632 L1176,-1520 L1240,-1520 Z M1176,-1632 L1188,-1642 L1251,-1642 
        L1240,-1632 L1176,-1632 Z M1240,-1520 L1251,-1532 L1251,-1642 L1240,-1632 L1240,-1520 Z" stroke-width="2"
        transform="matrix(0.33333, 0, 0, 0.33333, 0, 0)"/>
    <path fill="#ffffff" d="M1267,-1601 C1267,-1585 1267,-1585 1267,-1585 C1265,-1566 1232,-1567 1232,-1567 C1232,-1566 
        1232,-1566 1232,-1566 C1232,-1553 1232,-1553 1232,-1553 C1210,-1575 1210,-1575 1210,-1575 C1232,-1597 1232,-1597 
        1232,-1597 C1232,-1583 1232,-1583 1232,-1583 C1232,-1583 1266,-1582 1267,-1601" stroke-width="2" transform="matrix(0.33333, 0, 0, 0.33333, 0, 0)"
        stroke="#036e9d"/>
    <path fill="#ffffff" d="M1267,-1601 C1267,-1585 1267,-1585 1267,-1585 C1265,-1566 1232,-1567 1232,-1567 C1232,-1566 
        1232,-1566 1232,-1566 C1232,-1553 1232,-1553 1232,-1553 C1210,-1575 1210,-1575 1210,-1575 C1232,-1597 1232,-1597 
        1232,-1597 C1232,-1583 1232,-1583 1232,-1583 C1232,-1583 1266,-1582 1267,-1601" stroke-width="2" transform="matrix(0.33333, 0, 0, 0.33333, 0, 0)"
        stroke="#036e9d"/>
    <path fill="#ffffff" d="M1187,-1610 L1183,-1607 L1183,-1624 L1200,-1624 L1197,-1620 L1196,-1619 L1221,-1594 
        L1213,-1586 L1188,-1611 L1187,-1610 Z M1187,-1539 L1183,-1543 L1183,-1526 L1200,-1526 L1197,-1530 L1196,-1531 
        L1221,-1556 L1213,-1564 L1188,-1539 L1187,-1539 Z" transform="matrix(0.33333, 0, 0, 0.33333, 0, 0)" stroke="none"/>
</svg>