<?xml version="1.0" standalone="no"?>
<!DOCTYPE svg PUBLIC "-//W3C//DTD SVG 1.0//EN"
    "http://www.w3.org/TR/2001/REC-SVG-20010904/DTD/svg10.dtd">
<?xml-stylesheet type="text/css" href="..\cisco_network.css" ?>
<svg contentScriptType="text/ecmascript" zoomAndPan="magnify" xmlns:xlink="http://www.w3.org/1999/xlink" baseProfile="full"
    contentStyleType="text/css" enable-background="new" version="1.0" width="42.5197" preserveAspectRatio="none"
    viewBox="376 -559.01 48 52.992" height="46.9417" xmlns="http://www.w3.org/2000/svg" color-interpolation-filters="sRGB"
    x="0" y="1.5">
    <path stroke-width="2" d="M1244,-1522 L1244,-1651 L1131,-1651 L1131,-1522 L1244,-1522 Z M1244,-1651 L1131,-1651 
        L1165,-1677 L1271,-1677 L1271,-1677 L1271,-1548 L1244,-1522 L1244,-1651 L1244,-1651 Z" transform="matrix(0.33333, 0, 0, 0.33333, 0, 0)"/>
    <path d="M1244,-1651 L1272,-1678 Z" stroke="none" transform="matrix(0.33333, 0, 0, 0.33333, 0, 0)"/>
    <path fill="none" stroke-width="2" d="M1244,-1651 L1272,-1678" transform="matrix(0.33333, 0, 0, 0.33333, 0, 0)"/>
    <path d="M1158,-1579 L1139,-1579 L1139,-1547 L1158,-1547 Z" stroke="none" transform="matrix(0.33333, 0, 0, 0.33333, 0, 0)"/>
    <path fill="none" d="M1158,-1579 L1139,-1579 L1139,-1547 L1158,-1547" transform="matrix(0.33333, 0, 0, 0.33333, 0, 0)"
        stroke-linejoin="round" stroke-linecap="round"/>
    <path d="M1158,-1547 L1169,-1553 L1169,-1585 L1150,-1585 L1139,-1579 L1158,-1579 L1158,-1547 Z" transform="matrix(0.33333, 0, 0, 0.33333, 0, 0)"
        stroke-linejoin="round" stroke-linecap="round"/>
    <path d="M1158,-1579 L1169,-1585 Z" stroke="none" transform="matrix(0.33333, 0, 0, 0.33333, 0, 0)"/>
    <path fill="none" d="M1158,-1579 L1169,-1585" transform="matrix(0.33333, 0, 0, 0.33333, 0, 0)" stroke-linejoin="round"
        stroke-linecap="round"/>
    <path d="M1198,-1618 L1158,-1618 L1158,-1547 L1198,-1547 Z" stroke="none" transform="matrix(0.33333, 0, 0, 0.33333, 0, 0)"/>
    <path fill="none" d="M1198,-1618 L1158,-1618 L1158,-1547 L1198,-1547" transform="matrix(0.33333, 0, 0, 0.33333, 0, 0)"
        stroke-linejoin="round" stroke-linecap="round"/>
    <path d="M1198,-1547 L1214,-1556 L1214,-1627 L1174,-1627 L1158,-1618 L1198,-1618 L1198,-1547 Z" transform="matrix(0.33333, 0, 0, 0.33333, 0, 0)"
        stroke-linejoin="round" stroke-linecap="round"/>
    <path fill="none" d="M1198,-1618 L1214,-1627" transform="matrix(0.33333, 0, 0, 0.33333, 0, 0)" stroke-linejoin="round"
        stroke-linecap="round"/>
    <path d="M1219,-1607 L1198,-1607 L1198,-1547 L1219,-1547 Z" stroke="none" transform="matrix(0.33333, 0, 0, 0.33333, 0, 0)"/>
    <path fill="none" d="M1219,-1607 L1198,-1607 L1198,-1547 L1219,-1547" transform="matrix(0.33333, 0, 0, 0.33333, 0, 0)"
        stroke-linejoin="round" stroke-linecap="round"/>
    <path d="M1219,-1547 L1235,-1556 L1235,-1616 L1214,-1616 L1198,-1607 L1219,-1607 L1219,-1547 Z" transform="matrix(0.33333, 0, 0, 0.33333, 0, 0)"
        stroke-linejoin="round" stroke-linecap="round"/>
    <path fill="none" d="M1219,-1607 L1235,-1616" transform="matrix(0.33333, 0, 0, 0.33333, 0, 0)" stroke-linejoin="round"
        stroke-linecap="round"/>
    <path d="M1179,-1589 L1179,-1586 L1185,-1586 Z" stroke="none" transform="matrix(0.33333, 0, 0, 0.33333, 0, 0)"/>
    <path fill="none" d="M1179,-1589 L1179,-1586 L1185,-1586" transform="matrix(0.33333, 0, 0, 0.33333, 0, 0)"
        stroke-linejoin="round" stroke-linecap="round"/>
    <path d="M1187,-1589 L1187,-1586 L1193,-1586 Z" stroke="none" transform="matrix(0.33333, 0, 0, 0.33333, 0, 0)"/>
    <path fill="none" d="M1187,-1589 L1187,-1586 L1193,-1586" transform="matrix(0.33333, 0, 0, 0.33333, 0, 0)"
        stroke-linejoin="round" stroke-linecap="round"/>
    <path d="M1162,-1589 L1162,-1586 L1168,-1586 Z" stroke="none" transform="matrix(0.33333, 0, 0, 0.33333, 0, 0)"/>
    <path fill="none" d="M1162,-1589 L1162,-1586 L1168,-1586" transform="matrix(0.33333, 0, 0, 0.33333, 0, 0)"
        stroke-linejoin="round" stroke-linecap="round"/>
    <path d="M1170,-1589 L1170,-1586 L1176,-1586 Z" stroke="none" transform="matrix(0.33333, 0, 0, 0.33333, 0, 0)"/>
    <path fill="none" d="M1170,-1589 L1170,-1586 L1176,-1586" transform="matrix(0.33333, 0, 0, 0.33333, 0, 0)"
        stroke-linejoin="round" stroke-linecap="round"/>
    <path d="M1179,-1582 L1179,-1579 L1185,-1579 Z" stroke="none" transform="matrix(0.33333, 0, 0, 0.33333, 0, 0)"/>
    <path fill="none" d="M1179,-1582 L1179,-1579 L1185,-1579" transform="matrix(0.33333, 0, 0, 0.33333, 0, 0)"
        stroke-linejoin="round" stroke-linecap="round"/>
    <path d="M1187,-1582 L1187,-1579 L1193,-1579 Z" stroke="none" transform="matrix(0.33333, 0, 0, 0.33333, 0, 0)"/>
    <path fill="none" d="M1187,-1582 L1187,-1579 L1193,-1579" transform="matrix(0.33333, 0, 0, 0.33333, 0, 0)"
        stroke-linejoin="round" stroke-linecap="round"/>
    <path d="M1162,-1582 L1162,-1579 L1168,-1579 Z" stroke="none" transform="matrix(0.33333, 0, 0, 0.33333, 0, 0)"/>
    <path fill="none" d="M1162,-1582 L1162,-1579 L1168,-1579" transform="matrix(0.33333, 0, 0, 0.33333, 0, 0)"
        stroke-linejoin="round" stroke-linecap="round"/>
    <path d="M1170,-1582 L1170,-1579 L1176,-1579 Z" stroke="none" transform="matrix(0.33333, 0, 0, 0.33333, 0, 0)"/>
    <path fill="none" d="M1170,-1582 L1170,-1579 L1176,-1579" transform="matrix(0.33333, 0, 0, 0.33333, 0, 0)"
        stroke-linejoin="round" stroke-linecap="round"/>
    <path d="M1179,-1575 L1179,-1572 L1185,-1572 Z" stroke="none" transform="matrix(0.33333, 0, 0, 0.33333, 0, 0)"/>
    <path fill="none" d="M1179,-1575 L1179,-1572 L1185,-1572" transform="matrix(0.33333, 0, 0, 0.33333, 0, 0)"
        stroke-linejoin="round" stroke-linecap="round"/>
    <path d="M1187,-1575 L1187,-1572 L1193,-1572 Z" stroke="none" transform="matrix(0.33333, 0, 0, 0.33333, 0, 0)"/>
    <path fill="none" d="M1187,-1575 L1187,-1572 L1193,-1572" transform="matrix(0.33333, 0, 0, 0.33333, 0, 0)"
        stroke-linejoin="round" stroke-linecap="round"/>
    <path d="M1162,-1575 L1162,-1572 L1168,-1572 Z" stroke="none" transform="matrix(0.33333, 0, 0, 0.33333, 0, 0)"/>
    <path fill="none" d="M1162,-1575 L1162,-1572 L1168,-1572" transform="matrix(0.33333, 0, 0, 0.33333, 0, 0)"
        stroke-linejoin="round" stroke-linecap="round"/>
    <path d="M1170,-1575 L1170,-1572 L1176,-1572 Z" stroke="none" transform="matrix(0.33333, 0, 0, 0.33333, 0, 0)"/>
    <path fill="none" d="M1170,-1575 L1170,-1572 L1176,-1572" transform="matrix(0.33333, 0, 0, 0.33333, 0, 0)"
        stroke-linejoin="round" stroke-linecap="round"/>
    <path d="M1179,-1569 L1179,-1566 L1185,-1566 Z" stroke="none" transform="matrix(0.33333, 0, 0, 0.33333, 0, 0)"/>
    <path fill="none" d="M1179,-1569 L1179,-1566 L1185,-1566" transform="matrix(0.33333, 0, 0, 0.33333, 0, 0)"
        stroke-linejoin="round" stroke-linecap="round"/>
    <path d="M1187,-1569 L1187,-1566 L1193,-1566 Z" stroke="none" transform="matrix(0.33333, 0, 0, 0.33333, 0, 0)"/>
    <path fill="none" d="M1187,-1569 L1187,-1566 L1193,-1566" transform="matrix(0.33333, 0, 0, 0.33333, 0, 0)"
        stroke-linejoin="round" stroke-linecap="round"/>
    <path d="M1162,-1569 L1162,-1566 L1168,-1566 Z" stroke="none" transform="matrix(0.33333, 0, 0, 0.33333, 0, 0)"/>
    <path fill="none" d="M1162,-1569 L1162,-1566 L1168,-1566" transform="matrix(0.33333, 0, 0, 0.33333, 0, 0)"
        stroke-linejoin="round" stroke-linecap="round"/>
    <path d="M1170,-1569 L1170,-1566 L1176,-1566 Z" stroke="none" transform="matrix(0.33333, 0, 0, 0.33333, 0, 0)"/>
    <path fill="none" d="M1170,-1569 L1170,-1566 L1176,-1566" transform="matrix(0.33333, 0, 0, 0.33333, 0, 0)"
        stroke-linejoin="round" stroke-linecap="round"/>
    <path d="M1202,-1604 L1202,-1601 L1208,-1601 Z" stroke="none" transform="matrix(0.33333, 0, 0, 0.33333, 0, 0)"/>
    <path fill="none" d="M1202,-1604 L1202,-1601 L1208,-1601" transform="matrix(0.33333, 0, 0, 0.33333, 0, 0)"
        stroke-linejoin="round" stroke-linecap="round"/>
    <path d="M1210,-1604 L1210,-1601 L1216,-1601 Z" stroke="none" transform="matrix(0.33333, 0, 0, 0.33333, 0, 0)"/>
    <path fill="none" d="M1210,-1604 L1210,-1601 L1216,-1601" transform="matrix(0.33333, 0, 0, 0.33333, 0, 0)"
        stroke-linejoin="round" stroke-linecap="round"/>
    <path d="M1202,-1598 L1202,-1595 L1208,-1595 Z" stroke="none" transform="matrix(0.33333, 0, 0, 0.33333, 0, 0)"/>
    <path fill="none" d="M1202,-1598 L1202,-1595 L1208,-1595" transform="matrix(0.33333, 0, 0, 0.33333, 0, 0)"
        stroke-linejoin="round" stroke-linecap="round"/>
    <path d="M1210,-1598 L1210,-1595 L1216,-1595 Z" stroke="none" transform="matrix(0.33333, 0, 0, 0.33333, 0, 0)"/>
    <path fill="none" d="M1210,-1598 L1210,-1595 L1216,-1595" transform="matrix(0.33333, 0, 0, 0.33333, 0, 0)"
        stroke-linejoin="round" stroke-linecap="round"/>
    <path d="M1202,-1592 L1202,-1589 L1208,-1589 Z" stroke="none" transform="matrix(0.33333, 0, 0, 0.33333, 0, 0)"/>
    <path fill="none" d="M1202,-1592 L1202,-1589 L1208,-1589" transform="matrix(0.33333, 0, 0, 0.33333, 0, 0)"
        stroke-linejoin="round" stroke-linecap="round"/>
    <path d="M1210,-1592 L1210,-1589 L1216,-1589 Z" stroke="none" transform="matrix(0.33333, 0, 0, 0.33333, 0, 0)"/>
    <path fill="none" d="M1210,-1592 L1210,-1589 L1216,-1589" transform="matrix(0.33333, 0, 0, 0.33333, 0, 0)"
        stroke-linejoin="round" stroke-linecap="round"/>
    <path d="M1142,-1576 L1142,-1573 L1148,-1573 Z" stroke="none" transform="matrix(0.33333, 0, 0, 0.33333, 0, 0)"/>
    <path fill="none" d="M1142,-1576 L1142,-1573 L1148,-1573" transform="matrix(0.33333, 0, 0, 0.33333, 0, 0)"
        stroke-linejoin="round" stroke-linecap="round"/>
    <path d="M1150,-1576 L1150,-1573 L1156,-1573 Z" stroke="none" transform="matrix(0.33333, 0, 0, 0.33333, 0, 0)"/>
    <path fill="none" d="M1150,-1576 L1150,-1573 L1156,-1573" transform="matrix(0.33333, 0, 0, 0.33333, 0, 0)"
        stroke-linejoin="round" stroke-linecap="round"/>
    <path d="M1142,-1570 L1142,-1567 L1148,-1567 Z" stroke="none" transform="matrix(0.33333, 0, 0, 0.33333, 0, 0)"/>
    <path fill="none" d="M1142,-1570 L1142,-1567 L1148,-1567" transform="matrix(0.33333, 0, 0, 0.33333, 0, 0)"
        stroke-linejoin="round" stroke-linecap="round"/>
    <path d="M1151,-1570 L1151,-1567 L1157,-1567 Z" stroke="none" transform="matrix(0.33333, 0, 0, 0.33333, 0, 0)"/>
    <path fill="none" d="M1151,-1570 L1151,-1567 L1157,-1567" transform="matrix(0.33333, 0, 0, 0.33333, 0, 0)"
        stroke-linejoin="round" stroke-linecap="round"/>
    <path d="M1142,-1564 L1142,-1561 L1148,-1561 Z" stroke="none" transform="matrix(0.33333, 0, 0, 0.33333, 0, 0)"/>
    <path fill="none" d="M1142,-1564 L1142,-1561 L1148,-1561" transform="matrix(0.33333, 0, 0, 0.33333, 0, 0)"
        stroke-linejoin="round" stroke-linecap="round"/>
    <path d="M1151,-1564 L1151,-1561 L1157,-1561 Z" stroke="none" transform="matrix(0.33333, 0, 0, 0.33333, 0, 0)"/>
    <path fill="none" d="M1151,-1564 L1151,-1561 L1157,-1561" transform="matrix(0.33333, 0, 0, 0.33333, 0, 0)"
        stroke-linejoin="round" stroke-linecap="round"/>
    <path d="M1179,-1615 L1179,-1611 L1185,-1611 Z" stroke="none" transform="matrix(0.33333, 0, 0, 0.33333, 0, 0)"/>
    <path fill="none" d="M1179,-1615 L1179,-1611 L1185,-1611" transform="matrix(0.33333, 0, 0, 0.33333, 0, 0)"
        stroke-linejoin="round" stroke-linecap="round"/>
    <path d="M1187,-1615 L1187,-1611 L1193,-1611 Z" stroke="none" transform="matrix(0.33333, 0, 0, 0.33333, 0, 0)"/>
    <path fill="none" d="M1187,-1615 L1187,-1611 L1193,-1611" transform="matrix(0.33333, 0, 0, 0.33333, 0, 0)"
        stroke-linejoin="round" stroke-linecap="round"/>
    <path d="M1162,-1615 L1162,-1611 L1168,-1611 Z" stroke="none" transform="matrix(0.33333, 0, 0, 0.33333, 0, 0)"/>
    <path fill="none" d="M1162,-1615 L1162,-1611 L1168,-1611" transform="matrix(0.33333, 0, 0, 0.33333, 0, 0)"
        stroke-linejoin="round" stroke-linecap="round"/>
    <path d="M1170,-1615 L1170,-1611 L1177,-1611 Z" stroke="none" transform="matrix(0.33333, 0, 0, 0.33333, 0, 0)"/>
    <path fill="none" d="M1170,-1615 L1170,-1611 L1177,-1611" transform="matrix(0.33333, 0, 0, 0.33333, 0, 0)"
        stroke-linejoin="round" stroke-linecap="round"/>
    <path d="M1179,-1608 L1179,-1604 L1185,-1604 Z" stroke="none" transform="matrix(0.33333, 0, 0, 0.33333, 0, 0)"/>
    <path fill="none" d="M1179,-1608 L1179,-1604 L1185,-1604" transform="matrix(0.33333, 0, 0, 0.33333, 0, 0)"
        stroke-linejoin="round" stroke-linecap="round"/>
    <path d="M1187,-1608 L1187,-1604 L1193,-1604 Z" stroke="none" transform="matrix(0.33333, 0, 0, 0.33333, 0, 0)"/>
    <path fill="none" d="M1187,-1608 L1187,-1604 L1193,-1604" transform="matrix(0.33333, 0, 0, 0.33333, 0, 0)"
        stroke-linejoin="round" stroke-linecap="round"/>
    <path d="M1162,-1608 L1162,-1604 L1168,-1604 Z" stroke="none" transform="matrix(0.33333, 0, 0, 0.33333, 0, 0)"/>
    <path fill="none" d="M1162,-1608 L1162,-1604 L1168,-1604" transform="matrix(0.33333, 0, 0, 0.33333, 0, 0)"
        stroke-linejoin="round" stroke-linecap="round"/>
    <path d="M1170,-1608 L1170,-1604 L1176,-1604 Z" stroke="none" transform="matrix(0.33333, 0, 0, 0.33333, 0, 0)"/>
    <path fill="none" d="M1170,-1608 L1170,-1604 L1176,-1604" transform="matrix(0.33333, 0, 0, 0.33333, 0, 0)"
        stroke-linejoin="round" stroke-linecap="round"/>
    <path d="M1179,-1601 L1179,-1598 L1185,-1598 Z" stroke="none" transform="matrix(0.33333, 0, 0, 0.33333, 0, 0)"/>
    <path fill="none" d="M1179,-1601 L1179,-1598 L1185,-1598" transform="matrix(0.33333, 0, 0, 0.33333, 0, 0)"
        stroke-linejoin="round" stroke-linecap="round"/>
    <path d="M1187,-1601 L1187,-1598 L1193,-1598 Z" stroke="none" transform="matrix(0.33333, 0, 0, 0.33333, 0, 0)"/>
    <path fill="none" d="M1187,-1601 L1187,-1598 L1193,-1598" transform="matrix(0.33333, 0, 0, 0.33333, 0, 0)"
        stroke-linejoin="round" stroke-linecap="round"/>
    <path d="M1162,-1601 L1162,-1598 L1168,-1598 Z" stroke="none" transform="matrix(0.33333, 0, 0, 0.33333, 0, 0)"/>
    <path fill="none" d="M1162,-1601 L1162,-1598 L1168,-1598" transform="matrix(0.33333, 0, 0, 0.33333, 0, 0)"
        stroke-linecap="round" stroke-linejoin="round"/>
    <path d="M1170,-1601 L1170,-1598 L1176,-1598 Z" stroke="none" transform="matrix(0.33333, 0, 0, 0.33333, 0, 0)"/>
    <path fill="none" d="M1170,-1601 L1170,-1598 L1176,-1598" transform="matrix(0.33333, 0, 0, 0.33333, 0, 0)"
        stroke-linecap="round" stroke-linejoin="round"/>
    <path d="M1179,-1595 L1179,-1592 L1185,-1592 Z" stroke="none" transform="matrix(0.33333, 0, 0, 0.33333, 0, 0)"/>
    <path fill="none" d="M1179,-1595 L1179,-1592 L1185,-1592" transform="matrix(0.33333, 0, 0, 0.33333, 0, 0)"
        stroke-linecap="round" stroke-linejoin="round"/>
    <path d="M1187,-1595 L1187,-1592 L1193,-1592 Z" stroke="none" transform="matrix(0.33333, 0, 0, 0.33333, 0, 0)"/>
    <path fill="none" d="M1187,-1595 L1187,-1592 L1193,-1592" transform="matrix(0.33333, 0, 0, 0.33333, 0, 0)"
        stroke-linecap="round" stroke-linejoin="round"/>
    <path d="M1162,-1595 L1162,-1592 L1168,-1592 Z" stroke="none" transform="matrix(0.33333, 0, 0, 0.33333, 0, 0)"/>
    <path fill="none" d="M1162,-1595 L1162,-1592 L1168,-1592" transform="matrix(0.33333, 0, 0, 0.33333, 0, 0)"
        stroke-linecap="round" stroke-linejoin="round"/>
    <path d="M1170,-1595 L1170,-1592 L1176,-1592 Z" stroke="none" transform="matrix(0.33333, 0, 0, 0.33333, 0, 0)"/>
    <path fill="none" d="M1170,-1595 L1170,-1592 L1176,-1592" transform="matrix(0.33333, 0, 0, 0.33333, 0, 0)"
        stroke-linecap="round" stroke-linejoin="round"/>
    <path d="M1202,-1586 L1202,-1583 Z" stroke="none" transform="matrix(0.33333, 0, 0, 0.33333, 0, 0)"/>
    <path fill="none" d="M1202,-1586 L1202,-1583" transform="matrix(0.33333, 0, 0, 0.33333, 0, 0)" stroke-linecap="round"
        stroke-linejoin="round"/>
    <path d="M1202,-1583 L1208,-1583 Z" stroke="none" transform="matrix(0.33333, 0, 0, 0.33333, 0, 0)"/>
    <path fill="none" d="M1202,-1583 L1208,-1583" transform="matrix(0.33333, 0, 0, 0.33333, 0, 0)" stroke-linecap="round"
        stroke-linejoin="round"/>
    <path d="M1210,-1586 L1210,-1583 L1216,-1583 Z" stroke="none" transform="matrix(0.33333, 0, 0, 0.33333, 0, 0)"/>
    <path fill="none" d="M1210,-1586 L1210,-1583 L1216,-1583" transform="matrix(0.33333, 0, 0, 0.33333, 0, 0)"
        stroke-linecap="round" stroke-linejoin="round"/>
    <path d="M1202,-1581 L1202,-1577 Z" stroke="none" transform="matrix(0.33333, 0, 0, 0.33333, 0, 0)"/>
    <path fill="none" d="M1202,-1581 L1202,-1577" transform="matrix(0.33333, 0, 0, 0.33333, 0, 0)" stroke-linecap="round"
        stroke-linejoin="round"/>
    <path d="M1202,-1577 L1208,-1577 Z" stroke="none" transform="matrix(0.33333, 0, 0, 0.33333, 0, 0)"/>
    <path fill="none" d="M1202,-1577 L1208,-1577" transform="matrix(0.33333, 0, 0, 0.33333, 0, 0)" stroke-linecap="round"
        stroke-linejoin="round"/>
    <path d="M1210,-1581 L1210,-1577 L1216,-1577 Z" stroke="none" transform="matrix(0.33333, 0, 0, 0.33333, 0, 0)"/>
    <path fill="none" d="M1210,-1581 L1210,-1577 L1216,-1577" transform="matrix(0.33333, 0, 0, 0.33333, 0, 0)"
        stroke-linecap="round" stroke-linejoin="round"/>
    <path fill="#ffffff" d="M1192,-1621 L1192,-1622 L1192,-1623 L1192,-1624 L1193,-1625 L1193,-1626 L1193,-1627 
        L1193,-1628 L1194,-1629 L1194,-1630 L1194,-1630 L1195,-1631 L1195,-1632 L1196,-1632 L1196,-1633 L1197,-1633 
        L1197,-1634 L1198,-1634 L1198,-1634 L1199,-1635 L1199,-1635 L1200,-1635 L1200,-1635 L1201,-1636 L1201,-1636 
        L1202,-1636 L1202,-1636 L1202,-1636 L1203,-1636 L1203,-1636 L1203,-1636 L1203,-1636 L1192,-1636 L1192,-1636 
        L1191,-1636 L1191,-1636 L1191,-1636 L1190,-1636 L1190,-1636 L1190,-1636 L1189,-1636 L1189,-1635 L1188,-1635 
        L1188,-1635 L1187,-1635 L1187,-1634 L1186,-1634 L1186,-1634 L1185,-1633 L1185,-1633 L1184,-1632 L1184,-1632 
        L1183,-1631 L1183,-1630 L1182,-1630 L1182,-1629 L1182,-1628 L1181,-1627 L1181,-1626 L1181,-1625 L1181,-1624 
        L1181,-1624 L1181,-1623 L1181,-1620 L1192,-1621 L1192,-1621 Z" fill-rule="evenodd" transform="matrix(0.33333, 0, 0, 0.33333, 0, 0)"
        stroke="none"/>
    <path fill="#141617" d="M1193,-1622 L1191,-1622 L1191,-1621 L1193,-1621 L1193,-1622 L1193,-1622 L1193,-1622 
        L1193,-1622 L1193,-1622 L1193,-1622 L1193,-1623 L1193,-1623 L1193,-1623 L1193,-1623 L1193,-1623 L1193,-1623 
        L1193,-1623 L1193,-1623 L1193,-1623 L1192,-1623 L1192,-1623 L1192,-1623 L1192,-1623 L1192,-1623 L1192,-1623 
        L1192,-1623 L1192,-1623 L1192,-1623 L1192,-1623 L1192,-1623 L1192,-1623 L1192,-1623 L1192,-1623 L1192,-1623 
        L1192,-1623 L1192,-1622 L1191,-1622 L1191,-1622 L1191,-1622 L1193,-1622 Z" transform="matrix(0.33333, 0, 0, 0.33333, 0, 0)"
        stroke="none"/>
    <path fill="#141617" d="M1203,-1636 L1203,-1637 L1203,-1637 L1203,-1637 L1202,-1637 L1202,-1637 L1202,-1637 
        L1201,-1637 L1201,-1637 L1201,-1636 L1200,-1636 L1200,-1636 L1200,-1636 L1200,-1636 L1199,-1636 L1199,-1636 
        L1199,-1635 L1198,-1635 L1198,-1635 L1198,-1635 L1198,-1635 L1197,-1635 L1197,-1634 L1197,-1634 L1197,-1634 
        L1196,-1634 L1196,-1633 L1196,-1633 L1195,-1633 L1195,-1633 L1195,-1632 L1195,-1632 L1194,-1632 L1194,-1631 
        L1194,-1631 L1194,-1631 L1194,-1630 L1193,-1630 L1193,-1630 L1193,-1629 L1193,-1629 L1193,-1628 L1192,-1628 
        L1192,-1627 L1192,-1627 L1192,-1627 L1192,-1626 L1192,-1626 L1192,-1625 L1192,-1625 L1192,-1625 L1192,-1624 
        L1192,-1624 L1192,-1624 L1192,-1624 L1192,-1623 L1191,-1623 L1191,-1623 L1191,-1622 L1191,-1622 L1193,-1622 
        L1193,-1622 L1193,-1623 L1193,-1623 L1193,-1623 L1193,-1624 L1193,-1624 L1193,-1624 L1193,-1624 L1193,-1625 
        L1193,-1625 L1193,-1625 L1193,-1625 L1193,-1626 L1193,-1626 L1194,-1627 L1194,-1627 L1194,-1627 L1194,-1628 
        L1194,-1628 L1194,-1629 L1194,-1629 L1195,-1629 L1195,-1630 L1195,-1630 L1195,-1630 L1195,-1631 L1196,-1631 
        L1196,-1631 L1196,-1631 L1196,-1632 L1197,-1632 L1197,-1632 L1197,-1632 L1197,-1633 L1198,-1633 L1198,-1633 
        L1198,-1633 L1198,-1633 L1199,-1634 L1199,-1634 L1199,-1634 L1199,-1634 L1200,-1634 L1200,-1634 L1200,-1634 
        L1200,-1635 L1200,-1635 L1201,-1635 L1201,-1635 L1201,-1635 L1202,-1635 L1202,-1635 L1202,-1635 L1203,-1635 
        L1203,-1636 L1203,-1636 L1203,-1636 L1204,-1636 L1203,-1637 L1204,-1636 L1204,-1636 L1204,-1636 L1204,-1636 
        L1204,-1636 L1204,-1636 L1204,-1636 L1204,-1636 L1204,-1636 L1204,-1636 L1204,-1636 L1204,-1636 L1204,-1636 
        L1204,-1636 L1204,-1636 L1204,-1637 L1204,-1637 L1204,-1637 L1204,-1637 L1204,-1637 L1204,-1637 L1204,-1637 
        L1204,-1637 L1204,-1637 L1204,-1637 L1204,-1637 L1204,-1637 L1204,-1637 L1204,-1637 L1204,-1637 L1203,-1637 
        L1203,-1637 L1203,-1637 L1203,-1636 Z" transform="matrix(0.33333, 0, 0, 0.33333, 0, 0)" stroke="none"/>
    <path fill="#141617" d="M1192,-1637 L1192,-1636 L1203,-1636 L1203,-1637 L1192,-1637 L1192,-1637 L1192,-1637 
        L1192,-1637 L1192,-1637 L1192,-1637 L1191,-1637 L1191,-1637 L1191,-1637 L1191,-1637 L1191,-1637 L1191,-1637 
        L1191,-1637 L1191,-1637 L1191,-1637 L1191,-1637 L1191,-1637 L1191,-1637 L1191,-1636 L1191,-1636 L1191,-1636 
        L1191,-1636 L1191,-1636 L1191,-1636 L1191,-1636 L1191,-1636 L1191,-1636 L1191,-1636 L1191,-1636 L1191,-1636 
        L1191,-1636 L1192,-1636 L1192,-1636 L1192,-1636 L1192,-1636 L1192,-1637 Z" transform="matrix(0.33333, 0, 0, 0.33333, 0, 0)"
        stroke="none"/>
    <path fill="#141617" d="M1181,-1623 L1181,-1623 L1181,-1623 L1181,-1623 L1181,-1624 L1181,-1624 L1181,-1624 
        L1182,-1624 L1182,-1624 L1182,-1624 L1182,-1625 L1182,-1625 L1182,-1625 L1182,-1625 L1182,-1625 L1182,-1626 
        L1182,-1626 L1182,-1626 L1182,-1627 L1182,-1627 L1182,-1627 L1182,-1628 L1183,-1628 L1183,-1629 L1183,-1629 
        L1183,-1629 L1183,-1630 L1183,-1630 L1184,-1630 L1184,-1631 L1184,-1631 L1184,-1631 L1185,-1631 L1185,-1632 
        L1185,-1632 L1185,-1632 L1185,-1632 L1186,-1633 L1186,-1633 L1186,-1633 L1186,-1633 L1187,-1633 L1187,-1634 
        L1187,-1634 L1187,-1634 L1188,-1634 L1188,-1634 L1188,-1634 L1188,-1634 L1189,-1635 L1189,-1635 L1189,-1635 
        L1189,-1635 L1190,-1635 L1190,-1635 L1190,-1635 L1191,-1635 L1191,-1635 L1191,-1636 L1192,-1636 L1192,-1636 
        L1192,-1636 L1192,-1637 L1192,-1637 L1191,-1637 L1191,-1637 L1191,-1637 L1190,-1637 L1190,-1637 L1189,-1637 
        L1189,-1636 L1189,-1636 L1188,-1636 L1188,-1636 L1188,-1636 L1188,-1636 L1187,-1636 L1187,-1635 L1187,-1635 
        L1187,-1635 L1186,-1635 L1186,-1635 L1186,-1635 L1186,-1634 L1185,-1634 L1185,-1634 L1185,-1634 L1184,-1633 
        L1184,-1633 L1184,-1633 L1184,-1633 L1183,-1632 L1183,-1632 L1183,-1632 L1183,-1631 L1182,-1631 L1182,-1631 
        L1182,-1630 L1182,-1630 L1182,-1630 L1181,-1629 L1181,-1629 L1181,-1628 L1181,-1628 L1181,-1627 L1181,-1627 
        L1180,-1627 L1180,-1626 L1180,-1626 L1180,-1626 L1180,-1626 L1180,-1625 L1180,-1625 L1180,-1625 L1180,-1624 
        L1180,-1624 L1180,-1624 L1180,-1624 L1180,-1623 L1180,-1624 L1180,-1623 L1180,-1623 L1180,-1623 L1180,-1623 
        L1180,-1623 L1180,-1623 L1180,-1623 L1180,-1622 L1180,-1622 L1180,-1622 L1180,-1622 L1180,-1622 L1180,-1622 
        L1180,-1622 L1180,-1622 L1180,-1622 L1180,-1622 L1180,-1622 L1181,-1622 L1181,-1622 L1181,-1622 L1181,-1622 
        L1181,-1622 L1181,-1622 L1181,-1622 L1181,-1622 L1181,-1622 L1181,-1622 L1181,-1622 L1181,-1622 L1181,-1622 
        L1181,-1622 L1181,-1622 L1181,-1622 L1181,-1623 L1181,-1623 L1181,-1623 L1181,-1623 Z" transform="matrix(0.33333, 0, 0, 0.33333, 0, 0)"
        stroke="none"/>
    <path fill="#141617" d="M1181,-1619 L1181,-1620 L1181,-1623 L1180,-1623 L1180,-1620 L1181,-1619 L1180,-1620 
        L1180,-1620 L1180,-1620 L1180,-1620 L1180,-1620 L1180,-1620 L1180,-1620 L1180,-1620 L1180,-1619 L1180,-1619 
        L1180,-1619 L1180,-1619 L1180,-1619 L1180,-1619 L1181,-1619 L1181,-1619 L1181,-1619 L1181,-1619 L1181,-1619 
        L1181,-1619 L1181,-1619 L1181,-1619 L1181,-1619 L1181,-1619 L1181,-1619 L1181,-1620 L1181,-1620 L1181,-1620 
        L1181,-1620 L1181,-1620 L1181,-1620 L1181,-1620 L1181,-1620 L1181,-1619 Z" transform="matrix(0.33333, 0, 0, 0.33333, 0, 0)"
        stroke="none"/>
    <path fill="#141617" d="M1193,-1621 L1192,-1621 L1181,-1621 L1181,-1619 L1192,-1620 L1193,-1621 L1192,-1620 
        L1192,-1620 L1192,-1620 L1193,-1620 L1193,-1620 L1193,-1620 L1193,-1620 L1193,-1620 L1193,-1620 L1193,-1620 
        L1193,-1620 L1193,-1620 L1193,-1620 L1193,-1620 L1193,-1620 L1193,-1621 L1193,-1621 L1193,-1621 L1193,-1621 
        L1193,-1621 L1193,-1621 L1193,-1621 L1193,-1621 L1193,-1621 L1193,-1621 L1193,-1621 L1193,-1621 L1193,-1621 
        L1193,-1621 L1192,-1621 L1192,-1621 L1192,-1621 L1192,-1621 L1193,-1621 Z" transform="matrix(0.33333, 0, 0, 0.33333, 0, 0)"
        stroke="none"/>
    <path fill="#000000" d="M1191,-1622 L1191,-1621 L1193,-1621 L1193,-1622 L1191,-1622 Z M1192,-1636 L1203,-1636 
        L1203,-1637 L1192,-1637 L1192,-1636 Z M1181,-1620 L1181,-1623 L1180,-1623 L1180,-1620 L1181,-1620 Z" transform="matrix(0.33333, 0, 0, 0.33333, 0, 0)"
        stroke="none"/>
    <path fill="#ffffff" d="M1191,-1636 L1205,-1636 L1206,-1636 L1208,-1636 L1209,-1635 L1210,-1635 L1211,-1634 
        L1212,-1633 L1213,-1632 L1214,-1631 L1215,-1630 L1216,-1629 L1216,-1628 L1217,-1626 L1217,-1625 L1218,-1624 
        L1218,-1622 L1219,-1621 L1219,-1620 L1219,-1618 L1220,-1619 L1220,-1618 L1220,-1617 L1220,-1616 L1220,-1614 
        L1220,-1613 L1220,-1618 L1220,-1617 L1220,-1616 L1220,-1616 L1220,-1615 L1220,-1614 L1221,-1614 L1232,-1614 
        L1213,-1596 L1195,-1614 L1207,-1614 L1207,-1615 L1207,-1616 L1207,-1616 L1207,-1617 L1207,-1618 L1207,-1613 
        L1206,-1615 L1206,-1616 L1206,-1617 L1206,-1618 L1206,-1617 L1206,-1618 L1205,-1620 L1205,-1621 L1205,-1623 
        L1204,-1624 L1204,-1625 L1203,-1627 L1203,-1628 L1202,-1629 L1201,-1630 L1200,-1631 L1200,-1632 L1199,-1633 
        L1198,-1634 L1197,-1635 L1195,-1636 L1194,-1636 L1193,-1636 L1191,-1636 L1191,-1636 Z" fill-rule="evenodd"
        transform="matrix(0.33333, 0, 0, 0.33333, 0, 0)" stroke="none"/>
    <path fill="#141617" d="M1205,-1637 L1205,-1637 L1191,-1637 L1191,-1636 L1205,-1636 L1205,-1637 L1205,-1636 
        L1205,-1636 L1205,-1636 L1205,-1636 L1205,-1636 L1205,-1636 L1205,-1636 L1205,-1636 L1205,-1636 L1206,-1636 
        L1206,-1636 L1206,-1636 L1206,-1636 L1206,-1636 L1206,-1636 L1206,-1636 L1206,-1636 L1206,-1637 L1206,-1637 
        L1206,-1637 L1206,-1637 L1206,-1637 L1206,-1637 L1206,-1637 L1205,-1637 L1205,-1637 L1205,-1637 L1205,-1637 
        L1205,-1637 L1205,-1637 L1205,-1637 L1205,-1637 L1205,-1637 L1205,-1637 Z" transform="matrix(0.33333, 0, 0, 0.33333, 0, 0)"
        stroke="none"/>
    <path fill="#141617" d="M1220,-1615 L1221,-1614 L1221,-1615 L1221,-1616 L1221,-1616 L1221,-1617 L1221,-1618 
        L1221,-1613 L1221,-1614 L1221,-1615 L1221,-1615 L1221,-1616 L1221,-1616 L1221,-1617 L1221,-1618 L1221,-1618 
        L1220,-1619 L1220,-1619 L1220,-1618 L1220,-1618 L1220,-1619 L1220,-1620 L1220,-1620 L1220,-1621 L1219,-1622 
        L1219,-1623 L1219,-1623 L1219,-1624 L1219,-1624 L1218,-1625 L1218,-1625 L1218,-1625 L1218,-1626 L1218,-1626 
        L1218,-1626 L1218,-1627 L1218,-1627 L1217,-1627 L1217,-1628 L1217,-1628 L1217,-1628 L1217,-1629 L1217,-1629 
        L1216,-1629 L1216,-1630 L1216,-1630 L1216,-1630 L1216,-1631 L1215,-1631 L1215,-1631 L1215,-1631 L1215,-1632 
        L1215,-1632 L1214,-1632 L1214,-1633 L1214,-1633 L1214,-1633 L1213,-1633 L1213,-1634 L1213,-1634 L1213,-1634 
        L1212,-1634 L1212,-1634 L1212,-1635 L1212,-1635 L1211,-1635 L1211,-1635 L1211,-1635 L1210,-1636 L1210,-1636 
        L1210,-1636 L1209,-1636 L1209,-1636 L1209,-1636 L1208,-1637 L1208,-1637 L1208,-1637 L1207,-1637 L1207,-1637 
        L1207,-1637 L1206,-1637 L1206,-1637 L1205,-1637 L1205,-1637 L1205,-1636 L1205,-1636 L1206,-1636 L1206,-1636 
        L1206,-1636 L1207,-1635 L1207,-1635 L1207,-1635 L1208,-1635 L1208,-1635 L1208,-1635 L1208,-1635 L1209,-1635 
        L1209,-1635 L1209,-1634 L1210,-1634 L1210,-1634 L1210,-1634 L1210,-1634 L1211,-1634 L1211,-1633 L1211,-1633 
        L1211,-1633 L1212,-1633 L1212,-1633 L1212,-1632 L1212,-1632 L1213,-1632 L1213,-1632 L1213,-1631 L1213,-1631 
        L1213,-1631 L1214,-1631 L1214,-1630 L1214,-1630 L1214,-1630 L1214,-1630 L1215,-1629 L1215,-1629 L1215,-1629 
        L1215,-1629 L1215,-1628 L1215,-1628 L1216,-1628 L1216,-1627 L1216,-1627 L1216,-1627 L1216,-1626 L1216,-1626 
        L1216,-1626 L1217,-1625 L1217,-1625 L1217,-1625 L1217,-1624 L1217,-1624 L1217,-1624 L1217,-1623 L1217,-1623 
        L1218,-1622 L1218,-1621 L1218,-1621 L1218,-1620 L1218,-1619 L1218,-1619 L1219,-1618 L1219,-1617 L1219,-1619 
        L1219,-1619 L1219,-1618 L1219,-1617 L1219,-1617 L1219,-1616 L1219,-1616 L1219,-1615 L1219,-1614 L1219,-1614 
        L1219,-1613 L1220,-1618 L1220,-1617 L1220,-1616 L1220,-1616 L1220,-1615 L1220,-1614 L1220,-1614 L1220,-1614 
        L1220,-1614 L1220,-1614 L1220,-1614 L1220,-1614 L1220,-1614 L1220,-1614 L1220,-1614 L1220,-1614 L1220,-1614 
        L1220,-1614 L1220,-1614 L1220,-1614 L1220,-1614 L1220,-1614 L1220,-1614 L1220,-1614 L1220,-1614 L1220,-1614 
        L1221,-1614 L1221,-1614 L1221,-1614 L1221,-1614 L1221,-1614 L1221,-1614 L1221,-1614 L1221,-1614 L1221,-1614 
        L1221,-1614 L1221,-1614 L1221,-1614 L1221,-1614 L1221,-1614 L1220,-1615 Z" transform="matrix(0.33333, 0, 0, 0.33333, 0, 0)"
        stroke="none"/>
    <path fill="#141617" d="M1221,-1614 L1221,-1615 L1220,-1615 L1220,-1614 L1221,-1614 L1221,-1614 L1221,-1614 
        L1221,-1614 L1221,-1614 L1221,-1614 L1222,-1614 L1222,-1614 L1222,-1614 L1222,-1614 L1222,-1614 L1222,-1614 
        L1222,-1614 L1222,-1614 L1222,-1614 L1222,-1614 L1222,-1614 L1222,-1614 L1222,-1614 L1222,-1614 L1222,-1614 
        L1222,-1615 L1222,-1615 L1222,-1615 L1222,-1615 L1222,-1615 L1222,-1615 L1222,-1615 L1222,-1615 L1222,-1615 
        L1222,-1615 L1221,-1615 L1221,-1615 L1221,-1615 L1221,-1615 L1221,-1614 Z" transform="matrix(0.33333, 0, 0, 0.33333, 0, 0)"
        stroke="none"/>
    <path fill="#141617" d="M1233,-1614 L1232,-1615 L1221,-1615 L1221,-1614 L1232,-1614 L1233,-1614 L1232,-1614 
        L1232,-1614 L1233,-1614 L1233,-1614 L1233,-1614 L1233,-1614 L1233,-1614 L1233,-1614 L1233,-1614 L1233,-1614 
        L1233,-1614 L1233,-1614 L1233,-1614 L1233,-1614 L1233,-1614 L1233,-1614 L1233,-1614 L1233,-1614 L1233,-1614 
        L1233,-1615 L1233,-1615 L1233,-1615 L1233,-1615 L1233,-1615 L1233,-1615 L1233,-1615 L1233,-1615 L1233,-1615 
        L1233,-1615 L1233,-1615 L1233,-1615 L1232,-1615 L1232,-1615 L1233,-1614 Z" transform="matrix(0.33333, 0, 0, 0.33333, 0, 0)"
        stroke="none"/>
    <path fill="#141617" d="M1213,-1595 L1214,-1595 L1233,-1614 L1232,-1615 L1213,-1596 L1213,-1595 L1213,-1596 
        L1213,-1596 L1213,-1596 L1213,-1596 L1213,-1596 L1213,-1596 L1213,-1596 L1213,-1596 L1213,-1596 L1213,-1595 
        L1213,-1595 L1213,-1595 L1213,-1595 L1213,-1595 L1213,-1595 L1213,-1595 L1213,-1595 L1213,-1595 L1213,-1595 
        L1213,-1595 L1213,-1595 L1213,-1595 L1213,-1595 L1213,-1595 L1213,-1595 L1214,-1595 L1214,-1595 L1214,-1595 
        L1214,-1595 L1214,-1595 L1214,-1595 L1214,-1595 L1214,-1595 L1213,-1595 Z" transform="matrix(0.33333, 0, 0, 0.33333, 0, 0)"
        stroke="none"/>
    <path fill="#141617" d="M1195,-1615 L1194,-1614 L1213,-1595 L1214,-1596 L1195,-1615 L1195,-1615 L1195,-1615 
        L1195,-1615 L1195,-1615 L1195,-1615 L1195,-1615 L1195,-1615 L1195,-1615 L1195,-1615 L1195,-1615 L1195,-1615 
        L1194,-1615 L1194,-1615 L1194,-1615 L1194,-1615 L1194,-1615 L1194,-1615 L1194,-1615 L1194,-1615 L1194,-1615 
        L1194,-1615 L1194,-1615 L1194,-1615 L1194,-1614 L1194,-1614 L1194,-1614 L1194,-1614 L1194,-1614 L1194,-1614 
        L1194,-1614 L1194,-1614 L1194,-1614 L1194,-1614 L1194,-1614 L1195,-1615 Z" transform="matrix(0.33333, 0, 0, 0.33333, 0, 0)"
        stroke="none"/>
    <path fill="#141617" d="M1207,-1614 L1207,-1615 L1195,-1615 L1195,-1614 L1207,-1614 L1207,-1614 L1207,-1614 
        L1207,-1614 L1207,-1614 L1207,-1614 L1207,-1614 L1207,-1614 L1207,-1614 L1207,-1614 L1207,-1614 L1207,-1614 
        L1207,-1614 L1207,-1614 L1207,-1614 L1207,-1614 L1207,-1614 L1207,-1614 L1207,-1614 L1207,-1614 L1207,-1614 
        L1207,-1615 L1207,-1615 L1207,-1615 L1207,-1615 L1207,-1615 L1207,-1615 L1207,-1615 L1207,-1615 L1207,-1615 
        L1207,-1615 L1207,-1615 L1207,-1615 L1207,-1615 L1207,-1615 L1207,-1614 Z" transform="matrix(0.33333, 0, 0, 0.33333, 0, 0)"
        stroke="none"/>
    <path fill="#141617" d="M1191,-1637 L1191,-1636 L1191,-1636 L1192,-1636 L1192,-1636 L1193,-1636 L1193,-1635 
        L1193,-1635 L1194,-1635 L1194,-1635 L1194,-1635 L1194,-1635 L1195,-1635 L1195,-1635 L1195,-1635 L1196,-1635 
        L1196,-1634 L1196,-1634 L1196,-1634 L1197,-1634 L1197,-1634 L1197,-1634 L1197,-1633 L1198,-1633 L1198,-1633 
        L1198,-1633 L1198,-1633 L1199,-1632 L1199,-1632 L1199,-1632 L1199,-1632 L1199,-1631 L1200,-1631 L1200,-1631 
        L1200,-1631 L1200,-1630 L1200,-1630 L1201,-1630 L1201,-1630 L1201,-1629 L1201,-1629 L1201,-1629 L1201,-1628 
        L1202,-1628 L1202,-1628 L1202,-1628 L1202,-1627 L1202,-1627 L1202,-1627 L1203,-1626 L1203,-1626 L1203,-1626 
        L1203,-1625 L1203,-1625 L1203,-1625 L1203,-1624 L1203,-1624 L1203,-1624 L1204,-1623 L1204,-1622 L1204,-1622 
        L1204,-1621 L1204,-1620 L1205,-1620 L1205,-1619 L1205,-1618 L1205,-1618 L1205,-1619 L1205,-1619 L1205,-1618 
        L1205,-1617 L1205,-1617 L1206,-1616 L1206,-1616 L1206,-1615 L1206,-1615 L1206,-1614 L1206,-1613 L1206,-1618 
        L1206,-1617 L1206,-1616 L1206,-1616 L1206,-1615 L1206,-1614 L1207,-1614 L1207,-1615 L1207,-1616 L1207,-1616 
        L1207,-1617 L1207,-1613 L1207,-1614 L1207,-1614 L1207,-1615 L1207,-1615 L1207,-1616 L1207,-1616 L1207,-1617 
        L1207,-1618 L1207,-1618 L1207,-1619 L1207,-1617 L1206,-1618 L1206,-1619 L1206,-1619 L1206,-1620 L1206,-1621 
        L1206,-1621 L1206,-1622 L1205,-1623 L1205,-1623 L1205,-1624 L1205,-1624 L1205,-1625 L1205,-1625 L1204,-1626 
        L1204,-1626 L1204,-1626 L1204,-1627 L1204,-1627 L1204,-1627 L1204,-1628 L1203,-1628 L1203,-1628 L1203,-1629 
        L1203,-1629 L1203,-1629 L1203,-1629 L1202,-1630 L1202,-1630 L1202,-1630 L1202,-1631 L1202,-1631 L1202,-1631 
        L1201,-1632 L1201,-1632 L1201,-1632 L1201,-1632 L1200,-1633 L1200,-1633 L1200,-1633 L1200,-1633 L1199,-1634 
        L1199,-1634 L1199,-1634 L1199,-1634 L1198,-1635 L1198,-1635 L1198,-1635 L1198,-1635 L1197,-1635 L1197,-1636 
        L1197,-1636 L1196,-1636 L1196,-1636 L1196,-1636 L1195,-1636 L1195,-1636 L1195,-1637 L1194,-1637 L1194,-1637 
        L1194,-1637 L1193,-1637 L1193,-1637 L1192,-1637 L1192,-1637 L1192,-1637 L1191,-1637 L1191,-1636 L1191,-1637 
        L1191,-1637 L1191,-1637 L1191,-1637 L1191,-1637 L1191,-1637 L1191,-1637 L1191,-1637 L1191,-1637 L1191,-1637 
        L1191,-1637 L1191,-1637 L1190,-1637 L1190,-1637 L1190,-1637 L1190,-1637 L1190,-1637 L1190,-1636 L1190,-1636 
        L1190,-1636 L1190,-1636 L1190,-1636 L1190,-1636 L1191,-1636 L1191,-1636 L1191,-1636 L1191,-1636 L1191,-1636 
        L1191,-1636 L1191,-1636 L1191,-1636 L1191,-1636 L1191,-1636 L1191,-1637 Z" transform="matrix(0.33333, 0, 0, 0.33333, 0, 0)"
        stroke="none"/>
    <path fill="#ffffff" stroke-width="2" d="M1179,-1539 L1165,-1539 L1164,-1540 L1163,-1540 L1161,-1541 L1160,-1541 
        L1159,-1542 L1158,-1543 L1157,-1544 L1156,-1545 L1155,-1546 L1155,-1547 L1154,-1548 L1153,-1550 L1153,-1551 
        L1152,-1552 L1152,-1554 L1152,-1555 L1151,-1556 L1151,-1558 L1151,-1559 L1151,-1560 L1150,-1562 L1150,-1563 
        L1150,-1556 L1150,-1557 L1150,-1558 L1150,-1559 L1150,-1560 L1150,-1560 L1150,-1561 L1150,-1561 L1149,-1561 
        L1138,-1561 L1157,-1580 L1176,-1561 L1164,-1561 L1164,-1561 L1164,-1560 L1164,-1560 L1164,-1559 L1164,-1558 
        L1164,-1557 L1164,-1556 L1164,-1563 L1164,-1562 L1164,-1560 L1165,-1559 L1165,-1558 L1165,-1556 L1165,-1555 
        L1166,-1553 L1166,-1552 L1167,-1551 L1167,-1549 L1168,-1548 L1168,-1547 L1169,-1546 L1170,-1545 L1171,-1544 
        L1172,-1543 L1173,-1542 L1174,-1541 L1175,-1540 L1176,-1540 L1178,-1540 L1179,-1539 L1179,-1539 Z" fill-rule="evenodd"
        transform="matrix(0.33333, 0, 0, 0.33333, 0, 0)" stroke="#231f20"/>
    <path fill="#ffffff" d="M1187,-1545 C1185,-1541 1179,-1539 1179,-1539 C1176,-1539 1173,-1542 1173,-1542 C1176,-1545 
        1176,-1545 1176,-1545" stroke-width="2" transform="matrix(0.33333, 0, 0, 0.33333, 0, 0)" stroke="#231f20"/>
    <path fill="#ffffff" d="M1187,-1545 C1185,-1541 1179,-1539 1179,-1539 C1176,-1539 1173,-1542 1173,-1542 C1176,-1545 
        1176,-1545 1176,-1545" stroke-width="2" transform="matrix(0.33333, 0, 0, 0.33333, 0, 0)" stroke="#231f20"/>
</svg>