<?xml version="1.0" standalone="no"?>
<!DOCTYPE svg PUBLIC "-//W3C//DTD SVG 1.0//EN"
    "http://www.w3.org/TR/2001/REC-SVG-20010904/DTD/svg10.dtd">
<?xml-stylesheet type="text/css" href="..\cisco_network.css" ?>
<svg contentScriptType="text/ecmascript" zoomAndPan="magnify" xmlns:xlink="http://www.w3.org/1999/xlink" baseProfile="full"
    contentStyleType="text/css" enable-background="new" version="1.0" width="57.6" preserveAspectRatio="none" viewBox="580.99 -524.99 65.024 36.992"
    height="32.7685" xmlns="http://www.w3.org/2000/svg" color-interpolation-filters="sRGB" x="0" y="1.5">
    <path d="M1745,-1525 L1803,-1572 L1936,-1572 L1889,-1525 L1745,-1525 Z M1889,-1466 L1936,-1514 L1936,-1572 
        L1889,-1525 L1889,-1466 Z M1889,-1466 L1889,-1525 L1746,-1525 L1746,-1466 L1889,-1466 Z" stroke-width="2"
        transform="matrix(0.33333, 0, 0, 0.33333, 0, 0)"/>
    <path fill="none" d="M1880,-1494 C1880,-1494 1871,-1469 1860,-1494 C1848,-1518 1839,-1494 1839,-1494 C1839,-1494 
        1829,-1469 1818,-1494 C1806,-1519 1797,-1494 1797,-1494 C1797,-1494 1787,-1469 1776,-1494 C1764,-1518 1755,-1494 
        1755,-1494" stroke-width="2" transform="matrix(0.33333, 0, 0, 0.33333, 0, 0)" stroke-linecap="round"/>
    <path fill="none" d="M1755,-1494 C1755,-1494 1764,-1469 1776,-1494 C1787,-1518 1797,-1494 1797,-1494 C1797,-1494 
        1806,-1469 1818,-1494 C1829,-1519 1839,-1494 1839,-1494 C1839,-1494 1848,-1469 1860,-1494 C1871,-1518 1880,-1494 
        1880,-1494" stroke-width="4" transform="matrix(0.33333, 0, 0, 0.33333, 0, 0)" stroke-linecap="round"/>
    <path fill="none" d="M1883,-1494 C1883,-1494 1873,-1469 1862,-1494 C1850,-1518 1841,-1494 1841,-1494 C1841,-1494 
        1831,-1469 1820,-1494 C1808,-1519 1799,-1494 1799,-1494 C1799,-1494 1789,-1469 1778,-1494 C1767,-1518 1757,-1494 
        1757,-1494" stroke-width="2" transform="matrix(0.33333, 0, 0, 0.33333, 0, 0)" stroke="#000000" stroke-linecap="round"/>
    <path fill="none" d="M1757,-1494 C1757,-1494 1767,-1469 1778,-1494 C1789,-1518 1799,-1494 1799,-1494 C1799,-1494 
        1808,-1469 1820,-1494 C1831,-1519 1841,-1494 1841,-1494 C1841,-1494 1850,-1469 1862,-1494 C1873,-1518 1883,-1494 
        1883,-1494" stroke-width="4" transform="matrix(0.33333, 0, 0, 0.33333, 0, 0)" stroke="#000000" stroke-linecap="round"/>
    <path fill="none" d="M1880,-1494 C1880,-1494 1871,-1469 1860,-1494 C1848,-1518 1839,-1494 1839,-1494 C1839,-1494 
        1829,-1469 1818,-1494 C1806,-1519 1797,-1494 1797,-1494 C1797,-1494 1787,-1469 1776,-1494 C1764,-1518 1755,-1494 
        1755,-1494" stroke-width="2" transform="matrix(0.33333, 0, 0, 0.33333, 0, 0)" stroke-linecap="round"/>
    <path fill="none" d="M1755,-1494 C1755,-1494 1764,-1469 1776,-1494 C1787,-1518 1797,-1494 1797,-1494 C1797,-1494 
        1806,-1469 1818,-1494 C1829,-1519 1839,-1494 1839,-1494 C1839,-1494 1848,-1469 1860,-1494 C1871,-1518 1880,-1494 
        1880,-1494" stroke-width="4" transform="matrix(0.33333, 0, 0, 0.33333, 0, 0)" stroke-linecap="round"/>
    <path fill="none" d="M1883,-1494 C1883,-1494 1873,-1469 1862,-1494 C1850,-1518 1841,-1494 1841,-1494 C1841,-1494 
        1831,-1469 1820,-1494 C1808,-1519 1799,-1494 1799,-1494 C1799,-1494 1789,-1469 1778,-1494 C1767,-1518 1757,-1494 
        1757,-1494" stroke-width="2" transform="matrix(0.33333, 0, 0, 0.33333, 0, 0)" stroke="#000000" stroke-linecap="round"/>
    <path fill="none" d="M1757,-1494 C1757,-1494 1767,-1469 1778,-1494 C1789,-1518 1799,-1494 1799,-1494 C1799,-1494 
        1808,-1469 1820,-1494 C1831,-1519 1841,-1494 1841,-1494 C1841,-1494 1850,-1469 1862,-1494 C1873,-1518 1883,-1494 
        1883,-1494" stroke-width="4" transform="matrix(0.33333, 0, 0, 0.33333, 0, 0)" stroke="#000000" stroke-linecap="round"/>
    <path fill="none" d="M1880,-1494 C1880,-1494 1871,-1469 1860,-1494 C1848,-1518 1839,-1494 1839,-1494 C1839,-1494 
        1829,-1469 1818,-1494 C1806,-1519 1797,-1494 1797,-1494 C1797,-1494 1787,-1469 1776,-1494 C1764,-1518 1755,-1494 
        1755,-1494" stroke-width="2" transform="matrix(0.33333, 0, 0, 0.33333, 0, 0)" stroke-linecap="round"/>
    <path fill="none" d="M1755,-1494 C1755,-1494 1764,-1469 1776,-1494 C1787,-1518 1797,-1494 1797,-1494 C1797,-1494 
        1806,-1469 1818,-1494 C1829,-1519 1839,-1494 1839,-1494 C1839,-1494 1848,-1469 1860,-1494 C1871,-1518 1880,-1494 
        1880,-1494" stroke-width="4" transform="matrix(0.33333, 0, 0, 0.33333, 0, 0)" stroke-linecap="round"/>
    <path fill="none" d="M1933,-1539 C1933,-1539 1929,-1511 1927,-1532 C1924,-1554 1920,-1525 1920,-1525 C1920,-1525 
        1916,-1497 1913,-1518 C1911,-1540 1907,-1511 1907,-1511 C1907,-1511 1903,-1483 1900,-1504 C1898,-1526 1894,-1497 
        1894,-1497" transform="matrix(0.33333, 0, 0, 0.33333, 0, 0)" stroke-linecap="round" stroke="#000000"/>
    <path fill="none" d="M1894,-1497 C1894,-1497 1895,-1475 1900,-1504 C1905,-1534 1907,-1511 1907,-1511 C1907,-1511 
        1909,-1489 1913,-1519 C1918,-1548 1920,-1525 1920,-1525 C1920,-1525 1922,-1503 1927,-1532 C1931,-1562 1933,-1539 
        1933,-1539" stroke-width="2" transform="matrix(0.33333, 0, 0, 0.33333, 0, 0)" stroke="#000000" stroke-linecap="round"/>
    <path fill="none" d="M1933,-1539 C1933,-1539 1928,-1510 1926,-1532 C1923,-1553 1919,-1525 1919,-1525 C1919,-1525 
        1915,-1496 1913,-1518 C1910,-1539 1906,-1511 1906,-1511 C1906,-1511 1902,-1482 1899,-1504 C1897,-1525 1893,-1497 
        1893,-1497" transform="matrix(0.33333, 0, 0, 0.33333, 0, 0)" stroke-linecap="round"/>
    <path fill="none" d="M1893,-1497 C1893,-1497 1895,-1475 1899,-1504 C1904,-1533 1906,-1511 1906,-1511 C1906,-1511 
        1908,-1489 1913,-1518 C1917,-1547 1919,-1525 1919,-1525 C1919,-1525 1921,-1502 1926,-1532 C1931,-1561 1933,-1539 
        1933,-1539" stroke-width="2" transform="matrix(0.33333, 0, 0, 0.33333, 0, 0)" stroke-linecap="round"/>
    <path fill="#ffffff" d="M1849,-1562 L1844,-1563 L1862,-1567 L1869,-1561 L1864,-1562 L1863,-1562 L1853,-1555 
        L1840,-1555 L1850,-1562 L1849,-1562 Z" transform="matrix(0.33333, 0, 0, 0.33333, 0, 0)" stroke="none"/>
    <path fill="#ffffff" d="M1836,-1536 L1841,-1535 L1823,-1531 L1816,-1537 L1821,-1536 L1823,-1536 L1832,-1543 
        L1845,-1543 L1835,-1536 L1836,-1536 Z" transform="matrix(0.33333, 0, 0, 0.33333, 0, 0)" stroke="none"/>
    <path fill="#ffffff" d="M1809,-1549 L1788,-1549 L1795,-1554 L1816,-1554 L1818,-1557 L1828,-1550 L1804,-1543 
        L1809,-1549 Z" transform="matrix(0.33333, 0, 0, 0.33333, 0, 0)" stroke="none"/>
    <path fill="#ffffff" d="M1875,-1551 L1896,-1551 L1890,-1546 L1869,-1546 L1866,-1543 L1856,-1550 L1881,-1556 
        L1875,-1551 Z" transform="matrix(0.33333, 0, 0, 0.33333, 0, 0)" stroke="none"/>
</svg>