<?xml version="1.0" standalone="no"?>
<!DOCTYPE svg PUBLIC "-//W3C//DTD SVG 1.0//EN"
    "http://www.w3.org/TR/2001/REC-SVG-20010904/DTD/svg10.dtd">
<?xml-stylesheet type="text/css" href="..\cisco_network.css" ?>
<svg contentScriptType="text/ecmascript" zoomAndPan="magnify" xmlns:xlink="http://www.w3.org/1999/xlink" baseProfile="full"
    contentStyleType="text/css" enable-background="new" version="1.0" width="38.0976" preserveAspectRatio="none"
    viewBox="388 -560.99 43.008 37.984" height="33.6472" xmlns="http://www.w3.org/2000/svg" color-interpolation-filters="sRGB"
    x="0" y="1.5">
    <path stroke-width="2" d="M1167,-1572 L1167,-1668 L1278,-1668 L1278,-1572 L1167,-1572 Z" transform="matrix(0.33333, 0, 0, 0.33333, 0, 0)"/>
    <path stroke-width="2" d="M1180,-1682 L1167,-1668 L1278,-1668 L1291,-1682 L1180,-1682 Z M1291,-1585 L1291,-1682 
        L1278,-1668 L1278,-1572 L1291,-1585 Z M1269,-1660 L1178,-1660 L1178,-1579 L1269,-1579 L1269,-1660 Z" transform="matrix(0.33333, 0, 0, 0.33333, 0, 0)"/>
    <path stroke-linecap="square" transform="matrix(0.33333, 0, 0, 0.33333, 0, 0)" fill="none" stroke-dasharray="4" d=
        "M1214,-1627 L1182,-1616" stroke="#ffffff" stroke-width="2"/>
    <path d="M1229,-1635 L1269,-1650 L1269,-1641 L1229,-1635 Z" stroke-width="2" transform="matrix(0.33333, 0, 0, 0.33333, 0, 0)"
        stroke="#ffffff"/>
    <path d="M1229,-1635 L1269,-1640 L1269,-1632 L1229,-1635 Z" transform="matrix(0.33333, 0, 0, 0.33333, 0, 0)" stroke="none"/>
    <path fill="none" d="M1229,-1635 L1269,-1640 L1269,-1632 L1229,-1635" stroke-width="2" transform="matrix(0.33333, 0, 0, 0.33333, 0, 0)"
        stroke="#ffffff"/>
    <path d="M1229,-1635 L1269,-1632 L1269,-1623 L1229,-1635 Z" transform="matrix(0.33333, 0, 0, 0.33333, 0, 0)" stroke="none"/>
    <path fill="none" d="M1229,-1635 L1269,-1632 L1269,-1623 L1229,-1635" stroke-width="2" transform="matrix(0.33333, 0, 0, 0.33333, 0, 0)"
        stroke="#ffffff"/>
    <path fill="#ffffff" d="M1253,-1592 L1196,-1592 L1224,-1649 L1224,-1649 L1253,-1592 Z" transform="matrix(0.33333, 0, 0, 0.33333, 0, 0)"
        stroke="none"/>
</svg>