<?xml version="1.0" standalone="no"?>
<!DOCTYPE svg PUBLIC "-//W3C//DTD SVG 1.0//EN"
    "http://www.w3.org/TR/2001/REC-SVG-20010904/DTD/svg10.dtd">
<?xml-stylesheet type="text/css" href="..\cisco_network.css" ?>
<svg contentScriptType="text/ecmascript" zoomAndPan="magnify" xmlns:xlink="http://www.w3.org/1999/xlink" baseProfile="full"
    contentStyleType="text/css" enable-background="new" version="1.0" width="44.3055" preserveAspectRatio="none"
    viewBox="388 -568 50.016 60" height="53.1496" xmlns="http://www.w3.org/2000/svg" color-interpolation-filters="sRGB"
    x="0" y="1.5">
    <path stroke-width="2" d="M1204,-1680 C1237,-1621 1237,-1621 1237,-1621 C1241,-1613 1238,-1602 1230,-1598 
        C1230,-1598 1230,-1598 1230,-1598 C1222,-1593 1212,-1596 1207,-1604 C1175,-1662 1175,-1662 1175,-1662"
        transform="matrix(0.33333, 0, 0, 0.33333, 0, 0)"/>
    <path stroke-width="2" d="M1204,-1680 C1237,-1621 1237,-1621 1237,-1621 C1241,-1613 1238,-1602 1230,-1598 
        C1230,-1598 1230,-1598 1230,-1598 C1222,-1593 1212,-1596 1207,-1604 C1175,-1662 1175,-1662 1175,-1662"
        transform="matrix(0.33333, 0, 0, 0.33333, 0, 0)"/>
    <path stroke-width="2" d="M1204,-1680 C1237,-1621 1237,-1621 1237,-1621 C1241,-1613 1238,-1602 1230,-1598 
        C1230,-1598 1230,-1598 1230,-1598 C1222,-1593 1212,-1596 1207,-1604 C1175,-1662 1175,-1662 1175,-1662"
        transform="matrix(0.33333, 0, 0, 0.33333, 0, 0)"/>
    <path d="M1204,-1680 C1237,-1621 1237,-1621 1237,-1621 C1241,-1613 1238,-1602 1230,-1598 C1230,-1598 1230,-1598 
        1230,-1598 C1222,-1593 1212,-1596 1207,-1604 C1175,-1662 1175,-1662 1175,-1662" transform="matrix(0.33333, 0, 0, 0.33333, 0, 0)"/>
    <path stroke-width="2" d="M1214,-1526 C1189,-1526 1169,-1532 1169,-1540 C1169,-1548 1189,-1554 1214,-1554 
        C1239,-1554 1259,-1548 1259,-1540 C1259,-1532 1239,-1526 1214,-1526 Z" transform="matrix(0.33333, 0, 0, 0.33333, 0, 0)"/>
    <path stroke-width="2" d="M1214,-1544 C1202,-1544 1192,-1547 1192,-1551 C1192,-1555 1202,-1558 1214,-1558 
        C1227,-1558 1237,-1555 1237,-1551 C1237,-1547 1227,-1544 1214,-1544 Z" transform="matrix(0.33333, 0, 0, 0.33333, 0, 0)"/>
    <path d="M1204,-1679 C1209,-1671 1204,-1664 1196,-1660 C1196,-1660 1196,-1660 1196,-1660 C1188,-1655 1179,-1654 
        1175,-1662 C1169,-1673 1169,-1673 1169,-1673 C1168,-1675 1168,-1675 1168,-1675 C1163,-1683 1165,-1697 1173,-1701 
        C1173,-1701 1173,-1701 1173,-1701 C1181,-1706 1192,-1701 1197,-1692 C1198,-1691 1198,-1691 1198,-1691 Z"
        stroke-width="2" transform="matrix(0.33333, 0, 0, 0.33333, 0, 0)"/>
    <path d="M1214,-1548 C1211,-1548 1209,-1550 1209,-1553 C1209,-1633 1209,-1633 1209,-1633 C1209,-1636 1211,-1638 
        1214,-1638 C1214,-1638 1214,-1638 1214,-1638 C1217,-1638 1219,-1636 1219,-1633 C1219,-1553 1219,-1553 1219,-1553 
        C1219,-1550 1217,-1548 1214,-1548 Z" stroke-width="2" transform="matrix(0.33333, 0, 0, 0.33333, 0, 0)"/>
    <path d="M1215,-1624 C1218,-1624 1221,-1626 1221,-1629 C1221,-1632 1218,-1635 1215,-1635 C1212,-1635 1210,-1632 
        1210,-1629 C1210,-1626 1212,-1624 1215,-1624 Z" stroke-width="2" transform="matrix(0.33333, 0, 0, 0.33333, 0, 0)"/>
    <path fill="none" stroke-width="2" d="M1205,-1679 C1209,-1670 1205,-1664 1196,-1659 C1196,-1659 1196,-1659 
        1196,-1659 C1188,-1655 1180,-1654 1175,-1662" transform="matrix(0.33333, 0, 0, 0.33333, 0, 0)"/>
    <path fill="none" d="M1202,-1683 C1207,-1675 1202,-1668 1194,-1664 C1194,-1664 1194,-1664 1194,-1664 C1186,-1659 
        1177,-1658 1173,-1666" transform="matrix(0.33333, 0, 0, 0.33333, 0, 0)"/>
    <path fill="none" d="M1200,-1686 C1204,-1678 1199,-1672 1192,-1667 C1192,-1667 1192,-1667 1192,-1667 C1184,-1663 
        1176,-1662 1171,-1670" transform="matrix(0.33333, 0, 0, 0.33333, 0, 0)"/>
    <path fill="none" d="M1198,-1689 C1202,-1682 1197,-1676 1189,-1671 C1189,-1671 1189,-1671 1189,-1671 C1181,-1667 
        1173,-1666 1169,-1674" transform="matrix(0.33333, 0, 0, 0.33333, 0, 0)"/>
    <path fill="none" d="M1196,-1693 C1200,-1686 1195,-1680 1187,-1675 C1187,-1675 1187,-1675 1187,-1675 C1179,-1671 
        1171,-1670 1167,-1678" transform="matrix(0.33333, 0, 0, 0.33333, 0, 0)"/>
    <path fill="none" d="M1193,-1697 C1197,-1689 1193,-1683 1185,-1679 C1185,-1679 1185,-1679 1185,-1679 C1178,-1675 
        1170,-1674 1166,-1681" transform="matrix(0.33333, 0, 0, 0.33333, 0, 0)"/>
    <path fill="none" d="M1190,-1699 C1193,-1692 1189,-1687 1183,-1684 C1183,-1684 1183,-1684 1183,-1684 C1176,-1680 
        1170,-1679 1166,-1686" transform="matrix(0.33333, 0, 0, 0.33333, 0, 0)"/>
    <path fill="none" d="M1186,-1701 C1189,-1695 1186,-1691 1180,-1688 C1180,-1688 1180,-1688 1180,-1688 C1175,-1685 
        1169,-1684 1166,-1690" transform="matrix(0.33333, 0, 0, 0.33333, 0, 0)"/>
    <path fill="none" d="M1231,-1601 C1234,-1587 1234,-1566 1249,-1560 C1253,-1558 1258,-1559 1263,-1557 C1273,-1554 
        1277,-1543 1286,-1536 C1294,-1530 1304,-1530 1313,-1534" stroke-width="2" transform="matrix(0.33333, 0, 0, 0.33333, 0, 0)"
        stroke="#0b719f"/>
</svg>