<?xml version="1.0" standalone="no"?>
<!DOCTYPE svg PUBLIC "-//W3C//DTD SVG 1.0//EN"
    "http://www.w3.org/TR/2001/REC-SVG-20010904/DTD/svg10.dtd">
<?xml-stylesheet type="text/css" href="..\cisco_network.css" ?>
<svg contentScriptType="text/ecmascript" zoomAndPan="magnify" xmlns:xlink="http://www.w3.org/1999/xlink" baseProfile="full"
    contentStyleType="text/css" enable-background="new" version="1.0" width="43.3984" preserveAspectRatio="none"
    viewBox="384 -556.99 48.992 33.984" height="30.1039" xmlns="http://www.w3.org/2000/svg" color-interpolation-filters="sRGB"
    x="0" y="1.5">
    <path d="M1299,-1641 C1299,-1625 1266,-1613 1226,-1613 C1186,-1613 1153,-1625 1153,-1641 C1153,-1599 1153,-1599 
        1153,-1599 C1153,-1584 1186,-1571 1226,-1571 C1266,-1571 1299,-1584 1299,-1599 Z" stroke-width="2" transform="matrix(0.33333, 0, 0, 0.33333, 0, 0)"/>
    <path d="M1299,-1641 C1299,-1625 1266,-1613 1226,-1613 C1186,-1613 1153,-1625 1153,-1641 C1153,-1599 1153,-1599 
        1153,-1599 C1153,-1584 1186,-1571 1226,-1571 C1266,-1571 1299,-1584 1299,-1599 Z" stroke-width="2" transform="matrix(0.33333, 0, 0, 0.33333, 0, 0)"/>
    <path d="M1226,-1613 C1266,-1613 1299,-1625 1299,-1641 C1299,-1656 1266,-1669 1226,-1669 C1186,-1669 1153,-1656 
        1153,-1641 C1153,-1625 1186,-1613 1226,-1613 Z" stroke-width="2" transform="matrix(0.33333, 0, 0, 0.33333, 0, 0)"/>
    <path d="M1259,-1632 L1275,-1626 L1259,-1619 L1259,-1624 L1180,-1624 L1180,-1630 L1259,-1630 L1259,-1632 Z" stroke="none"
        transform="matrix(0.33333, 0, 0, 0.33333, 0, 0)"/>
    <path fill="#ffffff" d="M1196,-1649 C1199,-1649 1199,-1649 1199,-1649 C1202,-1640 1202,-1639 1202,-1637 C1202,-1637 
        1202,-1637 1202,-1637 C1202,-1638 1203,-1640 1204,-1649 C1208,-1649 1208,-1649 1208,-1649 C1210,-1640 1210,-1639 
        1210,-1637 C1210,-1637 1210,-1637 1210,-1637 C1211,-1638 1211,-1640 1213,-1649 C1216,-1649 1216,-1649 1216,-1649 
        C1212,-1632 1212,-1632 1212,-1632 C1209,-1632 1209,-1632 1209,-1632 C1207,-1640 1207,-1642 1206,-1645 
        C1206,-1645 1206,-1645 1206,-1645 C1206,-1642 1205,-1641 1204,-1632 C1200,-1632 1200,-1632 1200,-1632 Z"
        transform="matrix(0.33333, 0, 0, 0.33333, 0, 0)" stroke="none"/>
    <path fill="#ffffff" d="M1217,-1649 C1221,-1649 1221,-1649 1221,-1649 C1223,-1640 1223,-1639 1223,-1637 C1223,-1637 
        1223,-1637 1223,-1637 C1224,-1638 1224,-1640 1226,-1649 C1229,-1649 1229,-1649 1229,-1649 C1231,-1640 1231,-1639 
        1232,-1637 C1232,-1637 1232,-1637 1232,-1637 C1232,-1638 1232,-1640 1234,-1649 C1238,-1649 1238,-1649 1238,-1649 
        C1233,-1632 1233,-1632 1233,-1632 C1230,-1632 1230,-1632 1230,-1632 C1228,-1640 1228,-1642 1227,-1645 
        C1227,-1645 1227,-1645 1227,-1645 C1227,-1642 1227,-1641 1225,-1632 C1222,-1632 1222,-1632 1222,-1632 Z"
        transform="matrix(0.33333, 0, 0, 0.33333, 0, 0)" stroke="none"/>
    <path fill="#ffffff" d="M1238,-1649 C1242,-1649 1242,-1649 1242,-1649 C1244,-1640 1244,-1639 1245,-1637 C1245,-1637 
        1245,-1637 1245,-1637 C1245,-1638 1245,-1640 1247,-1649 C1250,-1649 1250,-1649 1250,-1649 C1252,-1640 1252,-1639 
        1253,-1637 C1253,-1637 1253,-1637 1253,-1637 C1253,-1638 1253,-1640 1256,-1649 C1259,-1649 1259,-1649 1259,-1649 
        C1254,-1632 1254,-1632 1254,-1632 C1251,-1632 1251,-1632 1251,-1632 C1249,-1640 1249,-1642 1249,-1645 
        C1249,-1645 1249,-1645 1249,-1645 C1248,-1642 1248,-1641 1246,-1632 C1243,-1632 1243,-1632 1243,-1632 Z"
        transform="matrix(0.33333, 0, 0, 0.33333, 0, 0)" stroke="none"/>
</svg>