<?xml version="1.0" standalone="no"?>
<!DOCTYPE svg PUBLIC "-//W3C//DTD SVG 1.0//EN"
    "http://www.w3.org/TR/2001/REC-SVG-20010904/DTD/svg10.dtd">
<?xml-stylesheet type="text/css" href="..\cisco_network.css" ?>
<svg contentScriptType="text/ecmascript" zoomAndPan="magnify" xmlns:xlink="http://www.w3.org/1999/xlink" baseProfile="full"
    contentStyleType="text/css" enable-background="new" version="1.0" width="50.485" preserveAspectRatio="none" viewBox="447.01 -575.01 56.992 51.008"
    height="45.1843" xmlns="http://www.w3.org/2000/svg" color-interpolation-filters="sRGB" x="0" y="1.5">
    <path stroke-linecap="round" transform="matrix(0.33333, 0, 0, 0.33333, 0, 0)" fill="none" stroke-linejoin="round" d=
        "M1342,-1639 L1394,-1639 M1358,-1624 L1393,-1624 M1394,-1660 L1365,-1660 M1352,-1647 L1393,-1647 M1476,-1574 
        L1398,-1574 L1432,-1595 L1511,-1595 L1476,-1574 Z M1432,-1595 L1398,-1574 L1398,-1705 L1432,-1724 L1432,-1595 Z 
        M1475,-1705 L1398,-1705 L1432,-1724 L1511,-1725 L1475,-1705 Z M1476,-1574 L1398,-1574 L1398,-1705 L1475,-1705 
        L1476,-1574 Z" stroke="#0c719f" stroke-width="3"/>
    <path stroke-linecap="round" transform="matrix(0.33333, 0, 0, 0.33333, 0, 0)" fill="none" stroke-linejoin="round" d=
        "M1511,-1595 L1476,-1574 L1475,-1705 L1511,-1725 L1511,-1595 Z" stroke="#000000" stroke-width="4"/>
    <path stroke-linecap="round" transform="matrix(0.33333, 0, 0, 0.33333, 0, 0)" fill="none" stroke-linejoin="round" d=
        "M1511,-1595 L1476,-1574 L1475,-1705 L1511,-1725 L1511,-1595 Z M1511,-1595 L1476,-1574 L1475,-1705 L1511,-1725 
        L1511,-1595 Z" stroke="#0c719f" stroke-width="3"/>
    <path fill="none" d="M1468,-1698 C1468,-1698 1466,-1698 1465,-1698 C1464,-1699 1462,-1699 1462,-1699" transform="matrix(0.33333, 0, 0, 0.33333, 0, 0)"
        stroke-linejoin="round"/>
    <path d="M1467,-1648 C1469,-1652 1473,-1671 1473,-1674 C1473,-1677 1472,-1680 1471,-1681 C1471,-1682 1471,-1682 
        1471,-1682 C1471,-1683 1470,-1683 1470,-1683 C1470,-1683 1470,-1683 1470,-1683 C1470,-1683 1471,-1687 1472,-1690 
        C1473,-1696 1473,-1698 1473,-1698 C1473,-1699 1473,-1699 1472,-1699 C1469,-1700 1469,-1700 1469,-1700 
        C1468,-1701 1468,-1700 1467,-1699 C1467,-1699 1466,-1697 1464,-1691 C1463,-1688 1462,-1686 1462,-1686 
        C1462,-1686 1462,-1686 1462,-1686 C1460,-1686 1458,-1687 1456,-1688 C1451,-1689 1445,-1690 1440,-1691 
        C1440,-1691 1440,-1691 1439,-1690 C1439,-1690 1439,-1690 1439,-1690 C1438,-1690 1435,-1687 1434,-1685 
        C1433,-1683 1427,-1663 1426,-1660 C1424,-1656 1422,-1646 1421,-1641 C1421,-1636 1420,-1627 1417,-1616 
        C1415,-1609 1412,-1599 1410,-1595 C1410,-1594 1406,-1588 1411,-1586 C1416,-1584 1423,-1582 1426,-1581 
        C1430,-1580 1437,-1578 1442,-1578 C1447,-1577 1447,-1583 1447,-1584 C1448,-1589 1451,-1599 1453,-1606 
        C1456,-1617 1460,-1625 1461,-1630 C1463,-1635 1466,-1644 1467,-1648 Z" transform="matrix(0.33333, 0, 0, 0.33333, 0, 0)"
        stroke="none"/>
    <path d="M1462,-1647 C1463,-1651 1468,-1671 1468,-1674 C1468,-1676 1467,-1680 1466,-1680 C1466,-1681 1466,-1682 
        1466,-1682 C1465,-1682 1465,-1682 1465,-1682 C1465,-1682 1465,-1682 1465,-1682 C1465,-1682 1466,-1687 1466,-1690 
        C1468,-1695 1468,-1697 1468,-1697 C1468,-1698 1468,-1699 1467,-1699 C1464,-1700 1464,-1700 1464,-1700 
        C1463,-1700 1462,-1700 1462,-1699 C1462,-1699 1461,-1696 1459,-1691 C1458,-1688 1457,-1685 1457,-1685 
        C1457,-1685 1457,-1685 1457,-1685 C1455,-1686 1453,-1687 1451,-1687 C1445,-1689 1440,-1690 1435,-1690 
        C1435,-1690 1435,-1690 1434,-1689 C1434,-1689 1434,-1689 1434,-1689 C1433,-1689 1430,-1687 1429,-1684 
        C1427,-1682 1421,-1663 1420,-1659 C1419,-1655 1417,-1645 1416,-1640 C1415,-1635 1414,-1627 1411,-1615 
        C1409,-1608 1406,-1598 1405,-1594 C1404,-1593 1401,-1588 1406,-1586 C1411,-1584 1418,-1582 1421,-1581 
        C1425,-1580 1432,-1578 1437,-1577 C1442,-1576 1442,-1583 1442,-1584 C1443,-1588 1446,-1599 1447,-1605 
        C1451,-1617 1454,-1625 1456,-1629 C1458,-1634 1461,-1644 1462,-1647 Z" transform="matrix(0.33333, 0, 0, 0.33333, 0, 0)"/>
    <path fill="none" d="M1438,-1577 C1443,-1576 1443,-1583 1443,-1584 C1444,-1588 1446,-1599 1448,-1605 C1451,-1617 
        1455,-1625 1457,-1629 C1458,-1634 1462,-1644 1463,-1647 C1464,-1651 1468,-1671 1469,-1674 C1469,-1676 1468,-1680 
        1466,-1680 C1466,-1681 1466,-1682 1466,-1682 C1466,-1682 1466,-1682 1465,-1682 C1466,-1682 1466,-1682 1466,-1682 
        C1466,-1682 1467,-1687 1467,-1690 C1468,-1695 1469,-1697 1469,-1697 C1469,-1698 1468,-1699 1468,-1699 
        C1464,-1700 1464,-1700 1464,-1700" transform="matrix(0.33333, 0, 0, 0.33333, 0, 0)" stroke-linejoin="round"/>
    <path fill="#000000" d="M1423,-1586 C1423,-1586 1423,-1586 1423,-1586 C1422,-1586 1422,-1586 1422,-1586 C1422,-1586 
        1422,-1586 1423,-1586 C1423,-1586 1423,-1586 1423,-1586 Z M1422,-1586 C1421,-1582 1421,-1582 1421,-1582 
        M1422,-1586 C1421,-1582 1421,-1582 1421,-1582 M1423,-1586 C1422,-1582 1422,-1582 1422,-1582 M1423,-1586 
        C1422,-1582 1422,-1582 1422,-1582 M1431,-1648 C1430,-1645 1430,-1645 1430,-1645 M1431,-1648 C1430,-1645 
        1430,-1645 1430,-1645 M1448,-1643 C1447,-1640 1447,-1640 1447,-1640 M1447,-1643 C1447,-1640 1447,-1640 
        1447,-1640" transform="matrix(0.33333, 0, 0, 0.33333, 0, 0)" stroke-linejoin="round"/>
    <path fill="#000000" d="M1423,-1586 C1423,-1586 1423,-1586 1423,-1586 C1422,-1586 1422,-1586 1422,-1586 C1422,-1586 
        1422,-1586 1423,-1586 C1423,-1586 1423,-1586 1423,-1586 Z M1422,-1586 C1421,-1582 1421,-1582 1421,-1582 
        M1422,-1586 C1421,-1582 1421,-1582 1421,-1582 M1423,-1586 C1422,-1582 1422,-1582 1422,-1582 M1423,-1586 
        C1422,-1582 1422,-1582 1422,-1582 M1431,-1648 C1430,-1645 1430,-1645 1430,-1645 M1431,-1648 C1430,-1645 
        1430,-1645 1430,-1645 M1448,-1643 C1447,-1640 1447,-1640 1447,-1640 M1447,-1643 C1447,-1640 1447,-1640 
        1447,-1640" transform="matrix(0.33333, 0, 0, 0.33333, 0, 0)" stroke-linejoin="round"/>
    <path d="M1465,-1682 C1465,-1682 1466,-1687 1466,-1690 C1468,-1695 1468,-1697 1468,-1697 C1468,-1698 1468,-1699 
        1467,-1699 C1464,-1700 1464,-1700 1464,-1700 C1463,-1700 1462,-1700 1462,-1699 C1462,-1699 1461,-1696 1459,-1691 
        C1458,-1688 1457,-1685 1457,-1685 M1465,-1684 C1463,-1685 1460,-1686 1457,-1687 M1435,-1690 C1435,-1690 
        1429,-1676 1425,-1662 C1420,-1645 1419,-1639 1420,-1631 C1420,-1630 1422,-1628 1424,-1627 C1424,-1627 1425,-1627 
        1425,-1627 C1426,-1627 1427,-1626 1428,-1625 C1429,-1625 1430,-1624 1430,-1624 C1431,-1624 1431,-1623 1433,-1623 
        C1435,-1622 1435,-1623 1436,-1623 C1436,-1622 1437,-1623 1438,-1623 C1440,-1623 1441,-1622 1441,-1622 
        C1442,-1622 1442,-1622 1443,-1622 C1445,-1621 1447,-1622 1448,-1624 C1453,-1630 1455,-1635 1460,-1652 
        C1464,-1667 1465,-1682 1465,-1682 M1431,-1683 C1437,-1682 1443,-1681 1449,-1680 C1454,-1678 1460,-1676 
        1465,-1674" transform="matrix(0.33333, 0, 0, 0.33333, 0, 0)" stroke="none"/>
    <path d="M1444,-1634 C1443,-1629 1439,-1627 1434,-1628 C1430,-1629 1427,-1634 1428,-1638 C1430,-1642 1434,-1645 
        1439,-1644 C1443,-1643 1446,-1638 1444,-1634 Z" transform="matrix(0.33333, 0, 0, 0.33333, 0, 0)"/>
    <path fill="#000000" d="M1447,-1677 L1450,-1687 Z" transform="matrix(0.33333, 0, 0, 0.33333, 0, 0)" stroke="none"/>
    <path fill="none" d="M1447,-1677 L1450,-1687" transform="matrix(0.33333, 0, 0, 0.33333, 0, 0)" stroke-linejoin="round"/>
    <path fill="none" d="M1448,-1677 L1451,-1687" transform="matrix(0.33333, 0, 0, 0.33333, 0, 0)" stroke-linejoin="round"/>
    <path fill="#000000" d="M1456,-1646 C1456,-1645 1456,-1645 1455,-1645 C1426,-1653 1426,-1653 1426,-1653 C1425,-1653 
        1425,-1654 1425,-1655 C1430,-1673 1430,-1673 1430,-1673 C1430,-1674 1431,-1674 1432,-1674 C1461,-1666 1461,-1666 
        1461,-1666 C1461,-1666 1462,-1665 1462,-1664 Z" transform="matrix(0.33333, 0, 0, 0.33333, 0, 0)"
        stroke-linejoin="round"/>
    <path fill="#ffffff" d="M1424,-1620 C1423,-1619 1422,-1618 1420,-1618 C1418,-1619 1417,-1620 1418,-1622 C1418,-1624 
        1420,-1625 1422,-1624 C1423,-1624 1424,-1622 1424,-1620 Z" transform="matrix(0.33333, 0, 0, 0.33333, 0, 0)"
        stroke="none"/>
    <path fill="#ffffff" d="M1418,-1601 C1418,-1599 1416,-1598 1414,-1599 C1413,-1599 1412,-1601 1412,-1603 C1412,-1604 
        1414,-1605 1416,-1605 C1418,-1604 1419,-1603 1418,-1601 Z" transform="matrix(0.33333, 0, 0, 0.33333, 0, 0)"
        stroke="none"/>
    <path fill="#ffffff" d="M1445,-1614 C1445,-1613 1443,-1612 1441,-1612 C1439,-1613 1438,-1614 1439,-1616 C1439,-1618 
        1441,-1619 1443,-1618 C1445,-1618 1446,-1616 1445,-1614 Z" transform="matrix(0.33333, 0, 0, 0.33333, 0, 0)"
        stroke="none"/>
    <path fill="#ffffff" d="M1439,-1595 C1439,-1593 1437,-1592 1435,-1593 C1434,-1593 1433,-1595 1433,-1596 C1434,-1598 
        1435,-1599 1437,-1599 C1439,-1598 1440,-1596 1439,-1595 Z" transform="matrix(0.33333, 0, 0, 0.33333, 0, 0)"
        stroke="none"/>
    <path fill="#ffffff" d="M1434,-1615 C1433,-1613 1432,-1612 1430,-1613 C1428,-1613 1427,-1615 1428,-1617 C1428,-1618 
        1430,-1619 1432,-1619 C1433,-1618 1434,-1617 1434,-1615 Z" transform="matrix(0.33333, 0, 0, 0.33333, 0, 0)"
        stroke="none"/>
    <path fill="#ffffff" d="M1421,-1611 C1421,-1609 1419,-1608 1417,-1608 C1415,-1609 1414,-1611 1415,-1612 C1415,-1614 
        1417,-1615 1419,-1614 C1421,-1614 1422,-1612 1421,-1611 Z" transform="matrix(0.33333, 0, 0, 0.33333, 0, 0)"
        stroke="none"/>
    <path fill="#ffffff" d="M1442,-1604 C1442,-1603 1440,-1602 1438,-1602 C1437,-1603 1436,-1604 1436,-1606 C1437,-1608 
        1438,-1609 1440,-1608 C1442,-1608 1443,-1606 1442,-1604 Z" transform="matrix(0.33333, 0, 0, 0.33333, 0, 0)"
        stroke="none"/>
    <path fill="#ffffff" d="M1431,-1605 C1431,-1603 1429,-1603 1427,-1603 C1425,-1603 1424,-1605 1425,-1607 C1425,-1609 
        1427,-1610 1429,-1609 C1431,-1609 1432,-1607 1431,-1605 Z" transform="matrix(0.33333, 0, 0, 0.33333, 0, 0)"
        stroke="none"/>
    <path fill="#ffffff" d="M1428,-1595 C1428,-1594 1426,-1593 1424,-1593 C1423,-1594 1422,-1595 1422,-1597 C1422,-1599 
        1424,-1600 1426,-1599 C1428,-1599 1429,-1597 1428,-1595 Z" transform="matrix(0.33333, 0, 0, 0.33333, 0, 0)"
        stroke="none"/>
</svg>