<?xml version="1.0" standalone="no"?>
<!DOCTYPE svg PUBLIC "-//W3C//DTD SVG 1.0//EN"
    "http://www.w3.org/TR/2001/REC-SVG-20010904/DTD/svg10.dtd">
<?xml-stylesheet type="text/css" href="..\cisco_network.css" ?>
<svg contentScriptType="text/ecmascript" zoomAndPan="magnify" xmlns:xlink="http://www.w3.org/1999/xlink" baseProfile="full"
    contentStyleType="text/css" enable-background="new" version="1.0" width="59.3291" preserveAspectRatio="none"
    viewBox="366.02 -831.01 66.976 46.016" height="40.7622" xmlns="http://www.w3.org/2000/svg"
    color-interpolation-filters="sRGB" x="0" y="1.5">
    <path stroke-width="2" d="M1100,-2476 L1100,-2357 L1282,-2357 L1282,-2476 L1100,-2476 L1100,-2476 L1100,-2476 
        L1100,-2476 Z M1100,-2476 L1100,-2357 L1282,-2357 L1282,-2476 L1100,-2476 L1100,-2476 L1100,-2476 L1100,-2476 Z 
        M1100,-2476 L1114,-2491 L1297,-2491 L1282,-2476 L1100,-2476 L1100,-2476 L1100,-2476 L1100,-2476 Z M1100,-2476 
        L1114,-2491 L1297,-2491 L1282,-2476 L1100,-2476 L1100,-2476 L1100,-2476 L1100,-2476 Z M1282,-2476 L1297,-2491 
        L1297,-2372 L1282,-2357 L1282,-2476 L1282,-2476 L1282,-2476 L1282,-2476 Z M1282,-2476 L1297,-2491 L1297,-2372 
        L1282,-2357 L1282,-2476 L1282,-2476 L1282,-2476 L1282,-2476 Z" transform="matrix(0.33333, 0, 0, 0.33333, 0, 0)"/>
    <path fill="#060606" d="M1246,-2450 L1246,-2457 L1263,-2445 L1246,-2434 L1246,-2441 L1224,-2441 L1224,-2450 
        L1246,-2450 L1246,-2450 L1246,-2450 L1246,-2450 Z M1155,-2391 L1155,-2398 L1171,-2386 L1155,-2374 L1155,-2381 
        L1112,-2381 L1112,-2391 L1155,-2391 L1155,-2391 L1155,-2391 L1155,-2391 Z M1246,-2390 L1246,-2397 L1263,-2386 
        L1246,-2374 L1246,-2381 L1224,-2381 L1224,-2390 L1246,-2390 L1246,-2390 L1246,-2390 L1246,-2390 Z" fill-rule="evenodd"
        transform="matrix(0.33333, 0, 0, 0.33333, 0, 0)" stroke="none"/>
    <path fill="#ffffff" d="M1244,-2452 L1244,-2459 L1261,-2448 L1244,-2436 L1244,-2443 L1222,-2443 L1222,-2452 
        L1244,-2452 L1244,-2452 L1244,-2452 L1244,-2452 Z M1152,-2393 L1152,-2400 L1169,-2388 L1152,-2377 L1152,-2384 
        L1110,-2384 L1110,-2393 L1152,-2393 L1152,-2393 L1152,-2393 L1152,-2393 Z" fill-rule="evenodd" transform="matrix(0.33333, 0, 0, 0.33333, 0, 0)"
        stroke="none"/>
    <path fill="#060606" d="M1261,-2420 L1261,-2427 L1278,-2416 L1261,-2404 L1261,-2411 L1223,-2411 L1223,-2420 
        L1261,-2420 L1261,-2420 L1261,-2420 L1261,-2420 Z" fill-rule="evenodd" transform="matrix(0.33333, 0, 0, 0.33333, 0, 0)"
        stroke="none"/>
    <path fill="#ffffff" d="M1259,-2423 L1259,-2430 L1276,-2418 L1259,-2406 L1259,-2413 L1221,-2413 L1221,-2423 
        L1259,-2423 L1259,-2423 L1259,-2423 L1259,-2423 Z M1244,-2393 L1244,-2400 L1261,-2388 L1244,-2376 L1244,-2383 
        L1222,-2383 L1222,-2393 L1244,-2393 L1244,-2393 L1244,-2393 L1244,-2393 Z" fill-rule="evenodd" transform="matrix(0.33333, 0, 0, 0.33333, 0, 0)"
        stroke="none"/>
    <path fill="#156287" d="M1216,-2466 L1216,-2367 L1172,-2367 L1172,-2466 L1216,-2466 L1216,-2466 L1216,-2466 Z"
        fill-rule="evenodd" transform="matrix(0.33333, 0, 0, 0.33333, 0, 0)" stroke="none"/>
    <path fill="#ffffff" d="M1216,-2466 L1216,-2367 L1172,-2367 L1172,-2466 L1216,-2466 L1216,-2466 L1216,-2466 Z"
        transform="matrix(0.33333, 0, 0, 0.33333, 0, 0)" stroke="none"/>
    <path fill="#ffffff" d="M1204,-2390 L1204,-2376 L1185,-2376 L1185,-2390 L1204,-2390 L1204,-2390 L1204,-2390 Z"
        fill-rule="evenodd" transform="matrix(0.33333, 0, 0, 0.33333, 0, 0)" stroke="none"/>
    <path fill="none" d="M1204,-2390 L1204,-2376 L1185,-2376 L1185,-2390 L1204,-2390 L1204,-2390 L1204,-2390 Z"
        transform="matrix(0.33333, 0, 0, 0.33333, 0, 0)" stroke-linecap="square"/>
    <path fill="#ffffff" d="M1213,-2376 L1213,-2372 L1209,-2372 L1209,-2376 L1213,-2376 L1213,-2376 L1213,-2376 Z"
        fill-rule="evenodd" transform="matrix(0.33333, 0, 0, 0.33333, 0, 0)" stroke="none"/>
    <path fill="none" d="M1213,-2376 L1213,-2372 L1209,-2372 L1209,-2376 L1213,-2376 L1213,-2376 L1213,-2376 Z"
        transform="matrix(0.33333, 0, 0, 0.33333, 0, 0)" stroke-linecap="square"/>
    <path fill="#ffffff" d="M1213,-2384 L1213,-2380 L1209,-2380 L1209,-2384 L1213,-2384 L1213,-2384 L1213,-2384 Z"
        fill-rule="evenodd" transform="matrix(0.33333, 0, 0, 0.33333, 0, 0)" stroke="none"/>
    <path fill="none" d="M1213,-2384 L1213,-2380 L1209,-2380 L1209,-2384 L1213,-2384 L1213,-2384 L1213,-2384 Z"
        transform="matrix(0.33333, 0, 0, 0.33333, 0, 0)" stroke-linecap="square"/>
    <path fill="#ffffff" d="M1213,-2393 L1213,-2389 L1209,-2389 L1209,-2393 L1213,-2393 L1213,-2393 L1213,-2393 Z"
        fill-rule="evenodd" transform="matrix(0.33333, 0, 0, 0.33333, 0, 0)" stroke="none"/>
    <path fill="none" d="M1213,-2393 L1213,-2389 L1209,-2389 L1209,-2393 L1213,-2393 L1213,-2393 L1213,-2393 Z"
        transform="matrix(0.33333, 0, 0, 0.33333, 0, 0)" stroke-linecap="square"/>
    <path fill="#ffffff" d="M1213,-2400 L1213,-2397 L1209,-2397 L1209,-2400 L1213,-2400 L1213,-2400 L1213,-2400 Z"
        fill-rule="evenodd" transform="matrix(0.33333, 0, 0, 0.33333, 0, 0)" stroke="none"/>
    <path fill="none" d="M1213,-2400 L1213,-2397 L1209,-2397 L1209,-2400 L1213,-2400 L1213,-2400 L1213,-2400 Z"
        transform="matrix(0.33333, 0, 0, 0.33333, 0, 0)" stroke-linecap="square"/>
    <path fill="#ffffff" d="M1213,-2409 L1213,-2405 L1209,-2405 L1209,-2409 L1213,-2409 L1213,-2409 L1213,-2409 Z"
        fill-rule="evenodd" transform="matrix(0.33333, 0, 0, 0.33333, 0, 0)" stroke="none"/>
    <path fill="none" d="M1213,-2409 L1213,-2405 L1209,-2405 L1209,-2409 L1213,-2409 L1213,-2409 L1213,-2409 Z"
        transform="matrix(0.33333, 0, 0, 0.33333, 0, 0)" stroke-linecap="square"/>
    <path fill="#ffffff" d="M1213,-2417 L1213,-2413 L1209,-2413 L1209,-2417 L1213,-2417 L1213,-2417 L1213,-2417 Z"
        fill-rule="evenodd" transform="matrix(0.33333, 0, 0, 0.33333, 0, 0)" stroke="none"/>
    <path fill="none" d="M1213,-2417 L1213,-2413 L1209,-2413 L1209,-2417 L1213,-2417 L1213,-2417 L1213,-2417 Z"
        transform="matrix(0.33333, 0, 0, 0.33333, 0, 0)" stroke-linecap="square"/>
    <path fill="#ffffff" d="M1213,-2425 L1213,-2421 L1209,-2421 L1209,-2425 L1213,-2425 L1213,-2425 L1213,-2425 Z"
        fill-rule="evenodd" transform="matrix(0.33333, 0, 0, 0.33333, 0, 0)" stroke="none"/>
    <path fill="none" d="M1213,-2425 L1213,-2421 L1209,-2421 L1209,-2425 L1213,-2425 L1213,-2425 L1213,-2425 Z"
        transform="matrix(0.33333, 0, 0, 0.33333, 0, 0)" stroke-linecap="square"/>
    <path fill="#ffffff" d="M1213,-2433 L1213,-2429 L1209,-2429 L1209,-2433 L1213,-2433 L1213,-2433 L1213,-2433 Z"
        fill-rule="evenodd" transform="matrix(0.33333, 0, 0, 0.33333, 0, 0)" stroke="none"/>
    <path fill="none" d="M1213,-2433 L1213,-2429 L1209,-2429 L1209,-2433 L1213,-2433 L1213,-2433 L1213,-2433 Z"
        transform="matrix(0.33333, 0, 0, 0.33333, 0, 0)" stroke-linecap="square"/>
    <path fill="#ffffff" d="M1213,-2441 L1213,-2437 L1209,-2437 L1209,-2441 L1213,-2441 L1213,-2441 L1213,-2441 Z"
        fill-rule="evenodd" transform="matrix(0.33333, 0, 0, 0.33333, 0, 0)" stroke="none"/>
    <path fill="none" d="M1213,-2441 L1213,-2437 L1209,-2437 L1209,-2441 L1213,-2441 L1213,-2441 L1213,-2441 Z"
        transform="matrix(0.33333, 0, 0, 0.33333, 0, 0)" stroke-linecap="square"/>
    <path fill="#ffffff" d="M1213,-2449 L1213,-2445 L1209,-2445 L1209,-2449 L1213,-2449 L1213,-2449 L1213,-2449 Z"
        fill-rule="evenodd" transform="matrix(0.33333, 0, 0, 0.33333, 0, 0)" stroke="none"/>
    <path fill="none" d="M1213,-2449 L1213,-2445 L1209,-2445 L1209,-2449 L1213,-2449 L1213,-2449 L1213,-2449 Z"
        transform="matrix(0.33333, 0, 0, 0.33333, 0, 0)" stroke-linecap="square"/>
    <path fill="#ffffff" d="M1213,-2457 L1213,-2454 L1209,-2453 L1209,-2457 L1213,-2457 L1213,-2457 L1213,-2457 Z"
        fill-rule="evenodd" transform="matrix(0.33333, 0, 0, 0.33333, 0, 0)" stroke="none"/>
    <path fill="none" d="M1213,-2457 L1213,-2454 L1209,-2453 L1209,-2457 L1213,-2457 L1213,-2457 L1213,-2457 Z"
        transform="matrix(0.33333, 0, 0, 0.33333, 0, 0)" stroke-linecap="square"/>
    <path fill="#ffffff" d="M1180,-2376 L1180,-2372 L1176,-2372 L1176,-2376 L1180,-2376 L1180,-2376 L1180,-2376 Z"
        fill-rule="evenodd" transform="matrix(0.33333, 0, 0, 0.33333, 0, 0)" stroke="none"/>
    <path fill="none" d="M1180,-2376 L1180,-2372 L1176,-2372 L1176,-2376 L1180,-2376 L1180,-2376 L1180,-2376 Z"
        transform="matrix(0.33333, 0, 0, 0.33333, 0, 0)" stroke-linecap="square"/>
    <path fill="#ffffff" d="M1180,-2384 L1180,-2380 L1176,-2380 L1176,-2384 L1180,-2384 L1180,-2384 L1180,-2384 Z"
        fill-rule="evenodd" transform="matrix(0.33333, 0, 0, 0.33333, 0, 0)" stroke="none"/>
    <path fill="none" d="M1180,-2384 L1180,-2380 L1176,-2380 L1176,-2384 L1180,-2384 L1180,-2384 L1180,-2384 Z"
        transform="matrix(0.33333, 0, 0, 0.33333, 0, 0)" stroke-linecap="square"/>
    <path fill="#ffffff" d="M1180,-2393 L1180,-2389 L1176,-2389 L1176,-2393 L1180,-2393 L1180,-2393 L1180,-2393 Z"
        fill-rule="evenodd" transform="matrix(0.33333, 0, 0, 0.33333, 0, 0)" stroke="none"/>
    <path fill="none" d="M1180,-2393 L1180,-2389 L1176,-2389 L1176,-2393 L1180,-2393 L1180,-2393 L1180,-2393 Z"
        transform="matrix(0.33333, 0, 0, 0.33333, 0, 0)" stroke-linecap="square"/>
    <path fill="#ffffff" d="M1180,-2400 L1180,-2397 L1176,-2397 L1176,-2400 L1180,-2400 L1180,-2400 L1180,-2400 Z"
        fill-rule="evenodd" transform="matrix(0.33333, 0, 0, 0.33333, 0, 0)" stroke="none"/>
    <path fill="none" d="M1180,-2400 L1180,-2397 L1176,-2397 L1176,-2400 L1180,-2400 L1180,-2400 L1180,-2400 Z"
        transform="matrix(0.33333, 0, 0, 0.33333, 0, 0)" stroke-linecap="square"/>
    <path fill="#ffffff" d="M1180,-2409 L1180,-2405 L1176,-2405 L1176,-2409 L1180,-2409 L1180,-2409 L1180,-2409 Z"
        fill-rule="evenodd" transform="matrix(0.33333, 0, 0, 0.33333, 0, 0)" stroke="none"/>
    <path fill="none" d="M1180,-2409 L1180,-2405 L1176,-2405 L1176,-2409 L1180,-2409 L1180,-2409 L1180,-2409 Z"
        transform="matrix(0.33333, 0, 0, 0.33333, 0, 0)" stroke-linecap="square"/>
    <path fill="#ffffff" d="M1180,-2417 L1180,-2413 L1176,-2413 L1176,-2417 L1180,-2417 L1180,-2417 L1180,-2417 Z"
        fill-rule="evenodd" transform="matrix(0.33333, 0, 0, 0.33333, 0, 0)" stroke="none"/>
    <path fill="none" d="M1180,-2417 L1180,-2413 L1176,-2413 L1176,-2417 L1180,-2417 L1180,-2417 L1180,-2417 Z"
        transform="matrix(0.33333, 0, 0, 0.33333, 0, 0)" stroke-linecap="square"/>
    <path fill="#ffffff" d="M1180,-2425 L1180,-2421 L1176,-2421 L1176,-2425 L1180,-2425 L1180,-2425 L1180,-2425 Z"
        fill-rule="evenodd" transform="matrix(0.33333, 0, 0, 0.33333, 0, 0)" stroke="none"/>
    <path fill="none" d="M1180,-2425 L1180,-2421 L1176,-2421 L1176,-2425 L1180,-2425 L1180,-2425 L1180,-2425 Z"
        transform="matrix(0.33333, 0, 0, 0.33333, 0, 0)" stroke-linecap="square"/>
    <path fill="#ffffff" d="M1180,-2433 L1180,-2429 L1176,-2429 L1176,-2433 L1180,-2433 L1180,-2433 L1180,-2433 Z"
        fill-rule="evenodd" transform="matrix(0.33333, 0, 0, 0.33333, 0, 0)" stroke="none"/>
    <path fill="none" d="M1180,-2433 L1180,-2429 L1176,-2429 L1176,-2433 L1180,-2433 L1180,-2433 L1180,-2433 Z"
        transform="matrix(0.33333, 0, 0, 0.33333, 0, 0)" stroke-linecap="square"/>
    <path fill="#ffffff" d="M1180,-2441 L1180,-2437 L1176,-2437 L1176,-2441 L1180,-2441 L1180,-2441 L1180,-2441 Z"
        fill-rule="evenodd" transform="matrix(0.33333, 0, 0, 0.33333, 0, 0)" stroke="none"/>
    <path fill="none" d="M1180,-2441 L1180,-2437 L1176,-2437 L1176,-2441 L1180,-2441 L1180,-2441 L1180,-2441 Z"
        transform="matrix(0.33333, 0, 0, 0.33333, 0, 0)" stroke-linecap="square"/>
    <path fill="#ffffff" d="M1180,-2449 L1180,-2445 L1176,-2445 L1176,-2449 L1180,-2449 L1180,-2449 L1180,-2449 Z"
        fill-rule="evenodd" transform="matrix(0.33333, 0, 0, 0.33333, 0, 0)" stroke="none"/>
    <path fill="none" d="M1180,-2449 L1180,-2445 L1176,-2445 L1176,-2449 L1180,-2449 L1180,-2449 L1180,-2449 Z"
        transform="matrix(0.33333, 0, 0, 0.33333, 0, 0)" stroke-linecap="square"/>
    <path fill="#ffffff" d="M1180,-2457 L1180,-2453 L1176,-2453 L1176,-2457 L1180,-2457 L1180,-2457 L1180,-2457 Z"
        fill-rule="evenodd" transform="matrix(0.33333, 0, 0, 0.33333, 0, 0)" stroke="none"/>
    <path fill="none" d="M1180,-2457 L1180,-2453 L1176,-2453 L1176,-2457 L1180,-2457 L1180,-2457 L1180,-2457 Z"
        transform="matrix(0.33333, 0, 0, 0.33333, 0, 0)" stroke-linecap="square"/>
    <path fill="#ffffff" d="M1204,-2411 L1204,-2398 L1185,-2398 L1185,-2411 L1204,-2411 L1204,-2411 L1204,-2411 Z"
        fill-rule="evenodd" transform="matrix(0.33333, 0, 0, 0.33333, 0, 0)" stroke="none"/>
    <path fill="none" d="M1204,-2411 L1204,-2398 L1185,-2398 L1185,-2411 L1204,-2411 L1204,-2411 L1204,-2411 Z"
        transform="matrix(0.33333, 0, 0, 0.33333, 0, 0)" stroke-linecap="square"/>
    <path fill="#ffffff" d="M1204,-2433 L1204,-2420 L1185,-2420 L1185,-2433 L1204,-2433 L1204,-2433 L1204,-2433 Z"
        fill-rule="evenodd" transform="matrix(0.33333, 0, 0, 0.33333, 0, 0)" stroke="none"/>
    <path fill="none" d="M1204,-2433 L1204,-2420 L1185,-2420 L1185,-2433 L1204,-2433 L1204,-2433 L1204,-2433 Z"
        transform="matrix(0.33333, 0, 0, 0.33333, 0, 0)" stroke-linecap="square"/>
    <path fill="#ffffff" d="M1204,-2454 L1204,-2441 L1185,-2441 L1185,-2454 L1204,-2454 L1204,-2454 L1204,-2454 Z"
        fill-rule="evenodd" transform="matrix(0.33333, 0, 0, 0.33333, 0, 0)" stroke="none"/>
    <path fill="none" d="M1204,-2454 L1204,-2441 L1185,-2441 L1185,-2454 L1204,-2454 L1204,-2454 L1204,-2454 Z"
        transform="matrix(0.33333, 0, 0, 0.33333, 0, 0)" stroke-linecap="square"/>
    <path d="M1154,-2440 C1155,-2442 1157,-2452 1157,-2454 C1157,-2455 1157,-2457 1156,-2457 C1156,-2458 1156,-2458 
        1156,-2458 C1156,-2458 1156,-2458 1156,-2458 C1156,-2458 1156,-2458 1156,-2458 C1156,-2458 1156,-2461 1157,-2462 
        C1157,-2465 1157,-2467 1157,-2467 C1157,-2467 1157,-2468 1157,-2468 C1155,-2468 1155,-2468 1155,-2468 
        C1154,-2468 1154,-2468 1154,-2468 C1154,-2468 1153,-2466 1152,-2463 C1152,-2462 1151,-2460 1151,-2460 
        C1151,-2460 1151,-2460 1151,-2460 C1150,-2460 1149,-2460 1148,-2461 C1145,-2462 1142,-2462 1140,-2463 
        C1140,-2463 1139,-2462 1139,-2462 C1139,-2462 1139,-2462 1139,-2462 C1138,-2462 1137,-2461 1136,-2459 
        C1136,-2458 1132,-2448 1132,-2446 C1131,-2444 1130,-2438 1130,-2436 C1129,-2433 1129,-2429 1127,-2422 
        C1126,-2419 1124,-2413 1124,-2411 C1123,-2411 1122,-2408 1124,-2407 C1127,-2406 1130,-2404 1132,-2404 
        C1134,-2403 1138,-2402 1141,-2402 C1143,-2402 1143,-2405 1144,-2406 C1144,-2408 1145,-2413 1146,-2417 
        C1148,-2423 1150,-2427 1151,-2430 C1152,-2432 1154,-2438 1154,-2440 Z" stroke="none" transform="matrix(0.33333, 0, 0, 0.33333, 0, 0)"/>
    <path d="M1154,-2467 C1154,-2467 1154,-2467 1153,-2467 C1152,-2467 1151,-2468 1151,-2468" stroke="none" transform="matrix(0.33333, 0, 0, 0.33333, 0, 0)"/>
    <path d="M1151,-2439 C1152,-2441 1154,-2452 1155,-2453 C1155,-2455 1154,-2457 1153,-2457 C1153,-2457 1153,-2458 
        1153,-2458 C1153,-2458 1153,-2458 1153,-2458 C1153,-2458 1153,-2458 1153,-2458 C1153,-2458 1153,-2460 1154,-2462 
        C1154,-2465 1154,-2467 1154,-2467 C1154,-2467 1154,-2467 1154,-2467 C1152,-2468 1152,-2468 1152,-2468 
        C1152,-2468 1151,-2468 1151,-2467 C1151,-2467 1150,-2466 1149,-2463 C1149,-2461 1148,-2460 1148,-2460 
        C1148,-2460 1148,-2460 1148,-2460 C1147,-2460 1146,-2460 1145,-2461 C1142,-2461 1140,-2462 1137,-2462 
        C1137,-2462 1137,-2462 1136,-2462 C1136,-2462 1136,-2462 1136,-2462 C1136,-2462 1134,-2460 1134,-2459 
        C1133,-2458 1130,-2448 1129,-2446 C1128,-2443 1127,-2438 1127,-2436 C1126,-2433 1126,-2428 1124,-2422 
        C1123,-2419 1122,-2413 1121,-2411 C1121,-2410 1119,-2407 1121,-2406 C1124,-2405 1128,-2404 1130,-2404 
        C1131,-2403 1135,-2402 1138,-2402 C1141,-2401 1141,-2405 1141,-2405 C1141,-2408 1143,-2413 1144,-2417 
        C1145,-2423 1147,-2427 1148,-2430 C1149,-2432 1151,-2437 1151,-2439 Z" stroke="none" transform="matrix(0.33333, 0, 0, 0.33333, 0, 0)"/>
    <path d="M1132,-2425 C1131,-2424 1130,-2423 1129,-2423 C1128,-2424 1128,-2425 1128,-2426 C1128,-2427 1129,-2428 
        1130,-2427 C1131,-2427 1132,-2426 1132,-2425 Z" stroke="none" transform="matrix(0.33333, 0, 0, 0.33333, 0, 0)"/>
    <path d="M1137,-2423 C1137,-2422 1135,-2421 1134,-2421 C1133,-2422 1133,-2423 1133,-2424 C1133,-2425 1134,-2425 
        1135,-2425 C1137,-2425 1137,-2424 1137,-2423 Z" stroke="none" transform="matrix(0.33333, 0, 0, 0.33333, 0, 0)"/>
    <path d="M1142,-2422 C1142,-2421 1141,-2420 1140,-2420 C1139,-2421 1138,-2422 1138,-2423 C1139,-2424 1140,-2425 
        1141,-2424 C1142,-2424 1143,-2423 1142,-2422 Z" stroke="none" transform="matrix(0.33333, 0, 0, 0.33333, 0, 0)"/>
    <path d="M1131,-2420 C1130,-2419 1129,-2419 1128,-2419 C1127,-2419 1126,-2420 1127,-2421 C1127,-2422 1128,-2423 
        1129,-2423 C1130,-2423 1131,-2421 1131,-2420 Z" stroke="none" transform="matrix(0.33333, 0, 0, 0.33333, 0, 0)"/>
    <path d="M1136,-2418 C1135,-2417 1134,-2417 1133,-2417 C1132,-2417 1131,-2418 1132,-2419 C1132,-2420 1133,-2421 
        1134,-2421 C1135,-2420 1136,-2419 1136,-2418 Z" stroke="none" transform="matrix(0.33333, 0, 0, 0.33333, 0, 0)"/>
    <path d="M1141,-2417 C1141,-2416 1140,-2416 1139,-2416 C1138,-2416 1137,-2417 1137,-2419 C1138,-2420 1139,-2420 
        1140,-2420 C1141,-2420 1141,-2419 1141,-2417 Z" stroke="none" transform="matrix(0.33333, 0, 0, 0.33333, 0, 0)"/>
    <path d="M1129,-2416 C1129,-2415 1128,-2414 1127,-2415 C1126,-2415 1125,-2416 1125,-2417 C1126,-2418 1127,-2419 
        1128,-2418 C1129,-2418 1130,-2417 1129,-2416 Z" stroke="none" transform="matrix(0.33333, 0, 0, 0.33333, 0, 0)"/>
    <path d="M1134,-2414 C1134,-2413 1133,-2412 1132,-2412 C1131,-2413 1130,-2414 1131,-2415 C1131,-2416 1132,-2417 
        1133,-2416 C1134,-2416 1135,-2415 1134,-2414 Z" stroke="none" transform="matrix(0.33333, 0, 0, 0.33333, 0, 0)"/>
    <path d="M1140,-2413 C1140,-2412 1138,-2411 1137,-2412 C1136,-2412 1136,-2413 1136,-2414 C1136,-2415 1137,-2416 
        1138,-2416 C1140,-2415 1140,-2414 1140,-2413 Z" stroke="none" transform="matrix(0.33333, 0, 0, 0.33333, 0, 0)"/>
    <path d="M1128,-2412 C1128,-2410 1127,-2410 1126,-2410 C1125,-2410 1124,-2412 1124,-2413 C1125,-2414 1126,-2414 
        1127,-2414 C1128,-2414 1128,-2413 1128,-2412 Z M1133,-2409 C1133,-2408 1132,-2408 1131,-2408 C1130,-2408 
        1129,-2409 1129,-2410 C1130,-2412 1131,-2412 1132,-2412 C1133,-2412 1133,-2410 1133,-2409 Z" stroke="none"
        transform="matrix(0.33333, 0, 0, 0.33333, 0, 0)"/>
    <path d="M1139,-2409 C1138,-2408 1137,-2407 1136,-2407 C1135,-2408 1134,-2409 1135,-2410 C1135,-2411 1136,-2411 
        1137,-2411 C1138,-2411 1139,-2410 1139,-2409 Z" transform="matrix(0.33333, 0, 0, 0.33333, 0, 0)" stroke="none"/>
    <path d="M1131,-2406 C1131,-2406 1130,-2406 1130,-2406 C1130,-2406 1130,-2407 1130,-2407 C1130,-2407 1130,-2407 
        1130,-2407 C1131,-2407 1131,-2407 1131,-2406 Z M1130,-2407 C1129,-2404 1129,-2404 1129,-2404 M1130,-2406 
        C1129,-2404 1129,-2404 1129,-2404 M1131,-2406 C1130,-2404 1130,-2404 1130,-2404 M1130,-2406 C1130,-2404 
        1130,-2404 1130,-2404 M1135,-2440 C1134,-2438 1134,-2438 1134,-2438 M1135,-2440 C1134,-2438 1134,-2438 
        1134,-2438 M1144,-2437 C1143,-2436 1143,-2436 1143,-2436 M1144,-2437 C1143,-2436 1143,-2436 1143,-2436"
        transform="matrix(0.33333, 0, 0, 0.33333, 0, 0)" stroke="none"/>
    <path d="M1153,-2458 C1153,-2458 1153,-2460 1154,-2462 C1154,-2465 1154,-2467 1154,-2467 C1154,-2467 1154,-2467 
        1154,-2467 C1152,-2468 1152,-2468 1152,-2468 C1152,-2468 1151,-2468 1151,-2467 C1151,-2467 1150,-2466 1149,-2463 
        C1149,-2461 1148,-2460 1148,-2460 M1148,-2437 C1148,-2436 1147,-2436 1147,-2436 C1131,-2440 1131,-2440 
        1131,-2440 C1131,-2441 1131,-2441 1131,-2441 C1134,-2451 1134,-2451 1134,-2451 C1134,-2452 1134,-2452 1134,-2452 
        C1150,-2447 1150,-2447 1150,-2447 C1150,-2447 1151,-2447 1150,-2447 Z M1153,-2459 C1152,-2459 1150,-2460 
        1149,-2460 M1137,-2462 C1137,-2462 1133,-2455 1131,-2447 C1129,-2438 1128,-2435 1129,-2431 C1129,-2430 
        1130,-2429 1131,-2429 C1131,-2428 1132,-2428 1132,-2428 C1132,-2428 1133,-2428 1133,-2428 C1134,-2427 1134,-2427 
        1134,-2427 C1135,-2427 1135,-2426 1136,-2426 C1137,-2426 1137,-2426 1137,-2426 C1138,-2426 1138,-2426 1139,-2426 
        C1139,-2426 1140,-2426 1140,-2426 C1140,-2426 1141,-2426 1141,-2426 C1142,-2425 1143,-2426 1144,-2427 
        C1146,-2430 1148,-2433 1150,-2442 C1152,-2450 1153,-2458 1153,-2458 M1135,-2458 C1138,-2458 1141,-2457 
        1144,-2457 C1147,-2456 1150,-2455 1153,-2454" transform="matrix(0.33333, 0, 0, 0.33333, 0, 0)" stroke="none"/>
    <path d="M1142,-2431 C1141,-2428 1138,-2427 1136,-2428 C1134,-2428 1132,-2431 1133,-2433 C1134,-2435 1136,-2437 
        1138,-2436 C1141,-2436 1142,-2433 1142,-2431 Z M1133,-2438 C1134,-2438 1134,-2438 1135,-2437 C1135,-2437 
        1135,-2437 1135,-2437 C1135,-2437 1134,-2437 1134,-2436 C1134,-2436 1134,-2436 1133,-2436 C1133,-2437 1131,-2438 
        1131,-2438 C1131,-2438 1131,-2438 1131,-2438 C1132,-2438 1133,-2438 1133,-2438 Z M1130,-2433 C1131,-2433 
        1131,-2433 1132,-2433 C1132,-2432 1132,-2432 1132,-2432 C1132,-2431 1132,-2430 1132,-2430 C1133,-2429 1133,-2429 
        1132,-2429 C1132,-2429 1131,-2429 1131,-2430 C1130,-2430 1130,-2430 1130,-2430 C1130,-2431 1130,-2432 1130,-2433 
        C1130,-2433 1130,-2433 1130,-2433 Z" transform="matrix(0.33333, 0, 0, 0.33333, 0, 0)" stroke="none"/>
    <path d="M1144,-2435 C1143,-2435 1143,-2435 1142,-2435 C1142,-2435 1142,-2435 1142,-2435 C1142,-2435 1142,-2434 
        1142,-2434 C1143,-2434 1143,-2434 1143,-2434 C1144,-2434 1145,-2434 1146,-2434 C1146,-2434 1146,-2434 1146,-2434 
        C1145,-2435 1144,-2435 1144,-2435 Z M1144,-2429 C1144,-2430 1143,-2430 1143,-2430 C1142,-2430 1142,-2429 
        1142,-2429 C1141,-2429 1141,-2428 1140,-2427 C1140,-2427 1140,-2427 1140,-2427 C1141,-2427 1141,-2427 1142,-2427 
        C1142,-2427 1142,-2427 1143,-2427 C1143,-2427 1144,-2428 1144,-2429 C1144,-2429 1144,-2429 1144,-2429 Z"
        transform="matrix(0.33333, 0, 0, 0.33333, 0, 0)" stroke="none"/>
    <path d="M1143,-2455 L1145,-2461 Z" stroke="none" transform="matrix(0.33333, 0, 0, 0.33333, 0, 0)"/>
    <path fill="none" d="M1143,-2455 L1145,-2461" transform="matrix(0.33333, 0, 0, 0.33333, 0, 0)" stroke="none"/>
    <path d="M1144,-2455 L1145,-2460 Z" stroke="none" transform="matrix(0.33333, 0, 0, 0.33333, 0, 0)"/>
    <path fill="none" d="M1144,-2455 L1145,-2460" transform="matrix(0.33333, 0, 0, 0.33333, 0, 0)" stroke="none"/>
    <path d="M1154,-2440 C1155,-2442 1157,-2452 1157,-2454 C1157,-2455 1157,-2457 1156,-2457 C1156,-2458 1156,-2458 
        1156,-2458 C1156,-2458 1156,-2458 1156,-2458 C1156,-2458 1156,-2458 1156,-2458 C1156,-2458 1156,-2461 1157,-2462 
        C1157,-2465 1157,-2467 1157,-2467 C1157,-2467 1157,-2468 1157,-2468 C1155,-2468 1155,-2468 1155,-2468 
        C1154,-2468 1154,-2468 1154,-2468 C1154,-2468 1153,-2466 1152,-2463 C1152,-2462 1151,-2460 1151,-2460 
        C1151,-2460 1151,-2460 1151,-2460 C1150,-2460 1149,-2460 1148,-2461 C1145,-2462 1142,-2462 1140,-2463 
        C1140,-2463 1139,-2462 1139,-2462 C1139,-2462 1139,-2462 1139,-2462 C1138,-2462 1137,-2461 1136,-2459 
        C1136,-2458 1132,-2448 1132,-2446 C1131,-2444 1130,-2438 1130,-2436 C1129,-2433 1129,-2429 1127,-2422 
        C1126,-2419 1124,-2413 1124,-2411 C1123,-2411 1122,-2408 1124,-2407 C1127,-2406 1130,-2404 1132,-2404 
        C1134,-2403 1138,-2402 1141,-2402 C1143,-2402 1143,-2405 1144,-2406 C1144,-2408 1145,-2413 1146,-2417 
        C1148,-2423 1150,-2427 1151,-2430 C1152,-2432 1154,-2438 1154,-2440 Z" transform="matrix(0.33333, 0, 0, 0.33333, 0, 0)"
        stroke="none"/>
    <path d="M1154,-2467 C1154,-2467 1154,-2467 1153,-2467 C1152,-2467 1151,-2468 1151,-2468" stroke-width="2"
        transform="matrix(0.33333, 0, 0, 0.33333, 0, 0)"/>
    <path d="M1154,-2467 C1154,-2467 1154,-2467 1153,-2467 C1152,-2467 1151,-2468 1151,-2468" stroke-width="2"
        transform="matrix(0.33333, 0, 0, 0.33333, 0, 0)"/>
    <path d="M1151,-2439 C1152,-2441 1154,-2452 1155,-2453 C1155,-2455 1154,-2457 1153,-2457 C1153,-2457 1153,-2458 
        1153,-2458 C1153,-2458 1153,-2458 1153,-2458 C1153,-2458 1153,-2458 1153,-2458 C1153,-2458 1153,-2460 1154,-2462 
        C1154,-2465 1154,-2467 1154,-2467 C1154,-2467 1154,-2467 1154,-2467 C1152,-2468 1152,-2468 1152,-2468 
        C1152,-2468 1151,-2468 1151,-2467 C1151,-2467 1150,-2466 1149,-2463 C1149,-2461 1148,-2460 1148,-2460 
        C1148,-2460 1148,-2460 1148,-2460 C1147,-2460 1146,-2460 1145,-2461 C1142,-2461 1140,-2462 1137,-2462 
        C1137,-2462 1137,-2462 1136,-2462 C1136,-2462 1136,-2462 1136,-2462 C1136,-2462 1134,-2460 1134,-2459 
        C1133,-2458 1130,-2448 1129,-2446 C1128,-2443 1127,-2438 1127,-2436 C1126,-2433 1126,-2428 1124,-2422 
        C1123,-2419 1122,-2413 1121,-2411 C1121,-2410 1119,-2407 1121,-2406 C1124,-2405 1128,-2404 1130,-2404 
        C1131,-2403 1135,-2402 1138,-2402 C1141,-2401 1141,-2405 1141,-2405 C1141,-2408 1143,-2413 1144,-2417 
        C1145,-2423 1147,-2427 1148,-2430 C1149,-2432 1151,-2437 1151,-2439 Z" stroke-width="2" transform="matrix(0.33333, 0, 0, 0.33333, 0, 0)"/>
    <path stroke-width="2" d="M1132,-2425 C1131,-2424 1130,-2423 1129,-2423 C1128,-2424 1128,-2425 1128,-2426 
        C1128,-2427 1129,-2428 1130,-2427 C1131,-2427 1132,-2426 1132,-2425 Z" transform="matrix(0.33333, 0, 0, 0.33333, 0, 0)"/>
    <path stroke-width="2" d="M1137,-2423 C1137,-2422 1135,-2421 1134,-2421 C1133,-2422 1133,-2423 1133,-2424 
        C1133,-2425 1134,-2425 1135,-2425 C1137,-2425 1137,-2424 1137,-2423 Z" transform="matrix(0.33333, 0, 0, 0.33333, 0, 0)"/>
    <path stroke-width="2" d="M1142,-2422 C1142,-2421 1141,-2420 1140,-2420 C1139,-2421 1138,-2422 1138,-2423 
        C1139,-2424 1140,-2425 1141,-2424 C1142,-2424 1143,-2423 1142,-2422 Z" transform="matrix(0.33333, 0, 0, 0.33333, 0, 0)"/>
    <path stroke-width="2" d="M1131,-2420 C1130,-2419 1129,-2419 1128,-2419 C1127,-2419 1126,-2420 1127,-2421 
        C1127,-2422 1128,-2423 1129,-2423 C1130,-2423 1131,-2421 1131,-2420 Z" transform="matrix(0.33333, 0, 0, 0.33333, 0, 0)"/>
    <path stroke-width="2" d="M1136,-2418 C1135,-2417 1134,-2417 1133,-2417 C1132,-2417 1131,-2418 1132,-2419 
        C1132,-2420 1133,-2421 1134,-2421 C1135,-2420 1136,-2419 1136,-2418 Z" transform="matrix(0.33333, 0, 0, 0.33333, 0, 0)"/>
    <path stroke-width="2" d="M1141,-2417 C1141,-2416 1140,-2416 1139,-2416 C1138,-2416 1137,-2417 1137,-2419 
        C1138,-2420 1139,-2420 1140,-2420 C1141,-2420 1141,-2419 1141,-2417 Z" transform="matrix(0.33333, 0, 0, 0.33333, 0, 0)"/>
    <path stroke-width="2" d="M1129,-2416 C1129,-2415 1128,-2414 1127,-2415 C1126,-2415 1125,-2416 1125,-2417 
        C1126,-2418 1127,-2419 1128,-2418 C1129,-2418 1130,-2417 1129,-2416 Z" transform="matrix(0.33333, 0, 0, 0.33333, 0, 0)"/>
    <path stroke-width="2" d="M1134,-2414 C1134,-2413 1133,-2412 1132,-2412 C1131,-2413 1130,-2414 1131,-2415 
        C1131,-2416 1132,-2417 1133,-2416 C1134,-2416 1135,-2415 1134,-2414 Z" transform="matrix(0.33333, 0, 0, 0.33333, 0, 0)"/>
    <path stroke-width="2" d="M1140,-2413 C1140,-2412 1138,-2411 1137,-2412 C1136,-2412 1136,-2413 1136,-2414 
        C1136,-2415 1137,-2416 1138,-2416 C1140,-2415 1140,-2414 1140,-2413 Z" transform="matrix(0.33333, 0, 0, 0.33333, 0, 0)"/>
    <path stroke-width="2" d="M1128,-2412 C1128,-2410 1127,-2410 1126,-2410 C1125,-2410 1124,-2412 1124,-2413 
        C1125,-2414 1126,-2414 1127,-2414 C1128,-2414 1128,-2413 1128,-2412 Z M1133,-2409 C1133,-2408 1132,-2408 
        1131,-2408 C1130,-2408 1129,-2409 1129,-2410 C1130,-2412 1131,-2412 1132,-2412 C1133,-2412 1133,-2410 1133,-2409 
        Z" transform="matrix(0.33333, 0, 0, 0.33333, 0, 0)"/>
    <path stroke-width="2" d="M1139,-2409 C1138,-2408 1137,-2407 1136,-2407 C1135,-2408 1134,-2409 1135,-2410 
        C1135,-2411 1136,-2411 1137,-2411 C1138,-2411 1139,-2410 1139,-2409 Z" transform="matrix(0.33333, 0, 0, 0.33333, 0, 0)"/>
    <path stroke-width="2" d="M1131,-2406 C1131,-2406 1130,-2406 1130,-2406 C1130,-2406 1130,-2407 1130,-2407 
        C1130,-2407 1130,-2407 1130,-2407 C1131,-2407 1131,-2407 1131,-2406 Z M1130,-2407 C1129,-2404 1129,-2404 
        1129,-2404 M1130,-2406 C1129,-2404 1129,-2404 1129,-2404 M1131,-2406 C1130,-2404 1130,-2404 1130,-2404 
        M1130,-2406 C1130,-2404 1130,-2404 1130,-2404 M1135,-2440 C1134,-2438 1134,-2438 1134,-2438 M1135,-2440 
        C1134,-2438 1134,-2438 1134,-2438 M1144,-2437 C1143,-2436 1143,-2436 1143,-2436 M1144,-2437 C1143,-2436 
        1143,-2436 1143,-2436" transform="matrix(0.33333, 0, 0, 0.33333, 0, 0)"/>
    <path stroke-width="2" d="M1131,-2406 C1131,-2406 1130,-2406 1130,-2406 C1130,-2406 1130,-2407 1130,-2407 
        C1130,-2407 1130,-2407 1130,-2407 C1131,-2407 1131,-2407 1131,-2406 Z M1130,-2407 C1129,-2404 1129,-2404 
        1129,-2404 M1130,-2406 C1129,-2404 1129,-2404 1129,-2404 M1131,-2406 C1130,-2404 1130,-2404 1130,-2404 
        M1130,-2406 C1130,-2404 1130,-2404 1130,-2404 M1135,-2440 C1134,-2438 1134,-2438 1134,-2438 M1135,-2440 
        C1134,-2438 1134,-2438 1134,-2438 M1144,-2437 C1143,-2436 1143,-2436 1143,-2436 M1144,-2437 C1143,-2436 
        1143,-2436 1143,-2436" transform="matrix(0.33333, 0, 0, 0.33333, 0, 0)"/>
    <path d="M1153,-2458 C1153,-2458 1153,-2460 1154,-2462 C1154,-2465 1154,-2467 1154,-2467 C1154,-2467 1154,-2467 
        1154,-2467 C1152,-2468 1152,-2468 1152,-2468 C1152,-2468 1151,-2468 1151,-2467 C1151,-2467 1150,-2466 1149,-2463 
        C1149,-2461 1148,-2460 1148,-2460 M1148,-2437 C1148,-2436 1147,-2436 1147,-2436 C1131,-2440 1131,-2440 
        1131,-2440 C1131,-2441 1131,-2441 1131,-2441 C1134,-2451 1134,-2451 1134,-2451 C1134,-2452 1134,-2452 1134,-2452 
        C1150,-2447 1150,-2447 1150,-2447 C1150,-2447 1151,-2447 1150,-2447 Z M1153,-2459 C1152,-2459 1150,-2460 
        1149,-2460 M1137,-2462 C1137,-2462 1133,-2455 1131,-2447 C1129,-2438 1128,-2435 1129,-2431 C1129,-2430 
        1130,-2429 1131,-2429 C1131,-2428 1132,-2428 1132,-2428 C1132,-2428 1133,-2428 1133,-2428 C1134,-2427 1134,-2427 
        1134,-2427 C1135,-2427 1135,-2426 1136,-2426 C1137,-2426 1137,-2426 1137,-2426 C1138,-2426 1138,-2426 1139,-2426 
        C1139,-2426 1140,-2426 1140,-2426 C1140,-2426 1141,-2426 1141,-2426 C1142,-2425 1143,-2426 1144,-2427 
        C1146,-2430 1148,-2433 1150,-2442 C1152,-2450 1153,-2458 1153,-2458 M1135,-2458 C1138,-2458 1141,-2457 
        1144,-2457 C1147,-2456 1150,-2455 1153,-2454" stroke="none" transform="matrix(0.33333, 0, 0, 0.33333, 0, 0)"/>
    <path d="M1142,-2431 C1141,-2428 1138,-2427 1136,-2428 C1134,-2428 1132,-2431 1133,-2433 C1134,-2435 1136,-2437 
        1138,-2436 C1141,-2436 1142,-2433 1142,-2431 Z M1133,-2438 C1134,-2438 1134,-2438 1135,-2437 C1135,-2437 
        1135,-2437 1135,-2437 C1135,-2437 1134,-2437 1134,-2436 C1134,-2436 1134,-2436 1133,-2436 C1133,-2437 1131,-2438 
        1131,-2438 C1131,-2438 1131,-2438 1131,-2438 C1132,-2438 1133,-2438 1133,-2438 Z M1130,-2433 C1131,-2433 
        1131,-2433 1132,-2433 C1132,-2432 1132,-2432 1132,-2432 C1132,-2431 1132,-2430 1132,-2430 C1133,-2429 1133,-2429 
        1132,-2429 C1132,-2429 1131,-2429 1131,-2430 C1130,-2430 1130,-2430 1130,-2430 C1130,-2431 1130,-2432 1130,-2433 
        C1130,-2433 1130,-2433 1130,-2433 Z" stroke-width="2" transform="matrix(0.33333, 0, 0, 0.33333, 0, 0)"/>
    <path stroke-width="2" d="M1144,-2435 C1143,-2435 1143,-2435 1142,-2435 C1142,-2435 1142,-2435 1142,-2435 
        C1142,-2435 1142,-2434 1142,-2434 C1143,-2434 1143,-2434 1143,-2434 C1144,-2434 1145,-2434 1146,-2434 
        C1146,-2434 1146,-2434 1146,-2434 C1145,-2435 1144,-2435 1144,-2435 Z M1144,-2429 C1144,-2430 1143,-2430 
        1143,-2430 C1142,-2430 1142,-2429 1142,-2429 C1141,-2429 1141,-2428 1140,-2427 C1140,-2427 1140,-2427 1140,-2427 
        C1141,-2427 1141,-2427 1142,-2427 C1142,-2427 1142,-2427 1143,-2427 C1143,-2427 1144,-2428 1144,-2429 
        C1144,-2429 1144,-2429 1144,-2429 Z" transform="matrix(0.33333, 0, 0, 0.33333, 0, 0)" stroke="none"/>
    <path fill="none" d="M1143,-2455 L1145,-2461" stroke-width="2" transform="matrix(0.33333, 0, 0, 0.33333, 0, 0)"/>
    <path d="M1144,-2455 L1145,-2460 Z" stroke="none" transform="matrix(0.33333, 0, 0, 0.33333, 0, 0)"/>
    <path fill="none" d="M1144,-2455 L1145,-2460" stroke-width="2" transform="matrix(0.33333, 0, 0, 0.33333, 0, 0)"/>
    <path fill="none" stroke-width="2" d="M1154,-2440 C1155,-2442 1157,-2452 1157,-2454 C1157,-2455 1157,-2457 
        1156,-2457 C1156,-2458 1156,-2458 1156,-2458 C1156,-2458 1156,-2458 1156,-2458 C1156,-2458 1156,-2458 1156,-2458 
        C1156,-2458 1156,-2461 1157,-2462 C1157,-2465 1157,-2467 1157,-2467 C1157,-2467 1157,-2468 1157,-2468 
        C1155,-2468 1155,-2468 1155,-2468 C1154,-2468 1154,-2468 1154,-2468 C1154,-2468 1153,-2466 1152,-2463 
        C1152,-2462 1151,-2460 1151,-2460 C1151,-2460 1151,-2460 1151,-2460 C1150,-2460 1149,-2460 1148,-2461 
        C1145,-2462 1142,-2462 1140,-2463 C1140,-2463 1139,-2462 1139,-2462 C1139,-2462 1139,-2462 1139,-2462 
        C1138,-2462 1137,-2461 1136,-2459 C1136,-2458 1132,-2448 1132,-2446 C1131,-2444 1130,-2438 1130,-2436 
        C1129,-2433 1129,-2429 1127,-2422 C1126,-2419 1124,-2413 1124,-2411 C1123,-2411 1122,-2408 1124,-2407 
        C1127,-2406 1130,-2404 1132,-2404 C1134,-2403 1138,-2402 1141,-2402 C1143,-2402 1143,-2405 1144,-2406 
        C1144,-2408 1145,-2413 1146,-2417 C1148,-2423 1150,-2427 1151,-2430 C1152,-2432 1154,-2438 1154,-2440 Z"
        transform="matrix(0.33333, 0, 0, 0.33333, 0, 0)"/>
    <path fill="none" stroke-width="2" d="M1154,-2467 C1154,-2467 1154,-2467 1153,-2467 C1152,-2467 1151,-2468 
        1151,-2468" transform="matrix(0.33333, 0, 0, 0.33333, 0, 0)"/>
    <path fill="none" stroke-width="2" d="M1151,-2439 C1152,-2441 1154,-2452 1155,-2453 C1155,-2455 1154,-2457 
        1153,-2457 C1153,-2457 1153,-2458 1153,-2458 C1153,-2458 1153,-2458 1153,-2458 C1153,-2458 1153,-2458 1153,-2458 
        C1153,-2458 1153,-2460 1154,-2462 C1154,-2465 1154,-2467 1154,-2467 C1154,-2467 1154,-2467 1154,-2467 
        C1152,-2468 1152,-2468 1152,-2468 C1152,-2468 1151,-2468 1151,-2467 C1151,-2467 1150,-2466 1149,-2463 
        C1149,-2461 1148,-2460 1148,-2460 C1148,-2460 1148,-2460 1148,-2460 C1147,-2460 1146,-2460 1145,-2461 
        C1142,-2461 1140,-2462 1137,-2462 C1137,-2462 1137,-2462 1136,-2462 C1136,-2462 1136,-2462 1136,-2462 
        C1136,-2462 1134,-2460 1134,-2459 C1133,-2458 1130,-2448 1129,-2446 C1128,-2443 1127,-2438 1127,-2436 
        C1126,-2433 1126,-2428 1124,-2422 C1123,-2419 1122,-2413 1121,-2411 C1121,-2410 1119,-2407 1121,-2406 
        C1124,-2405 1128,-2404 1130,-2404 C1131,-2403 1135,-2402 1138,-2402 C1141,-2401 1141,-2405 1141,-2405 
        C1141,-2408 1143,-2413 1144,-2417 C1145,-2423 1147,-2427 1148,-2430 C1149,-2432 1151,-2437 1151,-2439 Z"
        transform="matrix(0.33333, 0, 0, 0.33333, 0, 0)"/>
    <path fill="none" stroke-width="2" d="M1132,-2425 C1131,-2424 1130,-2423 1129,-2423 C1128,-2424 1128,-2425 
        1128,-2426 C1128,-2427 1129,-2428 1130,-2427 C1131,-2427 1132,-2426 1132,-2425 Z" transform="matrix(0.33333, 0, 0, 0.33333, 0, 0)"/>
    <path fill="none" stroke-width="2" d="M1137,-2423 C1137,-2422 1135,-2421 1134,-2421 C1133,-2422 1133,-2423 
        1133,-2424 C1133,-2425 1134,-2425 1135,-2425 C1137,-2425 1137,-2424 1137,-2423 Z" transform="matrix(0.33333, 0, 0, 0.33333, 0, 0)"/>
    <path fill="none" stroke-width="2" d="M1142,-2422 C1142,-2421 1141,-2420 1140,-2420 C1139,-2421 1138,-2422 
        1138,-2423 C1139,-2424 1140,-2425 1141,-2424 C1142,-2424 1143,-2423 1142,-2422 Z" transform="matrix(0.33333, 0, 0, 0.33333, 0, 0)"/>
    <path fill="none" stroke-width="2" d="M1131,-2420 C1130,-2419 1129,-2419 1128,-2419 C1127,-2419 1126,-2420 
        1127,-2421 C1127,-2422 1128,-2423 1129,-2423 C1130,-2423 1131,-2421 1131,-2420 Z" transform="matrix(0.33333, 0, 0, 0.33333, 0, 0)"/>
    <path fill="none" stroke-width="2" d="M1136,-2418 C1135,-2417 1134,-2417 1133,-2417 C1132,-2417 1131,-2418 
        1132,-2419 C1132,-2420 1133,-2421 1134,-2421 C1135,-2420 1136,-2419 1136,-2418 Z" transform="matrix(0.33333, 0, 0, 0.33333, 0, 0)"/>
    <path fill="none" stroke-width="2" d="M1141,-2417 C1141,-2416 1140,-2416 1139,-2416 C1138,-2416 1137,-2417 
        1137,-2419 C1138,-2420 1139,-2420 1140,-2420 C1141,-2420 1141,-2419 1141,-2417 Z" transform="matrix(0.33333, 0, 0, 0.33333, 0, 0)"/>
    <path fill="none" stroke-width="2" d="M1129,-2416 C1129,-2415 1128,-2414 1127,-2415 C1126,-2415 1125,-2416 
        1125,-2417 C1126,-2418 1127,-2419 1128,-2418 C1129,-2418 1130,-2417 1129,-2416 Z" transform="matrix(0.33333, 0, 0, 0.33333, 0, 0)"/>
    <path fill="none" stroke-width="2" d="M1134,-2414 C1134,-2413 1133,-2412 1132,-2412 C1131,-2413 1130,-2414 
        1131,-2415 C1131,-2416 1132,-2417 1133,-2416 C1134,-2416 1135,-2415 1134,-2414 Z" transform="matrix(0.33333, 0, 0, 0.33333, 0, 0)"/>
    <path fill="none" stroke-width="2" d="M1140,-2413 C1140,-2412 1138,-2411 1137,-2412 C1136,-2412 1136,-2413 
        1136,-2414 C1136,-2415 1137,-2416 1138,-2416 C1140,-2415 1140,-2414 1140,-2413 Z" transform="matrix(0.33333, 0, 0, 0.33333, 0, 0)"/>
    <path fill="none" stroke-width="2" d="M1128,-2412 C1128,-2410 1127,-2410 1126,-2410 C1125,-2410 1124,-2412 
        1124,-2413 C1125,-2414 1126,-2414 1127,-2414 C1128,-2414 1128,-2413 1128,-2412 Z M1133,-2409 C1133,-2408 
        1132,-2408 1131,-2408 C1130,-2408 1129,-2409 1129,-2410 C1130,-2412 1131,-2412 1132,-2412 C1133,-2412 1133,-2410 
        1133,-2409 Z" transform="matrix(0.33333, 0, 0, 0.33333, 0, 0)"/>
    <path fill="none" stroke-width="2" d="M1139,-2409 C1138,-2408 1137,-2407 1136,-2407 C1135,-2408 1134,-2409 
        1135,-2410 C1135,-2411 1136,-2411 1137,-2411 C1138,-2411 1139,-2410 1139,-2409 Z" transform="matrix(0.33333, 0, 0, 0.33333, 0, 0)"/>
    <path d="M1131,-2406 C1131,-2406 1130,-2406 1130,-2406 C1130,-2406 1130,-2407 1130,-2407 C1130,-2407 1130,-2407 
        1130,-2407 C1131,-2407 1131,-2407 1131,-2406 Z M1130,-2407 C1129,-2404 1129,-2404 1129,-2404 M1130,-2406 
        C1129,-2404 1129,-2404 1129,-2404 M1131,-2406 C1130,-2404 1130,-2404 1130,-2404 M1130,-2406 C1130,-2404 
        1130,-2404 1130,-2404 M1135,-2440 C1134,-2438 1134,-2438 1134,-2438 M1135,-2440 C1134,-2438 1134,-2438 
        1134,-2438 M1144,-2437 C1143,-2436 1143,-2436 1143,-2436 M1144,-2437 C1143,-2436 1143,-2436 1143,-2436"
        transform="matrix(0.33333, 0, 0, 0.33333, 0, 0)" stroke="#ffffff"/>
    <path fill="none" stroke-width="2" d="M1153,-2458 C1153,-2458 1153,-2460 1154,-2462 C1154,-2465 1154,-2467 
        1154,-2467 C1154,-2467 1154,-2467 1154,-2467 C1152,-2468 1152,-2468 1152,-2468 C1152,-2468 1151,-2468 1151,-2467 
        C1151,-2467 1150,-2466 1149,-2463 C1149,-2461 1148,-2460 1148,-2460 M1148,-2437 C1148,-2436 1147,-2436 
        1147,-2436 C1131,-2440 1131,-2440 1131,-2440 C1131,-2441 1131,-2441 1131,-2441 C1134,-2451 1134,-2451 1134,-2451 
        C1134,-2452 1134,-2452 1134,-2452 C1150,-2447 1150,-2447 1150,-2447 C1150,-2447 1151,-2447 1150,-2447 Z 
        M1153,-2459 C1152,-2459 1150,-2460 1149,-2460 M1137,-2462 C1137,-2462 1133,-2455 1131,-2447 C1129,-2438 
        1128,-2435 1129,-2431 C1129,-2430 1130,-2429 1131,-2429 C1131,-2428 1132,-2428 1132,-2428 C1132,-2428 1133,-2428 
        1133,-2428 C1134,-2427 1134,-2427 1134,-2427 C1135,-2427 1135,-2426 1136,-2426 C1137,-2426 1137,-2426 1137,-2426 
        C1138,-2426 1138,-2426 1139,-2426 C1139,-2426 1140,-2426 1140,-2426 C1140,-2426 1141,-2426 1141,-2426 
        C1142,-2425 1143,-2426 1144,-2427 C1146,-2430 1148,-2433 1150,-2442 C1152,-2450 1153,-2458 1153,-2458 
        M1135,-2458 C1138,-2458 1141,-2457 1144,-2457 C1147,-2456 1150,-2455 1153,-2454" transform="matrix(0.33333, 0, 0, 0.33333, 0, 0)"/>
    <path fill="none" stroke-width="2" d="M1142,-2431 C1141,-2428 1138,-2427 1136,-2428 C1134,-2428 1132,-2431 
        1133,-2433 C1134,-2435 1136,-2437 1138,-2436 C1141,-2436 1142,-2433 1142,-2431 Z M1133,-2438 C1134,-2438 
        1134,-2438 1135,-2437 C1135,-2437 1135,-2437 1135,-2437 C1135,-2437 1134,-2437 1134,-2436 C1134,-2436 1134,-2436 
        1133,-2436 C1133,-2437 1131,-2438 1131,-2438 C1131,-2438 1131,-2438 1131,-2438 C1132,-2438 1133,-2438 1133,-2438 
        Z M1130,-2433 C1131,-2433 1131,-2433 1132,-2433 C1132,-2432 1132,-2432 1132,-2432 C1132,-2431 1132,-2430 
        1132,-2430 C1133,-2429 1133,-2429 1132,-2429 C1132,-2429 1131,-2429 1131,-2430 C1130,-2430 1130,-2430 1130,-2430 
        C1130,-2431 1130,-2432 1130,-2433 C1130,-2433 1130,-2433 1130,-2433 Z" transform="matrix(0.33333, 0, 0, 0.33333, 0, 0)"/>
    <path fill="none" stroke-width="2" d="M1144,-2435 C1143,-2435 1143,-2435 1142,-2435 C1142,-2435 1142,-2435 
        1142,-2435 C1142,-2435 1142,-2434 1142,-2434 C1143,-2434 1143,-2434 1143,-2434 C1144,-2434 1145,-2434 1146,-2434 
        C1146,-2434 1146,-2434 1146,-2434 C1145,-2435 1144,-2435 1144,-2435 Z M1144,-2429 C1144,-2430 1143,-2430 
        1143,-2430 C1142,-2430 1142,-2429 1142,-2429 C1141,-2429 1141,-2428 1140,-2427 C1140,-2427 1140,-2427 1140,-2427 
        C1141,-2427 1141,-2427 1142,-2427 C1142,-2427 1142,-2427 1143,-2427 C1143,-2427 1144,-2428 1144,-2429 
        C1144,-2429 1144,-2429 1144,-2429 Z" transform="matrix(0.33333, 0, 0, 0.33333, 0, 0)"/>
</svg>