<?xml version="1.0" standalone="no"?>
<!DOCTYPE svg PUBLIC "-//W3C//DTD SVG 1.0//EN"
    "http://www.w3.org/TR/2001/REC-SVG-20010904/DTD/svg10.dtd">
<?xml-stylesheet type="text/css" href="..\cisco_network.css" ?>
<svg contentScriptType="text/ecmascript" zoomAndPan="magnify" xmlns:xlink="http://www.w3.org/1999/xlink" baseProfile="full"
    contentStyleType="text/css" enable-background="new" version="1.0" width="43.3984" preserveAspectRatio="none"
    viewBox="387.01 -552 48.992 19.008" height="16.8378" xmlns="http://www.w3.org/2000/svg" color-interpolation-filters="sRGB"
    x="0" y="1.5">
    <path d="M1162,-1602 L1162,-1632 L1281,-1632 L1281,-1602 L1162,-1602 Z M1281,-1602 L1281,-1632 L1162,-1632 
        L1192,-1654 L1298,-1654 L1306,-1654 L1306,-1629 L1281,-1602 Z" stroke-width="2" transform="matrix(0.33333, 0, 0, 0.33333, 0, 0)"/>
    <path fill="none" d="M1283,-1632 L1304,-1654" stroke-width="2" transform="matrix(0.33333, 0, 0, 0.33333, 0, 0)"/>
    <path fill="#ffffff" d="M1183,-1612 C1185,-1612 1187,-1614 1187,-1616 C1187,-1618 1185,-1620 1183,-1620 C1181,-1620 
        1179,-1618 1179,-1616 C1179,-1614 1181,-1612 1183,-1612 Z" transform="matrix(0.33333, 0, 0, 0.33333, 0, 0)"
        stroke="none"/>
    <path fill="#ffffff" d="M1202,-1612 C1204,-1612 1206,-1614 1206,-1616 C1206,-1618 1204,-1620 1202,-1620 C1200,-1620 
        1198,-1618 1198,-1616 C1198,-1614 1200,-1612 1202,-1612 Z" transform="matrix(0.33333, 0, 0, 0.33333, 0, 0)"
        stroke="none"/>
    <path fill="#ffffff" d="M1221,-1612 C1223,-1612 1225,-1614 1225,-1616 C1225,-1618 1223,-1620 1221,-1620 C1219,-1620 
        1217,-1618 1217,-1616 C1217,-1614 1219,-1612 1221,-1612 Z" transform="matrix(0.33333, 0, 0, 0.33333, 0, 0)"
        stroke="none"/>
    <path fill="#ffffff" d="M1240,-1612 C1242,-1612 1244,-1614 1244,-1616 C1244,-1618 1242,-1620 1240,-1620 C1238,-1620 
        1236,-1618 1236,-1616 C1236,-1614 1238,-1612 1240,-1612 Z" transform="matrix(0.33333, 0, 0, 0.33333, 0, 0)"
        stroke="none"/>
    <path fill="#ffffff" d="M1259,-1612 C1261,-1612 1263,-1614 1263,-1616 C1263,-1618 1261,-1620 1259,-1620 C1257,-1620 
        1255,-1618 1255,-1616 C1255,-1614 1257,-1612 1259,-1612 Z" transform="matrix(0.33333, 0, 0, 0.33333, 0, 0)"
        stroke="none"/>
</svg>