<?xml version="1.0" standalone="no"?>
<!DOCTYPE svg PUBLIC "-//W3C//DTD SVG 1.0//EN"
    "http://www.w3.org/TR/2001/REC-SVG-20010904/DTD/svg10.dtd">
<?xml-stylesheet type="text/css" href="..\cisco_network.css" ?>
<svg contentScriptType="text/ecmascript" zoomAndPan="magnify" xmlns:xlink="http://www.w3.org/1999/xlink" baseProfile="full"
    contentStyleType="text/css" enable-background="new" version="1.0" width="55.8142" preserveAspectRatio="none"
    viewBox="368.99 -550.02 63.008 35.008" height="31.011" xmlns="http://www.w3.org/2000/svg"
    color-interpolation-filters="sRGB" x="0" y="1.5">
    <path d="M1109,-1604 L1165,-1649 L1294,-1649 L1248,-1604 L1109,-1604 Z M1248,-1546 L1294,-1594 L1294,-1649 
        L1248,-1604 L1248,-1546 Z M1248,-1546 L1248,-1604 L1109,-1604 L1109,-1546 L1248,-1546 Z" stroke-width="2"
        transform="matrix(0.33333, 0, 0, 0.33333, 0, 0)"/>
    <path fill="none" stroke-width="3" d="M1194,-1612 C1202,-1619 1213,-1622 1213,-1622 C1225,-1626 1230,-1632 
        1230,-1632 C1242,-1645 1219,-1645 1219,-1645 C1219,-1645 1195,-1645 1183,-1633 C1183,-1633 1177,-1627 1181,-1622 
        C1181,-1622 1185,-1619 1180,-1612" transform="matrix(0.33333, 0, 0, 0.33333, 0, 0)" stroke="#ffffff"/>
    <path fill="none" d="M1194,-1612 C1194,-1612 1193,-1611 1192,-1611 C1180,-1612 1180,-1612 1180,-1612 C1179,-1612 
        1179,-1612 1180,-1612 C1180,-1612 1180,-1612 1180,-1612 C1180,-1613 1181,-1613 1181,-1613 C1193,-1613 1193,-1613 
        1193,-1613 C1194,-1613 1194,-1612 1194,-1612 Z" transform="matrix(0.33333, 0, 0, 0.33333, 0, 0)"/>
    <path fill="none" d="M1192,-1610 C1192,-1610 1191,-1610 1191,-1610 C1179,-1610 1179,-1610 1179,-1610 C1178,-1610 
        1178,-1610 1178,-1611 C1178,-1611 1178,-1611 1178,-1611 C1178,-1611 1179,-1611 1180,-1611 C1192,-1611 1192,-1611 
        1192,-1611 C1192,-1611 1193,-1611 1192,-1610 Z" transform="matrix(0.33333, 0, 0, 0.33333, 0, 0)" stroke="#ffffff"/>
    <path fill="none" d="M1191,-1609 C1190,-1608 1190,-1608 1189,-1608 C1177,-1608 1177,-1608 1177,-1608 C1176,-1608 
        1176,-1609 1177,-1609 C1177,-1609 1177,-1609 1177,-1609 C1177,-1609 1178,-1610 1178,-1610 C1190,-1609 1190,-1609 
        1190,-1609 C1191,-1609 1191,-1609 1191,-1609 Z" transform="matrix(0.33333, 0, 0, 0.33333, 0, 0)" stroke="#ffffff"/>
    <path fill="#ffffff" d="M1228,-1619 L1233,-1607 L1216,-1614 Z" transform="matrix(0.33333, 0, 0, 0.33333, 0, 0)"
        stroke="none"/>
    <path fill="none" d="M1226,-1614 L1218,-1619" stroke-width="2" transform="matrix(0.33333, 0, 0, 0.33333, 0, 0)"
        stroke="#ffffff" stroke-linecap="round"/>
    <path fill="#ffffff" d="M1184,-1643 L1166,-1646 L1172,-1637 Z" transform="matrix(0.33333, 0, 0, 0.33333, 0, 0)"
        stroke="none"/>
    <path fill="none" d="M1183,-1638 L1174,-1642" stroke-width="2" transform="matrix(0.33333, 0, 0, 0.33333, 0, 0)"
        stroke-linecap="round" stroke="#ffffff"/>
    <path fill="#ffffff" d="M1172,-1614 L1146,-1612 L1163,-1621 Z" transform="matrix(0.33333, 0, 0, 0.33333, 0, 0)"
        stroke="none"/>
    <path fill="none" d="M1172,-1614 L1146,-1612 L1163,-1621" transform="matrix(0.33333, 0, 0, 0.33333, 0, 0)" stroke="none"/>
    <path fill="none" d="M1163,-1616 L1174,-1619" stroke-width="2" transform="matrix(0.33333, 0, 0, 0.33333, 0, 0)"
        stroke-linecap="round" stroke="#ffffff"/>
    <path fill="#ffffff" d="M1242,-1643 L1263,-1641 L1244,-1635 Z" transform="matrix(0.33333, 0, 0, 0.33333, 0, 0)"
        stroke="none"/>
    <path fill="none" d="M1249,-1639 L1238,-1637" stroke-width="2" transform="matrix(0.33333, 0, 0, 0.33333, 0, 0)"
        stroke-linecap="round" stroke="#ffffff"/>
    <path fill="#ffffff" d="M1155,-1625 L1176,-1630 L1161,-1633 Z" transform="matrix(0.33333, 0, 0, 0.33333, 0, 0)"
        stroke="none"/>
    <path fill="none" d="M1148,-1629 L1160,-1629 M1244,-1625 L1256,-1625" stroke-width="2" transform="matrix(0.33333, 0, 0, 0.33333, 0, 0)"
        stroke="#ffffff" stroke-linecap="round"/>
    <path fill="#ffffff" d="M1249,-1630 L1230,-1626 L1248,-1620 Z" transform="matrix(0.33333, 0, 0, 0.33333, 0, 0)"
        stroke="none"/>
    <path fill="none" d="M1179,-1607 C1182,-1605 1186,-1607 1186,-1607" transform="matrix(0.33333, 0, 0, 0.33333, 0, 0)"
        stroke="#ffffff"/>
    <text x="0,9" font-size="32" y="0" transform="matrix(0.33333, 0, 0, 0.33333, 382.22, -520.89)" fill="#ffffff"
        font-family="'Helvetica'" font-style="normal" stroke="none" font-weight="700" xml:space="preserve">M</text>
    <text x="0,9" font-size="32" y="0" transform="matrix(0.33333, 0, 0, 0.33333, 391.11, -520.89)" fill="#ffffff"
        font-family="'Helvetica'" font-style="normal" stroke="none" font-weight="700" xml:space="preserve">S</text>
    <text x="0,9" font-size="32" y="0" transform="matrix(0.33333, 0, 0, 0.33333, 398.22, -520.89)" fill="#ffffff"
        font-family="'Helvetica'" font-style="normal" stroke="none" font-weight="700" xml:space="preserve">E</text>
</svg>