<?xml version="1.0" standalone="no"?>
<!DOCTYPE svg PUBLIC "-//W3C//DTD SVG 1.0//EN"
    "http://www.w3.org/TR/2001/REC-SVG-20010904/DTD/svg10.dtd">
<?xml-stylesheet type="text/css" href="..\cisco_network.css" ?>
<svg contentScriptType="text/ecmascript" zoomAndPan="magnify" xmlns:xlink="http://www.w3.org/1999/xlink" baseProfile="full"
    contentStyleType="text/css" enable-background="new" version="1.0" width="31.8898" preserveAspectRatio="none"
    viewBox="392.99 -552 36 48" height="42.5197" xmlns="http://www.w3.org/2000/svg" color-interpolation-filters="sRGB"
    x="0" y="1.5">
    <path d="M1267,-1512 L1267,-1600 L1180,-1600 L1180,-1512 L1267,-1512 Z" stroke-width="2" transform="matrix(0.33333, 0, 0, 0.33333, 0, 0)"/>
    <path fill="none" d="M1267,-1600 L1285,-1618" stroke-width="2" transform="matrix(0.33333, 0, 0, 0.33333, 0, 0)"/>
    <path fill="none" d="M1233,-1600 L1233,-1512" stroke-width="2" transform="matrix(0.33333, 0, 0, 0.33333, 0, 0)"/>
    <path d="M1267,-1549 L1267,-1637 L1180,-1637 L1180,-1549 L1267,-1549 Z M1285,-1655 L1285,-1655 L1285,-1531 
        L1267,-1513 L1267,-1637 L1267,-1637 L1285,-1655 Z M1267,-1637 L1181,-1637 L1202,-1655 L1285,-1655 L1267,-1637 Z"
        stroke-width="2" transform="matrix(0.33333, 0, 0, 0.33333, 0, 0)"/>
    <path fill="none" d="M1267,-1637 L1285,-1655 M1267,-1548 L1267,-1548 M1180,-1548 L1180,-1548 M1192,-1615 L1262,-1615 
        M1189,-1593 L1259,-1593 M1186,-1573 L1256,-1573 M1196,-1561 L1210,-1627 M1240,-1561 L1255,-1627 M1218,-1562 
        L1232,-1628" stroke-width="2" transform="matrix(0.33333, 0, 0, 0.33333, 0, 0)"/>
    <path fill="#ffffff" d="M1213,-1615 C1213,-1613 1210,-1611 1207,-1611 C1204,-1611 1202,-1613 1202,-1615 C1202,-1617 
        1204,-1618 1207,-1618 C1210,-1618 1213,-1617 1213,-1615 Z" transform="matrix(0.33333, 0, 0, 0.33333, 0, 0)"
        stroke="none"/>
    <path fill="#ffffff" d="M1235,-1616 C1235,-1614 1233,-1612 1230,-1612 C1227,-1612 1224,-1614 1224,-1616 C1224,-1618 
        1227,-1619 1230,-1619 C1233,-1619 1235,-1618 1235,-1616 Z" transform="matrix(0.33333, 0, 0, 0.33333, 0, 0)"
        stroke="none"/>
    <path fill="#ffffff" d="M1258,-1614 C1258,-1612 1255,-1611 1252,-1611 C1249,-1611 1247,-1612 1247,-1614 C1247,-1616 
        1249,-1618 1252,-1618 C1255,-1618 1258,-1616 1258,-1614 Z" transform="matrix(0.33333, 0, 0, 0.33333, 0, 0)"
        stroke="none"/>
    <path fill="#ffffff" d="M1207,-1593 C1207,-1591 1205,-1590 1202,-1590 C1199,-1590 1197,-1591 1197,-1593 C1197,-1595 
        1199,-1597 1202,-1597 C1205,-1597 1207,-1595 1207,-1593 Z" transform="matrix(0.33333, 0, 0, 0.33333, 0, 0)"
        stroke="none"/>
    <path fill="#ffffff" d="M1230,-1593 C1230,-1591 1228,-1589 1225,-1589 C1222,-1589 1219,-1591 1219,-1593 C1219,-1595 
        1222,-1596 1225,-1596 C1228,-1596 1230,-1595 1230,-1593 Z" transform="matrix(0.33333, 0, 0, 0.33333, 0, 0)"
        stroke="none"/>
    <path fill="#ffffff" d="M1253,-1594 C1253,-1592 1250,-1590 1247,-1590 C1244,-1590 1242,-1592 1242,-1594 C1242,-1596 
        1244,-1597 1247,-1597 C1250,-1597 1253,-1596 1253,-1594 Z" transform="matrix(0.33333, 0, 0, 0.33333, 0, 0)"
        stroke="none"/>
    <path fill="#ffffff" d="M1203,-1573 C1203,-1571 1200,-1569 1197,-1569 C1194,-1569 1192,-1571 1192,-1573 C1192,-1575 
        1194,-1576 1197,-1576 C1200,-1576 1203,-1575 1203,-1573 Z" transform="matrix(0.33333, 0, 0, 0.33333, 0, 0)"
        stroke="none"/>
    <path fill="#ffffff" d="M1226,-1573 C1226,-1571 1223,-1569 1220,-1569 C1217,-1569 1215,-1571 1215,-1573 C1215,-1575 
        1217,-1576 1220,-1576 C1223,-1576 1226,-1575 1226,-1573 Z" transform="matrix(0.33333, 0, 0, 0.33333, 0, 0)"
        stroke="none"/>
    <path fill="#ffffff" d="M1248,-1573 C1248,-1571 1246,-1569 1243,-1569 C1240,-1569 1237,-1571 1237,-1573 C1237,-1575 
        1240,-1576 1243,-1576 C1246,-1576 1248,-1575 1248,-1573 Z" transform="matrix(0.33333, 0, 0, 0.33333, 0, 0)"
        stroke="none"/>
    <path d="M1261,-1540 C1261,-1538 1256,-1536 1250,-1536 C1245,-1536 1240,-1538 1240,-1540 C1240,-1520 1240,-1520 
        1240,-1520 C1240,-1518 1245,-1517 1250,-1517 C1256,-1517 1261,-1518 1261,-1520 Z" stroke-width="2" transform="matrix(0.33333, 0, 0, 0.33333, 0, 0)"/>
    <path d="M1250,-1536 C1256,-1536 1261,-1538 1261,-1540 C1261,-1542 1256,-1544 1250,-1544 C1245,-1544 1240,-1542 
        1240,-1540 C1240,-1538 1245,-1536 1250,-1536 Z" stroke-width="2" transform="matrix(0.33333, 0, 0, 0.33333, 0, 0)"/>
    <path fill="#ffffff" d="M1192,-1521 L1213,-1521 L1213,-1516 L1222,-1522 L1213,-1529 L1213,-1524 L1192,-1524 Z"
        transform="matrix(0.33333, 0, 0, 0.33333, 0, 0)" stroke="none"/>
    <path fill="#ffffff" d="M1221,-1539 L1200,-1539 L1200,-1543 L1191,-1537 L1200,-1530 L1200,-1535 L1221,-1535 Z"
        transform="matrix(0.33333, 0, 0, 0.33333, 0, 0)" stroke="none"/>
</svg>