<?xml version="1.0" standalone="no"?>
<!DOCTYPE svg PUBLIC "-//W3C//DTD SVG 1.0//EN"
    "http://www.w3.org/TR/2001/REC-SVG-20010904/DTD/svg10.dtd">
<?xml-stylesheet type="text/css" href="..\cisco_network.css" ?>
<svg contentScriptType="text/ecmascript" zoomAndPan="magnify" xmlns:xlink="http://www.w3.org/1999/xlink" baseProfile="full"
    contentStyleType="text/css" enable-background="new" version="1.0" width="37.2189" preserveAspectRatio="none"
    viewBox="388 -556 42.016 56" height="49.6063" xmlns="http://www.w3.org/2000/svg" color-interpolation-filters="sRGB"
    x="0" y="1.5">
    <path stroke-width="2" d="M1167,-1501 L1167,-1609 L1274,-1609 L1274,-1501 L1167,-1501 Z M1288,-1515 L1288,-1622 
        L1274,-1609 L1274,-1501 L1288,-1515 Z M1187,-1666 L1167,-1652 L1274,-1652 L1288,-1666 L1187,-1666 Z M1167,-1609 
        L1167,-1652 L1274,-1652 L1274,-1609 L1167,-1609 Z M1288,-1622 L1288,-1666 L1274,-1652 L1274,-1609 L1288,-1622 Z"
        transform="matrix(0.33333, 0, 0, 0.33333, 0, 0)"/>
    <path fill="none" d="M1274,-1609 L1167,-1609" stroke-width="2" transform="matrix(0.33333, 0, 0, 0.33333, 0, 0)"/>
    <path fill="none" d="M1274,-1609 L1288,-1622" stroke-width="2" transform="matrix(0.33333, 0, 0, 0.33333, 0, 0)"/>
    <path fill="#ffffff" d="M1202,-1637 L1202,-1646 L1185,-1646 L1185,-1637 L1202,-1637 Z" transform="matrix(0.33333, 0, 0, 0.33333, 0, 0)"
        stroke="none"/>
    <path fill="none" d="M1193,-1642 L1193,-1642" stroke-width="2" transform="matrix(0.33333, 0, 0, 0.33333, 0, 0)"/>
    <path fill="#ffffff" d="M1241,-1637 L1241,-1646 L1259,-1646 L1259,-1637 L1241,-1637 Z" transform="matrix(0.33333, 0, 0, 0.33333, 0, 0)"
        stroke="none"/>
    <path fill="none" d="M1250,-1642 L1250,-1642" stroke-width="2" transform="matrix(0.33333, 0, 0, 0.33333, 0, 0)"/>
    <path fill="#ffffff" d="M1202,-1615 L1202,-1624 L1185,-1624 L1185,-1615 L1202,-1615 Z" transform="matrix(0.33333, 0, 0, 0.33333, 0, 0)"
        stroke="none"/>
    <path fill="none" d="M1193,-1619 L1193,-1619" stroke-width="2" transform="matrix(0.33333, 0, 0, 0.33333, 0, 0)"/>
    <path fill="#ffffff" d="M1241,-1615 L1241,-1624 L1259,-1624 L1259,-1615 L1241,-1615 Z" transform="matrix(0.33333, 0, 0, 0.33333, 0, 0)"
        stroke="none"/>
    <path fill="none" d="M1250,-1619 L1250,-1619" stroke-width="2" transform="matrix(0.33333, 0, 0, 0.33333, 0, 0)"/>
    <path fill="none" d="M1196,-1642 L1250,-1642" stroke-width="2" transform="matrix(0.33333, 0, 0, 0.33333, 0, 0)"
        stroke="#ffffff"/>
    <path fill="none" d="M1196,-1619 L1250,-1619" stroke-width="2" transform="matrix(0.33333, 0, 0, 0.33333, 0, 0)"
        stroke="#ffffff"/>
    <path fill="none" d="M1193,-1619 L1250,-1642" stroke-width="2" transform="matrix(0.33333, 0, 0, 0.33333, 0, 0)"
        stroke="#ffffff"/>
    <path fill="none" d="M1193,-1642 L1250,-1619" stroke-width="2" transform="matrix(0.33333, 0, 0, 0.33333, 0, 0)"
        stroke="#ffffff"/>
    <path fill="#ffffff" d="M1226,-1579 L1234,-1579 L1234,-1578 L1236,-1580 L1234,-1582 L1234,-1581 L1226,-1581 
        L1226,-1579 Z M1225,-1583 L1230,-1588 L1231,-1587 L1232,-1591 L1229,-1590 L1230,-1589 L1224,-1584 L1225,-1583 Z 
        M1222,-1585 L1222,-1592 L1223,-1592 L1221,-1595 L1219,-1592 L1221,-1592 L1221,-1585 L1222,-1585 Z M1218,-1584 
        L1213,-1589 L1214,-1590 L1210,-1591 L1211,-1587 L1212,-1588 L1217,-1583 L1218,-1584 Z M1216,-1581 L1209,-1581 
        L1209,-1582 L1206,-1580 L1209,-1578 L1209,-1579 L1216,-1579 L1216,-1581 Z M1224,-1576 L1230,-1571 L1229,-1570 
        L1232,-1569 L1231,-1572 L1230,-1571 L1225,-1577 L1224,-1576 Z" transform="matrix(0.33333, 0, 0, 0.33333, 0, 0)"
        stroke="none"/>
    <path fill="#ffffff" d="M1215,-1575 C1217,-1572 1222,-1571 1226,-1573 C1229,-1576 1230,-1581 1227,-1584 C1225,-1588 
        1220,-1589 1217,-1586 C1213,-1584 1212,-1579 1215,-1575 Z" transform="matrix(0.33333, 0, 0, 0.33333, 0, 0)"
        stroke="none"/>
    <path fill="none" d="M1221,-1576 L1221,-1527" stroke-width="3" transform="matrix(0.33333, 0, 0, 0.33333, 0, 0)"/>
    <path fill="#ffffff" d="M1218,-1523 L1213,-1523 L1213,-1524 L1211,-1523 L1213,-1522 L1213,-1523 L1218,-1523 
        L1218,-1523 Z M1219,-1521 L1215,-1517 L1214,-1518 L1214,-1515 L1216,-1516 L1215,-1517 L1219,-1520 L1219,-1521 Z 
        M1221,-1519 L1221,-1514 L1220,-1514 L1221,-1512 L1223,-1514 L1222,-1514 L1222,-1519 L1221,-1519 Z M1224,-1520 
        L1227,-1517 L1227,-1516 L1229,-1515 L1228,-1518 L1228,-1517 L1224,-1521 L1224,-1520 Z M1225,-1523 L1230,-1523 
        L1230,-1522 L1232,-1523 L1230,-1524 L1230,-1523 L1225,-1523 L1225,-1523 Z M1219,-1526 L1215,-1530 L1216,-1530 
        L1214,-1531 L1214,-1528 L1215,-1529 L1219,-1525 L1219,-1526 Z" transform="matrix(0.33333, 0, 0, 0.33333, 0, 0)"
        stroke="none"/>
    <path fill="#ffffff" d="M1226,-1526 C1224,-1529 1221,-1529 1218,-1528 C1216,-1526 1215,-1522 1217,-1520 C1219,-1518 
        1222,-1517 1224,-1519 C1227,-1520 1227,-1524 1226,-1526 Z" transform="matrix(0.33333, 0, 0, 0.33333, 0, 0)"
        stroke="none"/>
    <path fill="#ffffff" d="M1224,-1526 L1228,-1529 L1228,-1529 L1229,-1531 L1227,-1531 L1227,-1530 L1224,-1526 
        L1224,-1526 Z" transform="matrix(0.33333, 0, 0, 0.33333, 0, 0)" stroke="none"/>
</svg>