<?xml version="1.0" standalone="no"?>
<!DOCTYPE svg PUBLIC "-//W3C//DTD SVG 1.0//EN"
    "http://www.w3.org/TR/2001/REC-SVG-20010904/DTD/svg10.dtd">
<?xml-stylesheet type="text/css" href="..\cisco_network.css" ?>
<svg contentScriptType="text/ecmascript" zoomAndPan="magnify" xmlns:xlink="http://www.w3.org/1999/xlink" baseProfile="full"
    contentStyleType="text/css" enable-background="new" version="1.0" width="57.5717" preserveAspectRatio="none"
    viewBox="383.01 -568.99 64.992 41.984" height="37.1906" xmlns="http://www.w3.org/2000/svg"
    color-interpolation-filters="sRGB" x="0" y="1.5">
    <path stroke-width="2" d="M1152,-1659 L1209,-1705 L1343,-1705 L1295,-1659 L1152,-1659 Z" transform="matrix(0.33333, 0, 0, 0.33333, 0, 0)"/>
    <path fill="#ffffff" d="M1258,-1689 L1257,-1688 L1217,-1688 L1214,-1684 L1203,-1688 L1224,-1695 L1219,-1689 
        L1258,-1689 Z" transform="matrix(0.33333, 0, 0, 0.33333, 0, 0)" stroke="none"/>
    <path stroke-width="2" d="M1295,-1583 L1343,-1631 L1343,-1705 L1295,-1659 L1295,-1583 Z" transform="matrix(0.33333, 0, 0, 0.33333, 0, 0)"/>
    <path fill="#ffffff" d="M1303,-1696 L1307,-1700 L1318,-1696 L1296,-1689 L1302,-1695 L1262,-1695 L1264,-1696 
        L1303,-1696 ZM1237,-1667 L1236,-1666 L1196,-1666 L1193,-1662 L1182,-1666 L1203,-1673 L1198,-1667 L1237,-1667 Z 
        M1282,-1674 L1286,-1678 L1297,-1674 L1275,-1667 L1281,-1673 L1241,-1673 L1243,-1674 L1282,-1674 Z" transform="matrix(0.33333, 0, 0, 0.33333, 0, 0)"
        stroke="none"/>
    <path stroke-width="2" d="M1295,-1583 L1295,-1659 L1152,-1659 L1152,-1583 L1295,-1583 Z" transform="matrix(0.33333, 0, 0, 0.33333, 0, 0)"/>
    <path fill="#ffffff" d="M1196,-1626 L1196,-1637 L1175,-1637 L1175,-1626 L1196,-1626 Z M1246,-1626 L1246,-1637 
        L1267,-1637 L1267,-1626 L1246,-1626 Z M1196,-1598 L1196,-1609 L1175,-1609 L1175,-1598 L1196,-1598 Z M1246,-1598 
        L1246,-1609 L1267,-1609 L1267,-1598 L1246,-1598 Z" transform="matrix(0.33333, 0, 0, 0.33333, 0, 0)" stroke="none"/>
    <path fill="none" stroke-width="2" d="M1189,-1632 L1256,-1632 M1189,-1604 L1256,-1604 M1186,-1604 L1256,-1632 
        M1186,-1632 L1256,-1604" transform="matrix(0.33333, 0, 0, 0.33333, 0, 0)" stroke="#ffffff"/>
    <path fill="#ffffff" d="M1318,-1649 L1323,-1675 L1328,-1681 L1328,-1687 L1337,-1687 L1329,-1670 L1329,-1678 
        L1325,-1673 L1321,-1648 L1319,-1642 L1313,-1613 L1308,-1607 L1308,-1601 L1299,-1599 L1307,-1618 L1307,-1611 
        L1310,-1615 L1317,-1643 L1318,-1649 Z M1306,-1654 L1306,-1654 L1310,-1657 L1316,-1645 L1319,-1641 L1325,-1629 
        L1331,-1633 L1331,-1626 L1339,-1642 L1331,-1641 L1331,-1636 L1326,-1632 L1319,-1645 L1317,-1649 L1310,-1661 
        L1306,-1657 L1306,-1665 L1298,-1647 L1306,-1649 L1306,-1654 Z" transform="matrix(0.33333, 0, 0, 0.33333, 0, 0)"
        stroke="none"/>
</svg>