<?xml version="1.0" standalone="no"?>
<!DOCTYPE svg PUBLIC "-//W3C//DTD SVG 1.0//EN"
    "http://www.w3.org/TR/2001/REC-SVG-20010904/DTD/svg10.dtd">
<?xml-stylesheet type="text/css" href="..\cisco_network.css" ?>
<svg contentScriptType="text/ecmascript" zoomAndPan="magnify" xmlns:xlink="http://www.w3.org/1999/xlink" baseProfile="full"
    contentStyleType="text/css" enable-background="new" version="1.0" width="34.5543" preserveAspectRatio="none"
    viewBox="380.99 -552.99 39.008 40" height="35.4331" xmlns="http://www.w3.org/2000/svg" color-interpolation-filters="sRGB"
    x="0" y="1.5">
    <path d="M1246,-1542 L1146,-1542 L1146,-1647 L1246,-1647 L1246,-1542 Z M1257,-1553 L1246,-1542 L1246,-1647 
        L1257,-1658 L1257,-1553 Z M1257,-1658 L1157,-1658 L1146,-1647 L1246,-1647 L1257,-1658 Z" stroke-width="2"
        transform="matrix(0.33333, 0, 0, 0.33333, 0, 0)"/>
    <path d="M1172,-1639 L1154,-1621 L1223,-1555 L1241,-1574 L1172,-1639 Z" stroke-width="2" transform="matrix(0.33333, 0, 0, 0.33333, 0, 0)"/>
    <path fill="#ffffff" d="M1241,-1574 L1173,-1638 L1172,-1639 L1169,-1636 L1157,-1624 L1154,-1621 L1223,-1555 
        L1241,-1574 Z M1171,-1636 L1172,-1637 L1174,-1636 L1172,-1635 L1171,-1636 Z M1174,-1633 L1175,-1635 L1176,-1633 
        L1175,-1632 L1174,-1633 Z M1176,-1630 L1178,-1632 L1179,-1631 L1178,-1629 L1176,-1630 Z M1179,-1628 L1181,-1629 
        L1182,-1628 L1181,-1626 L1179,-1628 Z M1182,-1625 L1183,-1627 L1185,-1625 L1184,-1624 L1182,-1625 Z M1185,-1622 
        L1186,-1624 L1188,-1623 L1186,-1621 L1185,-1622 Z M1188,-1620 L1189,-1621 L1191,-1620 L1189,-1618 L1188,-1620 Z 
        M1191,-1617 L1192,-1618 L1193,-1617 L1192,-1616 L1191,-1617 Z M1193,-1614 L1195,-1616 L1196,-1614 L1195,-1613 
        L1193,-1614 Z M1196,-1612 L1198,-1613 L1199,-1612 L1198,-1610 L1196,-1612 Z M1199,-1609 L1200,-1610 L1202,-1609 
        L1201,-1608 L1199,-1609 Z M1202,-1606 L1203,-1608 L1205,-1606 L1203,-1605 L1202,-1606 Z M1205,-1604 L1206,-1605 
        L1208,-1604 L1206,-1602 L1205,-1604 Z M1208,-1601 L1209,-1602 L1210,-1601 L1209,-1600 L1208,-1601 Z M1210,-1598 
        L1212,-1600 L1213,-1598 L1212,-1597 L1210,-1598 Z M1213,-1596 L1215,-1597 L1216,-1596 L1215,-1594 L1213,-1596 Z 
        M1216,-1593 L1217,-1594 L1219,-1593 L1217,-1592 L1216,-1593 Z M1219,-1590 L1220,-1592 L1222,-1590 L1220,-1589 
        L1219,-1590 Z M1222,-1588 L1223,-1589 L1224,-1588 L1223,-1586 L1222,-1588 Z M1225,-1585 L1226,-1586 L1227,-1585 
        L1226,-1583 L1225,-1585 Z M1227,-1582 L1229,-1584 L1230,-1582 L1229,-1581 L1227,-1582 Z M1230,-1579 L1232,-1581 
        L1233,-1580 L1232,-1578 L1230,-1579 Z M1233,-1577 L1234,-1578 L1236,-1577 L1234,-1575 L1233,-1577 Z M1236,-1574 
        L1237,-1575 L1239,-1574 L1237,-1573 L1236,-1574 Z M1158,-1623 L1170,-1635 L1186,-1620 L1174,-1608 L1158,-1623 Z 
        M1175,-1607 L1187,-1619 L1203,-1604 L1191,-1592 L1175,-1607 Z M1192,-1590 L1204,-1603 L1220,-1588 L1208,-1576 
        L1192,-1590 Z M1209,-1574 L1221,-1587 L1236,-1572 L1225,-1560 L1209,-1574 Z M1156,-1620 L1157,-1622 L1159,-1621 
        L1158,-1619 L1156,-1620 Z M1159,-1618 L1160,-1619 L1162,-1618 L1160,-1616 L1159,-1618 Z M1162,-1615 L1163,-1616 
        L1165,-1615 L1163,-1614 L1162,-1615 Z M1165,-1612 L1166,-1614 L1167,-1612 L1166,-1611 L1165,-1612 Z M1167,-1610 
        L1169,-1611 L1170,-1610 L1169,-1608 L1167,-1610 Z M1170,-1607 L1172,-1608 L1173,-1607 L1172,-1606 L1170,-1607 Z 
        M1173,-1604 L1174,-1606 L1176,-1604 L1175,-1603 L1173,-1604 Z M1176,-1602 L1177,-1603 L1179,-1602 L1177,-1600 
        L1176,-1602 Z M1179,-1599 L1180,-1600 L1182,-1599 L1180,-1598 L1179,-1599 Z M1182,-1596 L1183,-1598 L1184,-1596 
        L1183,-1595 L1182,-1596 Z M1184,-1594 L1186,-1595 L1187,-1594 L1186,-1592 L1184,-1594 Z M1187,-1591 L1189,-1592 
        L1190,-1591 L1189,-1590 L1187,-1591 Z M1190,-1588 L1191,-1590 L1193,-1588 L1192,-1587 L1190,-1588 Z M1193,-1586 
        L1194,-1587 L1196,-1586 L1194,-1584 L1193,-1586 Z M1196,-1583 L1197,-1584 L1199,-1583 L1197,-1581 L1196,-1583 Z 
        M1199,-1580 L1200,-1582 L1201,-1580 L1200,-1579 L1199,-1580 Z M1201,-1577 L1203,-1579 L1204,-1578 L1203,-1576 
        L1201,-1577 Z M1204,-1575 L1206,-1576 L1207,-1575 L1206,-1573 L1204,-1575 Z M1207,-1572 L1208,-1574 L1210,-1572 
        L1209,-1571 L1207,-1572 Z M1210,-1569 L1211,-1571 L1213,-1569 L1211,-1568 L1210,-1569 Z M1213,-1567 L1214,-1568 
        L1216,-1567 L1214,-1565 L1213,-1567 Z M1216,-1564 L1217,-1565 L1218,-1564 L1217,-1563 L1216,-1564 Z M1218,-1561 
        L1220,-1563 L1221,-1561 L1220,-1560 L1218,-1561 Z M1221,-1559 L1223,-1560 L1224,-1559 L1223,-1557 L1221,-1559 Z"
        transform="matrix(0.33333, 0, 0, 0.33333, 0, 0)" stroke="none"/>
</svg>