<?xml version="1.0" standalone="no"?>
<!DOCTYPE svg PUBLIC "-//W3C//DTD SVG 1.0//EN"
    "http://www.w3.org/TR/2001/REC-SVG-20010904/DTD/svg10.dtd">
<?xml-stylesheet type="text/css" href="..\cisco_network.css" ?>
<svg contentScriptType="text/ecmascript" zoomAndPan="magnify" xmlns:xlink="http://www.w3.org/1999/xlink" baseProfile="full"
    contentStyleType="text/css" enable-background="new" version="1.0" width="48.7276" preserveAspectRatio="none"
    viewBox="380 -548.99 55.008 42.976" height="38.0693" xmlns="http://www.w3.org/2000/svg" color-interpolation-filters="sRGB"
    x="0" y="1.5">
    <path d="M1292,-1523 L1184,-1523 L1184,-1630 L1292,-1630 L1292,-1523 Z M1197,-1644 L1304,-1644 L1291,-1631 
        L1183,-1631 L1197,-1644 Z M1305,-1540 L1291,-1520 L1291,-1631 L1305,-1645 L1305,-1540 Z M1184,-1523 L1141,-1523 
        L1141,-1630 L1184,-1630 L1184,-1523 Z M1155,-1644 L1199,-1644 L1185,-1631 L1142,-1631 L1155,-1644 Z"
        stroke-width="2" transform="matrix(0.33333, 0, 0, 0.33333, 0, 0)"/>
    <path fill="none" d="M1184,-1630 L1184,-1523" stroke-width="2" transform="matrix(0.33333, 0, 0, 0.33333, 0, 0)"/>
    <path fill="none" d="M1185,-1631 L1198,-1644" stroke-width="2" transform="matrix(0.33333, 0, 0, 0.33333, 0, 0)"/>
    <path fill="#ffffff" d="M1161,-1601 C1161,-1600 1161,-1600 1161,-1600 C1158,-1596 1156,-1594 1154,-1594 C1152,-1594 
        1150,-1595 1148,-1599 C1149,-1599 1149,-1599 1149,-1599 C1151,-1599 1154,-1600 1157,-1604 C1157,-1605 1157,-1605 
        1157,-1605 C1156,-1606 1156,-1606 1156,-1606 C1154,-1608 1152,-1611 1152,-1613 C1152,-1614 1154,-1616 1157,-1618 
        C1157,-1615 1158,-1613 1160,-1610 C1161,-1609 1161,-1609 1161,-1609 C1162,-1610 1162,-1610 1162,-1610 
        C1165,-1614 1167,-1616 1169,-1616 C1171,-1616 1173,-1614 1174,-1611 C1173,-1611 1173,-1611 1173,-1611 
        C1172,-1611 1171,-1611 1170,-1610 C1168,-1609 1167,-1607 1166,-1606 C1165,-1605 1165,-1605 1165,-1605 
        C1166,-1604 1166,-1604 1166,-1604 C1169,-1602 1171,-1600 1174,-1600 C1173,-1597 1171,-1595 1169,-1595 
        C1168,-1595 1165,-1597 1162,-1599 Z" transform="matrix(0.33333, 0, 0, 0.33333, 0, 0)" stroke="none"/>
    <path fill="#ffffff" d="M1174,-1560 C1171,-1557 1168,-1554 1165,-1549 C1162,-1545 1160,-1541 1158,-1538 C1156,-1536 
        1156,-1536 1156,-1536 C1155,-1535 1153,-1534 1153,-1534 C1153,-1535 1152,-1536 1151,-1538 C1151,-1540 1151,-1540 
        1151,-1540 C1150,-1542 1149,-1544 1148,-1545 C1147,-1546 1146,-1547 1145,-1547 C1147,-1549 1148,-1550 1150,-1550 
        C1151,-1550 1153,-1548 1154,-1545 C1155,-1543 1155,-1543 1155,-1543 C1158,-1548 1163,-1554 1169,-1560 
        C1171,-1562 1171,-1562 1171,-1562 C1176,-1566 1176,-1566 1176,-1566 C1177,-1567 1178,-1567 1180,-1568 
        C1180,-1567 1180,-1567 1180,-1567 C1180,-1566 1179,-1565 1177,-1564 Z" transform="matrix(0.33333, 0, 0, 0.33333, 0, 0)"
        stroke="none"/>
    <path fill="none" d="M1184,-1579 L1141,-1579" stroke-width="2" transform="matrix(0.33333, 0, 0, 0.33333, 0, 0)"/>
    <path fill="none" stroke-width="2" d="M1291,-1553 L1184,-1553 M1291,-1538 L1184,-1538 M1303,-1556 L1292,-1538 
        M1216,-1538 L1216,-1524 M1257,-1538 L1257,-1524 M1237,-1552 L1237,-1539 M1196,-1552 L1196,-1539 M1278,-1552 
        L1278,-1539" transform="matrix(0.33333, 0, 0, 0.33333, 0, 0)" stroke-linejoin="round" stroke-linecap="round"/>
    <path fill="none" d="M1291,-1553 L1304,-1572" stroke-width="2" transform="matrix(0.33333, 0, 0, 0.33333, 0, 0)"/>
    <path fill="none" d="M1297,-1545 L1297,-1529 M1300,-1565 L1300,-1549" stroke-width="2" transform="matrix(0.33333, 0, 0, 0.33333, 0, 0)"
        stroke-linecap="round" stroke-linejoin="round"/>
    <path fill="none" d="M1221,-1535 L1221,-1535" stroke-width="2" transform="matrix(0.33333, 0, 0, 0.33333, 0, 0)"
        stroke="#ffffff"/>
    <path fill="#ffffff" d="M1214,-1558 C1216,-1558 1218,-1559 1218,-1561 C1218,-1563 1216,-1565 1214,-1565 C1212,-1565 
        1211,-1563 1211,-1561 C1211,-1559 1212,-1558 1214,-1558 Z" stroke-width="2" transform="matrix(0.33333, 0, 0, 0.33333, 0, 0)"
        stroke="#000000"/>
    <path fill="#ffffff" d="M1211,-1565 L1218,-1558 L1237,-1578 L1230,-1584 L1211,-1565 Z" stroke-width="2" transform="matrix(0.33333, 0, 0, 0.33333, 0, 0)"
        stroke="#000000"/>
    <path fill="#ffffff" d="M1228,-1599 C1228,-1584 1239,-1573 1254,-1573 C1268,-1573 1279,-1584 1279,-1599 C1279,-1613 
        1268,-1625 1254,-1625 C1239,-1625 1228,-1613 1228,-1599 Z M1231,-1599 C1231,-1611 1241,-1621 1254,-1621 
        C1266,-1621 1276,-1611 1276,-1599 C1276,-1586 1266,-1577 1254,-1577 C1241,-1577 1231,-1586 1231,-1599 Z"
        stroke-width="2" transform="matrix(0.33333, 0, 0, 0.33333, 0, 0)" stroke="#000000"/>
    <path fill="#ffffff" d="M1225,-1597 C1225,-1583 1236,-1571 1250,-1571 C1265,-1571 1276,-1583 1276,-1597 C1276,-1611 
        1265,-1623 1250,-1623 C1236,-1623 1225,-1611 1225,-1597 Z M1228,-1597 C1228,-1609 1238,-1619 1250,-1619 
        C1263,-1619 1273,-1609 1273,-1597 C1273,-1585 1263,-1575 1250,-1575 C1238,-1575 1228,-1585 1228,-1597 Z"
        stroke-width="2" transform="matrix(0.33333, 0, 0, 0.33333, 0, 0)" stroke="#000000"/>
</svg>