<?xml version="1.0" standalone="no"?>
<!DOCTYPE svg PUBLIC "-//W3C//DTD SVG 1.0//EN"
    "http://www.w3.org/TR/2001/REC-SVG-20010904/DTD/svg10.dtd">
<?xml-stylesheet type="text/css" href="..\cisco_network.css" ?>
<svg contentScriptType="text/ecmascript" zoomAndPan="magnify" xmlns:xlink="http://www.w3.org/1999/xlink" baseProfile="full"
    contentStyleType="text/css" enable-background="new" version="1.0" width="51.3638" preserveAspectRatio="none"
    viewBox="371.01 -554.02 57.984 42.016" height="37.2189" xmlns="http://www.w3.org/2000/svg"
    color-interpolation-filters="sRGB" x="0" y="1.5">
    <path stroke-width="2" d="M1115,-1539 L1267,-1539 L1267,-1639 L1115,-1639 L1115,-1539 Z M1285,-1565 L1267,-1539 
        L1267,-1639 L1285,-1660 L1285,-1565 Z M1141,-1660 L1285,-1660 L1267,-1639 L1115,-1639 L1141,-1660 Z" transform="matrix(0.33333, 0, 0, 0.33333, 0, 0)"/>
    <path fill="#ffffff" d="M1141,-1610 L1141,-1604 L1126,-1612 L1141,-1621 L1141,-1614 L1141,-1615 L1167,-1615 
        L1167,-1621 L1182,-1613 L1167,-1604 L1167,-1611 L1141,-1611 L1141,-1610 Z M1141,-1564 L1141,-1557 L1126,-1566 
        L1141,-1574 L1141,-1568 L1141,-1568 L1167,-1568 L1167,-1575 L1182,-1566 L1167,-1558 L1167,-1564 L1141,-1564 
        L1141,-1564 Z M1141,-1587 L1141,-1580 L1126,-1589 L1141,-1597 L1141,-1591 L1141,-1591 L1159,-1591 L1159,-1597 
        L1174,-1589 L1159,-1580 L1159,-1587 L1141,-1587 L1141,-1587 Z" transform="matrix(0.33333, 0, 0, 0.33333, 0, 0)"
        stroke="none"/>
    <path fill="#ffffff" d="M1257,-1570 C1254,-1570 1252,-1578 1253,-1587 C1253,-1596 1255,-1603 1257,-1603 C1238,-1603 
        1238,-1603 1238,-1603 C1236,-1603 1234,-1596 1234,-1587 C1234,-1578 1235,-1571 1238,-1571 Z" transform="matrix(0.33333, 0, 0, 0.33333, 0, 0)"
        stroke="none"/>
    <path stroke-width="2" d="M1253,-1587 C1252,-1578 1254,-1571 1257,-1571 C1260,-1571 1262,-1578 1262,-1587 
        C1262,-1595 1260,-1602 1257,-1602 C1255,-1602 1253,-1595 1253,-1587 Z" transform="matrix(0.33333, 0, 0, 0.33333, 0, 0)"
        stroke="#ffffff"/>
    <path fill="#ffffff" d="M1242,-1588 C1242,-1570 1228,-1556 1210,-1556 C1192,-1556 1178,-1571 1178,-1588 C1178,-1606 
        1193,-1620 1211,-1620 C1228,-1620 1243,-1606 1242,-1588 Z" transform="matrix(0.33333, 0, 0, 0.33333, 0, 0)"
        stroke="none"/>
    <path d="M1226,-1587 C1226,-1579 1219,-1572 1210,-1572 C1202,-1572 1195,-1579 1195,-1588 C1195,-1596 1202,-1603 
        1211,-1603 C1219,-1603 1226,-1596 1226,-1587 Z" transform="matrix(0.33333, 0, 0, 0.33333, 0, 0)" stroke="none"/>
</svg>