<?xml version="1.0" standalone="no"?>
<!DOCTYPE svg PUBLIC "-//W3C//DTD SVG 1.0//EN"
    "http://www.w3.org/TR/2001/REC-SVG-20010904/DTD/svg10.dtd">
<?xml-stylesheet type="text/css" href="..\cisco_network.css" ?>
<svg contentScriptType="text/ecmascript" zoomAndPan="magnify" xmlns:xlink="http://www.w3.org/1999/xlink" baseProfile="full"
    contentStyleType="text/css" enable-background="new" version="1.0" width="43.3984" preserveAspectRatio="none"
    viewBox="376 -548.99 48.992 33.984" height="30.1039" xmlns="http://www.w3.org/2000/svg" color-interpolation-filters="sRGB"
    x="0" y="1.5">
    <path d="M1276,-1617 C1276,-1601 1243,-1588 1202,-1588 C1161,-1588 1128,-1601 1128,-1617 C1128,-1575 1128,-1575 
        1128,-1575 C1128,-1559 1161,-1546 1202,-1546 C1243,-1546 1276,-1559 1276,-1575 Z" stroke-width="2" transform="matrix(0.33333, 0, 0, 0.33333, 0, 0)"/>
    <path d="M1202,-1588 C1243,-1588 1276,-1601 1276,-1617 C1276,-1633 1243,-1646 1202,-1646 C1161,-1646 1128,-1633 
        1128,-1617 C1128,-1601 1161,-1588 1202,-1588 Z" stroke-width="2" transform="matrix(0.33333, 0, 0, 0.33333, 0, 0)"/>
    <path fill="#ffffff" d="M1185,-1628 L1191,-1619 L1168,-1614 L1173,-1618 L1138,-1624 L1147,-1631 L1181,-1625 
        L1185,-1628 Z M1218,-1606 L1213,-1615 L1234,-1620 L1231,-1616 L1265,-1610 L1257,-1604 L1222,-1610 L1218,-1606 Z 
        M1206,-1633 L1229,-1639 L1230,-1630 L1224,-1631 L1213,-1621 L1202,-1623 L1213,-1632 L1206,-1633 Z M1196,-1597 
        L1174,-1593 L1173,-1604 L1180,-1602 L1192,-1613 L1203,-1611 L1190,-1599 L1196,-1597 Z M1174,-1581 L1174,-1577 
        L1166,-1582 L1174,-1587 L1174,-1583 L1174,-1583 L1188,-1583 L1188,-1587 L1196,-1582 L1188,-1577 L1188,-1581 
        L1174,-1581 L1174,-1581 Z M1174,-1555 L1174,-1551 L1166,-1556 L1174,-1561 L1174,-1557 L1174,-1557 L1188,-1557 
        L1188,-1561 L1196,-1556 L1188,-1551 L1188,-1555 L1174,-1555 L1174,-1555 Z M1174,-1567 L1174,-1564 L1166,-1569 
        L1174,-1573 L1174,-1570 L1174,-1570 L1184,-1570 L1184,-1573 L1192,-1569 L1184,-1564 L1184,-1568 L1174,-1568 
        L1174,-1567 Z" transform="matrix(0.33333, 0, 0, 0.33333, 0, 0)" stroke="none"/>
    <path fill="#ffffff" d="M1238,-1558 C1237,-1559 1236,-1563 1236,-1568 C1236,-1572 1237,-1577 1238,-1577 C1228,-1577 
        1228,-1577 1228,-1577 C1226,-1577 1225,-1573 1225,-1568 C1225,-1563 1226,-1559 1228,-1559 Z" transform="matrix(0.33333, 0, 0, 0.33333, 0, 0)"
        stroke="none"/>
    <path stroke-width="2" d="M1236,-1568 C1236,-1563 1237,-1559 1238,-1559 C1240,-1559 1241,-1563 1241,-1567 
        C1241,-1572 1240,-1576 1238,-1576 C1237,-1576 1236,-1572 1236,-1568 Z" transform="matrix(0.33333, 0, 0, 0.33333, 0, 0)"
        stroke="#ffffff"/>
    <path fill="#ffffff" d="M1230,-1568 C1230,-1558 1222,-1550 1212,-1550 C1202,-1551 1194,-1559 1195,-1568 C1195,-1578 
        1203,-1586 1212,-1586 C1222,-1586 1230,-1578 1230,-1568 Z" transform="matrix(0.33333, 0, 0, 0.33333, 0, 0)"
        stroke="none"/>
    <path d="M1221,-1568 C1221,-1563 1217,-1559 1212,-1559 C1208,-1559 1204,-1563 1204,-1568 C1204,-1573 1208,-1577 
        1213,-1577 C1217,-1577 1221,-1573 1221,-1568 Z" transform="matrix(0.33333, 0, 0, 0.33333, 0, 0)" stroke="none"/>
</svg>