<?xml version="1.0" standalone="no"?>
<!DOCTYPE svg PUBLIC "-//W3C//DTD SVG 1.0//EN"
    "http://www.w3.org/TR/2001/REC-SVG-20010904/DTD/svg10.dtd">
<?xml-stylesheet type="text/css" href="..\cisco_network.css" ?>
<svg contentScriptType="text/ecmascript" zoomAndPan="magnify" xmlns:xlink="http://www.w3.org/1999/xlink" baseProfile="full"
    contentStyleType="text/css" enable-background="new" version="1.0" width="43.4268" preserveAspectRatio="none"
    viewBox="384.99 -560 49.024 32" height="28.3465" xmlns="http://www.w3.org/2000/svg" color-interpolation-filters="sRGB"
    x="0" y="1.5">
    <path d="M1228,-1624 C1268,-1624 1300,-1637 1300,-1652 C1300,-1668 1268,-1680 1228,-1680 C1188,-1680 1156,-1668 
        1156,-1652 C1156,-1637 1188,-1624 1228,-1624 Z" stroke-width="2" transform="matrix(0.33333, 0, 0, 0.33333, 0, 0)"/>
    <path d="M1298,-1658 C1277,-1664 1270,-1652 1258,-1652 C1241,-1652 1247,-1660 1228,-1660 C1205,-1660 1214,-1652 
        1198,-1652 C1186,-1652 1181,-1662 1157,-1658 C1156,-1656 1156,-1654 1156,-1650 C1178,-1656 1185,-1644 1198,-1645 
        C1217,-1645 1207,-1653 1228,-1652 C1248,-1651 1238,-1644 1258,-1644 C1275,-1644 1277,-1656 1300,-1651 
        C1300,-1651 1301,-1654 1298,-1658 Z" transform="matrix(0.33333, 0, 0, 0.33333, 0, 0)"/>
    <path d="M1280,-1672 C1268,-1674 1271,-1666 1258,-1666 C1241,-1666 1248,-1674 1229,-1674 C1206,-1674 1213,-1666 
        1197,-1666 C1186,-1665 1183,-1671 1173,-1671 C1170,-1669 1165,-1666 1162,-1664 C1179,-1668 1186,-1659 1197,-1659 
        C1216,-1659 1207,-1667 1228,-1666 C1248,-1666 1238,-1659 1258,-1659 C1271,-1659 1272,-1670 1291,-1666 
        C1291,-1666 1286,-1669 1280,-1672 Z" transform="matrix(0.33333, 0, 0, 0.33333, 0, 0)"/>
    <path d="M1297,-1644 C1275,-1650 1275,-1638 1259,-1638 C1243,-1638 1249,-1646 1230,-1646 C1208,-1646 1216,-1639 
        1199,-1638 C1188,-1638 1175,-1649 1159,-1644 C1161,-1641 1169,-1636 1169,-1636 C1178,-1639 1185,-1631 1199,-1631 
        C1218,-1631 1209,-1639 1230,-1638 C1250,-1638 1239,-1631 1259,-1631 C1274,-1630 1277,-1641 1290,-1638 
        C1290,-1638 1294,-1641 1297,-1644 Z" transform="matrix(0.33333, 0, 0, 0.33333, 0, 0)"/>
    <path fill="#ffffff" d="M1212,-1631 L1187,-1630 L1190,-1642 L1195,-1640 L1220,-1652 L1231,-1646 L1206,-1634 
        L1212,-1631 Z" transform="matrix(0.33333, 0, 0, 0.33333, 0, 0)" stroke="none"/>
    <path fill="#ffffff" d="M1247,-1673 L1273,-1673 L1269,-1661 L1264,-1664 L1240,-1652 L1229,-1659 L1253,-1670 
        L1247,-1673 Z" transform="matrix(0.33333, 0, 0, 0.33333, 0, 0)" stroke="none"/>
    <path fill="#ffffff" d="M1218,-1664 L1225,-1655 L1192,-1653 L1199,-1656 L1175,-1666 L1187,-1673 L1212,-1662 
        L1218,-1664 Z" transform="matrix(0.33333, 0, 0, 0.33333, 0, 0)" stroke="none"/>
    <path fill="#ffffff" d="M1237,-1637 L1234,-1649 L1261,-1648 L1254,-1646 L1280,-1635 L1268,-1630 L1243,-1640 
        L1237,-1637 Z" transform="matrix(0.33333, 0, 0, 0.33333, 0, 0)" stroke="none"/>
    <path fill="#ffffff" d="M1215,-1631 L1189,-1630 L1193,-1642 L1198,-1640 L1223,-1652 L1233,-1646 L1209,-1634 
        L1215,-1631 Z" transform="matrix(0.33333, 0, 0, 0.33333, 0, 0)" stroke="none"/>
    <path d="M1300,-1654 C1300,-1639 1268,-1626 1228,-1626 C1188,-1626 1156,-1639 1156,-1654 C1156,-1613 1156,-1613 
        1156,-1613 C1156,-1598 1188,-1585 1228,-1585 C1268,-1585 1300,-1598 1300,-1613 Z" transform="matrix(0.33333, 0, 0, 0.33333, 0, 0)"/>
    <path fill="none" stroke-width="2" d="M1300,-1654 C1300,-1639 1268,-1626 1228,-1626 C1188,-1626 1156,-1639 
        1156,-1654 C1156,-1613 1156,-1613 1156,-1613 C1156,-1598 1188,-1585 1228,-1585 C1268,-1585 1300,-1598 1300,-1613 
        Z" transform="matrix(0.33333, 0, 0, 0.33333, 0, 0)"/>
</svg>