<?xml version="1.0" standalone="no"?>
<!DOCTYPE svg PUBLIC "-//W3C//DTD SVG 1.0//EN"
    "http://www.w3.org/TR/2001/REC-SVG-20010904/DTD/svg10.dtd">
<?xml-stylesheet type="text/css" href="..\cisco_network.css" ?>
<svg contentScriptType="text/ecmascript" zoomAndPan="magnify" xmlns:xlink="http://www.w3.org/1999/xlink" baseProfile="full"
    contentStyleType="text/css" enable-background="new" version="1.0" width="43.3984" preserveAspectRatio="none"
    viewBox="386.02 -556.99 48.992 33.984" height="30.1039" xmlns="http://www.w3.org/2000/svg"
    color-interpolation-filters="sRGB" x="0" y="1.5">
    <path d="M1160,-1648 L1184,-1668 L1302,-1668 L1283,-1648 L1160,-1648 Z M1302,-1668 L1283,-1648 L1283,-1572 
        L1302,-1598 L1302,-1668 Z M1160,-1648 L1283,-1648 L1283,-1572 L1160,-1572 L1160,-1648 Z" stroke-width="2"
        transform="matrix(0.33333, 0, 0, 0.33333, 0, 0)"/>
    <path fill="none" stroke-width="4" d="M1220,-1578 C1238,-1578 1253,-1592 1253,-1610 C1253,-1628 1238,-1642 
        1220,-1642 C1203,-1642 1188,-1628 1188,-1610 C1188,-1592 1203,-1578 1220,-1578 Z" transform="matrix(0.33333, 0, 0, 0.33333, 0, 0)"
        stroke="#ffffff"/>
    <path fill="#ffffff" d="M1170,-1627 L1261,-1627 L1261,-1631 L1269,-1625 L1261,-1619 L1261,-1623 L1170,-1623 Z"
        transform="matrix(0.33333, 0, 0, 0.33333, 0, 0)" stroke="none"/>
    <path fill="none" d="M1170,-1627 L1261,-1627 L1261,-1631 L1269,-1625 L1261,-1619 L1261,-1623 L1170,-1623" transform="matrix(0.33333, 0, 0, 0.33333, 0, 0)"
        stroke="none"/>
    <path fill="#ffffff" d="M1268,-1592 L1177,-1592 L1177,-1588 L1169,-1594 L1177,-1600 L1177,-1596 L1268,-1596 Z"
        transform="matrix(0.33333, 0, 0, 0.33333, 0, 0)" stroke="none"/>
    <path fill="none" d="M1268,-1592 L1177,-1592 L1177,-1588 L1169,-1594 L1177,-1600 L1177,-1596 L1268,-1596" transform="matrix(0.33333, 0, 0, 0.33333, 0, 0)"
        stroke="none"/>
</svg>