<?xml version="1.0" standalone="no"?>
<!DOCTYPE svg PUBLIC "-//W3C//DTD SVG 1.0//EN"
    "http://www.w3.org/TR/2001/REC-SVG-20010904/DTD/svg10.dtd">
<?xml-stylesheet type="text/css" href="..\cisco_network.css" ?>
<svg contentScriptType="text/ecmascript" zoomAndPan="magnify" xmlns:xlink="http://www.w3.org/1999/xlink" baseProfile="full"
    contentStyleType="text/css" enable-background="new" version="1.0" width="37.2189" preserveAspectRatio="none"
    viewBox="392.99 -556 42.016 28.992" height="25.6819" xmlns="http://www.w3.org/2000/svg" color-interpolation-filters="sRGB"
    x="0" y="1.5">
    <path d="M1306,-1642 C1306,-1628 1278,-1617 1243,-1617 C1209,-1617 1181,-1628 1181,-1642 C1181,-1606 1181,-1606 
        1181,-1606 C1181,-1593 1209,-1582 1243,-1582 C1278,-1582 1306,-1593 1306,-1606 Z" stroke-width="2" transform="matrix(0.33333, 0, 0, 0.33333, 0, 0)"/>
    <path d="M1243,-1617 C1278,-1617 1306,-1628 1306,-1642 C1306,-1655 1278,-1666 1243,-1666 C1209,-1666 1181,-1655 
        1181,-1642 C1181,-1628 1209,-1617 1243,-1617 Z" stroke-width="2" transform="matrix(0.33333, 0, 0, 0.33333, 0, 0)"/>
    <path fill="#ffffff" d="M1244,-1647 L1235,-1660 L1239,-1661 L1231,-1664 L1228,-1659 L1232,-1660 L1240,-1646 
        L1244,-1647 Z M1239,-1645 L1209,-1653 L1211,-1654 L1200,-1654 L1205,-1649 L1207,-1651 L1237,-1643 L1239,-1645 Z 
        M1237,-1642 L1203,-1638 L1202,-1639 L1195,-1635 L1205,-1634 L1204,-1636 L1239,-1640 L1237,-1642 Z M1239,-1639 
        L1221,-1626 L1218,-1627 L1218,-1622 L1228,-1624 L1225,-1625 L1242,-1638 L1239,-1639 Z M1247,-1646 L1262,-1659 
        L1259,-1659 L1268,-1662 L1269,-1657 L1266,-1658 L1251,-1645 L1247,-1646 Z M1245,-1638 L1254,-1623 L1250,-1623 
        L1258,-1619 L1262,-1624 L1258,-1624 L1249,-1638 L1245,-1638 Z M1251,-1639 L1281,-1632 L1279,-1630 L1290,-1630 
        L1285,-1635 L1283,-1634 L1253,-1641 L1251,-1639 Z M1252,-1641 L1286,-1646 L1287,-1644 L1294,-1647 L1284,-1649 
        L1285,-1648 L1251,-1643 L1252,-1641 Z" transform="matrix(0.33333, 0, 0, 0.33333, 0, 0)" stroke="none"/>
    <path d="M1244,-1637 C1250,-1637 1255,-1639 1255,-1642 C1255,-1644 1250,-1647 1245,-1647 C1239,-1647 1234,-1645 
        1234,-1642 C1234,-1640 1239,-1638 1244,-1637 Z" stroke-width="2" transform="matrix(0.33333, 0, 0, 0.33333, 0, 0)"/>
</svg>