<?xml version="1.0" standalone="no"?>
<!DOCTYPE svg PUBLIC "-//W3C//DTD SVG 1.0//EN"
    "http://www.w3.org/TR/2001/REC-SVG-20010904/DTD/svg10.dtd">
<?xml-stylesheet type="text/css" href="..\cisco_network.css" ?>
<svg contentScriptType="text/ecmascript" zoomAndPan="magnify" xmlns:xlink="http://www.w3.org/1999/xlink" baseProfile="full"
    contentStyleType="text/css" enable-background="new" version="1.0" width="40.7622" preserveAspectRatio="none"
    viewBox="388 -559.01 46.016 39.008" height="34.5543" xmlns="http://www.w3.org/2000/svg" color-interpolation-filters="sRGB"
    x="0" y="1.5">
    <path d="M1266,-1585 C1266,-1601 1251,-1612 1231,-1612 C1214,-1612 1199,-1601 1199,-1585 C1199,-1572 1214,-1560 
        1231,-1560 C1251,-1560 1266,-1572 1266,-1585 Z" stroke-width="2" transform="matrix(0.33333, 0, 0, 0.33333, 0, 0)"/>
    <path d="M1254,-1586 L1268,-1586 L1277,-1584 L1291,-1584 L1295,-1586 L1297,-1590 L1299,-1594 L1297,-1600 L1285,-1611 
        L1277,-1621 L1268,-1630 L1262,-1638 L1256,-1648 L1251,-1655 L1245,-1665 L1243,-1673 L1235,-1676 L1229,-1676 
        L1222,-1673 L1220,-1667 L1216,-1659 L1210,-1651 L1206,-1644 L1195,-1628 L1187,-1619 L1168,-1600 L1166,-1596 
        L1166,-1594 L1170,-1586 L1174,-1586 L1178,-1584 L1185,-1584 L1193,-1586 L1222,-1586 L1254,-1586 Z" fill-rule="evenodd"
        transform="matrix(0.33333, 0, 0, 0.33333, 0, 0)" stroke="none"/>
    <path d="M1268,-1619 C1268,-1634 1251,-1646 1231,-1646 C1212,-1646 1197,-1634 1197,-1619 C1197,-1603 1212,-1592 
        1231,-1592 C1251,-1592 1268,-1603 1268,-1619 Z" stroke-width="2" transform="matrix(0.33333, 0, 0, 0.33333, 0, 0)"/>
    <path fill="#ffffff" d="M1235,-1663 L1237,-1663 L1237,-1676 L1235,-1676 L1235,-1663 Z M1231,-1663 L1233,-1663 
        L1233,-1676 L1231,-1676 L1231,-1663 Z M1227,-1663 L1229,-1663 L1229,-1676 L1227,-1676 L1227,-1663 Z M1168,-1586 
        L1169,-1584 L1180,-1592 L1179,-1593 L1168,-1586 Z M1166,-1589 L1167,-1587 L1178,-1595 L1177,-1596 L1166,-1589 Z 
        M1164,-1592 L1165,-1590 L1176,-1598 L1175,-1600 L1164,-1592 Z M1297,-1586 L1296,-1584 L1285,-1592 L1286,-1593 
        L1297,-1586 Z M1300,-1589 L1298,-1587 L1288,-1595 L1289,-1596 L1300,-1589 Z M1302,-1592 L1301,-1590 L1290,-1598 
        L1291,-1600 L1302,-1592 Z" transform="matrix(0.33333, 0, 0, 0.33333, 0, 0)" stroke="none"/>
    <path fill="#000000" d="M1227,-1581 L1221,-1581 L1221,-1584 L1227,-1584 L1227,-1581 Z M1235,-1581 L1229,-1581 
        L1229,-1584 L1235,-1584 L1235,-1581 Z M1242,-1581 L1236,-1581 L1236,-1584 L1242,-1584 L1242,-1581 Z M1227,-1575 
        L1221,-1575 L1221,-1578 L1227,-1578 L1227,-1575 Z M1235,-1575 L1229,-1575 L1229,-1578 L1235,-1578 L1235,-1575 Z 
        M1242,-1575 L1236,-1575 L1236,-1578 L1242,-1578 L1242,-1575 Z M1227,-1570 L1221,-1570 L1221,-1573 L1227,-1573 
        L1227,-1570 Z M1235,-1570 L1229,-1570 L1229,-1573 L1235,-1573 L1235,-1570 Z M1242,-1570 L1236,-1570 L1236,-1573 
        L1242,-1573 L1242,-1570 Z" fill-rule="evenodd" transform="matrix(0.33333, 0, 0, 0.33333, 0, 0)"/>
</svg>