<?xml version="1.0" standalone="no"?>
<!DOCTYPE svg PUBLIC "-//W3C//DTD SVG 1.0//EN"
    "http://www.w3.org/TR/2001/REC-SVG-20010904/DTD/svg10.dtd">
<?xml-stylesheet type="text/css" href="..\cisco_network.css" ?>
<svg contentScriptType="text/ecmascript" zoomAndPan="magnify" xmlns:xlink="http://www.w3.org/1999/xlink" baseProfile="full"
    contentStyleType="text/css" enable-background="new" version="1.0" width="41.6126" preserveAspectRatio="none"
    viewBox="382.02 -566.02 46.976 40" height="35.4331" xmlns="http://www.w3.org/2000/svg" color-interpolation-filters="sRGB"
    x="0" y="1.5">
    <path d="M1284,-1672 L1284,-1604 L1251,-1577 L1181,-1577 L1146,-1604 L1146,-1672 Z" stroke="none" transform="matrix(0.33333, 0, 0, 0.33333, 0, 0)"/>
    <path fill="none" d="M1284,-1672 L1284,-1604 L1251,-1577 L1181,-1577 L1146,-1604 L1146,-1672" stroke-width="2"
        transform="matrix(0.33333, 0, 0, 0.33333, 0, 0)"/>
    <path d="M1250,-1698 L1182,-1698 L1146,-1672 L1181,-1645 L1251,-1645 L1284,-1672 L1250,-1698 Z" stroke-width="2"
        transform="matrix(0.33333, 0, 0, 0.33333, 0, 0)"/>
    <path fill="none" d="M1180,-1578 L1180,-1645 M1251,-1578 L1251,-1645 M1216,-1691 L1216,-1652 M1253,-1672 L1182,-1672 
        M1182,-1689 L1199,-1689 L1236,-1652 L1251,-1652 M1251,-1689 L1236,-1689 L1199,-1652 L1182,-1652 M1253,-1672 
        L1182,-1672 M1182,-1689 L1199,-1689 L1236,-1652 L1251,-1652 M1251,-1689 L1236,-1689 L1199,-1652 L1182,-1652 
        M1216,-1691 L1216,-1650 M1216,-1691 L1216,-1652 M1253,-1672 L1182,-1672 M1182,-1689 L1199,-1689 L1236,-1652 
        L1251,-1652 M1251,-1689 L1236,-1689 L1199,-1652 L1182,-1652 M1182,-1689 L1199,-1689 L1236,-1652 L1251,-1652 
        M1251,-1689 L1236,-1689 L1199,-1652 L1182,-1652 M1253,-1672 L1182,-1672 M1182,-1689 L1199,-1689 L1236,-1652 
        L1251,-1652 M1251,-1689 L1236,-1689 L1199,-1652 L1182,-1652 M1182,-1689 L1199,-1689 L1236,-1652 L1251,-1652 
        M1251,-1689 L1236,-1689 L1199,-1652 L1182,-1652 M1216,-1691 L1216,-1650" stroke-width="2" transform="matrix(0.33333, 0, 0, 0.33333, 0, 0)"
        stroke="#ffffff"/>
    <path fill="#ffffff" d="M1221,-1606 L1208,-1606 L1208,-1618 L1221,-1618 L1221,-1606 Z" transform="matrix(0.33333, 0, 0, 0.33333, 0, 0)"
        stroke="none"/>
    <path fill="none" d="M1236,-1613 L1218,-1613" stroke-width="4" transform="matrix(0.33333, 0, 0, 0.33333, 0, 0)"
        stroke="#ffffff"/>
    <path fill="#ffffff" d="M1246,-1613 L1229,-1606 L1233,-1613 L1229,-1620 L1246,-1613 Z" transform="matrix(0.33333, 0, 0, 0.33333, 0, 0)"
        stroke="none"/>
    <path fill="none" d="M1194,-1613 L1209,-1613" stroke-width="4" transform="matrix(0.33333, 0, 0, 0.33333, 0, 0)"
        stroke="#ffffff"/>
    <path fill="#ffffff" d="M1201,-1620 L1197,-1613 L1201,-1606 L1184,-1613 L1201,-1620 Z" transform="matrix(0.33333, 0, 0, 0.33333, 0, 0)"
        stroke="none"/>
    <path fill="none" d="M1215,-1632 L1215,-1614" stroke-width="4" transform="matrix(0.33333, 0, 0, 0.33333, 0, 0)"
        stroke="#ffffff"/>
    <path fill="#ffffff" d="M1215,-1641 L1222,-1624 L1215,-1628 L1208,-1624 L1215,-1641 Z" transform="matrix(0.33333, 0, 0, 0.33333, 0, 0)"
        stroke="none"/>
    <path fill="none" d="M1215,-1591 L1215,-1608" stroke-width="4" transform="matrix(0.33333, 0, 0, 0.33333, 0, 0)"
        stroke="#ffffff"/>
    <path fill="#ffffff" d="M1208,-1598 L1215,-1594 L1221,-1598 L1215,-1581 L1208,-1598 Z" transform="matrix(0.33333, 0, 0, 0.33333, 0, 0)"
        stroke="none"/>
</svg>