<?xml version="1.0" standalone="no"?>
<!DOCTYPE svg PUBLIC "-//W3C//DTD SVG 1.0//EN"
    "http://www.w3.org/TR/2001/REC-SVG-20010904/DTD/svg10.dtd">
<?xml-stylesheet type="text/css" href="..\cisco_network.css" ?>
<svg contentScriptType="text/ecmascript" zoomAndPan="magnify" xmlns:xlink="http://www.w3.org/1999/xlink" baseProfile="full"
    contentStyleType="text/css" enable-background="new" version="1.0" width="49.6063" preserveAspectRatio="none"
    viewBox="382.02 -562.02 56 45.024" height="39.8835" xmlns="http://www.w3.org/2000/svg" color-interpolation-filters="sRGB"
    x="0" y="1.5">
    <path d="M1311,-1622 L1199,-1686 L1189,-1679 L1199,-1558 L1311,-1622 Z" stroke-width="2" transform="matrix(0.33333, 0, 0, 0.33333, 0, 0)"/>
    <path d="M1194,-1657 L1194,-1650 L1145,-1650 L1145,-1657 L1194,-1657 Z" stroke="none" transform="matrix(0.33333, 0, 0, 0.33333, 0, 0)"/>
    <path fill="none" d="M1191,-1651 L1200,-1660" stroke-width="2" transform="matrix(0.33333, 0, 0, 0.33333, 0, 0)"/>
    <path d="M1194,-1635 L1194,-1628 L1145,-1628 L1145,-1635 L1194,-1635 Z" stroke="none" transform="matrix(0.33333, 0, 0, 0.33333, 0, 0)"/>
    <path fill="none" d="M1191,-1629 L1200,-1638" stroke-width="2" transform="matrix(0.33333, 0, 0, 0.33333, 0, 0)"/>
    <path d="M1194,-1613 L1194,-1606 L1145,-1606 L1145,-1613 L1194,-1613 Z" stroke="none" transform="matrix(0.33333, 0, 0, 0.33333, 0, 0)"/>
    <path fill="none" d="M1191,-1607 L1200,-1616" stroke-width="2" transform="matrix(0.33333, 0, 0, 0.33333, 0, 0)"/>
    <path d="M1194,-1591 L1194,-1584 L1145,-1584 L1145,-1591 L1194,-1591 Z" stroke="none" transform="matrix(0.33333, 0, 0, 0.33333, 0, 0)"/>
    <path fill="none" d="M1191,-1585 L1200,-1594" stroke-width="2" transform="matrix(0.33333, 0, 0, 0.33333, 0, 0)"/>
    <path d="M1299,-1616 L1187,-1680 L1187,-1552 L1299,-1616 Z" stroke-width="2" transform="matrix(0.33333, 0, 0, 0.33333, 0, 0)"/>
    <text font-size="32" transform="matrix(0.33333, 0, 0, 0.33333, 399.39, -535.99)" fill="#ffffff" font-family="'Helvetica'"
        font-style="normal" stroke="none" font-weight="700" xml:space="preserve">P</text>
    <text font-size="32" transform="matrix(0.33333, 0, 0, 0.33333, 405.44, -535.99)" fill="#ffffff" font-family="'Helvetica'"
        font-style="normal" stroke="none" font-weight="700" stroke-width="2" xml:space="preserve">AD</text>
</svg>