<?xml version="1.0" standalone="no"?>
<!DOCTYPE svg PUBLIC "-//W3C//DTD SVG 1.0//EN"
    "http://www.w3.org/TR/2001/REC-SVG-20010904/DTD/svg10.dtd">
<?xml-stylesheet type="text/css" href="..\cisco_network.css" ?>
<svg contentScriptType="text/ecmascript" zoomAndPan="magnify" xmlns:xlink="http://www.w3.org/1999/xlink" baseProfile="full"
    contentStyleType="text/css" enable-background="new" version="1.0" width="32.7969" preserveAspectRatio="none"
    viewBox="392.99 -559.01 37.024 38.016" height="33.6756" xmlns="http://www.w3.org/2000/svg"
    color-interpolation-filters="sRGB" x="0" y="1.5">
    <path d="M1271,-1565 L1271,-1657 L1180,-1657 L1180,-1565 L1271,-1565 Z" stroke-width="2" transform="matrix(0.33333, 0, 0, 0.33333, 0, 0)"/>
    <path fill="#000000" d="M1256,-1624 L1256,-1604 L1268,-1614 L1256,-1624 Z M1219,-1641 L1239,-1641 L1229,-1653 
        L1219,-1641 Z M1239,-1583 L1219,-1583 L1229,-1571 L1239,-1583 Z M1199,-1602 L1199,-1622 L1187,-1612 L1199,-1602 
        Z" transform="matrix(0.33333, 0, 0, 0.33333, 0, 0)" stroke="none"/>
    <path fill="#ffffff" d="M1254,-1622 L1254,-1602 L1266,-1612 L1254,-1622 Z M1217,-1639 L1237,-1639 L1227,-1651 
        L1217,-1639 Z M1237,-1581 L1217,-1581 L1227,-1568 L1237,-1581 Z M1197,-1600 L1197,-1620 L1185,-1610 L1197,-1600 
        Z" transform="matrix(0.33333, 0, 0, 0.33333, 0, 0)"/>
    <path d="M1271,-1657 L1181,-1657 L1203,-1675 L1290,-1675 L1290,-1675 L1290,-1675 L1271,-1657 L1271,-1657 L1271,-1657 
        Z M1290,-1583 L1290,-1675 L1271,-1657 L1271,-1565 L1290,-1583 Z" stroke-width="2" transform="matrix(0.33333, 0, 0, 0.33333, 0, 0)"/>
    <path fill="#000000" d="M1241,-1624 C1241,-1616 1241,-1616 1241,-1616 C1251,-1616 1251,-1616 1251,-1616 C1251,-1621 
        1251,-1621 1251,-1621 C1251,-1630 1240,-1634 1227,-1634 C1227,-1634 1227,-1634 1227,-1634 C1214,-1634 1203,-1630 
        1203,-1621 C1203,-1616 1203,-1616 1203,-1616 C1213,-1616 1213,-1616 1213,-1616 C1213,-1624 1213,-1624 1213,-1624 
        C1226,-1641 1241,-1624 1241,-1624 Z" transform="matrix(0.33333, 0, 0, 0.33333, 0, 0)" stroke="none"/>
    <path fill="#000000" d="M1229,-1626 L1237,-1626 L1237,-1617 L1247,-1609 L1247,-1590 L1229,-1590 L1225,-1590 
        L1207,-1590 L1207,-1609 L1217,-1617 L1217,-1626 L1225,-1626 L1229,-1626 Z" transform="matrix(0.33333, 0, 0, 0.33333, 0, 0)"
        stroke="none"/>
    <path fill="#ffffff" d="M1241,-1621 C1241,-1614 1241,-1614 1241,-1614 C1251,-1614 1251,-1614 1251,-1614 C1251,-1619 
        1251,-1619 1251,-1619 C1251,-1628 1240,-1632 1227,-1632 C1227,-1632 1227,-1632 1227,-1632 C1214,-1632 1203,-1628 
        1203,-1619 C1203,-1614 1203,-1614 1203,-1614 C1213,-1614 1213,-1614 1213,-1614 C1213,-1621 1213,-1621 1213,-1621 
        C1226,-1638 1241,-1621 1241,-1621 Z" transform="matrix(0.33333, 0, 0, 0.33333, 0, 0)" stroke="none"/>
    <path fill="#ffffff" d="M1229,-1624 L1237,-1624 L1237,-1614 L1247,-1606 L1247,-1588 L1229,-1588 L1225,-1588 
        L1207,-1588 L1207,-1606 L1217,-1614 L1217,-1624 L1225,-1624 L1229,-1624 Z" transform="matrix(0.33333, 0, 0, 0.33333, 0, 0)"
        stroke="none"/>
</svg>