<?xml version="1.0" standalone="no"?>
<!DOCTYPE svg PUBLIC "-//W3C//DTD SVG 1.0//EN"
    "http://www.w3.org/TR/2001/REC-SVG-20010904/DTD/svg10.dtd">
<?xml-stylesheet type="text/css" href="..\cisco_network.css" ?>
<svg contentScriptType="text/ecmascript" zoomAndPan="magnify" xmlns:xlink="http://www.w3.org/1999/xlink" baseProfile="full"
    contentStyleType="text/css" enable-background="new" version="1.0" width="32.7969" preserveAspectRatio="none"
    viewBox="392.99 -564.99 37.024 33.984" height="30.1039" xmlns="http://www.w3.org/2000/svg"
    color-interpolation-filters="sRGB" x="0" y="1.5">
    <path d="M1271,-1594 L1290,-1614 L1290,-1694 L1200,-1694 L1180,-1674 L1271,-1674 L1271,-1594 Z" stroke-width="2"
        transform="matrix(0.33333, 0, 0, 0.33333, 0, 0)"/>
    <path fill="none" d="M1271,-1674 L1290,-1694" stroke-width="2" transform="matrix(0.33333, 0, 0, 0.33333, 0, 0)"/>
    <path d="M1271,-1594 L1271,-1674 L1180,-1674 L1180,-1594 L1271,-1594 Z" stroke-width="2" transform="matrix(0.33333, 0, 0, 0.33333, 0, 0)"/>
    <path fill="none" d="M1271,-1634 L1180,-1634 M1189,-1624 L1211,-1624 M1189,-1619 L1211,-1619 M1189,-1614 L1211,-1614 
        M1189,-1609 L1211,-1609 M1189,-1605 L1211,-1605" stroke-width="2" transform="matrix(0.33333, 0, 0, 0.33333, 0, 0)"/>
</svg>