<?xml version="1.0" standalone="no"?>
<!DOCTYPE svg PUBLIC "-//W3C//DTD SVG 1.0//EN"
    "http://www.w3.org/TR/2001/REC-SVG-20010904/DTD/svg10.dtd">
<?xml-stylesheet type="text/css" href="..\cisco_network.css" ?>
<svg contentScriptType="text/ecmascript" zoomAndPan="magnify" xmlns:xlink="http://www.w3.org/1999/xlink" baseProfile="full"
    contentStyleType="text/css" enable-background="new" version="1.0" width="37.2189" preserveAspectRatio="none"
    viewBox="388.99 -572.99 42.016 54.976" height="48.6992" xmlns="http://www.w3.org/2000/svg"
    color-interpolation-filters="sRGB" x="0" y="1.5">
    <path fill="#000000" d="M1228,-1564 L1228,-1608 L1218,-1598 L1218,-1555 L1228,-1564 Z" stroke-width="2" transform="matrix(0.33333, 0, 0, 0.33333, 0, 0)"/>
    <path d="M1218,-1555 L1218,-1598 L1171,-1598 L1171,-1555 L1218,-1555 Z M1270,-1555 L1270,-1598 L1222,-1598 
        L1222,-1555 L1270,-1555 Z M1291,-1619 L1291,-1717 L1270,-1698 L1270,-1599 L1291,-1619 Z M1291,-1574 L1291,-1618 
        L1270,-1598 L1270,-1555 L1291,-1574 Z M1291,-1717 L1270,-1698 L1171,-1698 L1196,-1717 L1291,-1717 Z M1270,-1599 
        L1270,-1698 L1171,-1698 L1171,-1599 L1270,-1599 Z" stroke-width="2" transform="matrix(0.33333, 0, 0, 0.33333, 0, 0)"/>
    <path fill="#ffffff" d="M1211,-1660 L1196,-1675 L1199,-1678 L1189,-1680 L1191,-1670 L1194,-1673 L1209,-1658 
        L1211,-1660 Z M1206,-1650 L1185,-1650 L1185,-1654 L1176,-1649 L1185,-1643 L1185,-1647 L1206,-1647 L1206,-1650 Z 
        M1209,-1639 L1194,-1624 L1191,-1627 L1189,-1617 L1199,-1619 L1196,-1622 L1211,-1637 L1209,-1639 Z M1219,-1634 
        L1219,-1612 L1215,-1612 L1221,-1604 L1226,-1612 L1222,-1612 L1222,-1634 L1219,-1634 Z M1219,-1663 L1219,-1684 
        L1215,-1684 L1221,-1692 L1226,-1684 L1222,-1684 L1222,-1663 L1219,-1663 Z M1230,-1637 L1245,-1622 L1242,-1619 
        L1252,-1617 L1250,-1627 L1247,-1624 L1232,-1639 L1230,-1637 Z M1235,-1647 L1257,-1647 L1257,-1643 L1265,-1649 
        L1257,-1654 L1257,-1650 L1235,-1650 L1235,-1647 Z M1232,-1658 L1247,-1673 L1250,-1670 L1252,-1680 L1242,-1678 
        L1245,-1675 L1230,-1660 L1232,-1658 Z M1180,-1587 L1183,-1587 L1178,-1594 L1174,-1587 L1177,-1587 L1177,-1565 
        L1174,-1565 L1178,-1558 L1183,-1565 L1180,-1565 L1180,-1587 Z M1191,-1587 L1194,-1587 L1189,-1594 L1185,-1587 
        L1188,-1587 L1188,-1565 L1185,-1565 L1189,-1558 L1194,-1565 L1191,-1565 L1191,-1587 Z M1201,-1587 L1205,-1587 
        L1200,-1594 L1195,-1587 L1199,-1587 L1199,-1565 L1195,-1565 L1200,-1558 L1204,-1565 L1201,-1565 L1201,-1587 Z 
        M1212,-1587 L1215,-1587 L1211,-1594 L1206,-1587 L1209,-1587 L1209,-1565 L1206,-1565 L1211,-1558 L1215,-1565 
        L1212,-1565 L1212,-1587 Z M1231,-1587 L1234,-1587 L1230,-1594 L1225,-1587 L1228,-1587 L1228,-1565 L1225,-1565 
        L1230,-1558 L1234,-1565 L1231,-1565 L1231,-1587 Z M1242,-1587 L1245,-1587 L1241,-1594 L1236,-1587 L1239,-1587 
        L1239,-1565 L1236,-1565 L1241,-1558 L1245,-1565 L1242,-1565 L1242,-1587 Z M1253,-1587 L1256,-1587 L1252,-1594 
        L1247,-1587 L1250,-1587 L1250,-1565 L1247,-1565 L1252,-1558 L1256,-1565 L1253,-1565 L1253,-1587 Z M1264,-1587 
        L1267,-1587 L1263,-1594 L1258,-1587 L1261,-1587 L1261,-1565 L1258,-1565 L1263,-1558 L1267,-1565 L1264,-1565 
        L1264,-1587 Z" transform="matrix(0.33333, 0, 0, 0.33333, 0, 0)" stroke="none"/>
</svg>