<?xml version="1.0" standalone="no"?>
<!DOCTYPE svg PUBLIC "-//W3C//DTD SVG 1.0//EN"
    "http://www.w3.org/TR/2001/REC-SVG-20010904/DTD/svg10.dtd">
<?xml-stylesheet type="text/css" href="..\cisco_network.css" ?>
<svg contentScriptType="text/ecmascript" zoomAndPan="magnify" xmlns:xlink="http://www.w3.org/1999/xlink" baseProfile="full"
    contentStyleType="text/css" enable-background="new" version="1.0" width="57.6" preserveAspectRatio="none" viewBox="376.99 -580.99 65.024 92"
    height="81.4961" xmlns="http://www.w3.org/2000/svg" color-interpolation-filters="sRGB" x="0" y="1.5">
    <path stroke-width="2" d="M1320,-1643 C1327,-1652 1310,-1657 1310,-1657" transform="matrix(0.33333, 0, 0, 0.33333, 0, 0)"/>
    <path stroke-width="2" d="M1320,-1643 C1327,-1652 1310,-1657 1310,-1657" transform="matrix(0.33333, 0, 0, 0.33333, 0, 0)"/>
    <path stroke-width="2" d="M1310,-1722 L1301,-1715 L1234,-1715 L1243,-1722 L1310,-1722 Z M1301,-1661 L1301,-1714 
        L1233,-1714 L1233,-1661 L1301,-1661 Z M1310,-1667 L1310,-1722 L1301,-1714 L1301,-1660 L1310,-1667 Z" transform="matrix(0.33333, 0, 0, 0.33333, 0, 0)"/>
    <path stroke-width="2" d="M1211,-1727 C1211,-1721 1207,-1717 1214,-1708 C1215,-1707 1213,-1704 1212,-1703 
        C1211,-1702 1211,-1699 1211,-1698 C1211,-1698 1210,-1696 1210,-1695 C1209,-1692 1211,-1690 1209,-1689 
        C1206,-1688 1202,-1688 1200,-1686 C1197,-1684 1195,-1681 1194,-1678 C1193,-1678 1192,-1678 1191,-1678 
        C1186,-1683 1179,-1695 1172,-1697 C1169,-1705 1174,-1711 1178,-1718 C1182,-1725 1190,-1730 1198,-1731"
        transform="matrix(0.33333, 0, 0, 0.33333, 0, 0)"/>
    <path stroke-width="2" d="M1211,-1727 C1211,-1721 1207,-1717 1214,-1708 C1215,-1707 1213,-1704 1212,-1703 
        C1211,-1702 1211,-1699 1211,-1698 C1211,-1698 1210,-1696 1210,-1695 C1209,-1692 1211,-1690 1209,-1689 
        C1206,-1688 1202,-1688 1200,-1686 C1197,-1684 1195,-1681 1194,-1678 C1193,-1678 1192,-1678 1191,-1678 
        C1186,-1683 1179,-1695 1172,-1697 C1169,-1705 1174,-1711 1178,-1718 C1182,-1725 1190,-1730 1198,-1731"
        transform="matrix(0.33333, 0, 0, 0.33333, 0, 0)"/>
    <path stroke-width="2" d="M1170,-1698 C1171,-1697 1173,-1698 1175,-1698 C1178,-1696 1182,-1696 1184,-1698 
        C1187,-1699 1188,-1703 1190,-1706 C1190,-1707 1190,-1708 1191,-1708 C1194,-1708 1199,-1707 1200,-1709 
        C1203,-1713 1199,-1720 1204,-1723 C1208,-1725 1215,-1726 1214,-1732 C1203,-1738 1190,-1744 1178,-1741 
        C1174,-1740 1171,-1735 1168,-1732 C1167,-1731 1166,-1730 1166,-1729 C1166,-1721 1165,-1714 1167,-1706 
        C1167,-1704 1168,-1699 1170,-1698 Z" transform="matrix(0.33333, 0, 0, 0.33333, 0, 0)"/>
    <path stroke-width="2" d="M1233,-1554 C1233,-1549 1233,-1545 1233,-1540 C1229,-1537 1230,-1532 1230,-1528 
        C1234,-1525 1240,-1526 1245,-1526 C1245,-1527 1245,-1528 1245,-1528 C1250,-1529 1255,-1529 1260,-1530 
        C1261,-1533 1261,-1537 1261,-1540 C1257,-1543 1251,-1542 1249,-1547 C1247,-1552 1247,-1557 1247,-1562"
        transform="matrix(0.33333, 0, 0, 0.33333, 0, 0)"/>
    <path stroke-width="2" d="M1233,-1554 C1233,-1549 1233,-1545 1233,-1540 C1229,-1537 1230,-1532 1230,-1528 
        C1234,-1525 1240,-1526 1245,-1526 C1245,-1527 1245,-1528 1245,-1528 C1250,-1529 1255,-1529 1260,-1530 
        C1261,-1533 1261,-1537 1261,-1540 C1257,-1543 1251,-1542 1249,-1547 C1247,-1552 1247,-1557 1247,-1562"
        transform="matrix(0.33333, 0, 0, 0.33333, 0, 0)"/>
    <path stroke-width="2" d="M1216,-1561 C1227,-1559 1236,-1565 1247,-1570 C1249,-1571 1253,-1570 1257,-1570 
        C1257,-1558 1256,-1547 1256,-1536 C1262,-1536 1267,-1535 1273,-1536 C1276,-1536 1279,-1538 1282,-1539 
        C1282,-1555 1283,-1571 1281,-1587 C1281,-1589 1279,-1591 1278,-1593 C1278,-1594 1276,-1594 1275,-1595 
        C1262,-1598 1260,-1596 1246,-1598 C1245,-1598 1249,-1605 1248,-1606 C1246,-1609 1215,-1607 1211,-1607"
        transform="matrix(0.33333, 0, 0, 0.33333, 0, 0)"/>
    <path stroke-width="2" d="M1216,-1561 C1227,-1559 1236,-1565 1247,-1570 C1249,-1571 1253,-1570 1257,-1570 
        C1257,-1558 1256,-1547 1256,-1536 C1262,-1536 1267,-1535 1273,-1536 C1276,-1536 1279,-1538 1282,-1539 
        C1282,-1555 1283,-1571 1281,-1587 C1281,-1589 1279,-1591 1278,-1593 C1278,-1594 1276,-1594 1275,-1595 
        C1262,-1598 1260,-1596 1246,-1598 C1245,-1598 1249,-1605 1248,-1606 C1246,-1609 1215,-1607 1211,-1607"
        transform="matrix(0.33333, 0, 0, 0.33333, 0, 0)"/>
    <path stroke-width="2" d="M1272,-1536 C1272,-1534 1271,-1532 1272,-1530 C1272,-1529 1274,-1529 1275,-1528 
        C1276,-1528 1277,-1526 1278,-1526 C1280,-1525 1282,-1525 1284,-1524 C1287,-1524 1290,-1525 1293,-1524 
        C1293,-1523 1294,-1523 1295,-1523 C1296,-1521 1297,-1518 1296,-1516 C1293,-1513 1290,-1510 1286,-1509 
        C1280,-1508 1275,-1509 1269,-1508 C1268,-1508 1269,-1508 1268,-1507 C1268,-1507 1269,-1504 1268,-1504 
        C1263,-1504 1256,-1503 1252,-1508 C1251,-1510 1251,-1513 1251,-1515 C1253,-1517 1253,-1520 1254,-1522 
        C1255,-1525 1254,-1525 1255,-1527 C1257,-1530 1256,-1533 1256,-1536" transform="matrix(0.33333, 0, 0, 0.33333, 0, 0)"/>
    <path stroke-width="2" d="M1272,-1536 C1272,-1534 1271,-1532 1272,-1530 C1272,-1529 1274,-1529 1275,-1528 
        C1276,-1528 1277,-1526 1278,-1526 C1280,-1525 1282,-1525 1284,-1524 C1287,-1524 1290,-1525 1293,-1524 
        C1293,-1523 1294,-1523 1295,-1523 C1296,-1521 1297,-1518 1296,-1516 C1293,-1513 1290,-1510 1286,-1509 
        C1280,-1508 1275,-1509 1269,-1508 C1268,-1508 1269,-1508 1268,-1507 C1268,-1507 1269,-1504 1268,-1504 
        C1263,-1504 1256,-1503 1252,-1508 C1251,-1510 1251,-1513 1251,-1515 C1253,-1517 1253,-1520 1254,-1522 
        C1255,-1525 1254,-1525 1255,-1527 C1257,-1530 1256,-1533 1256,-1536" transform="matrix(0.33333, 0, 0, 0.33333, 0, 0)"/>
    <path d="M1201,-1533 C1201,-1518 1201,-1518 1201,-1518 C1230,-1530 1230,-1530 1230,-1530 C1235,-1531 1236,-1525 
        1236,-1525 C1236,-1521 1236,-1521 1236,-1521 C1233,-1521 1233,-1521 1233,-1521 C1233,-1517 1233,-1517 1233,-1517 
        C1231,-1513 1227,-1517 1227,-1517 C1227,-1522 1227,-1522 1227,-1522 C1204,-1511 1204,-1511 1204,-1511 
        C1231,-1489 1231,-1489 1231,-1489 C1235,-1482 1232,-1476 1232,-1476 C1235,-1471 1229,-1467 1229,-1467 
        C1222,-1463 1222,-1472 1222,-1472 C1221,-1477 1227,-1477 1227,-1477 C1228,-1480 1228,-1480 1228,-1480 
        C1196,-1509 1196,-1509 1196,-1509 C1155,-1485 1155,-1485 1155,-1485 C1153,-1481 1153,-1481 1153,-1481 
        C1157,-1474 1151,-1472 1151,-1472 C1142,-1470 1146,-1478 1146,-1478 C1145,-1482 1149,-1482 1149,-1482 
        C1151,-1485 1151,-1485 1151,-1485 C1151,-1485 1153,-1484 1151,-1486 C1148,-1488 1150,-1494 1150,-1494 
        C1189,-1513 1189,-1513 1189,-1513 C1176,-1525 1176,-1525 1176,-1525 C1172,-1523 1172,-1523 1172,-1523 
        C1172,-1516 1167,-1518 1167,-1518 C1162,-1518 1165,-1523 1165,-1523 C1167,-1525 1169,-1526 1169,-1526 
        C1172,-1532 1172,-1532 1172,-1532 C1182,-1527 1182,-1527 1182,-1527 C1194,-1518 1194,-1518 1194,-1518 
        C1194,-1531 1194,-1531 1194,-1531" stroke="none" transform="matrix(0.33333, 0, 0, 0.33333, 0, 0)"/>
    <path stroke-width="2" d="M1218,-1548 C1252,-1564 1252,-1564 1252,-1564 C1254,-1567 1251,-1571 1251,-1571 
        C1219,-1559 1219,-1559 1219,-1559" transform="matrix(0.33333, 0, 0, 0.33333, 0, 0)"/>
    <path stroke-width="2" d="M1218,-1548 C1252,-1564 1252,-1564 1252,-1564 C1254,-1567 1251,-1571 1251,-1571 
        C1219,-1559 1219,-1559 1219,-1559" transform="matrix(0.33333, 0, 0, 0.33333, 0, 0)"/>
    <path stroke-width="2" d="M1296,-1667 L1296,-1707 L1239,-1707 L1239,-1667 L1296,-1667 Z M1302,-1648 L1302,-1658 
        L1234,-1658 L1234,-1648 L1302,-1648 Z M1294,-1631 L1294,-1635 L1218,-1635 L1218,-1631 L1294,-1631 Z M1320,-1633 
        L1320,-1635 L1309,-1635 L1309,-1633 L1320,-1633 Z M1320,-1636 L1325,-1644 L1314,-1644 L1309,-1636 L1320,-1636 Z 
        M1325,-1637 L1325,-1644 L1320,-1635 L1320,-1633 L1325,-1637 Z M1305,-1642 L1305,-1648 L1294,-1635 L1294,-1631 
        L1305,-1642 Z M1311,-1654 L1311,-1666 L1302,-1658 L1302,-1645 L1311,-1654 Z" transform="matrix(0.33333, 0, 0, 0.33333, 0, 0)"/>
    <path stroke-width="2" d="M1302,-1658 L1302,-1660 L1236,-1660 L1236,-1658 L1302,-1658 Z M1310,-1665 L1310,-1666 
        L1301,-1660 L1301,-1658 L1310,-1665 Z" transform="matrix(0.33333, 0, 0, 0.33333, 0, 0)"/>
    <path d="M1304,-1648 L1294,-1634 L1219,-1634 L1231,-1648 L1304,-1648 Z" stroke-width="2" transform="matrix(0.33333, 0, 0, 0.33333, 0, 0)"/>
    <path fill="none" d="M1278,-1653 L1296,-1653" stroke-width="2" transform="matrix(0.33333, 0, 0, 0.33333, 0, 0)"/>
    <path d="M1209,-1715 L1207,-1711 L1210,-1712 Z" stroke="none" transform="matrix(0.33333, 0, 0, 0.33333, 0, 0)"/>
    <path fill="none" d="M1209,-1715 L1207,-1711 L1210,-1712 M1244,-1643 L1248,-1643 M1250,-1643 L1254,-1643 M1233,-1643 
        L1237,-1643 M1238,-1643 L1242,-1643 M1256,-1643 L1260,-1643 M1261,-1643 L1265,-1643 M1267,-1643 L1271,-1643 
        M1272,-1643 L1276,-1643 M1278,-1643 L1282,-1643 M1284,-1643 L1288,-1643 M1289,-1643 L1293,-1643 M1242,-1640 
        L1246,-1640 M1248,-1640 L1252,-1640 M1231,-1640 L1235,-1640 M1236,-1640 L1240,-1640 M1254,-1640 L1258,-1640 
        M1259,-1640 L1263,-1640 M1265,-1640 L1269,-1640 M1270,-1640 L1274,-1640 M1276,-1640 L1280,-1640 M1282,-1640 
        L1286,-1640 M1287,-1640 L1291,-1640 M1240,-1637 L1244,-1637 M1246,-1637 L1250,-1637 M1229,-1637 L1233,-1637 
        M1234,-1637 L1238,-1637 M1252,-1637 L1256,-1637 M1257,-1637 L1261,-1637 M1263,-1637 L1267,-1637 M1268,-1637 
        L1272,-1637 M1274,-1637 L1278,-1637 M1280,-1637 L1284,-1637 M1285,-1637 L1289,-1637" stroke-width="2" transform="matrix(0.33333, 0, 0, 0.33333, 0, 0)"/>
    <path d="M1220,-1650 C1223,-1650 1226,-1650 1229,-1651 C1231,-1651 1232,-1653 1233,-1654 C1236,-1654 1238,-1655 
        1240,-1654 C1240,-1653 1241,-1653 1241,-1652 C1244,-1652 1247,-1652 1249,-1650 C1250,-1648 1249,-1646 1249,-1644 
        C1249,-1644 1248,-1643 1248,-1644 C1247,-1645 1247,-1647 1245,-1648 C1244,-1648 1242,-1649 1240,-1648 
        C1239,-1648 1240,-1646 1241,-1646 C1242,-1646 1245,-1645 1243,-1644 C1239,-1640 1233,-1641 1228,-1642 
        C1226,-1642 1224,-1643 1222,-1643" stroke-width="2" transform="matrix(0.33333, 0, 0, 0.33333, 0, 0)"/>
    <path d="M1220,-1650 C1223,-1650 1226,-1650 1229,-1651 C1231,-1651 1232,-1653 1233,-1654 C1236,-1654 1238,-1655 
        1240,-1654 C1240,-1653 1241,-1653 1241,-1652 C1244,-1652 1247,-1652 1249,-1650 C1250,-1648 1249,-1646 1249,-1644 
        C1249,-1644 1248,-1643 1248,-1644 C1247,-1645 1247,-1647 1245,-1648 C1244,-1648 1242,-1649 1240,-1648 
        C1239,-1648 1240,-1646 1241,-1646 C1242,-1646 1245,-1645 1243,-1644 C1239,-1640 1233,-1641 1228,-1642 
        C1226,-1642 1224,-1643 1222,-1643" stroke-width="2" transform="matrix(0.33333, 0, 0, 0.33333, 0, 0)"/>
    <path d="M1265,-1620 C1266,-1620 1267,-1621 1269,-1621 C1270,-1622 1271,-1621 1272,-1622 C1275,-1623 1277,-1624 
        1279,-1625 C1280,-1629 1280,-1633 1281,-1637 C1281,-1637 1286,-1638 1286,-1638 C1286,-1639 1286,-1641 1286,-1641 
        C1282,-1642 1275,-1641 1271,-1640 C1271,-1640 1271,-1641 1271,-1641 C1269,-1641 1266,-1641 1265,-1640 
        C1262,-1639 1263,-1636 1263,-1633 C1263,-1631 1261,-1630 1260,-1630 C1259,-1629 1257,-1629 1257,-1628"
        stroke-width="2" transform="matrix(0.33333, 0, 0, 0.33333, 0, 0)"/>
    <path d="M1265,-1620 C1266,-1620 1267,-1621 1269,-1621 C1270,-1622 1271,-1621 1272,-1622 C1275,-1623 1277,-1624 
        1279,-1625 C1280,-1629 1280,-1633 1281,-1637 C1281,-1637 1286,-1638 1286,-1638 C1286,-1639 1286,-1641 1286,-1641 
        C1282,-1642 1275,-1641 1271,-1640 C1271,-1640 1271,-1641 1271,-1641 C1269,-1641 1266,-1641 1265,-1640 
        C1262,-1639 1263,-1636 1263,-1633 C1263,-1631 1261,-1630 1260,-1630 C1259,-1629 1257,-1629 1257,-1628"
        stroke-width="2" transform="matrix(0.33333, 0, 0, 0.33333, 0, 0)"/>
    <path d="M1206,-1651 C1210,-1651 1217,-1652 1220,-1650 C1221,-1648 1223,-1642 1221,-1640 C1221,-1639 1216,-1639 
        1214,-1639" stroke-width="2" transform="matrix(0.33333, 0, 0, 0.33333, 0, 0)"/>
    <path d="M1206,-1651 C1210,-1651 1217,-1652 1220,-1650 C1221,-1648 1223,-1642 1221,-1640 C1221,-1639 1216,-1639 
        1214,-1639" stroke-width="2" transform="matrix(0.33333, 0, 0, 0.33333, 0, 0)"/>
    <path d="M1169,-1696 C1171,-1696 1175,-1697 1176,-1696 C1182,-1691 1188,-1685 1193,-1678 C1196,-1673 1200,-1670 
        1202,-1665 C1203,-1660 1204,-1655 1206,-1651 C1211,-1642 1215,-1635 1221,-1627 C1222,-1626 1225,-1626 1227,-1625 
        C1228,-1624 1229,-1623 1229,-1623 C1233,-1623 1236,-1622 1239,-1623 C1245,-1626 1251,-1627 1256,-1629 
        C1259,-1623 1266,-1621 1266,-1615 C1260,-1611 1253,-1608 1247,-1605 C1242,-1603 1238,-1599 1233,-1599 
        C1230,-1599 1217,-1605 1216,-1603 C1214,-1596 1226,-1583 1224,-1575 C1222,-1566 1221,-1558 1219,-1549 
        C1218,-1546 1217,-1544 1217,-1541 C1216,-1539 1215,-1537 1214,-1536 C1211,-1534 1209,-1531 1206,-1531 
        C1203,-1530 1200,-1531 1197,-1529 C1195,-1529 1193,-1528 1191,-1528 C1188,-1526 1184,-1527 1184,-1529 
        C1181,-1537 1183,-1547 1180,-1555 C1174,-1572 1169,-1587 1158,-1606 C1155,-1610 1147,-1608 1144,-1613 
        C1135,-1628 1142,-1653 1148,-1674 C1149,-1680 1154,-1687 1159,-1689 C1161,-1690 1162,-1691 1164,-1692 
        C1166,-1694 1166,-1696 1169,-1696 Z" stroke-width="2" transform="matrix(0.33333, 0, 0, 0.33333, 0, 0)"/>
    <path d="M1158,-1538 C1186,-1528 1186,-1528 1186,-1528 C1186,-1552 1186,-1552 1186,-1552 C1165,-1605 1162,-1605 
        1162,-1605 C1155,-1609 1153,-1609 1153,-1609 C1143,-1609 1138,-1620 1138,-1620 C1134,-1623 1131,-1619 1131,-1619 
        Z" stroke-width="2" transform="matrix(0.33333, 0, 0, 0.33333, 0, 0)"/>
</svg>