<?xml version="1.0" standalone="no"?>
<!DOCTYPE svg PUBLIC "-//W3C//DTD SVG 1.0//EN"
    "http://www.w3.org/TR/2001/REC-SVG-20010904/DTD/svg10.dtd">
<?xml-stylesheet type="text/css" href="..\cisco_network.css" ?>
<svg contentScriptType="text/ecmascript" zoomAndPan="magnify" xmlns:xlink="http://www.w3.org/1999/xlink" baseProfile="full"
    contentStyleType="text/css" enable-background="new" version="1.0" width="45.1559" preserveAspectRatio="none"
    viewBox="386.02 -568.99 50.976 44.992" height="39.8551" xmlns="http://www.w3.org/2000/svg"
    color-interpolation-filters="sRGB" x="0" y="1.5">
    <path d="M1286,-1592 L1286,-1615 L1160,-1615 L1160,-1592 L1286,-1592 Z" stroke-width="2" transform="matrix(0.33333, 0, 0, 0.33333, 0, 0)"/>
    <path fill="none" d="M1248,-1602 L1280,-1602" stroke-width="2" transform="matrix(0.33333, 0, 0, 0.33333, 0, 0)"/>
    <path fill="none" d="M1248,-1603 L1280,-1603" stroke-width="2" transform="matrix(0.33333, 0, 0, 0.33333, 0, 0)"/>
    <path d="M1308,-1614 L1308,-1635 L1286,-1615 L1286,-1592 L1308,-1614 Z M1264,-1572 L1264,-1578 L1275,-1594 
        L1275,-1584 L1264,-1572 Z M1264,-1578 L1264,-1572 L1163,-1572 L1163,-1578 L1264,-1578 Z M1264,-1578 L1163,-1578 
        L1175,-1594 L1275,-1594 L1264,-1578 Z M1308,-1635 L1182,-1635 L1160,-1615 L1286,-1615 L1308,-1635 Z M1270,-1627 
        L1270,-1691 L1183,-1691 L1183,-1627 L1270,-1627 Z" stroke-width="2" transform="matrix(0.33333, 0, 0, 0.33333, 0, 0)"/>
    <path d="M1190,-1677 C1190,-1683 1197,-1684 1197,-1684 C1197,-1684 1248,-1684 1254,-1684 C1262,-1684 1262,-1676 
        1262,-1676 C1262,-1676 1262,-1645 1262,-1641 C1262,-1636 1256,-1634 1256,-1634 C1256,-1634 1204,-1634 1198,-1634 
        C1192,-1634 1190,-1640 1190,-1640 Z" stroke-width="2" transform="matrix(0.33333, 0, 0, 0.33333, 0, 0)"/>
    <path d="M1284,-1704 L1198,-1704 L1183,-1691 L1270,-1691 L1284,-1704 Z" stroke-width="2" transform="matrix(0.33333, 0, 0, 0.33333, 0, 0)"/>
    <path d="M1284,-1641 L1284,-1704 L1270,-1691 L1270,-1627 L1284,-1641 Z" stroke-width="2" transform="matrix(0.33333, 0, 0, 0.33333, 0, 0)"/>
    <path fill="#000000" d="M1225,-1658 L1225,-1646 L1219,-1646 L1227,-1637 L1235,-1646 L1229,-1646 L1229,-1658 
        L1225,-1658 Z" transform="matrix(0.33333, 0, 0, 0.33333, 0, 0)" stroke="none"/>
    <path fill="#ffffff" d="M1223,-1658 L1223,-1646 L1217,-1646 L1225,-1637 L1234,-1646 L1228,-1646 L1228,-1658 
        L1223,-1658 Z M1225,-1661 L1225,-1673 L1219,-1673 L1227,-1682 L1235,-1673 L1229,-1673 L1229,-1661 L1225,-1661 Z 
        M1223,-1661 L1223,-1672 L1217,-1672 L1225,-1682 L1234,-1672 L1228,-1672 L1228,-1661 L1223,-1661 Z M1254,-1655 
        L1242,-1655 L1242,-1649 L1233,-1658 L1242,-1666 L1242,-1660 L1254,-1660 L1254,-1655 Z M1252,-1657 L1241,-1657 
        L1241,-1651 L1231,-1659 L1241,-1668 L1241,-1661 L1252,-1661 L1252,-1657 Z M1199,-1655 L1211,-1655 L1211,-1649 
        L1220,-1658 L1211,-1666 L1211,-1660 L1199,-1660 L1199,-1655 Z M1199,-1657 L1211,-1657 L1211,-1651 L1220,-1659 
        L1211,-1668 L1211,-1661 L1199,-1661 L1199,-1657 Z" transform="matrix(0.33333, 0, 0, 0.33333, 0, 0)" stroke="none"/>
</svg>