<?xml version="1.0" standalone="no"?>
<!DOCTYPE svg PUBLIC "-//W3C//DTD SVG 1.0//EN"
    "http://www.w3.org/TR/2001/REC-SVG-20010904/DTD/svg10.dtd">
<?xml-stylesheet type="text/css" href="..\cisco_network.css" ?>
<svg contentScriptType="text/ecmascript" zoomAndPan="magnify" xmlns:xlink="http://www.w3.org/1999/xlink" baseProfile="full"
    contentStyleType="text/css" enable-background="new" version="1.0" width="52.2709" preserveAspectRatio="none"
    viewBox="380.99 -570.02 59.008 55.008" height="48.7276" xmlns="http://www.w3.org/2000/svg"
    color-interpolation-filters="sRGB" x="0" y="1.5">
    <path stroke-width="2" d="M1296,-1565 L1296,-1589 L1170,-1589 L1170,-1565 L1296,-1565 Z" transform="matrix(0.33333, 0, 0, 0.33333, 0, 0)"/>
    <path fill="none" stroke-width="2" d="M1257,-1576 L1289,-1576" transform="matrix(0.33333, 0, 0, 0.33333, 0, 0)"/>
    <path fill="none" stroke-width="2" d="M1257,-1577 L1289,-1577" transform="matrix(0.33333, 0, 0, 0.33333, 0, 0)"/>
    <path d="M1317,-1588 L1317,-1609 L1296,-1589 L1296,-1565 L1317,-1588 Z M1274,-1546 L1274,-1551 L1285,-1567 
        L1285,-1558 L1274,-1546 Z M1274,-1551 L1274,-1546 L1173,-1546 L1173,-1551 L1274,-1551 Z M1274,-1551 L1173,-1551 
        L1184,-1567 L1285,-1567 L1274,-1551 Z M1317,-1609 L1191,-1609 L1170,-1589 L1296,-1589 L1317,-1609 Z M1293,-1609 
        L1209,-1609 L1195,-1596 L1279,-1596 L1293,-1609 Z M1279,-1601 L1279,-1664 L1193,-1664 L1193,-1601 L1279,-1601 Z"
        stroke-width="2" transform="matrix(0.33333, 0, 0, 0.33333, 0, 0)"/>
    <path d="M1200,-1650 C1200,-1657 1206,-1658 1206,-1658 C1206,-1658 1258,-1658 1264,-1658 C1272,-1658 1272,-1650 
        1272,-1650 C1272,-1650 1272,-1619 1272,-1614 C1272,-1610 1265,-1608 1265,-1608 C1265,-1608 1256,-1608 1244,-1608 
        C1229,-1608 1211,-1608 1207,-1608 C1202,-1608 1200,-1614 1200,-1614 Z" stroke-width="2" transform="matrix(0.33333, 0, 0, 0.33333, 0, 0)"/>
    <path d="M1294,-1678 L1207,-1678 L1193,-1664 L1279,-1664 L1294,-1678 Z" stroke-width="2" transform="matrix(0.33333, 0, 0, 0.33333, 0, 0)"/>
    <path d="M1294,-1614 L1294,-1678 L1279,-1665 L1279,-1601 L1294,-1614 Z" stroke-width="2" transform="matrix(0.33333, 0, 0, 0.33333, 0, 0)"/>
    <path fill="#000000" d="M1225,-1709 L1223,-1708 L1145,-1708 L1147,-1709 L1225,-1709 Z" transform="matrix(0.33333, 0, 0, 0.33333, 0, 0)"
        stroke="none"/>
    <path d="M1225,-1632 L1225,-1709 L1223,-1707 L1223,-1630 L1225,-1632 Z M1148,-1630 L1223,-1630 L1223,-1708 
        L1145,-1708 L1145,-1633 L1148,-1630 Z" stroke-width="2" transform="matrix(0.33333, 0, 0, 0.33333, 0, 0)"/>
    <path d="M1217,-1708 C1217,-1663 1217,-1663 1217,-1663 C1217,-1659 1214,-1660 1214,-1660 C1153,-1660 1153,-1660 
        1153,-1660 C1153,-1660 1151,-1660 1151,-1662 C1151,-1708 1151,-1708 1151,-1708" stroke-width="2" transform="matrix(0.33333, 0, 0, 0.33333, 0, 0)"/>
    <path d="M1217,-1708 C1217,-1663 1217,-1663 1217,-1663 C1217,-1659 1214,-1660 1214,-1660 C1153,-1660 1153,-1660 
        1153,-1660 C1153,-1660 1151,-1660 1151,-1662 C1151,-1708 1151,-1708 1151,-1708" stroke-width="2" transform="matrix(0.33333, 0, 0, 0.33333, 0, 0)"/>
    <path fill="none" d="M1149,-1700 L1149,-1703 L1146,-1703 L1146,-1700 L1149,-1700 Z M1221,-1700 L1221,-1703 
        L1218,-1703 L1218,-1700 L1221,-1700 Z" stroke-width="2" transform="matrix(0.33333, 0, 0, 0.33333, 0, 0)"/>
    <path fill="#ffffff" d="M1204,-1652 C1204,-1631 1204,-1631 1204,-1631 C1158,-1631 1158,-1631 1158,-1631 C1158,-1653 
        1158,-1653 1158,-1653 C1158,-1655 1160,-1655 1160,-1655 C1202,-1655 1202,-1655 1202,-1655 C1204,-1655 1204,-1652 
        1204,-1652 Z" stroke-width="2" transform="matrix(0.33333, 0, 0, 0.33333, 0, 0)" stroke="#000000"/>
    <path fill="none" stroke-width="2" d="M1217,-1630 C1217,-1652 1217,-1652 1217,-1652 C1217,-1652 1217,-1655 
        1214,-1655 C1160,-1655 1160,-1655 1160,-1655 C1160,-1655 1158,-1655 1158,-1653 C1158,-1631 1158,-1631 
        1158,-1631" transform="matrix(0.33333, 0, 0, 0.33333, 0, 0)"/>
    <path fill="#000000" d="M1176,-1632 L1176,-1653 L1167,-1653 L1167,-1632 L1176,-1632 Z" transform="matrix(0.33333, 0, 0, 0.33333, 0, 0)"
        stroke="none"/>
    <path fill="none" d="M1223,-1707 L1225,-1709" stroke-width="2" transform="matrix(0.33333, 0, 0, 0.33333, 0, 0)"/>
</svg>