<?xml version="1.0" standalone="no"?>
<!DOCTYPE svg PUBLIC "-//W3C//DTD SVG 1.0//EN"
    "http://www.w3.org/TR/2001/REC-SVG-20010904/DTD/svg10.dtd">
<?xml-stylesheet type="text/css" href="..\cisco_network.css" ?>
<svg contentScriptType="text/ecmascript" zoomAndPan="magnify" xmlns:xlink="http://www.w3.org/1999/xlink" baseProfile="full"
    contentStyleType="text/css" enable-background="new" version="1.0" width="34.526" preserveAspectRatio="none" viewBox="390.02 -560 38.976 33.984"
    height="30.1039" xmlns="http://www.w3.org/2000/svg" color-interpolation-filters="sRGB" x="0" y="1.5">
    <path d="M1172,-1578 C1182,-1639 1182,-1639 1182,-1639 C1182,-1613 1204,-1592 1230,-1592 C1256,-1592 1278,-1613 
        1278,-1639 C1287,-1578 1287,-1578 1287,-1578 Z M1230,-1599 C1251,-1599 1269,-1616 1269,-1638 C1269,-1660 
        1251,-1678 1230,-1678 C1208,-1678 1190,-1660 1190,-1638 C1190,-1616 1208,-1599 1230,-1599 Z" stroke-width="2"
        transform="matrix(0.33333, 0, 0, 0.33333, 0, 0)"/>
    <path d="M1256,-1628 L1256,-1646 L1202,-1646 L1202,-1628 L1256,-1628 Z" stroke-width="2" transform="matrix(0.33333, 0, 0, 0.33333, 0, 0)"/>
</svg>