<?xml version="1.0" standalone="no"?>
<!DOCTYPE svg PUBLIC "-//W3C//DTD SVG 1.0//EN"
    "http://www.w3.org/TR/2001/REC-SVG-20010904/DTD/svg10.dtd">
<?xml-stylesheet type="text/css" href="..\cisco_network.css" ?>
<svg contentScriptType="text/ecmascript" zoomAndPan="magnify" xmlns:xlink="http://www.w3.org/1999/xlink" baseProfile="full"
    contentStyleType="text/css" enable-background="new" version="1.0" width="38.9764" preserveAspectRatio="none"
    viewBox="387.01 -556.99 44 61.984" height="54.9071" xmlns="http://www.w3.org/2000/svg" color-interpolation-filters="sRGB"
    x="0" y="1.5">
    <path fill="#ffffff" d="M1256,-1639 C1258,-1642 1258,-1643 1265,-1654 C1273,-1669 1262,-1676 1251,-1661 C1240,-1645 
        1238,-1641 1232,-1634 C1226,-1627 1214,-1600 1207,-1592 C1203,-1587 1209,-1607 1209,-1612 C1207,-1624 1207,-1623 
        1206,-1627 C1204,-1632 1196,-1639 1194,-1633 C1193,-1629 1193,-1629 1194,-1625 C1194,-1623 1193,-1624 1193,-1614 
        C1194,-1609 1185,-1593 1182,-1586 C1177,-1570 1183,-1570 1181,-1557 C1178,-1543 1181,-1546 1179,-1540 
        C1176,-1534 1162,-1512 1160,-1508 M1212,-1586 C1220,-1581 1212,-1555 1212,-1555 M1208,-1587 C1206,-1590 
        1206,-1592 1206,-1592 M1204,-1487 C1208,-1492 1225,-1518 1227,-1518 C1245,-1523 1265,-1563 1274,-1574 
        C1277,-1577 1278,-1582 1279,-1584 C1280,-1585 1284,-1594 1286,-1598 C1290,-1614 1290,-1614 1290,-1614 
        C1290,-1628 1290,-1628 1290,-1628 C1290,-1628 1284,-1642 1281,-1624 C1279,-1613 1279,-1613 1279,-1613 
        C1278,-1611 1274,-1606 1273,-1603 C1272,-1601 1266,-1593 1266,-1589 M1204,-1487 C1208,-1492 1225,-1518 
        1227,-1518 C1245,-1523 1265,-1563 1274,-1574 C1277,-1577 1278,-1582 1279,-1584 C1280,-1585 1284,-1594 1286,-1598 
        C1290,-1614 1290,-1614 1290,-1614 C1290,-1628 1290,-1628 1290,-1628 C1290,-1628 1284,-1642 1281,-1624 
        C1279,-1613 1279,-1613 1279,-1613 C1278,-1611 1274,-1606 1273,-1603 C1272,-1601 1266,-1593 1266,-1589 
        M1266,-1657 C1269,-1661 1269,-1661 1270,-1662 C1280,-1677 1290,-1670 1283,-1656 C1277,-1644 1277,-1643 
        1274,-1640 C1271,-1633 1267,-1625 1264,-1620 M1276,-1642 C1286,-1657 1296,-1650 1290,-1636 C1284,-1625 
        1283,-1624 1281,-1620 C1277,-1612 1279,-1614 1276,-1608" stroke-width="2" transform="matrix(0.33333, 0, 0, 0.33333, 0, 0)"
        stroke="#000000"/>
    <path d="M1183,-1567 L1246,-1567 L1287,-1642 L1226,-1642 L1183,-1567 L1183,-1567 Z M1183,-1567 L1183,-1555 
        L1246,-1555 L1246,-1567 L1183,-1567 L1183,-1567 Z M1287,-1642 L1287,-1630 L1246,-1555 L1246,-1567 L1287,-1642 
        L1287,-1642 Z" stroke-width="2" fill-rule="evenodd" transform="matrix(0.33333, 0, 0, 0.33333, 0, 0)"
        stroke-linejoin="round" stroke-linecap="round"/>
    <path fill="#ffffff" d="M1276,-1634 L1249,-1584 L1200,-1584 L1229,-1634 L1276,-1634 Z M1202,-1578 L1199,-1572 
        L1194,-1572 L1197,-1578 L1202,-1578 Z M1246,-1578 L1243,-1572 L1238,-1572 L1241,-1578 L1246,-1578 Z M1235,-1578 
        L1232,-1572 L1227,-1572 L1230,-1578 L1235,-1578 Z M1224,-1578 L1221,-1572 L1215,-1572 L1218,-1578 L1224,-1578 Z 
        M1213,-1578 L1210,-1572 L1204,-1572 L1207,-1578 L1213,-1578 Z" fill-rule="evenodd" transform="matrix(0.33333, 0, 0, 0.33333, 0, 0)"
        stroke-linejoin="round" stroke-linecap="round"/>
</svg>