<?xml version="1.0" standalone="no"?>
<!DOCTYPE svg PUBLIC "-//W3C//DTD SVG 1.0//EN"
    "http://www.w3.org/TR/2001/REC-SVG-20010904/DTD/svg10.dtd">
<?xml-stylesheet type="text/css" href="..\cisco_network.css" ?>
<svg contentScriptType="text/ecmascript" zoomAndPan="magnify" xmlns:xlink="http://www.w3.org/1999/xlink" baseProfile="full"
    contentStyleType="text/css" enable-background="new" version="1.0" width="36.3402" preserveAspectRatio="none"
    viewBox="392.99 -556 41.024 29.984" height="26.5606" xmlns="http://www.w3.org/2000/svg" color-interpolation-filters="sRGB"
    x="0" y="1.5">
    <path d="M1180,-1579 L1180,-1599 L1264,-1599 L1264,-1579 L1180,-1579 Z M1264,-1599 L1179,-1599 L1219,-1657 
        L1300,-1657 L1264,-1599 Z M1300,-1657 L1300,-1620 L1264,-1579 L1264,-1599 L1300,-1657 Z" stroke-width="2"
        transform="matrix(0.33333, 0, 0, 0.33333, 0, 0)"/>
    <path d="M1264,-1599 L1300,-1657 Z" stroke="none" transform="matrix(0.33333, 0, 0, 0.33333, 0, 0)"/>
    <path fill="none" d="M1264,-1599 L1300,-1657" stroke-width="2" transform="matrix(0.33333, 0, 0, 0.33333, 0, 0)"/>
    <path d="M1246,-1646 C1241,-1640 1234,-1633 1230,-1627 C1231,-1622 1231,-1622 1231,-1622 C1218,-1603 1218,-1603 
        1218,-1603 C1217,-1615 1217,-1615 1217,-1615 C1219,-1625 1249,-1663 1256,-1668 C1257,-1655 1257,-1655 1257,-1655 
        C1246,-1642 1246,-1642 1246,-1642 Z" stroke-width="2" transform="matrix(0.33333, 0, 0, 0.33333, 0, 0)"/>
    <path d="M1201,-1615 L1200,-1603 L1218,-1603 L1217,-1615 L1201,-1615 Z" stroke-width="2" transform="matrix(0.33333, 0, 0, 0.33333, 0, 0)"/>
    <path d="M1256,-1668 C1249,-1663 1219,-1625 1217,-1615 C1201,-1615 1201,-1615 1201,-1615 C1204,-1625 1234,-1663 
        1241,-1668 Z" stroke-width="2" transform="matrix(0.33333, 0, 0, 0.33333, 0, 0)"/>
    <path d="M1230,-1605 L1248,-1631 L1274,-1631 L1259,-1605 L1230,-1605 Z" stroke-width="2" transform="matrix(0.33333, 0, 0, 0.33333, 0, 0)"/>
    <path fill="none" d="M1249,-1605 L1265,-1631 M1239,-1605 L1257,-1631 M1262,-1612 L1234,-1612 M1266,-1618 L1239,-1618 
        M1270,-1624 L1243,-1624" stroke-width="2" transform="matrix(0.33333, 0, 0, 0.33333, 0, 0)"/>
</svg>