<?xml version="1.0" standalone="no"?>
<!DOCTYPE svg PUBLIC "-//W3C//DTD SVG 1.0//EN"
    "http://www.w3.org/TR/2001/REC-SVG-20010904/DTD/svg10.dtd">
<?xml-stylesheet type="text/css" href="..\cisco_network.css" ?>
<svg contentScriptType="text/ecmascript" zoomAndPan="magnify" xmlns:xlink="http://www.w3.org/1999/xlink" baseProfile="full"
    contentStyleType="text/css" enable-background="new" version="1.0" width="43.3984" preserveAspectRatio="none"
    viewBox="384 -566.02 48.992 33.024" height="29.2535" xmlns="http://www.w3.org/2000/svg" color-interpolation-filters="sRGB"
    x="0" y="1.5">
    <path d="M1298,-1669 C1298,-1653 1266,-1641 1226,-1641 C1186,-1641 1154,-1653 1154,-1669 C1154,-1628 1154,-1628 
        1154,-1628 C1154,-1612 1186,-1599 1226,-1599 C1266,-1599 1298,-1612 1298,-1628 Z" stroke-width="2" transform="matrix(0.33333, 0, 0, 0.33333, 0, 0)"/>
    <path d="M1298,-1669 C1298,-1653 1266,-1641 1226,-1641 C1186,-1641 1154,-1653 1154,-1669 C1154,-1628 1154,-1628 
        1154,-1628 C1154,-1612 1186,-1599 1226,-1599 C1266,-1599 1298,-1612 1298,-1628 Z" stroke-width="2" transform="matrix(0.33333, 0, 0, 0.33333, 0, 0)"/>
    <path d="M1226,-1641 C1266,-1641 1298,-1653 1298,-1669 C1298,-1684 1266,-1697 1226,-1697 C1186,-1697 1154,-1684 
        1154,-1669 C1154,-1653 1186,-1641 1226,-1641 Z" stroke-width="2" transform="matrix(0.33333, 0, 0, 0.33333, 0, 0)"/>
    <path fill="#ffffff" d="M1205,-1653 L1205,-1690 L1239,-1672 L1205,-1653 Z M1251,-1655 L1251,-1688 L1240,-1688 
        L1240,-1655 L1251,-1655 Z" transform="matrix(0.33333, 0, 0, 0.33333, 0, 0)" stroke="none"/>
</svg>