<?xml version="1.0" standalone="no"?>
<!DOCTYPE svg PUBLIC "-//W3C//DTD SVG 1.0//EN"
    "http://www.w3.org/TR/2001/REC-SVG-20010904/DTD/svg10.dtd">
<?xml-stylesheet type="text/css" href="..\cisco_network.css" ?>
<svg contentScriptType="text/ecmascript" zoomAndPan="magnify" xmlns:xlink="http://www.w3.org/1999/xlink" baseProfile="full"
    contentStyleType="text/css" enable-background="new" version="1.0" width="68.2299" preserveAspectRatio="none"
    viewBox="372.99 -552 77.024 48.992" height="43.3984" xmlns="http://www.w3.org/2000/svg" color-interpolation-filters="sRGB"
    x="0" y="1.5">
    <path d="M1330,-1563 L1344,-1636 L1238,-1636 L1222,-1563 L1330,-1563 Z M1344,-1636 L1349,-1631 L1336,-1559 
        L1330,-1563 L1344,-1636 Z M1222,-1563 L1227,-1559 L1336,-1559 L1330,-1563 L1222,-1563 Z" stroke-width="2"
        transform="matrix(0.33333, 0, 0, 0.33333, 0, 0)"/>
    <path stroke-width="2" d="M1331,-1558 C1331,-1547 1331,-1547 1331,-1547 C1329,-1544 1329,-1544 1329,-1544 
        C1329,-1544 1322,-1542 1323,-1538 C1294,-1511 1294,-1511 1294,-1511 C1294,-1523 1294,-1523 1294,-1523 Z"
        transform="matrix(0.33333, 0, 0, 0.33333, 0, 0)"/>
    <path d="M1177,-1523 L1177,-1511 L1294,-1511 L1294,-1523 L1177,-1523 Z" transform="matrix(0.33333, 0, 0, 0.33333, 0, 0)"
        stroke="none"/>
    <path fill="none" d="M1177,-1523 L1177,-1511 L1294,-1511 L1294,-1523 L1177,-1523" stroke-width="2" transform="matrix(0.33333, 0, 0, 0.33333, 0, 0)"/>
    <path stroke-width="2" d="M1223,-1557 L1331,-1558 L1294,-1523 L1177,-1523 L1223,-1557 Z M1321,-1570 L1333,-1627 
        L1246,-1627 L1235,-1570 L1321,-1570 Z" transform="matrix(0.33333, 0, 0, 0.33333, 0, 0)"/>
    <path fill="none" d="M1226,-1556 L1199,-1534 M1235,-1556 L1207,-1534 M1243,-1556 L1216,-1534 M1252,-1556 L1225,-1534 
        M1261,-1556 L1234,-1534 M1270,-1556 L1242,-1534 M1278,-1556 L1251,-1534 M1287,-1556 L1260,-1534 M1296,-1556 
        L1269,-1534 M1305,-1556 L1277,-1534 M1313,-1556 L1286,-1534 M1322,-1556 L1295,-1534 M1202,-1536 L1299,-1536 
        M1208,-1541 L1304,-1541 M1215,-1546 L1310,-1546 M1221,-1551 L1317,-1551" stroke-width="2.54" transform="matrix(0.33333, 0, 0, 0.33333, 0, 0)"
        stroke-linejoin="round"/>
    <path fill="#ffffff" d="M1290,-1613 C1297,-1607 1305,-1597 1306,-1591 C1306,-1586 1303,-1584 1301,-1582 C1298,-1580 
        1293,-1580 1293,-1580 C1287,-1587 1287,-1587 1287,-1587 C1287,-1587 1299,-1588 1297,-1595 C1295,-1601 1283,-1619 
        1290,-1613" transform="matrix(0.33333, 0, 0, 0.33333, 0, 0)" stroke="none"/>
    <path fill="#ffffff" d="M1292,-1595 L1297,-1574 L1284,-1581 L1292,-1595 Z M1292,-1595 L1292,-1595 Z" transform="matrix(0.33333, 0, 0, 0.33333, 0, 0)"
        stroke="none"/>
    <path fill="none" d="M1292,-1595 L1297,-1574 L1284,-1581 L1292,-1595 M1292,-1595 L1292,-1595" transform="matrix(0.33333, 0, 0, 0.33333, 0, 0)"
        stroke="none"/>
    <path fill="#ffffff" d="M1277,-1580 C1269,-1586 1261,-1596 1261,-1602 C1260,-1607 1263,-1609 1266,-1611 C1268,-1613 
        1273,-1613 1273,-1613 C1279,-1606 1279,-1606 1279,-1606 C1279,-1606 1268,-1605 1269,-1598 C1271,-1592 1284,-1574 
        1277,-1580" transform="matrix(0.33333, 0, 0, 0.33333, 0, 0)" stroke="none"/>
    <path fill="#ffffff" d="M1275,-1598 L1269,-1619 L1283,-1611 L1275,-1598 Z M1275,-1598 L1275,-1598 Z" transform="matrix(0.33333, 0, 0, 0.33333, 0, 0)"
        stroke="none"/>
    <path fill="none" d="M1275,-1598 L1269,-1619 L1283,-1611 L1275,-1598 M1275,-1598 L1275,-1598" transform="matrix(0.33333, 0, 0, 0.33333, 0, 0)"
        stroke="none"/>
    <path d="M1287,-1638 C1292,-1638 1296,-1642 1296,-1646 C1296,-1651 1292,-1655 1287,-1655 C1283,-1655 1279,-1651 
        1279,-1646 C1279,-1642 1283,-1638 1287,-1638 Z" transform="matrix(0.33333, 0, 0, 0.33333, 0, 0)"/>
    <path d="M1275,-1633 C1277,-1647 1277,-1647 1277,-1647 C1277,-1641 1282,-1636 1288,-1636 C1293,-1636 1298,-1641 
        1298,-1647 C1300,-1633 1300,-1633 1300,-1633 Z" stroke="none" transform="matrix(0.33333, 0, 0, 0.33333, 0, 0)"/>
    <path fill="#ffffff" d="M1293,-1644 L1293,-1648 L1282,-1648 L1282,-1644 L1293,-1644 Z" transform="matrix(0.33333, 0, 0, 0.33333, 0, 0)"
        stroke="none"/>
    <path fill="#000000" stroke-width="8" d="M1131,-1538 C1132,-1536 1131,-1533 1128,-1532 C1126,-1531 1123,-1532 
        1122,-1534 C1121,-1537 1122,-1539 1125,-1540 C1127,-1541 1130,-1540 1131,-1538 Z" transform="matrix(0.33333, 0, 0, 0.33333, 0, 0)"/>
    <path fill="none" d="M1205,-1563 C1195,-1553 1172,-1542 1152,-1537 C1139,-1533 1130,-1533 1126,-1536" stroke-width="8"
        transform="matrix(0.33333, 0, 0, 0.33333, 0, 0)" stroke-linejoin="round"/>
    <path fill="none" d="M1148,-1562 C1148,-1570 1150,-1579 1154,-1588 C1165,-1610 1187,-1623 1203,-1618 C1218,-1612 
        1222,-1590 1211,-1569 C1209,-1566 1208,-1564 1207,-1563" stroke-width="8" transform="matrix(0.33333, 0, 0, 0.33333, 0, 0)"
        stroke-linejoin="round"/>
    <path fill="#000000" stroke-width="8" d="M1214,-1566 C1216,-1562 1214,-1557 1210,-1555 C1206,-1554 1202,-1556 
        1200,-1559 C1198,-1563 1200,-1568 1204,-1570 C1208,-1571 1212,-1569 1214,-1566 Z" transform="matrix(0.33333, 0, 0, 0.33333, 0, 0)"/>
    <path fill="#000000" stroke-width="8" d="M1152,-1564 C1153,-1562 1152,-1559 1150,-1558 C1147,-1557 1145,-1558 
        1144,-1561 C1143,-1563 1144,-1565 1146,-1566 C1148,-1567 1151,-1566 1152,-1564 Z" transform="matrix(0.33333, 0, 0, 0.33333, 0, 0)"/>
    <path fill="#000000" d="M1131,-1538 C1132,-1536 1131,-1533 1128,-1532 C1126,-1531 1123,-1532 1122,-1534 C1121,-1537 
        1122,-1539 1125,-1540 C1127,-1541 1130,-1540 1131,-1538 Z" transform="matrix(0.33333, 0, 0, 0.33333, 0, 0)"
        stroke="none"/>
    <path fill="none" d="M1205,-1563 C1195,-1553 1172,-1542 1152,-1537 C1139,-1533 1130,-1533 1126,-1536" stroke-width="2"
        transform="matrix(0.33333, 0, 0, 0.33333, 0, 0)" stroke="#000000" stroke-linejoin="round"/>
    <path fill="none" d="M1148,-1562 C1148,-1570 1150,-1579 1154,-1588 C1165,-1610 1187,-1623 1203,-1618 C1218,-1612 
        1222,-1590 1211,-1569 C1209,-1566 1208,-1564 1207,-1563" stroke-width="4" transform="matrix(0.33333, 0, 0, 0.33333, 0, 0)"
        stroke="#000000" stroke-linejoin="round"/>
    <path fill="#000000" stroke-width="2" d="M1214,-1566 C1216,-1562 1214,-1557 1210,-1555 C1206,-1554 1202,-1556 
        1200,-1559 C1198,-1563 1200,-1568 1204,-1570 C1208,-1571 1212,-1569 1214,-1566 Z" transform="matrix(0.33333, 0, 0, 0.33333, 0, 0)"/>
    <path fill="#000000" d="M1152,-1564 C1153,-1562 1152,-1559 1150,-1558 C1147,-1557 1145,-1558 1144,-1561 C1143,-1563 
        1144,-1565 1146,-1566 C1148,-1567 1151,-1566 1152,-1564 Z" transform="matrix(0.33333, 0, 0, 0.33333, 0, 0)"
        stroke="none"/>
</svg>