<?xml version="1.0" standalone="no"?>
<!DOCTYPE svg PUBLIC "-//W3C//DTD SVG 1.0//EN"
    "http://www.w3.org/TR/2001/REC-SVG-20010904/DTD/svg10.dtd">
<?xml-stylesheet type="text/css" href="..\cisco_network.css" ?>
<svg contentScriptType="text/ecmascript" zoomAndPan="magnify" xmlns:xlink="http://www.w3.org/1999/xlink" baseProfile="full"
    contentStyleType="text/css" enable-background="new" version="1.0" width="51.3638" preserveAspectRatio="none"
    viewBox="383.01 -552.99 57.984 21.984" height="19.474" xmlns="http://www.w3.org/2000/svg"
    color-interpolation-filters="sRGB" x="0" y="1.5">
    <path d="M1152,-1594 L1152,-1645 L1263,-1645 L1263,-1594 L1152,-1594 Z M1263,-1594 L1263,-1645 L1152,-1645 
        L1166,-1659 L1264,-1659 L1277,-1659 L1277,-1609 L1263,-1594 Z" stroke-width="2" transform="matrix(0.33333, 0, 0, 0.33333, 0, 0)"/>
    <path fill="none" d="M1263,-1645 L1277,-1659 M1263,-1608 L1152,-1608 M1277,-1622 L1263,-1608" stroke-width="2"
        transform="matrix(0.33333, 0, 0, 0.33333, 0, 0)"/>
    <path d="M1323,-1649 L1309,-1634 L1263,-1618 L1277,-1633 L1323,-1649 Z" stroke-width="2" transform="matrix(0.33333, 0, 0, 0.33333, 0, 0)"/>
</svg>