<?xml version="1.0" standalone="no"?>
<!DOCTYPE svg PUBLIC "-//W3C//DTD SVG 1.0//EN"
    "http://www.w3.org/TR/2001/REC-SVG-20010904/DTD/svg10.dtd">
<?xml-stylesheet type="text/css" href="..\cisco_network.css" ?>
<svg contentScriptType="text/ecmascript" zoomAndPan="magnify" xmlns:xlink="http://www.w3.org/1999/xlink" baseProfile="full"
    contentStyleType="text/css" enable-background="new" version="1.0" width="21.2598" preserveAspectRatio="none"
    viewBox="395.01 -575.01 24 64" height="56.6929" xmlns="http://www.w3.org/2000/svg" color-interpolation-filters="sRGB"
    x="0" y="1.5">
    <path fill="#ffffff" d="M1229,-1622 L1204,-1622 L1204,-1712 L1229,-1712 L1229,-1622 Z" stroke-width="3" transform="matrix(0.33333, 0, 0, 0.33333, 0, 0)"
        stroke="#0f73a0"/>
    <path fill="#ffffff" d="M1188,-1533 L1204,-1623 L1229,-1623 L1244,-1533 Z" transform="matrix(0.33333, 0, 0, 0.33333, 0, 0)"
        stroke="none"/>
    <path fill="none" d="M1188,-1533 L1204,-1623 L1229,-1623 L1244,-1533 M1187,-1533 L1239,-1559 L1197,-1583 L1232,-1605 
        L1206,-1622 L1229,-1653 L1205,-1672 L1229,-1694 L1204,-1711 M1245,-1533 L1195,-1559 L1237,-1583 L1202,-1605 
        L1228,-1622 L1205,-1653 L1228,-1672 L1204,-1694 L1229,-1711 M1228,-1712 L1205,-1712 L1211,-1723 L1222,-1723 
        L1228,-1712 Z" stroke-width="3" transform="matrix(0.33333, 0, 0, 0.33333, 0, 0)" stroke="#0f73a0"/>
    <path stroke-width="3" d="M1239,-1709 C1241,-1712 1241,-1712 1241,-1712 C1242,-1712 1242,-1712 1242,-1712 
        C1242,-1699 1242,-1699 1242,-1699 C1251,-1699 1251,-1699 1251,-1699 C1252,-1698 1252,-1698 1252,-1698 
        C1253,-1698 1253,-1698 1253,-1698 C1254,-1699 1254,-1699 1254,-1699 C1255,-1700 1256,-1697 1256,-1697 
        C1256,-1696 1256,-1696 1256,-1696 C1256,-1696 1255,-1694 1254,-1694 C1253,-1696 1253,-1696 1253,-1696 
        C1252,-1696 1252,-1696 1252,-1696 C1251,-1695 1251,-1695 1251,-1695 C1242,-1695 1242,-1695 1242,-1695 
        C1242,-1681 1242,-1681 1242,-1681 C1241,-1681 1241,-1681 1241,-1681 C1239,-1684 1239,-1684 1239,-1684 Z"
        transform="matrix(0.33333, 0, 0, 0.33333, 0, 0)" stroke="#000000"/>
    <path stroke-width="3" d="M1239,-1684 C1234,-1684 1234,-1684 1234,-1684 C1232,-1687 1232,-1692 1232,-1692 
        C1228,-1692 1228,-1692 1228,-1692 C1228,-1696 1228,-1696 1228,-1696 C1228,-1697 1228,-1697 1228,-1697 
        C1228,-1701 1228,-1701 1228,-1701 C1232,-1701 1232,-1701 1232,-1701 C1232,-1701 1232,-1707 1234,-1709 
        C1239,-1709 1239,-1709 1239,-1709 Z" transform="matrix(0.33333, 0, 0, 0.33333, 0, 0)" stroke="#000000"/>
    <path stroke-width="3" d="M1239,-1709 C1241,-1712 1241,-1712 1241,-1712 C1242,-1712 1242,-1712 1242,-1712 
        C1242,-1699 1242,-1699 1242,-1699 C1251,-1699 1251,-1699 1251,-1699 C1252,-1698 1252,-1698 1252,-1698 
        C1253,-1698 1253,-1698 1253,-1698 C1254,-1699 1254,-1699 1254,-1699 C1255,-1700 1256,-1697 1256,-1697 
        C1256,-1696 1256,-1696 1256,-1696 C1256,-1696 1255,-1694 1254,-1694 C1253,-1696 1253,-1696 1253,-1696 
        C1252,-1696 1252,-1696 1252,-1696 C1251,-1695 1251,-1695 1251,-1695 C1242,-1695 1242,-1695 1242,-1695 
        C1242,-1681 1242,-1681 1242,-1681 C1241,-1681 1241,-1681 1241,-1681 C1239,-1684 1239,-1684 1239,-1684 Z"
        transform="matrix(0.33333, 0, 0, 0.33333, 0, 0)" stroke="#0b719f"/>
    <path stroke-width="3" d="M1239,-1684 C1234,-1684 1234,-1684 1234,-1684 C1232,-1687 1232,-1692 1232,-1692 
        C1228,-1692 1228,-1692 1228,-1692 C1228,-1696 1228,-1696 1228,-1696 C1228,-1697 1228,-1697 1228,-1697 
        C1228,-1701 1228,-1701 1228,-1701 C1232,-1701 1232,-1701 1232,-1701 C1232,-1701 1232,-1707 1234,-1709 
        C1239,-1709 1239,-1709 1239,-1709 Z" transform="matrix(0.33333, 0, 0, 0.33333, 0, 0)" stroke="#0f73a0"/>
    <path stroke-width="3" d="M1239,-1668 C1241,-1671 1241,-1671 1241,-1671 C1242,-1671 1242,-1671 1242,-1671 
        C1242,-1657 1242,-1657 1242,-1657 C1251,-1657 1251,-1657 1251,-1657 C1252,-1657 1252,-1657 1252,-1657 
        C1253,-1657 1253,-1657 1253,-1657 C1254,-1658 1254,-1658 1254,-1658 C1255,-1658 1256,-1656 1256,-1656 
        C1256,-1655 1256,-1655 1256,-1655 C1256,-1655 1255,-1652 1254,-1653 C1253,-1654 1253,-1654 1253,-1654 
        C1252,-1654 1252,-1654 1252,-1654 C1251,-1653 1251,-1653 1251,-1653 C1242,-1653 1242,-1653 1242,-1653 
        C1242,-1640 1242,-1640 1242,-1640 C1241,-1640 1241,-1640 1241,-1640 C1239,-1643 1239,-1643 1239,-1643 Z"
        transform="matrix(0.33333, 0, 0, 0.33333, 0, 0)" stroke="#000000"/>
    <path stroke-width="3" d="M1239,-1643 C1234,-1643 1234,-1643 1234,-1643 C1232,-1645 1232,-1651 1232,-1651 
        C1228,-1651 1228,-1651 1228,-1651 C1228,-1655 1228,-1655 1228,-1655 C1228,-1656 1228,-1656 1228,-1656 
        C1228,-1660 1228,-1660 1228,-1660 C1232,-1660 1232,-1660 1232,-1660 C1232,-1660 1232,-1665 1234,-1668 
        C1239,-1668 1239,-1668 1239,-1668 Z" transform="matrix(0.33333, 0, 0, 0.33333, 0, 0)" stroke="#000000"/>
    <path stroke-width="3" d="M1239,-1668 C1241,-1671 1241,-1671 1241,-1671 C1242,-1671 1242,-1671 1242,-1671 
        C1242,-1657 1242,-1657 1242,-1657 C1251,-1657 1251,-1657 1251,-1657 C1252,-1657 1252,-1657 1252,-1657 
        C1253,-1657 1253,-1657 1253,-1657 C1254,-1658 1254,-1658 1254,-1658 C1255,-1658 1256,-1656 1256,-1656 
        C1256,-1655 1256,-1655 1256,-1655 C1256,-1655 1255,-1652 1254,-1653 C1253,-1654 1253,-1654 1253,-1654 
        C1252,-1654 1252,-1654 1252,-1654 C1251,-1653 1251,-1653 1251,-1653 C1242,-1653 1242,-1653 1242,-1653 
        C1242,-1640 1242,-1640 1242,-1640 C1241,-1640 1241,-1640 1241,-1640 C1239,-1643 1239,-1643 1239,-1643 Z"
        transform="matrix(0.33333, 0, 0, 0.33333, 0, 0)" stroke="#0b719f"/>
    <path stroke-width="3" d="M1239,-1643 C1234,-1643 1234,-1643 1234,-1643 C1232,-1645 1232,-1651 1232,-1651 
        C1228,-1651 1228,-1651 1228,-1651 C1228,-1655 1228,-1655 1228,-1655 C1228,-1656 1228,-1656 1228,-1656 
        C1228,-1660 1228,-1660 1228,-1660 C1232,-1660 1232,-1660 1232,-1660 C1232,-1660 1232,-1665 1234,-1668 
        C1239,-1668 1239,-1668 1239,-1668 Z" transform="matrix(0.33333, 0, 0, 0.33333, 0, 0)" stroke="#0f73a0"/>
</svg>