<?xml version="1.0" standalone="no"?>
<!DOCTYPE svg PUBLIC "-//W3C//DTD SVG 1.0//EN"
    "http://www.w3.org/TR/2001/REC-SVG-20010904/DTD/svg10.dtd">
<?xml-stylesheet type="text/css" href="..\cisco_network.css" ?>
<svg contentScriptType="text/ecmascript" zoomAndPan="magnify" xmlns:xlink="http://www.w3.org/1999/xlink" baseProfile="full"
    contentStyleType="text/css" enable-background="new" version="1.0" width="40.7622" preserveAspectRatio="none"
    viewBox="384 -560 46.016 36.992" height="32.7685" xmlns="http://www.w3.org/2000/svg" color-interpolation-filters="sRGB"
    x="0" y="1.5">
    <path stroke-width="2" d="M1271,-1658 L1290,-1677 L1290,-1677 L1173,-1677 L1153,-1658 L1271,-1658 L1271,-1658 Z 
        M1272,-1571 L1272,-1659 L1154,-1659 L1154,-1571 L1272,-1571 Z M1291,-1589 L1291,-1677 L1272,-1659 L1272,-1571 
        L1291,-1589 Z" transform="matrix(0.33333, 0, 0, 0.33333, 0, 0)"/>
    <path fill="none" d="M1196,-1571 L1196,-1659 M1230,-1571 L1230,-1659" transform="matrix(0.33333, 0, 0, 0.33333, 0, 0)"/>
    <path fill="none" d="M1218,-1649 L1198,-1649" stroke-width="4" transform="matrix(0.33333, 0, 0, 0.33333, 0, 0)"
        stroke="#ffffff"/>
    <path fill="#ffffff" d="M1226,-1649 L1215,-1644 L1218,-1649 L1215,-1654 L1226,-1649 Z" transform="matrix(0.33333, 0, 0, 0.33333, 0, 0)"
        stroke="none"/>
    <path fill="none" d="M1218,-1632 L1198,-1632" stroke-width="4" transform="matrix(0.33333, 0, 0, 0.33333, 0, 0)"
        stroke="#ffffff"/>
    <path fill="#ffffff" d="M1226,-1632 L1215,-1628 L1218,-1632 L1215,-1637 L1226,-1632 Z" transform="matrix(0.33333, 0, 0, 0.33333, 0, 0)"
        stroke="none"/>
    <path fill="none" d="M1218,-1616 L1198,-1616" stroke-width="4" transform="matrix(0.33333, 0, 0, 0.33333, 0, 0)"
        stroke="#ffffff"/>
    <path fill="#ffffff" d="M1226,-1616 L1215,-1611 L1218,-1616 L1215,-1620 L1226,-1616 Z" transform="matrix(0.33333, 0, 0, 0.33333, 0, 0)"
        stroke="none"/>
    <path fill="none" d="M1218,-1599 L1198,-1599" stroke-width="4" transform="matrix(0.33333, 0, 0, 0.33333, 0, 0)"
        stroke="#ffffff"/>
    <path fill="#ffffff" d="M1226,-1599 L1215,-1594 L1218,-1599 L1215,-1604 L1226,-1599 Z" transform="matrix(0.33333, 0, 0, 0.33333, 0, 0)"
        stroke="none"/>
    <path fill="none" d="M1219,-1580 L1198,-1580" stroke-width="4" transform="matrix(0.33333, 0, 0, 0.33333, 0, 0)"
        stroke="#ffffff"/>
    <path fill="#ffffff" d="M1226,-1580 L1215,-1576 L1218,-1580 L1215,-1585 L1226,-1580 Z M1155,-1634 L1181,-1634 
        L1180,-1631 L1192,-1640 L1180,-1648 L1181,-1645 L1155,-1645 L1155,-1634 Z M1155,-1610 L1181,-1610 L1180,-1607 
        L1192,-1615 L1180,-1624 L1181,-1621 L1155,-1621 L1155,-1610 Z M1232,-1620 L1258,-1620 L1258,-1616 L1270,-1627 
        L1258,-1637 L1258,-1633 L1232,-1633 L1232,-1620 Z M1232,-1588 L1258,-1588 L1258,-1584 L1270,-1595 L1258,-1606 
        L1258,-1602 L1232,-1602 L1232,-1588 Z M1155,-1586 L1181,-1586 L1180,-1583 L1192,-1591 L1180,-1599 L1181,-1596 
        L1155,-1596 L1155,-1586 Z" transform="matrix(0.33333, 0, 0, 0.33333, 0, 0)" stroke="none"/>
</svg>