<?xml version="1.0" standalone="no"?>
<!DOCTYPE svg PUBLIC "-//W3C//DTD SVG 1.0//EN"
    "http://www.w3.org/TR/2001/REC-SVG-20010904/DTD/svg10.dtd">
<?xml-stylesheet type="text/css" href="..\cisco_network.css" ?>
<svg contentScriptType="text/ecmascript" zoomAndPan="magnify" xmlns:xlink="http://www.w3.org/1999/xlink" baseProfile="full"
    contentStyleType="text/css" enable-background="new" version="1.0" width="45.1843" preserveAspectRatio="none"
    viewBox="375.01 -547.01 51.008 27.008" height="23.9244" xmlns="http://www.w3.org/2000/svg"
    color-interpolation-filters="sRGB" x="0" y="1.5">
    <path d="M1126,-1587 L1126,-1616 L1245,-1616 L1245,-1587 L1126,-1587 Z M1245,-1587 L1245,-1616 L1126,-1616 
        L1156,-1639 L1262,-1639 L1270,-1639 L1270,-1614 L1245,-1587 Z" stroke-width="2" transform="matrix(0.33333, 0, 0, 0.33333, 0, 0)"/>
    <path fill="none" d="M1247,-1617 L1268,-1638" stroke-width="2" transform="matrix(0.33333, 0, 0, 0.33333, 0, 0)"/>
    <path fill="#ffffff" d="M1157,-1598 L1138,-1598 L1138,-1604 L1157,-1604 L1157,-1598 Z M1182,-1598 L1163,-1598 
        L1163,-1604 L1182,-1604 L1182,-1598 Z M1207,-1598 L1188,-1598 L1188,-1604 L1207,-1604 L1207,-1598 Z M1232,-1598 
        L1213,-1598 L1213,-1604 L1232,-1604 L1232,-1598 Z" transform="matrix(0.33333, 0, 0, 0.33333, 0, 0)" stroke="none"/>
    <path stroke-linecap="round" transform="matrix(0.33333, 0, 0, 0.33333, 0, 0)" fill="none" stroke-linejoin="round" d=
        "M1278,-1587 C1279,-1581 1277,-1574 1271,-1568 C1266,-1562 1259,-1560 1252,-1560" stroke="#036998" stroke-width="2"/>
    <path stroke-linecap="round" transform="matrix(0.33333, 0, 0, 0.33333, 0, 0)" fill="none" stroke-linejoin="round" d=
        "M1275,-1588 C1276,-1582 1274,-1576 1269,-1570 C1264,-1565 1257,-1562 1251,-1563" stroke="#036998" stroke-width="2"/>
    <path stroke-linecap="round" transform="matrix(0.33333, 0, 0, 0.33333, 0, 0)" fill="none" stroke-linejoin="round" d=
        "M1272,-1589 C1273,-1583 1271,-1577 1267,-1572 C1262,-1567 1256,-1565 1250,-1565" stroke="#036998" stroke-width="2"/>
    <path stroke-linecap="round" transform="matrix(0.33333, 0, 0, 0.33333, 0, 0)" fill="none" stroke-linejoin="round" d=
        "M1270,-1589 C1270,-1584 1269,-1579 1265,-1574 C1260,-1570 1254,-1567 1249,-1568" stroke="#036998" stroke-width="2"/>
    <path stroke-linecap="round" transform="matrix(0.33333, 0, 0, 0.33333, 0, 0)" fill="none" stroke-linejoin="round" d=
        "M1267,-1590 C1268,-1586 1266,-1580 1262,-1576 C1258,-1572 1253,-1570 1248,-1571" stroke="#036998" stroke-width="2"/>
    <path stroke-linecap="round" transform="matrix(0.33333, 0, 0, 0.33333, 0, 0)" fill="none" stroke-linejoin="round" d=
        "M1264,-1591 C1265,-1587 1263,-1582 1260,-1578 C1256,-1574 1252,-1573 1247,-1573" stroke="#036998" stroke-width="2"/>
    <path stroke-linecap="round" transform="matrix(0.33333, 0, 0, 0.33333, 0, 0)" fill="none" stroke-linejoin="round" d=
        "M1261,-1591 C1262,-1588 1261,-1584 1258,-1580 C1255,-1577 1250,-1575 1246,-1576" stroke="#036998" stroke-width="2"/>
    <path stroke-linecap="round" transform="matrix(0.33333, 0, 0, 0.33333, 0, 0)" fill="none" stroke-linejoin="round" d=
        "M1259,-1592 C1259,-1589 1258,-1585 1255,-1582 C1253,-1579 1249,-1578 1246,-1578" stroke="#036998" stroke-width="2"/>
</svg>