<?xml version="1.0" standalone="no"?>
<!DOCTYPE svg PUBLIC "-//W3C//DTD SVG 1.0//EN"
    "http://www.w3.org/TR/2001/REC-SVG-20010904/DTD/svg10.dtd">
<?xml-stylesheet type="text/css" href="..\cisco_network.css" ?>
<svg contentScriptType="text/ecmascript" zoomAndPan="magnify" xmlns:xlink="http://www.w3.org/1999/xlink" baseProfile="full"
    contentStyleType="text/css" enable-background="new" version="1.0" width="37.1906" preserveAspectRatio="none"
    viewBox="386.02 -575.01 41.984 56" height="49.6063" xmlns="http://www.w3.org/2000/svg" color-interpolation-filters="sRGB"
    x="0" y="1.5">
    <path stroke-width="2" d="M1162,-1558 L1162,-1665 L1269,-1665 L1269,-1558 L1162,-1558 Z M1282,-1571 L1282,-1679 
        L1269,-1665 L1269,-1558 L1282,-1571 Z M1181,-1722 L1162,-1709 L1269,-1709 L1282,-1722 L1181,-1722 Z M1162,-1665 
        L1162,-1709 L1269,-1709 L1269,-1665 L1162,-1665 Z M1282,-1679 L1282,-1722 L1269,-1709 L1269,-1665 L1282,-1679 Z"
        transform="matrix(0.33333, 0, 0, 0.33333, 0, 0)"/>
    <path fill="none" d="M1269,-1665 L1162,-1665" stroke-width="2" transform="matrix(0.33333, 0, 0, 0.33333, 0, 0)"/>
    <path fill="none" d="M1269,-1665 L1282,-1679" stroke-width="2" transform="matrix(0.33333, 0, 0, 0.33333, 0, 0)"/>
    <path fill="#ffffff" d="M1196,-1694 L1196,-1703 L1179,-1703 L1179,-1694 L1196,-1694 Z M1236,-1694 L1236,-1703 
        L1253,-1703 L1253,-1694 L1236,-1694 Z M1196,-1671 L1196,-1680 L1179,-1680 L1179,-1671 L1196,-1671 Z M1236,-1671 
        L1236,-1680 L1253,-1680 L1253,-1671 L1236,-1671 Z" transform="matrix(0.33333, 0, 0, 0.33333, 0, 0)" stroke="none"/>
    <path fill="none" d="M1191,-1698 L1244,-1698" stroke-width="2" transform="matrix(0.33333, 0, 0, 0.33333, 0, 0)"
        stroke="#ffffff"/>
    <path fill="none" d="M1191,-1676 L1244,-1676 M1188,-1676 L1244,-1698" stroke-width="2" transform="matrix(0.33333, 0, 0, 0.33333, 0, 0)"
        stroke="#ffffff"/>
    <path fill="none" d="M1188,-1698 L1244,-1676" stroke-width="2" transform="matrix(0.33333, 0, 0, 0.33333, 0, 0)"
        stroke="#ffffff"/>
    <path fill="#ffffff" d="M1218,-1627 L1218,-1650 L1221,-1650 L1216,-1659 L1210,-1650 L1214,-1650 L1214,-1627 
        L1218,-1627 Z M1206,-1624 L1189,-1640 L1192,-1643 L1182,-1645 L1184,-1635 L1187,-1638 L1203,-1621 L1206,-1624 Z 
        M1200,-1613 L1177,-1613 L1177,-1617 L1168,-1611 L1177,-1605 L1177,-1609 L1200,-1609 L1200,-1613 Z M1203,-1601 
        L1187,-1585 L1184,-1588 L1182,-1577 L1192,-1579 L1189,-1582 L1206,-1599 L1203,-1601 Z M1214,-1595 L1214,-1572 
        L1210,-1572 L1216,-1563 L1221,-1572 L1218,-1572 L1218,-1595 L1214,-1595 Z M1226,-1599 L1242,-1582 L1239,-1579 
        L1250,-1577 L1247,-1588 L1245,-1585 L1228,-1601 L1226,-1599 Z M1232,-1609 L1255,-1609 L1255,-1605 L1264,-1611 
        L1255,-1617 L1255,-1613 L1232,-1613 L1232,-1609 Z M1228,-1621 L1245,-1638 L1247,-1635 L1250,-1645 L1239,-1643 
        L1242,-1640 L1226,-1624 L1228,-1621 Z" transform="matrix(0.33333, 0, 0, 0.33333, 0, 0)" stroke="none"/>
    <path fill="#ffffff" d="M1230,-1592 C1241,-1599 1243,-1614 1236,-1625 C1228,-1636 1213,-1639 1202,-1631 C1191,-1623 
        1189,-1609 1196,-1598 C1204,-1587 1219,-1584 1230,-1592 Z" transform="matrix(0.33333, 0, 0, 0.33333, 0, 0)"
        stroke="none"/>
</svg>