<?xml version="1.0" standalone="no"?>
<!DOCTYPE svg PUBLIC "-//W3C//DTD SVG 1.0//EN"
    "http://www.w3.org/TR/2001/REC-SVG-20010904/DTD/svg10.dtd">
<?xml-stylesheet type="text/css" href="..\cisco_network.css" ?>
<svg contentScriptType="text/ecmascript" zoomAndPan="magnify" xmlns:xlink="http://www.w3.org/1999/xlink" baseProfile="full"
    contentStyleType="text/css" enable-background="new" version="1.0" width="43.3984" preserveAspectRatio="none"
    viewBox="384 -556.99 48.992 33.984" height="30.1039" xmlns="http://www.w3.org/2000/svg" color-interpolation-filters="sRGB"
    x="0" y="1.5">
    <path d="M1300,-1641 C1300,-1625 1267,-1612 1226,-1612 C1185,-1612 1152,-1625 1152,-1641 C1152,-1599 1152,-1599 
        1152,-1599 C1152,-1583 1185,-1570 1226,-1570 C1267,-1570 1300,-1583 1300,-1599 Z" stroke-width="2" transform="matrix(0.33333, 0, 0, 0.33333, 0, 0)"/>
    <path d="M1226,-1612 C1267,-1612 1300,-1625 1300,-1641 C1300,-1657 1267,-1670 1226,-1670 C1185,-1670 1152,-1657 
        1152,-1641 C1152,-1625 1185,-1612 1226,-1612 Z" stroke-width="2" transform="matrix(0.33333, 0, 0, 0.33333, 0, 0)"/>
    <path fill="#ffffff" d="M1209,-1652 L1215,-1643 L1192,-1638 L1197,-1642 L1162,-1648 L1171,-1655 L1205,-1649 
        L1209,-1652 Z M1242,-1630 L1237,-1639 L1258,-1644 L1255,-1640 L1289,-1634 L1281,-1628 L1246,-1634 L1242,-1630 Z 
        M1230,-1657 L1253,-1663 L1254,-1654 L1248,-1655 L1237,-1645 L1226,-1647 L1237,-1656 L1230,-1657 Z M1220,-1621 
        L1198,-1617 L1197,-1628 L1204,-1626 L1216,-1637 L1227,-1635 L1214,-1623 L1220,-1621 Z" transform="matrix(0.33333, 0, 0, 0.33333, 0, 0)"
        stroke="none"/>
</svg>