<?xml version="1.0" standalone="no"?>
<!DOCTYPE svg PUBLIC "-//W3C//DTD SVG 1.0//EN"
    "http://www.w3.org/TR/2001/REC-SVG-20010904/DTD/svg10.dtd">
<?xml-stylesheet type="text/css" href="..\cisco_network.css" ?>
<svg contentScriptType="text/ecmascript" zoomAndPan="magnify" xmlns:xlink="http://www.w3.org/1999/xlink" baseProfile="full"
    contentStyleType="text/css" enable-background="new" version="1.0" width="51.3638" preserveAspectRatio="none"
    viewBox="379.01 -591.01 57.984 88" height="77.9528" xmlns="http://www.w3.org/2000/svg" color-interpolation-filters="sRGB"
    x="0" y="1.5">
    <path d="M1175,-1614 L1140,-1614 L1140,-1511 L1175,-1511 Z" transform="matrix(0.33333, 0, 0, 0.33333, 0, 0)" stroke="none"/>
    <path fill="none" d="M1175,-1614 L1140,-1614 L1140,-1511 L1175,-1511" stroke-width="2" transform="matrix(0.33333, 0, 0, 0.33333, 0, 0)"/>
    <path stroke-width="2" d="M1175,-1511 L1194,-1530 L1194,-1633 L1159,-1633 L1140,-1614 L1175,-1614 L1175,-1511 Z"
        transform="matrix(0.33333, 0, 0, 0.33333, 0, 0)"/>
    <path fill="none" d="M1175,-1614 L1194,-1633" stroke-width="2" transform="matrix(0.33333, 0, 0, 0.33333, 0, 0)"/>
    <path d="M1245,-1742 L1175,-1742 L1175,-1511 L1245,-1511 Z" transform="matrix(0.33333, 0, 0, 0.33333, 0, 0)" stroke="none"/>
    <path fill="none" d="M1245,-1742 L1175,-1742 L1175,-1511 L1245,-1511" stroke-width="2" transform="matrix(0.33333, 0, 0, 0.33333, 0, 0)"/>
    <path stroke-width="2" d="M1245,-1511 L1274,-1540 L1274,-1771 L1203,-1771 L1175,-1742 L1245,-1742 L1245,-1511 Z"
        transform="matrix(0.33333, 0, 0, 0.33333, 0, 0)"/>
    <path fill="none" d="M1245,-1742 L1274,-1771" stroke-width="2" transform="matrix(0.33333, 0, 0, 0.33333, 0, 0)"/>
    <path fill="none" d="M1211,-1647 L1211,-1637 L1222,-1637" stroke-width="2" transform="matrix(0.33333, 0, 0, 0.33333, 0, 0)"/>
    <path fill="none" d="M1226,-1647 L1226,-1637 L1237,-1637" stroke-width="2" transform="matrix(0.33333, 0, 0, 0.33333, 0, 0)"/>
    <path d="M1181,-1647 L1181,-1636 L1192,-1636 Z" transform="matrix(0.33333, 0, 0, 0.33333, 0, 0)" stroke="none"/>
    <path fill="none" d="M1181,-1647 L1181,-1636 L1192,-1636" stroke-width="2" transform="matrix(0.33333, 0, 0, 0.33333, 0, 0)"/>
    <path d="M1196,-1647 L1196,-1636 L1207,-1636 Z" transform="matrix(0.33333, 0, 0, 0.33333, 0, 0)" stroke="none"/>
    <path fill="none" d="M1196,-1647 L1196,-1636 L1207,-1636" stroke-width="2" transform="matrix(0.33333, 0, 0, 0.33333, 0, 0)"/>
    <path d="M1211,-1625 L1211,-1614 L1222,-1614 Z" transform="matrix(0.33333, 0, 0, 0.33333, 0, 0)" stroke="none"/>
    <path fill="none" d="M1211,-1625 L1211,-1614 L1222,-1614" stroke-width="2" transform="matrix(0.33333, 0, 0, 0.33333, 0, 0)"/>
    <path d="M1226,-1625 L1226,-1614 L1237,-1614 Z" transform="matrix(0.33333, 0, 0, 0.33333, 0, 0)" stroke="none"/>
    <path fill="none" d="M1226,-1625 L1226,-1614 L1237,-1614" stroke-width="2" transform="matrix(0.33333, 0, 0, 0.33333, 0, 0)"/>
    <path d="M1181,-1625 L1181,-1614 L1192,-1614 Z" transform="matrix(0.33333, 0, 0, 0.33333, 0, 0)" stroke="none"/>
    <path fill="none" d="M1181,-1625 L1181,-1614 L1192,-1614" stroke-width="2" transform="matrix(0.33333, 0, 0, 0.33333, 0, 0)"/>
    <path d="M1196,-1625 L1196,-1614 L1207,-1614 Z" transform="matrix(0.33333, 0, 0, 0.33333, 0, 0)" stroke="none"/>
    <path fill="none" d="M1196,-1625 L1196,-1614 L1207,-1614 M1211,-1603 L1211,-1593 L1222,-1593 M1226,-1603 L1226,-1593 
        L1237,-1593 M1181,-1603 L1181,-1592 L1192,-1592 M1196,-1603 L1196,-1592 L1207,-1592 M1145,-1606 L1145,-1595 
        L1156,-1595 M1160,-1606 L1160,-1595 L1171,-1595 M1146,-1585 L1146,-1575 L1157,-1575 M1161,-1585 L1161,-1575 
        L1172,-1575 M1146,-1567 L1146,-1556 L1157,-1556 M1161,-1567 L1161,-1556 L1172,-1556" stroke-width="2" transform="matrix(0.33333, 0, 0, 0.33333, 0, 0)"/>
    <path d="M1212,-1731 L1212,-1720 L1222,-1720 Z" transform="matrix(0.33333, 0, 0, 0.33333, 0, 0)" stroke="none"/>
    <path fill="none" d="M1212,-1731 L1212,-1720 L1222,-1720" stroke-width="2" transform="matrix(0.33333, 0, 0, 0.33333, 0, 0)"/>
    <path d="M1227,-1731 L1227,-1720 L1237,-1720 Z" transform="matrix(0.33333, 0, 0, 0.33333, 0, 0)" stroke="none"/>
    <path fill="none" d="M1227,-1731 L1227,-1720 L1237,-1720" stroke-width="2" transform="matrix(0.33333, 0, 0, 0.33333, 0, 0)"/>
    <path d="M1181,-1730 L1181,-1720 L1192,-1720 Z" transform="matrix(0.33333, 0, 0, 0.33333, 0, 0)" stroke="none"/>
    <path fill="none" d="M1181,-1730 L1181,-1720 L1192,-1720" stroke-width="2" transform="matrix(0.33333, 0, 0, 0.33333, 0, 0)"/>
    <path d="M1196,-1730 L1196,-1720 L1207,-1720 Z" transform="matrix(0.33333, 0, 0, 0.33333, 0, 0)" stroke="none"/>
    <path fill="none" d="M1196,-1730 L1196,-1720 L1207,-1720" stroke-width="2" transform="matrix(0.33333, 0, 0, 0.33333, 0, 0)"/>
    <path d="M1212,-1708 L1212,-1697 L1222,-1697 Z" transform="matrix(0.33333, 0, 0, 0.33333, 0, 0)" stroke="none"/>
    <path fill="none" d="M1212,-1708 L1212,-1697 L1222,-1697" stroke-width="2" transform="matrix(0.33333, 0, 0, 0.33333, 0, 0)"/>
    <path d="M1227,-1708 L1227,-1697 L1237,-1697 Z" transform="matrix(0.33333, 0, 0, 0.33333, 0, 0)" stroke="none"/>
    <path fill="none" d="M1227,-1708 L1227,-1697 L1237,-1697" stroke-width="2" transform="matrix(0.33333, 0, 0, 0.33333, 0, 0)"/>
    <path d="M1181,-1708 L1181,-1697 L1192,-1697 Z" transform="matrix(0.33333, 0, 0, 0.33333, 0, 0)" stroke="none"/>
    <path fill="none" d="M1181,-1708 L1181,-1697 L1192,-1697" stroke-width="2" transform="matrix(0.33333, 0, 0, 0.33333, 0, 0)"/>
    <path d="M1196,-1708 L1196,-1697 L1207,-1697 Z" transform="matrix(0.33333, 0, 0, 0.33333, 0, 0)" stroke="none"/>
    <path fill="none" d="M1196,-1708 L1196,-1697 L1207,-1697" stroke-width="2" transform="matrix(0.33333, 0, 0, 0.33333, 0, 0)"/>
    <path d="M1212,-1687 L1212,-1676 L1222,-1676 Z" transform="matrix(0.33333, 0, 0, 0.33333, 0, 0)" stroke="none"/>
    <path fill="none" d="M1212,-1687 L1212,-1676 L1222,-1676" stroke-width="2" transform="matrix(0.33333, 0, 0, 0.33333, 0, 0)"/>
    <path d="M1227,-1687 L1227,-1676 L1237,-1676 Z" transform="matrix(0.33333, 0, 0, 0.33333, 0, 0)" stroke="none"/>
    <path fill="none" d="M1227,-1687 L1227,-1676 L1237,-1676" stroke-width="2" transform="matrix(0.33333, 0, 0, 0.33333, 0, 0)"/>
    <path d="M1181,-1686 L1181,-1676 L1192,-1676 Z" transform="matrix(0.33333, 0, 0, 0.33333, 0, 0)" stroke="none"/>
    <path fill="none" d="M1181,-1686 L1181,-1676 L1192,-1676" stroke-width="2" transform="matrix(0.33333, 0, 0, 0.33333, 0, 0)"/>
    <path d="M1196,-1686 L1196,-1676 L1207,-1676 Z" transform="matrix(0.33333, 0, 0, 0.33333, 0, 0)" stroke="none"/>
    <path fill="none" d="M1196,-1686 L1196,-1676 L1207,-1676" stroke-width="2" transform="matrix(0.33333, 0, 0, 0.33333, 0, 0)"/>
    <path d="M1212,-1667 L1212,-1656 L1222,-1656 Z" transform="matrix(0.33333, 0, 0, 0.33333, 0, 0)" stroke="none"/>
    <path fill="none" d="M1212,-1667 L1212,-1656 L1222,-1656" stroke-width="2" transform="matrix(0.33333, 0, 0, 0.33333, 0, 0)"/>
    <path d="M1227,-1667 L1227,-1656 L1237,-1656 Z" transform="matrix(0.33333, 0, 0, 0.33333, 0, 0)" stroke="none"/>
    <path fill="none" d="M1227,-1667 L1227,-1656 L1237,-1656" stroke-width="2" transform="matrix(0.33333, 0, 0, 0.33333, 0, 0)"/>
    <path d="M1181,-1667 L1181,-1656 L1192,-1656 Z" transform="matrix(0.33333, 0, 0, 0.33333, 0, 0)" stroke="none"/>
    <path fill="none" d="M1181,-1667 L1181,-1656 L1192,-1656" stroke-width="2" transform="matrix(0.33333, 0, 0, 0.33333, 0, 0)"/>
    <path d="M1196,-1667 L1196,-1656 L1207,-1656 Z" transform="matrix(0.33333, 0, 0, 0.33333, 0, 0)" stroke="none"/>
    <path fill="none" d="M1196,-1667 L1196,-1656 L1207,-1656" stroke-width="2" transform="matrix(0.33333, 0, 0, 0.33333, 0, 0)"/>
    <path d="M1252,-1639 L1252,-1628 Z" transform="matrix(0.33333, 0, 0, 0.33333, 0, 0)" stroke="none"/>
    <path fill="none" d="M1252,-1639 L1252,-1628" stroke-width="2" transform="matrix(0.33333, 0, 0, 0.33333, 0, 0)"/>
    <path d="M1252,-1621 L1252,-1610 Z" transform="matrix(0.33333, 0, 0, 0.33333, 0, 0)" stroke="none"/>
    <path fill="none" d="M1252,-1621 L1252,-1610" stroke-width="2" transform="matrix(0.33333, 0, 0, 0.33333, 0, 0)"/>
    <path d="M1284,-1706 L1245,-1706 L1245,-1511 L1284,-1511 Z" transform="matrix(0.33333, 0, 0, 0.33333, 0, 0)" stroke="none"/>
    <path fill="none" d="M1284,-1706 L1245,-1706 L1245,-1511 L1284,-1511" stroke-width="2" transform="matrix(0.33333, 0, 0, 0.33333, 0, 0)"/>
    <path stroke-width="2" d="M1284,-1511 L1312,-1539 L1312,-1734 L1273,-1734 L1245,-1706 L1284,-1706 L1284,-1511 Z"
        transform="matrix(0.33333, 0, 0, 0.33333, 0, 0)"/>
    <path d="M1252,-1697 L1252,-1686 L1263,-1686 Z" transform="matrix(0.33333, 0, 0, 0.33333, 0, 0)" stroke="none"/>
    <path fill="none" d="M1252,-1697 L1252,-1686 L1263,-1686" stroke-width="2" transform="matrix(0.33333, 0, 0, 0.33333, 0, 0)"/>
    <path d="M1267,-1697 L1267,-1686 L1278,-1686 Z" transform="matrix(0.33333, 0, 0, 0.33333, 0, 0)" stroke="none"/>
    <path fill="none" d="M1267,-1697 L1267,-1686 L1278,-1686" stroke-width="2" transform="matrix(0.33333, 0, 0, 0.33333, 0, 0)"/>
    <path d="M1252,-1676 L1252,-1666 L1263,-1666 Z" transform="matrix(0.33333, 0, 0, 0.33333, 0, 0)" stroke="none"/>
    <path fill="none" d="M1252,-1676 L1252,-1666 L1263,-1666" stroke-width="2" transform="matrix(0.33333, 0, 0, 0.33333, 0, 0)"/>
    <path d="M1267,-1676 L1267,-1666 L1278,-1666 Z" transform="matrix(0.33333, 0, 0, 0.33333, 0, 0)" stroke="none"/>
    <path fill="none" d="M1267,-1676 L1267,-1666 L1278,-1666" stroke-width="2" transform="matrix(0.33333, 0, 0, 0.33333, 0, 0)"/>
    <path d="M1252,-1658 L1252,-1647 L1263,-1647 Z" transform="matrix(0.33333, 0, 0, 0.33333, 0, 0)" stroke="none"/>
    <path fill="none" d="M1252,-1658 L1252,-1647 L1263,-1647" stroke-width="2" transform="matrix(0.33333, 0, 0, 0.33333, 0, 0)"/>
    <path d="M1267,-1658 L1267,-1647 L1278,-1647 Z" transform="matrix(0.33333, 0, 0, 0.33333, 0, 0)" stroke="none"/>
    <path fill="none" d="M1267,-1658 L1267,-1647 L1278,-1647" stroke-width="2" transform="matrix(0.33333, 0, 0, 0.33333, 0, 0)"/>
    <path d="M1252,-1628 L1263,-1628 Z" transform="matrix(0.33333, 0, 0, 0.33333, 0, 0)" stroke="none"/>
    <path fill="none" d="M1252,-1628 L1263,-1628" stroke-width="2" transform="matrix(0.33333, 0, 0, 0.33333, 0, 0)"/>
    <path d="M1267,-1639 L1267,-1628 L1278,-1628 Z" transform="matrix(0.33333, 0, 0, 0.33333, 0, 0)" stroke="none"/>
    <path fill="none" d="M1267,-1639 L1267,-1628 L1278,-1628 M1252,-1610 L1263,-1610" stroke-width="2" transform="matrix(0.33333, 0, 0, 0.33333, 0, 0)"/>
    <path d="M1267,-1621 L1267,-1610 L1278,-1610 Z" stroke="none"/>
    <path fill="none" stroke-width="2" d="M1267,-1621 L1267,-1610 L1278,-1610"/>
    <path fill="#ffffff" d="M1269,-1563 C1269,-1554 1251,-1547 1228,-1547 C1206,-1547 1187,-1554 1187,-1563 C1187,-1539 
        1187,-1539 1187,-1539 C1187,-1530 1206,-1523 1228,-1523 C1251,-1523 1269,-1530 1269,-1539 Z" stroke-width="2"
        transform="matrix(0.33333, 0, 0, 0.33333, 0, 0)" stroke="#126d99"/>
    <path fill="#ffffff" d="M1228,-1547 C1251,-1547 1269,-1554 1269,-1563 C1269,-1571 1251,-1578 1228,-1578 C1206,-1578 
        1187,-1571 1187,-1563 C1187,-1554 1206,-1547 1228,-1547 Z" stroke-width="2" transform="matrix(0.33333, 0, 0, 0.33333, 0, 0)"
        stroke="#126d99"/>
    <path d="M1216,-1567 L1220,-1564 L1210,-1562 L1212,-1564 L1194,-1567 L1196,-1568 L1214,-1566 L1216,-1567 Z 
        M1241,-1559 L1236,-1561 L1246,-1563 L1244,-1561 L1262,-1558 L1261,-1557 L1242,-1560 L1241,-1559 Z M1235,-1572 
        L1244,-1576 L1243,-1571 L1240,-1571 L1233,-1566 L1231,-1566 L1238,-1572 L1235,-1572 Z M1222,-1554 L1213,-1550 
        L1214,-1554 L1217,-1554 L1224,-1560 L1226,-1559 L1220,-1554 L1222,-1554 Z" stroke="none" transform="matrix(0.33333, 0, 0, 0.33333, 0, 0)"/>
    <path fill="none" d="M1284,-1706 L1312,-1734" stroke-width="2" transform="matrix(0.33333, 0, 0, 0.33333, 0, 0)"/>
</svg>