<?xml version="1.0" standalone="no"?>
<!DOCTYPE svg PUBLIC "-//W3C//DTD SVG 1.0//EN"
    "http://www.w3.org/TR/2001/REC-SVG-20010904/DTD/svg10.dtd">
<?xml-stylesheet type="text/css" href="..\cisco_network.css" ?>
<svg contentScriptType="text/ecmascript" zoomAndPan="magnify" xmlns:xlink="http://www.w3.org/1999/xlink" baseProfile="full"
    contentStyleType="text/css" enable-background="new" version="1.0" width="43.3984" preserveAspectRatio="none"
    viewBox="380 -564.99 48.992 40" height="35.4331" xmlns="http://www.w3.org/2000/svg" color-interpolation-filters="sRGB"
    x="0" y="1.5">
    <path d="M1288,-1648 C1288,-1632 1255,-1619 1214,-1619 C1173,-1619 1140,-1632 1140,-1648 C1140,-1606 1140,-1606 
        1140,-1606 C1140,-1590 1173,-1577 1214,-1577 C1255,-1577 1288,-1590 1288,-1606 Z" stroke-width="2" transform="matrix(0.33333, 0, 0, 0.33333, 0, 0)"/>
    <path d="M1214,-1619 C1255,-1619 1288,-1632 1288,-1648 C1288,-1663 1255,-1676 1214,-1676 C1173,-1676 1140,-1663 
        1140,-1648 C1140,-1632 1173,-1619 1214,-1619 Z" stroke-width="2" transform="matrix(0.33333, 0, 0, 0.33333, 0, 0)"/>
    <path d="M1214,-1638 C1254,-1638 1287,-1651 1287,-1666 C1287,-1682 1254,-1695 1214,-1695 C1174,-1695 1141,-1682 
        1141,-1666 C1141,-1651 1174,-1638 1214,-1638 Z" stroke-width="2" transform="matrix(0.33333, 0, 0, 0.33333, 0, 0)"/>
    <path d="M1287,-1666 C1287,-1651 1254,-1638 1214,-1638 C1174,-1638 1141,-1651 1141,-1666 C1141,-1646 1141,-1646 
        1141,-1646 C1141,-1630 1174,-1618 1214,-1618 C1254,-1618 1287,-1630 1287,-1646 Z" stroke-width="2" transform="matrix(0.33333, 0, 0, 0.33333, 0, 0)"/>
    <path fill="#ffffff" d="M1197,-1679 L1203,-1670 L1180,-1664 L1185,-1669 L1150,-1675 L1159,-1681 L1193,-1676 
        L1197,-1679 Z M1230,-1657 L1225,-1666 L1246,-1670 L1243,-1667 L1277,-1661 L1269,-1654 L1234,-1661 L1230,-1657 Z 
        M1218,-1684 L1241,-1690 L1242,-1680 L1236,-1681 L1225,-1672 L1214,-1673 L1225,-1683 L1218,-1684 Z M1208,-1648 
        L1186,-1644 L1185,-1654 L1192,-1653 L1204,-1663 L1215,-1661 L1202,-1650 L1208,-1648 Z" transform="matrix(0.33333, 0, 0, 0.33333, 0, 0)"
        stroke="none"/>
    <path fill="none" d="M1197,-1665 L1217,-1664 M1156,-1668 L1176,-1666 M1147,-1677 L1163,-1675 M1165,-1676 L1145,-1659 
        M1185,-1674 L1157,-1650 M1207,-1673 L1173,-1644 M1165,-1657 L1186,-1656 M1254,-1655 L1274,-1654 M1213,-1657 
        L1233,-1656 M1222,-1666 L1191,-1640 M1244,-1665 L1213,-1639 M1264,-1663 L1236,-1639 M1287,-1666 L1268,-1647 
        M1181,-1650 L1201,-1648 M1223,-1647 L1243,-1646 M1183,-1692 L1164,-1675 M1210,-1695 L1185,-1673 M1263,-1682 
        L1277,-1680 M1233,-1694 L1199,-1665 M1252,-1691 L1219,-1664 M1267,-1685 L1241,-1663 M1281,-1677 L1263,-1661 
        M1190,-1676 L1211,-1675 M1232,-1674 L1252,-1672 M1273,-1671 L1285,-1670" transform="matrix(0.33333, 0, 0, 0.33333, 0, 0)"
        stroke="#ffffff"/>
</svg>