<?xml version="1.0" standalone="no"?>
<!DOCTYPE svg PUBLIC "-//W3C//DTD SVG 1.0//EN"
    "http://www.w3.org/TR/2001/REC-SVG-20010904/DTD/svg10.dtd">
<?xml-stylesheet type="text/css" href="..\cisco_network.css" ?>
<svg contentScriptType="text/ecmascript" zoomAndPan="magnify" xmlns:xlink="http://www.w3.org/1999/xlink" baseProfile="full"
    contentStyleType="text/css" enable-background="new" version="1.0" width="45.1843" preserveAspectRatio="none"
    viewBox="383.01 -556 51.008 33.984" height="30.1039" xmlns="http://www.w3.org/2000/svg" color-interpolation-filters="sRGB"
    x="0" y="1.5">
    <path d="M1152,-1568 L1285,-1568 L1285,-1646 L1152,-1646 L1152,-1568 Z M1301,-1591 L1285,-1568 L1285,-1646 
        L1301,-1665 L1301,-1591 Z M1176,-1665 L1301,-1665 L1285,-1646 L1152,-1646 L1176,-1665 Z" stroke-width="2"
        transform="matrix(0.33333, 0, 0, 0.33333, 0, 0)"/>
    <text font-size="28" transform="matrix(0.33333, 0, 0, 0.33333, 396.72, -538.43)" fill="#ffffff" font-family="'Helvetica'"
        font-style="normal" stroke="none" font-weight="700" stroke-width="2" xml:space="preserve">RPS</text>
    <path fill="#ffffff" d="M1218,-1591 C1218,-1591 1235,-1592 1235,-1592 C1235,-1592 1214,-1600 1210,-1602 C1210,-1602 
        1229,-1602 1229,-1602 C1171,-1618 1171,-1618 1171,-1618 C1209,-1604 1209,-1604 1209,-1604 C1209,-1604 1195,-1603 
        1195,-1603 C1195,-1603 1210,-1596 1213,-1595 C1213,-1595 1201,-1591 1201,-1591 C1269,-1572 1269,-1572 1269,-1572 
        Z" transform="matrix(0.33333, 0, 0, 0.33333, 0, 0)" stroke="none"/>
</svg>