<?xml version="1.0" standalone="no"?>
<!DOCTYPE svg PUBLIC "-//W3C//DTD SVG 1.0//EN"
    "http://www.w3.org/TR/2001/REC-SVG-20010904/DTD/svg10.dtd">
<?xml-stylesheet type="text/css" href="..\cisco_network.css" ?>
<svg contentScriptType="text/ecmascript" zoomAndPan="magnify" xmlns:xlink="http://www.w3.org/1999/xlink" baseProfile="full"
    contentStyleType="text/css" enable-background="new" version="1.0" width="46.063" preserveAspectRatio="none" viewBox="386.02 -576 52 59.008"
    height="52.2709" xmlns="http://www.w3.org/2000/svg" color-interpolation-filters="sRGB" x="0" y="1.5">
    <path d="M1277,-1716 L1267,-1720 L1254,-1710 L1262,-1702 L1263,-1703 L1265,-1701 L1267,-1701 L1268,-1703 L1269,-1703 
        L1269,-1705 L1270,-1704 L1271,-1706 L1273,-1705 L1274,-1706 L1274,-1711 L1276,-1712 L1277,-1716 Z" stroke="none"
        transform="matrix(0.33333, 0, 0, 0.33333, 0, 0)"/>
    <path fill="none" d="M1277,-1716 L1267,-1720 L1254,-1710 L1262,-1702 L1263,-1703 L1265,-1701 L1267,-1701 L1268,-1703 
        L1269,-1703 L1269,-1705 L1270,-1704 L1271,-1706 L1273,-1705 L1274,-1706 L1274,-1711 L1276,-1712 L1277,-1716"
        transform="matrix(0.33333, 0, 0, 0.33333, 0, 0)" stroke="none"/>
    <path d="M1278,-1642 L1282,-1647 L1284,-1646 L1291,-1644 L1293,-1638 L1290,-1638 L1289,-1635 L1287,-1636 L1285,-1633 
        L1284,-1636 L1282,-1636 L1280,-1641 L1278,-1642 Z M1191,-1668 L1187,-1666 L1186,-1664 L1180,-1659 L1181,-1658 
        L1186,-1661 L1181,-1656 L1182,-1655 L1187,-1658 L1183,-1652 L1184,-1651 L1188,-1656 L1187,-1651 L1189,-1651 
        L1192,-1658 L1193,-1658 L1195,-1654 L1197,-1654 L1195,-1660 L1196,-1665 L1191,-1668 Z M1282,-1635 L1283,-1635 
        L1283,-1633 L1282,-1629 L1280,-1631 L1280,-1633 L1282,-1635 Z M1293,-1641 L1296,-1639 L1296,-1636 L1294,-1635 
        L1294,-1638 L1293,-1641 Z M1305,-1638 L1269,-1626 L1276,-1601 L1282,-1596 L1315,-1609 L1311,-1635 L1305,-1638 Z 
        M1280,-1564 L1276,-1560 L1270,-1561 L1269,-1556 L1270,-1552 L1278,-1552 L1280,-1553 L1285,-1552 L1295,-1552 
        L1298,-1553 L1297,-1556 L1287,-1558 L1282,-1562 L1280,-1564 Z M1174,-1584 L1171,-1589 L1173,-1595 L1169,-1597 
        L1164,-1597 L1162,-1589 L1163,-1587 L1160,-1583 L1158,-1573 L1159,-1569 L1162,-1570 L1166,-1579 L1171,-1584 
        L1174,-1584 Z M1213,-1641 L1208,-1645 L1218,-1662 L1222,-1687 L1212,-1681 L1203,-1665 L1192,-1671 L1203,-1693 
        L1229,-1709 L1250,-1708 L1262,-1699 L1272,-1685 L1268,-1681 L1267,-1662 L1282,-1649 L1272,-1641 L1255,-1656 
        L1255,-1637 Z" stroke="none" transform="matrix(0.33333, 0, 0, 0.33333, 0, 0)"/>
    <path fill="none" d="M1213,-1641 L1208,-1645 L1218,-1662 L1222,-1687 L1212,-1681 L1203,-1665 L1192,-1671 L1203,-1693 
        L1229,-1709 L1250,-1708 L1262,-1699 L1272,-1685 L1268,-1681 L1267,-1662 L1282,-1649 L1272,-1641 L1255,-1656 
        L1255,-1637" transform="matrix(0.33333, 0, 0, 0.33333, 0, 0)" stroke="none"/>
    <path d="M1255,-1637 L1271,-1610 L1285,-1570 L1268,-1565 L1255,-1601 L1235,-1630 L1224,-1599 L1183,-1582 L1176,-1596 
        L1207,-1608 L1208,-1612 L1211,-1612 L1215,-1634 L1213,-1641 L1255,-1637 Z" stroke="none" transform="matrix(0.33333, 0, 0, 0.33333, 0, 0)"/>
    <path d="M1212,-1642 L1240,-1633 L1253,-1639 Z" stroke="none" transform="matrix(0.33333, 0, 0, 0.33333, 0, 0)"/>
    <path fill="none" d="M1212,-1642 L1240,-1633 L1253,-1639" transform="matrix(0.33333, 0, 0, 0.33333, 0, 0)" stroke="none"/>
    <path d="M1277,-1716 L1280,-1716 L1278,-1721 L1269,-1727 L1263,-1727 L1258,-1724 L1254,-1710 L1258,-1714 L1263,-1716 
        L1264,-1715 L1267,-1713 L1269,-1718 L1277,-1716 Z" stroke="none" transform="matrix(0.33333, 0, 0, 0.33333, 0, 0)"/>
    <path fill="none" d="M1277,-1716 L1280,-1716 L1278,-1721 L1269,-1727 L1263,-1727 L1258,-1724 L1254,-1710 L1258,-1714 
        L1263,-1716 L1264,-1715 L1267,-1713 L1269,-1718 L1277,-1716" transform="matrix(0.33333, 0, 0, 0.33333, 0, 0)"
        stroke="none"/>
</svg>