<?xml version="1.0" standalone="no"?>
<!DOCTYPE svg PUBLIC "-//W3C//DTD SVG 1.0//EN"
    "http://www.w3.org/TR/2001/REC-SVG-20010904/DTD/svg10.dtd">
<?xml-stylesheet type="text/css" href="..\cisco_network.css" ?>
<svg contentScriptType="text/ecmascript" zoomAndPan="magnify" xmlns:xlink="http://www.w3.org/1999/xlink" baseProfile="full"
    contentStyleType="text/css" enable-background="new" version="1.0" width="75.2882" preserveAspectRatio="none"
    viewBox="366.02 -555.01 84.992 28.992" height="25.6819" xmlns="http://www.w3.org/2000/svg"
    color-interpolation-filters="sRGB" x="0" y="1.5">
    <path d="M1354,-1657 L1354,-1652 L1300,-1632 L1276,-1636 L1261,-1639 L1251,-1641 L1251,-1648 Z" stroke="none"
        transform="matrix(0.33333, 0, 0, 0.33333, 0, 0)"/>
    <path fill="none" d="M1354,-1657 L1354,-1652 L1300,-1632 L1276,-1636 L1261,-1639 L1251,-1641 L1251,-1648"
        stroke-width="2" transform="matrix(0.33333, 0, 0, 0.33333, 0, 0)"/>
    <path d="M1228,-1579 C1235,-1579 1241,-1581 1241,-1584 C1241,-1587 1235,-1590 1228,-1590 C1221,-1590 1216,-1587 
        1216,-1584 C1216,-1581 1221,-1579 1228,-1579 Z" stroke-width="2" transform="matrix(0.33333, 0, 0, 0.33333, 0, 0)"/>
    <path d="M1277,-1643 L1300,-1639 L1354,-1657 L1307,-1664 L1251,-1648 L1267,-1645 Z" stroke="none" transform="matrix(0.33333, 0, 0, 0.33333, 0, 0)"/>
    <path fill="none" d="M1277,-1643 L1300,-1639 L1354,-1657 L1307,-1664 L1251,-1648 L1267,-1645" stroke-width="2"
        transform="matrix(0.33333, 0, 0, 0.33333, 0, 0)"/>
    <path d="M1273,-1642 C1290,-1646 1293,-1650 1293,-1650 C1288,-1653 1268,-1645 1268,-1645 C1264,-1644 1264,-1644 
        1264,-1644 Z" stroke-width="2" transform="matrix(0.33333, 0, 0, 0.33333, 0, 0)"/>
    <path d="M1267,-1645 C1251,-1648 1251,-1648 1251,-1648 C1307,-1664 1307,-1664 1307,-1664 C1354,-1657 1354,-1657 
        1354,-1657 C1300,-1639 1300,-1639 1300,-1639 C1277,-1642 1277,-1642 1277,-1642 C1290,-1646 1293,-1650 1293,-1650 
        C1288,-1653 1270,-1646 1270,-1646 C1270,-1646 1270,-1646 1270,-1646 C1254,-1641 1254,-1641 1254,-1641 
        C1254,-1632 1254,-1632 1254,-1632 C1275,-1639 1275,-1639 1275,-1639 C1275,-1639 1275,-1639 1275,-1639 
        C1275,-1639 1276,-1642 1276,-1642" stroke-width="2" transform="matrix(0.33333, 0, 0, 0.33333, 0, 0)"/>
    <path d="M1267,-1645 C1251,-1648 1251,-1648 1251,-1648 C1307,-1664 1307,-1664 1307,-1664 C1354,-1657 1354,-1657 
        1354,-1657 C1300,-1639 1300,-1639 1300,-1639 C1277,-1642 1277,-1642 1277,-1642 C1290,-1646 1293,-1650 1293,-1650 
        C1288,-1653 1270,-1646 1270,-1646 C1270,-1646 1270,-1646 1270,-1646 C1254,-1641 1254,-1641 1254,-1641 
        C1254,-1632 1254,-1632 1254,-1632 C1275,-1639 1275,-1639 1275,-1639 C1275,-1639 1275,-1639 1275,-1639 
        C1275,-1639 1276,-1642 1276,-1642" stroke-width="2" transform="matrix(0.33333, 0, 0, 0.33333, 0, 0)"/>
    <path d="M1275,-1643 C1275,-1642 1275,-1643 1275,-1643 C1275,-1643 1275,-1643 1275,-1643 C1275,-1644 1275,-1643 
        1275,-1643 C1275,-1643 1275,-1643 1275,-1643 Z" stroke-width="2" transform="matrix(0.33333, 0, 0, 0.33333, 0, 0)"/>
    <path d="M1203,-1663 C1203,-1596 1203,-1596 1203,-1596 C1203,-1590 1214,-1585 1228,-1585 C1242,-1585 1254,-1590 
        1254,-1596 C1254,-1664 1254,-1664 1254,-1664" stroke-width="2" transform="matrix(0.33333, 0, 0, 0.33333, 0, 0)"/>
    <path d="M1203,-1663 C1203,-1596 1203,-1596 1203,-1596 C1203,-1590 1214,-1585 1228,-1585 C1242,-1585 1254,-1590 
        1254,-1596 C1254,-1664 1254,-1664 1254,-1664" stroke-width="2" transform="matrix(0.33333, 0, 0, 0.33333, 0, 0)"/>
    <path d="M1206,-1610 L1206,-1604 L1150,-1584 L1100,-1596 L1100,-1603 Z" stroke="none" transform="matrix(0.33333, 0, 0, 0.33333, 0, 0)"/>
    <path fill="none" d="M1206,-1610 L1206,-1604 L1150,-1584 L1100,-1596 L1100,-1603" stroke-width="2" transform="matrix(0.33333, 0, 0, 0.33333, 0, 0)"/>
    <path d="M1188,-1613 L1206,-1610 L1150,-1592 L1100,-1603 L1159,-1620 L1172,-1617 Z" stroke="none" transform="matrix(0.33333, 0, 0, 0.33333, 0, 0)"/>
    <path fill="none" d="M1188,-1613 L1206,-1610 L1150,-1592 L1100,-1603 L1159,-1620 L1172,-1617" stroke-width="2"
        transform="matrix(0.33333, 0, 0, 0.33333, 0, 0)"/>
    <path d="M1172,-1618 C1160,-1614 1155,-1608 1155,-1608 C1174,-1608 1187,-1613 1187,-1613" stroke-width="2"
        transform="matrix(0.33333, 0, 0, 0.33333, 0, 0)"/>
    <path d="M1172,-1618 C1160,-1614 1155,-1608 1155,-1608 C1174,-1608 1187,-1613 1187,-1613" stroke-width="2"
        transform="matrix(0.33333, 0, 0, 0.33333, 0, 0)"/>
    <path d="M1171,-1617 C1212,-1629 1212,-1629 1212,-1629 C1218,-1629 1218,-1624 1218,-1624 C1218,-1621 1213,-1620 
        1213,-1620 C1186,-1613 1186,-1613 1186,-1613" stroke-width="2" transform="matrix(0.33333, 0, 0, 0.33333, 0, 0)"/>
    <path d="M1171,-1617 C1212,-1629 1212,-1629 1212,-1629 C1218,-1629 1218,-1624 1218,-1624 C1218,-1621 1213,-1620 
        1213,-1620 C1186,-1613 1186,-1613 1186,-1613" stroke-width="2" transform="matrix(0.33333, 0, 0, 0.33333, 0, 0)"/>
    <path d="M1186,-1613 C1186,-1613 1186,-1613 1186,-1613 C1186,-1613 1186,-1613 1186,-1613 C1185,-1613 1185,-1613 
        1185,-1613 C1185,-1613 1185,-1613 1186,-1613 Z" stroke-width="2" transform="matrix(0.33333, 0, 0, 0.33333, 0, 0)"/>
</svg>