<?xml version="1.0" standalone="no"?>
<!DOCTYPE svg PUBLIC "-//W3C//DTD SVG 1.0//EN"
    "http://www.w3.org/TR/2001/REC-SVG-20010904/DTD/svg10.dtd">
<?xml-stylesheet type="text/css" href="..\cisco_network.css" ?>
<svg contentScriptType="text/ecmascript" zoomAndPan="magnify" xmlns:xlink="http://www.w3.org/1999/xlink" baseProfile="full"
    contentStyleType="text/css" enable-background="new" version="1.0" width="55.7858" preserveAspectRatio="none"
    viewBox="374.02 -571.01 62.976 46.016" height="40.7622" xmlns="http://www.w3.org/2000/svg"
    color-interpolation-filters="sRGB" x="0" y="1.5">
    <path fill="#ffffff" d="M1217,-1644 C1268,-1644 1310,-1652 1310,-1662 C1310,-1671 1268,-1679 1217,-1679 C1165,-1679 
        1123,-1671 1123,-1662 C1123,-1652 1165,-1644 1217,-1644 Z" transform="matrix(0.33333, 0, 0, 0.33333, 0, 0)"
        stroke="#000000"/>
    <path d="M1217,-1613 C1269,-1613 1310,-1652 1310,-1662 C1310,-1671 1268,-1679 1217,-1679 C1165,-1679 1123,-1671 
        1123,-1662 C1123,-1652 1166,-1613 1217,-1613 Z" stroke="none" transform="matrix(0.33333, 0, 0, 0.33333, 0, 0)"/>
    <path fill="#ffffff" d="M1217,-1644 C1268,-1644 1310,-1652 1310,-1662 C1310,-1671 1268,-1679 1217,-1679 C1165,-1679 
        1123,-1671 1123,-1662 C1123,-1652 1165,-1644 1217,-1644 Z" stroke-width="2" transform="matrix(0.33333, 0, 0, 0.33333, 0, 0)"
        stroke="#126d99"/>
    <path fill="none" d="M1192,-1675 C1178,-1674 1165,-1672 1154,-1670" stroke-width="2" transform="matrix(0.33333, 0, 0, 0.33333, 0, 0)"
        stroke="#0e6a98"/>
    <path fill="none" d="M1193,-1671 C1179,-1670 1167,-1668 1157,-1666" stroke-width="2" transform="matrix(0.33333, 0, 0, 0.33333, 0, 0)"
        stroke="#0e6a98"/>
    <path fill="none" d="M1194,-1667 C1180,-1666 1168,-1664 1160,-1661" stroke-width="2" transform="matrix(0.33333, 0, 0, 0.33333, 0, 0)"
        stroke="#0e6a98"/>
    <path fill="none" d="M1196,-1662 C1183,-1661 1171,-1659 1163,-1656" stroke-width="2" transform="matrix(0.33333, 0, 0, 0.33333, 0, 0)"
        stroke="#0e6a98"/>
    <path fill="none" d="M1197,-1658 C1184,-1657 1174,-1654 1166,-1651" stroke-width="2" transform="matrix(0.33333, 0, 0, 0.33333, 0, 0)"
        stroke="#0e6a98"/>
    <path fill="none" d="M1199,-1653 C1189,-1652 1180,-1650 1174,-1647" stroke-width="2" transform="matrix(0.33333, 0, 0, 0.33333, 0, 0)"
        stroke="#0e6a98"/>
    <path fill="none" d="M1200,-1648 C1196,-1648 1192,-1647 1188,-1646" stroke-width="2" transform="matrix(0.33333, 0, 0, 0.33333, 0, 0)"
        stroke="#0e6a98"/>
    <path fill="none" d="M1123,-1660 L1217,-1707 L1310,-1662" stroke-width="2" transform="matrix(0.33333, 0, 0, 0.33333, 0, 0)"
        stroke="#126d99"/>
    <path d="M1218,-1695 C1221,-1695 1224,-1696 1224,-1698 C1224,-1700 1221,-1701 1218,-1701 C1214,-1701 1211,-1700 
        1211,-1698 C1211,-1696 1214,-1695 1218,-1695 Z" stroke="none" transform="matrix(0.33333, 0, 0, 0.33333, 0, 0)"/>
    <path d="M1218,-1714 L1216,-1648 L1220,-1648 L1218,-1714 Z M1242,-1602 L1242,-1612 L1197,-1612 L1197,-1602 
        L1242,-1602 Z" transform="matrix(0.33333, 0, 0, 0.33333, 0, 0)" stroke="none"/>
    <path d="M1206,-1603 C1234,-1603 1234,-1603 1234,-1603 C1234,-1584 1234,-1584 1234,-1584 C1234,-1584 1205,-1575 
        1206,-1575 C1206,-1575 1206,-1603 1206,-1603 Z" transform="matrix(0.33333, 0, 0, 0.33333, 0, 0)" stroke="none"/>
</svg>