<?xml version="1.0" standalone="no"?>
<!DOCTYPE svg PUBLIC "-//W3C//DTD SVG 1.0//EN"
    "http://www.w3.org/TR/2001/REC-SVG-20010904/DTD/svg10.dtd">
<?xml-stylesheet type="text/css" href="..\cisco_network.css" ?>
<svg contentScriptType="text/ecmascript" zoomAndPan="magnify" xmlns:xlink="http://www.w3.org/1999/xlink" baseProfile="full"
    contentStyleType="text/css" enable-background="new" version="1.0" width="45.1843" preserveAspectRatio="none"
    viewBox="392 -564 51.008 48.992" height="43.3984" xmlns="http://www.w3.org/2000/svg" color-interpolation-filters="sRGB"
    x="0" y="1.5">
    <path d="M1227,-1634 L1309,-1634 L1321,-1690 L1243,-1690 L1227,-1634 L1227,-1634 Z" stroke-width="2" transform="matrix(0.33333, 0, 0, 0.33333, 0, 0)"/>
    <path d="M1227,-1634 L1236,-1618 L1318,-1618 L1309,-1634 L1227,-1634 L1227,-1634 Z" stroke-width="2" transform="matrix(0.33333, 0, 0, 0.33333, 0, 0)"/>
    <path d="M1321,-1690 L1329,-1675 L1318,-1618 L1309,-1634 L1321,-1690 L1321,-1690 Z" stroke-width="2" transform="matrix(0.33333, 0, 0, 0.33333, 0, 0)"/>
    <path d="M1178,-1564 L1241,-1564 L1300,-1633 L1241,-1633 L1178,-1564 L1178,-1564 Z" stroke-width="2" transform="matrix(0.33333, 0, 0, 0.33333, 0, 0)"/>
    <path d="M1178,-1564 L1186,-1548 L1249,-1548 L1241,-1564 L1178,-1564 L1178,-1564 Z" stroke-width="2" transform="matrix(0.33333, 0, 0, 0.33333, 0, 0)"/>
    <path d="M1300,-1633 L1308,-1617 L1249,-1548 L1241,-1564 L1300,-1633 L1300,-1633 Z" stroke-width="2" transform="matrix(0.33333, 0, 0, 0.33333, 0, 0)"/>
    <path fill="#ffffff" d="M1239,-1626 L1245,-1626 L1241,-1622 L1235,-1622 L1239,-1626 L1239,-1626 Z M1229,-1611 
        L1237,-1613 L1232,-1608 L1228,-1611 Z" transform="matrix(0.33333, 0, 0, 0.33333, 0, 0)" stroke="none"/>
    <path fill="none" d="M1229,-1611 L1237,-1613 L1232,-1608 L1228,-1611" transform="matrix(0.33333, 0, 0, 0.33333, 0, 0)"
        stroke="none"/>
    <path fill="#ffffff" d="M1250,-1626 L1257,-1626 L1252,-1622 L1246,-1622 L1250,-1626 L1250,-1626 Z M1261,-1626 
        L1268,-1626 L1264,-1622 L1257,-1622 L1261,-1626 L1261,-1626 Z M1273,-1626 L1279,-1626 L1276,-1622 L1269,-1622 
        L1273,-1626 L1273,-1626 Z M1226,-1599 L1233,-1599 L1228,-1594 L1222,-1594 L1226,-1599 L1226,-1599 Z M1238,-1599 
        L1244,-1599 L1240,-1594 L1233,-1594 L1238,-1599 L1238,-1599 Z M1249,-1599 L1255,-1599 L1252,-1594 L1245,-1594 
        L1249,-1599 L1249,-1599 Z M1214,-1586 L1220,-1586 L1216,-1581 L1210,-1581 L1214,-1586 L1214,-1586 Z M1225,-1586 
        L1231,-1586 L1228,-1581 L1221,-1581 L1225,-1586 L1225,-1586 Z M1236,-1586 L1243,-1586 L1239,-1581 L1233,-1581 
        L1236,-1586 L1236,-1586 Z M1285,-1626 L1291,-1626 L1287,-1622 L1280,-1622 L1285,-1626 L1285,-1626 Z M1269,-1612 
        L1273,-1610 L1273,-1610 L1265,-1608 L1269,-1612 L1269,-1612 Z" transform="matrix(0.33333, 0, 0, 0.33333, 0, 0)"
        stroke="none"/>
    <path fill="#ffffff" d="M1258,-1611 C1257,-1609 1252,-1607 1247,-1607 C1243,-1607 1240,-1609 1241,-1611 C1242,-1613 
        1247,-1615 1252,-1615 C1257,-1615 1259,-1613 1258,-1611 Z" transform="matrix(0.33333, 0, 0, 0.33333, 0, 0)"
        stroke="none"/>
    <path d="M1297,-1646 C1296,-1644 1293,-1642 1291,-1642 C1248,-1642 1248,-1642 1248,-1642 C1245,-1642 1244,-1644 
        1244,-1646 C1253,-1678 1253,-1678 1253,-1678 C1253,-1680 1256,-1682 1259,-1682 C1302,-1682 1302,-1682 1302,-1682 
        C1304,-1682 1306,-1680 1305,-1678 Z" stroke-width="2" transform="matrix(0.33333, 0, 0, 0.33333, 0, 0)"/>
</svg>