<?xml version="1.0" standalone="no"?>
<!DOCTYPE svg PUBLIC "-//W3C//DTD SVG 1.0//EN"
    "http://www.w3.org/TR/2001/REC-SVG-20010904/DTD/svg10.dtd">
<?xml-stylesheet type="text/css" href="..\cisco_network.css" ?>
<svg contentScriptType="text/ecmascript" zoomAndPan="magnify" xmlns:xlink="http://www.w3.org/1999/xlink" baseProfile="full"
    contentStyleType="text/css" enable-background="new" version="1.0" width="30.1039" preserveAspectRatio="none"
    viewBox="383.01 -554.02 33.984 42.016" height="37.2189" xmlns="http://www.w3.org/2000/svg"
    color-interpolation-filters="sRGB" x="0" y="1.5">
    <path d="M1250,-1662 L1239,-1649 L1152,-1649 L1166,-1662 L1250,-1662 Z M1239,-1649 L1239,-1606 L1250,-1618 
        L1250,-1661 L1239,-1649 Z" stroke-width="2" transform="matrix(0.33333, 0, 0, 0.33333, 0, 0)"/>
    <path d="M1239,-1538 L1239,-1607 L1152,-1607 L1152,-1538 Z" stroke="none" transform="matrix(0.33333, 0, 0, 0.33333, 0, 0)"/>
    <path fill="none" d="M1239,-1538 L1239,-1607 L1152,-1607 L1152,-1538" stroke-width="2" transform="matrix(0.33333, 0, 0, 0.33333, 0, 0)"/>
    <path d="M1152,-1649 L1152,-1607 L1239,-1607 L1239,-1649 L1152,-1649 Z M1250,-1549 L1250,-1618 L1239,-1606 
        L1239,-1538 L1250,-1549 Z" stroke-width="2" transform="matrix(0.33333, 0, 0, 0.33333, 0, 0)"/>
    <path fill="#ffffff" d="M1197,-1564 L1197,-1549 L1199,-1549 L1195,-1544 L1192,-1549 L1194,-1549 L1194,-1564 
        L1197,-1564 Z M1189,-1566 L1178,-1556 L1180,-1554 L1173,-1553 L1175,-1559 L1176,-1558 L1187,-1568 L1189,-1566 Z 
        M1185,-1573 L1170,-1573 L1170,-1571 L1164,-1575 L1170,-1578 L1170,-1576 L1185,-1576 L1185,-1573 Z M1187,-1581 
        L1176,-1592 L1175,-1590 L1173,-1597 L1180,-1595 L1178,-1593 L1189,-1583 L1187,-1581 Z M1194,-1580 L1194,-1609 
        L1192,-1609 L1195,-1614 L1199,-1609 L1197,-1609 L1197,-1580 L1194,-1580 Z M1202,-1583 L1212,-1593 L1211,-1595 
        L1217,-1597 L1216,-1590 L1214,-1592 L1203,-1581 L1202,-1583 Z M1206,-1576 L1221,-1576 L1221,-1578 L1226,-1575 
        L1221,-1571 L1221,-1573 L1206,-1573 L1206,-1576 Z M1203,-1568 L1214,-1558 L1216,-1559 L1217,-1553 L1211,-1554 
        L1212,-1556 L1202,-1566 L1203,-1568 Z" transform="matrix(0.33333, 0, 0, 0.33333, 0, 0)" stroke="none"/>
    <path fill="#ffffff" d="M1204,-1587 C1212,-1582 1213,-1573 1208,-1566 C1203,-1558 1194,-1557 1187,-1562 C1180,-1567 
        1178,-1576 1183,-1583 C1188,-1590 1197,-1592 1204,-1587 Z" transform="matrix(0.33333, 0, 0, 0.33333, 0, 0)"
        stroke="none"/>
    <path fill="#ffffff" d="M1194,-1635 L1217,-1635 L1217,-1638 L1225,-1633 L1217,-1629 L1217,-1631 L1194,-1631 
        L1194,-1635 Z M1194,-1621 L1217,-1621 L1217,-1624 L1225,-1619 L1217,-1614 L1217,-1617 L1194,-1617 L1194,-1621 Z 
        M1195,-1642 L1172,-1642 L1172,-1645 L1165,-1640 L1172,-1635 L1172,-1638 L1195,-1638 L1195,-1642 Z M1195,-1628 
        L1172,-1628 L1172,-1630 L1165,-1626 L1172,-1621 L1172,-1623 L1195,-1623 L1195,-1628 Z" transform="matrix(0.33333, 0, 0, 0.33333, 0, 0)"
        stroke="none"/>
    <path fill="none" d="M1238,-1538 L1152,-1538 M1250,-1661 L1239,-1649 M1238,-1607 L1152,-1607 M1249,-1617 
        L1239,-1607" stroke-width="2" transform="matrix(0.33333, 0, 0, 0.33333, 0, 0)" stroke-linecap="round"
        stroke-linejoin="round"/>
</svg>