<?xml version="1.0" standalone="no"?>
<!DOCTYPE svg PUBLIC "-//W3C//DTD SVG 1.0//EN"
    "http://www.w3.org/TR/2001/REC-SVG-20010904/DTD/svg10.dtd">
<?xml-stylesheet type="text/css" href="..\cisco_network.css" ?>
<svg contentScriptType="text/ecmascript" zoomAndPan="magnify" xmlns:xlink="http://www.w3.org/1999/xlink" baseProfile="full"
    contentStyleType="text/css" enable-background="new" version="1.0" width="31.8898" preserveAspectRatio="none"
    viewBox="383.01 -550.02 36 35.008" height="31.011" xmlns="http://www.w3.org/2000/svg" color-interpolation-filters="sRGB"
    x="0" y="1.5">
    <path d="M1244,-1639 L1151,-1639 L1162,-1648 L1255,-1648 L1244,-1639 Z" stroke="none" transform="matrix(0.33333, 0, 0, 0.33333, 0, 0)"/>
    <path d="M1256,-1554 L1244,-1545 L1244,-1639 L1256,-1648 L1256,-1554 Z M1244,-1545 L1151,-1545 L1151,-1639 
        L1244,-1639 L1244,-1545 Z" stroke-width="2" transform="matrix(0.33333, 0, 0, 0.33333, 0, 0)"/>
    <path fill="#000000" d="M1198,-1594 C1198,-1594 1197,-1593 1197,-1593 C1184,-1593 1184,-1593 1184,-1593 C1184,-1593 
        1183,-1594 1183,-1594 C1183,-1607 1183,-1607 1183,-1607 C1183,-1608 1184,-1608 1184,-1608 C1197,-1608 1197,-1608 
        1197,-1608 C1197,-1608 1198,-1608 1198,-1607 Z" transform="matrix(0.33333, 0, 0, 0.33333, 0, 0)" stroke="none"/>
    <path fill="#000000" d="M1215,-1594 C1215,-1594 1215,-1594 1214,-1594 C1205,-1594 1205,-1594 1205,-1594 C1204,-1594 
        1204,-1594 1204,-1594 C1204,-1604 1204,-1604 1204,-1604 C1204,-1604 1204,-1604 1205,-1604 C1214,-1604 1214,-1604 
        1214,-1604 C1215,-1604 1215,-1604 1215,-1604 Z" transform="matrix(0.33333, 0, 0, 0.33333, 0, 0)" stroke="none"/>
    <path fill="#000000" d="M1194,-1579 C1194,-1579 1194,-1578 1194,-1578 C1184,-1578 1184,-1578 1184,-1578 C1184,-1578 
        1184,-1579 1184,-1579 C1184,-1588 1184,-1588 1184,-1588 C1184,-1589 1184,-1589 1184,-1589 C1194,-1589 1194,-1589 
        1194,-1589 C1194,-1589 1194,-1589 1194,-1588 Z" transform="matrix(0.33333, 0, 0, 0.33333, 0, 0)" stroke="none"/>
    <path fill="#000000" d="M1213,-1576 C1213,-1576 1213,-1576 1213,-1576 C1201,-1576 1201,-1576 1201,-1576 C1201,-1576 
        1201,-1576 1201,-1576 C1201,-1588 1201,-1588 1201,-1588 C1201,-1588 1201,-1589 1201,-1589 C1213,-1589 1213,-1589 
        1213,-1589 C1213,-1589 1213,-1588 1213,-1588 Z" transform="matrix(0.33333, 0, 0, 0.33333, 0, 0)" stroke="none"/>
    <path fill="#000000" d="M1186,-1622 L1168,-1622 L1168,-1581 L1177,-1581 L1177,-1613 L1186,-1613 L1186,-1622 Z 
        M1199,-1622 L1199,-1613 L1221,-1613 L1221,-1589 L1230,-1589 L1230,-1622 L1199,-1622 Z M1221,-1577 L1221,-1569 
        L1168,-1569 L1168,-1560 L1230,-1560 L1230,-1577 L1221,-1577 Z" transform="matrix(0.33333, 0, 0, 0.33333, 0, 0)"
        stroke="none"/>
    <path fill="#ffffff" d="M1196,-1595 C1196,-1595 1196,-1595 1196,-1595 C1183,-1595 1183,-1595 1183,-1595 C1182,-1595 
        1182,-1595 1182,-1595 C1182,-1609 1182,-1609 1182,-1609 C1182,-1609 1182,-1609 1183,-1609 C1196,-1609 1196,-1609 
        1196,-1609 C1196,-1609 1196,-1609 1196,-1609 Z" transform="matrix(0.33333, 0, 0, 0.33333, 0, 0)" stroke="none"/>
    <path fill="#ffffff" d="M1213,-1595 C1213,-1595 1213,-1595 1213,-1595 C1203,-1595 1203,-1595 1203,-1595 C1203,-1595 
        1203,-1595 1203,-1595 C1203,-1605 1203,-1605 1203,-1605 C1203,-1605 1203,-1605 1203,-1605 C1213,-1605 1213,-1605 
        1213,-1605 C1213,-1605 1213,-1605 1213,-1605 Z" transform="matrix(0.33333, 0, 0, 0.33333, 0, 0)" stroke="none"/>
    <path fill="#ffffff" d="M1193,-1580 C1193,-1580 1193,-1580 1193,-1580 C1183,-1580 1183,-1580 1183,-1580 C1183,-1580 
        1183,-1580 1183,-1580 C1183,-1590 1183,-1590 1183,-1590 C1183,-1590 1183,-1590 1183,-1590 C1193,-1590 1193,-1590 
        1193,-1590 C1193,-1590 1193,-1590 1193,-1590 Z" transform="matrix(0.33333, 0, 0, 0.33333, 0, 0)" stroke="none"/>
    <path fill="#ffffff" d="M1212,-1578 C1212,-1577 1212,-1577 1212,-1577 C1200,-1577 1200,-1577 1200,-1577 C1200,-1577 
        1199,-1577 1199,-1578 C1199,-1589 1199,-1589 1199,-1589 C1199,-1590 1200,-1590 1200,-1590 C1212,-1590 1212,-1590 
        1212,-1590 C1212,-1590 1212,-1590 1212,-1589 Z" transform="matrix(0.33333, 0, 0, 0.33333, 0, 0)" stroke="none"/>
    <path fill="#000000" d="M1207,-1585 C1207,-1584 1207,-1584 1207,-1584 C1192,-1584 1192,-1584 1192,-1584 C1192,-1584 
        1191,-1584 1191,-1585 C1191,-1599 1191,-1599 1191,-1599 C1191,-1599 1192,-1600 1192,-1600 C1207,-1600 1207,-1600 
        1207,-1600 C1207,-1600 1207,-1599 1207,-1599 Z" transform="matrix(0.33333, 0, 0, 0.33333, 0, 0)" stroke="none"/>
    <path fill="#ffffff" d="M1206,-1586 C1206,-1586 1206,-1585 1205,-1585 C1191,-1585 1191,-1585 1191,-1585 C1190,-1585 
        1190,-1586 1190,-1586 C1190,-1600 1190,-1600 1190,-1600 C1190,-1601 1190,-1601 1191,-1601 C1205,-1601 1205,-1601 
        1205,-1601 C1206,-1601 1206,-1601 1206,-1600 Z" transform="matrix(0.33333, 0, 0, 0.33333, 0, 0)" stroke="#000000"/>
    <path fill="#ffffff" d="M1185,-1623 L1167,-1623 L1167,-1582 L1175,-1582 L1175,-1615 L1185,-1615 L1185,-1623 Z 
        M1197,-1623 L1197,-1615 L1220,-1615 L1220,-1590 L1229,-1590 L1229,-1623 L1197,-1623 Z M1220,-1578 L1220,-1570 
        L1167,-1570 L1167,-1562 L1229,-1562 L1229,-1578 L1220,-1578 Z" transform="matrix(0.33333, 0, 0, 0.33333, 0, 0)"
        stroke="none"/>
</svg>