<?xml version="1.0" standalone="no"?>
<!DOCTYPE svg PUBLIC "-//W3C//DTD SVG 1.0//EN"
    "http://www.w3.org/TR/2001/REC-SVG-20010904/DTD/svg10.dtd">
<?xml-stylesheet type="text/css" href="..\cisco_network.css" ?>
<svg contentScriptType="text/ecmascript" zoomAndPan="magnify" xmlns:xlink="http://www.w3.org/1999/xlink" baseProfile="full"
    contentStyleType="text/css" enable-background="new" version="1.0" width="44.2772" preserveAspectRatio="none"
    viewBox="383.01 -544 49.984 33.984" height="30.1039" xmlns="http://www.w3.org/2000/svg" color-interpolation-filters="sRGB"
    x="0" y="1.5">
    <path stroke-width="2" d="M1298,-1602 C1298,-1586 1265,-1573 1224,-1573 C1184,-1573 1151,-1586 1151,-1602 
        C1151,-1560 1151,-1560 1151,-1560 C1151,-1544 1184,-1531 1224,-1531 C1265,-1531 1298,-1544 1298,-1560 Z"
        fill-rule="evenodd" transform="matrix(0.33333, 0, 0, 0.33333, 0, 0)"/>
    <path stroke-width="2" d="M1224,-1573 C1265,-1573 1298,-1586 1298,-1602 C1298,-1618 1265,-1630 1224,-1630 
        C1184,-1630 1151,-1618 1151,-1602 C1151,-1586 1184,-1573 1224,-1573 Z" fill-rule="evenodd" transform="matrix(0.33333, 0, 0, 0.33333, 0, 0)"/>
    <path d="M1298,-1602 C1298,-1586 1265,-1573 1224,-1573 C1184,-1573 1151,-1586 1151,-1602 C1151,-1560 1151,-1560 
        1151,-1560 C1151,-1544 1184,-1531 1224,-1531 C1265,-1531 1298,-1544 1298,-1560 Z" stroke-width="2" transform="matrix(0.33333, 0, 0, 0.33333, 0, 0)"/>
    <path d="M1224,-1573 C1265,-1573 1298,-1586 1298,-1602 C1298,-1618 1265,-1630 1224,-1630 C1184,-1630 1151,-1618 
        1151,-1602 C1151,-1586 1184,-1573 1224,-1573 Z" stroke-width="2" transform="matrix(0.33333, 0, 0, 0.33333, 0, 0)"/>
    <path fill="#ffffff" d="M1208,-1613 L1214,-1604 L1191,-1599 L1196,-1603 L1160,-1609 L1169,-1616 L1203,-1610 
        L1208,-1613 Z M1240,-1591 L1236,-1600 L1256,-1604 L1253,-1601 L1287,-1595 L1279,-1589 L1245,-1595 L1240,-1591 Z 
        M1228,-1618 L1252,-1624 L1252,-1614 L1246,-1616 L1235,-1606 L1224,-1608 L1236,-1617 L1228,-1618 Z M1219,-1582 
        L1196,-1578 L1196,-1588 L1202,-1587 L1214,-1597 L1225,-1596 L1212,-1584 L1219,-1582 Z" transform="matrix(0.33333, 0, 0, 0.33333, 0, 0)"
        stroke="none"/>
    <path fill="#156287" d="M1192,-1568 L1258,-1568 L1258,-1538 L1192,-1538 L1192,-1568 L1192,-1568 L1192,-1568 Z"
        fill-rule="evenodd" transform="matrix(0.33333, 0, 0, 0.33333, 0, 0)" stroke="none"/>
    <path fill="none" stroke-width="3" d="M1192,-1568 L1258,-1568 L1258,-1538 L1192,-1538 L1192,-1568 L1192,-1568 
        L1192,-1568 Z" transform="matrix(0.33333, 0, 0, 0.33333, 0, 0)" stroke="#8ec9e0" stroke-linecap="square"/>
    <path fill="#ffffff" d="M1242,-1560 L1251,-1560 L1251,-1547 L1242,-1547 L1242,-1560 L1242,-1560 L1242,-1560 Z"
        fill-rule="evenodd" transform="matrix(0.33333, 0, 0, 0.33333, 0, 0)" stroke="none"/>
    <path fill="none" d="M1242,-1560 L1251,-1560 L1251,-1547 L1242,-1547 L1242,-1560 L1242,-1560 L1242,-1560 Z"
        transform="matrix(0.33333, 0, 0, 0.33333, 0, 0)" stroke-linecap="square"/>
    <path fill="#ffffff" d="M1251,-1566 L1254,-1566 L1254,-1563 L1251,-1563 L1251,-1566 L1251,-1566 L1251,-1566 Z"
        fill-rule="evenodd" transform="matrix(0.33333, 0, 0, 0.33333, 0, 0)" stroke="none"/>
    <path fill="none" d="M1251,-1566 L1254,-1566 L1254,-1563 L1251,-1563 L1251,-1566 L1251,-1566 L1251,-1566 Z"
        transform="matrix(0.33333, 0, 0, 0.33333, 0, 0)" stroke-linecap="square"/>
    <path fill="#ffffff" d="M1246,-1566 L1249,-1566 L1249,-1563 L1246,-1563 L1246,-1566 L1246,-1566 L1246,-1566 Z"
        fill-rule="evenodd" transform="matrix(0.33333, 0, 0, 0.33333, 0, 0)" stroke="none"/>
    <path fill="none" d="M1246,-1566 L1249,-1566 L1249,-1563 L1246,-1563 L1246,-1566 L1246,-1566 L1246,-1566 Z"
        transform="matrix(0.33333, 0, 0, 0.33333, 0, 0)" stroke-linecap="square"/>
    <path fill="#ffffff" d="M1240,-1566 L1243,-1566 L1243,-1563 L1240,-1563 L1240,-1566 L1240,-1566 L1240,-1566 Z"
        fill-rule="evenodd" transform="matrix(0.33333, 0, 0, 0.33333, 0, 0)" stroke="none"/>
    <path fill="none" d="M1240,-1566 L1243,-1566 L1243,-1563 L1240,-1563 L1240,-1566 L1240,-1566 L1240,-1566 Z"
        transform="matrix(0.33333, 0, 0, 0.33333, 0, 0)" stroke-linecap="square"/>
    <path fill="#ffffff" d="M1235,-1566 L1238,-1566 L1238,-1563 L1235,-1563 L1235,-1566 L1235,-1566 L1235,-1566 Z"
        fill-rule="evenodd" transform="matrix(0.33333, 0, 0, 0.33333, 0, 0)" stroke="none"/>
    <path fill="none" d="M1235,-1566 L1238,-1566 L1238,-1563 L1235,-1563 L1235,-1566 L1235,-1566 L1235,-1566 Z"
        transform="matrix(0.33333, 0, 0, 0.33333, 0, 0)" stroke-linecap="square"/>
    <path fill="#ffffff" d="M1230,-1566 L1232,-1566 L1232,-1563 L1230,-1563 L1230,-1566 L1230,-1566 L1230,-1566 Z"
        fill-rule="evenodd" transform="matrix(0.33333, 0, 0, 0.33333, 0, 0)" stroke="none"/>
    <path fill="none" d="M1230,-1566 L1232,-1566 L1232,-1563 L1230,-1563 L1230,-1566 L1230,-1566 L1230,-1566 Z"
        transform="matrix(0.33333, 0, 0, 0.33333, 0, 0)" stroke-linecap="square"/>
    <path fill="#ffffff" d="M1224,-1566 L1227,-1566 L1227,-1563 L1224,-1563 L1224,-1566 L1224,-1566 L1224,-1566 Z"
        fill-rule="evenodd" transform="matrix(0.33333, 0, 0, 0.33333, 0, 0)" stroke="none"/>
    <path fill="none" d="M1224,-1566 L1227,-1566 L1227,-1563 L1224,-1563 L1224,-1566 L1224,-1566 L1224,-1566 Z"
        transform="matrix(0.33333, 0, 0, 0.33333, 0, 0)" stroke-linecap="square"/>
    <path fill="#ffffff" d="M1219,-1566 L1222,-1566 L1222,-1563 L1219,-1563 L1219,-1566 L1219,-1566 L1219,-1566 Z"
        fill-rule="evenodd" transform="matrix(0.33333, 0, 0, 0.33333, 0, 0)" stroke="none"/>
    <path fill="none" d="M1219,-1566 L1222,-1566 L1222,-1563 L1219,-1563 L1219,-1566 L1219,-1566 L1219,-1566 Z"
        transform="matrix(0.33333, 0, 0, 0.33333, 0, 0)" stroke-linecap="square"/>
    <path fill="#ffffff" d="M1213,-1566 L1216,-1566 L1216,-1563 L1213,-1563 L1213,-1566 L1213,-1566 L1213,-1566 Z"
        fill-rule="evenodd" transform="matrix(0.33333, 0, 0, 0.33333, 0, 0)" stroke="none"/>
    <path fill="none" d="M1213,-1566 L1216,-1566 L1216,-1563 L1213,-1563 L1213,-1566 L1213,-1566 L1213,-1566 Z"
        transform="matrix(0.33333, 0, 0, 0.33333, 0, 0)" stroke-linecap="square"/>
    <path fill="#ffffff" d="M1208,-1566 L1211,-1566 L1211,-1563 L1208,-1563 L1208,-1566 L1208,-1566 L1208,-1566 Z"
        fill-rule="evenodd" transform="matrix(0.33333, 0, 0, 0.33333, 0, 0)" stroke="none"/>
    <path fill="none" d="M1208,-1566 L1211,-1566 L1211,-1563 L1208,-1563 L1208,-1566 L1208,-1566 L1208,-1566 Z"
        transform="matrix(0.33333, 0, 0, 0.33333, 0, 0)" stroke-linecap="square"/>
    <path fill="#ffffff" d="M1203,-1566 L1205,-1566 L1205,-1563 L1203,-1563 L1203,-1566 L1203,-1566 L1203,-1566 Z"
        fill-rule="evenodd" transform="matrix(0.33333, 0, 0, 0.33333, 0, 0)" stroke="none"/>
    <path fill="none" d="M1203,-1566 L1205,-1566 L1205,-1563 L1203,-1563 L1203,-1566 L1203,-1566 L1203,-1566 Z"
        transform="matrix(0.33333, 0, 0, 0.33333, 0, 0)" stroke-linecap="square"/>
    <path fill="#ffffff" d="M1197,-1566 L1200,-1566 L1200,-1563 L1197,-1563 L1197,-1566 L1197,-1566 L1197,-1566 Z"
        fill-rule="evenodd" transform="matrix(0.33333, 0, 0, 0.33333, 0, 0)" stroke="none"/>
    <path fill="none" d="M1197,-1566 L1200,-1566 L1200,-1563 L1197,-1563 L1197,-1566 L1197,-1566 L1197,-1566 Z"
        transform="matrix(0.33333, 0, 0, 0.33333, 0, 0)" stroke-linecap="square"/>
    <path fill="#ffffff" d="M1251,-1544 L1254,-1544 L1254,-1541 L1251,-1541 L1251,-1544 L1251,-1544 L1251,-1544 Z"
        fill-rule="evenodd" transform="matrix(0.33333, 0, 0, 0.33333, 0, 0)" stroke="none"/>
    <path fill="none" d="M1251,-1544 L1254,-1544 L1254,-1541 L1251,-1541 L1251,-1544 L1251,-1544 L1251,-1544 Z"
        transform="matrix(0.33333, 0, 0, 0.33333, 0, 0)" stroke-linecap="square"/>
    <path fill="#ffffff" d="M1246,-1544 L1249,-1544 L1249,-1541 L1246,-1541 L1246,-1544 L1246,-1544 L1246,-1544 Z"
        fill-rule="evenodd" transform="matrix(0.33333, 0, 0, 0.33333, 0, 0)" stroke="none"/>
    <path fill="none" d="M1246,-1544 L1249,-1544 L1249,-1541 L1246,-1541 L1246,-1544 L1246,-1544 L1246,-1544 Z"
        transform="matrix(0.33333, 0, 0, 0.33333, 0, 0)" stroke-linecap="square"/>
    <path fill="#ffffff" d="M1240,-1544 L1243,-1544 L1243,-1541 L1240,-1541 L1240,-1544 L1240,-1544 L1240,-1544 Z"
        fill-rule="evenodd" transform="matrix(0.33333, 0, 0, 0.33333, 0, 0)" stroke="none"/>
    <path fill="none" d="M1240,-1544 L1243,-1544 L1243,-1541 L1240,-1541 L1240,-1544 L1240,-1544 L1240,-1544 Z"
        transform="matrix(0.33333, 0, 0, 0.33333, 0, 0)" stroke-linecap="square"/>
    <path fill="#ffffff" d="M1235,-1544 L1238,-1544 L1238,-1541 L1235,-1541 L1235,-1544 L1235,-1544 L1235,-1544 Z"
        fill-rule="evenodd" transform="matrix(0.33333, 0, 0, 0.33333, 0, 0)" stroke="none"/>
    <path fill="none" d="M1235,-1544 L1238,-1544 L1238,-1541 L1235,-1541 L1235,-1544 L1235,-1544 L1235,-1544 Z"
        transform="matrix(0.33333, 0, 0, 0.33333, 0, 0)" stroke-linecap="square"/>
    <path fill="#ffffff" d="M1230,-1544 L1232,-1544 L1232,-1541 L1230,-1541 L1230,-1544 L1230,-1544 L1230,-1544 Z"
        fill-rule="evenodd" transform="matrix(0.33333, 0, 0, 0.33333, 0, 0)" stroke="none"/>
    <path fill="none" d="M1230,-1544 L1232,-1544 L1232,-1541 L1230,-1541 L1230,-1544 L1230,-1544 L1230,-1544 Z"
        transform="matrix(0.33333, 0, 0, 0.33333, 0, 0)" stroke-linecap="square"/>
    <path fill="#ffffff" d="M1224,-1544 L1227,-1544 L1227,-1541 L1224,-1541 L1224,-1544 L1224,-1544 L1224,-1544 Z"
        fill-rule="evenodd" transform="matrix(0.33333, 0, 0, 0.33333, 0, 0)" stroke="none"/>
    <path fill="none" d="M1224,-1544 L1227,-1544 L1227,-1541 L1224,-1541 L1224,-1544 L1224,-1544 L1224,-1544 Z"
        transform="matrix(0.33333, 0, 0, 0.33333, 0, 0)" stroke-linecap="square"/>
    <path fill="#ffffff" d="M1219,-1544 L1222,-1544 L1222,-1541 L1219,-1541 L1219,-1544 L1219,-1544 L1219,-1544 Z"
        fill-rule="evenodd" transform="matrix(0.33333, 0, 0, 0.33333, 0, 0)" stroke="none"/>
    <path fill="none" d="M1219,-1544 L1222,-1544 L1222,-1541 L1219,-1541 L1219,-1544 L1219,-1544 L1219,-1544 Z"
        transform="matrix(0.33333, 0, 0, 0.33333, 0, 0)" stroke-linecap="square"/>
    <path fill="#ffffff" d="M1213,-1544 L1216,-1544 L1216,-1541 L1213,-1541 L1213,-1544 L1213,-1544 L1213,-1544 Z"
        fill-rule="evenodd" transform="matrix(0.33333, 0, 0, 0.33333, 0, 0)" stroke="none"/>
    <path fill="none" d="M1213,-1544 L1216,-1544 L1216,-1541 L1213,-1541 L1213,-1544 L1213,-1544 L1213,-1544 Z"
        transform="matrix(0.33333, 0, 0, 0.33333, 0, 0)" stroke-linecap="square"/>
    <path fill="#ffffff" d="M1208,-1544 L1211,-1544 L1211,-1541 L1208,-1541 L1208,-1544 L1208,-1544 L1208,-1544 Z"
        fill-rule="evenodd" transform="matrix(0.33333, 0, 0, 0.33333, 0, 0)" stroke="none"/>
    <path fill="none" d="M1208,-1544 L1211,-1544 L1211,-1541 L1208,-1541 L1208,-1544 L1208,-1544 L1208,-1544 Z"
        transform="matrix(0.33333, 0, 0, 0.33333, 0, 0)" stroke-linecap="square"/>
    <path fill="#ffffff" d="M1203,-1544 L1205,-1544 L1205,-1541 L1203,-1541 L1203,-1544 L1203,-1544 L1203,-1544 Z"
        fill-rule="evenodd" transform="matrix(0.33333, 0, 0, 0.33333, 0, 0)" stroke="none"/>
    <path fill="none" d="M1203,-1544 L1205,-1544 L1205,-1541 L1203,-1541 L1203,-1544 L1203,-1544 L1203,-1544 Z"
        transform="matrix(0.33333, 0, 0, 0.33333, 0, 0)" stroke-linecap="square"/>
    <path fill="#ffffff" d="M1197,-1544 L1200,-1544 L1200,-1541 L1197,-1541 L1197,-1544 L1197,-1544 L1197,-1544 Z"
        fill-rule="evenodd" transform="matrix(0.33333, 0, 0, 0.33333, 0, 0)" stroke="none"/>
    <path fill="none" d="M1197,-1544 L1200,-1544 L1200,-1541 L1197,-1541 L1197,-1544 L1197,-1544 L1197,-1544 Z"
        transform="matrix(0.33333, 0, 0, 0.33333, 0, 0)" stroke-linecap="square"/>
    <path fill="#ffffff" d="M1228,-1560 L1237,-1560 L1237,-1547 L1228,-1547 L1228,-1560 L1228,-1560 L1228,-1560 Z"
        fill-rule="evenodd" transform="matrix(0.33333, 0, 0, 0.33333, 0, 0)" stroke="none"/>
    <path fill="none" d="M1228,-1560 L1237,-1560 L1237,-1547 L1228,-1547 L1228,-1560 L1228,-1560 L1228,-1560 Z"
        transform="matrix(0.33333, 0, 0, 0.33333, 0, 0)" stroke-linecap="square"/>
    <path fill="#ffffff" d="M1213,-1560 L1222,-1560 L1222,-1547 L1213,-1547 L1213,-1560 L1213,-1560 L1213,-1560 Z"
        fill-rule="evenodd" transform="matrix(0.33333, 0, 0, 0.33333, 0, 0)" stroke="none"/>
    <path fill="none" d="M1213,-1560 L1222,-1560 L1222,-1547 L1213,-1547 L1213,-1560 L1213,-1560 L1213,-1560 Z"
        transform="matrix(0.33333, 0, 0, 0.33333, 0, 0)" stroke-linecap="square"/>
    <path fill="#ffffff" d="M1199,-1560 L1208,-1560 L1208,-1547 L1199,-1547 L1199,-1560 L1199,-1560 L1199,-1560 Z"
        fill-rule="evenodd" transform="matrix(0.33333, 0, 0, 0.33333, 0, 0)" stroke="none"/>
    <path fill="none" d="M1199,-1560 L1208,-1560 L1208,-1547 L1199,-1547 L1199,-1560 L1199,-1560 L1199,-1560 Z"
        transform="matrix(0.33333, 0, 0, 0.33333, 0, 0)" stroke-linecap="square"/>
</svg>