<?xml version="1.0" standalone="no"?>
<!DOCTYPE svg PUBLIC "-//W3C//DTD SVG 1.0//EN"
    "http://www.w3.org/TR/2001/REC-SVG-20010904/DTD/svg10.dtd">
<?xml-stylesheet type="text/css" href="..\cisco_network.css" ?>
<svg contentScriptType="text/ecmascript" zoomAndPan="magnify" xmlns:xlink="http://www.w3.org/1999/xlink" baseProfile="full"
    contentStyleType="text/css" enable-background="new" version="1.0" width="31.8898" preserveAspectRatio="none"
    viewBox="391.01 -546.02 36 36" height="31.8898" xmlns="http://www.w3.org/2000/svg" color-interpolation-filters="sRGB"
    x="0" y="1.5">
    <path d="M1263,-1531 L1263,-1619 L1176,-1619 L1176,-1531 L1263,-1531 Z M1263,-1619 L1177,-1619 L1198,-1636 
        L1281,-1636 L1281,-1636 L1281,-1549 L1263,-1531 L1263,-1619 L1263,-1619 Z" stroke-width="2" transform="matrix(0.33333, 0, 0, 0.33333, 0, 0)"/>
    <path fill="none" d="M1263,-1619 L1281,-1636 M1188,-1596 L1258,-1596 M1185,-1575 L1255,-1575 M1182,-1554 L1252,-1554 
        M1192,-1543 L1206,-1609 M1236,-1543 L1251,-1609 M1214,-1543 L1228,-1609" stroke-width="2" transform="matrix(0.33333, 0, 0, 0.33333, 0, 0)"
        stroke="#ffffff"/>
    <path fill="#ffffff" d="M1209,-1596 C1209,-1594 1206,-1593 1203,-1593 C1200,-1593 1198,-1594 1198,-1596 C1198,-1598 
        1200,-1600 1203,-1600 C1206,-1600 1209,-1598 1209,-1596 Z" transform="matrix(0.33333, 0, 0, 0.33333, 0, 0)"
        stroke="none"/>
    <path fill="#ffffff" d="M1231,-1597 C1231,-1595 1229,-1593 1226,-1593 C1223,-1593 1220,-1595 1220,-1597 C1220,-1599 
        1223,-1601 1226,-1601 C1229,-1601 1231,-1599 1231,-1597 Z" transform="matrix(0.33333, 0, 0, 0.33333, 0, 0)"
        stroke="none"/>
    <path fill="#ffffff" d="M1254,-1595 C1254,-1593 1251,-1592 1248,-1592 C1245,-1592 1243,-1593 1243,-1595 C1243,-1597 
        1245,-1599 1248,-1599 C1251,-1599 1254,-1597 1254,-1595 Z" transform="matrix(0.33333, 0, 0, 0.33333, 0, 0)"
        stroke="none"/>
    <path fill="#ffffff" d="M1203,-1575 C1203,-1573 1201,-1571 1198,-1571 C1195,-1571 1193,-1573 1193,-1575 C1193,-1577 
        1195,-1578 1198,-1578 C1201,-1578 1203,-1577 1203,-1575 Z" transform="matrix(0.33333, 0, 0, 0.33333, 0, 0)"
        stroke="none"/>
    <path fill="#ffffff" d="M1226,-1574 C1226,-1572 1224,-1570 1221,-1570 C1218,-1570 1215,-1572 1215,-1574 C1215,-1576 
        1218,-1578 1221,-1578 C1224,-1578 1226,-1576 1226,-1574 Z" transform="matrix(0.33333, 0, 0, 0.33333, 0, 0)"
        stroke="none"/>
    <path fill="#ffffff" d="M1249,-1575 C1249,-1573 1246,-1571 1243,-1571 C1240,-1571 1238,-1573 1238,-1575 C1238,-1577 
        1240,-1579 1243,-1579 C1246,-1579 1249,-1577 1249,-1575 Z" transform="matrix(0.33333, 0, 0, 0.33333, 0, 0)"
        stroke="none"/>
    <path fill="#ffffff" d="M1199,-1554 C1199,-1552 1196,-1550 1193,-1550 C1190,-1550 1188,-1552 1188,-1554 C1188,-1556 
        1190,-1558 1193,-1558 C1196,-1558 1199,-1556 1199,-1554 Z" transform="matrix(0.33333, 0, 0, 0.33333, 0, 0)"
        stroke="none"/>
    <path fill="#ffffff" d="M1222,-1554 C1222,-1552 1219,-1550 1216,-1550 C1213,-1550 1211,-1552 1211,-1554 C1211,-1556 
        1213,-1558 1216,-1558 C1219,-1558 1222,-1556 1222,-1554 Z" transform="matrix(0.33333, 0, 0, 0.33333, 0, 0)"
        stroke="none"/>
    <path fill="#ffffff" d="M1244,-1554 C1244,-1552 1242,-1550 1239,-1550 C1236,-1550 1233,-1552 1233,-1554 C1233,-1556 
        1236,-1558 1239,-1558 C1242,-1558 1244,-1556 1244,-1554 Z" transform="matrix(0.33333, 0, 0, 0.33333, 0, 0)"
        stroke="none"/>
</svg>