<?xml version="1.0" standalone="no"?>
<!DOCTYPE svg PUBLIC "-//W3C//DTD SVG 1.0//EN"
    "http://www.w3.org/TR/2001/REC-SVG-20010904/DTD/svg10.dtd">
<?xml-stylesheet type="text/css" href="..\cisco_network.css" ?>
<svg contentScriptType="text/ecmascript" zoomAndPan="magnify" xmlns:xlink="http://www.w3.org/1999/xlink" baseProfile="full"
    contentStyleType="text/css" enable-background="new" version="1.0" width="23.0173" preserveAspectRatio="none"
    viewBox="394.02 -568.99 25.984 41.984" height="37.1906" xmlns="http://www.w3.org/2000/svg"
    color-interpolation-filters="sRGB" x="0" y="1.5">
    <path d="M1249,-1583 L1249,-1695 L1185,-1695 L1185,-1583 L1249,-1583 Z M1185,-1695 L1197,-1705 L1259,-1705 
        L1249,-1695 L1185,-1695 Z M1249,-1583 L1259,-1595 L1259,-1705 L1249,-1695 L1249,-1583 Z" stroke-width="2"
        transform="matrix(0.33333, 0, 0, 0.33333, 0, 0)"/>
    <path fill="none" d="M1185,-1651 L1249,-1651" stroke-width="2" transform="matrix(0.33333, 0, 0, 0.33333, 0, 0)"/>
    <path fill="none" d="M1185,-1590 L1249,-1590" transform="matrix(0.33333, 0, 0, 0.33333, 0, 0)"/>
    <path fill="#ffffff" d="M1212,-1615 L1212,-1606 L1208,-1606 L1216,-1597 L1223,-1606 L1220,-1606 L1220,-1615 
        L1212,-1615 Z M1212,-1623 L1212,-1632 L1208,-1632 L1216,-1641 L1223,-1632 L1220,-1632 L1220,-1623 L1212,-1623 Z 
        M1193,-1622 L1202,-1622 L1202,-1626 L1212,-1618 L1202,-1611 L1202,-1615 L1193,-1615 L1193,-1622 Z M1238,-1622 
        L1229,-1622 L1229,-1626 L1220,-1618 L1229,-1611 L1229,-1615 L1238,-1615 L1238,-1622 Z" transform="matrix(0.33333, 0, 0, 0.33333, 0, 0)"
        stroke="none"/>
    <path d="M1220,-1675 L1220,-1687 L1190,-1687 L1190,-1675 L1220,-1675 Z" stroke-width="2" transform="matrix(0.33333, 0, 0, 0.33333, 0, 0)"/>
    <path fill="none" d="M1193,-1681 L1217,-1681" stroke-width="2" transform="matrix(0.33333, 0, 0, 0.33333, 0, 0)"/>
</svg>