<?xml version="1.0" standalone="no"?>
<!DOCTYPE svg PUBLIC "-//W3C//DTD SVG 1.0//EN"
    "http://www.w3.org/TR/2001/REC-SVG-20010904/DTD/svg10.dtd">
<?xml-stylesheet type="text/css" href="..\cisco_network.css" ?>
<svg contentScriptType="text/ecmascript" zoomAndPan="magnify" xmlns:xlink="http://www.w3.org/1999/xlink" baseProfile="full"
    contentStyleType="text/css" enable-background="new" version="1.0" width="41.6409" preserveAspectRatio="none"
    viewBox="384.99 -542.02 47.008 31.008" height="27.4677" xmlns="http://www.w3.org/2000/svg"
    color-interpolation-filters="sRGB" x="0" y="1.5">
    <path d="M1280,-1534 L1280,-1610 L1158,-1610 L1158,-1534 L1280,-1534 Z M1280,-1610 L1158,-1610 L1177,-1626 
        L1296,-1626 L1296,-1626 L1296,-1550 L1280,-1535 L1280,-1610 L1280,-1610 Z" stroke-width="2" transform="matrix(0.33333, 0, 0, 0.33333, 0, 0)"/>
    <path fill="none" stroke-width="2" d="M1280,-1611 L1296,-1626" transform="matrix(0.33333, 0, 0, 0.33333, 0, 0)"/>
    <path fill="#ffffff" d="M1176,-1541 L1190,-1541 L1206,-1558 L1221,-1558 L1237,-1542 L1264,-1542 L1264,-1553 
        L1243,-1553 L1227,-1569 L1206,-1569 L1191,-1585 L1176,-1585 L1176,-1587 L1169,-1581 L1175,-1575 L1175,-1577 
        L1188,-1577 L1188,-1567 L1176,-1567 L1176,-1569 L1170,-1563 L1176,-1557 L1176,-1559 L1188,-1559 L1188,-1549 
        L1176,-1549 L1176,-1551 L1170,-1545 L1176,-1539 L1176,-1541 Z" transform="matrix(0.33333, 0, 0, 0.33333, 0, 0)"
        stroke="none"/>
    <path fill="none" d="M1176,-1541 L1190,-1541 L1206,-1558 L1221,-1558 L1237,-1542 L1264,-1542 L1264,-1553 L1243,-1553 
        L1227,-1569 L1206,-1569 L1191,-1585 L1176,-1585 L1176,-1587 L1169,-1581 L1175,-1575 L1175,-1577 L1188,-1577 
        L1188,-1567 L1176,-1567 L1176,-1569 L1170,-1563 L1176,-1557 L1176,-1559 L1188,-1559 L1188,-1549 L1176,-1549 
        L1176,-1551 L1170,-1545 L1176,-1539 L1176,-1541" transform="matrix(0.33333, 0, 0, 0.33333, 0, 0)" stroke="none"/>
    <path fill="#ffffff" d="M1261,-1604 L1247,-1604 L1231,-1588 L1216,-1588 L1201,-1604 L1173,-1604 L1173,-1593 
        L1194,-1593 L1210,-1577 L1231,-1577 L1247,-1561 L1262,-1561 L1262,-1559 L1268,-1565 L1262,-1571 L1262,-1569 
        L1249,-1569 L1250,-1579 L1261,-1579 L1261,-1577 L1268,-1583 L1262,-1589 L1262,-1587 L1250,-1587 L1250,-1597 
        L1261,-1597 L1261,-1595 L1268,-1601 L1262,-1607 L1262,-1604 Z" transform="matrix(0.33333, 0, 0, 0.33333, 0, 0)"
        stroke="none"/>
    <path fill="none" d="M1261,-1604 L1247,-1604 L1231,-1588 L1216,-1588 L1201,-1604 L1173,-1604 L1173,-1593 L1194,-1593 
        L1210,-1577 L1231,-1577 L1247,-1561 L1262,-1561 L1262,-1559 L1268,-1565 L1262,-1571 L1262,-1569 L1249,-1569 
        L1250,-1579 L1261,-1579 L1261,-1577 L1268,-1583 L1262,-1589 L1262,-1587 L1250,-1587 L1250,-1597 L1261,-1597 
        L1261,-1595 L1268,-1601 L1262,-1607 L1262,-1604" transform="matrix(0.33333, 0, 0, 0.33333, 0, 0)" stroke="none"/>
</svg>