<?xml version="1.0" standalone="no"?>
<!DOCTYPE svg PUBLIC "-//W3C//DTD SVG 1.0//EN"
    "http://www.w3.org/TR/2001/REC-SVG-20010904/DTD/svg10.dtd">
<?xml-stylesheet type="text/css" href="..\cisco_network.css" ?>
<svg contentScriptType="text/ecmascript" zoomAndPan="magnify" xmlns:xlink="http://www.w3.org/1999/xlink" baseProfile="full"
    contentStyleType="text/css" enable-background="new" version="1.0" width="25.6819" preserveAspectRatio="none"
    viewBox="396 -570.02 28.992 45.024" height="39.8835" xmlns="http://www.w3.org/2000/svg" color-interpolation-filters="sRGB"
    x="0" y="1.5">
    <path d="M1253,-1689 L1189,-1689 L1189,-1576 L1253,-1576 Z" stroke="none" transform="matrix(0.33333, 0, 0, 0.33333, 0, 0)"/>
    <path fill="none" stroke-width="2" d="M1253,-1689 L1189,-1689 L1189,-1576 L1253,-1576" transform="matrix(0.33333, 0, 0, 0.33333, 0, 0)"/>
    <path stroke-width="2" d="M1253,-1576 L1273,-1596 L1273,-1709 L1209,-1709 L1189,-1689 L1253,-1689 L1253,-1576 Z"
        transform="matrix(0.33333, 0, 0, 0.33333, 0, 0)"/>
    <path fill="none" stroke-width="2" d="M1253,-1689 L1273,-1709" transform="matrix(0.33333, 0, 0, 0.33333, 0, 0)"/>
    <path fill="none" stroke-width="2" d="M1190,-1651 L1253,-1651" transform="matrix(0.33333, 0, 0, 0.33333, 0, 0)"/>
    <path fill="none" d="M1190,-1591 L1253,-1591" stroke-width="2" transform="matrix(0.33333, 0, 0, 0.33333, 0, 0)"/>
    <path fill="none" d="M1207,-1674 L1224,-1674" stroke-width="2" transform="matrix(0.33333, 0, 0, 0.33333, 0, 0)"/>
    <path d="M1231,-1668 L1231,-1680 L1200,-1680 L1200,-1668 L1231,-1668 Z" stroke-width="2" transform="matrix(0.33333, 0, 0, 0.33333, 0, 0)"/>
    <text font-size="32" transform="matrix(0.33333, 0, 0, 0.33333, 407.44, -533.38)" fill="#ffffff" font-family="'Helvetica'"
        font-style="normal" stroke="none" font-weight="700" stroke-width="2" xml:space="preserve">IP</text>
    <path d="M1246,-1638 C1203,-1638 1203,-1638 1203,-1638 C1198,-1638 1194,-1634 1194,-1630 C1194,-1625 1199,-1621 
        1203,-1621 C1211,-1621 1211,-1621 1211,-1621 C1216,-1621 1219,-1617 1219,-1612 C1219,-1607 1215,-1603 1210,-1603 
        C1197,-1603 1197,-1603 1197,-1603" stroke-width="5" transform="matrix(0.33333, 0, 0, 0.33333, 0, 0)"/>
    <path stroke-width="5" d="M1246,-1638 C1203,-1638 1203,-1638 1203,-1638 C1198,-1638 1194,-1634 1194,-1630 
        C1194,-1625 1199,-1621 1203,-1621 C1211,-1621 1211,-1621 1211,-1621 C1216,-1621 1219,-1617 1219,-1612 
        C1219,-1607 1215,-1603 1210,-1603 C1197,-1603 1197,-1603 1197,-1603" transform="matrix(0.33333, 0, 0, 0.33333, 0, 0)"
        stroke="#ffffff"/>
    <path fill="#ffffff" d="M1244,-1644 L1244,-1633 L1251,-1638 L1244,-1644 Z M1197,-1597 L1197,-1608 L1191,-1603 
        L1197,-1597 Z" stroke-width="2.54" transform="matrix(0.33333, 0, 0, 0.33333, 0, 0)"/>
</svg>