<?xml version="1.0" standalone="no"?>
<!DOCTYPE svg PUBLIC "-//W3C//DTD SVG 1.0//EN"
    "http://www.w3.org/TR/2001/REC-SVG-20010904/DTD/svg10.dtd">
<?xml-stylesheet type="text/css" href="..\cisco_network.css" ?>
<svg contentScriptType="text/ecmascript" zoomAndPan="magnify" xmlns:xlink="http://www.w3.org/1999/xlink" baseProfile="full"
    contentStyleType="text/css" enable-background="new" version="1.0" width="31.011" preserveAspectRatio="none" viewBox="383.01 -572.99 35.008 54.976"
    height="48.6992" xmlns="http://www.w3.org/2000/svg" color-interpolation-filters="sRGB" x="0" y="1.5">
    <path d="M1177,-1701 L1150,-1702 L1149,-1700 L1156,-1677 L1185,-1678 L1186,-1680 L1177,-1701 Z M1212,-1720 
        L1223,-1712 L1221,-1709 L1222,-1704 L1224,-1700 L1234,-1695 L1236,-1701 L1233,-1703 L1234,-1707 L1228,-1719 
        L1212,-1720 Z M1213,-1716 L1210,-1711 L1209,-1706 L1206,-1713 L1213,-1716 Z M1211,-1713 L1212,-1712 L1213,-1711 
        L1213,-1713 L1213,-1714 L1214,-1713 L1215,-1711 L1217,-1710 L1217,-1712 L1218,-1713 L1219,-1712 L1221,-1711 
        L1221,-1712 L1223,-1712 L1215,-1719 L1210,-1719 L1209,-1717 L1211,-1713 Z M1212,-1697 L1217,-1697 Z" stroke="none"
        transform="matrix(0.33333, 0, 0, 0.33333, 0, 0)"/>
    <path fill="none" d="M1212,-1697 L1217,-1697" transform="matrix(0.33333, 0, 0, 0.33333, 0, 0)" stroke="none"/>
    <path d="M1209,-1707 L1209,-1705 L1209,-1699 L1207,-1699 L1205,-1701 L1206,-1703 L1207,-1705 L1208,-1709 L1209,-1707 
        Z M1187,-1678 L1158,-1675 L1156,-1674 L1157,-1670 L1170,-1665 L1199,-1668 L1200,-1672 L1187,-1678 Z M1183,-1682 
        L1160,-1681 L1154,-1699 L1176,-1699 L1183,-1682 Z M1182,-1665 L1180,-1670 L1176,-1673 L1176,-1672 L1171,-1674 
        L1171,-1672 L1168,-1673 L1169,-1671 L1167,-1672 L1169,-1668 L1172,-1666 L1178,-1663 L1182,-1665 Z M1189,-1637 
        L1177,-1634 L1175,-1630 L1175,-1623 L1181,-1595 L1181,-1584 L1177,-1578 L1186,-1578 L1191,-1581 L1193,-1582 
        L1193,-1587 L1190,-1593 L1189,-1598 L1190,-1611 L1189,-1619 L1189,-1637 Z M1192,-1589 L1190,-1589 L1187,-1586 
        L1183,-1581 L1179,-1580 L1181,-1582 L1177,-1579 L1171,-1576 L1171,-1575 L1178,-1574 L1183,-1573 L1186,-1575 
        L1189,-1580 L1190,-1573 L1191,-1573 L1194,-1581 L1194,-1586 L1192,-1589 Z M1204,-1637 L1190,-1635 L1188,-1631 
        L1187,-1627 L1197,-1599 L1197,-1588 L1193,-1582 L1202,-1582 L1207,-1585 L1209,-1586 L1209,-1591 L1206,-1597 
        L1205,-1602 L1205,-1615 L1204,-1623 L1204,-1637 Z M1208,-1593 L1206,-1593 L1203,-1590 L1199,-1585 L1195,-1584 
        L1196,-1586 L1193,-1583 L1187,-1580 L1187,-1579 L1193,-1578 L1199,-1577 L1202,-1579 L1204,-1583 L1206,-1577 
        L1207,-1577 L1210,-1585 L1210,-1590 L1208,-1593 Z M1226,-1693 L1215,-1690 L1205,-1689 L1197,-1686 L1194,-1683 
        L1197,-1669 L1194,-1664 L1191,-1664 L1190,-1662 L1185,-1666 L1181,-1666 L1177,-1663 L1178,-1657 L1190,-1649 
        L1199,-1648 L1203,-1651 L1198,-1639 L1189,-1636 L1185,-1628 L1189,-1617 L1209,-1613 L1220,-1612 L1230,-1613 
        L1236,-1618 L1237,-1623 L1238,-1627 L1240,-1630 L1237,-1639 L1236,-1649 L1239,-1649 L1244,-1651 L1248,-1682 
        L1245,-1687 L1236,-1691 L1226,-1693 Z" stroke="none" transform="matrix(0.33333, 0, 0, 0.33333, 0, 0)"/>
    <path d="M1210,-1714 L1215,-1715 L1224,-1712 L1226,-1698 L1225,-1692 L1214,-1689 L1209,-1695 L1208,-1703 L1210,-1714 
        Z" stroke="none" transform="matrix(0.33333, 0, 0, 0.33333, 0, 0)"/>
    <path d="M1238,-1626 L1234,-1628 L1230,-1624 L1219,-1622 L1207,-1627 L1198,-1639 L1189,-1636 L1185,-1628 L1189,-1617 
        L1216,-1612 L1230,-1613 L1236,-1618 L1238,-1626 Z M1209,-1699 L1212,-1694 L1214,-1692 L1216,-1692 L1216,-1687 
        L1212,-1685 L1211,-1685 L1205,-1684 L1202,-1685 L1200,-1688 L1202,-1687 L1203,-1688 L1201,-1689 L1200,-1691 
        L1200,-1693 L1202,-1692 L1204,-1692 L1203,-1693 L1203,-1694 L1205,-1695 L1206,-1696 L1206,-1698 L1207,-1701 
        L1209,-1699 Z M1225,-1699 L1225,-1697 L1224,-1696 L1222,-1696 L1223,-1695 L1225,-1695 L1225,-1693 L1223,-1692 
        L1221,-1693 L1222,-1691 L1224,-1691 L1226,-1691 L1226,-1690 L1225,-1688 L1223,-1687 L1225,-1686 L1227,-1686 
        L1226,-1685 L1226,-1682 L1228,-1683 L1229,-1685 L1230,-1683 L1232,-1682 L1236,-1681 L1239,-1681 L1242,-1682 
        L1242,-1684 L1241,-1684 L1239,-1684 L1240,-1685 L1241,-1686 L1242,-1689 L1241,-1690 L1240,-1689 L1239,-1688 
        L1239,-1690 L1239,-1691 L1238,-1691 L1236,-1691 L1237,-1693 L1237,-1695 L1237,-1697 L1236,-1696 L1235,-1695 
        L1233,-1696 L1234,-1697 L1234,-1699 L1233,-1700 L1233,-1699 L1231,-1699 L1231,-1701 L1227,-1701 L1225,-1699 Z"
        stroke="none" transform="matrix(0.33333, 0, 0, 0.33333, 0, 0)"/>
    <path d="M1225,-1685 C1222,-1681 1222,-1681 1222,-1681 C1219,-1685 1219,-1685 1219,-1685 C1219,-1685 1217,-1680 
        1216,-1682 C1215,-1685 1215,-1685 1215,-1685 C1213,-1683 1213,-1683 1213,-1683 C1213,-1683 1208,-1682 1209,-1683 
        C1210,-1684 1210,-1686 1210,-1686 C1218,-1694 1218,-1694 1218,-1694 C1228,-1694 1228,-1694 1228,-1694 Z"
        transform="matrix(0.33333, 0, 0, 0.33333, 0, 0)" stroke="none"/>
    <path d="M1218,-1610 C1217,-1592 1217,-1592 1217,-1592 C1193,-1586 1193,-1586 1193,-1586 C1189,-1587 1188,-1582 
        1188,-1582 C1188,-1579 1188,-1579 1188,-1579 C1190,-1579 1190,-1579 1190,-1579 C1189,-1576 1189,-1576 1189,-1576 
        C1191,-1572 1194,-1575 1194,-1575 C1195,-1579 1195,-1579 1195,-1579 C1214,-1586 1214,-1586 1214,-1586 
        C1197,-1573 1197,-1573 1197,-1573 C1194,-1568 1196,-1563 1196,-1563 C1194,-1559 1198,-1555 1198,-1555 
        C1203,-1552 1203,-1559 1203,-1559 C1204,-1563 1200,-1563 1200,-1563 C1199,-1566 1199,-1566 1199,-1566 
        C1220,-1584 1220,-1584 1220,-1584 C1245,-1567 1245,-1567 1245,-1567 C1246,-1564 1246,-1564 1246,-1564 
        C1243,-1559 1248,-1557 1248,-1557 C1255,-1555 1252,-1561 1252,-1561 C1253,-1564 1250,-1565 1250,-1565 
        C1248,-1567 1248,-1567 1248,-1567 C1248,-1567 1247,-1566 1249,-1568 C1251,-1569 1249,-1574 1249,-1574 
        C1226,-1587 1226,-1587 1226,-1587 C1243,-1583 1243,-1583 1243,-1583 C1246,-1580 1246,-1580 1246,-1580 
        C1246,-1575 1250,-1576 1250,-1576 C1254,-1576 1252,-1581 1252,-1581 C1250,-1582 1249,-1583 1249,-1583 
        C1247,-1586 1247,-1586 1247,-1586 C1237,-1589 1237,-1589 1237,-1589 C1223,-1592 1223,-1592 1223,-1592 
        C1223,-1608 1223,-1608 1223,-1608" transform="matrix(0.33333, 0, 0, 0.33333, 0, 0)" stroke="none"/>
    <path d="M1212,-1605 C1180,-1616 1180,-1616 1180,-1616 C1178,-1618 1180,-1622 1180,-1622 C1212,-1612 1212,-1612 
        1212,-1612" transform="matrix(0.33333, 0, 0, 0.33333, 0, 0)" stroke="none"/>
    <path d="M1235,-1613 C1213,-1604 1213,-1604 1213,-1604 C1213,-1623 1213,-1623 1213,-1623 C1229,-1666 1232,-1666 
        1232,-1666 C1238,-1669 1239,-1669 1239,-1669 C1247,-1669 1250,-1672 1250,-1672 C1252,-1674 1255,-1671 1255,-1671 
        Z" transform="matrix(0.33333, 0, 0, 0.33333, 0, 0)" stroke="none"/>
</svg>