<?xml version="1.0" standalone="no"?>
<!DOCTYPE svg PUBLIC "-//W3C//DTD SVG 1.0//EN"
    "http://www.w3.org/TR/2001/REC-SVG-20010904/DTD/svg10.dtd">
<?xml-stylesheet type="text/css" href="..\cisco_network.css" ?>
<svg contentScriptType="text/ecmascript" zoomAndPan="magnify" xmlns:xlink="http://www.w3.org/1999/xlink" baseProfile="full"
    contentStyleType="text/css" enable-background="new" version="1.0" width="54.9071" preserveAspectRatio="none"
    viewBox="375.01 -564.99 61.984 34.976" height="30.9827" xmlns="http://www.w3.org/2000/svg"
    color-interpolation-filters="sRGB" x="0" y="1.5">
    <path d="M1304,-1600 L1304,-1693 L1134,-1693 L1134,-1600 L1304,-1600 Z" stroke-width="2" transform="matrix(0.33333, 0, 0, 0.33333, 0, 0)"/>
    <path d="M1219,-1602 L1219,-1657 L1202,-1657 L1202,-1602 L1219,-1602 Z" stroke-width="2" transform="matrix(0.33333, 0, 0, 0.33333, 0, 0)"/>
    <path d="M1235,-1602 L1235,-1657 L1219,-1657 L1219,-1602 L1235,-1602 Z" stroke-width="2" transform="matrix(0.33333, 0, 0, 0.33333, 0, 0)"/>
    <path d="M1240,-1598 L1240,-1602 L1197,-1602 L1197,-1598 L1240,-1598 Z" stroke-width="2" transform="matrix(0.33333, 0, 0, 0.33333, 0, 0)"/>
    <path d="M1243,-1594 L1243,-1598 L1195,-1598 L1195,-1594 L1243,-1594 Z" stroke-width="2" transform="matrix(0.33333, 0, 0, 0.33333, 0, 0)"/>
    <path d="M1245,-1590 L1245,-1594 L1193,-1594 L1193,-1590 L1245,-1590 Z" stroke-width="2" transform="matrix(0.33333, 0, 0, 0.33333, 0, 0)"/>
    <path fill="none" d="M1210,-1633 L1215,-1633 M1227,-1633 L1223,-1633" stroke-width="2" transform="matrix(0.33333, 0, 0, 0.33333, 0, 0)"/>
    <path d="M1306,-1685 L1310,-1676 L1127,-1676 L1131,-1685 L1306,-1685 Z M1184,-1622 L1184,-1668 L1151,-1668 
        L1151,-1622 L1184,-1622 Z M1286,-1622 L1286,-1668 L1253,-1668 L1253,-1622 L1286,-1622 Z" stroke-width="2"
        transform="matrix(0.33333, 0, 0, 0.33333, 0, 0)"/>
</svg>