<?xml version="1.0" standalone="no"?>
<!DOCTYPE svg PUBLIC "-//W3C//DTD SVG 1.0//EN"
    "http://www.w3.org/TR/2001/REC-SVG-20010904/DTD/svg10.dtd">
<?xml-stylesheet type="text/css" href="..\cisco_network.css" ?>
<svg contentScriptType="text/ecmascript" zoomAndPan="magnify" xmlns:xlink="http://www.w3.org/1999/xlink" baseProfile="full"
    contentStyleType="text/css" enable-background="new" version="1.0" width="37.1906" preserveAspectRatio="none"
    viewBox="394.02 -571.01 41.984 48.992" height="43.3984" xmlns="http://www.w3.org/2000/svg"
    color-interpolation-filters="sRGB" x="0" y="1.5">
    <path d="M1245,-1665 L1183,-1665 L1183,-1567 L1245,-1567 Z" stroke="none" transform="matrix(0.33333, 0, 0, 0.33333, 0, 0)"/>
    <path fill="none" d="M1245,-1665 L1183,-1665 L1183,-1567 L1245,-1567" stroke-width="2" transform="matrix(0.33333, 0, 0, 0.33333, 0, 0)"/>
    <path stroke-width="2" d="M1245,-1567 L1264,-1587 L1264,-1685 L1203,-1685 L1183,-1665 L1245,-1665 L1245,-1567 Z"
        transform="matrix(0.33333, 0, 0, 0.33333, 0, 0)"/>
    <path fill="none" d="M1245,-1665 L1264,-1685 M1184,-1627 L1244,-1627" stroke-width="2" transform="matrix(0.33333, 0, 0, 0.33333, 0, 0)"/>
    <path fill="none" d="M1184,-1582 L1244,-1582" stroke-width="2" transform="matrix(0.33333, 0, 0, 0.33333, 0, 0)"/>
    <path fill="none" d="M1198,-1650 L1216,-1650" stroke-width="2" transform="matrix(0.33333, 0, 0, 0.33333, 0, 0)"/>
    <path d="M1222,-1644 L1222,-1657 L1191,-1657 L1191,-1644 L1222,-1644 Z" stroke-width="2" transform="matrix(0.33333, 0, 0, 0.33333, 0, 0)"/>
    <path d="M1309,-1713 L1307,-1712 L1229,-1712 L1231,-1713 L1309,-1713 Z M1309,-1636 L1309,-1713 L1307,-1711 
        L1307,-1634 L1309,-1636 Z" stroke="none" transform="matrix(0.33333, 0, 0, 0.33333, 0, 0)"/>
    <path d="M1232,-1634 L1307,-1634 L1307,-1712 L1229,-1712 L1229,-1637 L1232,-1634 Z" stroke-width="2" transform="matrix(0.33333, 0, 0, 0.33333, 0, 0)"/>
    <path fill="none" stroke-width="2" d="M1301,-1712 C1301,-1667 1301,-1667 1301,-1667 C1301,-1663 1298,-1664 
        1298,-1664 C1237,-1664 1237,-1664 1237,-1664 C1237,-1664 1235,-1664 1235,-1666 C1235,-1712 1235,-1712 
        1235,-1712" transform="matrix(0.33333, 0, 0, 0.33333, 0, 0)"/>
    <path fill="none" d="M1234,-1704 L1234,-1707 L1230,-1707 L1230,-1704 L1234,-1704 Z M1306,-1704 L1306,-1707 
        L1302,-1707 L1302,-1704 L1306,-1704 Z" stroke-width="2" transform="matrix(0.33333, 0, 0, 0.33333, 0, 0)"/>
    <path fill="#ffffff" d="M1288,-1656 C1288,-1634 1288,-1634 1288,-1634 C1242,-1634 1242,-1634 1242,-1634 C1242,-1657 
        1242,-1657 1242,-1657 C1242,-1659 1245,-1659 1245,-1659 C1286,-1659 1286,-1659 1286,-1659 C1289,-1659 1288,-1656 
        1288,-1656 Z" stroke-width="2" transform="matrix(0.33333, 0, 0, 0.33333, 0, 0)" stroke="#0e6a98"/>
    <path fill="none" stroke-width="2" d="M1301,-1634 C1301,-1656 1301,-1656 1301,-1656 C1301,-1656 1301,-1659 
        1298,-1659 C1245,-1659 1245,-1659 1245,-1659 C1245,-1659 1242,-1659 1242,-1657 C1242,-1635 1242,-1635 
        1242,-1635" transform="matrix(0.33333, 0, 0, 0.33333, 0, 0)"/>
    <path d="M1260,-1636 L1260,-1657 L1251,-1657 L1251,-1636 L1260,-1636 Z" stroke-width="2" transform="matrix(0.33333, 0, 0, 0.33333, 0, 0)"/>
    <path fill="#ffffff" d="M1283,-1672 C1291,-1681 1291,-1694 1283,-1703 C1275,-1711 1261,-1711 1253,-1703 C1245,-1694 
        1245,-1681 1253,-1672 C1261,-1664 1275,-1664 1283,-1672 Z" transform="matrix(0.33333, 0, 0, 0.33333, 0, 0)"
        stroke="none"/>
    <path fill="none" d="M1307,-1711 L1309,-1713" stroke-width="2" transform="matrix(0.33333, 0, 0, 0.33333, 0, 0)"/>
    <path fill="none" d="M1265,-1691 L1255,-1701" stroke-width="2" transform="matrix(0.33333, 0, 0, 0.33333, 0, 0)"
        stroke="#126d99"/>
    <path d="M1270,-1679 L1276,-1686 L1269,-1687 L1270,-1679 Z M1260,-1690 L1266,-1696 L1267,-1689 L1260,-1690 Z"
        stroke="none" transform="matrix(0.33333, 0, 0, 0.33333, 0, 0)"/>
    <path fill="none" d="M1282,-1674 L1272,-1684 M1270,-1690 L1277,-1697" stroke-width="2" transform="matrix(0.33333, 0, 0, 0.33333, 0, 0)"
        stroke="#126d99"/>
    <path d="M1274,-1700 L1280,-1694 L1281,-1701 L1274,-1700 Z M1255,-1682 L1262,-1675 L1255,-1674 L1255,-1682 Z"
        stroke="none" transform="matrix(0.33333, 0, 0, 0.33333, 0, 0)"/>
    <path fill="none" d="M1258,-1678 L1266,-1686" stroke-width="2" transform="matrix(0.33333, 0, 0, 0.33333, 0, 0)"
        stroke="#126d99"/>
</svg>