<?xml version="1.0" standalone="no"?>
<!DOCTYPE svg PUBLIC "-//W3C//DTD SVG 1.0//EN"
    "http://www.w3.org/TR/2001/REC-SVG-20010904/DTD/svg10.dtd">
<?xml-stylesheet type="text/css" href="..\cisco_network.css" ?>
<svg contentScriptType="text/ecmascript" zoomAndPan="magnify" xmlns:xlink="http://www.w3.org/1999/xlink" baseProfile="full"
    contentStyleType="text/css" enable-background="new" version="1.0" width="31.8898" preserveAspectRatio="none"
    viewBox="392 -568 36 41.984" height="37.1906" xmlns="http://www.w3.org/2000/svg" color-interpolation-filters="sRGB"
    x="0" y="1.5">
    <path fill="#ffffff" d="M1195,-1611 C1192,-1611 1192,-1611 1192,-1611 C1178,-1611 1176,-1624 1176,-1624 C1176,-1611 
        1176,-1611 1176,-1611 C1176,-1611 1178,-1598 1192,-1598 C1195,-1598 1195,-1598 1195,-1598" stroke-width="2"
        transform="matrix(0.33333, 0, 0, 0.33333, 0, 0)" stroke="#0c6d9c"/>
    <path fill="#ffffff" d="M1195,-1611 C1192,-1611 1192,-1611 1192,-1611 C1178,-1611 1176,-1624 1176,-1624 C1176,-1611 
        1176,-1611 1176,-1611 C1176,-1611 1178,-1598 1192,-1598 C1195,-1598 1195,-1598 1195,-1598" stroke-width="2"
        transform="matrix(0.33333, 0, 0, 0.33333, 0, 0)" stroke="#0c6d9c"/>
    <path d="M1257,-1581 L1257,-1693 L1192,-1693 L1192,-1581 L1257,-1581 Z M1192,-1693 L1204,-1703 L1267,-1703 
        L1257,-1693 L1192,-1693 Z M1257,-1581 L1267,-1593 L1267,-1703 L1257,-1693 L1257,-1581 Z" transform="matrix(0.33333, 0, 0, 0.33333, 0, 0)"
        stroke="none"/>
    <path stroke-width="2" d="M1257,-1581 L1257,-1693 L1192,-1693 L1192,-1581 L1257,-1581 Z M1192,-1693 L1204,-1703 
        L1267,-1703 L1257,-1693 L1192,-1693 Z M1257,-1581 L1267,-1593 L1267,-1703 L1257,-1693 L1257,-1581 Z" transform="matrix(0.33333, 0, 0, 0.33333, 0, 0)"/>
    <path fill="none" d="M1257,-1581 L1257,-1693 L1192,-1693 L1192,-1581 L1257,-1581 Z M1192,-1693 L1204,-1703 
        L1267,-1703 L1257,-1693 L1192,-1693 Z M1257,-1581 L1267,-1593 L1267,-1703 L1257,-1693 L1257,-1581 Z"
        stroke-width="2" transform="matrix(0.33333, 0, 0, 0.33333, 0, 0)"/>
    <path fill="#ffffff" d="M1266,-1598 L1280,-1598 L1280,-1612 L1266,-1612 Z" transform="matrix(0.33333, 0, 0, 0.33333, 0, 0)"
        stroke="none"/>
    <path fill="none" d="M1266,-1598 L1280,-1598 L1280,-1612 L1266,-1612" stroke-width="2" transform="matrix(0.33333, 0, 0, 0.33333, 0, 0)"
        stroke="#0c6d9c"/>
    <path fill="#ffffff" d="M1195,-1674 L1193,-1674 L1178,-1674 L1178,-1661 L1193,-1661 L1194,-1661 Z" transform="matrix(0.33333, 0, 0, 0.33333, 0, 0)"
        stroke="none"/>
    <path fill="none" d="M1195,-1674 L1193,-1674 L1178,-1674 L1178,-1661 L1193,-1661 L1194,-1661" stroke-width="2"
        transform="matrix(0.33333, 0, 0, 0.33333, 0, 0)" stroke="#0c6d9c"/>
    <path fill="#ffffff" d="M1264,-1661 C1266,-1661 1266,-1661 1266,-1661 C1281,-1661 1283,-1648 1283,-1648 C1283,-1661 
        1283,-1661 1283,-1661 C1283,-1661 1281,-1674 1266,-1674 C1263,-1674 1263,-1674 1263,-1674" stroke-width="2"
        transform="matrix(0.33333, 0, 0, 0.33333, 0, 0)" stroke="#0c6d9c"/>
    <path fill="#ffffff" d="M1264,-1661 C1266,-1661 1266,-1661 1266,-1661 C1281,-1661 1283,-1648 1283,-1648 C1283,-1661 
        1283,-1661 1283,-1661 C1283,-1661 1281,-1674 1266,-1674 C1263,-1674 1263,-1674 1263,-1674" stroke-width="2"
        transform="matrix(0.33333, 0, 0, 0.33333, 0, 0)" stroke="#0c6d9c"/>
    <path fill="#ffffff" d="M1283,-1662 C1283,-1646 1283,-1646 1283,-1646 C1281,-1627 1248,-1628 1248,-1628 C1248,-1627 
        1248,-1627 1248,-1627 C1248,-1614 1248,-1614 1248,-1614 C1226,-1636 1226,-1636 1226,-1636 C1248,-1658 1248,-1658 
        1248,-1658 C1248,-1644 1248,-1644 1248,-1644 C1248,-1644 1282,-1643 1283,-1662" stroke-width="2" transform="matrix(0.33333, 0, 0, 0.33333, 0, 0)"
        stroke="#0c6d9c"/>
    <path fill="#ffffff" d="M1283,-1662 C1283,-1646 1283,-1646 1283,-1646 C1281,-1627 1248,-1628 1248,-1628 C1248,-1627 
        1248,-1627 1248,-1627 C1248,-1614 1248,-1614 1248,-1614 C1226,-1636 1226,-1636 1226,-1636 C1248,-1658 1248,-1658 
        1248,-1658 C1248,-1644 1248,-1644 1248,-1644 C1248,-1644 1282,-1643 1283,-1662" stroke-width="2" transform="matrix(0.33333, 0, 0, 0.33333, 0, 0)"
        stroke="#0c6d9c"/>
    <path fill="#ffffff" d="M1176,-1610 C1176,-1626 1176,-1626 1176,-1626 C1177,-1645 1200,-1644 1200,-1644 C1200,-1645 
        1200,-1645 1200,-1645 C1200,-1658 1200,-1658 1200,-1658 C1222,-1636 1222,-1636 1222,-1636 C1200,-1614 1200,-1614 
        1200,-1614 C1200,-1628 1200,-1628 1200,-1628 C1200,-1628 1177,-1629 1176,-1610" stroke-width="2" transform="matrix(0.33333, 0, 0, 0.33333, 0, 0)"
        stroke="#0c6d9c"/>
    <path fill="#ffffff" d="M1176,-1610 C1176,-1626 1176,-1626 1176,-1626 C1177,-1645 1200,-1644 1200,-1644 C1200,-1645 
        1200,-1645 1200,-1645 C1200,-1658 1200,-1658 1200,-1658 C1222,-1636 1222,-1636 1222,-1636 C1200,-1614 1200,-1614 
        1200,-1614 C1200,-1628 1200,-1628 1200,-1628 C1200,-1628 1177,-1629 1176,-1610" stroke-width="2" transform="matrix(0.33333, 0, 0, 0.33333, 0, 0)"
        stroke="#0c6d9c"/>
</svg>