<?xml version="1.0" standalone="no"?>
<!DOCTYPE svg PUBLIC "-//W3C//DTD SVG 1.0//EN"
    "http://www.w3.org/TR/2001/REC-SVG-20010904/DTD/svg10.dtd">
<?xml-stylesheet type="text/css" href="..\cisco_network.css" ?>
<svg contentScriptType="text/ecmascript" zoomAndPan="magnify" xmlns:xlink="http://www.w3.org/1999/xlink" baseProfile="full"
    contentStyleType="text/css" enable-background="new" version="1.0" width="75.3165" preserveAspectRatio="none"
    viewBox="356.99 -556 85.024 44.992" height="39.8551" xmlns="http://www.w3.org/2000/svg" color-interpolation-filters="sRGB"
    x="0" y="1.5">
    <path stroke-linecap="round" transform="matrix(0.33333, 0, 0, 0.33333, 0, 0)" fill="none" stroke-linejoin="round" d=
        "M1248,-1560 C1249,-1554 1246,-1547 1240,-1542 C1234,-1536 1226,-1534 1220,-1535" stroke="#036998" stroke-width="2"/>
    <path stroke-linecap="round" transform="matrix(0.33333, 0, 0, 0.33333, 0, 0)" fill="none" stroke-linejoin="round" d=
        "M1245,-1561 C1246,-1555 1243,-1549 1238,-1544 C1232,-1539 1225,-1537 1219,-1538" stroke="#036998" stroke-width="2"/>
    <path stroke-linecap="round" transform="matrix(0.33333, 0, 0, 0.33333, 0, 0)" fill="none" stroke-linejoin="round" d=
        "M1243,-1562 C1243,-1556 1241,-1550 1236,-1546 C1231,-1541 1224,-1539 1219,-1541" stroke="#036998" stroke-width="2"/>
    <path stroke-linecap="round" transform="matrix(0.33333, 0, 0, 0.33333, 0, 0)" fill="none" stroke-linejoin="round" d=
        "M1240,-1563 C1240,-1558 1238,-1552 1234,-1548 C1229,-1544 1223,-1542 1218,-1543" stroke="#036998" stroke-width="2"/>
    <path stroke-linecap="round" transform="matrix(0.33333, 0, 0, 0.33333, 0, 0)" fill="none" stroke-linejoin="round" d=
        "M1237,-1564 C1238,-1559 1236,-1554 1232,-1550 C1227,-1546 1222,-1545 1217,-1546" stroke="#036998" stroke-width="2"/>
    <path stroke-linecap="round" transform="matrix(0.33333, 0, 0, 0.33333, 0, 0)" fill="none" stroke-linejoin="round" d=
        "M1235,-1564 C1235,-1560 1233,-1556 1229,-1553 C1226,-1549 1221,-1548 1216,-1549" stroke="#036998" stroke-width="2"/>
    <path stroke-linecap="round" transform="matrix(0.33333, 0, 0, 0.33333, 0, 0)" fill="none" stroke-linejoin="round" d=
        "M1232,-1565 C1232,-1562 1231,-1558 1227,-1555 C1224,-1552 1219,-1550 1216,-1551" stroke="#036998" stroke-width="2"/>
    <path stroke-linecap="round" transform="matrix(0.33333, 0, 0, 0.33333, 0, 0)" fill="none" stroke-linejoin="round" d=
        "M1229,-1566 C1230,-1563 1228,-1560 1225,-1557 C1222,-1554 1218,-1553 1215,-1554" stroke="#036998" stroke-width="2"/>
    <path d="M1072,-1589 L1072,-1595 L1126,-1614 L1150,-1610 L1165,-1607 L1175,-1605 L1175,-1598 Z" stroke="none"
        transform="matrix(0.33333, 0, 0, 0.33333, 0, 0)"/>
    <path fill="none" d="M1072,-1589 L1072,-1595 L1126,-1614 L1150,-1610 L1165,-1607 L1175,-1605 L1175,-1598"
        stroke-width="2" transform="matrix(0.33333, 0, 0, 0.33333, 0, 0)"/>
    <path d="M1198,-1667 C1191,-1667 1185,-1665 1185,-1662 C1185,-1659 1191,-1656 1198,-1656 C1204,-1656 1210,-1659 
        1210,-1662 C1210,-1665 1204,-1667 1198,-1667 Z" stroke-width="2" transform="matrix(0.33333, 0, 0, 0.33333, 0, 0)"/>
    <path d="M1149,-1604 L1126,-1607 L1072,-1589 L1119,-1582 L1175,-1598 L1159,-1601 Z" stroke="none" transform="matrix(0.33333, 0, 0, 0.33333, 0, 0)"/>
    <path fill="none" d="M1149,-1604 L1126,-1607 L1072,-1589 L1119,-1582 L1175,-1598 L1159,-1601" stroke-width="2"
        transform="matrix(0.33333, 0, 0, 0.33333, 0, 0)"/>
    <path d="M1153,-1605 C1136,-1600 1133,-1596 1133,-1596 C1138,-1593 1158,-1601 1158,-1601 C1162,-1602 1162,-1602 
        1162,-1602 Z" stroke-width="2" transform="matrix(0.33333, 0, 0, 0.33333, 0, 0)"/>
    <path d="M1159,-1601 C1175,-1598 1175,-1598 1175,-1598 C1119,-1582 1119,-1582 1119,-1582 C1072,-1589 1072,-1589 
        1072,-1589 C1126,-1607 1126,-1607 1126,-1607 C1149,-1604 1149,-1604 1149,-1604 C1136,-1600 1133,-1596 1133,-1596 
        C1138,-1593 1156,-1600 1156,-1600 C1156,-1600 1156,-1600 1156,-1600 C1172,-1605 1172,-1605 1172,-1605 
        C1172,-1614 1172,-1614 1172,-1614 C1151,-1607 1151,-1607 1151,-1607 C1151,-1607 1151,-1607 1151,-1607 
        C1151,-1607 1150,-1604 1150,-1604" stroke-width="2" transform="matrix(0.33333, 0, 0, 0.33333, 0, 0)"/>
    <path d="M1159,-1601 C1175,-1598 1175,-1598 1175,-1598 C1119,-1582 1119,-1582 1119,-1582 C1072,-1589 1072,-1589 
        1072,-1589 C1126,-1607 1126,-1607 1126,-1607 C1149,-1604 1149,-1604 1149,-1604 C1136,-1600 1133,-1596 1133,-1596 
        C1138,-1593 1156,-1600 1156,-1600 C1156,-1600 1156,-1600 1156,-1600 C1172,-1605 1172,-1605 1172,-1605 
        C1172,-1614 1172,-1614 1172,-1614 C1151,-1607 1151,-1607 1151,-1607 C1151,-1607 1151,-1607 1151,-1607 
        C1151,-1607 1150,-1604 1150,-1604" stroke-width="2" transform="matrix(0.33333, 0, 0, 0.33333, 0, 0)"/>
    <path d="M1151,-1604 C1151,-1604 1151,-1603 1151,-1603 C1151,-1603 1151,-1603 1151,-1603 C1151,-1603 1151,-1603 
        1151,-1603 C1151,-1603 1151,-1604 1151,-1604 Z" stroke-width="2" transform="matrix(0.33333, 0, 0, 0.33333, 0, 0)"/>
    <path d="M1223,-1583 C1223,-1650 1223,-1650 1223,-1650 C1223,-1656 1212,-1661 1198,-1661 C1184,-1661 1172,-1656 
        1172,-1650 C1172,-1583 1172,-1583 1172,-1583" stroke-width="2" transform="matrix(0.33333, 0, 0, 0.33333, 0, 0)"/>
    <path d="M1223,-1583 C1223,-1650 1223,-1650 1223,-1650 C1223,-1656 1212,-1661 1198,-1661 C1184,-1661 1172,-1656 
        1172,-1650 C1172,-1583 1172,-1583 1172,-1583" stroke-width="2" transform="matrix(0.33333, 0, 0, 0.33333, 0, 0)"/>
    <path d="M1220,-1636 L1220,-1642 L1276,-1662 L1326,-1650 L1326,-1643 Z" stroke="none" transform="matrix(0.33333, 0, 0, 0.33333, 0, 0)"/>
    <path fill="none" d="M1220,-1636 L1220,-1642 L1276,-1662 L1326,-1650 L1326,-1643" stroke-width="2" transform="matrix(0.33333, 0, 0, 0.33333, 0, 0)"/>
    <path d="M1238,-1633 L1220,-1636 L1276,-1654 L1326,-1643 L1267,-1626 L1253,-1629 Z" stroke="none" transform="matrix(0.33333, 0, 0, 0.33333, 0, 0)"/>
    <path fill="none" d="M1238,-1633 L1220,-1636 L1276,-1654 L1326,-1643 L1267,-1626 L1253,-1629" stroke-width="2"
        transform="matrix(0.33333, 0, 0, 0.33333, 0, 0)"/>
    <path d="M1254,-1629 C1266,-1632 1271,-1638 1271,-1638 C1252,-1638 1239,-1633 1239,-1633" stroke-width="2"
        transform="matrix(0.33333, 0, 0, 0.33333, 0, 0)"/>
    <path d="M1254,-1629 C1266,-1632 1271,-1638 1271,-1638 C1252,-1638 1239,-1633 1239,-1633" stroke-width="2"
        transform="matrix(0.33333, 0, 0, 0.33333, 0, 0)"/>
    <path d="M1255,-1629 C1213,-1617 1213,-1617 1213,-1617 C1208,-1617 1208,-1622 1208,-1622 C1208,-1625 1213,-1626 
        1213,-1626 C1240,-1633 1240,-1633 1240,-1633" stroke-width="2" transform="matrix(0.33333, 0, 0, 0.33333, 0, 0)"/>
    <path d="M1255,-1629 C1213,-1617 1213,-1617 1213,-1617 C1208,-1617 1208,-1622 1208,-1622 C1208,-1625 1213,-1626 
        1213,-1626 C1240,-1633 1240,-1633 1240,-1633" stroke-width="2" transform="matrix(0.33333, 0, 0, 0.33333, 0, 0)"/>
    <path d="M1240,-1633 C1240,-1633 1240,-1633 1240,-1633 C1240,-1633 1240,-1633 1240,-1633 C1241,-1633 1241,-1633 
        1241,-1633 C1241,-1633 1241,-1633 1240,-1633 Z" stroke-width="2" transform="matrix(0.33333, 0, 0, 0.33333, 0, 0)"/>
    <path d="M1169,-1565 C1169,-1571 1182,-1576 1198,-1576 C1214,-1576 1227,-1571 1227,-1565 C1227,-1581 1227,-1581 
        1227,-1581 C1227,-1588 1214,-1593 1198,-1593 C1182,-1593 1169,-1588 1169,-1581 Z" stroke-width="2" transform="matrix(0.33333, 0, 0, 0.33333, 0, 0)"/>
    <path d="M1198,-1576 C1182,-1576 1169,-1571 1169,-1565 C1169,-1559 1182,-1553 1198,-1553 C1214,-1553 1227,-1559 
        1227,-1565 C1227,-1571 1214,-1576 1198,-1576 Z" stroke-width="2" transform="matrix(0.33333, 0, 0, 0.33333, 0, 0)"/>
    <path fill="#ffffff" d="M1205,-1560 L1202,-1564 L1211,-1566 L1209,-1564 L1223,-1562 L1220,-1559 L1206,-1562 
        L1205,-1560 Z M1192,-1569 L1193,-1565 L1185,-1564 L1187,-1565 L1173,-1567 L1176,-1570 L1190,-1567 L1192,-1569 Z 
        M1196,-1558 L1187,-1556 L1187,-1560 L1189,-1559 L1194,-1563 L1198,-1562 L1193,-1559 L1196,-1558 Z M1200,-1572 
        L1209,-1574 L1209,-1570 L1207,-1571 L1202,-1567 L1198,-1567 L1203,-1572 L1200,-1572 Z" transform="matrix(0.33333, 0, 0, 0.33333, 0, 0)"
        stroke="none"/>
</svg>