<?xml version="1.0" standalone="no"?>
<!DOCTYPE svg PUBLIC "-//W3C//DTD SVG 1.0//EN"
    "http://www.w3.org/TR/2001/REC-SVG-20010904/DTD/svg10.dtd">
<?xml-stylesheet type="text/css" href="..\cisco_network.css" ?>
<svg contentScriptType="text/ecmascript" zoomAndPan="magnify" xmlns:xlink="http://www.w3.org/1999/xlink" baseProfile="full"
    contentStyleType="text/css" enable-background="new" version="1.0" width="30.1039" preserveAspectRatio="none"
    viewBox="386.02 -568 33.984 59.008" height="52.2709" xmlns="http://www.w3.org/2000/svg" color-interpolation-filters="sRGB"
    x="0" y="1.5">
    <path d="M1186,-1632 C1178,-1630 1159,-1623 1159,-1613 C1159,-1613 1159,-1613 1159,-1613 C1159,-1603 1179,-1595 
        1187,-1593" stroke-width="2" transform="matrix(0.33333, 0, 0, 0.33333, 0, 0)"/>
    <path d="M1186,-1632 C1178,-1630 1159,-1623 1159,-1613 C1159,-1613 1159,-1613 1159,-1613 C1159,-1603 1179,-1595 
        1187,-1593" stroke-width="2" transform="matrix(0.33333, 0, 0, 0.33333, 0, 0)"/>
    <path d="M1230,-1703 C1223,-1703 1196,-1678 1189,-1650 C1185,-1637 1187,-1622 1187,-1610 C1187,-1600 1185,-1589 
        1189,-1577 C1196,-1551 1224,-1528 1232,-1528" stroke-width="2" transform="matrix(0.33333, 0, 0, 0.33333, 0, 0)"/>
    <path d="M1230,-1703 C1223,-1703 1196,-1678 1189,-1650 C1185,-1637 1187,-1622 1187,-1610 C1187,-1600 1185,-1589 
        1189,-1577 C1196,-1551 1224,-1528 1232,-1528" stroke-width="2" transform="matrix(0.33333, 0, 0, 0.33333, 0, 0)"/>
    <path d="M1234,-1527 C1248,-1527 1259,-1567 1259,-1616 C1259,-1665 1248,-1705 1234,-1705 C1220,-1705 1209,-1665 
        1209,-1616 C1209,-1567 1220,-1527 1234,-1527 Z" stroke-width="2" transform="matrix(0.33333, 0, 0, 0.33333, 0, 0)"/>
    <path d="M1255,-1628 C1255,-1632 1250,-1634 1245,-1634 C1245,-1634 1245,-1634 1245,-1634 C1239,-1634 1235,-1638 
        1235,-1632 C1235,-1596 1235,-1596 1235,-1596 C1235,-1590 1240,-1595 1245,-1595 C1245,-1595 1245,-1595 1245,-1595 
        C1251,-1595 1255,-1598 1255,-1601 Z" stroke-width="2" transform="matrix(0.33333, 0, 0, 0.33333, 0, 0)"/>
    <path d="M1218,-1553 C1234,-1580 1234,-1580 1234,-1580 C1237,-1585 1239,-1579 1244,-1576 C1244,-1576 1244,-1576 
        1244,-1576 C1250,-1573 1252,-1568 1250,-1564 C1237,-1542 1237,-1542 1237,-1542 C1235,-1539 1229,-1539 1224,-1542 
        C1224,-1542 1224,-1542 1224,-1542 C1223,-1542 1222,-1543 1221,-1543" stroke-width="2" transform="matrix(0.33333, 0, 0, 0.33333, 0, 0)"/>
    <path d="M1218,-1553 C1234,-1580 1234,-1580 1234,-1580 C1237,-1585 1239,-1579 1244,-1576 C1244,-1576 1244,-1576 
        1244,-1576 C1250,-1573 1252,-1568 1250,-1564 C1237,-1542 1237,-1542 1237,-1542 C1235,-1539 1229,-1539 1224,-1542 
        C1224,-1542 1224,-1542 1224,-1542 C1223,-1542 1222,-1543 1221,-1543" stroke-width="2" transform="matrix(0.33333, 0, 0, 0.33333, 0, 0)"/>
    <path d="M1212,-1578 C1214,-1575 1215,-1573 1218,-1573 C1225,-1573 1232,-1591 1232,-1613 C1232,-1635 1225,-1653 
        1218,-1653 C1215,-1653 1213,-1650 1210,-1645" stroke-width="2" transform="matrix(0.33333, 0, 0, 0.33333, 0, 0)"/>
    <path d="M1212,-1578 C1214,-1575 1215,-1573 1218,-1573 C1225,-1573 1232,-1591 1232,-1613 C1232,-1635 1225,-1653 
        1218,-1653 C1215,-1653 1213,-1650 1210,-1645" stroke-width="2" transform="matrix(0.33333, 0, 0, 0.33333, 0, 0)"/>
    <path d="M1210,-1593 C1216,-1593 1216,-1593 1216,-1593 C1227,-1593 1227,-1602 1227,-1613 C1227,-1613 1227,-1613 
        1227,-1613 C1227,-1624 1227,-1633 1216,-1633 C1210,-1633 1210,-1633 1210,-1633" stroke-width="2" transform="matrix(0.33333, 0, 0, 0.33333, 0, 0)"/>
    <path d="M1210,-1593 C1216,-1593 1216,-1593 1216,-1593 C1227,-1593 1227,-1602 1227,-1613 C1227,-1613 1227,-1613 
        1227,-1613 C1227,-1624 1227,-1633 1216,-1633 C1210,-1633 1210,-1633 1210,-1633" stroke-width="2" transform="matrix(0.33333, 0, 0, 0.33333, 0, 0)"/>
    <path d="M1219,-1682 C1234,-1656 1234,-1656 1234,-1656 C1237,-1651 1239,-1657 1244,-1661 C1244,-1661 1244,-1661 
        1244,-1661 C1250,-1664 1252,-1669 1250,-1672 C1237,-1695 1237,-1695 1237,-1695 C1235,-1698 1230,-1698 
        1225,-1695" stroke-width="2" transform="matrix(0.33333, 0, 0, 0.33333, 0, 0)"/>
    <path d="M1219,-1682 C1234,-1656 1234,-1656 1234,-1656 C1237,-1651 1239,-1657 1244,-1661 C1244,-1661 1244,-1661 
        1244,-1661 C1250,-1664 1252,-1669 1250,-1672 C1237,-1695 1237,-1695 1237,-1695 C1235,-1698 1230,-1698 
        1225,-1695" stroke-width="2" transform="matrix(0.33333, 0, 0, 0.33333, 0, 0)"/>
</svg>