<?xml version="1.0" standalone="no"?>
<!DOCTYPE svg PUBLIC "-//W3C//DTD SVG 1.0//EN"
    "http://www.w3.org/TR/2001/REC-SVG-20010904/DTD/svg10.dtd">
<?xml-stylesheet type="text/css" href="..\cisco_network.css" ?>
<svg contentScriptType="text/ecmascript" zoomAndPan="magnify" xmlns:xlink="http://www.w3.org/1999/xlink" baseProfile="full"
    contentStyleType="text/css" enable-background="new" version="1.0" width="52.2709" preserveAspectRatio="none"
    viewBox="379.01 -622.02 59.008 43.008" height="38.0976" xmlns="http://www.w3.org/2000/svg"
    color-interpolation-filters="sRGB" x="0" y="1.5">
    <path stroke-width="2" d="M1310,-1865 L1314,-1859 L1300,-1788 L1295,-1791 L1310,-1865 Z" transform="matrix(0.33333, 0, 0, 0.33333, 0, 0)"/>
    <path stroke-width="2" d="M1296,-1786 C1296,-1775 1296,-1775 1296,-1775 C1293,-1772 1293,-1772 1293,-1772 
        C1293,-1772 1286,-1770 1288,-1767 C1258,-1739 1258,-1739 1258,-1739 C1258,-1751 1258,-1751 1258,-1751 Z"
        transform="matrix(0.33333, 0, 0, 0.33333, 0, 0)"/>
    <path d="M1141,-1751 L1141,-1739 L1258,-1739 L1258,-1751 L1141,-1751 Z" stroke="none" transform="matrix(0.33333, 0, 0, 0.33333, 0, 0)"/>
    <path fill="none" stroke-width="2" d="M1141,-1751 L1141,-1739 L1258,-1739 L1258,-1751 L1141,-1751" transform="matrix(0.33333, 0, 0, 0.33333, 0, 0)"/>
    <path stroke-width="2" d="M1188,-1785 L1296,-1786 L1258,-1751 L1141,-1751 L1188,-1785 Z M1295,-1791 L1310,-1865 
        L1204,-1865 L1187,-1791 L1295,-1791 Z" transform="matrix(0.33333, 0, 0, 0.33333, 0, 0)"/>
    <path fill="#ffffff" stroke-width="2" d="M1286,-1798 L1298,-1856 L1212,-1856 L1199,-1798 L1286,-1798 Z" transform="matrix(0.33333, 0, 0, 0.33333, 0, 0)"/>
    <path fill="none" d="M1190,-1784 L1163,-1762 M1199,-1784 L1172,-1762 M1208,-1784 L1181,-1762 M1217,-1784 L1189,-1762 
        M1225,-1784 L1198,-1762 M1234,-1784 L1207,-1762 M1243,-1784 L1216,-1762 M1252,-1784 L1224,-1762 M1260,-1784 
        L1233,-1762 M1269,-1784 L1242,-1762 M1278,-1784 L1251,-1762 M1287,-1784 L1259,-1762 M1166,-1765 L1263,-1765 
        M1173,-1770 L1268,-1770 M1179,-1775 L1275,-1775 M1185,-1780 L1281,-1780" stroke-width="2.54" transform="matrix(0.33333, 0, 0, 0.33333, 0, 0)"
        stroke-linejoin="round"/>
    <text font-size="24" transform="matrix(0.33333, 0, 0, 0.33333, 407.2, -605.31)" fill="#000000" font-family="'Helvetica'"
        stroke-linejoin="round" font-style="normal" stroke="none" font-weight="700" xml:space="preserve">SSC</text>
</svg>