<?xml version="1.0" standalone="no"?>
<!DOCTYPE svg PUBLIC "-//W3C//DTD SVG 1.0//EN"
    "http://www.w3.org/TR/2001/REC-SVG-20010904/DTD/svg10.dtd">
<?xml-stylesheet type="text/css" href="..\cisco_network.css" ?>
<svg contentScriptType="text/ecmascript" zoomAndPan="magnify" xmlns:xlink="http://www.w3.org/1999/xlink" baseProfile="full"
    contentStyleType="text/css" enable-background="new" version="1.0" width="25.6819" preserveAspectRatio="none"
    viewBox="396 -567.01 28.992 40" height="35.4331" xmlns="http://www.w3.org/2000/svg" color-interpolation-filters="sRGB"
    x="0" y="1.5">
    <path d="M1255,-1681 L1192,-1681 L1192,-1582 L1255,-1582 Z" stroke="none" transform="matrix(0.33333, 0, 0, 0.33333, 0, 0)"/>
    <path fill="none" d="M1255,-1681 L1192,-1681 L1192,-1582 L1255,-1582" stroke-width="2" transform="matrix(0.33333, 0, 0, 0.33333, 0, 0)"/>
    <path d="M1255,-1582 L1275,-1602 L1275,-1700 L1217,-1700 L1192,-1681 L1255,-1681 L1255,-1582 Z" stroke-width="2"
        transform="matrix(0.33333, 0, 0, 0.33333, 0, 0)"/>
    <path fill="none" d="M1255,-1681 L1275,-1700 M1223,-1681 L1223,-1582 M1224,-1681 L1246,-1700" stroke-width="2"
        transform="matrix(0.33333, 0, 0, 0.33333, 0, 0)"/>
    <path d="M1219,-1659 L1219,-1672 L1197,-1672 L1197,-1659 L1219,-1659 Z M1249,-1659 L1249,-1672 L1228,-1672 
        L1228,-1659 L1249,-1659 Z M1219,-1611 L1219,-1624 L1197,-1624 L1197,-1611 L1219,-1611 Z M1249,-1611 L1249,-1624 
        L1228,-1624 L1228,-1611 L1249,-1611 Z M1219,-1590 L1219,-1603 L1197,-1603 L1197,-1590 L1219,-1590 Z M1249,-1590 
        L1249,-1603 L1228,-1603 L1228,-1590 L1249,-1590 Z" stroke-width="2" transform="matrix(0.33333, 0, 0, 0.33333, 0, 0)"/>
</svg>