<?xml version="1.0" standalone="no"?>
<!DOCTYPE svg PUBLIC "-//W3C//DTD SVG 1.0//EN"
    "http://www.w3.org/TR/2001/REC-SVG-20010904/DTD/svg10.dtd">
<?xml-stylesheet type="text/css" href="..\cisco_network.css" ?>
<svg contentScriptType="text/ecmascript" zoomAndPan="magnify" xmlns:xlink="http://www.w3.org/1999/xlink" baseProfile="full"
    contentStyleType="text/css" enable-background="new" version="1.0" width="13.2661" preserveAspectRatio="none"
    viewBox="398.02 -568 14.976 40" height="35.4331" xmlns="http://www.w3.org/2000/svg" color-interpolation-filters="sRGB"
    x="0" y="1.5">
    <path d="M1195,-1636 C1205,-1636 1205,-1636 1205,-1636 C1195,-1584 1195,-1584 1195,-1584 C1209,-1584 1209,-1584 
        1209,-1584 C1217,-1622 1217,-1622 1217,-1622 C1217,-1622 1222,-1592 1224,-1584 C1226,-1584 1234,-1584 1238,-1584 
        C1237,-1588 1230,-1632 1229,-1636 C1231,-1636 1237,-1636 1239,-1636 C1239,-1638 1237,-1650 1237,-1653 
        C1237,-1656 1235,-1668 1234,-1671 C1233,-1674 1228,-1677 1226,-1678 C1223,-1679 1218,-1679 1215,-1679 
        C1212,-1679 1209,-1678 1206,-1677 C1204,-1677 1201,-1673 1200,-1671 C1200,-1669 1199,-1662 1198,-1658 
        C1197,-1655 1197,-1642 1196,-1640 C1195,-1638 1195,-1636 1195,-1636 Z" transform="matrix(0.33333, 0, 0, 0.33333, 0, 0)"
        stroke="none"/>
    <path fill="#ffffff" d="M1223,-1679 C1222,-1679 1220,-1679 1218,-1679 C1217,-1679 1214,-1679 1213,-1679 C1212,-1679 
        1209,-1678 1209,-1678 C1209,-1678 1208,-1678 1208,-1678 C1215,-1654 1215,-1654 1215,-1654 C1225,-1678 1225,-1678 
        1225,-1678 C1225,-1679 1224,-1678 1224,-1679" transform="matrix(0.33333, 0, 0, 0.33333, 0, 0)"/>
    <path fill="#ffffff" d="M1223,-1679 C1222,-1679 1220,-1679 1218,-1679 C1217,-1679 1214,-1679 1213,-1679 C1212,-1679 
        1209,-1678 1209,-1678 C1209,-1678 1208,-1678 1208,-1678 C1215,-1654 1215,-1654 1215,-1654 C1225,-1678 1225,-1678 
        1225,-1678 C1225,-1679 1224,-1678 1224,-1679" transform="matrix(0.33333, 0, 0, 0.33333, 0, 0)"/>
    <path fill="#ffffff" d="M1217,-1679 C1223,-1679 1229,-1685 1229,-1691 C1229,-1698 1223,-1703 1217,-1703 C1210,-1703 
        1205,-1698 1205,-1691 C1205,-1685 1210,-1679 1217,-1679 Z" stroke-width="2" transform="matrix(0.33333, 0, 0, 0.33333, 0, 0)"
        stroke="#126d99"/>
</svg>