<?xml version="1.0" standalone="no"?>
<!DOCTYPE svg PUBLIC "-//W3C//DTD SVG 1.0//EN"
    "http://www.w3.org/TR/2001/REC-SVG-20010904/DTD/svg10.dtd">
<?xml-stylesheet type="text/css" href="..\cisco_network.css" ?>
<svg contentScriptType="text/ecmascript" zoomAndPan="magnify" xmlns:xlink="http://www.w3.org/1999/xlink" baseProfile="full"
    contentStyleType="text/css" enable-background="new" version="1.0" width="48.7276" preserveAspectRatio="none"
    viewBox="380 -558.02 55.008 24" height="21.2598" xmlns="http://www.w3.org/2000/svg" color-interpolation-filters="sRGB"
    x="0" y="1.5">
    <path stroke-width="2" d="M1281,-1604 C1305,-1637 1305,-1637 1305,-1637 C1305,-1661 1305,-1661 1305,-1661 
        C1305,-1667 1300,-1673 1293,-1673 C1172,-1673 1172,-1673 1172,-1673 C1166,-1673 1164,-1668 1160,-1664 
        C1142,-1645 1142,-1645 1142,-1645" transform="matrix(0.33333, 0, 0, 0.33333, 0, 0)"/>
    <path stroke-width="2" d="M1281,-1604 C1305,-1637 1305,-1637 1305,-1637 C1305,-1661 1305,-1661 1305,-1661 
        C1305,-1667 1300,-1673 1293,-1673 C1172,-1673 1172,-1673 1172,-1673 C1166,-1673 1164,-1668 1160,-1664 
        C1142,-1645 1142,-1645 1142,-1645" transform="matrix(0.33333, 0, 0, 0.33333, 0, 0)"/>
    <path stroke-width="2" d="M1285,-1613 C1285,-1607 1280,-1602 1273,-1602 C1152,-1602 1152,-1602 1152,-1602 
        C1146,-1602 1141,-1607 1141,-1613 C1141,-1637 1141,-1637 1141,-1637 C1141,-1643 1146,-1649 1152,-1649 
        C1273,-1649 1273,-1649 1273,-1649 C1280,-1649 1285,-1643 1285,-1637 Z" transform="matrix(0.33333, 0, 0, 0.33333, 0, 0)"/>
    <path stroke-width="2" d="M1245,-1625 L1184,-1625 L1184,-1645 L1245,-1645 L1245,-1625 Z" transform="matrix(0.33333, 0, 0, 0.33333, 0, 0)"/>
    <path d="M1259,-1637 C1259,-1635 1257,-1633 1255,-1633 C1253,-1633 1252,-1635 1252,-1637 C1252,-1639 1253,-1641 
        1255,-1641 C1257,-1641 1259,-1639 1259,-1637 Z" stroke-width="2" transform="matrix(0.33333, 0, 0, 0.33333, 0, 0)"/>
    <path d="M1259,-1627 C1259,-1625 1257,-1623 1255,-1623 C1253,-1623 1252,-1625 1252,-1627 C1252,-1629 1253,-1630 
        1255,-1630 C1257,-1630 1259,-1629 1259,-1627 Z" stroke-width="2" transform="matrix(0.33333, 0, 0, 0.33333, 0, 0)"/>
    <path d="M1259,-1616 C1259,-1614 1257,-1612 1255,-1612 C1253,-1612 1252,-1614 1252,-1616 C1252,-1618 1253,-1620 
        1255,-1620 C1257,-1620 1259,-1618 1259,-1616 Z" stroke-width="2" transform="matrix(0.33333, 0, 0, 0.33333, 0, 0)"/>
    <path d="M1234,-1613 C1234,-1610 1226,-1607 1216,-1607 C1207,-1607 1199,-1610 1199,-1613 C1199,-1615 1207,-1618 
        1216,-1618 C1226,-1618 1234,-1615 1234,-1613 Z" stroke-width="2" transform="matrix(0.33333, 0, 0, 0.33333, 0, 0)"/>
</svg>