<?xml version="1.0" standalone="no"?>
<!DOCTYPE svg PUBLIC "-//W3C//DTD SVG 1.0//EN"
    "http://www.w3.org/TR/2001/REC-SVG-20010904/DTD/svg10.dtd">
<?xml-stylesheet type="text/css" href="..\cisco_network.css" ?>
<svg contentScriptType="text/ecmascript" zoomAndPan="magnify" xmlns:xlink="http://www.w3.org/1999/xlink" baseProfile="full"
    contentStyleType="text/css" enable-background="new" version="1.0" width="31.011" preserveAspectRatio="none" viewBox="384.99 -572.99 35.008 52.992"
    height="46.9417" xmlns="http://www.w3.org/2000/svg" color-interpolation-filters="sRGB" x="0" y="1.5">
    <path d="M1238,-1700 L1177,-1700 L1177,-1563 L1238,-1563 Z" stroke="none" transform="matrix(0.33333, 0, 0, 0.33333, 0, 0)"/>
    <path fill="none" d="M1238,-1700 L1177,-1700 L1177,-1563 L1238,-1563" stroke-width="2" transform="matrix(0.33333, 0, 0, 0.33333, 0, 0)"/>
    <path d="M1238,-1563 L1258,-1583 L1258,-1720 L1196,-1720 L1177,-1700 L1238,-1700 L1238,-1563 Z" stroke-width="2"
        transform="matrix(0.33333, 0, 0, 0.33333, 0, 0)"/>
    <path fill="none" d="M1238,-1700 L1258,-1720" stroke-width="2" transform="matrix(0.33333, 0, 0, 0.33333, 0, 0)"/>
    <path d="M1213,-1637 L1213,-1642 L1182,-1642 L1182,-1637 L1213,-1637 Z M1213,-1628 L1213,-1633 L1182,-1633 
        L1182,-1628 L1213,-1628 Z M1213,-1619 L1213,-1623 L1182,-1623 L1182,-1619 L1213,-1619 Z M1213,-1609 L1213,-1614 
        L1182,-1614 L1182,-1609 L1213,-1609 Z M1213,-1600 L1213,-1605 L1182,-1605 L1182,-1600 L1213,-1600 Z M1213,-1591 
        L1213,-1595 L1182,-1595 L1182,-1591 L1213,-1591 Z M1213,-1581 L1213,-1586 L1182,-1586 L1182,-1581 L1213,-1581 Z 
        M1213,-1572 L1213,-1577 L1182,-1577 L1182,-1572 L1213,-1572 Z" stroke-width="2" transform="matrix(0.33333, 0, 0, 0.33333, 0, 0)"/>
    <path d="M1217,-1684 C1217,-1678 1203,-1672 1185,-1672 C1168,-1672 1154,-1678 1154,-1684 C1154,-1657 1154,-1657 
        1154,-1657 C1154,-1651 1168,-1646 1185,-1646 C1203,-1646 1217,-1651 1217,-1657 Z" stroke-width="2" transform="matrix(0.33333, 0, 0, 0.33333, 0, 0)"/>
    <path d="M1185,-1672 C1203,-1672 1217,-1678 1217,-1684 C1217,-1690 1203,-1696 1185,-1696 C1168,-1696 1154,-1690 
        1154,-1684 C1154,-1678 1168,-1672 1185,-1672 Z" stroke-width="2" transform="matrix(0.33333, 0, 0, 0.33333, 0, 0)"/>
    <path d="M1250,-1660 C1250,-1654 1236,-1648 1219,-1648 C1202,-1648 1188,-1654 1188,-1660 C1188,-1633 1188,-1633 
        1188,-1633 C1188,-1627 1202,-1622 1219,-1622 C1236,-1622 1250,-1627 1250,-1633 Z" stroke-width="2" transform="matrix(0.33333, 0, 0, 0.33333, 0, 0)"/>
    <path d="M1219,-1648 C1236,-1648 1250,-1654 1250,-1660 C1250,-1666 1236,-1672 1219,-1672 C1202,-1672 1188,-1666 
        1188,-1660 C1188,-1654 1202,-1648 1219,-1648 Z" stroke-width="2" transform="matrix(0.33333, 0, 0, 0.33333, 0, 0)"/>
</svg>