<?xml version="1.0" standalone="no"?>
<!DOCTYPE svg PUBLIC "-//W3C//DTD SVG 1.0//EN"
    "http://www.w3.org/TR/2001/REC-SVG-20010904/DTD/svg10.dtd">
<?xml-stylesheet type="text/css" href="..\cisco_network.css" ?>
<svg contentScriptType="text/ecmascript" zoomAndPan="magnify" xmlns:xlink="http://www.w3.org/1999/xlink" baseProfile="full"
    contentStyleType="text/css" enable-background="new" version="1.0" width="38.9764" preserveAspectRatio="none"
    viewBox="387.01 -544.99 44 33.984" height="30.1039" xmlns="http://www.w3.org/2000/svg" color-interpolation-filters="sRGB"
    x="0" y="1.5">
    <path d="M1260,-1569 L1260,-1600 L1162,-1600 L1162,-1569 L1260,-1569 Z M1162,-1600 L1201,-1632 L1292,-1632 
        L1260,-1600 L1162,-1600 Z M1260,-1568 L1292,-1601 L1292,-1632 L1260,-1600 L1260,-1568 Z M1260,-1535 L1260,-1569 
        L1162,-1569 L1162,-1535 L1260,-1535 Z M1260,-1534 L1292,-1567 L1292,-1601 L1260,-1569 L1260,-1534 Z" stroke="none"
        transform="matrix(0.33333, 0, 0, 0.33333, 0, 0)"/>
    <path d="M1260,-1569 L1260,-1600 L1162,-1600 L1162,-1569 L1260,-1569 Z M1162,-1600 L1201,-1632 L1292,-1632 
        L1260,-1600 L1162,-1600 Z M1260,-1568 L1292,-1601 L1292,-1632 L1260,-1600 L1260,-1568 Z M1260,-1535 L1260,-1569 
        L1162,-1569 L1162,-1535 L1260,-1535 Z M1260,-1534 L1292,-1567 L1292,-1601 L1260,-1569 L1260,-1534 Z"
        stroke-width="2" transform="matrix(0.33333, 0, 0, 0.33333, 0, 0)"/>
    <path fill="none" d="M1260,-1569 L1260,-1600 L1162,-1600 L1162,-1569 L1260,-1569 Z M1162,-1600 L1201,-1632 
        L1292,-1632 L1260,-1600 L1162,-1600 Z M1260,-1568 L1292,-1601 L1292,-1632 L1260,-1600 L1260,-1568 Z M1260,-1535 
        L1260,-1569 L1162,-1569 L1162,-1535 L1260,-1535 Z M1260,-1534 L1292,-1567 L1292,-1601 L1260,-1569 L1260,-1534 Z"
        stroke-width="2" transform="matrix(0.33333, 0, 0, 0.33333, 0, 0)"/>
    <path d="M1260,-1569 L1260,-1600 L1162,-1600 L1162,-1569 L1260,-1569 Z M1162,-1600 L1201,-1632 L1292,-1632 
        L1260,-1600 L1162,-1600 Z M1260,-1568 L1292,-1601 L1292,-1632 L1260,-1600 L1260,-1568 Z M1260,-1535 L1260,-1569 
        L1162,-1569 L1162,-1535 L1260,-1535 Z M1260,-1534 L1292,-1567 L1292,-1601 L1260,-1569 L1260,-1534 Z" stroke="none"
        transform="matrix(0.33333, 0, 0, 0.33333, 0, 0)"/>
    <path d="M1260,-1569 L1260,-1600 L1162,-1600 L1162,-1569 L1260,-1569 Z M1162,-1600 L1201,-1632 L1292,-1632 
        L1260,-1600 L1162,-1600 Z M1260,-1568 L1292,-1601 L1292,-1632 L1260,-1600 L1260,-1568 Z M1260,-1535 L1260,-1569 
        L1162,-1569 L1162,-1535 L1260,-1535 Z M1260,-1534 L1292,-1567 L1292,-1601 L1260,-1569 L1260,-1534 Z"
        stroke-width="2" transform="matrix(0.33333, 0, 0, 0.33333, 0, 0)"/>
    <path fill="none" d="M1260,-1569 L1260,-1600 L1162,-1600 L1162,-1569 L1260,-1569 Z M1162,-1600 L1201,-1632 
        L1292,-1632 L1260,-1600 L1162,-1600 Z M1260,-1568 L1292,-1601 L1292,-1632 L1260,-1600 L1260,-1568 Z M1260,-1535 
        L1260,-1569 L1162,-1569 L1162,-1535 L1260,-1535 Z M1260,-1534 L1292,-1567 L1292,-1601 L1260,-1569 L1260,-1534 Z"
        stroke-width="2" transform="matrix(0.33333, 0, 0, 0.33333, 0, 0)"/>
    <path fill="#ffffff" d="M1232,-1618 L1238,-1617 L1255,-1621 L1261,-1620 L1258,-1624 L1238,-1624 L1247,-1623 
        L1232,-1618 L1232,-1618 Z M1198,-1623 L1204,-1624 L1220,-1620 L1226,-1621 L1223,-1617 L1204,-1617 L1213,-1618 
        L1198,-1623 L1198,-1623 Z M1259,-1608 L1253,-1606 L1238,-1611 L1231,-1609 L1234,-1614 L1253,-1614 L1246,-1612 
        L1259,-1608 L1259,-1608 Z M1225,-1612 L1219,-1614 L1204,-1609 L1196,-1611 L1199,-1606 L1219,-1606 L1210,-1608 
        L1225,-1612 L1225,-1612 Z" transform="matrix(0.33333, 0, 0, 0.33333, 0, 0)" stroke="none"/>
    <path fill="#ffffff" d="M1211,-1573 C1218,-1573 1223,-1575 1223,-1577 C1223,-1579 1218,-1580 1211,-1580 C1205,-1580 
        1199,-1579 1199,-1577 C1199,-1575 1205,-1573 1211,-1573 Z" transform="matrix(0.33333, 0, 0, 0.33333, 0, 0)"
        stroke="#000000" stroke-linecap="round" stroke-linejoin="round"/>
    <path fill="#ffffff" d="M1223,-1593 C1223,-1591 1218,-1590 1211,-1590 C1205,-1590 1199,-1591 1199,-1593 C1199,-1578 
        1199,-1578 1199,-1578 C1199,-1576 1205,-1575 1211,-1575 C1218,-1575 1223,-1576 1223,-1578 Z" transform="matrix(0.33333, 0, 0, 0.33333, 0, 0)"
        stroke="#000000" stroke-linecap="round" stroke-linejoin="round"/>
    <path fill="#ffffff" d="M1211,-1590 C1218,-1590 1223,-1591 1223,-1593 C1223,-1595 1218,-1597 1211,-1597 C1205,-1597 
        1199,-1595 1199,-1593 C1199,-1591 1205,-1590 1211,-1590 Z" transform="matrix(0.33333, 0, 0, 0.33333, 0, 0)"
        stroke="#000000" stroke-linecap="round" stroke-linejoin="round"/>
    <path fill="none" d="M1162,-1569 L1260,-1569" stroke-width="2" transform="matrix(0.33333, 0, 0, 0.33333, 0, 0)"
        stroke-linecap="round" stroke-linejoin="round"/>
    <path fill="#ffffff" d="M1200,-1553 L1182,-1553 L1182,-1554 L1175,-1552 L1182,-1550 L1182,-1551 L1200,-1551 
        L1200,-1553 Z M1210,-1548 L1210,-1541 L1205,-1541 L1212,-1539 L1219,-1541 L1214,-1541 L1214,-1548 L1210,-1548 Z 
        M1210,-1556 L1210,-1563 L1205,-1563 L1212,-1565 L1219,-1563 L1214,-1563 L1214,-1556 L1210,-1556 Z M1225,-1551 
        L1243,-1551 L1243,-1550 L1250,-1552 L1243,-1554 L1243,-1553 L1225,-1553 L1225,-1551 Z" transform="matrix(0.33333, 0, 0, 0.33333, 0, 0)"
        stroke="none"/>
    <path fill="none" stroke-width="2" d="M1241,-1542 C1238,-1540 1222,-1544 1206,-1549 C1191,-1555 1180,-1561 
        1184,-1562 C1187,-1563 1203,-1560 1219,-1554 C1235,-1548 1245,-1543 1241,-1542 Z" transform="matrix(0.33333, 0, 0, 0.33333, 0, 0)"/>
    <path fill="none" stroke-width="2" d="M1241,-1562 C1244,-1561 1234,-1555 1218,-1550 C1203,-1544 1187,-1540 
        1183,-1542 C1180,-1543 1190,-1548 1205,-1554 C1221,-1560 1237,-1563 1241,-1562 Z" transform="matrix(0.33333, 0, 0, 0.33333, 0, 0)"
        stroke="#ffffff"/>
    <path fill="#82b1c7" stroke-width="2" d="M1220,-1548 C1226,-1550 1227,-1553 1223,-1555 C1219,-1557 1210,-1557 
        1204,-1556 C1198,-1554 1197,-1552 1201,-1549 C1205,-1547 1214,-1547 1220,-1548 Z" transform="matrix(0.33333, 0, 0, 0.33333, 0, 0)"/>
</svg>