<?xml version="1.0" standalone="no"?>
<!DOCTYPE svg PUBLIC "-//W3C//DTD SVG 1.0//EN"
    "http://www.w3.org/TR/2001/REC-SVG-20010904/DTD/svg10.dtd">
<?xml-stylesheet type="text/css" href="..\cisco_network.css" ?>
<svg contentScriptType="text/ecmascript" zoomAndPan="magnify" xmlns:xlink="http://www.w3.org/1999/xlink" baseProfile="full"
    contentStyleType="text/css" enable-background="new" version="1.0" width="53.1496" preserveAspectRatio="none"
    viewBox="398.02 -732.99 60 41.984" height="37.1906" xmlns="http://www.w3.org/2000/svg" color-interpolation-filters="sRGB"
    x="0" y="1.5">
    <path d="M1197,-2074 L1350,-2074 L1350,-2175 L1197,-2175 L1197,-2074 Z M1372,-2094 L1350,-2074 L1350,-2175 
        L1372,-2196 L1372,-2094 Z M1224,-2196 L1372,-2196 L1350,-2175 L1197,-2175 L1224,-2196 Z" stroke-width="2"
        transform="matrix(0.33333, 0, 0, 0.33333, 0, 0)"/>
    <path fill="#ffffff" d="M1228,-2120 L1206,-2120 L1206,-2124 L1228,-2124 L1228,-2130 L1243,-2122 L1228,-2114 
        L1228,-2120 Z M1318,-2148 L1303,-2148 L1303,-2152 L1318,-2152 L1318,-2159 L1333,-2150 L1318,-2142 L1318,-2148 Z 
        M1330,-2123 L1303,-2123 L1303,-2127 L1330,-2127 L1330,-2133 L1345,-2125 L1330,-2117 L1330,-2123 Z M1318,-2098 
        L1303,-2098 L1303,-2102 L1318,-2102 L1318,-2108 L1333,-2100 L1318,-2091 L1318,-2098 Z" transform="matrix(0.33333, 0, 0, 0.33333, 0, 0)"
        stroke="none"/>
    <path fill="#000000" d="M1291,-2086 L1252,-2086 L1252,-2162 L1291,-2162 L1291,-2086 Z" stroke-width="3" transform="matrix(0.33333, 0, 0, 0.33333, 0, 0)"/>
    <path fill="#000000" d="M1291,-2167 L1291,-2082 L1252,-2082 L1252,-2167 L1291,-2167 Z" transform="matrix(0.33333, 0, 0, 0.33333, 0, 0)"/>
    <path fill="#ffffff" d="M1279,-2102 L1279,-2091 L1262,-2091 L1262,-2102 L1279,-2102 Z M1288,-2090 L1288,-2087 
        L1285,-2087 L1285,-2090 L1288,-2090 Z M1288,-2097 L1288,-2094 L1285,-2094 L1285,-2097 L1288,-2097 Z M1288,-2104 
        L1288,-2101 L1285,-2101 L1285,-2104 L1288,-2104 Z M1288,-2111 L1288,-2108 L1285,-2108 L1285,-2111 L1288,-2111 Z 
        M1288,-2118 L1288,-2115 L1285,-2115 L1285,-2118 L1288,-2118 Z M1288,-2125 L1288,-2122 L1285,-2122 L1285,-2125 
        L1288,-2125 Z M1288,-2132 L1288,-2129 L1285,-2129 L1285,-2132 L1288,-2132 Z M1288,-2139 L1288,-2135 L1285,-2135 
        L1285,-2139 L1288,-2139 Z M1288,-2146 L1288,-2142 L1285,-2142 L1285,-2146 L1288,-2146 Z M1288,-2153 L1288,-2149 
        L1285,-2149 L1285,-2153 L1288,-2153 Z M1288,-2160 L1288,-2156 L1285,-2156 L1285,-2160 L1288,-2160 Z M1257,-2090 
        L1257,-2087 L1254,-2087 L1254,-2090 L1257,-2090 Z M1257,-2097 L1257,-2094 L1254,-2094 L1254,-2097 L1257,-2097 Z 
        M1257,-2104 L1257,-2101 L1254,-2101 L1254,-2104 L1257,-2104 Z M1257,-2111 L1257,-2108 L1254,-2108 L1254,-2111 
        L1257,-2111 Z M1257,-2118 L1257,-2115 L1254,-2115 L1254,-2118 L1257,-2118 Z M1257,-2125 L1257,-2122 L1254,-2122 
        L1254,-2125 L1257,-2125 Z M1257,-2132 L1257,-2129 L1254,-2129 L1254,-2132 L1257,-2132 Z M1257,-2139 L1257,-2136 
        L1254,-2136 L1254,-2139 L1257,-2139 Z M1257,-2146 L1257,-2143 L1254,-2143 L1254,-2146 L1257,-2146 Z M1257,-2153 
        L1257,-2150 L1254,-2150 L1254,-2153 L1257,-2153 Z M1257,-2160 L1257,-2156 L1254,-2156 L1254,-2160 L1257,-2160 Z 
        M1279,-2120 L1279,-2109 L1262,-2109 L1262,-2120 L1279,-2120 Z M1279,-2139 L1279,-2128 L1262,-2128 L1262,-2139 
        L1279,-2139 Z M1279,-2157 L1279,-2146 L1262,-2146 L1262,-2157 L1279,-2157 Z" transform="matrix(0.33333, 0, 0, 0.33333, 0, 0)"/>
</svg>