<?xml version="1.0" standalone="no"?>
<!DOCTYPE svg PUBLIC "-//W3C//DTD SVG 1.0//EN"
    "http://www.w3.org/TR/2001/REC-SVG-20010904/DTD/svg10.dtd">
<?xml-stylesheet type="text/css" href="..\cisco_network.css" ?>
<svg contentScriptType="text/ecmascript" zoomAndPan="magnify" xmlns:xlink="http://www.w3.org/1999/xlink" baseProfile="full"
    contentStyleType="text/css" enable-background="new" version="1.0" width="47.8205" preserveAspectRatio="none"
    viewBox="387.01 -567.01 53.984 43.008" height="38.0976" xmlns="http://www.w3.org/2000/svg"
    color-interpolation-filters="sRGB" x="0" y="1.5">
    <path d="M1182,-1599 L1182,-1616 L1274,-1616 L1274,-1599 L1182,-1599 Z" stroke-width="2" transform="matrix(0.33333, 0, 0, 0.33333, 0, 0)"/>
    <path d="M1289,-1632 L1289,-1614 L1274,-1599 L1274,-1616 L1182,-1616 Z" stroke="none" transform="matrix(0.33333, 0, 0, 0.33333, 0, 0)"/>
    <path fill="none" d="M1289,-1632 L1289,-1614 L1274,-1599 L1274,-1616 L1182,-1616" stroke-width="2" transform="matrix(0.33333, 0, 0, 0.33333, 0, 0)"/>
    <path fill="none" d="M1183,-1632 L1289,-1632 M1274,-1616 L1289,-1632" stroke-width="2" transform="matrix(0.33333, 0, 0, 0.33333, 0, 0)"/>
    <path d="M1269,-1586 L1269,-1596 L1164,-1596 L1176,-1608 L1281,-1608 L1281,-1598 L1269,-1586 Z M1269,-1596 
        L1269,-1586 L1164,-1586 L1164,-1596 L1269,-1596 Z" stroke-width="2" transform="matrix(0.33333, 0, 0, 0.33333, 0, 0)"/>
    <path fill="none" d="M1269,-1596 L1281,-1608" stroke-width="2" transform="matrix(0.33333, 0, 0, 0.33333, 0, 0)"/>
    <path d="M1273,-1616 L1273,-1685 L1182,-1685 L1182,-1616 L1273,-1616 Z M1273,-1616 L1289,-1632 L1289,-1701 
        L1198,-1701 L1182,-1685 L1273,-1685 L1273,-1616 Z M1265,-1624 L1265,-1677 L1190,-1677 L1190,-1624 L1265,-1624 Z"
        stroke-width="2" transform="matrix(0.33333, 0, 0, 0.33333, 0, 0)"/>
    <path fill="none" d="M1273,-1685 L1289,-1701" stroke-width="2" transform="matrix(0.33333, 0, 0, 0.33333, 0, 0)"/>
    <path d="M1323,-1583 L1307,-1605 L1292,-1595 L1308,-1573 L1323,-1583 Z" stroke-width="2" transform="matrix(0.33333, 0, 0, 0.33333, 0, 0)"/>
    <path fill="none" d="M1300,-1600 C1297,-1605 1293,-1602 1294,-1609 C1295,-1617 1289,-1622 1280,-1618" stroke-width="2"
        transform="matrix(0.33333, 0, 0, 0.33333, 0, 0)" stroke="#0e6a98"/>
</svg>