<?xml version="1.0" standalone="no"?>
<!DOCTYPE svg PUBLIC "-//W3C//DTD SVG 1.0//EN"
    "http://www.w3.org/TR/2001/REC-SVG-20010904/DTD/svg10.dtd">
<?xml-stylesheet type="text/css" href="..\cisco_network.css" ?>
<svg contentScriptType="text/ecmascript" zoomAndPan="magnify" xmlns:xlink="http://www.w3.org/1999/xlink" baseProfile="full"
    contentStyleType="text/css" enable-background="new" version="1.0" width="46.9701" preserveAspectRatio="none"
    viewBox="380.99 -578.02 53.024 63.008" height="55.8142" xmlns="http://www.w3.org/2000/svg"
    color-interpolation-filters="sRGB" x="0" y="1.5">
    <path d="M1223,-1598 C1266,-1598 1301,-1608 1301,-1620 C1301,-1632 1266,-1642 1223,-1642 C1180,-1642 1145,-1632 
        1145,-1620 C1145,-1608 1180,-1598 1223,-1598 Z" stroke-width="2" transform="matrix(0.33333, 0, 0, 0.33333, 0, 0)"/>
    <path d="M1222,-1701 C1252,-1701 1276,-1708 1276,-1717 C1276,-1725 1252,-1732 1222,-1732 C1192,-1732 1167,-1725 
        1167,-1717 C1167,-1708 1192,-1701 1222,-1701 Z" stroke-width="2" transform="matrix(0.33333, 0, 0, 0.33333, 0, 0)"/>
    <path d="M1222,-1632 C1222,-1615 1222,-1615 1222,-1615 C1192,-1615 1167,-1622 1167,-1630 C1167,-1717 1167,-1717 
        1167,-1717 C1167,-1708 1192,-1701 1222,-1701 C1252,-1701 1276,-1708 1276,-1717 C1276,-1630 1276,-1630 1276,-1630 
        C1276,-1625 1265,-1620 1250,-1617" stroke-width="2" transform="matrix(0.33333, 0, 0, 0.33333, 0, 0)"/>
    <path d="M1222,-1632 C1222,-1615 1222,-1615 1222,-1615 C1192,-1615 1167,-1622 1167,-1630 C1167,-1717 1167,-1717 
        1167,-1717 C1167,-1708 1192,-1701 1222,-1701 C1252,-1701 1276,-1708 1276,-1717 C1276,-1630 1276,-1630 1276,-1630 
        C1276,-1625 1265,-1620 1250,-1617" stroke-width="2" transform="matrix(0.33333, 0, 0, 0.33333, 0, 0)"/>
    <path fill="none" d="M1289,-1568 L1289,-1608 L1268,-1622 L1268,-1708 M1180,-1561 L1180,-1600 L1192,-1617 L1192,-1703 
        M1155,-1569 L1155,-1608 L1175,-1623 L1175,-1709 M1222,-1701 L1222,-1615" stroke-width="2" transform="matrix(0.33333, 0, 0, 0.33333, 0, 0)"/>
    <path fill="none" d="M1249,-1617 L1249,-1703" stroke-width="2" transform="matrix(0.33333, 0, 0, 0.33333, 0, 0)"/>
    <path d="M1301,-1580 C1300,-1572 1286,-1565 1264,-1561 C1264,-1601 1264,-1601 1264,-1601 C1286,-1605 1300,-1612 
        1301,-1620 Z" stroke-width="2" transform="matrix(0.33333, 0, 0, 0.33333, 0, 0)"/>
    <path d="M1144,-1581 C1144,-1567 1181,-1558 1224,-1558 C1224,-1598 1224,-1598 1224,-1598 C1180,-1597 1144,-1607 
        1144,-1621 Z" stroke-width="2" transform="matrix(0.33333, 0, 0, 0.33333, 0, 0)"/>
    <path d="M1222,-1701 C1222,-1712 1222,-1712 1222,-1712 C1225,-1712 1228,-1712 1231,-1712 C1249,-1703 1249,-1703 
        1249,-1703 C1249,-1617 1249,-1617 1249,-1617 C1264,-1601 1264,-1601 1264,-1601 C1264,-1561 1264,-1561 1264,-1561 
        C1230,-1576 1230,-1576 1230,-1576 C1229,-1576 1224,-1575 1224,-1575 C1224,-1598 1224,-1598 1224,-1598 
        C1222,-1615 1222,-1615 1222,-1615 Z" stroke-width="2" transform="matrix(0.33333, 0, 0, 0.33333, 0, 0)"/>
    <path fill="none" d="M1230,-1712 L1230,-1576" stroke-width="2" transform="matrix(0.33333, 0, 0, 0.33333, 0, 0)"/>
    <path fill="none" d="M1145,-1621 L1167,-1629" stroke-width="2" transform="matrix(0.33333, 0, 0, 0.33333, 0, 0)"/>
    <path fill="none" d="M1300,-1622 L1276,-1629" stroke-width="2" transform="matrix(0.33333, 0, 0, 0.33333, 0, 0)"
        stroke-linejoin="bevel"/>
    <path d="M1235,-1698 C1244,-1699 1244,-1699 1244,-1699 C1263,-1691 1263,-1691 1263,-1691 C1256,-1689 1239,-1687 
        1236,-1688 Z" stroke-width="2" transform="matrix(0.33333, 0, 0, 0.33333, 0, 0)"/>
    <path d="M1235,-1698 L1236,-1688 L1236,-1602 L1238,-1584 L1238,-1545 L1235,-1561 L1235,-1698 Z" stroke-width="2"
        transform="matrix(0.33333, 0, 0, 0.33333, 0, 0)"/>
    <path d="M1236,-1688 C1241,-1688 1259,-1690 1263,-1691 C1263,-1605 1263,-1605 1263,-1605 C1256,-1604 1242,-1602 
        1236,-1602 Z" stroke-width="2" transform="matrix(0.33333, 0, 0, 0.33333, 0, 0)"/>
    <path d="M1263,-1605 C1278,-1590 1278,-1590 1278,-1590 C1270,-1588 1243,-1585 1238,-1585 C1236,-1602 1236,-1602 
        1236,-1602 C1239,-1602 1262,-1604 1263,-1605 Z" stroke-width="2" transform="matrix(0.33333, 0, 0, 0.33333, 0, 0)"/>
    <path d="M1278,-1590 C1278,-1550 1278,-1550 1278,-1550 C1272,-1548 1245,-1545 1238,-1545 C1238,-1584 1238,-1584 
        1238,-1584 C1243,-1584 1268,-1587 1278,-1590 Z" stroke-width="2" transform="matrix(0.33333, 0, 0, 0.33333, 0, 0)"/>
</svg>