<?xml version="1.0" standalone="no"?>
<!DOCTYPE svg PUBLIC "-//W3C//DTD SVG 1.0//EN"
    "http://www.w3.org/TR/2001/REC-SVG-20010904/DTD/svg10.dtd">
<?xml-stylesheet type="text/css" href="..\cisco_network.css" ?>
<svg contentScriptType="text/ecmascript" zoomAndPan="magnify" xmlns:xlink="http://www.w3.org/1999/xlink" baseProfile="full"
    contentStyleType="text/css" enable-background="new" version="1.0" width="31.8898" preserveAspectRatio="none"
    viewBox="392 -572 36 36.992" height="32.7685" xmlns="http://www.w3.org/2000/svg" color-interpolation-filters="sRGB"
    x="0" y="1.5">
    <path d="M1264,-1607 L1264,-1695 L1178,-1695 L1178,-1607 L1264,-1607 Z" stroke-width="2" transform="matrix(0.33333, 0, 0, 0.33333, 0, 0)"/>
    <path fill="none" d="M1223,-1666 L1250,-1666 M1223,-1635 L1250,-1635 M1215,-1650 L1215,-1677" stroke-width="2"
        transform="matrix(0.33333, 0, 0, 0.33333, 0, 0)"/>
    <path fill="none" d="M1238,-1651 L1238,-1624" stroke-width="4" transform="matrix(0.33333, 0, 0, 0.33333, 0, 0)"
        stroke="#ffffff"/>
    <path fill="none" d="M1208,-1651 L1208,-1624 M1224,-1666 L1197,-1666" stroke-width="2" transform="matrix(0.33333, 0, 0, 0.33333, 0, 0)"/>
    <path d="M1282,-1713 L1282,-1713 L1282,-1625 L1264,-1607 L1264,-1695 L1282,-1713 Z M1264,-1695 L1264,-1695 
        L1178,-1695 L1200,-1713 L1282,-1713 L1264,-1695 Z" stroke-width="2" transform="matrix(0.33333, 0, 0, 0.33333, 0, 0)"/>
    <path fill="none" d="M1222,-1667 L1250,-1667" stroke-width="4" transform="matrix(0.33333, 0, 0, 0.33333, 0, 0)"
        stroke="#ffffff"/>
    <path fill="#ffffff" d="M1249,-1675 L1249,-1659 L1259,-1667 L1249,-1675 Z" stroke-width="2" transform="matrix(0.33333, 0, 0, 0.33333, 0, 0)"
        stroke="#ffffff"/>
    <path fill="none" d="M1222,-1636 L1252,-1636" stroke-width="4" transform="matrix(0.33333, 0, 0, 0.33333, 0, 0)"
        stroke="#ffffff"/>
    <path fill="#ffffff" d="M1249,-1644 L1249,-1629 L1259,-1636 L1249,-1644 Z" stroke-width="2" transform="matrix(0.33333, 0, 0, 0.33333, 0, 0)"
        stroke="#ffffff"/>
    <path fill="none" d="M1214,-1651 L1214,-1676 M1230,-1650 L1230,-1677" stroke-width="4" transform="matrix(0.33333, 0, 0, 0.33333, 0, 0)"
        stroke="#ffffff"/>
    <path fill="none" d="M1229,-1651 L1229,-1676" stroke-width="2" transform="matrix(0.33333, 0, 0, 0.33333, 0, 0)"
        stroke="#ffffff"/>
    <path fill="none" d="M1237,-1651 L1237,-1623" stroke-width="2" transform="matrix(0.33333, 0, 0, 0.33333, 0, 0)"/>
    <path fill="#ffffff" d="M1245,-1624 L1230,-1624 L1237,-1615 L1245,-1624 Z" stroke-width="2" transform="matrix(0.33333, 0, 0, 0.33333, 0, 0)"
        stroke="#ffffff"/>
    <path fill="none" d="M1207,-1651 L1207,-1623" stroke-width="4" transform="matrix(0.33333, 0, 0, 0.33333, 0, 0)"
        stroke="#ffffff"/>
    <path fill="#ffffff" d="M1215,-1624 L1199,-1624 L1207,-1615 L1215,-1624 Z" stroke-width="2" transform="matrix(0.33333, 0, 0, 0.33333, 0, 0)"
        stroke="#ffffff"/>
    <path fill="none" d="M1222,-1636 L1194,-1636" stroke-width="4" transform="matrix(0.33333, 0, 0, 0.33333, 0, 0)"
        stroke="#ffffff"/>
    <path fill="#ffffff" d="M1195,-1628 L1195,-1643 L1185,-1636 L1195,-1628 Z" stroke-width="2" transform="matrix(0.33333, 0, 0, 0.33333, 0, 0)"
        stroke="#ffffff"/>
    <path fill="none" d="M1222,-1667 L1194,-1667" stroke-width="4" transform="matrix(0.33333, 0, 0, 0.33333, 0, 0)"
        stroke="#ffffff"/>
    <path fill="#ffffff" d="M1195,-1659 L1195,-1674 L1185,-1667 L1195,-1659 Z" stroke-width="2" transform="matrix(0.33333, 0, 0, 0.33333, 0, 0)"
        stroke="#ffffff"/>
    <path d="M1222,-1633 C1232,-1633 1240,-1641 1240,-1651 C1240,-1661 1232,-1670 1222,-1670 C1212,-1670 1204,-1661 
        1204,-1651 C1204,-1641 1212,-1633 1222,-1633 Z" stroke-width="2" transform="matrix(0.33333, 0, 0, 0.33333, 0, 0)"
        stroke="#ffffff"/>
    <path fill="#ffffff" stroke-width="2" d="M1247,-1677 C1248,-1677 1248,-1677 1248,-1678 C1248,-1687 1248,-1687 
        1248,-1687 C1248,-1688 1248,-1688 1247,-1688 C1198,-1688 1198,-1688 1198,-1688 C1197,-1688 1197,-1688 1197,-1687 
        C1197,-1678 1197,-1678 1197,-1678 C1197,-1677 1197,-1677 1198,-1677 C1207,-1677 1207,-1677 1207,-1677 
        C1207,-1680 1207,-1680 1207,-1680 C1236,-1680 1236,-1680 1236,-1680 C1236,-1677 1236,-1677 1236,-1677 Z"
        transform="matrix(0.33333, 0, 0, 0.33333, 0, 0)" stroke="none"/>
    <path fill="#000000" d="M1216,-1657 L1213,-1657 L1213,-1660 L1216,-1660 L1216,-1657 Z M1216,-1652 L1213,-1652 
        L1213,-1655 L1216,-1655 L1216,-1652 Z M1216,-1647 L1213,-1647 L1213,-1650 L1216,-1650 L1216,-1647 Z M1216,-1642 
        L1213,-1642 L1213,-1645 L1216,-1645 L1216,-1642 Z M1221,-1657 L1218,-1657 L1218,-1660 L1221,-1660 L1221,-1657 Z 
        M1221,-1652 L1218,-1652 L1218,-1655 L1221,-1655 L1221,-1652 Z M1221,-1647 L1218,-1647 L1218,-1650 L1221,-1650 
        L1221,-1647 Z M1221,-1642 L1218,-1642 L1218,-1645 L1221,-1645 L1221,-1642 Z M1226,-1657 L1223,-1657 L1223,-1660 
        L1226,-1660 L1226,-1657 Z M1226,-1652 L1223,-1652 L1223,-1655 L1226,-1655 L1226,-1652 Z M1226,-1647 L1223,-1647 
        L1223,-1650 L1226,-1650 L1226,-1647 Z M1226,-1642 L1223,-1642 L1223,-1645 L1226,-1645 L1226,-1642 Z M1231,-1657 
        L1228,-1657 L1228,-1660 L1231,-1660 L1231,-1657 Z M1231,-1652 L1228,-1652 L1228,-1655 L1231,-1655 L1231,-1652 Z 
        M1231,-1647 L1228,-1647 L1228,-1650 L1231,-1650 L1231,-1647 Z M1231,-1642 L1228,-1642 L1228,-1645 L1231,-1645 
        L1231,-1642 Z" transform="matrix(0.33333, 0, 0, 0.33333, 0, 0)" stroke="#ffffff"/>
</svg>