<?xml version="1.0" standalone="no"?>
<!DOCTYPE svg PUBLIC "-//W3C//DTD SVG 1.0//EN"
    "http://www.w3.org/TR/2001/REC-SVG-20010904/DTD/svg10.dtd">
<?xml-stylesheet type="text/css" href="..\cisco_network.css" ?>
<svg contentScriptType="text/ecmascript" zoomAndPan="magnify" xmlns:xlink="http://www.w3.org/1999/xlink" baseProfile="full"
    contentStyleType="text/css" enable-background="new" version="1.0" width="36.3402" preserveAspectRatio="none"
    viewBox="388.99 -568 41.024 37.984" height="33.6472" xmlns="http://www.w3.org/2000/svg" color-interpolation-filters="sRGB"
    x="0" y="1.5">
    <path stroke-width="2" d="M1256,-1592 L1256,-1680 L1170,-1680 L1170,-1592 L1256,-1592 Z M1256,-1680 L1286,-1701 
        L1200,-1701 L1170,-1680 L1256,-1680 Z M1286,-1613 L1286,-1701 L1257,-1680 L1257,-1592 L1286,-1613 Z" transform="matrix(0.33333, 0, 0, 0.33333, 0, 0)"/>
    <path fill="none" stroke-width="6" d="M1213,-1638 C1221,-1638 1228,-1645 1228,-1653 C1228,-1662 1221,-1668 
        1213,-1668 C1204,-1668 1197,-1662 1197,-1653 C1197,-1645 1204,-1638 1213,-1638 Z" transform="matrix(0.33333, 0, 0, 0.33333, 0, 0)"
        stroke="#ffffff"/>
    <path fill="none" d="M1213,-1633 L1213,-1610" stroke-width="6" transform="matrix(0.33333, 0, 0, 0.33333, 0, 0)"
        stroke="#ffffff"/>
    <path fill="#ffffff" d="M1223,-1610 L1203,-1610 L1213,-1598 L1223,-1610 Z" transform="matrix(0.33333, 0, 0, 0.33333, 0, 0)"
        stroke="none"/>
    <path fill="none" d="M1202,-1636 L1189,-1616" stroke-width="6" transform="matrix(0.33333, 0, 0, 0.33333, 0, 0)"
        stroke="#ffffff"/>
    <path fill="#ffffff" d="M1198,-1611 L1181,-1621 L1183,-1607 L1198,-1611 Z" transform="matrix(0.33333, 0, 0, 0.33333, 0, 0)"
        stroke="none"/>
    <path fill="none" d="M1223,-1636 L1236,-1616" stroke-width="6" transform="matrix(0.33333, 0, 0, 0.33333, 0, 0)"
        stroke="#ffffff"/>
    <path fill="#ffffff" d="M1228,-1611 L1244,-1621 L1242,-1607 L1228,-1611 Z" transform="matrix(0.33333, 0, 0, 0.33333, 0, 0)"
        stroke="none"/>
</svg>