<?xml version="1.0" standalone="no"?>
<!DOCTYPE svg PUBLIC "-//W3C//DTD SVG 1.0//EN"
    "http://www.w3.org/TR/2001/REC-SVG-20010904/DTD/svg10.dtd">
<?xml-stylesheet type="text/css" href="..\cisco_network.css" ?>
<svg contentScriptType="text/ecmascript" zoomAndPan="magnify" xmlns:xlink="http://www.w3.org/1999/xlink" baseProfile="full"
    contentStyleType="text/css" enable-background="new" version="1.0" width="24.8031" preserveAspectRatio="none"
    viewBox="396 -560.99 28 40" height="35.4331" xmlns="http://www.w3.org/2000/svg" color-interpolation-filters="sRGB"
    x="0" y="1.5">
    <path d="M1251,-1663 L1189,-1663 L1189,-1564 L1251,-1564 Z" transform="matrix(0.33333, 0, 0, 0.33333, 0, 0)" stroke="none"/>
    <path fill="none" d="M1251,-1663 L1189,-1663 L1189,-1564 L1251,-1564" transform="matrix(0.33333, 0, 0, 0.33333, 0, 0)"
        stroke="none"/>
    <path d="M1251,-1564 L1270,-1584 L1270,-1682 L1209,-1682 L1189,-1663 L1251,-1663 L1251,-1564 Z M1251,-1663 
        L1270,-1682 Z" transform="matrix(0.33333, 0, 0, 0.33333, 0, 0)" stroke="none"/>
    <path fill="none" d="M1251,-1663 L1270,-1682" transform="matrix(0.33333, 0, 0, 0.33333, 0, 0)" stroke="none"/>
    <path d="M1251,-1663 L1189,-1663 L1189,-1564 L1251,-1564 Z" transform="matrix(0.33333, 0, 0, 0.33333, 0, 0)" stroke="none"/>
    <path fill="none" stroke-width="2" d="M1251,-1663 L1189,-1663 L1189,-1564 L1251,-1564" transform="matrix(0.33333, 0, 0, 0.33333, 0, 0)"/>
    <path d="M1251,-1564 L1270,-1584 L1270,-1682 L1209,-1682 L1189,-1663 L1251,-1663 L1251,-1564 Z" stroke-width="2"
        transform="matrix(0.33333, 0, 0, 0.33333, 0, 0)"/>
    <path fill="none" stroke-width="2" d="M1251,-1663 L1189,-1663 L1189,-1564 L1251,-1564 M1251,-1564 L1270,-1584 
        L1270,-1682 L1209,-1682 L1189,-1663 L1251,-1663 L1251,-1564 Z M1251,-1663 L1270,-1682" transform="matrix(0.33333, 0, 0, 0.33333, 0, 0)"/>
    <path d="M1251,-1663 L1189,-1663 L1189,-1564 L1251,-1564 Z" transform="matrix(0.33333, 0, 0, 0.33333, 0, 0)" stroke="none"/>
    <path fill="none" d="M1251,-1663 L1189,-1663 L1189,-1564 L1251,-1564" transform="matrix(0.33333, 0, 0, 0.33333, 0, 0)"
        stroke="none"/>
    <path d="M1251,-1564 L1270,-1584 L1270,-1682 L1209,-1682 L1189,-1663 L1251,-1663 L1251,-1564 Z" transform="matrix(0.33333, 0, 0, 0.33333, 0, 0)"
        stroke="none"/>
    <path d="M1251,-1663 L1189,-1663 L1189,-1564 L1251,-1564 Z" transform="matrix(0.33333, 0, 0, 0.33333, 0, 0)" stroke="none"/>
    <path fill="none" d="M1251,-1663 L1189,-1663 L1189,-1564 L1251,-1564" stroke-width="2" transform="matrix(0.33333, 0, 0, 0.33333, 0, 0)"/>
    <path stroke-width="2" d="M1251,-1564 L1270,-1584 L1270,-1682 L1209,-1682 L1189,-1663 L1251,-1663 L1251,-1564 Z"
        transform="matrix(0.33333, 0, 0, 0.33333, 0, 0)"/>
    <path fill="none" d="M1251,-1663 L1189,-1663 L1189,-1564 L1251,-1564 M1251,-1564 L1270,-1584 L1270,-1682 L1209,-1682 
        L1189,-1663 L1251,-1663 L1251,-1564 Z M1251,-1663 L1270,-1682" stroke-width="2" transform="matrix(0.33333, 0, 0, 0.33333, 0, 0)"/>
    <path fill="none" d="M1242,-1634 L1242,-1651 L1200,-1651 L1200,-1634 L1242,-1634 Z" stroke-width="2" transform="matrix(0.33333, 0, 0, 0.33333, 0, 0)"
        stroke-linecap="round" stroke-linejoin="round"/>
    <path fill="#000000" d="M1215,-1643 C1215,-1640 1213,-1638 1211,-1638 C1208,-1638 1206,-1640 1206,-1643 C1206,-1645 
        1208,-1647 1211,-1647 C1213,-1647 1215,-1645 1215,-1643 Z" stroke-width="2" transform="matrix(0.33333, 0, 0, 0.33333, 0, 0)"
        stroke-linecap="round" stroke-linejoin="round"/>
    <path fill="#000000" d="M1234,-1643 C1234,-1640 1232,-1638 1230,-1638 C1228,-1638 1226,-1640 1226,-1643 C1226,-1645 
        1228,-1647 1230,-1647 C1232,-1647 1234,-1645 1234,-1643 Z" stroke-width="2" transform="matrix(0.33333, 0, 0, 0.33333, 0, 0)"
        stroke-linecap="round" stroke-linejoin="round"/>
    <path fill="none" d="M1242,-1604 L1242,-1621 L1200,-1621 L1200,-1604 L1242,-1604 Z" stroke-width="2" transform="matrix(0.33333, 0, 0, 0.33333, 0, 0)"
        stroke-linecap="round" stroke-linejoin="round"/>
    <path fill="#000000" d="M1215,-1613 C1215,-1610 1213,-1608 1211,-1608 C1208,-1608 1206,-1610 1206,-1613 C1206,-1615 
        1208,-1617 1211,-1617 C1213,-1617 1215,-1615 1215,-1613 Z" stroke-width="2" transform="matrix(0.33333, 0, 0, 0.33333, 0, 0)"
        stroke-linecap="round" stroke-linejoin="round"/>
    <path fill="#000000" d="M1234,-1613 C1234,-1610 1232,-1608 1230,-1608 C1228,-1608 1226,-1610 1226,-1613 C1226,-1615 
        1228,-1617 1230,-1617 C1232,-1617 1234,-1615 1234,-1613 Z" stroke-width="2" transform="matrix(0.33333, 0, 0, 0.33333, 0, 0)"
        stroke-linecap="round" stroke-linejoin="round"/>
    <path fill="none" d="M1242,-1574 L1242,-1591 L1200,-1591 L1200,-1574 L1242,-1574 Z" stroke-width="2" transform="matrix(0.33333, 0, 0, 0.33333, 0, 0)"
        stroke-linecap="round" stroke-linejoin="round"/>
    <path fill="#000000" d="M1215,-1583 C1215,-1580 1213,-1578 1211,-1578 C1208,-1578 1206,-1580 1206,-1583 C1206,-1585 
        1208,-1587 1211,-1587 C1213,-1587 1215,-1585 1215,-1583 Z" stroke-width="2" transform="matrix(0.33333, 0, 0, 0.33333, 0, 0)"
        stroke-linecap="round" stroke-linejoin="round"/>
    <path fill="#000000" d="M1234,-1583 C1234,-1580 1232,-1578 1230,-1578 C1228,-1578 1226,-1580 1226,-1583 C1226,-1585 
        1228,-1587 1230,-1587 C1232,-1587 1234,-1585 1234,-1583 Z" stroke-width="2" transform="matrix(0.33333, 0, 0, 0.33333, 0, 0)"
        stroke-linecap="round" stroke-linejoin="round"/>
    <path fill="none" d="M1211,-1647 L1230,-1647 M1211,-1617 L1230,-1617 M1211,-1587 L1230,-1587" stroke-width="2"
        transform="matrix(0.33333, 0, 0, 0.33333, 0, 0)" stroke-linecap="round" stroke-linejoin="round"/>
</svg>