<?xml version="1.0" standalone="no"?>
<!DOCTYPE svg PUBLIC "-//W3C//DTD SVG 1.0//EN"
    "http://www.w3.org/TR/2001/REC-SVG-20010904/DTD/svg10.dtd">
<?xml-stylesheet type="text/css" href="..\cisco_network.css" ?>
<svg contentScriptType="text/ecmascript" zoomAndPan="magnify" xmlns:xlink="http://www.w3.org/1999/xlink" baseProfile="full"
    contentStyleType="text/css" enable-background="new" version="1.0" width="34.5543" preserveAspectRatio="none"
    viewBox="388.99 -563.01 39.008 32.992" height="29.2252" xmlns="http://www.w3.org/2000/svg"
    color-interpolation-filters="sRGB" x="0" y="1.5">
    <path d="M1232,-1674 L1204,-1675 L1190,-1660 L1199,-1653 L1206,-1661 L1223,-1661 L1204,-1637 L1211,-1631 L1200,-1617 
        L1183,-1617 L1171,-1612 L1179,-1594 L1190,-1593 L1190,-1597 L1184,-1597 L1185,-1605 L1210,-1604 L1225,-1622 
        L1259,-1590 L1277,-1610 L1273,-1614 L1265,-1606 L1237,-1632 L1249,-1648 L1260,-1640 L1284,-1640 L1285,-1649 
        L1267,-1650 L1232,-1674 Z M1243,-1690 L1264,-1689 L1263,-1667 L1243,-1668 L1243,-1690 Z M1181,-1663 L1205,-1644 
        L1191,-1628 L1168,-1647 L1181,-1663 Z" stroke="none" transform="matrix(0.33333, 0, 0, 0.33333, 0, 0)"/>
</svg>