<?xml version="1.0" standalone="no"?>
<!DOCTYPE svg PUBLIC "-//W3C//DTD SVG 1.0//EN"
    "http://www.w3.org/TR/2001/REC-SVG-20010904/DTD/svg10.dtd">
<?xml-stylesheet type="text/css" href="..\cisco_network.css" ?>
<svg contentScriptType="text/ecmascript" zoomAndPan="magnify" xmlns:xlink="http://www.w3.org/1999/xlink" baseProfile="full"
    contentStyleType="text/css" enable-background="new" version="1.0" width="78.8315" preserveAspectRatio="none"
    viewBox="355.01 -550.02 88.992 33.024" height="29.2535" xmlns="http://www.w3.org/2000/svg"
    color-interpolation-filters="sRGB" x="0" y="1.5">
    <path d="M1239,-1560 L1239,-1624 L1158,-1624 L1158,-1560 L1239,-1560 L1239,-1560 Z" stroke-width="3" transform="matrix(0.33333, 0, 0, 0.33333, 0, 0)"/>
    <path fill="#ffffff" d="M1231,-1568 L1231,-1617 L1166,-1617 L1166,-1568 L1231,-1568 L1231,-1568 Z" transform="matrix(0.33333, 0, 0, 0.33333, 0, 0)"
        stroke="none"/>
    <path stroke-width="3" d="M1158,-1624 L1150,-1631 L1247,-1631 L1239,-1624 L1158,-1624 L1158,-1624 Z M1239,-1560 
        L1247,-1570 L1247,-1631 L1239,-1624 L1239,-1560 L1239,-1560 Z M1320,-1555 L1320,-1619 L1239,-1624 L1239,-1560 
        L1320,-1555 L1320,-1555 Z" transform="matrix(0.33333, 0, 0, 0.33333, 0, 0)"/>
    <path fill="#ffffff" d="M1312,-1563 L1312,-1612 L1247,-1616 L1247,-1567 L1312,-1563 L1312,-1563 Z" transform="matrix(0.33333, 0, 0, 0.33333, 0, 0)"
        stroke="none"/>
    <path stroke-width="3" d="M1239,-1624 L1247,-1630 L1328,-1625 L1320,-1619 L1239,-1624 L1239,-1624 Z M1320,-1555 
        L1329,-1565 L1329,-1626 L1320,-1619 L1320,-1555 L1320,-1555 Z M1077,-1555 L1077,-1619 L1158,-1624 L1158,-1560 
        L1077,-1555 L1077,-1555 Z" transform="matrix(0.33333, 0, 0, 0.33333, 0, 0)"/>
    <path fill="#ffffff" d="M1085,-1563 L1085,-1612 L1150,-1616 L1150,-1567 L1085,-1563 L1085,-1563 Z" transform="matrix(0.33333, 0, 0, 0.33333, 0, 0)"
        stroke="none"/>
    <path d="M1158,-1624 L1150,-1630 L1069,-1625 L1077,-1619 L1158,-1624 L1158,-1624 Z M1077,-1555 L1069,-1565 
        L1069,-1626 L1077,-1619 L1077,-1555 L1077,-1555 Z" stroke-width="3" transform="matrix(0.33333, 0, 0, 0.33333, 0, 0)"/>
    <path d="M1210,-1622 L1210,-1648 L1188,-1648 L1188,-1622 L1210,-1622 L1210,-1622 Z" stroke-width="2" transform="matrix(0.33333, 0, 0, 0.33333, 0, 0)"/>
    <path d="M1206,-1632 C1206,-1629 1203,-1626 1200,-1626 C1196,-1626 1193,-1629 1193,-1632 C1193,-1636 1196,-1639 
        1200,-1639 C1203,-1639 1206,-1636 1206,-1632 Z" stroke-width="2" transform="matrix(0.33333, 0, 0, 0.33333, 0, 0)"/>
    <path d="M1232,-1622 L1232,-1648 L1210,-1648 L1210,-1622 L1232,-1622 L1232,-1622 Z" stroke-width="2" transform="matrix(0.33333, 0, 0, 0.33333, 0, 0)"/>
    <path d="M1228,-1632 C1228,-1629 1225,-1626 1221,-1626 C1218,-1626 1215,-1629 1215,-1632 C1215,-1636 1218,-1639 
        1221,-1639 C1225,-1639 1228,-1636 1228,-1632 Z" stroke-width="2" transform="matrix(0.33333, 0, 0, 0.33333, 0, 0)"/>
    <path d="M1188,-1622 L1188,-1648 L1167,-1648 L1167,-1622 L1188,-1622 L1188,-1622 Z" stroke-width="2" transform="matrix(0.33333, 0, 0, 0.33333, 0, 0)"/>
    <path d="M1184,-1632 C1184,-1629 1181,-1626 1178,-1626 C1174,-1626 1171,-1629 1171,-1632 C1171,-1636 1174,-1639 
        1178,-1639 C1181,-1639 1184,-1636 1184,-1632 Z" stroke-width="2" transform="matrix(0.33333, 0, 0, 0.33333, 0, 0)"/>
    <path d="M1206,-1593 C1206,-1584 1206,-1584 1206,-1584 C1190,-1584 1190,-1584 1190,-1584 C1190,-1593 1190,-1593 
        1190,-1593 C1198,-1598 1206,-1593 1206,-1593 Z" stroke-width="2" transform="matrix(0.33333, 0, 0, 0.33333, 0, 0)"/>
    <path d="M1203,-1600 C1203,-1597 1201,-1595 1198,-1595 C1196,-1595 1193,-1597 1193,-1600 C1193,-1603 1196,-1605 
        1198,-1605 C1201,-1605 1203,-1603 1203,-1600 Z" stroke-width="2" transform="matrix(0.33333, 0, 0, 0.33333, 0, 0)"/>
    <path d="M1196,-1587 C1196,-1578 1196,-1578 1196,-1578 C1179,-1578 1179,-1578 1179,-1578 C1179,-1587 1179,-1587 
        1179,-1587 C1188,-1592 1196,-1587 1196,-1587 Z" stroke-width="2" transform="matrix(0.33333, 0, 0, 0.33333, 0, 0)"/>
    <path d="M1193,-1594 C1193,-1591 1191,-1589 1188,-1589 C1185,-1589 1183,-1591 1183,-1594 C1183,-1597 1185,-1599 
        1188,-1599 C1191,-1599 1193,-1597 1193,-1594 Z" stroke-width="2" transform="matrix(0.33333, 0, 0, 0.33333, 0, 0)"/>
    <path d="M1217,-1587 C1217,-1578 1217,-1578 1217,-1578 C1201,-1578 1201,-1578 1201,-1578 C1201,-1587 1201,-1587 
        1201,-1587 C1209,-1592 1217,-1587 1217,-1587 Z" stroke-width="2" transform="matrix(0.33333, 0, 0, 0.33333, 0, 0)"/>
    <path d="M1214,-1594 C1214,-1591 1212,-1589 1209,-1589 C1206,-1589 1204,-1591 1204,-1594 C1204,-1597 1206,-1599 
        1209,-1599 C1212,-1599 1214,-1597 1214,-1594 Z" stroke-width="2" transform="matrix(0.33333, 0, 0, 0.33333, 0, 0)"/>
    <path d="M1186,-1581 C1186,-1569 1186,-1569 1186,-1569 C1169,-1569 1169,-1569 1169,-1569 C1169,-1581 1169,-1581 
        1169,-1581 C1178,-1586 1186,-1581 1186,-1581 Z" stroke-width="2" transform="matrix(0.33333, 0, 0, 0.33333, 0, 0)"/>
    <path d="M1183,-1588 C1183,-1585 1180,-1583 1178,-1583 C1175,-1583 1173,-1585 1173,-1588 C1173,-1591 1175,-1593 
        1178,-1593 C1180,-1593 1183,-1591 1183,-1588 Z" stroke-width="2" transform="matrix(0.33333, 0, 0, 0.33333, 0, 0)"/>
    <path d="M1207,-1581 C1207,-1569 1207,-1569 1207,-1569 C1191,-1569 1191,-1569 1191,-1569 C1191,-1581 1191,-1581 
        1191,-1581 C1199,-1586 1207,-1581 1207,-1581 Z" stroke-width="2" transform="matrix(0.33333, 0, 0, 0.33333, 0, 0)"/>
    <path d="M1204,-1588 C1204,-1585 1202,-1583 1199,-1583 C1196,-1583 1194,-1585 1194,-1588 C1194,-1591 1196,-1593 
        1199,-1593 C1202,-1593 1204,-1591 1204,-1588 Z" stroke-width="2" transform="matrix(0.33333, 0, 0, 0.33333, 0, 0)"/>
    <path d="M1228,-1581 C1228,-1569 1228,-1569 1228,-1569 C1212,-1569 1212,-1569 1212,-1569 C1212,-1581 1212,-1581 
        1212,-1581 C1220,-1586 1228,-1581 1228,-1581 Z" stroke-width="2" transform="matrix(0.33333, 0, 0, 0.33333, 0, 0)"/>
    <path d="M1225,-1588 C1225,-1585 1223,-1583 1220,-1583 C1217,-1583 1215,-1585 1215,-1588 C1215,-1591 1217,-1593 
        1220,-1593 C1223,-1593 1225,-1591 1225,-1588 Z" stroke-width="2" transform="matrix(0.33333, 0, 0, 0.33333, 0, 0)"/>
    <path d="M1108,-1589 C1108,-1579 1108,-1579 1108,-1579 C1127,-1580 1127,-1580 1127,-1580 C1127,-1591 1127,-1591 
        1127,-1591 C1117,-1596 1108,-1589 1108,-1589 Z" stroke-width="2" transform="matrix(0.33333, 0, 0, 0.33333, 0, 0)"/>
    <path d="M1112,-1597 C1112,-1594 1114,-1592 1117,-1592 C1120,-1592 1123,-1595 1123,-1598 C1123,-1601 1120,-1603 
        1117,-1603 C1114,-1603 1112,-1600 1112,-1597 Z" stroke-width="2" transform="matrix(0.33333, 0, 0, 0.33333, 0, 0)"/>
    <path d="M1098,-1583 C1098,-1570 1098,-1570 1098,-1570 C1116,-1571 1116,-1571 1116,-1571 C1116,-1585 1116,-1585 
        1116,-1585 C1107,-1590 1098,-1583 1098,-1583 Z" stroke-width="2" transform="matrix(0.33333, 0, 0, 0.33333, 0, 0)"/>
    <path d="M1101,-1591 C1101,-1588 1104,-1586 1107,-1586 C1110,-1586 1113,-1589 1113,-1592 C1113,-1595 1110,-1597 
        1107,-1597 C1104,-1597 1101,-1594 1101,-1591 Z" stroke-width="2" transform="matrix(0.33333, 0, 0, 0.33333, 0, 0)"/>
    <path d="M1118,-1585 C1118,-1571 1118,-1571 1118,-1571 C1137,-1575 1137,-1575 1137,-1575 C1137,-1586 1137,-1586 
        1137,-1586 C1128,-1591 1118,-1585 1118,-1585 Z" stroke-width="2" transform="matrix(0.33333, 0, 0, 0.33333, 0, 0)"/>
    <path d="M1122,-1593 C1122,-1589 1124,-1587 1127,-1587 C1130,-1587 1133,-1590 1133,-1593 C1133,-1596 1130,-1599 
        1127,-1598 C1124,-1598 1122,-1596 1122,-1593 Z" stroke-width="2" transform="matrix(0.33333, 0, 0, 0.33333, 0, 0)"/>
    <path d="M1088,-1578 C1088,-1565 1088,-1565 1088,-1565 C1106,-1566 1106,-1566 1106,-1566 C1106,-1579 1106,-1579 
        1106,-1579 C1097,-1584 1088,-1578 1088,-1578 Z" stroke-width="2" transform="matrix(0.33333, 0, 0, 0.33333, 0, 0)"/>
    <path d="M1091,-1586 C1091,-1583 1094,-1581 1097,-1581 C1100,-1581 1102,-1584 1102,-1587 C1102,-1590 1100,-1592 
        1097,-1592 C1094,-1592 1091,-1589 1091,-1586 Z" stroke-width="2" transform="matrix(0.33333, 0, 0, 0.33333, 0, 0)"/>
    <path d="M1109,-1579 C1109,-1566 1109,-1566 1109,-1566 C1128,-1567 1128,-1567 1128,-1567 C1128,-1580 1128,-1580 
        1128,-1580 C1119,-1585 1109,-1579 1109,-1579 Z" stroke-width="2" transform="matrix(0.33333, 0, 0, 0.33333, 0, 0)"/>
    <path d="M1113,-1587 C1113,-1584 1115,-1582 1118,-1582 C1121,-1582 1124,-1585 1124,-1588 C1124,-1591 1121,-1593 
        1118,-1593 C1115,-1593 1113,-1590 1113,-1587 Z" stroke-width="2" transform="matrix(0.33333, 0, 0, 0.33333, 0, 0)"/>
    <path d="M1130,-1580 C1130,-1567 1130,-1567 1130,-1567 C1148,-1568 1148,-1568 1148,-1568 C1148,-1582 1148,-1582 
        1148,-1582 C1139,-1587 1130,-1580 1130,-1580 Z" stroke-width="2" transform="matrix(0.33333, 0, 0, 0.33333, 0, 0)"/>
    <path d="M1133,-1588 C1133,-1585 1136,-1583 1139,-1583 C1142,-1583 1144,-1586 1144,-1589 C1144,-1592 1142,-1594 
        1139,-1594 C1136,-1594 1133,-1591 1133,-1588 Z" stroke-width="2" transform="matrix(0.33333, 0, 0, 0.33333, 0, 0)"/>
    <path d="M1289,-1589 C1289,-1579 1289,-1579 1289,-1579 C1271,-1580 1271,-1580 1271,-1580 C1271,-1591 1271,-1591 
        1271,-1591 C1280,-1596 1289,-1589 1289,-1589 Z" stroke-width="2" transform="matrix(0.33333, 0, 0, 0.33333, 0, 0)"/>
    <path d="M1286,-1597 C1286,-1594 1283,-1592 1280,-1592 C1277,-1592 1274,-1595 1274,-1598 C1274,-1601 1277,-1603 
        1280,-1603 C1283,-1603 1286,-1600 1286,-1597 Z" stroke-width="2" transform="matrix(0.33333, 0, 0, 0.33333, 0, 0)"/>
    <path d="M1299,-1583 C1299,-1571 1299,-1571 1299,-1571 C1281,-1574 1281,-1574 1281,-1574 C1281,-1585 1281,-1585 
        1281,-1585 C1290,-1590 1299,-1583 1299,-1583 Z" stroke-width="2" transform="matrix(0.33333, 0, 0, 0.33333, 0, 0)"/>
    <path d="M1296,-1591 C1296,-1588 1293,-1586 1290,-1586 C1287,-1586 1285,-1589 1285,-1592 C1285,-1595 1287,-1597 
        1290,-1597 C1293,-1597 1296,-1594 1296,-1591 Z" stroke-width="2" transform="matrix(0.33333, 0, 0, 0.33333, 0, 0)"/>
    <path d="M1279,-1585 C1279,-1574 1279,-1574 1279,-1574 C1260,-1575 1260,-1575 1260,-1575 C1260,-1586 1260,-1586 
        1260,-1586 C1270,-1591 1279,-1585 1279,-1585 Z" stroke-width="2" transform="matrix(0.33333, 0, 0, 0.33333, 0, 0)"/>
    <path d="M1275,-1593 C1275,-1589 1273,-1587 1270,-1587 C1267,-1587 1264,-1590 1264,-1593 C1264,-1596 1267,-1599 
        1270,-1598 C1273,-1598 1275,-1596 1275,-1593 Z" stroke-width="2" transform="matrix(0.33333, 0, 0, 0.33333, 0, 0)"/>
    <path d="M1310,-1578 C1310,-1565 1310,-1565 1310,-1565 C1291,-1567 1291,-1567 1291,-1567 C1291,-1579 1291,-1579 
        1291,-1579 C1300,-1584 1310,-1578 1310,-1578 Z" stroke-width="2" transform="matrix(0.33333, 0, 0, 0.33333, 0, 0)"/>
    <path d="M1306,-1586 C1306,-1583 1304,-1581 1300,-1581 C1297,-1581 1295,-1584 1295,-1587 C1295,-1590 1297,-1592 
        1300,-1592 C1304,-1592 1306,-1589 1306,-1586 Z" stroke-width="2" transform="matrix(0.33333, 0, 0, 0.33333, 0, 0)"/>
    <path d="M1288,-1579 C1288,-1567 1288,-1567 1288,-1567 C1269,-1568 1269,-1568 1269,-1568 C1269,-1580 1269,-1580 
        1269,-1580 C1279,-1585 1288,-1579 1288,-1579 Z" stroke-width="2" transform="matrix(0.33333, 0, 0, 0.33333, 0, 0)"/>
    <path d="M1284,-1587 C1284,-1584 1282,-1582 1279,-1582 C1276,-1582 1273,-1585 1273,-1588 C1273,-1591 1276,-1593 
        1279,-1593 C1282,-1593 1284,-1590 1284,-1587 Z" stroke-width="2" transform="matrix(0.33333, 0, 0, 0.33333, 0, 0)"/>
    <path d="M1268,-1581 C1268,-1568 1268,-1568 1268,-1568 C1249,-1569 1249,-1569 1249,-1569 C1249,-1582 1249,-1582 
        1249,-1582 C1258,-1587 1268,-1581 1268,-1581 Z" stroke-width="2" transform="matrix(0.33333, 0, 0, 0.33333, 0, 0)"/>
    <path d="M1264,-1588 C1264,-1585 1262,-1583 1258,-1583 C1255,-1583 1253,-1586 1253,-1589 C1253,-1592 1255,-1594 
        1258,-1594 C1262,-1594 1264,-1591 1264,-1588 Z" stroke-width="2" transform="matrix(0.33333, 0, 0, 0.33333, 0, 0)"/>
</svg>