<?xml version="1.0" standalone="no"?>
<!DOCTYPE svg PUBLIC "-//W3C//DTD SVG 1.0//EN"
    "http://www.w3.org/TR/2001/REC-SVG-20010904/DTD/svg10.dtd">
<?xml-stylesheet type="text/css" href="..\cisco_network.css" ?>
<svg contentScriptType="text/ecmascript" zoomAndPan="magnify" xmlns:xlink="http://www.w3.org/1999/xlink" baseProfile="full"
    contentStyleType="text/css" enable-background="new" version="1.0" width="58.4787" preserveAspectRatio="none"
    viewBox="380.99 -575.01 66.016 56.992" height="50.485" xmlns="http://www.w3.org/2000/svg"
    color-interpolation-filters="sRGB" x="0" y="1.5">
    <path d="M1226,-1711 L1244,-1723 L1254,-1723 L1253,-1714 L1240,-1702 L1226,-1711 Z" stroke-width="2" transform="matrix(0.33333, 0, 0, 0.33333, 0, 0)"/>
    <path d="M1159,-1626 L1286,-1626 L1286,-1557 L1159,-1557 L1159,-1626 Z" stroke-width="2" transform="matrix(0.33333, 0, 0, 0.33333, 0, 0)"/>
    <path d="M1286,-1626 L1331,-1669 L1331,-1603 L1286,-1557 L1286,-1626 Z" stroke-width="2" transform="matrix(0.33333, 0, 0, 0.33333, 0, 0)"/>
    <path d="M1309,-1571 L1300,-1571 L1299,-1633 L1307,-1636 L1311,-1632 L1312,-1579 L1309,-1571 Z" stroke-width="2"
        transform="matrix(0.33333, 0, 0, 0.33333, 0, 0)"/>
    <path d="M1307,-1636 L1309,-1571 L1326,-1590 L1319,-1650 L1307,-1636 Z" stroke-width="2" transform="matrix(0.33333, 0, 0, 0.33333, 0, 0)"/>
    <path d="M1296,-1621 L1231,-1706 L1253,-1723 L1340,-1669 L1296,-1621 Z" stroke-width="2" transform="matrix(0.33333, 0, 0, 0.33333, 0, 0)"/>
    <path d="M1306,-1657 L1316,-1667 L1311,-1707 L1302,-1703 L1302,-1667 L1306,-1657 Z" stroke-width="2" transform="matrix(0.33333, 0, 0, 0.33333, 0, 0)"/>
    <path d="M1291,-1671 L1306,-1657 L1305,-1705 L1297,-1706 L1291,-1671 Z" stroke-width="2" transform="matrix(0.33333, 0, 0, 0.33333, 0, 0)"/>
    <path d="M1297,-1706 L1304,-1701 L1311,-1707 L1303,-1709 L1297,-1706 Z" stroke-width="2" transform="matrix(0.33333, 0, 0, 0.33333, 0, 0)"/>
    <path d="M1237,-1711 L1297,-1621 L1145,-1621 L1226,-1711 L1237,-1711 Z" stroke-width="2" transform="matrix(0.33333, 0, 0, 0.33333, 0, 0)"/>
    <path d="M1265,-1619 C1265,-1611 1247,-1604 1225,-1604 C1202,-1604 1184,-1611 1184,-1619 C1184,-1596 1184,-1596 
        1184,-1596 C1184,-1588 1202,-1581 1225,-1581 C1247,-1581 1265,-1588 1265,-1596 Z" stroke-width="2" transform="matrix(0.33333, 0, 0, 0.33333, 0, 0)"/>
    <path d="M1225,-1604 C1247,-1604 1265,-1611 1265,-1619 C1265,-1628 1247,-1635 1225,-1635 C1202,-1635 1184,-1628 
        1184,-1619 C1184,-1611 1202,-1604 1225,-1604 Z" stroke-width="2" transform="matrix(0.33333, 0, 0, 0.33333, 0, 0)"/>
    <path fill="#ffffff" d="M1215,-1626 L1219,-1621 L1206,-1618 L1209,-1620 L1189,-1623 L1194,-1627 L1213,-1624 
        L1215,-1626 Z M1233,-1613 L1231,-1619 L1242,-1621 L1240,-1619 L1259,-1616 L1255,-1612 L1236,-1616 L1233,-1613 Z 
        M1227,-1628 L1240,-1632 L1240,-1626 L1237,-1627 L1230,-1622 L1224,-1623 L1231,-1628 L1227,-1628 Z M1221,-1609 
        L1209,-1606 L1209,-1612 L1212,-1611 L1219,-1617 L1225,-1616 L1218,-1610 L1221,-1609 Z" transform="matrix(0.33333, 0, 0, 0.33333, 0, 0)"
        stroke="none"/>
</svg>