<?xml version="1.0" standalone="no"?>
<!DOCTYPE svg PUBLIC "-//W3C//DTD SVG 1.0//EN"
    "http://www.w3.org/TR/2001/REC-SVG-20010904/DTD/svg10.dtd">
<?xml-stylesheet type="text/css" href="..\cisco_network.css" ?>
<svg contentScriptType="text/ecmascript" zoomAndPan="magnify" xmlns:xlink="http://www.w3.org/1999/xlink" baseProfile="full"
    contentStyleType="text/css" enable-background="new" version="1.0" width="34.5543" preserveAspectRatio="none"
    viewBox="392 -558.02 39.008 36" height="31.8898" xmlns="http://www.w3.org/2000/svg" color-interpolation-filters="sRGB"
    x="0" y="1.5">
    <path d="M1194,-1579 L1194,-1595 L1277,-1595 L1277,-1579 L1194,-1579 Z" stroke-width="2" transform="matrix(0.33333, 0, 0, 0.33333, 0, 0)"/>
    <path d="M1292,-1609 L1292,-1593 L1277,-1579 L1277,-1595 L1194,-1595 Z" stroke="none" transform="matrix(0.33333, 0, 0, 0.33333, 0, 0)"/>
    <path fill="none" d="M1292,-1609 L1292,-1593 L1277,-1579 L1277,-1595 L1194,-1595" stroke-width="2" transform="matrix(0.33333, 0, 0, 0.33333, 0, 0)"/>
    <path fill="none" d="M1194,-1609 L1292,-1609 M1277,-1595 L1292,-1609" stroke-width="2" transform="matrix(0.33333, 0, 0, 0.33333, 0, 0)"/>
    <path d="M1277,-1595 L1277,-1658 L1194,-1658 L1194,-1595 L1277,-1595 Z M1277,-1595 L1292,-1609 L1292,-1672 
        L1208,-1672 L1194,-1658 L1277,-1658 L1277,-1595 Z M1270,-1602 L1270,-1651 L1201,-1651 L1201,-1602 L1270,-1602 Z"
        stroke-width="2" transform="matrix(0.33333, 0, 0, 0.33333, 0, 0)"/>
    <path fill="none" d="M1277,-1658 L1292,-1672" stroke-width="2" transform="matrix(0.33333, 0, 0, 0.33333, 0, 0)"/>
    <path d="M1273,-1568 L1273,-1577 L1177,-1577 L1188,-1588 L1284,-1588 L1284,-1579 L1273,-1568 Z M1273,-1577 
        L1273,-1568 L1177,-1568 L1177,-1577 L1273,-1577 Z" stroke-width="2" transform="matrix(0.33333, 0, 0, 0.33333, 0, 0)"/>
    <path fill="none" d="M1273,-1577 L1284,-1588" stroke-width="2" transform="matrix(0.33333, 0, 0, 0.33333, 0, 0)"/>
</svg>