<?xml version="1.0" standalone="no"?>
<!DOCTYPE svg PUBLIC "-//W3C//DTD SVG 1.0//EN"
    "http://www.w3.org/TR/2001/REC-SVG-20010904/DTD/svg10.dtd">
<?xml-stylesheet type="text/css" href="..\cisco_network.css" ?>
<svg contentScriptType="text/ecmascript" zoomAndPan="magnify" xmlns:xlink="http://www.w3.org/1999/xlink" baseProfile="full"
    contentStyleType="text/css" enable-background="new" version="1.0" width="40.7622" preserveAspectRatio="none"
    viewBox="376.99 -560.99 46.016 56" height="49.6063" xmlns="http://www.w3.org/2000/svg" color-interpolation-filters="sRGB"
    x="0" y="1.5">
    <path fill="#ffffff" d="M1151,-1640 L1148,-1640 L1132,-1640 L1132,-1625 L1148,-1625 L1150,-1625 Z" transform="matrix(0.33333, 0, 0, 0.33333, 0, 0)"
        stroke="none"/>
    <path fill="none" d="M1151,-1640 L1148,-1640 L1132,-1640 L1132,-1625 L1148,-1625 L1150,-1625" stroke-width="2"
        transform="matrix(0.33333, 0, 0, 0.33333, 0, 0)" stroke="#000000"/>
    <path fill="#ffffff" d="M1247,-1624 C1249,-1624 1249,-1624 1249,-1624 C1265,-1624 1268,-1610 1268,-1610 C1268,-1625 
        1268,-1625 1268,-1625 C1268,-1625 1265,-1640 1249,-1640 C1245,-1640 1245,-1640 1245,-1640" stroke-width="2"
        transform="matrix(0.33333, 0, 0, 0.33333, 0, 0)" stroke="#000000"/>
    <path fill="#ffffff" d="M1247,-1624 C1249,-1624 1249,-1624 1249,-1624 C1265,-1624 1268,-1610 1268,-1610 C1268,-1625 
        1268,-1625 1268,-1625 C1268,-1625 1265,-1640 1249,-1640 C1245,-1640 1245,-1640 1245,-1640" stroke-width="2"
        transform="matrix(0.33333, 0, 0, 0.33333, 0, 0)" stroke="#000000"/>
    <path d="M1234,-1517 L1234,-1667 L1148,-1667 L1148,-1517 L1234,-1517 L1234,-1517 Z M1148,-1667 L1165,-1680 
        L1248,-1680 L1234,-1667 L1148,-1667 L1148,-1667 Z M1234,-1517 L1248,-1533 L1248,-1680 L1234,-1667 L1234,-1517 
        L1234,-1517 Z" stroke-width="2" transform="matrix(0.33333, 0, 0, 0.33333, 0, 0)"/>
    <path fill="#ffffff" d="M1268,-1620 C1268,-1602 1268,-1602 1268,-1602 C1266,-1581 1228,-1582 1228,-1582 C1228,-1581 
        1228,-1581 1228,-1581 C1228,-1566 1228,-1566 1228,-1566 C1203,-1591 1203,-1591 1203,-1591 C1228,-1616 1228,-1616 
        1228,-1616 C1228,-1600 1228,-1600 1228,-1600 C1228,-1600 1267,-1599 1268,-1620" stroke-width="2" transform="matrix(0.33333, 0, 0, 0.33333, 0, 0)"
        stroke="#000000"/>
    <path fill="#ffffff" d="M1268,-1620 C1268,-1602 1268,-1602 1268,-1602 C1266,-1581 1228,-1582 1228,-1582 C1228,-1581 
        1228,-1581 1228,-1581 C1228,-1566 1228,-1566 1228,-1566 C1203,-1591 1203,-1591 1203,-1591 C1228,-1616 1228,-1616 
        1228,-1616 C1228,-1600 1228,-1600 1228,-1600 C1228,-1600 1267,-1599 1268,-1620" stroke-width="2" transform="matrix(0.33333, 0, 0, 0.33333, 0, 0)"
        stroke="#000000"/>
    <path fill="#ffffff" d="M1161,-1642 L1156,-1638 L1156,-1657 L1176,-1657 L1171,-1653 L1171,-1652 L1199,-1624 
        L1190,-1614 L1161,-1643 L1161,-1642 L1161,-1642 Z M1162,-1541 L1158,-1545 L1158,-1526 L1177,-1526 L1173,-1530 
        L1172,-1531 L1201,-1560 L1192,-1569 L1163,-1541 L1162,-1541 L1162,-1541 Z" transform="matrix(0.33333, 0, 0, 0.33333, 0, 0)"
        stroke="none"/>
    <path fill="#ffffff" d="M1175,-1595 C1175,-1576 1175,-1576 1175,-1576 C1154,-1576 1154,-1576 1154,-1576 C1154,-1595 
        1154,-1595 1154,-1595 C1165,-1601 1175,-1595 1175,-1595 Z" transform="matrix(0.33333, 0, 0, 0.33333, 0, 0)"
        stroke="none"/>
    <path fill="#ffffff" d="M1171,-1603 C1171,-1600 1168,-1597 1165,-1597 C1161,-1597 1159,-1600 1159,-1603 C1159,-1607 
        1161,-1609 1165,-1609 C1168,-1609 1171,-1607 1171,-1603 Z" transform="matrix(0.33333, 0, 0, 0.33333, 0, 0)"
        stroke="none"/>
    <path fill="#ffffff" d="M1200,-1595 C1200,-1576 1200,-1576 1200,-1576 C1179,-1576 1179,-1576 1179,-1576 C1179,-1595 
        1179,-1595 1179,-1595 C1190,-1601 1200,-1595 1200,-1595 Z" transform="matrix(0.33333, 0, 0, 0.33333, 0, 0)"
        stroke="none"/>
    <path fill="#ffffff" d="M1196,-1603 C1196,-1600 1193,-1597 1190,-1597 C1186,-1597 1184,-1600 1184,-1603 C1184,-1607 
        1186,-1609 1190,-1609 C1193,-1609 1196,-1607 1196,-1603 Z" transform="matrix(0.33333, 0, 0, 0.33333, 0, 0)"
        stroke="none"/>
</svg>