<?xml version="1.0" standalone="no"?>
<!DOCTYPE svg PUBLIC "-//W3C//DTD SVG 1.0//EN"
    "http://www.w3.org/TR/2001/REC-SVG-20010904/DTD/svg10.dtd">
<?xml-stylesheet type="text/css" href="..\cisco_network.css" ?>
<svg contentScriptType="text/ecmascript" zoomAndPan="magnify" xmlns:xlink="http://www.w3.org/1999/xlink" baseProfile="full"
    contentStyleType="text/css" enable-background="new" version="1.0" width="39.8835" preserveAspectRatio="none"
    viewBox="384.99 -560.99 45.024 41.984" height="37.1906" xmlns="http://www.w3.org/2000/svg"
    color-interpolation-filters="sRGB" x="0" y="1.5">
    <path d="M1279,-1559 L1279,-1671 L1158,-1671 L1158,-1559 L1279,-1559 Z M1158,-1671 L1171,-1681 L1289,-1681 
        L1279,-1671 L1158,-1671 Z M1279,-1559 L1289,-1571 L1289,-1681 L1279,-1671 L1279,-1559 Z" stroke-width="2"
        transform="matrix(0.33333, 0, 0, 0.33333, 0, 0)"/>
    <path fill="none" stroke-width="2" d="M1278,-1633 C1255,-1633 1255,-1633 1255,-1633 C1247,-1633 1247,-1641 
        1247,-1641 C1259,-1668 1237,-1664 1237,-1664 C1237,-1664 1216,-1668 1228,-1641 C1228,-1641 1228,-1633 1220,-1633 
        C1165,-1633 1165,-1633 1165,-1633 C1165,-1633 1160,-1632 1159,-1626" transform="matrix(0.33333, 0, 0, 0.33333, 0, 0)"/>
    <path fill="none" stroke-width="2" d="M1158,-1598 C1181,-1598 1181,-1598 1181,-1598 C1189,-1598 1189,-1590 
        1189,-1590 C1176,-1563 1198,-1567 1198,-1567 C1198,-1567 1220,-1563 1208,-1590 C1208,-1590 1208,-1598 1216,-1598 
        C1271,-1598 1271,-1598 1271,-1598 C1271,-1598 1275,-1599 1277,-1605" transform="matrix(0.33333, 0, 0, 0.33333, 0, 0)"/>
    <path fill="#ffffff" d="M1186,-1620 L1189,-1615 L1178,-1613 L1180,-1615 L1163,-1618 L1167,-1621 L1184,-1618 
        L1186,-1620 Z M1202,-1609 L1200,-1614 L1211,-1616 L1209,-1614 L1226,-1611 L1222,-1608 L1205,-1611 L1202,-1609 Z 
        M1197,-1622 L1208,-1626 L1209,-1621 L1206,-1621 L1200,-1616 L1195,-1617 L1200,-1622 L1197,-1622 Z M1192,-1605 
        L1181,-1602 L1180,-1608 L1184,-1607 L1190,-1612 L1195,-1611 L1188,-1606 L1192,-1605 Z M1252,-1615 L1260,-1609 
        L1263,-1609 L1264,-1611 L1272,-1608 L1264,-1605 L1263,-1607 L1259,-1607 L1250,-1613 L1242,-1607 L1237,-1607 
        L1237,-1605 L1229,-1608 L1237,-1611 L1237,-1609 L1240,-1609 L1248,-1615 L1240,-1621 L1237,-1621 L1237,-1619 
        L1229,-1622 L1237,-1625 L1237,-1624 L1242,-1624 L1250,-1617 L1259,-1624 L1263,-1624 L1264,-1625 L1272,-1622 
        L1264,-1619 L1263,-1621 L1260,-1621 L1252,-1615 Z" transform="matrix(0.33333, 0, 0, 0.33333, 0, 0)" stroke="none"/>
</svg>