<?xml version="1.0" standalone="no"?>
<!DOCTYPE svg PUBLIC "-//W3C//DTD SVG 1.0//EN"
    "http://www.w3.org/TR/2001/REC-SVG-20010904/DTD/svg10.dtd">
<?xml-stylesheet type="text/css" href="..\cisco_network.css" ?>
<svg contentScriptType="text/ecmascript" zoomAndPan="magnify" xmlns:xlink="http://www.w3.org/1999/xlink" baseProfile="full"
    contentStyleType="text/css" enable-background="new" version="1.0" width="91.2472" preserveAspectRatio="none"
    viewBox="359.01 -560 103.01 41.984" height="37.1906" xmlns="http://www.w3.org/2000/svg" color-interpolation-filters="sRGB"
    x="0" y="1.5">
    <path stroke-width="2" d="M1351,-1580 C1351,-1578 1350,-1577 1349,-1577 C1104,-1577 1104,-1577 1104,-1577 
        C1102,-1577 1101,-1578 1101,-1580 C1115,-1662 1115,-1662 1115,-1662 C1115,-1663 1116,-1664 1117,-1664 
        C1358,-1664 1358,-1664 1358,-1664 C1360,-1664 1361,-1663 1361,-1662 Z" transform="matrix(0.33333, 0, 0, 0.33333, 0, 0)"/>
    <path stroke-width="2" d="M1385,-1591 C1385,-1590 1383,-1589 1382,-1589 C1348,-1577 1348,-1577 1348,-1577 
        C1347,-1577 1345,-1578 1345,-1580 C1355,-1662 1355,-1662 1355,-1662 C1355,-1663 1356,-1664 1357,-1664 
        C1382,-1664 1382,-1664 1382,-1664 C1384,-1664 1385,-1663 1385,-1662 Z" transform="matrix(0.33333, 0, 0, 0.33333, 0, 0)"/>
    <path stroke-width="2" d="M1328,-1566 L1243,-1566 L1267,-1597 L1347,-1597 L1328,-1566 Z" transform="matrix(0.33333, 0, 0, 0.33333, 0, 0)"/>
    <path stroke-width="2" d="M1328,-1556 L1243,-1556 L1244,-1565 L1328,-1565 L1328,-1556 Z" transform="matrix(0.33333, 0, 0, 0.33333, 0, 0)"/>
    <path stroke-width="2" d="M1347,-1597 L1347,-1577 L1327,-1555 L1327,-1566 L1347,-1597 Z" transform="matrix(0.33333, 0, 0, 0.33333, 0, 0)"/>
    <path fill="none" d="M1187,-1663 L1175,-1577 M1275,-1664 L1266,-1596" stroke-width="2" transform="matrix(0.33333, 0, 0, 0.33333, 0, 0)"/>
    <path stroke-width="2" d="M1348,-1633 C1348,-1628 1343,-1623 1338,-1623 C1332,-1623 1328,-1628 1328,-1633 
        C1328,-1639 1332,-1643 1338,-1643 C1343,-1643 1348,-1639 1348,-1633 Z" transform="matrix(0.33333, 0, 0, 0.33333, 0, 0)"/>
    <path stroke-width="2" d="M1157,-1645 C1157,-1640 1152,-1635 1147,-1635 C1141,-1635 1137,-1640 1137,-1645 
        C1137,-1651 1141,-1655 1147,-1655 C1152,-1655 1157,-1651 1157,-1645 Z" transform="matrix(0.33333, 0, 0, 0.33333, 0, 0)"/>
    <path stroke-width="2" d="M1290,-1580 C1287,-1576 1280,-1572 1274,-1573 C1267,-1573 1264,-1577 1266,-1582 
        C1269,-1586 1276,-1590 1282,-1589 C1289,-1589 1292,-1585 1290,-1580 Z" transform="matrix(0.33333, 0, 0, 0.33333, 0, 0)"/>
    <path stroke-width="2" d="M1220,-1611 C1218,-1602 1211,-1600 1202,-1600 C1202,-1600 1202,-1600 1202,-1600 
        C1193,-1600 1187,-1602 1188,-1611 C1192,-1637 1192,-1637 1192,-1637 C1194,-1646 1201,-1648 1210,-1648 
        C1210,-1648 1210,-1648 1210,-1648 C1219,-1648 1225,-1646 1224,-1637 Z" transform="matrix(0.33333, 0, 0, 0.33333, 0, 0)"/>
    <path stroke-width="2" d="M1255,-1611 C1253,-1602 1246,-1600 1237,-1600 C1237,-1600 1237,-1600 1237,-1600 
        C1228,-1600 1222,-1602 1223,-1611 C1227,-1637 1227,-1637 1227,-1637 C1229,-1646 1236,-1648 1245,-1648 
        C1245,-1648 1245,-1648 1245,-1648 C1254,-1648 1260,-1646 1259,-1637 Z" transform="matrix(0.33333, 0, 0, 0.33333, 0, 0)"/>
    <path stroke-width="2" d="M1316,-1612 C1314,-1605 1305,-1603 1295,-1603 C1295,-1603 1295,-1603 1295,-1603 
        C1284,-1603 1276,-1605 1278,-1612 C1281,-1635 1281,-1635 1281,-1635 C1283,-1643 1292,-1644 1302,-1644 
        C1302,-1644 1302,-1644 1302,-1644 C1313,-1644 1321,-1643 1320,-1635 Z" transform="matrix(0.33333, 0, 0, 0.33333, 0, 0)"/>
    <path stroke-width="2" d="M1171,-1619 L1121,-1619 L1123,-1627 L1172,-1627 L1171,-1619 Z M1168,-1607 L1119,-1607 
        L1120,-1615 L1169,-1615 L1168,-1607 Z M1165,-1595 L1116,-1595 L1117,-1603 L1167,-1603 L1165,-1595 Z M1163,-1583 
        L1113,-1583 L1115,-1591 L1164,-1591 L1163,-1583 Z M1323,-1573 L1296,-1573 L1305,-1586 L1332,-1586 L1323,-1573 Z"
        transform="matrix(0.33333, 0, 0, 0.33333, 0, 0)"/>
    <path fill="none" d="M1150,-1650 C1170,-1678 1209,-1671 1209,-1671" stroke-width="2" transform="matrix(0.33333, 0, 0, 0.33333, 0, 0)"/>
    <path fill="none" stroke-width="2" d="M1150,-1650 C1170,-1678 1209,-1671 1209,-1671" transform="matrix(0.33333, 0, 0, 0.33333, 0, 0)"/>
    <path stroke-width="2" d="M1218,-1673 C1218,-1670 1214,-1667 1209,-1667 C1204,-1667 1200,-1670 1200,-1673 
        C1200,-1676 1204,-1678 1209,-1678 C1214,-1678 1218,-1676 1218,-1673 Z" transform="matrix(0.33333, 0, 0, 0.33333, 0, 0)"/>
    <path fill="none" d="M1133,-1631 L1122,-1579 M1164,-1631 L1153,-1579 M1148,-1631 L1137,-1579" stroke-width="3"
        transform="matrix(0.33333, 0, 0, 0.33333, 0, 0)" stroke="#0e6a98"/>
    <path fill="none" d="M1080,-1609 L1083,-1627" stroke-width="2" transform="matrix(0.33333, 0, 0, 0.33333, 0, 0)"/>
    <path stroke-width="2" d="M1105,-1635 C1103,-1628 1100,-1621 1099,-1613 C1101,-1609 1101,-1609 1101,-1609 
        C1098,-1587 1098,-1587 1098,-1587 C1091,-1601 1091,-1601 1091,-1601 C1089,-1612 1100,-1653 1104,-1658 
        C1111,-1644 1111,-1644 1111,-1644 C1107,-1630 1107,-1630 1107,-1630 Z" transform="matrix(0.33333, 0, 0, 0.33333, 0, 0)"/>
    <path stroke-width="2" d="M1077,-1601 L1082,-1587 L1098,-1587 L1091,-1601 L1077,-1601 Z" transform="matrix(0.33333, 0, 0, 0.33333, 0, 0)"/>
    <path stroke-width="2" d="M1104,-1658 C1100,-1653 1089,-1612 1091,-1601 C1077,-1601 1077,-1601 1077,-1601 
        C1075,-1611 1086,-1653 1090,-1658 Z" transform="matrix(0.33333, 0, 0, 0.33333, 0, 0)"/>
</svg>