<?xml version="1.0" standalone="no"?>
<!DOCTYPE svg PUBLIC "-//W3C//DTD SVG 1.0//EN"
    "http://www.w3.org/TR/2001/REC-SVG-20010904/DTD/svg10.dtd">
<?xml-stylesheet type="text/css" href="..\cisco_network.css" ?>
<svg contentScriptType="text/ecmascript" zoomAndPan="magnify" xmlns:xlink="http://www.w3.org/1999/xlink" baseProfile="full"
    contentStyleType="text/css" enable-background="new" version="1.0" width="31.011" preserveAspectRatio="none" viewBox="392 -556.99 35.008 33.984"
    height="30.1039" xmlns="http://www.w3.org/2000/svg" color-interpolation-filters="sRGB" x="0" y="1.5">
    <path d="M1279,-1601 L1269,-1586 L1178,-1586 L1193,-1601 L1279,-1601 Z" stroke-width="2" transform="matrix(0.33333, 0, 0, 0.33333, 0, 0)"/>
    <path d="M1178,-1570 L1178,-1586 L1265,-1586 L1265,-1570 L1178,-1570 Z" stroke-width="2" transform="matrix(0.33333, 0, 0, 0.33333, 0, 0)"/>
    <path d="M1178,-1655 L1264,-1655 L1264,-1590 L1178,-1590 L1178,-1655 Z" stroke-width="2" transform="matrix(0.33333, 0, 0, 0.33333, 0, 0)"/>
    <path d="M1264,-1590 L1279,-1605 L1279,-1670 L1264,-1655 L1264,-1590 Z" stroke-width="2" transform="matrix(0.33333, 0, 0, 0.33333, 0, 0)"/>
    <path d="M1265,-1570 L1265,-1586 L1279,-1601 L1279,-1585 L1265,-1570 Z" stroke-width="2" transform="matrix(0.33333, 0, 0, 0.33333, 0, 0)"/>
    <path fill="#ffffff" stroke-width="2" d="M1192,-1648 C1250,-1648 1250,-1648 1250,-1648 C1254,-1648 1257,-1645 
        1257,-1641 C1257,-1604 1257,-1604 1257,-1604 C1257,-1601 1254,-1598 1250,-1598 C1192,-1598 1192,-1598 1192,-1598 
        C1188,-1598 1185,-1601 1185,-1604 C1185,-1641 1185,-1641 1185,-1641 C1185,-1645 1188,-1648 1192,-1648 Z"
        transform="matrix(0.33333, 0, 0, 0.33333, 0, 0)"/>
    <path d="M1279,-1670 L1195,-1670 L1178,-1655 L1264,-1655 L1279,-1670 Z" stroke-width="2" transform="matrix(0.33333, 0, 0, 0.33333, 0, 0)"/>
    <path stroke-width="2" d="M1193,-1578 C1193,-1575 1191,-1573 1188,-1573 C1185,-1573 1183,-1575 1183,-1578 
        C1183,-1581 1185,-1583 1188,-1583 C1191,-1583 1193,-1581 1193,-1578 Z" transform="matrix(0.33333, 0, 0, 0.33333, 0, 0)"/>
    <path stroke-width="2" d="M1261,-1578 C1261,-1575 1258,-1573 1255,-1573 C1253,-1573 1250,-1575 1250,-1578 
        C1250,-1581 1253,-1583 1255,-1583 C1258,-1583 1261,-1581 1261,-1578 Z" transform="matrix(0.33333, 0, 0, 0.33333, 0, 0)"/>
    <path stroke-width="2" d="M1212,-1577 C1212,-1575 1211,-1574 1210,-1574 C1208,-1574 1207,-1575 1207,-1577 
        C1207,-1578 1208,-1579 1210,-1579 C1211,-1579 1212,-1578 1212,-1577 Z" transform="matrix(0.33333, 0, 0, 0.33333, 0, 0)"/>
    <path stroke-width="2" d="M1223,-1577 C1223,-1575 1222,-1574 1220,-1574 C1219,-1574 1218,-1575 1218,-1577 
        C1218,-1578 1219,-1579 1220,-1579 C1222,-1579 1223,-1578 1223,-1577 Z" transform="matrix(0.33333, 0, 0, 0.33333, 0, 0)"/>
    <path stroke-width="2" d="M1233,-1577 C1233,-1575 1232,-1574 1231,-1574 C1229,-1574 1228,-1575 1228,-1577 
        C1228,-1578 1229,-1579 1231,-1579 C1232,-1579 1233,-1578 1233,-1577 Z" transform="matrix(0.33333, 0, 0, 0.33333, 0, 0)"/>
    <path fill="#ffffff" d="M1204,-1639 C1212,-1646 1212,-1646 1212,-1646 C1217,-1643 1217,-1643 1217,-1643 C1217,-1637 
        1217,-1637 1217,-1637 C1219,-1633 1219,-1633 1219,-1633 C1217,-1627 1217,-1627 1217,-1627 C1216,-1626 1216,-1626 
        1216,-1626 C1216,-1624 1214,-1625 1214,-1625 C1212,-1614 1212,-1614 1212,-1614 C1205,-1624 1205,-1624 1205,-1624 
        C1204,-1628 1204,-1628 1204,-1628 C1201,-1637 1201,-1637 1201,-1637" transform="matrix(0.33333, 0, 0, 0.33333, 0, 0)"
        stroke="none"/>
    <path d="M1207,-1641 C1208,-1640 1208,-1640 1208,-1639 C1208,-1638 1208,-1636 1207,-1634 C1207,-1633 1207,-1632 
        1206,-1633 C1206,-1633 1205,-1634 1204,-1634 C1204,-1634 1203,-1634 1202,-1633 C1203,-1631 1205,-1629 1204,-1626 
        C1202,-1629 1200,-1632 1199,-1635 C1198,-1637 1199,-1639 1200,-1641 C1201,-1643 1203,-1645 1206,-1645 
        C1210,-1646 1213,-1647 1217,-1647 C1214,-1645 1210,-1644 1207,-1642 C1207,-1641 1207,-1641 1207,-1641 Z" stroke="none"
        transform="matrix(0.33333, 0, 0, 0.33333, 0, 0)"/>
    <path d="M1220,-1641 C1219,-1639 1218,-1637 1217,-1636 C1217,-1636 1217,-1636 1217,-1636 C1217,-1636 1216,-1636 
        1216,-1636 C1216,-1637 1216,-1637 1216,-1638 C1216,-1638 1217,-1638 1217,-1638 C1219,-1640 1216,-1642 1215,-1645 
        C1217,-1645 1219,-1643 1221,-1643 C1221,-1642 1220,-1641 1220,-1641 Z" stroke="none" transform="matrix(0.33333, 0, 0, 0.33333, 0, 0)"/>
    <path d="M1211,-1636 C1211,-1636 1210,-1636 1210,-1636 C1209,-1638 1212,-1637 1214,-1638 C1213,-1637 1213,-1636 
        1211,-1636 Z" stroke="none" transform="matrix(0.33333, 0, 0, 0.33333, 0, 0)"/>
    <path d="M1215,-1632 C1215,-1632 1214,-1632 1214,-1632 C1214,-1632 1215,-1633 1216,-1633 C1216,-1632 1216,-1632 
        1216,-1632 C1216,-1632 1216,-1632 1215,-1632 Z" stroke="none" transform="matrix(0.33333, 0, 0, 0.33333, 0, 0)"/>
    <path d="M1215,-1629 C1214,-1629 1213,-1629 1212,-1629 C1212,-1629 1213,-1629 1213,-1629 C1214,-1629 1215,-1630 
        1216,-1629 C1216,-1629 1215,-1629 1215,-1629 Z" stroke="none" transform="matrix(0.33333, 0, 0, 0.33333, 0, 0)"/>
    <path d="M1215,-1628 C1215,-1627 1214,-1627 1214,-1627 C1214,-1627 1214,-1628 1213,-1628 C1214,-1628 1214,-1628 
        1215,-1628 Z" stroke="none" transform="matrix(0.33333, 0, 0, 0.33333, 0, 0)"/>
    <path d="M1231,-1605 C1231,-1606 1232,-1608 1232,-1610 C1232,-1611 1233,-1613 1233,-1613 C1232,-1615 1230,-1616 
        1229,-1616 C1225,-1618 1221,-1619 1216,-1621 C1216,-1621 1216,-1621 1216,-1621 C1217,-1611 1217,-1611 1217,-1611 
        C1213,-1599 1213,-1599 1213,-1599" stroke="none" transform="matrix(0.33333, 0, 0, 0.33333, 0, 0)"/>
    <path d="M1213,-1599 C1205,-1610 1205,-1610 1205,-1610 C1202,-1621 1202,-1621 1202,-1621 C1201,-1620 1201,-1620 
        1200,-1619 C1195,-1617 1191,-1616 1186,-1613 C1186,-1603 1190,-1607 1189,-1597" stroke="none" transform="matrix(0.33333, 0, 0, 0.33333, 0, 0)"/>
    <path fill="#ffffff" d="M1212,-1598 C1217,-1611 1217,-1611 1217,-1611 C1216,-1621 1216,-1621 1216,-1621 C1214,-1622 
        1214,-1622 1214,-1622 C1212,-1618 1212,-1618 1212,-1618 C1204,-1624 1204,-1624 1204,-1624 C1204,-1623 1202,-1621 
        1202,-1621 C1205,-1610 1205,-1610 1205,-1610 C1213,-1599 1213,-1599 1213,-1599" transform="matrix(0.33333, 0, 0, 0.33333, 0, 0)"
        stroke="none"/>
    <path d="M1210,-1599 L1211,-1615 L1210,-1616 L1211,-1618 L1212,-1617 L1213,-1618 L1214,-1617 L1213,-1615 L1214,-1601 
        Z" transform="matrix(0.33333, 0, 0, 0.33333, 0, 0)" stroke="none"/>
    <path fill="none" d="M1210,-1599 L1211,-1615 L1210,-1616 L1211,-1618 L1212,-1617 L1213,-1618 L1214,-1617 L1213,-1615 
        L1214,-1601" transform="matrix(0.33333, 0, 0, 0.33333, 0, 0)" stroke="none"/>
    <path d="M1224,-1615 C1223,-1616 1222,-1616 1222,-1617 C1222,-1617 1223,-1617 1224,-1617 C1223,-1618 1222,-1619 
        1222,-1621 C1222,-1621 1222,-1621 1222,-1621 C1223,-1621 1223,-1620 1223,-1620 C1224,-1620 1224,-1620 1224,-1620 
        C1224,-1621 1224,-1622 1224,-1622 C1224,-1622 1226,-1622 1226,-1623 C1226,-1624 1224,-1625 1225,-1626 
        C1226,-1626 1227,-1625 1227,-1626 C1227,-1627 1226,-1628 1226,-1628 C1226,-1629 1227,-1629 1227,-1630 
        C1228,-1631 1227,-1632 1227,-1633 C1228,-1636 1230,-1639 1231,-1642 C1235,-1642 1236,-1645 1242,-1642 
        C1242,-1642 1241,-1642 1242,-1642 C1242,-1642 1242,-1642 1242,-1641 C1243,-1641 1244,-1642 1245,-1641 
        C1245,-1640 1244,-1639 1244,-1639 C1244,-1638 1246,-1638 1246,-1637 C1247,-1636 1245,-1634 1245,-1633 
        C1245,-1632 1247,-1632 1248,-1631 C1248,-1630 1247,-1628 1248,-1627 C1249,-1628 1249,-1628 1250,-1629 
        C1250,-1628 1250,-1627 1251,-1626 C1251,-1627 1252,-1627 1253,-1628 C1253,-1628 1253,-1627 1253,-1627 
        C1252,-1626 1251,-1625 1249,-1624 C1249,-1624 1249,-1624 1249,-1624 C1247,-1625 1247,-1625 1247,-1625 
        C1247,-1624 1249,-1624 1248,-1624 C1248,-1623 1248,-1623 1248,-1623 C1249,-1622 1250,-1622 1251,-1623 
        C1251,-1621 1249,-1621 1249,-1620 C1249,-1619 1250,-1619 1251,-1619 C1251,-1618 1250,-1618 1249,-1617" stroke="none"
        transform="matrix(0.33333, 0, 0, 0.33333, 0, 0)"/>
    <path d="M1213,-1598 C1214,-1603 1214,-1606 1214,-1611 C1217,-1613 1220,-1614 1224,-1615 C1238,-1618 1238,-1618 
        1238,-1618 C1249,-1617 1249,-1617 1249,-1617 C1251,-1616 1253,-1616 1256,-1616 C1258,-1610 1252,-1604 1254,-1599 
        C1253,-1598 1253,-1598 1253,-1598" stroke="none" transform="matrix(0.33333, 0, 0, 0.33333, 0, 0)"/>
    <path fill="#ffffff" d="M1243,-1611 C1243,-1611 1243,-1612 1243,-1612 C1243,-1612 1242,-1612 1243,-1612 C1243,-1613 
        1243,-1613 1243,-1613 C1243,-1612 1244,-1612 1244,-1612 C1244,-1614 1244,-1615 1244,-1617 C1243,-1618 1242,-1618 
        1242,-1618 C1241,-1619 1241,-1622 1242,-1622 C1244,-1622 1244,-1627 1245,-1630 C1245,-1631 1245,-1631 1244,-1633 
        C1244,-1632 1244,-1632 1244,-1632 C1243,-1632 1243,-1631 1242,-1632 C1242,-1632 1242,-1633 1242,-1633 
        C1243,-1633 1244,-1634 1244,-1634 C1245,-1635 1244,-1636 1243,-1637 C1243,-1636 1242,-1636 1242,-1636 
        C1242,-1637 1242,-1638 1241,-1638 C1240,-1637 1241,-1635 1239,-1635 C1239,-1636 1239,-1637 1239,-1637 
        C1238,-1636 1237,-1636 1237,-1636 C1236,-1636 1236,-1637 1236,-1637 C1235,-1636 1236,-1635 1236,-1634 
        C1235,-1632 1235,-1630 1234,-1628 C1234,-1627 1234,-1627 1234,-1626 C1234,-1626 1235,-1626 1235,-1626 
        C1235,-1625 1234,-1625 1234,-1625 C1234,-1625 1234,-1624 1234,-1624 C1235,-1623 1235,-1623 1236,-1623 
        C1236,-1622 1234,-1622 1233,-1622 C1233,-1621 1234,-1620 1235,-1619 C1235,-1618 1234,-1619 1233,-1619 
        C1232,-1618 1233,-1617 1233,-1616 C1233,-1616 1232,-1616 1232,-1616 C1232,-1615 1232,-1614 1233,-1613 
        C1233,-1613 1233,-1613 1233,-1613 C1234,-1613 1234,-1612 1234,-1612 C1233,-1612 1233,-1612 1233,-1612 
        C1232,-1612 1233,-1611 1233,-1611 C1235,-1610 1238,-1609 1240,-1609 C1241,-1609 1242,-1610 1242,-1610 
        C1242,-1611 1240,-1610 1241,-1611 C1241,-1612 1242,-1612 1242,-1612 C1242,-1611 1242,-1611 1242,-1610 
        C1242,-1610 1242,-1610 1243,-1610 C1243,-1611 1244,-1611 1244,-1612 C1244,-1612 1244,-1612 1244,-1612 
        C1243,-1612 1244,-1611 1243,-1611 Z" transform="matrix(0.33333, 0, 0, 0.33333, 0, 0)" stroke="none"/>
    <path d="M1240,-1632 C1240,-1631 1240,-1631 1240,-1631 C1239,-1631 1238,-1631 1237,-1632 C1238,-1633 1240,-1633 
        1241,-1632 C1241,-1632 1240,-1632 1240,-1632 Z" stroke="none" transform="matrix(0.33333, 0, 0, 0.33333, 0, 0)"/>
    <path d="M1243,-1628 C1243,-1628 1242,-1628 1241,-1628 C1242,-1629 1242,-1629 1243,-1629 C1243,-1629 1243,-1629 
        1243,-1628 Z" stroke="none" transform="matrix(0.33333, 0, 0, 0.33333, 0, 0)"/>
    <path d="M1242,-1626 C1242,-1626 1241,-1626 1240,-1626 C1241,-1627 1243,-1626 1244,-1627 C1244,-1627 1244,-1626 
        1244,-1626 C1243,-1626 1243,-1626 1242,-1626 Z" stroke="none" transform="matrix(0.33333, 0, 0, 0.33333, 0, 0)"/>
    <path d="M1240,-1610 C1240,-1609 1239,-1610 1239,-1611 C1239,-1611 1240,-1611 1240,-1611 C1240,-1611 1241,-1610 
        1240,-1610 Z" stroke="none" transform="matrix(0.33333, 0, 0, 0.33333, 0, 0)"/>
    <path d="M1238,-1610 C1238,-1610 1238,-1610 1237,-1610 C1237,-1610 1237,-1611 1238,-1611 C1238,-1611 1238,-1611 
        1239,-1611 C1239,-1610 1238,-1610 1238,-1610 Z" stroke="none" transform="matrix(0.33333, 0, 0, 0.33333, 0, 0)"/>
    <path d="M1236,-1610 C1236,-1610 1236,-1610 1236,-1611 C1235,-1611 1235,-1611 1236,-1612 C1236,-1612 1237,-1611 
        1237,-1611 C1237,-1611 1236,-1610 1236,-1610 Z" stroke="none" transform="matrix(0.33333, 0, 0, 0.33333, 0, 0)"/>
    <path d="M1235,-1611 C1235,-1611 1234,-1611 1234,-1612 C1234,-1612 1235,-1613 1235,-1612 C1235,-1612 1235,-1612 
        1235,-1611 Z" stroke="none" transform="matrix(0.33333, 0, 0, 0.33333, 0, 0)"/>
    <path d="M1242,-1625 C1242,-1625 1242,-1625 1241,-1625 C1242,-1625 1243,-1626 1243,-1626 C1243,-1625 1243,-1625 
        1242,-1625 Z" stroke="none" transform="matrix(0.33333, 0, 0, 0.33333, 0, 0)"/>
    <path d="M1253,-1598 L1190,-1598 L1190,-1601 L1253,-1601 L1253,-1598 Z" transform="matrix(0.33333, 0, 0, 0.33333, 0, 0)"
        stroke="none"/>
</svg>