<?xml version="1.0" standalone="no"?>
<!DOCTYPE svg PUBLIC "-//W3C//DTD SVG 1.0//EN"
    "http://www.w3.org/TR/2001/REC-SVG-20010904/DTD/svg10.dtd">
<?xml-stylesheet type="text/css" href="..\cisco_network.css" ?>
<svg contentScriptType="text/ecmascript" zoomAndPan="magnify" xmlns:xlink="http://www.w3.org/1999/xlink" baseProfile="full"
    contentStyleType="text/css" enable-background="new" version="1.0" width="57.5717" preserveAspectRatio="none"
    viewBox="444 -470.02 64.992 32" height="28.3465" xmlns="http://www.w3.org/2000/svg" color-interpolation-filters="sRGB"
    x="0" y="1.5">
    <path d="M1335,-1362 L1393,-1409 L1526,-1409 L1478,-1362 L1335,-1362 Z M1478,-1316 L1526,-1368 L1526,-1409 
        L1478,-1362 L1478,-1316 Z M1478,-1316 L1478,-1362 L1335,-1362 L1335,-1316 L1478,-1316 Z" stroke-width="2"
        transform="matrix(0.33333, 0, 0, 0.33333, 0, 0)"/>
    <path fill="#000000" d="M1407,-1316 L1407,-1362 Z" transform="matrix(0.33333, 0, 0, 0.33333, 0, 0)" stroke="none"/>
    <path fill="none" d="M1407,-1316 L1407,-1362" stroke-width="4" transform="matrix(0.33333, 0, 0, 0.33333, 0, 0)"/>
    <path fill="#ffffff" d="M1433,-1325 L1458,-1339 L1433,-1353 L1433,-1325 Z" stroke-width="2" transform="matrix(0.33333, 0, 0, 0.33333, 0, 0)"/>
    <path fill="#ffffff" d="M1390,-1385 L1390,-1385 L1453,-1385 L1445,-1377 L1480,-1387 L1466,-1397 L1458,-1389 
        L1395,-1389 L1390,-1385 Z M1376,-1348 L1346,-1348 L1346,-1352 L1376,-1352 L1376,-1358 L1394,-1350 L1376,-1342 
        L1376,-1348 Z M1376,-1327 L1346,-1327 L1346,-1331 L1376,-1331 L1376,-1337 L1394,-1329 L1376,-1321 L1376,-1327 Z"
        transform="matrix(0.33333, 0, 0, 0.33333, 0, 0)" stroke="none"/>
</svg>