<?xml version="1.0" standalone="no"?>
<!DOCTYPE svg PUBLIC "-//W3C//DTD SVG 1.0//EN"
    "http://www.w3.org/TR/2001/REC-SVG-20010904/DTD/svg10.dtd">
<?xml-stylesheet type="text/css" href="..\cisco_network.css" ?>
<svg contentScriptType="text/ecmascript" zoomAndPan="magnify" xmlns:xlink="http://www.w3.org/1999/xlink" baseProfile="full"
    contentStyleType="text/css" enable-background="new" version="1.0" width="28.3465" preserveAspectRatio="none"
    viewBox="392 -563.01 32 44.992" height="39.8551" xmlns="http://www.w3.org/2000/svg" color-interpolation-filters="sRGB"
    x="0" y="1.5">
    <path d="M1250,-1667 L1177,-1667 L1177,-1556 L1250,-1556 Z" transform="matrix(0.33333, 0, 0, 0.33333, 0, 0)" stroke="none"/>
    <path fill="none" d="M1250,-1667 L1177,-1667 L1177,-1556 L1250,-1556" stroke-width="2" transform="matrix(0.33333, 0, 0, 0.33333, 0, 0)"/>
    <path stroke-width="2" d="M1250,-1556 L1270,-1576 L1270,-1687 L1197,-1687 L1177,-1667 L1250,-1667 L1250,-1556 Z"
        transform="matrix(0.33333, 0, 0, 0.33333, 0, 0)"/>
    <path fill="none" d="M1250,-1667 L1270,-1687 M1178,-1636 L1250,-1636 M1178,-1567 L1250,-1567 M1192,-1652 L1209,-1652 
        M1216,-1646 L1216,-1659 L1185,-1659 L1185,-1646 L1216,-1646 Z" stroke-width="2" transform="matrix(0.33333, 0, 0, 0.33333, 0, 0)"/>
    <path fill="#ffffff" d="M1219,-1599 C1219,-1595 1216,-1593 1212,-1593 C1211,-1593 1208,-1593 1207,-1595 C1206,-1596 
        1206,-1597 1206,-1599 C1206,-1609 1206,-1609 1206,-1609 C1209,-1609 1209,-1609 1209,-1609 C1209,-1599 1209,-1599 
        1209,-1599 C1209,-1597 1210,-1596 1212,-1596 C1214,-1596 1215,-1597 1215,-1599 C1215,-1609 1215,-1609 1215,-1609 
        C1219,-1609 1219,-1609 1219,-1609 Z" transform="matrix(0.33333, 0, 0, 0.33333, 0, 0)" stroke="none"/>
    <path fill="none" stroke-width="3" d="M1212,-1590 C1219,-1590 1225,-1595 1225,-1602 C1225,-1609 1219,-1614 
        1212,-1614 C1206,-1614 1200,-1609 1200,-1602 C1200,-1595 1206,-1590 1212,-1590 Z" transform="matrix(0.33333, 0, 0, 0.33333, 0, 0)"
        stroke="#ffffff"/>
    <path fill="none" d="M1212,-1614 L1234,-1614" stroke-width="3" transform="matrix(0.33333, 0, 0, 0.33333, 0, 0)"
        stroke="#ffffff"/>
    <path fill="#ffffff" d="M1235,-1621 L1235,-1608 L1242,-1614 L1235,-1621 Z" transform="matrix(0.33333, 0, 0, 0.33333, 0, 0)"/>
    <path fill="none" d="M1200,-1602 L1200,-1623" stroke-width="3" transform="matrix(0.33333, 0, 0, 0.33333, 0, 0)"
        stroke="#ffffff"/>
    <path fill="#ffffff" d="M1194,-1624 L1206,-1624 L1200,-1632 L1194,-1624 Z" transform="matrix(0.33333, 0, 0, 0.33333, 0, 0)"/>
    <path fill="none" d="M1225,-1602 L1225,-1581" stroke-width="3" transform="matrix(0.33333, 0, 0, 0.33333, 0, 0)"
        stroke="#ffffff"/>
    <path fill="#ffffff" d="M1231,-1580 L1219,-1580 L1224,-1572 L1231,-1580 Z" transform="matrix(0.33333, 0, 0, 0.33333, 0, 0)"/>
    <path fill="none" d="M1213,-1590 L1191,-1590" stroke-width="3" transform="matrix(0.33333, 0, 0, 0.33333, 0, 0)"
        stroke="#ffffff"/>
    <path fill="#ffffff" d="M1191,-1583 L1191,-1596 L1184,-1590 L1191,-1583 Z" transform="matrix(0.33333, 0, 0, 0.33333, 0, 0)"/>
</svg>