<?xml version="1.0" standalone="no"?>
<!DOCTYPE svg PUBLIC "-//W3C//DTD SVG 1.0//EN"
    "http://www.w3.org/TR/2001/REC-SVG-20010904/DTD/svg10.dtd">
<?xml-stylesheet type="text/css" href="..\cisco_network.css" ?>
<svg contentScriptType="text/ecmascript" zoomAndPan="magnify" xmlns:xlink="http://www.w3.org/1999/xlink" baseProfile="full"
    contentStyleType="text/css" enable-background="new" version="1.0" width="74.4094" preserveAspectRatio="none"
    viewBox="367.01 -556.99 84 32.992" height="29.2252" xmlns="http://www.w3.org/2000/svg" color-interpolation-filters="sRGB"
    x="0" y="1.5">
    <path d="M1346,-1578 L1346,-1654 L1110,-1654 L1110,-1578 L1346,-1578 Z" stroke-width="2" transform="matrix(0.33333, 0, 0, 0.33333, 0, 0)"/>
    <path d="M1346,-1663 L1346,-1671 L1110,-1671 L1110,-1663 L1346,-1663 Z" stroke-width="2" transform="matrix(0.33333, 0, 0, 0.33333, 0, 0)"/>
    <path d="M1125,-1634 L1125,-1648 L1118,-1648 L1118,-1634 L1125,-1634 Z" stroke-width="2" transform="matrix(0.33333, 0, 0, 0.33333, 0, 0)"/>
    <path d="M1125,-1612 L1125,-1627 L1118,-1627 L1118,-1612 L1125,-1612 Z" stroke-width="2" transform="matrix(0.33333, 0, 0, 0.33333, 0, 0)"/>
    <path d="M1125,-1591 L1125,-1605 L1118,-1605 L1118,-1591 L1125,-1591 Z" stroke-width="2" transform="matrix(0.33333, 0, 0, 0.33333, 0, 0)"/>
    <path d="M1228,-1588 L1228,-1627 L1202,-1627 L1202,-1588 L1228,-1588 Z" stroke-width="2" transform="matrix(0.33333, 0, 0, 0.33333, 0, 0)"/>
    <path d="M1228,-1588 L1228,-1627 L1255,-1627 L1255,-1588 L1228,-1588 Z" stroke-width="2" transform="matrix(0.33333, 0, 0, 0.33333, 0, 0)"/>
    <path d="M1349,-1663 L1353,-1654 L1104,-1654 L1108,-1663 L1349,-1663 Z" stroke-width="2" transform="matrix(0.33333, 0, 0, 0.33333, 0, 0)"/>
    <path d="M1262,-1584 L1262,-1590 L1195,-1590 L1195,-1584 L1262,-1584 Z" stroke-width="2" transform="matrix(0.33333, 0, 0, 0.33333, 0, 0)"/>
    <path d="M1265,-1578 L1265,-1584 L1192,-1584 L1192,-1578 L1265,-1578 Z" stroke-width="2" transform="matrix(0.33333, 0, 0, 0.33333, 0, 0)"/>
    <path d="M1147,-1634 L1147,-1648 L1140,-1648 L1140,-1634 L1147,-1634 Z M1147,-1612 L1147,-1627 L1140,-1627 
        L1140,-1612 L1147,-1612 Z M1147,-1591 L1147,-1605 L1140,-1605 L1140,-1591 L1147,-1591 Z M1169,-1634 L1169,-1648 
        L1162,-1648 L1162,-1634 L1169,-1634 Z M1169,-1612 L1169,-1627 L1162,-1627 L1162,-1612 L1169,-1612 Z M1169,-1591 
        L1169,-1605 L1162,-1605 L1162,-1591 L1169,-1591 Z M1191,-1634 L1191,-1648 L1184,-1648 L1184,-1634 L1191,-1634 Z 
        M1191,-1612 L1191,-1627 L1184,-1627 L1184,-1612 L1191,-1612 Z M1191,-1591 L1191,-1605 L1184,-1605 L1184,-1591 
        L1191,-1591 Z M1332,-1634 L1332,-1648 L1339,-1648 L1339,-1634 L1332,-1634 Z M1332,-1612 L1332,-1627 L1339,-1627 
        L1339,-1612 L1332,-1612 Z M1332,-1591 L1332,-1605 L1339,-1605 L1339,-1591 L1332,-1591 Z M1310,-1634 L1310,-1648 
        L1317,-1648 L1317,-1634 L1310,-1634 Z M1310,-1612 L1310,-1627 L1317,-1627 L1317,-1612 L1310,-1612 Z M1310,-1591 
        L1310,-1605 L1317,-1605 L1317,-1591 L1310,-1591 Z M1288,-1634 L1288,-1648 L1295,-1648 L1295,-1634 L1288,-1634 Z 
        M1288,-1612 L1288,-1627 L1295,-1627 L1295,-1612 L1288,-1612 Z M1288,-1591 L1288,-1605 L1295,-1605 L1295,-1591 
        L1288,-1591 Z M1266,-1634 L1266,-1648 L1273,-1648 L1273,-1634 L1266,-1634 Z M1266,-1612 L1266,-1627 L1273,-1627 
        L1273,-1612 L1266,-1612 Z M1266,-1591 L1266,-1605 L1273,-1605 L1273,-1591 L1266,-1591 Z M1245,-1634 L1245,-1648 
        L1252,-1648 L1252,-1634 L1245,-1634 Z M1225,-1634 L1225,-1648 L1232,-1648 L1232,-1634 L1225,-1634 Z M1205,-1634 
        L1205,-1648 L1212,-1648 L1212,-1634 L1205,-1634 Z M1212,-1610 L1212,-1622 L1206,-1622 L1206,-1610 L1212,-1610 Z 
        M1223,-1610 L1223,-1622 L1217,-1622 L1217,-1610 L1223,-1610 Z M1244,-1610 L1244,-1622 L1250,-1622 L1250,-1610 
        L1244,-1610 Z M1234,-1610 L1234,-1622 L1240,-1622 L1240,-1610 L1234,-1610 Z M1268,-1572 L1268,-1578 L1188,-1578 
        L1188,-1572 L1268,-1572 Z" stroke-width="2" transform="matrix(0.33333, 0, 0, 0.33333, 0, 0)"/>
</svg>