<?xml version="1.0" standalone="no"?>
<!DOCTYPE svg PUBLIC "-//W3C//DTD SVG 1.0//EN"
    "http://www.w3.org/TR/2001/REC-SVG-20010904/DTD/svg10.dtd">
<?xml-stylesheet type="text/css" href="..\cisco_network.css" ?>
<svg contentScriptType="text/ecmascript" zoomAndPan="magnify" xmlns:xlink="http://www.w3.org/1999/xlink" baseProfile="full"
    contentStyleType="text/css" enable-background="new" version="1.0" width="52.2709" preserveAspectRatio="none"
    viewBox="379.01 -555.01 59.008 56" height="49.6063" xmlns="http://www.w3.org/2000/svg" color-interpolation-filters="sRGB"
    x="0" y="1.5">
    <path d="M1294,-1552 L1308,-1628 L1201,-1628 L1186,-1552 L1294,-1552 Z M1308,-1628 L1312,-1623 L1299,-1549 
        L1294,-1552 L1308,-1628 Z M1186,-1552 L1190,-1549 L1299,-1549 L1294,-1552 L1186,-1552 Z" stroke-width="2"
        transform="matrix(0.33333, 0, 0, 0.33333, 0, 0)"/>
    <path d="M1295,-1547 C1295,-1536 1295,-1536 1295,-1536 C1292,-1533 1292,-1533 1292,-1533 C1292,-1533 1286,-1532 
        1287,-1528 C1258,-1500 1258,-1500 1258,-1500 C1258,-1512 1258,-1512 1258,-1512 Z" stroke-width="2" transform="matrix(0.33333, 0, 0, 0.33333, 0, 0)"/>
    <path d="M1140,-1512 L1140,-1500 L1258,-1500 L1258,-1512 L1140,-1512 Z" stroke="none" transform="matrix(0.33333, 0, 0, 0.33333, 0, 0)"/>
    <path fill="none" d="M1140,-1512 L1140,-1500 L1258,-1500 L1258,-1512 L1140,-1512" stroke-width="2" transform="matrix(0.33333, 0, 0, 0.33333, 0, 0)"/>
    <path d="M1187,-1546 L1295,-1547 L1258,-1512 L1140,-1512 L1187,-1546 Z M1285,-1559 L1296,-1619 L1210,-1619 
        L1198,-1559 L1285,-1559 Z" stroke-width="2" transform="matrix(0.33333, 0, 0, 0.33333, 0, 0)"/>
    <path fill="none" d="M1190,-1545 L1162,-1523 M1198,-1545 L1171,-1523 M1207,-1545 L1180,-1523 M1216,-1545 L1189,-1523 
        M1225,-1545 L1197,-1523 M1233,-1545 L1206,-1523 M1242,-1545 L1215,-1523 M1251,-1545 L1224,-1523 M1260,-1545 
        L1232,-1523 M1268,-1545 L1241,-1523 M1277,-1545 L1250,-1523 M1286,-1545 L1259,-1523 M1165,-1526 L1262,-1526 
        M1172,-1531 L1267,-1531 M1179,-1536 L1274,-1536 M1185,-1541 L1281,-1541" stroke-width="2.54" transform="matrix(0.33333, 0, 0, 0.33333, 0, 0)"
        stroke-linejoin="round"/>
    <path d="M1258,-1638 C1265,-1638 1271,-1644 1271,-1651 C1271,-1659 1265,-1665 1258,-1665 C1250,-1665 1244,-1659 
        1244,-1651 C1244,-1644 1250,-1638 1258,-1638 Z" transform="matrix(0.33333, 0, 0, 0.33333, 0, 0)"/>
    <path d="M1238,-1631 C1242,-1652 1242,-1652 1242,-1652 C1242,-1643 1249,-1635 1258,-1635 C1267,-1635 1274,-1643 
        1274,-1652 C1277,-1631 1277,-1631 1277,-1631 Z" transform="matrix(0.33333, 0, 0, 0.33333, 0, 0)" stroke="none"/>
    <path fill="#ffffff" d="M1267,-1648 L1267,-1654 L1249,-1654 L1249,-1648 L1267,-1648 Z" transform="matrix(0.33333, 0, 0, 0.33333, 0, 0)"
        stroke="none"/>
    <path fill="#ffffff" d="M1246,-1611 C1261,-1611 1261,-1611 1261,-1611 C1254,-1609 1251,-1601 1251,-1601 C1257,-1597 
        1257,-1597 1257,-1597 C1244,-1588 1244,-1588 1244,-1588 C1237,-1608 1237,-1608 1237,-1608 C1242,-1605 1242,-1605 
        1242,-1605 C1243,-1608 1246,-1611 1246,-1611 Z" transform="matrix(0.33333, 0, 0, 0.33333, 0, 0)" stroke="none"/>
    <path fill="#ffffff" d="M1258,-1564 C1261,-1571 1255,-1577 1255,-1577 C1249,-1574 1249,-1574 1249,-1574 C1248,-1590 
        1248,-1590 1248,-1590 C1268,-1585 1268,-1585 1268,-1585 C1263,-1582 1263,-1582 1263,-1582 C1268,-1575 1267,-1567 
        1267,-1567 C1264,-1563 1258,-1564 1258,-1564 Z" transform="matrix(0.33333, 0, 0, 0.33333, 0, 0)" stroke="none"/>
    <path fill="#ffffff" d="M1222,-1586 C1227,-1584 1233,-1585 1233,-1585 C1233,-1592 1233,-1592 1233,-1592 C1247,-1584 
        1247,-1584 1247,-1584 C1233,-1569 1233,-1569 1233,-1569 C1232,-1575 1232,-1575 1232,-1575 C1228,-1575 1225,-1576 
        1222,-1577 Z" transform="matrix(0.33333, 0, 0, 0.33333, 0, 0)" stroke="none"/>
</svg>