<?xml version="1.0" standalone="no"?>
<!DOCTYPE svg PUBLIC "-//W3C//DTD SVG 1.0//EN"
    "http://www.w3.org/TR/2001/REC-SVG-20010904/DTD/svg10.dtd">
<?xml-stylesheet type="text/css" href="..\cisco_network.css" ?>
<svg contentScriptType="text/ecmascript" zoomAndPan="magnify" xmlns:xlink="http://www.w3.org/1999/xlink" baseProfile="full"
    contentStyleType="text/css" enable-background="new" version="1.0" width="54.9071" preserveAspectRatio="none"
    viewBox="378.02 -548 61.984 41.984" height="37.1906" xmlns="http://www.w3.org/2000/svg" color-interpolation-filters="sRGB"
    x="0" y="1.5">
    <path d="M1140,-1521 L1293,-1521 L1293,-1621 L1140,-1621 L1140,-1521 Z M1315,-1541 L1293,-1521 L1293,-1621 
        L1315,-1643 L1315,-1541 Z" stroke-width="2" transform="matrix(0.33333, 0, 0, 0.33333, 0, 0)"/>
    <path d="M1166,-1643 L1315,-1643 L1293,-1621 L1140,-1621 L1166,-1643 Z" stroke-width="3" transform="matrix(0.33333, 0, 0, 0.33333, 0, 0)"/>
    <path fill="#ffffff" d="M1272,-1597 L1259,-1597 L1259,-1601 L1272,-1601 L1272,-1607 L1287,-1599 L1272,-1591 
        L1272,-1597 Z M1272,-1546 L1259,-1546 L1259,-1550 L1272,-1550 L1272,-1557 L1287,-1548 L1272,-1540 L1272,-1546 Z 
        M1161,-1571 L1146,-1571 L1146,-1575 L1161,-1575 L1161,-1582 L1176,-1573 L1161,-1565 L1161,-1571 Z" transform="matrix(0.33333, 0, 0, 0.33333, 0, 0)"
        stroke="none"/>
    <path d="M1250,-1587 C1250,-1580 1234,-1575 1215,-1575 C1196,-1575 1180,-1580 1180,-1587 C1180,-1558 1180,-1558 
        1180,-1558 C1180,-1551 1196,-1545 1215,-1545 C1234,-1545 1250,-1551 1250,-1558 Z" stroke-width="2" transform="matrix(0.33333, 0, 0, 0.33333, 0, 0)"/>
    <path d="M1215,-1575 C1234,-1575 1250,-1580 1250,-1587 C1250,-1595 1234,-1600 1215,-1600 C1196,-1600 1180,-1595 
        1180,-1587 C1180,-1580 1196,-1575 1215,-1575 Z" stroke-width="2" transform="matrix(0.33333, 0, 0, 0.33333, 0, 0)"/>
</svg>