<?xml version="1.0" standalone="no"?>
<!DOCTYPE svg PUBLIC "-//W3C//DTD SVG 1.0//EN"
    "http://www.w3.org/TR/2001/REC-SVG-20010904/DTD/svg10.dtd">
<?xml-stylesheet type="text/css" href="..\cisco_network.css" ?>
<svg contentScriptType="text/ecmascript" zoomAndPan="magnify" xmlns:xlink="http://www.w3.org/1999/xlink" baseProfile="full"
    contentStyleType="text/css" enable-background="new" version="1.0" width="36.3118" preserveAspectRatio="none"
    viewBox="390.02 -568 40.992 56" height="49.6063" xmlns="http://www.w3.org/2000/svg" color-interpolation-filters="sRGB"
    x="0" y="1.5">
    <path stroke-width="2" d="M1292,-1558 L1292,-1701 L1271,-1682 L1271,-1539 L1292,-1558 Z M1292,-1701 L1271,-1682 
        L1172,-1682 L1197,-1701 L1292,-1701 Z M1271,-1583 L1271,-1682 L1172,-1682 L1172,-1583 L1271,-1583 Z M1271,-1539 
        L1271,-1582 L1172,-1582 L1172,-1539 L1271,-1539 Z" transform="matrix(0.33333, 0, 0, 0.33333, 0, 0)"/>
    <path fill="#ffffff" d="M1213,-1644 L1197,-1659 L1200,-1662 L1190,-1664 L1192,-1654 L1195,-1657 L1210,-1642 
        L1213,-1644 Z M1207,-1634 L1186,-1634 L1186,-1638 L1178,-1633 L1186,-1627 L1186,-1631 L1207,-1631 L1207,-1634 Z 
        M1210,-1623 L1195,-1608 L1192,-1611 L1190,-1601 L1200,-1603 L1197,-1606 L1213,-1621 L1210,-1623 Z M1220,-1618 
        L1220,-1596 L1216,-1596 L1222,-1588 L1227,-1596 L1224,-1596 L1224,-1618 L1220,-1618 Z M1220,-1647 L1220,-1668 
        L1216,-1668 L1222,-1676 L1227,-1668 L1224,-1668 L1224,-1647 L1220,-1647 Z M1231,-1621 L1246,-1606 L1244,-1603 
        L1253,-1601 L1251,-1611 L1249,-1608 L1233,-1623 L1231,-1621 Z M1237,-1631 L1258,-1631 L1258,-1627 L1266,-1633 
        L1258,-1638 L1258,-1634 L1237,-1634 L1237,-1631 Z M1233,-1642 L1249,-1657 L1251,-1654 L1253,-1664 L1244,-1662 
        L1246,-1659 L1231,-1644 L1233,-1642 Z" transform="matrix(0.33333, 0, 0, 0.33333, 0, 0)" stroke="none"/>
    <path fill="#ffffff" stroke-width="2" d="M1235,-1614 C1245,-1621 1248,-1635 1240,-1646 C1233,-1656 1219,-1658 
        1209,-1651 C1199,-1644 1197,-1630 1204,-1620 C1211,-1610 1225,-1607 1235,-1614 Z" transform="matrix(0.33333, 0, 0, 0.33333, 0, 0)"/>
    <path fill="#ffffff" d="M1224,-1569 L1227,-1569 L1222,-1577 L1216,-1569 L1220,-1569 L1220,-1552 L1216,-1552 
        L1222,-1544 L1227,-1552 L1224,-1552 L1224,-1569 Z M1196,-1569 L1199,-1569 L1194,-1577 L1189,-1569 L1192,-1569 
        L1192,-1552 L1189,-1552 L1194,-1544 L1199,-1552 L1196,-1552 L1196,-1569 Z M1250,-1569 L1254,-1569 L1248,-1577 
        L1243,-1569 L1247,-1569 L1247,-1552 L1243,-1552 L1248,-1544 L1254,-1552 L1250,-1552 L1250,-1569 Z" transform="matrix(0.33333, 0, 0, 0.33333, 0, 0)"
        stroke="none"/>
</svg>