<?xml version="1.0" standalone="no"?>
<!DOCTYPE svg PUBLIC "-//W3C//DTD SVG 1.0//EN"
    "http://www.w3.org/TR/2001/REC-SVG-20010904/DTD/svg10.dtd">
<?xml-stylesheet type="text/css" href="..\cisco_network.css" ?>
<svg contentScriptType="text/ecmascript" zoomAndPan="magnify" xmlns:xlink="http://www.w3.org/1999/xlink" baseProfile="full"
    contentStyleType="text/css" enable-background="new" version="1.0" width="26.5606" preserveAspectRatio="none"
    viewBox="399.01 -582.02 29.984 60" height="53.1496" xmlns="http://www.w3.org/2000/svg" color-interpolation-filters="sRGB"
    x="0" y="1.5">
    <path stroke-width="2" d="M1197,-1568 L1269,-1568 L1269,-1728 L1197,-1728 L1197,-1568 Z" transform="matrix(0.33333, 0, 0, 0.33333, 0, 0)"/>
    <path d="M1197,-1728 L1214,-1744 L1286,-1744 L1269,-1728 L1197,-1728 Z" transform="matrix(0.33333, 0, 0, 0.33333, 0, 0)"
        stroke="none"/>
    <path fill="none" d="M1197,-1728 L1214,-1744 L1286,-1744 L1269,-1728 L1197,-1728" stroke-width="2" transform="matrix(0.33333, 0, 0, 0.33333, 0, 0)"/>
    <path d="M1269,-1568 L1286,-1584 L1286,-1744 L1269,-1728 L1269,-1568 Z" transform="matrix(0.33333, 0, 0, 0.33333, 0, 0)"
        stroke="none"/>
    <path fill="none" d="M1269,-1568 L1286,-1584 L1286,-1744 L1269,-1728 L1269,-1568" stroke-width="2" transform="matrix(0.33333, 0, 0, 0.33333, 0, 0)"/>
    <path fill="#ffffff" d="M1224,-1614 C1224,-1615 1224,-1618 1227,-1623 C1228,-1624 1229,-1625 1229,-1625 C1221,-1618 
        1221,-1618 1221,-1618 C1220,-1617 1219,-1616 1218,-1615 C1215,-1610 1215,-1607 1215,-1607 Z" transform="matrix(0.33333, 0, 0, 0.33333, 0, 0)"
        stroke="#0e6a98"/>
    <path fill="#ffffff" d="M1251,-1619 C1247,-1623 1242,-1629 1231,-1626 C1230,-1626 1230,-1626 1229,-1625 C1221,-1618 
        1221,-1618 1221,-1618 C1225,-1621 1235,-1624 1244,-1612 C1238,-1608 1238,-1608 1238,-1608 C1251,-1607 1251,-1607 
        1251,-1607 C1255,-1623 1255,-1623 1255,-1623 Z" transform="matrix(0.33333, 0, 0, 0.33333, 0, 0)" stroke="#0e6a98"/>
    <path fill="#ffffff" d="M1256,-1609 C1247,-1601 1247,-1601 1247,-1601 C1247,-1600 1248,-1595 1244,-1587 C1238,-1585 
        1230,-1588 1224,-1601 C1229,-1605 1229,-1605 1229,-1605 C1219,-1608 1219,-1608 1219,-1608 C1213,-1591 1213,-1591 
        1213,-1591 C1218,-1596 1218,-1596 1218,-1596 C1220,-1592 1222,-1589 1225,-1587 C1216,-1587 1216,-1587 1216,-1587 
        C1220,-1590 1220,-1590 1220,-1590 C1200,-1584 1200,-1584 1200,-1584 C1208,-1579 1208,-1579 1208,-1579 
        C1210,-1581 1210,-1581 1210,-1581 C1236,-1581 1236,-1581 1236,-1581 C1236,-1581 1236,-1581 1236,-1581 
        C1237,-1581 1239,-1581 1240,-1582 C1240,-1582 1240,-1582 1241,-1583 C1241,-1583 1241,-1582 1241,-1582 
        C1241,-1582 1249,-1588 1250,-1589 C1253,-1593 1256,-1598 1256,-1609 Z" transform="matrix(0.33333, 0, 0, 0.33333, 0, 0)"
        stroke="#0e6a98"/>
    <path fill="#ffffff" d="M1230,-1637 C1237,-1644 1237,-1644 1237,-1644 C1230,-1644 1227,-1644 1222,-1643 C1220,-1635 
        1218,-1630 1216,-1625 C1223,-1631 1223,-1631 1223,-1631 C1229,-1627 1235,-1625 1240,-1628 C1240,-1628 1241,-1628 
        1241,-1628 C1249,-1636 1249,-1636 1249,-1636 C1244,-1631 1236,-1632 1230,-1637 Z" transform="matrix(0.33333, 0, 0, 0.33333, 0, 0)"
        stroke="#0e6a98"/>
    <path fill="#ffffff" d="M1224,-1649 C1222,-1656 1223,-1663 1227,-1669 C1228,-1670 1229,-1671 1229,-1671 C1221,-1663 
        1221,-1663 1221,-1663 C1220,-1663 1219,-1662 1218,-1661 C1215,-1655 1214,-1648 1215,-1641 Z" transform="matrix(0.33333, 0, 0, 0.33333, 0, 0)"
        stroke="#0e6a98"/>
    <path fill="#ffffff" d="M1241,-1671 C1238,-1673 1234,-1673 1231,-1672 C1230,-1672 1230,-1672 1229,-1671 C1221,-1663 
        1221,-1663 1221,-1663 C1225,-1667 1230,-1668 1235,-1666 C1230,-1662 1230,-1662 1230,-1662 C1245,-1662 1245,-1662 
        1245,-1662 C1247,-1677 1247,-1677 1247,-1677 Z" transform="matrix(0.33333, 0, 0, 0.33333, 0, 0)" stroke="#0e6a98"/>
    <path fill="#ffffff" d="M1252,-1666 C1258,-1655 1256,-1644 1252,-1639 C1251,-1638 1250,-1637 1249,-1636 C1241,-1628 
        1241,-1628 1241,-1628 C1242,-1629 1242,-1630 1243,-1631 C1250,-1641 1246,-1652 1244,-1658 Z" transform="matrix(0.33333, 0, 0, 0.33333, 0, 0)"
        stroke="#0e6a98"/>
    <path fill="#ffffff" d="M1240,-1674 C1240,-1674 1241,-1674 1241,-1675 C1249,-1682 1249,-1682 1249,-1682 C1244,-1677 
        1236,-1678 1230,-1684 C1223,-1678 1223,-1678 1223,-1678 C1228,-1673 1235,-1672 1240,-1674 Z" transform="matrix(0.33333, 0, 0, 0.33333, 0, 0)"
        stroke="#0e6a98"/>
    <path fill="#ffffff" d="M1230,-1700 C1224,-1695 1224,-1695 1224,-1695 C1222,-1702 1223,-1709 1227,-1715 C1228,-1716 
        1229,-1717 1229,-1718 C1221,-1710 1221,-1710 1221,-1710 C1220,-1709 1219,-1708 1218,-1707 C1215,-1702 1214,-1694 
        1215,-1687 C1209,-1681 1209,-1681 1209,-1681 C1214,-1681 1218,-1681 1224,-1682 C1226,-1688 1227,-1693 
        1230,-1700" transform="matrix(0.33333, 0, 0, 0.33333, 0, 0)" stroke="#0e6a98"/>
    <path fill="#ffffff" d="M1230,-1700 C1224,-1695 1224,-1695 1224,-1695 C1222,-1702 1223,-1709 1227,-1715 C1228,-1716 
        1229,-1717 1229,-1718 C1221,-1710 1221,-1710 1221,-1710 C1220,-1709 1219,-1708 1218,-1707 C1215,-1702 1214,-1694 
        1215,-1687 C1209,-1681 1209,-1681 1209,-1681 C1214,-1681 1218,-1681 1224,-1682 C1226,-1688 1227,-1693 
        1230,-1700" transform="matrix(0.33333, 0, 0, 0.33333, 0, 0)" stroke="#0e6a98"/>
    <path fill="#ffffff" d="M1261,-1711 C1255,-1705 1255,-1705 1255,-1705 C1257,-1698 1256,-1691 1252,-1685 C1251,-1684 
        1250,-1683 1249,-1682 C1241,-1675 1241,-1675 1241,-1675 C1242,-1675 1242,-1676 1243,-1677 C1247,-1683 1248,-1690 
        1246,-1697 C1240,-1692 1240,-1692 1240,-1692 C1242,-1697 1244,-1702 1246,-1710 C1251,-1711 1254,-1711 
        1261,-1711" transform="matrix(0.33333, 0, 0, 0.33333, 0, 0)" stroke="#0e6a98"/>
    <path fill="#ffffff" d="M1261,-1711 C1255,-1705 1255,-1705 1255,-1705 C1257,-1698 1256,-1691 1252,-1685 C1251,-1684 
        1250,-1683 1249,-1682 C1241,-1675 1241,-1675 1241,-1675 C1242,-1675 1242,-1676 1243,-1677 C1247,-1683 1248,-1690 
        1246,-1697 C1240,-1692 1240,-1692 1240,-1692 C1242,-1697 1244,-1702 1246,-1710 C1251,-1711 1254,-1711 
        1261,-1711" transform="matrix(0.33333, 0, 0, 0.33333, 0, 0)" stroke="#0e6a98"/>
    <path fill="#ffffff" d="M1266,-1719 C1237,-1719 1237,-1719 1237,-1719 C1235,-1719 1233,-1719 1231,-1719 C1230,-1718 
        1230,-1718 1229,-1718 C1221,-1710 1221,-1710 1221,-1710 C1226,-1715 1235,-1714 1241,-1708 C1247,-1713 1247,-1713 
        1247,-1713 C1260,-1713 1260,-1713 1260,-1713 Z" transform="matrix(0.33333, 0, 0, 0.33333, 0, 0)" stroke="#0e6a98"/>
</svg>