<?xml version="1.0" standalone="no"?>
<!DOCTYPE svg PUBLIC "-//W3C//DTD SVG 1.0//EN"
    "http://www.w3.org/TR/2001/REC-SVG-20010904/DTD/svg10.dtd">
<?xml-stylesheet type="text/css" href="..\cisco_network.css" ?>
<svg contentScriptType="text/ecmascript" zoomAndPan="magnify" xmlns:xlink="http://www.w3.org/1999/xlink" baseProfile="full"
    contentStyleType="text/css" enable-background="new" version="1.0" width="37.2189" preserveAspectRatio="none"
    viewBox="388 -556 42.016 56" height="49.6063" xmlns="http://www.w3.org/2000/svg" color-interpolation-filters="sRGB"
    x="0" y="1.5">
    <path d="M1167,-1501 L1167,-1608 L1274,-1608 L1274,-1501 L1167,-1501 Z M1288,-1514 L1288,-1621 L1274,-1608 
        L1274,-1501 L1288,-1514 Z M1187,-1665 L1167,-1651 L1274,-1651 L1288,-1665 L1187,-1665 Z M1167,-1608 L1167,-1651 
        L1274,-1651 L1274,-1608 L1167,-1608 Z M1288,-1621 L1288,-1665 L1274,-1651 L1274,-1608 L1288,-1621 Z"
        stroke-width="2" transform="matrix(0.33333, 0, 0, 0.33333, 0, 0)"/>
    <path fill="none" d="M1274,-1608 L1167,-1608 M1274,-1608 L1288,-1621" stroke-width="2" transform="matrix(0.33333, 0, 0, 0.33333, 0, 0)"/>
    <path fill="#ffffff" d="M1202,-1636 L1202,-1645 L1185,-1645 L1185,-1636 L1202,-1636 Z" transform="matrix(0.33333, 0, 0, 0.33333, 0, 0)"
        stroke="none"/>
    <path fill="none" d="M1193,-1641 L1193,-1641" stroke-width="2" transform="matrix(0.33333, 0, 0, 0.33333, 0, 0)"/>
    <path fill="#ffffff" d="M1241,-1636 L1241,-1645 L1259,-1645 L1259,-1636 L1241,-1636 Z" transform="matrix(0.33333, 0, 0, 0.33333, 0, 0)"
        stroke="none"/>
    <path fill="none" d="M1250,-1641 L1250,-1641" stroke-width="2" transform="matrix(0.33333, 0, 0, 0.33333, 0, 0)"/>
    <path fill="#ffffff" d="M1202,-1614 L1202,-1623 L1185,-1623 L1185,-1614 L1202,-1614 Z" transform="matrix(0.33333, 0, 0, 0.33333, 0, 0)"
        stroke="none"/>
    <path fill="none" d="M1193,-1618 L1193,-1618" stroke-width="2" transform="matrix(0.33333, 0, 0, 0.33333, 0, 0)"/>
    <path fill="#ffffff" d="M1241,-1614 L1241,-1623 L1259,-1623 L1259,-1614 L1241,-1614 Z" transform="matrix(0.33333, 0, 0, 0.33333, 0, 0)"
        stroke="none"/>
    <path fill="none" d="M1250,-1618 L1250,-1618 M1196,-1641 L1250,-1641 M1196,-1618 L1250,-1618 M1193,-1618 L1250,-1641 
        M1193,-1641 L1250,-1618" stroke-width="2" transform="matrix(0.33333, 0, 0, 0.33333, 0, 0)" stroke="#ffffff"/>
    <path fill="#ffffff" d="M1196,-1584 L1196,-1593 L1198,-1593 L1196,-1596 L1193,-1593 L1195,-1593 L1195,-1584 
        L1196,-1584 Z M1192,-1582 L1185,-1589 L1186,-1590 L1182,-1591 L1183,-1587 L1184,-1588 L1191,-1581 L1192,-1582 Z 
        M1189,-1578 L1180,-1578 L1180,-1579 L1176,-1577 L1180,-1575 L1180,-1576 L1189,-1576 L1189,-1578 Z M1191,-1573 
        L1184,-1567 L1183,-1568 L1182,-1564 L1186,-1564 L1185,-1566 L1192,-1572 L1191,-1573 Z M1195,-1571 L1195,-1561 
        L1193,-1561 L1196,-1558 L1198,-1561 L1196,-1561 L1196,-1571 L1195,-1571 Z M1202,-1576 L1211,-1576 L1211,-1575 
        L1215,-1577 L1211,-1579 L1211,-1578 L1202,-1578 L1202,-1576 Z M1201,-1581 L1207,-1588 L1208,-1587 L1209,-1591 
        L1205,-1590 L1206,-1589 L1200,-1582 L1201,-1581 Z" transform="matrix(0.33333, 0, 0, 0.33333, 0, 0)" stroke="none"/>
    <path fill="#ffffff" d="M1201,-1569 C1206,-1572 1207,-1578 1204,-1583 C1201,-1587 1195,-1588 1190,-1585 C1186,-1582 
        1185,-1576 1188,-1572 C1191,-1567 1197,-1566 1201,-1569 Z" transform="matrix(0.33333, 0, 0, 0.33333, 0, 0)"
        stroke="none"/>
    <path fill="#ffffff" d="M1196,-1533 L1196,-1542 L1198,-1542 L1196,-1546 L1193,-1542 L1195,-1542 L1195,-1533 
        L1196,-1533 Z M1192,-1532 L1185,-1538 L1186,-1539 L1182,-1540 L1183,-1536 L1184,-1537 L1191,-1530 L1192,-1532 Z 
        M1189,-1527 L1180,-1527 L1180,-1529 L1176,-1526 L1180,-1524 L1180,-1526 L1189,-1526 L1189,-1527 Z M1191,-1522 
        L1184,-1516 L1183,-1517 L1182,-1513 L1186,-1514 L1185,-1515 L1192,-1521 L1191,-1522 Z M1195,-1520 L1195,-1511 
        L1193,-1511 L1196,-1507 L1198,-1511 L1196,-1511 L1196,-1520 L1195,-1520 Z M1200,-1521 L1206,-1515 L1205,-1514 
        L1209,-1513 L1208,-1517 L1207,-1516 L1201,-1522 L1200,-1521 Z M1202,-1526 L1211,-1526 L1211,-1524 L1215,-1526 
        L1211,-1529 L1211,-1527 L1202,-1527 L1202,-1526 Z" transform="matrix(0.33333, 0, 0, 0.33333, 0, 0)" stroke="none"/>
    <path fill="#ffffff" d="M1201,-1519 C1206,-1522 1207,-1528 1204,-1532 C1201,-1536 1195,-1537 1190,-1534 C1186,-1531 
        1185,-1525 1188,-1521 C1191,-1517 1197,-1516 1201,-1519 Z" transform="matrix(0.33333, 0, 0, 0.33333, 0, 0)"
        stroke="none"/>
    <path fill="#ffffff" d="M1247,-1584 L1247,-1593 L1249,-1593 L1246,-1596 L1244,-1593 L1246,-1593 L1246,-1584 
        L1247,-1584 Z M1242,-1582 L1236,-1589 L1237,-1590 L1233,-1591 L1234,-1587 L1235,-1588 L1241,-1581 L1242,-1582 Z 
        M1240,-1578 L1231,-1578 L1231,-1579 L1227,-1577 L1231,-1575 L1231,-1576 L1240,-1576 L1240,-1578 Z M1246,-1571 
        L1246,-1561 L1244,-1561 L1246,-1558 L1249,-1561 L1247,-1561 L1247,-1571 L1246,-1571 Z M1250,-1572 L1257,-1566 
        L1256,-1564 L1260,-1564 L1259,-1568 L1258,-1567 L1251,-1573 L1250,-1572 Z M1253,-1576 L1262,-1576 L1262,-1575 
        L1265,-1577 L1262,-1579 L1262,-1578 L1253,-1578 L1253,-1576 Z M1251,-1581 L1258,-1588 L1259,-1587 L1260,-1591 
        L1256,-1590 L1257,-1589 L1250,-1582 L1251,-1581 Z" transform="matrix(0.33333, 0, 0, 0.33333, 0, 0)" stroke="none"/>
    <path fill="#ffffff" d="M1252,-1569 C1256,-1572 1257,-1578 1254,-1583 C1251,-1587 1245,-1588 1241,-1585 C1237,-1582 
        1236,-1576 1239,-1572 C1242,-1567 1248,-1566 1252,-1569 Z" transform="matrix(0.33333, 0, 0, 0.33333, 0, 0)"
        stroke="none"/>
    <path fill="#ffffff" d="M1247,-1533 L1247,-1542 L1249,-1542 L1246,-1546 L1244,-1542 L1246,-1542 L1246,-1533 
        L1247,-1533 Z M1240,-1527 L1231,-1527 L1231,-1529 L1227,-1526 L1231,-1524 L1231,-1526 L1240,-1526 L1240,-1527 Z 
        M1241,-1522 L1235,-1516 L1234,-1517 L1233,-1513 L1237,-1514 L1236,-1515 L1242,-1521 L1241,-1522 Z M1246,-1520 
        L1246,-1511 L1244,-1511 L1246,-1507 L1249,-1511 L1247,-1511 L1247,-1520 L1246,-1520 Z M1250,-1521 L1257,-1515 
        L1256,-1514 L1260,-1513 L1259,-1517 L1258,-1516 L1251,-1522 L1250,-1521 Z M1253,-1526 L1262,-1526 L1262,-1524 
        L1265,-1526 L1262,-1529 L1262,-1527 L1253,-1527 L1253,-1526 Z M1251,-1530 L1258,-1537 L1259,-1536 L1260,-1540 
        L1256,-1539 L1257,-1538 L1250,-1532 L1251,-1530 Z" transform="matrix(0.33333, 0, 0, 0.33333, 0, 0)" stroke="none"/>
    <path fill="#ffffff" d="M1252,-1519 C1256,-1522 1257,-1528 1254,-1532 C1251,-1536 1245,-1537 1241,-1534 C1237,-1531 
        1236,-1525 1239,-1521 C1242,-1517 1248,-1516 1252,-1519 Z" transform="matrix(0.33333, 0, 0, 0.33333, 0, 0)"
        stroke="none"/>
    <path fill="none" d="M1201,-1572 L1242,-1531 M1200,-1531 L1243,-1573" stroke-width="4" transform="matrix(0.33333, 0, 0, 0.33333, 0, 0)"
        stroke="#ffffff"/>
</svg>