<?xml version="1.0" standalone="no"?>
<!DOCTYPE svg PUBLIC "-//W3C//DTD SVG 1.0//EN"
    "http://www.w3.org/TR/2001/REC-SVG-20010904/DTD/svg10.dtd">
<?xml-stylesheet type="text/css" href="..\cisco_network.css" ?>
<svg contentScriptType="text/ecmascript" zoomAndPan="magnify" xmlns:xlink="http://www.w3.org/1999/xlink" baseProfile="full"
    contentStyleType="text/css" enable-background="new" version="1.0" width="52.2709" preserveAspectRatio="none"
    viewBox="380.99 -563.01 59.008 32" height="28.3465" xmlns="http://www.w3.org/2000/svg" color-interpolation-filters="sRGB"
    x="0" y="1.5">
    <path d="M1145,-1596 L1145,-1660 L1287,-1660 L1287,-1596 L1145,-1596 Z M1287,-1660 L1144,-1660 L1180,-1687 
        L1317,-1687 L1287,-1660 Z M1317,-1687 L1317,-1625 L1287,-1596 L1287,-1660 L1317,-1687 Z" stroke-width="2"
        transform="matrix(0.33333, 0, 0, 0.33333, 0, 0)"/>
    <path fill="#ffffff" d="M1220,-1635 C1225,-1635 1225,-1635 1225,-1635 C1226,-1634 1226,-1634 1226,-1634 C1230,-1634 
        1230,-1634 1230,-1634 C1234,-1637 1234,-1637 1234,-1637 C1238,-1637 1238,-1637 1238,-1637 C1242,-1633 1242,-1633 
        1242,-1633 C1246,-1633 1246,-1633 1246,-1633 C1251,-1637 1251,-1637 1251,-1637 C1255,-1637 1255,-1637 1255,-1637 
        C1258,-1634 1258,-1634 1258,-1634 C1262,-1634 1262,-1634 1262,-1634 C1264,-1637 1264,-1637 1264,-1637 
        C1275,-1630 1275,-1630 1275,-1630 C1267,-1623 1267,-1623 1267,-1623 C1220,-1623 1220,-1623 1220,-1623 
        C1220,-1621 1220,-1621 1220,-1621 C1213,-1621 1213,-1621 1213,-1621 C1211,-1621 1209,-1620 1208,-1619 
        C1205,-1613 1199,-1609 1192,-1609 C1181,-1609 1172,-1618 1172,-1629 C1172,-1640 1181,-1649 1192,-1649 
        C1199,-1649 1205,-1646 1208,-1640 C1209,-1638 1211,-1637 1213,-1637 C1220,-1637 1220,-1637 1220,-1637 
        C1220,-1635 1220,-1635 1220,-1635" transform="matrix(0.33333, 0, 0, 0.33333, 0, 0)" stroke="#126d99"/>
    <path fill="#ffffff" d="M1220,-1635 C1225,-1635 1225,-1635 1225,-1635 C1226,-1634 1226,-1634 1226,-1634 C1230,-1634 
        1230,-1634 1230,-1634 C1234,-1637 1234,-1637 1234,-1637 C1238,-1637 1238,-1637 1238,-1637 C1242,-1633 1242,-1633 
        1242,-1633 C1246,-1633 1246,-1633 1246,-1633 C1251,-1637 1251,-1637 1251,-1637 C1255,-1637 1255,-1637 1255,-1637 
        C1258,-1634 1258,-1634 1258,-1634 C1262,-1634 1262,-1634 1262,-1634 C1264,-1637 1264,-1637 1264,-1637 
        C1275,-1630 1275,-1630 1275,-1630 C1267,-1623 1267,-1623 1267,-1623 C1220,-1623 1220,-1623 1220,-1623 
        C1220,-1621 1220,-1621 1220,-1621 C1213,-1621 1213,-1621 1213,-1621 C1211,-1621 1209,-1620 1208,-1619 
        C1205,-1613 1199,-1609 1192,-1609 C1181,-1609 1172,-1618 1172,-1629 C1172,-1640 1181,-1649 1192,-1649 
        C1199,-1649 1205,-1646 1208,-1640 C1209,-1638 1211,-1637 1213,-1637 C1220,-1637 1220,-1637 1220,-1637 
        C1220,-1635 1220,-1635 1220,-1635" transform="matrix(0.33333, 0, 0, 0.33333, 0, 0)" stroke="#126d99"/>
    <path fill="none" d="M1271,-1626 C1220,-1626 1220,-1626 1220,-1626 C1218,-1626 1215,-1626 1213,-1624 C1215,-1623 
        1218,-1623 1220,-1623" transform="matrix(0.33333, 0, 0, 0.33333, 0, 0)" stroke-linejoin="round" stroke="#126d99"/>
    <path fill="none" d="M1273,-1631 C1222,-1631 1222,-1631 1222,-1631 C1220,-1631 1215,-1631 1214,-1632" transform="matrix(0.33333, 0, 0, 0.33333, 0, 0)"
        stroke-linejoin="round" stroke="#126d99"/>
    <path fill="#ffffff" d="M1192,-1612 C1202,-1612 1209,-1620 1209,-1629 C1209,-1639 1202,-1647 1192,-1647 C1182,-1647 
        1174,-1639 1174,-1629 C1174,-1619 1182,-1612 1192,-1612 Z" transform="matrix(0.33333, 0, 0, 0.33333, 0, 0)"
        stroke-linejoin="round" stroke="#126d99"/>
    <path fill="#ffffff" d="M1182,-1625 C1184,-1625 1186,-1627 1186,-1629 C1186,-1632 1184,-1634 1182,-1634 C1179,-1634 
        1177,-1632 1177,-1629 C1177,-1627 1179,-1625 1182,-1625 Z" transform="matrix(0.33333, 0, 0, 0.33333, 0, 0)"
        stroke-linejoin="round" stroke="#126d99"/>
</svg>