<?xml version="1.0" standalone="no"?>
<!DOCTYPE svg PUBLIC "-//W3C//DTD SVG 1.0//EN"
    "http://www.w3.org/TR/2001/REC-SVG-20010904/DTD/svg10.dtd">
<?xml-stylesheet type="text/css" href="..\cisco_network.css" ?>
<svg contentScriptType="text/ecmascript" zoomAndPan="magnify" xmlns:xlink="http://www.w3.org/1999/xlink" baseProfile="full"
    contentStyleType="text/css" enable-background="new" version="1.0" width="37.1906" preserveAspectRatio="none"
    viewBox="387.01 -555.01 41.984 56" height="49.6063" xmlns="http://www.w3.org/2000/svg" color-interpolation-filters="sRGB"
    x="0" y="1.5">
    <path d="M1164,-1499 L1164,-1606 L1271,-1606 L1271,-1499 L1164,-1499 Z M1285,-1512 L1285,-1620 L1271,-1606 
        L1271,-1499 L1285,-1512 Z M1184,-1663 L1164,-1650 L1271,-1650 L1285,-1663 L1184,-1663 Z M1164,-1606 L1164,-1650 
        L1271,-1650 L1271,-1606 L1164,-1606 Z M1285,-1620 L1285,-1663 L1271,-1650 L1271,-1606 L1285,-1620 Z"
        stroke-width="2" transform="matrix(0.33333, 0, 0, 0.33333, 0, 0)"/>
    <path fill="none" d="M1271,-1606 L1285,-1620" stroke-width="2" transform="matrix(0.33333, 0, 0, 0.33333, 0, 0)"/>
    <path fill="#ffffff" d="M1199,-1635 L1199,-1644 L1182,-1644 L1182,-1635 L1199,-1635 Z" transform="matrix(0.33333, 0, 0, 0.33333, 0, 0)"
        stroke="none"/>
    <path fill="none" d="M1190,-1639 L1190,-1639" stroke-width="2" transform="matrix(0.33333, 0, 0, 0.33333, 0, 0)"/>
    <path fill="#ffffff" d="M1238,-1635 L1238,-1644 L1256,-1644 L1256,-1635 L1238,-1635 Z" transform="matrix(0.33333, 0, 0, 0.33333, 0, 0)"
        stroke="none"/>
    <path fill="none" d="M1247,-1639 L1247,-1639" stroke-width="2" transform="matrix(0.33333, 0, 0, 0.33333, 0, 0)"/>
    <path fill="#ffffff" d="M1199,-1612 L1199,-1621 L1182,-1621 L1182,-1612 L1199,-1612 Z" transform="matrix(0.33333, 0, 0, 0.33333, 0, 0)"
        stroke="none"/>
    <path fill="none" d="M1190,-1617 L1190,-1617" stroke-width="2" transform="matrix(0.33333, 0, 0, 0.33333, 0, 0)"/>
    <path fill="#ffffff" d="M1238,-1612 L1238,-1621 L1256,-1621 L1256,-1612 L1238,-1612 Z" transform="matrix(0.33333, 0, 0, 0.33333, 0, 0)"
        stroke="none"/>
    <path fill="none" d="M1247,-1617 L1247,-1617 M1193,-1639 L1246,-1639 M1193,-1617 L1246,-1617 M1190,-1617 L1246,-1639 
        M1190,-1639 L1246,-1617" stroke-width="2" transform="matrix(0.33333, 0, 0, 0.33333, 0, 0)" stroke="#ffffff"/>
    <path fill="#ffffff" d="M1198,-1558 L1198,-1567 L1199,-1567 L1197,-1570 L1195,-1567 L1196,-1567 L1196,-1558 
        L1198,-1558 Z M1193,-1557 L1187,-1563 L1188,-1564 L1184,-1565 L1185,-1561 L1186,-1562 L1192,-1556 L1193,-1557 Z 
        M1191,-1553 L1182,-1553 L1182,-1554 L1178,-1552 L1182,-1550 L1182,-1551 L1191,-1551 L1191,-1553 Z M1192,-1548 
        L1186,-1542 L1185,-1543 L1184,-1539 L1188,-1539 L1187,-1541 L1193,-1547 L1192,-1548 Z M1196,-1546 L1196,-1537 
        L1195,-1537 L1197,-1533 L1199,-1537 L1198,-1537 L1198,-1546 L1196,-1546 Z M1202,-1556 L1208,-1562 L1209,-1561 
        L1210,-1565 L1206,-1564 L1207,-1563 L1201,-1557 L1202,-1556 Z" transform="matrix(0.33333, 0, 0, 0.33333, 0, 0)"
        stroke="none"/>
    <path fill="#ffffff" d="M1203,-1544 C1207,-1547 1208,-1553 1205,-1557 C1202,-1562 1196,-1563 1192,-1560 C1188,-1557 
        1187,-1551 1189,-1547 C1192,-1542 1198,-1541 1203,-1544 Z" transform="matrix(0.33333, 0, 0, 0.33333, 0, 0)"
        stroke="none"/>
    <path fill="#ffffff" d="M1202,-1547 L1208,-1541 L1207,-1539 L1211,-1539 L1210,-1543 L1209,-1542 L1203,-1548 
        L1202,-1547 Z M1238,-1558 L1238,-1567 L1236,-1567 L1238,-1570 L1241,-1567 L1239,-1567 L1239,-1558 L1238,-1558 Z 
        M1242,-1557 L1249,-1563 L1247,-1564 L1251,-1565 L1251,-1561 L1250,-1562 L1243,-1556 L1242,-1557 Z M1244,-1553 
        L1254,-1553 L1254,-1554 L1257,-1552 L1254,-1550 L1254,-1551 L1244,-1551 L1244,-1553 Z M1243,-1548 L1250,-1542 
        L1251,-1543 L1251,-1539 L1247,-1539 L1249,-1541 L1242,-1547 L1243,-1548 Z M1239,-1546 L1239,-1537 L1241,-1537 
        L1238,-1533 L1236,-1537 L1238,-1537 L1238,-1546 L1239,-1546 Z M1233,-1556 L1227,-1562 L1226,-1561 L1225,-1565 
        L1229,-1564 L1228,-1563 L1234,-1557 L1233,-1556 Z" transform="matrix(0.33333, 0, 0, 0.33333, 0, 0)" stroke="none"/>
    <path fill="#ffffff" d="M1233,-1544 C1229,-1547 1227,-1553 1230,-1557 C1233,-1562 1239,-1563 1243,-1560 C1248,-1557 
        1249,-1551 1246,-1547 C1243,-1542 1237,-1541 1233,-1544 Z" transform="matrix(0.33333, 0, 0, 0.33333, 0, 0)"
        stroke="none"/>
    <path fill="#ffffff" d="M1234,-1547 L1227,-1541 L1228,-1539 L1224,-1539 L1225,-1543 L1226,-1542 L1233,-1548 
        L1234,-1547 Z" transform="matrix(0.33333, 0, 0, 0.33333, 0, 0)" stroke="none"/>
    <path fill="none" d="M1202,-1552 L1233,-1552" stroke-width="4" transform="matrix(0.33333, 0, 0, 0.33333, 0, 0)"
        stroke="#ffffff"/>
    <path fill="none" stroke-width="2" d="M1220,-1552 C1220,-1545 1219,-1540 1217,-1540 C1216,-1540 1215,-1545 
        1215,-1552 C1215,-1558 1216,-1564 1217,-1564 C1219,-1564 1220,-1558 1220,-1552 Z" transform="matrix(0.33333, 0, 0, 0.33333, 0, 0)"
        stroke="#ffffff"/>
    <path fill="none" stroke-width="2" stroke-dasharray="8" d="M1260,-1519 L1174,-1519 L1174,-1586 L1260,-1586 
        L1260,-1519 Z" transform="matrix(0.33333, 0, 0, 0.33333, 0, 0)" stroke-linecap="square"/>
</svg>