<?xml version="1.0" standalone="no"?>
<!DOCTYPE svg PUBLIC "-//W3C//DTD SVG 1.0//EN"
    "http://www.w3.org/TR/2001/REC-SVG-20010904/DTD/svg10.dtd">
<?xml-stylesheet type="text/css" href="..\cisco_network.css" ?>
<svg contentScriptType="text/ecmascript" zoomAndPan="magnify" xmlns:xlink="http://www.w3.org/1999/xlink" baseProfile="full"
    contentStyleType="text/css" enable-background="new" version="1.0" width="43.3984" preserveAspectRatio="none"
    viewBox="383.01 -562.02 48.992 31.008" height="27.4677" xmlns="http://www.w3.org/2000/svg"
    color-interpolation-filters="sRGB" x="0" y="1.5">
    <path d="M1294,-1659 L1294,-1621 L1259,-1593 L1187,-1593 L1150,-1621 L1150,-1659 Z" stroke="none" transform="matrix(0.33333, 0, 0, 0.33333, 0, 0)"/>
    <path fill="none" d="M1294,-1659 L1294,-1621 L1259,-1593 L1187,-1593 L1150,-1621 L1150,-1659" stroke-width="2"
        transform="matrix(0.33333, 0, 0, 0.33333, 0, 0)"/>
    <path d="M1258,-1687 L1187,-1687 L1150,-1659 L1187,-1631 L1259,-1631 L1294,-1659 L1258,-1687 Z" stroke-width="2"
        transform="matrix(0.33333, 0, 0, 0.33333, 0, 0)"/>
    <path fill="#ffffff" d="M1208,-1670 L1214,-1661 L1193,-1657 L1197,-1660 L1170,-1666 L1179,-1672 L1204,-1667 
        L1208,-1670 Z M1238,-1650 L1234,-1658 L1253,-1662 L1249,-1659 L1277,-1654 L1270,-1648 L1242,-1653 L1238,-1650 Z 
        M1229,-1676 L1250,-1682 L1250,-1673 L1245,-1674 L1235,-1665 L1225,-1667 L1235,-1675 L1229,-1676 Z M1216,-1640 
        L1196,-1636 L1195,-1646 L1201,-1644 L1212,-1654 L1222,-1652 L1210,-1642 L1216,-1640 Z" transform="matrix(0.33333, 0, 0, 0.33333, 0, 0)"
        stroke="none"/>
    <path fill="none" d="M1186,-1594 L1186,-1631 M1259,-1594 L1259,-1631" stroke-width="2" transform="matrix(0.33333, 0, 0, 0.33333, 0, 0)"/>
</svg>