<?xml version="1.0" standalone="no"?>
<!DOCTYPE svg PUBLIC "-//W3C//DTD SVG 1.0//EN"
    "http://www.w3.org/TR/2001/REC-SVG-20010904/DTD/svg10.dtd">
<?xml-stylesheet type="text/css" href="..\cisco_network.css" ?>
<svg contentScriptType="text/ecmascript" zoomAndPan="magnify" xmlns:xlink="http://www.w3.org/1999/xlink" baseProfile="full"
    contentStyleType="text/css" enable-background="new" version="1.0" width="35.4331" preserveAspectRatio="none"
    viewBox="387.01 -562.02 40 42.016" height="37.2189" xmlns="http://www.w3.org/2000/svg" color-interpolation-filters="sRGB"
    x="0" y="1.5">
    <path d="M1176,-1586 L1178,-1604 L1265,-1604 L1264,-1586 L1176,-1586 Z" stroke-width="2" transform="matrix(0.33333, 0, 0, 0.33333, 0, 0)"/>
    <path d="M1262,-1563 L1262,-1568 L1273,-1584 L1273,-1574 L1262,-1563 Z" stroke-width="2" transform="matrix(0.33333, 0, 0, 0.33333, 0, 0)"/>
    <path d="M1262,-1568 L1262,-1563 L1161,-1563 L1161,-1568 L1262,-1568 Z" stroke-width="2" transform="matrix(0.33333, 0, 0, 0.33333, 0, 0)"/>
    <path d="M1177,-1670 L1264,-1670 L1264,-1604 L1177,-1604 L1177,-1670 Z" stroke-width="2" transform="matrix(0.33333, 0, 0, 0.33333, 0, 0)"/>
    <path d="M1264,-1604 L1279,-1619 L1279,-1685 L1264,-1670 L1264,-1604 Z" stroke-width="2" transform="matrix(0.33333, 0, 0, 0.33333, 0, 0)"/>
    <path d="M1262,-1568 L1161,-1568 L1173,-1584 L1273,-1584 L1262,-1568 Z" stroke-width="2" transform="matrix(0.33333, 0, 0, 0.33333, 0, 0)"/>
    <path d="M1264,-1584 L1264,-1605 L1279,-1619 L1279,-1599 L1264,-1584 Z" stroke-width="2" transform="matrix(0.33333, 0, 0, 0.33333, 0, 0)"/>
    <path fill="#ffffff" d="M1191,-1663 C1249,-1663 1249,-1663 1249,-1663 C1253,-1663 1256,-1659 1256,-1656 C1256,-1619 
        1256,-1619 1256,-1619 C1256,-1615 1253,-1612 1249,-1612 C1191,-1612 1191,-1612 1191,-1612 C1187,-1612 1184,-1615 
        1184,-1619 C1184,-1656 1184,-1656 1184,-1656 C1184,-1659 1187,-1663 1191,-1663 Z" transform="matrix(0.33333, 0, 0, 0.33333, 0, 0)"
        stroke="none"/>
    <path d="M1279,-1685 L1194,-1685 L1177,-1670 L1264,-1670 L1279,-1685 Z" stroke-width="2" transform="matrix(0.33333, 0, 0, 0.33333, 0, 0)"/>
    <path d="M1210,-1651 C1199,-1653 1194,-1647 1195,-1643 C1195,-1642 1195,-1642 1195,-1642 C1186,-1641 1189,-1631 
        1193,-1631 C1193,-1631 1193,-1631 1193,-1631 C1192,-1624 1202,-1620 1207,-1624 C1207,-1625 1207,-1625 1207,-1625 
        C1209,-1618 1231,-1618 1235,-1622 C1235,-1622 1235,-1622 1235,-1622 C1245,-1622 1249,-1628 1247,-1633 
        C1247,-1633 1247,-1633 1247,-1633 C1251,-1634 1251,-1641 1245,-1642 C1246,-1643 1246,-1643 1246,-1643 
        C1248,-1647 1242,-1652 1235,-1651 C1234,-1651 1234,-1651 1234,-1651 C1228,-1656 1212,-1656 1210,-1651 Z"
        stroke-width="2" transform="matrix(0.33333, 0, 0, 0.33333, 0, 0)"/>
</svg>