<?xml version="1.0" standalone="no"?>
<!DOCTYPE svg PUBLIC "-//W3C//DTD SVG 1.0//EN"
    "http://www.w3.org/TR/2001/REC-SVG-20010904/DTD/svg10.dtd">
<?xml-stylesheet type="text/css" href="..\cisco_network.css" ?>
<svg contentScriptType="text/ecmascript" zoomAndPan="magnify" xmlns:xlink="http://www.w3.org/1999/xlink" baseProfile="full"
    contentStyleType="text/css" enable-background="new" version="1.0" width="97.4551" preserveAspectRatio="none"
    viewBox="356 -571.01 110.02 64" height="56.6929" xmlns="http://www.w3.org/2000/svg" color-interpolation-filters="sRGB"
    x="0" y="1.5">
    <path d="M1272,-1573 L1264,-1563 L1200,-1563 L1211,-1573 L1272,-1573 Z" stroke-width="2" transform="matrix(0.33333, 0, 0, 0.33333, 0, 0)"/>
    <path d="M1200,-1551 L1200,-1563 L1262,-1563 L1262,-1551 L1200,-1551 Z" stroke-width="2" transform="matrix(0.33333, 0, 0, 0.33333, 0, 0)"/>
    <path d="M1260,-1536 L1260,-1540 L1268,-1551 L1268,-1544 L1260,-1536 Z" stroke-width="2" transform="matrix(0.33333, 0, 0, 0.33333, 0, 0)"/>
    <path d="M1260,-1540 L1260,-1536 L1189,-1536 L1189,-1540 L1260,-1540 Z" stroke-width="2" transform="matrix(0.33333, 0, 0, 0.33333, 0, 0)"/>
    <path d="M1200,-1611 L1261,-1611 L1261,-1565 L1200,-1565 L1200,-1611 Z" stroke-width="2" transform="matrix(0.33333, 0, 0, 0.33333, 0, 0)"/>
    <path d="M1261,-1565 L1272,-1576 L1272,-1622 L1261,-1611 L1261,-1565 Z" stroke-width="2" transform="matrix(0.33333, 0, 0, 0.33333, 0, 0)"/>
    <path d="M1260,-1540 L1189,-1540 L1197,-1551 L1268,-1551 L1260,-1540 Z" stroke-width="2" transform="matrix(0.33333, 0, 0, 0.33333, 0, 0)"/>
    <path d="M1261,-1551 L1261,-1563 L1272,-1573 L1272,-1561 L1261,-1551 Z" stroke-width="2" transform="matrix(0.33333, 0, 0, 0.33333, 0, 0)"/>
    <path d="M1210,-1606 C1251,-1606 1251,-1606 1251,-1606 C1254,-1606 1256,-1604 1256,-1601 C1256,-1575 1256,-1575 
        1256,-1575 C1256,-1573 1254,-1571 1251,-1571 C1210,-1571 1210,-1571 1210,-1571 C1207,-1571 1205,-1573 1205,-1575 
        C1205,-1601 1205,-1601 1205,-1601 C1205,-1604 1207,-1606 1210,-1606 Z" stroke-width="2" transform="matrix(0.33333, 0, 0, 0.33333, 0, 0)"/>
    <path d="M1272,-1622 L1212,-1622 L1200,-1611 L1261,-1611 L1272,-1622 Z" stroke-width="2" transform="matrix(0.33333, 0, 0, 0.33333, 0, 0)"/>
    <path fill="#ffffff" d="M1225,-1598 C1218,-1599 1214,-1595 1215,-1592 C1215,-1592 1215,-1592 1215,-1592 C1209,-1591 
        1210,-1584 1213,-1584 C1213,-1584 1213,-1584 1213,-1584 C1213,-1579 1220,-1576 1223,-1579 C1224,-1579 1224,-1579 
        1224,-1579 C1225,-1575 1240,-1575 1243,-1578 C1243,-1578 1243,-1578 1243,-1578 C1250,-1577 1253,-1582 1251,-1585 
        C1252,-1585 1252,-1585 1252,-1585 C1254,-1586 1254,-1591 1250,-1592 C1250,-1592 1250,-1592 1250,-1592 
        C1252,-1595 1248,-1599 1243,-1598 C1242,-1598 1242,-1598 1242,-1598 C1238,-1602 1227,-1601 1226,-1598 Z"
        transform="matrix(0.33333, 0, 0, 0.33333, 0, 0)" stroke="none"/>
    <path d="M1364,-1625 L1356,-1615 L1292,-1615 L1303,-1625 L1364,-1625 Z" stroke-width="2" transform="matrix(0.33333, 0, 0, 0.33333, 0, 0)"/>
    <path d="M1292,-1603 L1292,-1615 L1354,-1615 L1354,-1603 L1292,-1603 Z" stroke-width="2" transform="matrix(0.33333, 0, 0, 0.33333, 0, 0)"/>
    <path d="M1352,-1588 L1352,-1592 L1360,-1603 L1360,-1596 L1352,-1588 Z" stroke-width="2" transform="matrix(0.33333, 0, 0, 0.33333, 0, 0)"/>
    <path d="M1352,-1592 L1352,-1588 L1281,-1588 L1281,-1592 L1352,-1592 Z" stroke-width="2" transform="matrix(0.33333, 0, 0, 0.33333, 0, 0)"/>
    <path d="M1292,-1663 L1353,-1663 L1353,-1617 L1292,-1617 L1292,-1663 Z" stroke-width="2" transform="matrix(0.33333, 0, 0, 0.33333, 0, 0)"/>
    <path d="M1353,-1617 L1364,-1628 L1364,-1674 L1353,-1663 L1353,-1617 Z" stroke-width="2" transform="matrix(0.33333, 0, 0, 0.33333, 0, 0)"/>
    <path d="M1352,-1592 L1281,-1592 L1289,-1603 L1360,-1603 L1352,-1592 Z" stroke-width="2" transform="matrix(0.33333, 0, 0, 0.33333, 0, 0)"/>
    <path d="M1353,-1603 L1353,-1615 L1364,-1625 L1364,-1613 L1353,-1603 Z" stroke-width="2" transform="matrix(0.33333, 0, 0, 0.33333, 0, 0)"/>
    <path d="M1302,-1658 C1343,-1658 1343,-1658 1343,-1658 C1346,-1658 1348,-1656 1348,-1653 C1348,-1627 1348,-1627 
        1348,-1627 C1348,-1625 1346,-1623 1343,-1623 C1302,-1623 1302,-1623 1302,-1623 C1299,-1623 1297,-1625 1297,-1627 
        C1297,-1653 1297,-1653 1297,-1653 C1297,-1656 1299,-1658 1302,-1658 Z" stroke-width="2" transform="matrix(0.33333, 0, 0, 0.33333, 0, 0)"/>
    <path d="M1364,-1674 L1304,-1674 L1292,-1663 L1353,-1663 L1364,-1674 Z" stroke-width="2" transform="matrix(0.33333, 0, 0, 0.33333, 0, 0)"/>
    <path fill="#ffffff" d="M1317,-1650 C1310,-1651 1306,-1647 1307,-1644 C1307,-1644 1307,-1644 1307,-1644 C1301,-1643 
        1302,-1636 1305,-1636 C1305,-1636 1305,-1636 1305,-1636 C1305,-1631 1312,-1628 1315,-1631 C1316,-1631 1316,-1631 
        1316,-1631 C1317,-1627 1332,-1627 1335,-1630 C1335,-1630 1335,-1630 1335,-1630 C1342,-1629 1345,-1634 1343,-1637 
        C1344,-1637 1344,-1637 1344,-1637 C1346,-1638 1346,-1643 1342,-1644 C1342,-1644 1342,-1644 1342,-1644 
        C1344,-1647 1340,-1651 1335,-1650 C1334,-1650 1334,-1650 1334,-1650 C1330,-1654 1319,-1653 1318,-1650 Z"
        transform="matrix(0.33333, 0, 0, 0.33333, 0, 0)" stroke="none"/>
    <path d="M1186,-1629 L1178,-1619 L1114,-1619 L1125,-1629 L1186,-1629 Z" stroke-width="2" transform="matrix(0.33333, 0, 0, 0.33333, 0, 0)"/>
    <path d="M1114,-1607 L1114,-1619 L1176,-1619 L1176,-1607 L1114,-1607 Z" stroke-width="2" transform="matrix(0.33333, 0, 0, 0.33333, 0, 0)"/>
    <path d="M1174,-1592 L1174,-1596 L1182,-1607 L1182,-1600 L1174,-1592 Z" stroke-width="2" transform="matrix(0.33333, 0, 0, 0.33333, 0, 0)"/>
    <path d="M1174,-1596 L1174,-1592 L1103,-1592 L1103,-1596 L1174,-1596 Z" stroke-width="2" transform="matrix(0.33333, 0, 0, 0.33333, 0, 0)"/>
    <path d="M1114,-1667 L1175,-1667 L1175,-1621 L1114,-1621 L1114,-1667 Z" stroke-width="2" transform="matrix(0.33333, 0, 0, 0.33333, 0, 0)"/>
    <path d="M1175,-1621 L1186,-1632 L1186,-1678 L1175,-1667 L1175,-1621 Z" stroke-width="2" transform="matrix(0.33333, 0, 0, 0.33333, 0, 0)"/>
    <path d="M1174,-1596 L1103,-1596 L1111,-1607 L1182,-1607 L1174,-1596 Z" stroke-width="2" transform="matrix(0.33333, 0, 0, 0.33333, 0, 0)"/>
    <path d="M1175,-1607 L1175,-1619 L1186,-1629 L1186,-1617 L1175,-1607 Z" stroke-width="2" transform="matrix(0.33333, 0, 0, 0.33333, 0, 0)"/>
    <path stroke-width="2" d="M1124,-1662 C1165,-1662 1165,-1662 1165,-1662 C1168,-1662 1170,-1660 1170,-1657 
        C1170,-1631 1170,-1631 1170,-1631 C1170,-1629 1168,-1627 1165,-1627 C1124,-1627 1124,-1627 1124,-1627 
        C1121,-1627 1119,-1629 1119,-1631 C1119,-1657 1119,-1657 1119,-1657 C1119,-1660 1121,-1662 1124,-1662 Z"
        transform="matrix(0.33333, 0, 0, 0.33333, 0, 0)"/>
    <path stroke-width="2" d="M1186,-1678 L1126,-1678 L1114,-1667 L1175,-1667 L1186,-1678 Z" transform="matrix(0.33333, 0, 0, 0.33333, 0, 0)"/>
    <path fill="#ffffff" d="M1137,-1654 C1130,-1655 1126,-1651 1127,-1648 C1127,-1648 1127,-1648 1127,-1648 C1121,-1647 
        1122,-1640 1125,-1640 C1125,-1640 1125,-1640 1125,-1640 C1125,-1635 1132,-1632 1135,-1635 C1136,-1635 1136,-1635 
        1136,-1635 C1137,-1631 1152,-1631 1155,-1634 C1155,-1634 1155,-1634 1155,-1634 C1162,-1633 1165,-1638 1163,-1641 
        C1164,-1641 1164,-1641 1164,-1641 C1166,-1642 1166,-1647 1162,-1648 C1162,-1648 1162,-1648 1162,-1648 
        C1164,-1651 1160,-1655 1155,-1654 C1154,-1654 1154,-1654 1154,-1654 C1150,-1658 1139,-1657 1138,-1654 Z"
        transform="matrix(0.33333, 0, 0, 0.33333, 0, 0)" stroke="none"/>
    <path fill="none" d="M1182,-1689 C1124,-1700 1094,-1671 1098,-1645 C1099,-1644 1099,-1644 1099,-1644 C1054,-1636 
        1066,-1583 1087,-1583 C1089,-1584 1089,-1584 1089,-1584 C1084,-1559 1136,-1533 1166,-1546 C1167,-1548 1167,-1548 
        1167,-1548 C1178,-1526 1215,-1522 1252,-1521 C1283,-1520 1302,-1523 1315,-1537 C1318,-1536 1318,-1536 1318,-1536 
        C1368,-1532 1392,-1567 1380,-1592 C1383,-1593 1383,-1593 1383,-1593 C1401,-1598 1403,-1638 1373,-1643 
        C1373,-1645 1373,-1645 1373,-1645 C1386,-1671 1356,-1696 1314,-1691 C1311,-1692 1311,-1692 1311,-1692 
        C1280,-1720 1193,-1715 1183,-1688 Z" stroke-width="2" transform="matrix(0.33333, 0, 0, 0.33333, 0, 0)" stroke="#126d99"/>
    <g>
        <path fill="none" d="M1205,-1568 L1167,-1593 M1266,-1574 L1290,-1590 M1181,-1652 L1295,-1652" stroke-width="2"
            transform="matrix(0.33333, 0, 0, 0.33333, 0, 0)" stroke="#126d99"/>
    </g>
</svg>