<?xml version="1.0" standalone="no"?>
<!DOCTYPE svg PUBLIC "-//W3C//DTD SVG 1.0//EN"
    "http://www.w3.org/TR/2001/REC-SVG-20010904/DTD/svg10.dtd">
<?xml-stylesheet type="text/css" href="..\cisco_network.css" ?>
<svg contentScriptType="text/ecmascript" zoomAndPan="magnify" xmlns:xlink="http://www.w3.org/1999/xlink" baseProfile="full"
    contentStyleType="text/css" enable-background="new" version="1.0" width="41.6126" preserveAspectRatio="none"
    viewBox="386.02 -548 46.976 41.984" height="37.1906" xmlns="http://www.w3.org/2000/svg" color-interpolation-filters="sRGB"
    x="0" y="1.5">
    <path d="M1198,-1602 C1184,-1599 1174,-1565 1174,-1565 C1168,-1550 1159,-1537 1159,-1537 C1255,-1537 1255,-1537 
        1255,-1537 C1255,-1537 1266,-1551 1274,-1565 C1274,-1565 1284,-1599 1299,-1602 Z" stroke-width="2" transform="matrix(0.33333, 0, 0, 0.33333, 0, 0)"/>
    <path d="M1255,-1538 C1255,-1521 1255,-1521 1255,-1521 C1297,-1565 1297,-1565 1297,-1565 C1297,-1601 1297,-1601 
        1297,-1601 C1290,-1600 1280,-1589 1273,-1578 C1268,-1572 1265,-1566 1262,-1562" stroke-width="2" transform="matrix(0.33333, 0, 0, 0.33333, 0, 0)"/>
    <path d="M1255,-1538 C1255,-1521 1255,-1521 1255,-1521 C1297,-1565 1297,-1565 1297,-1565 C1297,-1601 1297,-1601 
        1297,-1601 C1290,-1600 1280,-1589 1273,-1578 C1268,-1572 1265,-1566 1262,-1562" stroke-width="2" transform="matrix(0.33333, 0, 0, 0.33333, 0, 0)"/>
    <path fill="none" d="M1225,-1622 C1232,-1628 1242,-1633 1251,-1632 C1261,-1632 1267,-1627 1269,-1620" stroke-width="2"
        transform="matrix(0.33333, 0, 0, 0.33333, 0, 0)" stroke="#126a98"/>
    <path fill="none" d="M1222,-1612 C1229,-1619 1238,-1623 1248,-1623 C1257,-1622 1264,-1617 1266,-1610" stroke-width="2"
        transform="matrix(0.33333, 0, 0, 0.33333, 0, 0)" stroke="#126a98"/>
    <path fill="none" d="M1218,-1602 C1225,-1609 1235,-1613 1244,-1613 C1253,-1612 1260,-1608 1262,-1600" stroke-width="2"
        transform="matrix(0.33333, 0, 0, 0.33333, 0, 0)" stroke="#126a98"/>
    <path d="M1214,-1592 C1221,-1599 1231,-1603 1240,-1603 C1250,-1603 1256,-1598 1258,-1590" stroke-width="2"
        transform="matrix(0.33333, 0, 0, 0.33333, 0, 0)"/>
    <path d="M1214,-1592 C1221,-1599 1231,-1603 1240,-1603 C1250,-1603 1256,-1598 1258,-1590" stroke-width="2"
        transform="matrix(0.33333, 0, 0, 0.33333, 0, 0)"/>
    <path fill="none" d="M1225,-1622 C1232,-1628 1242,-1633 1251,-1632 C1261,-1632 1267,-1627 1269,-1620" stroke-width="2"
        transform="matrix(0.33333, 0, 0, 0.33333, 0, 0)" stroke="#126a98"/>
    <path fill="none" d="M1229,-1632 C1236,-1638 1246,-1642 1255,-1642 C1265,-1642 1271,-1637 1273,-1630" stroke-width="2"
        transform="matrix(0.33333, 0, 0, 0.33333, 0, 0)" stroke="#126a98"/>
    <path fill="none" d="M1222,-1612 C1229,-1619 1238,-1623 1248,-1623 C1257,-1622 1264,-1617 1266,-1610" stroke-width="2"
        transform="matrix(0.33333, 0, 0, 0.33333, 0, 0)" stroke="#126a98"/>
    <path fill="none" d="M1218,-1602 C1225,-1609 1235,-1613 1244,-1613 C1253,-1612 1260,-1608 1262,-1600" stroke-width="2"
        transform="matrix(0.33333, 0, 0, 0.33333, 0, 0)" stroke="#126a98"/>
    <path fill="none" stroke-width="2" d="M1214,-1592 C1221,-1599 1231,-1603 1240,-1603 C1250,-1603 1256,-1598 
        1258,-1590" transform="matrix(0.33333, 0, 0, 0.33333, 0, 0)"/>
    <path d="M1266,-1571 C1267,-1560 1248,-1549 1223,-1547 C1198,-1545 1178,-1552 1177,-1564 C1176,-1575 1195,-1586 
        1220,-1588 C1244,-1590 1265,-1583 1266,-1571 Z" stroke-width="2" transform="matrix(0.33333, 0, 0, 0.33333, 0, 0)"/>
    <path d="M1262,-1574 C1263,-1564 1245,-1554 1223,-1552 C1200,-1550 1182,-1557 1181,-1567 C1180,-1577 1197,-1587 
        1220,-1589 C1242,-1591 1261,-1584 1262,-1574 Z" stroke-width="2" transform="matrix(0.33333, 0, 0, 0.33333, 0, 0)"/>
    <path d="M1159,-1521 L1255,-1521 L1255,-1538 L1159,-1538 L1159,-1521 Z" stroke-width="2" transform="matrix(0.33333, 0, 0, 0.33333, 0, 0)"/>
</svg>