<?xml version="1.0" standalone="no"?>
<!DOCTYPE svg PUBLIC "-//W3C//DTD SVG 1.0//EN"
    "http://www.w3.org/TR/2001/REC-SVG-20010904/DTD/svg10.dtd">
<?xml-stylesheet type="text/css" href="..\cisco_network.css" ?>
<svg contentScriptType="text/ecmascript" zoomAndPan="magnify" xmlns:xlink="http://www.w3.org/1999/xlink" baseProfile="full"
    contentStyleType="text/css" enable-background="new" version="1.0" width="43.3984" preserveAspectRatio="none"
    viewBox="384 -551.01 48.992 50.016" height="44.3055" xmlns="http://www.w3.org/2000/svg" color-interpolation-filters="sRGB"
    x="0" y="1.5">
    <path stroke-width="2" d="M1300,-1576 C1300,-1560 1267,-1547 1226,-1547 C1185,-1547 1152,-1560 1152,-1576 
        C1152,-1534 1152,-1534 1152,-1534 C1152,-1518 1185,-1505 1226,-1505 C1267,-1505 1300,-1518 1300,-1534 Z"
        transform="matrix(0.33333, 0, 0, 0.33333, 0, 0)"/>
    <path d="M1272,-1584 L1272,-1649" stroke-width="2" transform="matrix(0.33333, 0, 0, 0.33333, 0, 0)" stroke="#0d6e9c"/>
    <path d="M1272,-1585 L1272,-1630" stroke-width="8" transform="matrix(0.33333, 0, 0, 0.33333, 0, 0)" stroke="#0d6e9c"/>
    <path fill="#000000" d="M1274,-1643 L1270,-1643 L1270,-1651 L1274,-1651 L1274,-1643 Z" stroke-width="4" transform="matrix(0.33333, 0, 0, 0.33333, 0, 0)"
        stroke="#0d6e9c"/>
    <path fill="none" d="M1175,-1584 L1175,-1649" stroke-width="2" transform="matrix(0.33333, 0, 0, 0.33333, 0, 0)"
        stroke="#0d6e9c"/>
    <path fill="none" d="M1175,-1585 L1175,-1630" stroke-width="8" transform="matrix(0.33333, 0, 0, 0.33333, 0, 0)"
        stroke="#0d6e9c"/>
    <path fill="#000000" d="M1177,-1643 L1173,-1643 L1173,-1651 L1177,-1651 L1177,-1643 Z" stroke-width="4" transform="matrix(0.33333, 0, 0, 0.33333, 0, 0)"
        stroke="#0d6e9c"/>
    <path stroke-width="2" d="M1226,-1547 C1267,-1547 1300,-1560 1300,-1576 C1300,-1591 1267,-1604 1226,-1604 
        C1185,-1604 1152,-1591 1152,-1576 C1152,-1560 1185,-1547 1226,-1547 Z" transform="matrix(0.33333, 0, 0, 0.33333, 0, 0)"/>
    <path fill="#ffffff" d="M1209,-1587 L1215,-1578 L1192,-1572 L1197,-1577 L1162,-1583 L1171,-1589 L1205,-1584 
        L1209,-1587 Z M1242,-1565 L1237,-1574 L1258,-1578 L1255,-1575 L1289,-1569 L1281,-1563 L1246,-1569 L1242,-1565 Z 
        M1230,-1592 L1253,-1598 L1254,-1588 L1248,-1589 L1237,-1580 L1226,-1581 L1237,-1591 L1230,-1592 Z M1220,-1556 
        L1198,-1552 L1197,-1562 L1204,-1561 L1216,-1571 L1227,-1569 L1214,-1558 L1220,-1556 Z" transform="matrix(0.33333, 0, 0, 0.33333, 0, 0)"
        stroke="none"/>
</svg>