<?xml version="1.0" standalone="no"?>
<!DOCTYPE svg PUBLIC "-//W3C//DTD SVG 1.0//EN"
    "http://www.w3.org/TR/2001/REC-SVG-20010904/DTD/svg10.dtd">
<?xml-stylesheet type="text/css" href="..\cisco_network.css" ?>
<svg contentScriptType="text/ecmascript" zoomAndPan="magnify" xmlns:xlink="http://www.w3.org/1999/xlink" baseProfile="full"
    contentStyleType="text/css" enable-background="new" version="1.0" width="55.8142" preserveAspectRatio="none"
    viewBox="376.99 -544 63.008 36" height="31.8898" xmlns="http://www.w3.org/2000/svg" color-interpolation-filters="sRGB"
    x="0" y="1.5">
    <path stroke-width="2" d="M1133,-1584 L1189,-1629 L1318,-1629 L1272,-1584 L1133,-1584 Z M1272,-1526 L1318,-1574 
        L1318,-1629 L1272,-1584 L1272,-1526 Z M1272,-1526 L1272,-1584 L1133,-1584 L1133,-1526 L1272,-1526 Z" transform="matrix(0.33333, 0, 0, 0.33333, 0, 0)"/>
    <text font-size="20" transform="matrix(0.33333, 0, -0.2983, 0.25656, 388.16, -533.66)" fill="#ffffff" font-family="'Helvetica'"
        font-style="normal" stroke="none" font-weight="700" stroke-width="2" xml:space="preserve">W</text>
    <text font-size="20" transform="matrix(0.33333, 0, -0.29832, 0.25657, 420.79, -533.12)" fill="#ffffff" font-family="'Helvetica'"
        font-style="normal" stroke="none" font-weight="700" stroke-width="2" xml:space="preserve">E</text>
    <text font-size="20" transform="matrix(0.33333, 0, -0.2983, 0.25656, 399.16, -528.56)" fill="#ffffff" font-family="'Helvetica'"
        font-style="normal" stroke="none" font-weight="700" stroke-width="2" xml:space="preserve">S</text>
    <text font-size="20" transform="matrix(0.33333, 0, -0.2983, 0.25656, 410.65, -538.77)" fill="#ffffff" font-family="'Helvetica'"
        font-style="normal" stroke="none" font-weight="700" stroke-width="2" xml:space="preserve">N</text>
    <path fill="#ffffff" d="M1235,-1607 C1233,-1605 1229,-1604 1226,-1604 C1222,-1604 1221,-1605 1222,-1607 C1224,-1608 
        1228,-1609 1231,-1609 C1234,-1609 1236,-1608 1235,-1607 Z" transform="matrix(0.33333, 0, 0, 0.33333, 0, 0)"
        stroke="none"/>
    <path fill="#ffffff" d="M1227,-1608 L1240,-1617 L1232,-1608 Z M1227,-1608 L1240,-1617 L1232,-1608 M1225,-1606 
        L1217,-1597 L1230,-1606 Z" transform="matrix(0.33333, 0, 0, 0.33333, 0, 0)" stroke="none"/>
    <path fill="none" d="M1225,-1606 L1217,-1597 L1230,-1606" transform="matrix(0.33333, 0, 0, 0.33333, 0, 0)" stroke="none"/>
    <path fill="#ffffff" d="M1225,-1606 L1200,-1607 L1227,-1608 Z" transform="matrix(0.33333, 0, 0, 0.33333, 0, 0)"
        stroke="none"/>
    <path fill="none" d="M1225,-1606 L1200,-1607 L1227,-1608" transform="matrix(0.33333, 0, 0, 0.33333, 0, 0)" stroke="none"/>
    <path fill="#ffffff" d="M1229,-1606 L1256,-1607 L1231,-1608 Z" transform="matrix(0.33333, 0, 0, 0.33333, 0, 0)"
        stroke="none"/>
    <path fill="none" d="M1229,-1606 L1256,-1607 L1231,-1608" sstroke="none" transform="matrix(0.33333, 0, 0, 0.33333, 0, 0)"/>
    <path fill="#ffffff" d="M1227,-1605 L1213,-1603 L1225,-1607 Z" transform="matrix(0.33333, 0, 0, 0.33333, 0, 0)"
        stroke="none"/>
    <path fill="none" d="M1227,-1605 L1213,-1603 L1225,-1607" transform="matrix(0.33333, 0, 0, 0.33333, 0, 0)" stroke="none"/>
    <path fill="#ffffff" d="M1231,-1606 L1244,-1611 L1229,-1608 Z" transform="matrix(0.33333, 0, 0, 0.33333, 0, 0)"
        stroke="none"/>
    <path fill="none" d="M1231,-1606 L1244,-1611 L1229,-1608" transform="matrix(0.33333, 0, 0, 0.33333, 0, 0)" stroke="none"/>
    <path fill="#ffffff" d="M1232,-1607 L1235,-1602 L1227,-1605 Z" transform="matrix(0.33333, 0, 0, 0.33333, 0, 0)"
        stroke="none"/>
    <path fill="none" d="M1232,-1607 L1235,-1602 L1227,-1605" transform="matrix(0.33333, 0, 0, 0.33333, 0, 0)" stroke="none"/>
    <path fill="#ffffff" d="M1230,-1608 L1222,-1611 L1225,-1606 Z" transform="matrix(0.33333, 0, 0, 0.33333, 0, 0)"
        stroke="none"/>
    <path fill="none" d="M1230,-1608 L1222,-1611 L1225,-1606" transform="matrix(0.33333, 0, 0, 0.33333, 0, 0)" stroke="none"/>
    <path fill="none" stroke-width="2" d="M1250,-1610 C1251,-1606 1242,-1601 1230,-1599 C1218,-1596 1207,-1598 
        1206,-1602 C1204,-1606 1213,-1611 1225,-1614 C1238,-1616 1249,-1614 1250,-1610 Z" transform="matrix(0.33333, 0, 0, 0.33333, 0, 0)"
        stroke="#ffffff"/>
</svg>