<?xml version="1.0" standalone="no"?>
<!DOCTYPE svg PUBLIC "-//W3C//DTD SVG 1.0//EN"
    "http://www.w3.org/TR/2001/REC-SVG-20010904/DTD/svg10.dtd">
<?xml-stylesheet type="text/css" href="..\cisco_network.css" ?>
<svg contentScriptType="text/ecmascript" zoomAndPan="magnify" xmlns:xlink="http://www.w3.org/1999/xlink" baseProfile="full"
    contentStyleType="text/css" enable-background="new" version="1.0" width="44.2772" preserveAspectRatio="none"
    viewBox="386.02 -568.99 49.984 34.976" height="30.9827" xmlns="http://www.w3.org/2000/svg"
    color-interpolation-filters="sRGB" x="0" y="1.5">
    <path d="M1296,-1603 L1296,-1696 L1161,-1696 L1161,-1603 L1296,-1603 Z M1161,-1696 L1171,-1706 L1306,-1706 
        L1296,-1696 L1161,-1696 Z M1296,-1603 L1306,-1613 L1306,-1706 L1296,-1696 L1296,-1603 Z" stroke-width="2"
        transform="matrix(0.33333, 0, 0, 0.33333, 0, 0)"/>
    <path fill="#ffffff" d="M1240,-1640 C1243,-1643 1244,-1648 1244,-1653 C1244,-1658 1243,-1663 1240,-1666 C1244,-1673 
        1244,-1673 1244,-1673 C1248,-1668 1250,-1661 1249,-1653 C1249,-1645 1248,-1638 1244,-1633 Z" transform="matrix(0.33333, 0, 0, 0.33333, 0, 0)"
        stroke="none"/>
    <path fill="#ffffff" d="M1262,-1635 C1265,-1639 1266,-1645 1266,-1652 C1266,-1658 1265,-1665 1262,-1669 C1266,-1677 
        1266,-1677 1266,-1677 C1270,-1670 1272,-1661 1272,-1652 C1272,-1643 1270,-1634 1266,-1626 Z" transform="matrix(0.33333, 0, 0, 0.33333, 0, 0)"
        stroke="none"/>
    <path fill="#ffffff" d="M1216,-1640 C1214,-1643 1212,-1648 1212,-1653 C1212,-1658 1214,-1663 1216,-1666 C1212,-1673 
        1212,-1673 1212,-1673 C1208,-1668 1206,-1661 1206,-1653 C1206,-1645 1208,-1638 1212,-1633 Z" transform="matrix(0.33333, 0, 0, 0.33333, 0, 0)"
        stroke="none"/>
    <path fill="#ffffff" d="M1196,-1635 C1194,-1639 1192,-1645 1192,-1652 C1192,-1658 1194,-1665 1196,-1669 C1192,-1677 
        1192,-1677 1192,-1677 C1188,-1670 1186,-1661 1186,-1652 C1186,-1643 1188,-1634 1192,-1626 Z" transform="matrix(0.33333, 0, 0, 0.33333, 0, 0)"
        stroke="none"/>
    <path fill="none" d="M1227,-1650 L1227,-1619" stroke-width="2" transform="matrix(0.33333, 0, 0, 0.33333, 0, 0)"
        stroke="#ffffff"/>
    <path fill="#ffffff" d="M1230,-1653 C1230,-1651 1229,-1650 1227,-1650 C1226,-1650 1225,-1651 1225,-1653 C1225,-1654 
        1226,-1655 1227,-1655 C1229,-1655 1230,-1654 1230,-1653 Z" transform="matrix(0.33333, 0, 0, 0.33333, 0, 0)"
        stroke="none"/>
</svg>