<?xml version="1.0" standalone="no"?>
<!DOCTYPE svg PUBLIC "-//W3C//DTD SVG 1.0//EN"
    "http://www.w3.org/TR/2001/REC-SVG-20010904/DTD/svg10.dtd">
<?xml-stylesheet type="text/css" href="..\cisco_network.css" ?>
<svg contentScriptType="text/ecmascript" zoomAndPan="magnify" xmlns:xlink="http://www.w3.org/1999/xlink" baseProfile="full"
    contentStyleType="text/css" enable-background="new" version="1.0" width="21.2598" preserveAspectRatio="none"
    viewBox="396.99 -564.99 24 42.976" height="38.0693" xmlns="http://www.w3.org/2000/svg" color-interpolation-filters="sRGB"
    x="0" y="1.5">
    <path d="M1197,-1694 L1261,-1694 L1256,-1688 L1192,-1688 L1197,-1694 Z M1192,-1687 L1255,-1687 L1255,-1567 
        L1192,-1567 L1192,-1687 Z" stroke-width="2" transform="matrix(0.33333, 0, 0, 0.33333, 0, 0)"/>
    <path d="M1241,-1574 C1248,-1574 1249,-1581 1249,-1581 C1249,-1581 1249,-1650 1249,-1656 C1249,-1664 1241,-1664 
        1241,-1664 C1241,-1664 1210,-1664 1206,-1664 C1201,-1664 1199,-1658 1199,-1658 C1199,-1658 1199,-1588 1199,-1582 
        C1199,-1576 1205,-1574 1205,-1574 Z" stroke-width="2" transform="matrix(0.33333, 0, 0, 0.33333, 0, 0)"/>
    <path d="M1261,-1694 L1261,-1574 L1255,-1567 L1255,-1687 L1261,-1694 Z" stroke-width="2" transform="matrix(0.33333, 0, 0, 0.33333, 0, 0)"/>
    <path d="M1242,-1679 C1241,-1679 1240,-1677 1240,-1676 C1240,-1674 1241,-1672 1242,-1672 C1243,-1672 1244,-1674 
        1244,-1676 C1244,-1677 1243,-1679 1242,-1679 Z" stroke-width="2" transform="matrix(0.33333, 0, 0, 0.33333, 0, 0)"/>
    <path d="M1229,-1679 C1228,-1679 1227,-1677 1227,-1676 C1227,-1674 1228,-1672 1229,-1672 C1230,-1672 1231,-1674 
        1231,-1676 C1231,-1677 1230,-1679 1229,-1679 Z" stroke-width="2" transform="matrix(0.33333, 0, 0, 0.33333, 0, 0)"/>
    <path d="M1216,-1679 C1215,-1679 1214,-1677 1214,-1676 C1214,-1674 1215,-1672 1216,-1672 C1217,-1672 1217,-1674 
        1217,-1676 C1217,-1677 1217,-1679 1216,-1679 Z" stroke-width="2" transform="matrix(0.33333, 0, 0, 0.33333, 0, 0)"/>
    <path d="M1202,-1679 C1201,-1679 1200,-1677 1200,-1676 C1200,-1674 1201,-1672 1202,-1672 C1203,-1672 1204,-1674 
        1204,-1676 C1204,-1677 1203,-1679 1202,-1679 Z" stroke-width="2" transform="matrix(0.33333, 0, 0, 0.33333, 0, 0)"/>
</svg>