<?xml version="1.0" standalone="no"?>
<!DOCTYPE svg PUBLIC "-//W3C//DTD SVG 1.0//EN"
    "http://www.w3.org/TR/2001/REC-SVG-20010904/DTD/svg10.dtd">
<?xml-stylesheet type="text/css" href="..\cisco_network.css" ?>
<svg contentScriptType="text/ecmascript" zoomAndPan="magnify" xmlns:xlink="http://www.w3.org/1999/xlink" baseProfile="full"
    contentStyleType="text/css" enable-background="new" version="1.0" width="42.5197" preserveAspectRatio="none"
    viewBox="386.02 -567.01 48 39.008" height="34.5543" xmlns="http://www.w3.org/2000/svg" color-interpolation-filters="sRGB"
    x="0" y="1.5">
    <path stroke-width="2" d="M1192,-1696 C1160,-1679 1160,-1679 1160,-1679 C1238,-1630 1283,-1682 1283,-1682 
        C1237,-1655 1192,-1696 1192,-1696 Z" transform="matrix(0.33333, 0, 0, 0.33333, 0, 0)"/>
    <path stroke-width="2" d="M1303,-1701 C1297,-1690 1282,-1682 1282,-1682 C1282,-1585 1282,-1585 1282,-1585 
        C1303,-1601 1303,-1601 1303,-1601 Z" transform="matrix(0.33333, 0, 0, 0.33333, 0, 0)"/>
    <path stroke-width="2" d="M1282,-1682 C1282,-1682 1238,-1630 1160,-1679 C1160,-1585 1160,-1585 1160,-1585 
        C1282,-1585 1282,-1585 1282,-1585 Z" transform="matrix(0.33333, 0, 0, 0.33333, 0, 0)"/>
    <path fill="none" d="M1274,-1623 C1274,-1623 1266,-1603 1256,-1623 C1247,-1643 1239,-1623 1239,-1623 C1239,-1623 
        1231,-1603 1222,-1623 C1213,-1643 1205,-1623 1205,-1623 C1205,-1623 1197,-1603 1187,-1623 C1178,-1643 1170,-1623 
        1170,-1623" stroke-width="2" transform="matrix(0.33333, 0, 0, 0.33333, 0, 0)" stroke-linecap="round" stroke="#000000"/>
    <path fill="none" d="M1170,-1623 C1170,-1623 1178,-1603 1188,-1623 C1197,-1643 1205,-1623 1205,-1623 C1205,-1623 
        1213,-1603 1222,-1623 C1231,-1643 1239,-1623 1239,-1623 C1239,-1623 1247,-1603 1256,-1623 C1266,-1643 1274,-1623 
        1274,-1623" stroke-width="4" transform="matrix(0.33333, 0, 0, 0.33333, 0, 0)" stroke-linecap="round" stroke="#000000"/>
    <path fill="none" d="M1272,-1623 C1272,-1623 1264,-1603 1255,-1623 C1245,-1643 1237,-1623 1237,-1623 C1237,-1623 
        1230,-1603 1220,-1623 C1211,-1643 1203,-1623 1203,-1623 C1203,-1623 1195,-1603 1186,-1623 C1176,-1643 1168,-1623 
        1168,-1623" stroke-width="2" transform="matrix(0.33333, 0, 0, 0.33333, 0, 0)" stroke="#ffffff" stroke-linecap="round"/>
    <path fill="none" d="M1168,-1623 C1168,-1623 1176,-1603 1186,-1623 C1195,-1643 1203,-1623 1203,-1623 C1203,-1623 
        1211,-1603 1220,-1623 C1230,-1643 1237,-1623 1237,-1623 C1237,-1623 1245,-1603 1255,-1623 C1264,-1643 1272,-1623 
        1272,-1623" stroke-width="4" transform="matrix(0.33333, 0, 0, 0.33333, 0, 0)" stroke-linecap="round" stroke="#ffffff"/>
</svg>