<?xml version="1.0" standalone="no"?>
<!DOCTYPE svg PUBLIC "-//W3C//DTD SVG 1.0//EN"
    "http://www.w3.org/TR/2001/REC-SVG-20010904/DTD/svg10.dtd">
<?xml-stylesheet type="text/css" href="..\cisco_network.css" ?>
<svg contentScriptType="text/ecmascript" zoomAndPan="magnify" xmlns:xlink="http://www.w3.org/1999/xlink" baseProfile="full"
    contentStyleType="text/css" enable-background="new" version="1.0" width="46.063" preserveAspectRatio="none" viewBox="388.99 -378.02 52 61.024"
    height="54.0567" xmlns="http://www.w3.org/2000/svg" color-interpolation-filters="sRGB" x="0" y="1.5">
    <path stroke-width="2" d="M1169,-1060 L1199,-1083 L1321,-1093 L1290,-1060 L1169,-1060 Z" transform="matrix(0.33333, 0, 0, 0.33333, 0, 0)"/>
    <path stroke-width="2" d="M1290,-952 L1321,-984 L1321,-1092 L1290,-1060 L1290,-952 Z" transform="matrix(0.33333, 0, 0, 0.33333, 0, 0)"/>
    <path stroke-width="2" d="M1290,-952 L1290,-1060 L1169,-1060 L1169,-952 L1290,-952 Z" transform="matrix(0.33333, 0, 0, 0.33333, 0, 0)"/>
    <path stroke-width="2" d="M1169,-1100 L1209,-1132 L1321,-1132 L1290,-1100 L1169,-1100 Z" transform="matrix(0.33333, 0, 0, 0.33333, 0, 0)"/>
    <path stroke-width="2" d="M1290,-1060 L1321,-1092 L1321,-1132 L1290,-1100 L1290,-1060 Z" transform="matrix(0.33333, 0, 0, 0.33333, 0, 0)"/>
    <path stroke-width="2" d="M1290,-1060 L1290,-1100 L1169,-1100 L1169,-1060 L1290,-1060 Z" transform="matrix(0.33333, 0, 0, 0.33333, 0, 0)"/>
    <path fill="none" d="M1303,-1075 L1303,-1075" stroke-width="2" transform="matrix(0.33333, 0, 0, 0.33333, 0, 0)"/>
    <path fill="none" d="M1280,-1080 C1280,-1080 1272,-1060 1263,-1080 C1253,-1100 1245,-1080 1245,-1080 C1245,-1080 
        1238,-1060 1228,-1080 C1219,-1100 1211,-1080 1211,-1080 C1211,-1080 1203,-1060 1194,-1080 C1184,-1100 1177,-1080 
        1177,-1080" stroke-width="2" transform="matrix(0.33333, 0, 0, 0.33333, 0, 0)" stroke-linecap="round"/>
    <path fill="none" d="M1177,-1080 C1177,-1080 1184,-1060 1194,-1080 C1203,-1100 1211,-1080 1211,-1080 C1211,-1080 
        1219,-1060 1228,-1080 C1238,-1100 1246,-1080 1246,-1080 C1246,-1080 1253,-1060 1263,-1080 C1272,-1100 1280,-1080 
        1280,-1080" stroke-width="4" transform="matrix(0.33333, 0, 0, 0.33333, 0, 0)" stroke-linecap="round"/>
    <path fill="none" d="M1282,-1080 C1282,-1080 1274,-1060 1265,-1080 C1255,-1100 1247,-1080 1247,-1080 C1247,-1080 
        1239,-1060 1230,-1080 C1221,-1100 1213,-1080 1213,-1080 C1213,-1080 1205,-1060 1196,-1080 C1186,-1100 1178,-1080 
        1178,-1080" stroke-width="2" transform="matrix(0.33333, 0, 0, 0.33333, 0, 0)" stroke-linecap="round" stroke="#000000"/>
    <path fill="none" d="M1178,-1080 C1178,-1080 1186,-1060 1196,-1080 C1205,-1100 1213,-1080 1213,-1080 C1213,-1080 
        1221,-1060 1230,-1080 C1240,-1100 1247,-1080 1247,-1080 C1247,-1080 1255,-1060 1265,-1080 C1274,-1100 1282,-1080 
        1282,-1080" stroke-width="4" transform="matrix(0.33333, 0, 0, 0.33333, 0, 0)" stroke-linecap="round" stroke="#000000"/>
    <path fill="none" d="M1280,-1080 C1280,-1080 1272,-1060 1263,-1080 C1253,-1100 1245,-1080 1245,-1080 C1245,-1080 
        1238,-1060 1228,-1080 C1219,-1100 1211,-1080 1211,-1080 C1211,-1080 1203,-1060 1194,-1080 C1184,-1100 1177,-1080 
        1177,-1080" stroke-width="2" transform="matrix(0.33333, 0, 0, 0.33333, 0, 0)" stroke-linecap="round"/>
    <path fill="none" d="M1177,-1080 C1177,-1080 1184,-1060 1194,-1080 C1203,-1100 1211,-1080 1211,-1080 C1211,-1080 
        1219,-1060 1228,-1080 C1238,-1100 1246,-1080 1246,-1080 C1246,-1080 1253,-1060 1263,-1080 C1272,-1100 1280,-1080 
        1280,-1080" stroke-width="4" transform="matrix(0.33333, 0, 0, 0.33333, 0, 0)" stroke-linecap="round"/>
    <path fill="none" d="M1282,-1080 C1282,-1080 1274,-1060 1265,-1080 C1255,-1100 1247,-1080 1247,-1080 C1247,-1080 
        1239,-1060 1230,-1080 C1221,-1100 1213,-1080 1213,-1080 C1213,-1080 1205,-1060 1196,-1080 C1186,-1100 1178,-1080 
        1178,-1080" stroke-width="2" transform="matrix(0.33333, 0, 0, 0.33333, 0, 0)" stroke-linecap="round" stroke="#000000"/>
    <path fill="none" d="M1178,-1080 C1178,-1080 1186,-1060 1196,-1080 C1205,-1100 1213,-1080 1213,-1080 C1213,-1080 
        1221,-1060 1230,-1080 C1240,-1100 1247,-1080 1247,-1080 C1247,-1080 1255,-1060 1265,-1080 C1274,-1100 1282,-1080 
        1282,-1080" stroke-width="4" transform="matrix(0.33333, 0, 0, 0.33333, 0, 0)" stroke-linecap="round" stroke="#000000"/>
    <path fill="none" d="M1280,-1080 C1280,-1080 1272,-1060 1263,-1080 C1253,-1100 1245,-1080 1245,-1080 C1245,-1080 
        1238,-1060 1228,-1080 C1219,-1100 1211,-1080 1211,-1080 C1211,-1080 1203,-1060 1194,-1080 C1184,-1100 1177,-1080 
        1177,-1080" stroke-width="2" transform="matrix(0.33333, 0, 0, 0.33333, 0, 0)" stroke-linecap="round"/>
    <path fill="none" d="M1177,-1080 C1177,-1080 1184,-1060 1194,-1080 C1203,-1100 1211,-1080 1211,-1080 C1211,-1080 
        1219,-1060 1228,-1080 C1238,-1100 1246,-1080 1246,-1080 C1246,-1080 1253,-1060 1263,-1080 C1272,-1100 1280,-1080 
        1280,-1080" stroke-width="4" transform="matrix(0.33333, 0, 0, 0.33333, 0, 0)" stroke-linecap="round"/>
    <path fill="#ffffff" d="M1233,-1022 L1233,-1045 L1237,-1045 L1231,-1054 L1225,-1045 L1229,-1045 L1229,-1022 
        L1233,-1022 Z M1221,-1018 L1205,-1035 L1207,-1038 L1197,-1040 L1199,-1029 L1202,-1032 L1218,-1016 L1221,-1018 Z 
        M1215,-1008 L1192,-1008 L1192,-1012 L1183,-1006 L1192,-1000 L1192,-1004 L1215,-1004 L1215,-1008 Z M1218,-996 
        L1202,-980 L1199,-982 L1197,-972 L1207,-974 L1205,-977 L1221,-993 L1218,-996 Z M1229,-990 L1229,-967 L1225,-967 
        L1231,-958 L1237,-967 L1233,-967 L1233,-990 L1229,-990 Z M1241,-993 L1257,-977 L1254,-974 L1265,-972 L1262,-982 
        L1260,-980 L1243,-996 L1241,-993 Z M1247,-1004 L1270,-1004 L1270,-1000 L1278,-1006 L1270,-1012 L1270,-1008 
        L1247,-1008 L1247,-1004 Z M1243,-1016 L1260,-1032 L1262,-1029 L1265,-1040 L1254,-1038 L1257,-1035 L1241,-1018 
        L1243,-1016 Z" transform="matrix(0.33333, 0, 0, 0.33333, 0, 0)" stroke="none"/>
    <path fill="#ffffff" d="M1245,-986 C1256,-994 1258,-1009 1251,-1020 C1243,-1031 1228,-1033 1217,-1026 C1206,-1018 
        1204,-1003 1211,-992 C1219,-981 1234,-979 1245,-986 Z" transform="matrix(0.33333, 0, 0, 0.33333, 0, 0)" stroke="none"/>
    <path fill="#000000" d="M1214,-1112 L1226,-1113 L1224,-1110 L1221,-1110 L1207,-1105 L1203,-1106 L1217,-1111 
        L1214,-1112 L1214,-1112 Z M1268,-1112 L1257,-1114 L1258,-1110 L1261,-1110 L1271,-1106 L1275,-1107 L1265,-1111 
        L1268,-1112 L1268,-1112 Z M1249,-1124 L1243,-1124 L1261,-1128 L1269,-1123 L1263,-1123 L1262,-1123 L1252,-1117 
        L1239,-1117 L1250,-1124 L1249,-1124 L1249,-1124 Z M1238,-1109 L1234,-1109 L1244,-1114 L1245,-1109 L1240,-1109 
        L1241,-1109 L1236,-1104 L1232,-1104 L1237,-1109 L1238,-1109 L1238,-1109 Z" transform="matrix(0.33333, 0, 0, 0.33333, 0, 0)"
        stroke="none"/>
    <path fill="#ffffff" d="M1213,-1113 L1226,-1114 L1224,-1110 L1220,-1111 L1206,-1105 L1203,-1106 L1216,-1111 
        L1213,-1113 L1213,-1113 Z M1268,-1113 L1257,-1114 L1258,-1110 L1261,-1111 L1271,-1106 L1274,-1107 L1264,-1111 
        L1268,-1113 L1268,-1113 Z M1248,-1124 L1243,-1124 L1261,-1128 L1269,-1123 L1263,-1123 L1262,-1123 L1252,-1117 
        L1239,-1117 L1249,-1124 L1248,-1124 L1248,-1124 Z M1237,-1109 L1233,-1109 L1243,-1115 L1244,-1109 L1240,-1109 
        L1240,-1109 L1235,-1104 L1232,-1104 L1237,-1109 L1237,-1109 L1237,-1109 Z" transform="matrix(0.33333, 0, 0, 0.33333, 0, 0)"
        stroke="none"/>
</svg>