<?xml version="1.0" standalone="no"?>
<!DOCTYPE svg PUBLIC "-//W3C//DTD SVG 1.0//EN"
    "http://www.w3.org/TR/2001/REC-SVG-20010904/DTD/svg10.dtd">
<?xml-stylesheet type="text/css" href="..\cisco_network.css" ?>
<svg contentScriptType="text/ecmascript" zoomAndPan="magnify" xmlns:xlink="http://www.w3.org/1999/xlink" baseProfile="full"
    contentStyleType="text/css" enable-background="new" version="1.0" width="57.5717" preserveAspectRatio="none"
    viewBox="376 -547.01 64.992 36.992" height="32.7685" xmlns="http://www.w3.org/2000/svg" color-interpolation-filters="sRGB"
    x="0" y="1.5">
    <path stroke-width="2" d="M1131,-1591 L1188,-1638 L1322,-1638 L1274,-1591 L1131,-1591 Z M1274,-1532 L1322,-1580 
        L1322,-1638 L1274,-1591 L1274,-1532 Z M1274,-1532 L1274,-1591 L1131,-1591 L1131,-1532 L1274,-1532 Z" transform="matrix(0.33333, 0, 0, 0.33333, 0, 0)"/>
    <path fill="#ffffff" d="M1174,-1608 L1192,-1610 L1189,-1602 L1184,-1605 L1164,-1597 L1160,-1598 L1179,-1606 
        L1174,-1608 Z M1250,-1608 L1235,-1610 L1236,-1602 L1241,-1605 L1255,-1598 L1259,-1599 L1246,-1606 L1250,-1608 Z"
        transform="matrix(0.33333, 0, 0, 0.33333, 0, 0)" stroke="none"/>
    <path fill="none" d="M1266,-1560 C1266,-1560 1256,-1535 1245,-1560 C1233,-1584 1224,-1560 1224,-1560 C1224,-1560 
        1214,-1535 1203,-1560 C1192,-1584 1182,-1560 1182,-1560 C1182,-1560 1173,-1535 1161,-1560 C1150,-1584 1140,-1560 
        1140,-1560" stroke-width="2" transform="matrix(0.33333, 0, 0, 0.33333, 0, 0)" stroke-linecap="round"/>
    <path fill="none" d="M1140,-1560 C1140,-1560 1150,-1535 1161,-1560 C1173,-1584 1182,-1560 1182,-1560 C1182,-1560 
        1192,-1535 1203,-1560 C1215,-1584 1224,-1560 1224,-1560 C1224,-1560 1233,-1535 1245,-1560 C1256,-1584 1266,-1560 
        1266,-1560" stroke-width="4" transform="matrix(0.33333, 0, 0, 0.33333, 0, 0)" stroke-linecap="round"/>
    <path fill="none" d="M1268,-1560 C1268,-1560 1259,-1535 1247,-1560 C1236,-1584 1226,-1560 1226,-1560 C1226,-1560 
        1217,-1535 1205,-1560 C1194,-1584 1184,-1560 1184,-1560 C1184,-1560 1175,-1535 1163,-1560 C1152,-1584 1142,-1560 
        1142,-1560" stroke-width="2" transform="matrix(0.33333, 0, 0, 0.33333, 0, 0)" stroke-linecap="round" stroke="#000000"/>
    <path fill="none" d="M1142,-1560 C1142,-1560 1152,-1535 1163,-1560 C1175,-1584 1184,-1560 1184,-1560 C1184,-1560 
        1194,-1535 1205,-1560 C1217,-1584 1226,-1560 1226,-1560 C1226,-1560 1236,-1535 1247,-1560 C1259,-1584 1268,-1560 
        1268,-1560" stroke-width="4" transform="matrix(0.33333, 0, 0, 0.33333, 0, 0)" stroke-linecap="round" stroke="#000000"/>
    <path fill="none" d="M1266,-1560 C1266,-1560 1256,-1535 1245,-1560 C1233,-1584 1224,-1560 1224,-1560 C1224,-1560 
        1214,-1535 1203,-1560 C1192,-1584 1182,-1560 1182,-1560 C1182,-1560 1173,-1535 1161,-1560 C1150,-1584 1140,-1560 
        1140,-1560" stroke-width="2" transform="matrix(0.33333, 0, 0, 0.33333, 0, 0)" stroke-linecap="round"/>
    <path fill="none" d="M1140,-1560 C1140,-1560 1150,-1535 1161,-1560 C1173,-1584 1182,-1560 1182,-1560 C1182,-1560 
        1192,-1535 1203,-1560 C1215,-1584 1224,-1560 1224,-1560 C1224,-1560 1233,-1535 1245,-1560 C1256,-1584 1266,-1560 
        1266,-1560" stroke-width="4" transform="matrix(0.33333, 0, 0, 0.33333, 0, 0)" stroke-linecap="round"/>
    <path fill="none" d="M1268,-1560 C1268,-1560 1259,-1535 1247,-1560 C1236,-1584 1226,-1560 1226,-1560 C1226,-1560 
        1217,-1535 1205,-1560 C1194,-1584 1184,-1560 1184,-1560 C1184,-1560 1175,-1535 1163,-1560 C1152,-1584 1142,-1560 
        1142,-1560" stroke-width="2" transform="matrix(0.33333, 0, 0, 0.33333, 0, 0)" stroke-linecap="round" stroke="#000000"/>
    <path fill="none" d="M1142,-1560 C1142,-1560 1152,-1535 1163,-1560 C1175,-1584 1184,-1560 1184,-1560 C1184,-1560 
        1194,-1535 1205,-1560 C1217,-1584 1226,-1560 1226,-1560 C1226,-1560 1236,-1535 1247,-1560 C1259,-1584 1268,-1560 
        1268,-1560" stroke-width="4" transform="matrix(0.33333, 0, 0, 0.33333, 0, 0)" stroke-linecap="round" stroke="#000000"/>
    <path fill="none" d="M1266,-1560 C1266,-1560 1256,-1535 1245,-1560 C1233,-1584 1224,-1560 1224,-1560 C1224,-1560 
        1214,-1535 1203,-1560 C1192,-1584 1182,-1560 1182,-1560 C1182,-1560 1173,-1535 1161,-1560 C1150,-1584 1140,-1560 
        1140,-1560" stroke-width="2" transform="matrix(0.33333, 0, 0, 0.33333, 0, 0)" stroke="#ffffff" stroke-linecap="round"/>
    <path fill="none" d="M1140,-1560 C1140,-1560 1150,-1535 1161,-1560 C1173,-1584 1182,-1560 1182,-1560 C1182,-1560 
        1192,-1535 1203,-1560 C1215,-1584 1224,-1560 1224,-1560 C1224,-1560 1233,-1535 1245,-1560 C1256,-1584 1266,-1560 
        1266,-1560" stroke-width="4" transform="matrix(0.33333, 0, 0, 0.33333, 0, 0)" stroke-linecap="round" stroke="#ffffff"/>
    <path fill="#ffffff" d="M1223,-1626 L1216,-1627 L1241,-1633 L1252,-1625 L1244,-1625 L1242,-1625 L1228,-1615 
        L1210,-1615 L1225,-1626 L1223,-1626 Z M1208,-1603 L1202,-1603 L1216,-1612 L1217,-1603 L1212,-1603 L1212,-1603 
        L1205,-1595 L1200,-1595 L1207,-1603 L1208,-1603 Z" transform="matrix(0.33333, 0, 0, 0.33333, 0, 0)" stroke="none"/>
</svg>