<?xml version="1.0" standalone="no"?>
<!DOCTYPE svg PUBLIC "-//W3C//DTD SVG 1.0//EN"
    "http://www.w3.org/TR/2001/REC-SVG-20010904/DTD/svg10.dtd">
<?xml-stylesheet type="text/css" href="..\cisco_network.css" ?>
<svg contentScriptType="text/ecmascript" zoomAndPan="magnify" xmlns:xlink="http://www.w3.org/1999/xlink" baseProfile="full"
    contentStyleType="text/css" enable-background="new" version="1.0" width="57.5717" preserveAspectRatio="none"
    viewBox="382.02 -563.01 64.992 32" height="28.3465" xmlns="http://www.w3.org/2000/svg" color-interpolation-filters="sRGB"
    x="0" y="1.5">
    <path d="M1291,-1596 L1291,-1642 L1148,-1642 L1148,-1596 L1291,-1596 Z M1147,-1642 L1205,-1689 L1338,-1689 
        L1290,-1642 L1147,-1642 Z M1291,-1594 L1338,-1646 L1338,-1689 L1291,-1642 L1291,-1594 Z" stroke-width="2"
        transform="matrix(0.33333, 0, 0, 0.33333, 0, 0)"/>
    <path fill="#ffffff" d="M1231,-1654 L1228,-1652 L1193,-1652 L1189,-1648 L1179,-1652 L1199,-1658 L1195,-1654 
        L1231,-1654 Z M1259,-1672 L1256,-1669 L1221,-1669 L1217,-1666 L1207,-1670 L1227,-1675 L1223,-1672 L1259,-1672 Z 
        M1237,-1660 L1240,-1662 L1276,-1662 L1279,-1666 L1289,-1662 L1270,-1656 L1273,-1660 L1237,-1660 Z M1256,-1678 
        L1259,-1680 L1294,-1680 L1298,-1684 L1308,-1679 L1288,-1674 L1292,-1678 L1256,-1678 Z" transform="matrix(0.33333, 0, 0, 0.33333, 0, 0)"
        stroke="none"/>
</svg>