<?xml version="1.0" standalone="no"?>
<!DOCTYPE svg PUBLIC "-//W3C//DTD SVG 1.0//EN"
    "http://www.w3.org/TR/2001/REC-SVG-20010904/DTD/svg10.dtd">
<?xml-stylesheet type="text/css" href="..\cisco_network.css" ?>
<svg contentScriptType="text/ecmascript" zoomAndPan="magnify" xmlns:xlink="http://www.w3.org/1999/xlink" baseProfile="full"
    contentStyleType="text/css" enable-background="new" version="1.0" width="45.1843" preserveAspectRatio="none"
    viewBox="384.99 -567.01 51.008 43.008" height="38.0976" xmlns="http://www.w3.org/2000/svg"
    color-interpolation-filters="sRGB" x="0" y="1.5">
    <path fill="#000000" d="M1281,-1628 L1270,-1612 L1174,-1612 L1190,-1628 L1281,-1628 Z" stroke-width="2" transform="matrix(0.33333, 0, 0, 0.33333, 0, 0)"/>
    <path d="M1174,-1595 L1174,-1612 L1266,-1612 L1266,-1595 L1174,-1595 Z M1174,-1685 L1265,-1685 L1265,-1616 
        L1174,-1616 L1174,-1685 Z M1265,-1616 L1281,-1631 L1281,-1700 L1265,-1685 L1265,-1616 Z M1300,-1580 L1307,-1594 
        L1291,-1594 L1284,-1580 L1300,-1580 Z M1284,-1580 L1300,-1580 L1300,-1575 L1284,-1575 L1284,-1580 Z M1299,-1575 
        L1299,-1580 L1306,-1594 L1306,-1584 L1299,-1575 M1266,-1595 L1266,-1612 L1281,-1627 L1281,-1610 L1266,-1595 Z"
        stroke-width="2" transform="matrix(0.33333, 0, 0, 0.33333, 0, 0)"/>
    <path d="M1189,-1677 C1250,-1677 1250,-1677 1250,-1677 C1254,-1677 1257,-1674 1257,-1670 C1257,-1631 1257,-1631 
        1257,-1631 C1257,-1627 1254,-1624 1250,-1624 C1189,-1624 1189,-1624 1189,-1624 C1185,-1624 1182,-1627 1182,-1631 
        C1182,-1670 1182,-1670 1182,-1670 C1182,-1674 1185,-1677 1189,-1677 Z" stroke-width="2" transform="matrix(0.33333, 0, 0, 0.33333, 0, 0)"/>
    <path d="M1281,-1700 L1192,-1700 L1174,-1685 L1265,-1685 L1281,-1700 Z" stroke-width="2" transform="matrix(0.33333, 0, 0, 0.33333, 0, 0)"/>
    <path d="M1263,-1573 L1263,-1578 L1275,-1595 L1275,-1585 L1263,-1573 Z" stroke-width="2" transform="matrix(0.33333, 0, 0, 0.33333, 0, 0)"/>
    <path d="M1263,-1578 L1158,-1578 L1170,-1595 L1275,-1595 L1263,-1578 Z" stroke-width="2" transform="matrix(0.33333, 0, 0, 0.33333, 0, 0)"/>
    <path d="M1263,-1578 L1263,-1573 L1158,-1573 L1158,-1578 L1263,-1578 Z" stroke-width="2" transform="matrix(0.33333, 0, 0, 0.33333, 0, 0)"/>
    <path fill="none" d="M1303,-1593 C1315,-1599 1305,-1625 1280,-1612" stroke-width="2" transform="matrix(0.33333, 0, 0, 0.33333, 0, 0)"
        stroke="#126d99"/>
    <path fill="none" stroke-width="2" d="M1219,-1640 C1232,-1640 1243,-1645 1243,-1650 C1243,-1656 1232,-1661 
        1219,-1661 C1206,-1661 1196,-1656 1196,-1650 C1196,-1645 1206,-1640 1219,-1640 Z" transform="matrix(0.33333, 0, 0, 0.33333, 0, 0)"/>
    <path fill="none" stroke-width="2" d="M1219,-1636 C1236,-1636 1249,-1643 1249,-1651 C1249,-1659 1236,-1665 
        1219,-1665 C1203,-1665 1189,-1659 1189,-1651 C1189,-1643 1203,-1636 1219,-1636 Z" transform="matrix(0.33333, 0, 0, 0.33333, 0, 0)"/>
</svg>