<?xml version="1.0" standalone="no"?>
<!DOCTYPE svg PUBLIC "-//W3C//DTD SVG 1.0//EN"
    "http://www.w3.org/TR/2001/REC-SVG-20010904/DTD/svg10.dtd">
<?xml-stylesheet type="text/css" href="..\cisco_network.css" ?>
<svg contentScriptType="text/ecmascript" zoomAndPan="magnify" xmlns:xlink="http://www.w3.org/1999/xlink" baseProfile="full"
    contentStyleType="text/css" enable-background="new" version="1.0" width="42.5197" preserveAspectRatio="none"
    viewBox="387.01 -560.99 48 40.992" height="36.3118" xmlns="http://www.w3.org/2000/svg" color-interpolation-filters="sRGB"
    x="0" y="1.5">
    <path stroke-linecap="round" transform="matrix(0.33333, 0, 0, 0.33333, 0, 0)" fill="none" stroke-linejoin="round" d=
        "M1291,-1580 C1293,-1582 1284,-1585 1294,-1586 C1300,-1587 1320,-1599 1274,-1599" stroke="#000000" stroke-width="2"/>
    <path stroke-width="2" d="M1187,-1583 L1187,-1594 L1261,-1594 L1261,-1583 L1187,-1583 Z M1261,-1583 L1261,-1594 
        L1275,-1609 L1275,-1598 L1261,-1583 Z M1187,-1581 L1187,-1594 L1261,-1594 L1261,-1581 L1187,-1581 Z M1261,-1581 
        L1261,-1594 L1275,-1609 L1275,-1596 L1261,-1581 Z M1281,-1611 L1270,-1596 L1179,-1596 L1193,-1611 L1281,-1611 Z 
        M1179,-1591 L1179,-1596 L1266,-1596 L1266,-1591 L1179,-1591 Z" transform="matrix(0.33333, 0, 0, 0.33333, 0, 0)"/>
    <path stroke-width="2" d="M1266,-1591 L1266,-1596 L1281,-1611 L1281,-1606 L1266,-1591 Z" transform="matrix(0.33333, 0, 0, 0.33333, 0, 0)"/>
    <path stroke-width="2" d="M1281,-1611 L1270,-1596 L1179,-1596 L1193,-1611 L1281,-1611 Z" transform="matrix(0.33333, 0, 0, 0.33333, 0, 0)"/>
    <path stroke-width="2" d="M1179,-1591 L1179,-1596 L1266,-1596 L1266,-1591 L1179,-1591 Z" transform="matrix(0.33333, 0, 0, 0.33333, 0, 0)"/>
    <path stroke-width="2" d="M1266,-1591 L1266,-1596 L1281,-1611 L1281,-1606 L1266,-1591 Z M1281,-1681 L1202,-1681 
        L1179,-1675 L1270,-1675 L1281,-1681 Z M1266,-1603 L1262,-1606 L1188,-1606 L1192,-1603 L1266,-1603 Z M1267,-1603 
        L1262,-1607 L1281,-1617 L1269,-1605 L1267,-1603 Z" transform="matrix(0.33333, 0, 0, 0.33333, 0, 0)"/>
    <path stroke-width="2" d="M1270,-1675 L1270,-1607 L1281,-1617 L1281,-1681 L1270,-1675 Z" transform="matrix(0.33333, 0, 0, 0.33333, 0, 0)"/>
    <path stroke-width="2" d="M1270,-1606 L1270,-1675 L1179,-1675 L1179,-1606 L1270,-1606 Z M1263,-1563 L1263,-1569 
        L1274,-1585 L1274,-1575 L1263,-1563 Z M1263,-1569 L1263,-1563 L1162,-1563 L1162,-1569 L1263,-1569 Z M1291,-1568 
        L1298,-1581 L1283,-1581 L1276,-1568 L1291,-1568 Z M1276,-1568 L1291,-1568 L1291,-1563 L1276,-1563 L1276,-1568 Z 
        M1291,-1563 L1291,-1568 L1298,-1581 L1298,-1572 L1291,-1563 Z M1263,-1569 L1162,-1569 L1174,-1585 L1274,-1585 
        L1263,-1569 Z" transform="matrix(0.33333, 0, 0, 0.33333, 0, 0)"/>
    <path d="M1192,-1668 C1256,-1668 1256,-1668 1256,-1668 C1261,-1668 1264,-1665 1264,-1661 C1264,-1620 1264,-1620 
        1264,-1620 C1264,-1616 1261,-1612 1256,-1612 C1192,-1612 1192,-1612 1192,-1612 C1188,-1612 1185,-1616 1185,-1620 
        C1185,-1661 1185,-1661 1185,-1661 C1185,-1665 1188,-1668 1192,-1668 Z" stroke-width="2" transform="matrix(0.33333, 0, 0, 0.33333, 0, 0)"/>
</svg>