<?xml version="1.0" standalone="no"?>
<!DOCTYPE svg PUBLIC "-//W3C//DTD SVG 1.0//EN"
    "http://www.w3.org/TR/2001/REC-SVG-20010904/DTD/svg10.dtd">
<?xml-stylesheet type="text/css" href="..\cisco_network.css" ?>
<svg contentScriptType="text/ecmascript" zoomAndPan="magnify" xmlns:xlink="http://www.w3.org/1999/xlink" baseProfile="full"
    contentStyleType="text/css" enable-background="new" version="1.0" width="37.1906" preserveAspectRatio="none"
    viewBox="390.02 -563.01 41.984 44" height="38.9764" xmlns="http://www.w3.org/2000/svg" color-interpolation-filters="sRGB"
    x="0" y="1.5">
    <path d="M1296,-1613 L1284,-1598 L1189,-1598 L1204,-1614 L1296,-1613 Z" stroke-width="2" transform="matrix(0.33333, 0, 0, 0.33333, 0, 0)"/>
    <path d="M1189,-1581 L1189,-1598 L1280,-1598 L1280,-1581 L1189,-1581 Z" stroke-width="2" transform="matrix(0.33333, 0, 0, 0.33333, 0, 0)"/>
    <path d="M1188,-1670 L1280,-1670 L1280,-1602 L1188,-1602 L1188,-1670 Z" stroke-width="2" transform="matrix(0.33333, 0, 0, 0.33333, 0, 0)"/>
    <path d="M1280,-1602 L1295,-1617 L1295,-1686 L1280,-1670 L1280,-1602 Z" stroke-width="2" transform="matrix(0.33333, 0, 0, 0.33333, 0, 0)"/>
    <path d="M1280,-1581 L1280,-1598 L1296,-1613 L1296,-1596 L1280,-1581 Z" stroke-width="2" transform="matrix(0.33333, 0, 0, 0.33333, 0, 0)"/>
    <path d="M1203,-1663 C1264,-1663 1264,-1663 1264,-1663 C1268,-1663 1272,-1659 1272,-1655 C1272,-1617 1272,-1617 
        1272,-1617 C1272,-1613 1268,-1610 1264,-1610 C1203,-1610 1203,-1610 1203,-1610 C1199,-1610 1196,-1613 1196,-1617 
        C1196,-1655 1196,-1655 1196,-1655 C1196,-1659 1199,-1663 1203,-1663 Z" stroke-width="2" transform="matrix(0.33333, 0, 0, 0.33333, 0, 0)"/>
    <path d="M1295,-1686 L1206,-1686 L1188,-1670 L1280,-1670 L1295,-1686 Z M1277,-1559 L1277,-1564 L1289,-1581 
        L1289,-1570 L1277,-1559 Z M1277,-1564 L1172,-1564 L1184,-1581 L1289,-1581 L1277,-1564 Z M1277,-1564 L1277,-1559 
        L1172,-1559 L1172,-1564 L1277,-1564 Z" stroke-width="2" transform="matrix(0.33333, 0, 0, 0.33333, 0, 0)"/>
    <path d="M1225,-1651 C1214,-1653 1208,-1647 1209,-1643 C1209,-1642 1209,-1642 1209,-1642 C1201,-1641 1203,-1631 
        1207,-1631 C1207,-1631 1207,-1631 1207,-1631 C1206,-1624 1216,-1620 1222,-1624 C1222,-1625 1222,-1625 1222,-1625 
        C1223,-1618 1245,-1618 1249,-1622 C1250,-1622 1250,-1622 1250,-1622 C1259,-1622 1263,-1628 1261,-1633 
        C1262,-1633 1262,-1633 1262,-1633 C1265,-1634 1265,-1641 1260,-1642 C1260,-1643 1260,-1643 1260,-1643 
        C1262,-1647 1257,-1652 1249,-1651 C1248,-1651 1248,-1651 1248,-1651 C1243,-1656 1227,-1656 1225,-1651 Z"
        stroke-width="2" transform="matrix(0.33333, 0, 0, 0.33333, 0, 0)"/>
</svg>