<?xml version="1.0" standalone="no"?>
<!DOCTYPE svg PUBLIC "-//W3C//DTD SVG 1.1//EN"
    "http://www.w3.org/Graphics/SVG/1.1/DTD/svg11.dtd">
<?xml-stylesheet type="text/css" href="..\non_service_specific.css" ?>
<!-- Generator: Adobe Illustrator 14.0.0, SVG Export Plug-In . SVG Version: 6.00 Build 43363)  -->
<svg contentScriptType="text/ecmascript" zoomAndPan="magnify" xmlns:xlink="http://www.w3.org/1999/xlink" baseProfile="full"
    contentStyleType="text/css" id="Layer_1" enable-background="new 0 0 70 70" version="1.1" width="70px" xml:space="preserve"
    preserveAspectRatio="xMidYMid meet" viewBox="0 0 70 70" height="70px" xmlns="http://www.w3.org/2000/svg" x="0px" y="0px">      
    <path d="M45.544,34.946l-1.086-0.234l-1.183-1.226L40.2,33.778l-1.28-2.245l-3.636,0.051l-0.834-0.036 
        c0,0-0.736-1.223-1.815-2.028v0.001c-2.86-2.304-7.036-2.374-9.991,0.046c-3.389,2.774-3.888,7.77-1.112,11.158 
        c0.199,0.242,0.407,0.47,0.627,0.68c2.854,2.764,7.387,3.008,10.531,0.433c0.415-0.323,0.77-0.693,1.069-1.065 
        c0.321-0.385,0.599-0.794,0.836-1.224l-0.021,0.001c0.271-0.492,0.42-0.855,0.457-0.953L49.92,38.39l1.301-2.433l-2.869-2.707 
        L45.544,34.946z M24.187,37.663c-1.151,0.015-2.095-0.904-2.11-2.054c-0.016-1.147,0.901-2.093,2.053-2.109 
        c1.148-0.014,2.094,0.903,2.109,2.053C26.253,36.701,25.336,37.647,24.187,37.663z"/> </svg>