<?xml version="1.0" standalone="no"?>
<!DOCTYPE svg PUBLIC "-//W3C//DTD SVG 1.1//EN"
    "http://www.w3.org/Graphics/SVG/1.1/DTD/svg11.dtd">
<?xml-stylesheet type="text/css" href="..\non_service_specific.css" ?>
<!-- Generator: Adobe Illustrator 14.0.0, SVG Export Plug-In . SVG Version: 6.00 Build 43363)  -->
<svg contentScriptType="text/ecmascript" zoomAndPan="magnify" xmlns:xlink="http://www.w3.org/1999/xlink" baseProfile="full"
    contentStyleType="text/css" id="Layer_1" enable-background="new 0 0 70 70" version="1.1" width="70px" xml:space="preserve"
    preserveAspectRatio="xMidYMid meet" viewBox="0 0 70 70" height="70px" xmlns="http://www.w3.org/2000/svg" x="0px" y="0px">      
    <path d="M10.455,31.771c-0.005-0.166-0.024-0.327-0.024-0.492c0-9.357,7.582-16.939,16.938-16.939 
        c6.889,0,12.804,4.119,15.454,10.021c1.382-0.951,3.055-1.511,4.859-1.511c4.648,0,8.427,3.696,8.576,8.31 
        c6.678,0.57,11.873,7.052,11.873,12.216v1.116c0,5.552-6.002,11.169-13.4,11.169H15.269c-7.398,0-13.4-5.617-13.4-11.169v-1.116 
        C1.868,39.1,5.437,33.223,10.455,31.771z"/> </svg>