<?xml version="1.0" standalone="no"?>
<!DOCTYPE svg PUBLIC "-//W3C//DTD SVG 1.1//EN"
    "http://www.w3.org/Graphics/SVG/1.1/DTD/svg11.dtd">
<?xml-stylesheet type="text/css" href="..\non_service_specific.css" ?>
<!-- Generator: Adobe Illustrator 14.0.0, SVG Export Plug-In . SVG Version: 6.00 Build 43363)  -->
<svg contentScriptType="text/ecmascript" zoomAndPan="magnify" xmlns:xlink="http://www.w3.org/1999/xlink" baseProfile="full"
    contentStyleType="text/css" id="Layer_1" enable-background="new 0 0 70 70" version="1.1" width="70px" xml:space="preserve"
    preserveAspectRatio="xMidYMid meet" viewBox="0 0 70 70" height="70px" xmlns="http://www.w3.org/2000/svg" x="0px" y="0px">      
    <g>           
        <path d="M49.5,9.058h-29c-1.657,0-3,1.343-3,3v45.885c0,1.657,1.343,3,3,3h29c1.657,0,3-1.343,3-3V12.058 
            C52.5,10.4,51.157,9.058,49.5,9.058z 
            M26.277,12.417h17.445c1.081,0,1.958,0.877,1.958,1.958s-0.877,1.958-1.958,1.958H26.277 
            c-1.081,0-1.958-0.877-1.958-1.958S25.196,12.417,26.277,12.417z M35,59.583c-1.887,0-3.416-1.529-3.416-3.417 
            c0-1.887,1.529-3.416,3.416-3.416s3.416,1.529,3.416,3.416C38.416,58.054,36.887,59.583,35,59.583z 
            M49.123,48.647 
            c0,0.99-0.896,1.793-2,1.793H22.878c-1.104,0-2-0.803-2-1.793V21.365c0-0.99,0.896-1.793,2-1.793h24.245c1.104,0,2,0.803,2,1.793 
            V48.647z"/> </g> </svg>