<?xml version="1.0" standalone="no"?>
<!DOCTYPE svg PUBLIC "-//W3C//DTD SVG 1.1//EN"
    "http://www.w3.org/Graphics/SVG/1.1/DTD/svg11.dtd">
<?xml-stylesheet type="text/css" href="..\non_service_specific.css" ?>
<!-- Generator: Adobe Illustrator 14.0.0, SVG Export Plug-In . SVG Version: 6.00 Build 43363)  -->
<svg contentScriptType="text/ecmascript" zoomAndPan="magnify" xmlns:xlink="http://www.w3.org/1999/xlink" baseProfile="full"
    contentStyleType="text/css" id="Layer_1" enable-background="new 0 0 70 70" version="1.1" width="70px" xml:space="preserve"
    preserveAspectRatio="xMidYMid meet" viewBox="0 0 70 70" height="70px" xmlns="http://www.w3.org/2000/svg" x="0px" y="0px">      
    <g>           
        <g>                
            <g>                     
                <path d=
                    "M56.667,11.047H11.992c-1.918,0-3.48,1.563-3.48,3.484v40.938c0,1.922,1.563,3.484,3.48,3.484h44.675 
                    c1.926,0,3.488-1.563,3.488-3.484V14.531C60.155,12.609,58.593,11.047,56.667,11.047z M48.827,15.119 
                    c0-0.802,0.646-1.449,1.445-1.449h5.559c0.803,0,1.449,0.647,1.449,1.449v2.318c0,0.797-0.646,1.447-1.449,1.447h-5.559 
                    c-0.799,0-1.445-0.65-1.445-1.447V15.119z M36.347,15.119c0-0.802,0.646-1.449,1.445-1.449h5.559 
                    c0.801,0,1.449,0.647,1.449,1.449v2.318c0,0.797-0.648,1.447-1.449,1.447h-5.559c-0.799,0-1.445-0.65-1.445-1.447V15.119z 
                    M23.867,15.119c0-0.802,0.646-1.449,1.445-1.449h5.559c0.801,0,1.449,0.647,1.449,1.449v2.318c0,0.797-0.648,1.447-1.449,1.447 
                    h-5.559c-0.799,0-1.445-0.65-1.445-1.447V15.119z M11.385,15.119c0-0.802,0.648-1.449,1.447-1.449h5.559 
                    c0.801,0,1.449,0.647,1.449,1.449v2.318c0,0.797-0.648,1.447-1.449,1.447h-5.559c-0.799,0-1.447-0.65-1.447-1.447V15.119z 
                    M19.84,54.912c0,0.799-0.648,1.449-1.449,1.449h-5.559c-0.799,0-1.447-0.65-1.447-1.449v-2.318c0-0.801,0.648-1.447,1.447-1.447 
                    h5.559c0.801,0,1.449,0.646,1.449,1.447V54.912z M32.32,54.912c0,0.799-0.648,1.449-1.449,1.449h-5.559 
                    c-0.799,0-1.445-0.65-1.445-1.449v-2.318c0-0.801,0.646-1.447,1.445-1.447h5.559c0.801,0,1.449,0.646,1.449,1.447V54.912z 
                    M44.8,54.912c0,0.799-0.648,1.449-1.449,1.449h-5.559c-0.799,0-1.445-0.65-1.445-1.449v-2.318c0-0.801,0.646-1.447,1.445-1.447 
                    h5.559c0.801,0,1.449,0.646,1.449,1.447V54.912z M57.28,54.912c0,0.799-0.646,1.449-1.449,1.449h-5.559 
                    c-0.799,0-1.445-0.65-1.445-1.449v-2.318c0-0.801,0.646-1.447,1.445-1.447h5.559c0.803,0,1.449,0.646,1.449,1.447V54.912z 
                    M56.554,48.809H11.965c-0.432,0-0.777-0.348-0.777-0.775c0-0.43,0.346-0.775,0.777-0.775h44.589 
                    c0.428,0,0.773,0.346,0.773,0.775C57.327,48.461,56.981,48.809,56.554,48.809z M27.363,34.225 
                    c0.363-3.258,2.934-5.828,6.195-6.191v6.191H27.363z 
                    M33.559,35.775v6.193c-3.262-0.365-5.832-2.936-6.195-6.193H33.559z 
                    M25.768,34.225h-1.33c0.377-4.865,4.254-8.742,9.121-9.122v1.335C29.42,26.814,26.145,30.087,25.768,34.225z 
                    M25.768,35.775 
                    c0.377,4.137,3.652,7.412,7.791,7.789v1.332c-4.867-0.379-8.744-4.254-9.121-9.121H25.768z 
                    M41.306,34.225h-6.198v-6.191 C38.37,28.394,40.946,30.965,41.306,34.225z 
                    M35.107,26.438v-1.335c4.866,0.376,8.747,4.255,9.124,9.122h-1.33 
                    C42.528,30.086,39.249,26.809,35.107,26.438z 
                    M41.306,35.775c-0.359,3.262-2.936,5.832-6.198,6.193v-6.193H41.306z 
                    M42.901,35.775h1.33c-0.377,4.867-4.258,8.746-9.124,9.121v-1.332C39.249,43.189,42.528,39.914,42.901,35.775z 
                    M56.554,22.499 
                    H11.965c-0.432,0-0.777-0.345-0.777-0.774c0-0.428,0.346-0.774,0.777-0.774h44.589c0.428,0,0.773,0.347,0.773,0.774 
                    C57.327,22.154,56.981,22.499,56.554,22.499z"/>   </g>  </g> </g> </svg>