<?xml version="1.0" standalone="no"?>
<!DOCTYPE svg PUBLIC "-//W3C//DTD SVG 1.1//EN"
    "http://www.w3.org/Graphics/SVG/1.1/DTD/svg11.dtd">
<?xml-stylesheet type="text/css" href="..\non_service_specific.css" ?>
<!-- Generator: Adobe Illustrator 14.0.0, SVG Export Plug-In . SVG Version: 6.00 Build 43363)  -->
<svg contentScriptType="text/ecmascript" zoomAndPan="magnify" xmlns:xlink="http://www.w3.org/1999/xlink" baseProfile="full"
    contentStyleType="text/css" id="Layer_1" enable-background="new 0 0 70 70" version="1.1" width="70px" xml:space="preserve"
    preserveAspectRatio="xMidYMid meet" viewBox="0 0 70 70" height="70px" xmlns="http://www.w3.org/2000/svg" x="0px" y="0px">      
    <g>           
        <path d="M51.852,24.651c4.891,0,8.869-4.103,8.869-9.144c0-5.033-3.979-9.128-8.869-9.128 
            c-4.884,0-8.856,4.095-8.856,9.128C42.995,20.549,46.968,24.651,51.852,24.651z"/>           
        <path d="M57.469,29.468H46.233c-0.163,0-0.319,0.014-0.479,0.019c-0.461,5.317-4.6,9.561-9.786,10.035v1.006h4.65 
            c6.767,0,11.605,4.1,12.145,10.102h8.199v-8.035h1.449v8.035h5.322V38.764C67.733,33.29,63.513,29.468,57.469,29.468z"/>           
        <path d="M18.15,6.383c-4.884,0-8.855,4.095-8.855,9.128c0,5.041,3.972,9.144,8.855,9.144 
            c4.891,0,8.869-4.103,8.869-9.144C27.02,10.478,23.041,6.383,18.15,6.383z"/>           
        <path d="M17.238,50.632c0.537-6.004,5.377-10.104,12.145-10.104h4.651v-1.006 
            c-5.178-0.475-9.311-4.716-9.772-10.032c-0.165-0.006-0.325-0.02-0.493-0.02H12.533c-6.045,0-10.267,3.823-10.267,9.297v11.865 
            h5.578v-8.035h1.449v8.035H17.238z"/>           
        <path d="M35,37.641c4.891,0,8.87-4.101,8.87-9.142c0-5.033-3.979-9.128-8.87-9.128 
            c-4.883,0-8.854,4.095-8.854,9.128C26.146,33.54,30.117,37.641,35,37.641z"/>           
        <path d="M40.618,42.459H29.383c-6.045,0-10.266,3.823-10.266,9.297v11.863h5.577v-8.032h1.449v8.032h17.968v-8.032 
            h1.449v8.032h5.324V51.756C50.885,46.282,46.663,42.459,40.618,42.459z"/> </g> </svg>