<?xml version="1.0" standalone="no"?>
<!DOCTYPE svg PUBLIC "-//W3C//DTD SVG 1.1//EN"
    "http://www.w3.org/Graphics/SVG/1.1/DTD/svg11.dtd">
<?xml-stylesheet type="text/css" href="..\deployment_management.css" ?>
<!-- Generator: Adobe Illustrator 14.0.0, SVG Export Plug-In . SVG Version: 6.00 Build 43363)  -->
<svg contentScriptType="text/ecmascript" zoomAndPan="magnify" xmlns:xlink="http://www.w3.org/1999/xlink" baseProfile="full"
    contentStyleType="text/css" id="Layer_1" enable-background="new 0 0 70 70" version="1.1" width="70px" xml:space="preserve"
    preserveAspectRatio="xMidYMid meet" viewBox="0 0 70 70" height="70px" xmlns="http://www.w3.org/2000/svg" x="0px" y="0px">      
    <g>           
        <path fill="none" d="M7.991,28.145c1.212,1.212,3.716,1.909,6.323,2.31c-2.712-0.581-5.278-1.415-6.563-2.602 
            C7.831,27.951,7.906,28.06,7.991,28.145z"/>           
        <path fill="none" d="M5.41,17.576l0.044-0.901l1.104,0.167c0.926,0.14,7.923,1.255,11.965,3.323 
            c-3.403-2.917-13.375-3.735-13.375-3.735s0.045,1.441,0.256,3.334C5.367,18.654,5.398,17.819,5.41,17.576z"/>           
        <path fill="none" d="M63.064,42.951l0.895,0.435l-0.539,0.827c-0.219,0.335-5.414,8.253-9.521,9.5 
            c0.034-0.01,0.077-0.012,0.111-0.022c4.304-1.319,10.128-10.406,10.128-10.406s-5.903-2.912-9.902-3.203 
            C57.916,40.471,62.839,42.841,63.064,42.951z"/>           
        <path d="M65.024,41.491c-0.713-0.352-7.088-3.438-11.405-3.438c-0.743,0-1.417,0.091-2.002,0.271 
            c-1.234,0.378-2.478,1.278-3.662,2.439V10.151H19.813v8.505c-3.825-3.249-13.386-4.129-14.5-4.221l-2.229-0.183l0.066,2.235 
            c0.049,1.659,0.444,10.087,3.428,13.071c2.538,2.538,8.683,3.239,13.235,3.394V61h28.143v-5.416 
            c1.289,0.219,2.631,0.375,3.855,0.375c1.09,0,2.002-0.117,2.786-0.357c4.865-1.491,10.589-10.246,11.226-11.239l1.207-1.882 
            L65.024,41.491z M22.939,31.63c0,0-0.269-0.017-0.733-0.057c-1.808-0.152-4.933-0.485-7.892-1.119 
            c-2.607-0.401-5.111-1.098-6.323-2.31c-0.085-0.084-0.16-0.194-0.239-0.292c-0.018-0.016-0.039-0.029-0.056-0.045 
            c-1.781-1.704-2.209-5.563-2.292-8.045c-0.211-1.893-0.256-3.334-0.256-3.334s9.972,0.819,13.375,3.735 
            c0.784,0.401,1.469,0.835,1.964,1.309c2.568,2.456,3.452,9.017,3.488,9.294l0.123,0.938L22.939,31.63z 
            M54.011,53.69 
            c-0.034,0.01-0.077,0.013-0.111,0.022c-0.003,0.001-0.006,0.002-0.009,0.003c-0.606,0.183-1.354,0.275-2.226,0.275 
            c-3.562,0-8.335-1.513-8.536-1.577L42.143,52.1l0.465-0.914c0.506-0.992,5.059-9.731,9.146-10.964 
            c0.438-0.133,0.951-0.199,1.524-0.199c0.306,0,0.628,0.025,0.958,0.06c3.999,0.291,9.902,3.203,9.902,3.203 
            S58.314,52.372,54.011,53.69z"/> </g> </svg>