<?xml version="1.0" standalone="no"?>
<!DOCTYPE svg PUBLIC "-//W3C//DTD SVG 1.1//EN"
    "http://www.w3.org/Graphics/SVG/1.1/DTD/svg11.dtd">
<?xml-stylesheet type="text/css" href="..\content_delivery.css" ?>
<!-- Generator: Adobe Illustrator 14.0.0, SVG Export Plug-In . SVG Version: 6.00 Build 43363)  -->
<svg contentScriptType="text/ecmascript" zoomAndPan="magnify" xmlns:xlink="http://www.w3.org/1999/xlink" baseProfile="full"
    contentStyleType="text/css" id="Layer_1" enable-background="new 0 0 70 70" version="1.1" width="70px" xml:space="preserve"
    preserveAspectRatio="xMidYMid meet" viewBox="0 0 70 70" height="70px" xmlns="http://www.w3.org/2000/svg" x="0px" y="0px">
    <path d="M34.362,6.261c-16.021,0-29.008,12.987-29.008,29.007S18.34,64.276,34.362,64.276 
        c16.019,0,29.007-12.987,29.007-29.007S50.381,6.261,34.362,6.261z 
        M34.23,58.057L16.619,40.73h10.36V12.885h14.515l-0.007,27.762 h10.357L34.23,58.057z"/>                    
    <polygon points="39.493,14.885 28.979,14.885 28.979,42.73 21.503,42.73 34.228,55.248 46.977,42.647 39.486,42.647"/>                                                          
    <path fill="#FFFFFF" d="M41.494,12.885H26.979V40.73h-10.36L34.23,58.057l17.614-17.41H41.487L41.494,12.885z 
        M46.977,42.647 L34.228,55.248L21.503,42.73h7.476V14.885h10.514l-0.007,27.762H46.977z"/> </svg>