<?xml version="1.0" standalone="no"?>
<!DOCTYPE svg PUBLIC "-//W3C//DTD SVG 1.1//EN"
    "http://www.w3.org/Graphics/SVG/1.1/DTD/svg11.dtd">
<?xml-stylesheet type="text/css" href="..\content_delivery.css" ?>
<!-- Generator: Adobe Illustrator 14.0.0, SVG Export Plug-In . SVG Version: 6.00 Build 43363)  -->
<svg contentScriptType="text/ecmascript" zoomAndPan="magnify" xmlns:xlink="http://www.w3.org/1999/xlink" baseProfile="full"
    contentStyleType="text/css" id="Layer_1" enable-background="new 0 0 70 70" version="1.1" width="70px" xml:space="preserve"
    preserveAspectRatio="xMidYMid meet" viewBox="0 0 70 70" height="70px" xmlns="http://www.w3.org/2000/svg" x="0px" y="0px">      
    <g>           
        <path d="M34.768,5.588C18.746,5.588,5.76,18.575,5.76,34.596s12.986,29.007,29.008,29.007 
            c16.02,0,29.007-12.987,29.007-29.007S50.787,5.588,34.768,5.588z M45.567,40.072h2.399v2h-2.399V40.072z 
            M39.774,12.31h3l-0.001,3 h-2v-1h-0.999V12.31z M40.771,29.171l0.001-3.96l2,0.001l-0.001,3.96L40.771,29.171z 
            M42.77,32.142v3.96l-2-0.001v-3.96 L42.77,32.142z M40.771,22.24l0.002-3.96l2,0l-0.002,3.96L40.771,22.24z 
            M32.765,12.31h4.006v2h-4.006V12.31z M26.76,12.31h3v2h-1 v1h-2V12.31z M26.76,18.291h2v3.974h-2V18.291z 
            M26.76,25.246h2v3.974h-2V25.246z M26.76,32.201h2v3.974h-2V32.201z M21.561,40.155 h2.4v2h-2.4V40.155z 
            M19.76,41.975v0.181h-0.178l-1.098,1.116l-3.167-3.116h4.442v1.565l0.127,0.125L19.76,41.975z M24.311,49.002 
            l-3.329-3.275l1.402-1.426l3.329,3.275L24.311,49.002z M25.76,40.155h1v-1h2v3h-3V40.155z 
            M30.137,54.734l-3.329-3.275l1.402-1.426 l3.329,3.275L30.137,54.734z 
            M34.762,59.285l-2.129-2.094l1.402-1.426l0.724,0.711l0.721-0.713l1.406,1.423L34.762,59.285z 
            M39.385,54.716l-1.406-1.423L41.311,50l1.406,1.423L39.385,54.716z M43.768,42.072h-3v-3h2v1h1V42.072z 
            M45.217,48.953 l-1.406-1.423l3.332-3.293l1.406,1.423L45.217,48.953z 
            M51.049,43.189l-1.104-1.117h-0.177v-0.179l-0.125-0.127l0.125-0.124v-1.571 h4.435L51.049,43.189z"/> </g> </svg>