<?xml version="1.0" standalone="no"?>
<!--Created with Sketsa SVG Editor (http://www.kiyut.com)-->
<svg contentScriptType="text/ecmascript" width="2000.0px" xmlns:xlink="http://www.w3.org/1999/xlink" baseProfile="full"
    zoomAndPan="magnify" contentStyleType="text/css" height="2000.0px" preserveAspectRatio="xMidYMid meet" xmlns="http://www.w3.org/2000/svg"
    version="1.0">
    <defs>
        <g id="tb6a">
            <rect fill="none" x="100" width="5.2" height="100" y="100" stroke="#000000"/>
            <line y2="166" fill="none" x1="100.0" x2="105.2" stroke="#000000" y1="166"/>
            <line y2="128.33333" fill="none" x1="100.0" x2="105.2" stroke="#000000" y1="128.33333"/>
            <line y2="142" fill="none" x1="100.0" x2="105.2" stroke="#000000" y1="142"/>
            <line y2="150" fill="none" x1="100.0" x2="105.2" stroke="#000000" y1="150"/>
            <ellipse rx="1" fill="#000000" ry="1" cx="102.6" cy="137" stroke="#000000"/>
            <ellipse rx="1" fill="#000000" ry="1" cx="102.6" cy="155" stroke="#000000"/>
            <line y2="116" fill="none" x1="100.0" x2="105.2" y1="116" stroke="#000000"/>
            <ellipse rx="1" fill="#000000" ry="1" cx="102.6" cy="124" stroke="#000000"/>
            <line y2="183.0" fill="none" x1="100.0" x2="105.2" y1="183.0" stroke="#000000"/>
            <ellipse rx="1" fill="#000000" ry="1" cx="102.6" cy="172.0" stroke="#000000"/>
        </g>
    </defs>
    <use x="0" y="0" xlink:href="#tb6a"
       />
    <use x="5.2" y="0" xlink:href="#tb6a"
       />
    <use x="10.4" y="0" xlink:href="#tb6a"
       />
    <use x="15.6" y="0" xlink:href="#tb6a"
       />
    <use x="20.8" y="0" xlink:href="#tb6a"
       />
    <use x="26" y="0" xlink:href="#tb6a"
       />
    <use x="31.2" y="0" xlink:href="#tb6a"
       />
    <use x="36.4" y="0" xlink:href="#tb6a"
       />
    <use x="41.6" y="0" xlink:href="#tb6a"
       />
    <use x="46.8" y="0" xlink:href="#tb6a"
       />
</svg>