<?xml version="1.0" standalone="no"?>
<!--Created with Sketsa SVG Editor (http://www.kiyut.com)-->
<?xml-stylesheet type="text/css" href="..\vessels.css" ?>
<svg contentScriptType="text/ecmascript" width="100.0px" xmlns:xlink="http://www.w3.org/1999/xlink" baseProfile="full"
    zoomAndPan="magnify" contentStyleType="text/css" height="100.0px" preserveAspectRatio="xMidYMid meet" xmlns="http://www.w3.org/2000/svg"
    version="1.0">
    <path d="M 57.0 5.0 L 57.0 95.0 A 5.0 2.5 0.0 0 1 43.0 95.0 L 43.0 5.0 A 5.0 2.5 0.0 0 1 57.0 5.0 z"/>
    <line y2="5" x1="43" x2="57" y1="5"/>
    <line y2="95" x1="43" x2="57" y1="95"/>
    <line y2="45" x1="43" x2="57" y1="45"/>
    <line y2="55" x1="43" x2="57" y1="55"/>
    <line y2="20" x1="43" x2="57" y1="20"/>
    <line y2="80" x1="43" x2="57" y1="80"/>
    <line y2="45" x1="57" x2="43" y1="20"/>
    <line y2="20" x1="57" x2="43" y1="45"/>
    <line y2="80" x1="57" x2="43" y1="55"/>
    <line y2="55" x1="57" x2="43" y1="80"/>
</svg>