<?xml version="1.0" standalone="no"?>
<!--Created with Sketsa SVG Editor (http://www.kiyut.com)-->
<?xml-stylesheet type="text/css" href="..\travel.css" ?>
<svg contentScriptType="text/ecmascript" width="100.0px" xmlns:xlink="http://www.w3.org/1999/xlink" baseProfile="full"
    zoomAndPan="magnify" contentStyleType="text/css" height="100.0px" preserveAspectRatio="xMidYMid meet" xmlns="http://www.w3.org/2000/svg"
    version="1.0">
    <path d="M 53.03 12.32 H 38.46 c -2.63 0.01 -2.54 3.85 0.0 3.83 h 14.57 v 1.96 H 38.46 c -2.62 -0.02 -2.52 3.83 0.0 
        3.84 h 14.57 v 1.91 v 0.1 H 38.46 c -2.62 0.0 -2.52 3.85 0.0 3.83 h 14.57 v 1.92 H 38.46 c -2.56 0.02 -2.52 3.86 
        0.0 3.88 h 14.57 v 1.92 H 38.46 c -2.56 -0.01 -2.57 3.84 0.0 3.83 h 14.57 v 1.92 H 38.46 c -2.56 0.01 -2.57 3.85 
        0.0 3.83 h 14.57 v 1.96 H 38.46 c -2.56 -0.02 -2.57 3.83 0.0 3.83 h 14.57 v 1.92 H 38.46 c -2.56 -0.0 -2.52 3.85 
        0.0 3.83 h 14.57 v 37.33 c 0.01 5.69 8.82 5.59 8.84 0.0 V 6.62 c -0.02 -2.6 -2.2 -5.88 -5.78 -5.89 H 38.46 c 
        -2.63 0.0 -2.54 3.85 0.0 3.83 L 53.03 4.6 v 1.92 H 38.46 c -2.63 -0.02 -2.53 3.83 0.0 3.83 h 14.57 V 12.32 L 
        53.03 12.32 z M 36.13 87.69 c -0.47 3.14 0.62 8.81 2.91 10.88 c 2.37 2.13 5.18 -0.6 4.03 -2.83 c -1.19 -2.2 
        -2.67 -3.4 -1.41 -8.67 L 36.13 87.69 L 36.13 87.69 z M 31.52 69.34 V 43.94 L 26.61 2.06 C 26.5 0.95 25.8 0.7 
        25.15 0.67 c -0.67 0.02 -1.36 0.28 -1.51 1.39 l -4.76 41.88 v 25.4 C 9.94 64.72 3.21 71.9 3.2 78.44 c 0.01 5.82 
        4.36 10.6 10.54 10.59 c 6.23 0.01 10.47 -5.35 10.49 -10.59 V 52.91 h 1.99 v 25.54 c -0.01 6.05 4.95 10.53 10.3 
        10.54 c 6.66 -0.01 10.92 -4.66 10.93 -10.5 C 47.43 71.86 40.5 64.72 31.52 69.34 z M 13.69 83.72 c -2.93 -0.01 
        -5.29 -2.35 -5.29 -5.23 c 0.0 -2.88 2.37 -5.21 5.29 -5.22 c 2.91 0.01 5.27 2.34 5.29 5.22 C 18.96 81.37 16.6 
        83.7 13.69 83.72 z M 36.95 83.72 c -2.92 -0.01 -5.28 -2.35 -5.3 -5.23 c 0.02 -2.88 2.38 -5.21 5.3 -5.22 c 2.92 
        0.01 5.28 2.34 5.29 5.22 C 42.24 81.37 39.87 83.7 36.95 83.72 z M 84.99 10.88 c 2.73 -0.0 4.95 -2.19 4.95 -4.89 
        c 0.0 -2.71 -2.22 -4.9 -4.95 -4.89 c -2.74 -0.01 -4.96 2.18 -4.95 4.89 C 80.02 8.69 82.24 10.88 84.99 10.88 L 
        84.99 10.88 z M 79.69 11.93 c -3.53 0.02 -6.35 2.85 -6.36 6.37 v 15.0 c 0.01 2.94 4.34 2.94 4.32 0.0 v -13.71 h 
        1.07 v 37.61 c -0.02 3.89 5.75 3.77 5.73 0.0 V 35.37 h 1.02 v 21.85 c -0.01 3.77 5.79 3.89 5.78 0.0 V 19.6 h 
        1.02 v 13.71 c -0.01 2.96 4.3 2.96 4.27 0.0 V 18.4 c 0.02 -3.26 -2.54 -6.44 -6.41 -6.42 L 79.69 11.93 L 79.69 
        11.93 z"/>
</svg>