<?xml version="1.0" standalone="no"?>
<!--Created with Sketsa SVG Editor (http://www.kiyut.com)-->
<?xml-stylesheet type="text/css" href="..\travel.css" ?>
<svg contentScriptType="text/ecmascript" width="100.0px" xmlns:xlink="http://www.w3.org/1999/xlink" baseProfile="full"
    zoomAndPan="magnify" contentStyleType="text/css" height="100.0px" preserveAspectRatio="xMidYMid meet" xmlns="http://www.w3.org/2000/svg"
    version="1.0">
    <path d="M 83.71 10.57 c 2.66 0.01 4.83 -2.14 4.85 -4.8 c -0.02 -2.64 -2.2 -4.8 -4.85 -4.8 c -2.71 0.01 -4.88 2.16 
        -4.91 4.8 C 78.82 8.43 81.0 10.58 83.71 10.57 L 83.71 10.57 z M 34.8 87.84 c -0.47 3.15 0.62 8.83 2.91 10.9 c 
        2.37 2.14 5.18 -0.6 4.03 -2.83 c -1.19 -2.21 -2.67 -3.41 -1.41 -8.7 L 34.8 87.84 L 34.8 87.84 z M 51.7 12.29 h 
        -14.57 c -2.63 0.01 -2.53 3.86 0.0 3.84 h 14.57 v 1.97 h -14.57 c -2.62 -0.02 -2.52 3.83 0.0 3.84 h 14.57 v 1.92 
        v 0.1 h -14.57 c -2.62 -9.88E-4 -2.52 3.85 0.0 3.84 h 14.57 v 1.92 h -14.57 c -2.56 0.02 -2.52 3.87 0.0 3.89 h 
        14.57 v 1.92 h -14.57 c -2.56 -0.01 -2.57 3.84 0.0 3.84 h 14.57 v 1.92 h -14.57 c -2.56 0.01 -2.57 3.86 0.0 3.84 
        h 14.57 v 1.97 h -14.57 c -2.56 -0.02 -2.57 3.83 0.0 3.84 h 14.57 v 1.92 h -14.57 c -2.56 -0.0 -2.52 3.85 0.0 
        3.84 h 14.57 v 37.41 c 0.01 5.7 8.82 5.6 8.84 0.0 V 6.58 c -0.02 -2.6 -2.2 -5.9 -5.78 -5.91 h -17.63 c -2.63 0.0 
        -2.54 3.86 0.0 3.84 l 14.57 0.05 v 1.92 h -14.57 c -2.63 -0.02 -2.53 3.84 0.0 3.84 h 14.57 V 12.29 L 51.7 12.29 
        z M 82.98 41.06 v 16.62 c -0.01 3.05 -4.59 3.05 -4.61 0.0 V 41.16 h -6.12 l 6.56 -22.57 h -1.02 l -3.84 12.77 c 
        -0.89 2.75 -4.75 1.61 -3.89 -1.34 l 4.27 -13.83 c 0.44 -1.59 2.46 -4.39 5.97 -4.37 h 3.2 l 0.0 0.0 h 3.45 c 3.47 
        -0.02 5.5 2.8 6.02 4.37 l 4.28 13.79 c 0.82 2.99 -3.0 4.22 -3.89 1.34 l -3.84 -12.73 h -1.12 l 6.65 22.57 h 
        -6.17 v 16.57 c -0.02 3.0 -4.58 2.98 -4.57 0.0 V 41.06 H 82.98 L 82.98 41.06 z M 30.19 69.44 V 43.99 L 25.28 
        2.02 C 25.17 0.91 24.47 0.65 23.82 0.62 c -0.66 0.02 -1.36 0.28 -1.5 1.39 l -4.76 41.97 v 25.45 C 8.61 64.81 
        1.88 72.01 1.88 78.57 c 0.01 5.83 4.35 10.62 10.54 10.61 c 6.23 0.01 10.47 -5.36 10.49 -10.61 V 52.97 h 1.99 V 
        78.57 c -0.01 6.07 4.95 10.55 10.3 10.57 c 6.66 -0.01 10.92 -4.67 10.93 -10.52 C 46.11 71.97 39.17 64.81 30.19 
        69.44 z M 12.36 83.86 c -2.93 -0.02 -5.29 -2.35 -5.29 -5.24 c 0.01 -2.88 2.37 -5.22 5.29 -5.24 c 2.9 0.01 5.27 
        2.35 5.29 5.24 C 17.63 81.5 15.27 83.84 12.36 83.86 z M 35.63 83.86 c -2.91 -0.02 -5.28 -2.35 -5.29 -5.24 c 0.02 
        -2.88 2.38 -5.22 5.29 -5.24 c 2.92 0.01 5.28 2.35 5.29 5.24 C 40.91 81.5 38.55 83.84 35.63 83.86 z"/>
</svg>