<?xml version="1.0" standalone="no"?>
<!--Created with Sketsa SVG Editor (http://www.kiyut.com)-->
<?xml-stylesheet type="text/css" href="..\travel.css" ?>
<svg contentScriptType="text/ecmascript" width="100.0px" xmlns:xlink="http://www.w3.org/1999/xlink" baseProfile="full"
    zoomAndPan="magnify" contentStyleType="text/css" height="100.0px" preserveAspectRatio="xMidYMid meet" xmlns="http://www.w3.org/2000/svg"
    version="1.0">
    <path d="M 75.26 90.69 V 58.25 h 17.91 c 0.0 15.98 0.0 29.07 0.0 32.44 C 90.92 90.69 83.3 90.69 75.26 90.69 z M 53.5 
        58.25 h 17.77 v 32.44 c -7.97 0.0 -15.52 0.0 -17.77 0.0 C 53.5 87.32 53.5 74.23 53.5 58.25 z M 71.27 32.25 v 
        21.96 H 53.5 c 0.0 -6.97 0.0 -20.38 0.0 -21.96 C 55.75 32.25 63.3 32.25 71.27 32.25 z M 93.18 54.21 H 75.26 V 
        32.25 c 8.03 0.0 15.66 0.0 17.91 0.0 C 93.18 33.83 93.18 47.24 93.18 54.21 z M 96.16 26.18 H 84.28 l 9.56 -3.9 c 
        1.04 -0.42 1.53 -1.6 1.11 -2.63 c -0.42 -1.03 -1.58 -1.54 -2.59 -1.12 c 0.0 0.0 -5.42 2.21 -10.76 4.39 c 4.34 
        -4.36 8.79 -8.83 8.79 -8.83 c 0.39 -0.39 0.59 -0.92 0.59 -1.43 c 0.0 -0.52 -0.2 -1.04 -0.58 -1.42 c -0.78 -0.8 
        -2.03 -0.8 -2.82 -0.01 l -12.38 12.45 l 0.06 -17.7 C 75.26 4.86 74.38 3.94 73.28 3.94 h -0.01 c -1.1 0.0 -1.99 
        0.9 -2.0 2.01 c 0.0 0.0 -0.04 11.7 -0.05 17.7 C 67.23 19.59 60.12 12.32 60.12 12.32 c -0.78 -0.79 -2.03 -0.8 
        -2.82 -0.01 c -0.78 0.79 -0.79 2.07 -0.01 2.86 l 7.73 7.89 l -11.11 -4.5 c -1.02 -0.41 -2.19 0.09 -2.59 1.13 c 
        -0.42 1.04 0.09 2.22 1.11 2.63 l 9.56 3.86 H 50.52 c -1.66 0.0 -3.01 1.36 -3.01 3.03 v 64.49 c 0.0 1.69 1.34 
        3.03 3.01 3.03 h 45.64 c 1.65 0.0 3.01 -1.35 3.01 -3.03 V 29.22 C 99.17 27.55 97.81 26.18 96.16 26.18 z M 5.49 
        87.39 c 0.0 0.0 0.01 -2.11 0.01 -2.4 c 2.93 0.0 19.66 0.0 27.45 0.0 c -0.42 0.9 -0.75 1.87 -0.93 2.86 c -0.23 
        1.35 -0.12 2.61 0.19 3.81 L 9.62 91.59 C 7.34 91.57 5.49 89.69 5.49 87.39 z M 36.08 33.05 c 0.0 4.33 -0.05 42.56 
        -0.05 46.89 c -3.05 0.0 -18.92 0.0 -26.12 0.0 l 17.79 -15.11 l -0.04 -31.8 C 29.28 33.03 34.57 33.04 36.08 33.05 
        z M 38.84 91.68 h -1.17 c -0.68 -0.79 -0.94 -1.76 -0.73 -2.96 c 0.35 -1.97 1.75 -3.63 2.42 -3.87 v -0.02 c 0.96 
        -0.35 1.65 -1.26 1.65 -2.35 l 0.06 -51.94 c 0.0 -1.39 -1.12 -2.52 -2.49 -2.53 c 0.0 0.0 -8.07 -0.02 -10.91 -0.03 
        c 0.0 -2.45 0.02 -5.81 0.02 -5.81 c 0.0 -1.02 -0.6 -1.94 -1.54 -2.33 c -0.92 -0.39 -2.0 -0.18 -2.72 0.54 L 6.09 
        37.82 c -3.03 3.06 -5.45 8.87 -5.46 13.23 L 0.5 87.37 c 0.0 5.1 4.07 9.25 9.09 9.27 l 29.24 0.1 c 1.37 0.0 2.49 
        -1.12 2.5 -2.52 l 0.0 0.0 C 41.33 92.81 40.22 91.69 38.84 91.68 z"/>
</svg>