<?xml version="1.0" standalone="no"?>
<!--Created with Sketsa SVG Editor (http://www.kiyut.com)-->
<?xml-stylesheet type="text/css" href="..\travel.css" ?>
<svg contentScriptType="text/ecmascript" width="100.0px" xmlns:xlink="http://www.w3.org/1999/xlink" baseProfile="full"
    zoomAndPan="magnify" contentStyleType="text/css" height="100.0px" preserveAspectRatio="xMidYMid meet" xmlns="http://www.w3.org/2000/svg"
    version="1.0">
    <path d="M 45.47 8.12 h 32.92 l 5.3 5.3 c 0.96 0.96 0.93 1.63 0.0 2.6 l -6.46 6.4 l -3.79 -3.75 l -3.79 3.75 l -3.74 
        -3.7 l -3.63 3.6 l -3.79 -3.75 l -4.95 4.9 h -8.08 V 8.12 L 45.47 8.12 z M 80.81 58.52 L 74.65 42.77 c -1.15 
        -3.01 -3.67 -5.58 -8.43 -5.6 h -8.68 H 42.69 h -8.84 c -4.74 0.02 -7.26 2.59 -8.43 5.6 L 19.27 58.52 C 16.82 
        58.83 12.49 61.67 12.5 67.06 v 20.05 h 6.01 v 6.4 c -0.01 7.89 11.26 7.8 11.26 0.0 v -6.4 h 20.3 h 20.25 v 6.4 c 
        0.03 7.8 11.3 7.89 11.31 0.0 v -6.4 h 6.01 V 67.06 C 87.61 61.67 83.28 58.83 80.81 58.52 z M 24.31 75.01 c -2.88 
        0.01 -5.21 -2.37 -5.2 -5.3 c -0.01 -2.95 2.32 -5.33 5.2 -5.3 c 2.87 -0.02 5.2 2.36 5.2 5.3 C 29.52 72.64 27.19 
        75.02 24.31 75.01 z M 50.06 58.37 h -0.05 H 25.68 l 4.65 -12.4 c 0.56 -1.76 1.43 -3.02 3.48 -3.05 h 16.21 h 0.05 
        H 66.32 c 2.02 0.03 2.9 1.29 3.48 3.05 l 4.65 12.4 H 50.06 z M 75.81 75.01 c -2.9 0.01 -5.23 -2.37 -5.25 -5.3 c 
        0.02 -2.95 2.35 -5.33 5.25 -5.3 c 2.85 -0.02 5.18 2.36 5.2 5.3 C 80.99 72.64 78.66 75.02 75.81 75.01 z M 33.96 
        0.37 C 25.43 0.36 18.53 7.26 18.51 15.77 c 0.02 8.53 6.92 15.43 15.45 15.45 c 8.51 -0.01 15.41 -6.92 15.4 -15.45 
        C 49.37 7.26 42.47 0.36 33.96 0.37 z M 27.19 19.82 c -2.28 -0.02 -4.11 -1.86 -4.09 -4.1 c -0.02 -2.28 1.81 -4.11 
        4.09 -4.1 c 2.24 -0.01 4.07 1.82 4.09 4.1 C 31.27 17.97 29.43 19.8 27.19 19.82 z"/>
</svg>