<?xml version="1.0" standalone="no"?>
<!--Created with Sketsa SVG Editor (http://www.kiyut.com)-->
<?xml-stylesheet type="text/css" href="..\travel.css" ?>
<svg contentScriptType="text/ecmascript" width="100.0px" xmlns:xlink="http://www.w3.org/1999/xlink" baseProfile="full"
    zoomAndPan="magnify" contentStyleType="text/css" height="100.0px" preserveAspectRatio="xMidYMid meet" xmlns="http://www.w3.org/2000/svg"
    version="1.0">
    <path d="M 49.85 99.5 H 49.85 c -13.22 -0.01 -25.65 -5.17 -34.99 -14.53 C 5.5 75.6 0.36 63.15 0.37 49.9 c -0.01 
        -13.22 5.13 -25.66 14.47 -35.02 C 24.18 5.53 36.6 0.37 49.82 0.37 h 0.06 c 13.22 0.0 25.65 5.16 34.99 14.51 C 
        94.22 24.24 99.37 36.68 99.38 49.91 c -0.01 13.25 -5.16 25.7 -14.51 35.06 C 75.51 94.33 63.08 99.49 49.85 99.5 L 
        49.85 99.5 z M 49.82 11.77 c -10.17 0.0 -19.73 3.97 -26.92 11.17 c -7.19 7.21 -11.15 16.78 -11.14 26.96 c -0.01 
        10.21 3.95 19.8 11.15 27.01 c 7.19 7.21 16.76 11.18 26.94 11.19 c 21.02 -0.01 38.13 -17.14 38.15 -38.2 c -0.01 
        -21.03 -17.11 -38.14 -38.12 -38.14 H 49.82 L 49.82 11.77 z M 54.15 44.63 V 33.52 c 3.16 0.23 5.63 3.37 5.92 6.58 
        h 10.5 c 0.01 -10.79 -9.78 -16.46 -16.53 -16.88 v -7.28 H 44.03 v 7.28 c -2.95 0.02 -16.23 3.78 -16.21 15.85 c 
        -0.02 10.74 9.56 13.67 16.21 14.61 v 12.13 c -4.85 -1.37 -5.73 -5.11 -6.41 -8.2 H 26.96 c 0.68 12.07 11.28 17.69 
        17.07 18.55 v 7.44 h 10.12 v -7.33 c 8.01 -0.43 17.49 -7.35 17.5 -16.82 C 71.64 48.56 62.2 45.47 54.15 44.63 z M 
        44.08 42.85 c -7.13 -0.11 -7.27 -7.93 0.0 -9.22 V 42.85 z M 54.26 65.87 V 55.41 C 63.1 55.65 64.08 64.47 54.26 
        65.87 z"/>
</svg>