<?xml version="1.0" standalone="no"?>
<!--Created with Sketsa SVG Editor (http://www.kiyut.com)-->
<?xml-stylesheet type="text/css" href="..\travel.css" ?>
<svg contentScriptType="text/ecmascript" width="100.0px" xmlns:xlink="http://www.w3.org/1999/xlink" baseProfile="full"
    zoomAndPan="magnify" contentStyleType="text/css" height="100.0px" preserveAspectRatio="xMidYMid meet" xmlns="http://www.w3.org/2000/svg"
    version="1.0">
    <path d="M 95.22 67.66 L 53.44 42.79 V 38.56 c 0.0 -4.8 -5.19 -6.89 -5.19 -6.89 c -3.36 -1.65 -3.06 -5.21 -3.06 
        -5.21 c 0.0 -4.18 3.71 -5.52 5.37 -5.52 c 2.78 0.0 5.51 1.56 5.8 5.11 c 0.45 5.58 6.72 4.16 6.72 -0.32 C 63.07 
        21.5 59.24 14.07 50.5 14.07 c -9.44 0.0 -12.15 9.31 -12.15 12.25 c 0.0 2.22 0.35 4.27 1.71 6.61 c 2.31 3.98 6.93 
        4.6 6.93 7.23 v 2.63 L 4.78 67.76 c -4.17 2.48 -4.92 7.75 -4.01 10.95 c 0.88 3.1 3.97 6.81 9.52 6.81 h 0.01 c 
        0.0 0.0 71.67 0.0 78.9 0.0 c 6.22 0.0 9.06 -3.6 9.94 -6.7 C 100.04 75.61 100.04 70.65 95.22 67.66 z M 89.3 78.53 
        H 10.42 c -2.57 0.1 -4.15 -3.53 -1.62 -5.13 l 41.15 -24.23 l 40.94 24.12 C 93.43 75.11 92.05 78.52 89.3 78.53 z"/>
</svg>