<?xml version="1.0" standalone="no"?>
<!--Created with Sketsa SVG Editor (http://www.kiyut.com)-->
<?xml-stylesheet type="text/css" href="..\travel.css" ?>
<svg contentScriptType="text/ecmascript" width="100.0px" xmlns:xlink="http://www.w3.org/1999/xlink" baseProfile="full"
    zoomAndPan="magnify" contentStyleType="text/css" height="100.0px" preserveAspectRatio="xMidYMid meet" xmlns="http://www.w3.org/2000/svg"
    version="1.0">
    <path d="M 51.81 30.14 l -0.0 3.26 C 54.86 32.96 54.56 30.21 51.81 30.14 z M 48.64 26.22 V 23.35 C 46.38 23.74 46.43 
        26.18 48.64 26.22 z M 50.22 15.79 c -7.0 0.0 -12.68 5.72 -12.68 12.77 c 0.0 7.05 5.68 12.77 12.68 12.77 c 7.0 
        0.0 12.68 -5.72 12.68 -12.77 C 62.89 21.5 57.22 15.79 50.22 15.79 z M 51.77 36.64 v 2.28 h -3.15 v -2.31 c -1.8 
        -0.27 -5.1 -2.02 -5.3 -5.78 h 3.31 c 0.21 0.96 0.49 2.13 1.99 2.56 l -0.0 -3.78 c -2.07 -0.3 -5.04 -1.21 -5.04 
        -4.56 c 0.0 -3.76 4.13 -4.93 5.05 -4.93 v -2.27 h 3.11 v 2.27 c 2.1 0.12 5.15 1.89 5.15 5.25 h -3.28 c -0.08 
        -1.0 -0.85 -1.98 -1.84 -2.05 v 3.47 c 2.5 0.26 5.44 1.22 5.44 4.61 C 57.22 34.34 54.27 36.5 51.77 36.64 z M 
        62.52 71.26 c -7.0 0.0 -12.68 5.72 -12.68 12.77 c 0.0 7.05 5.68 12.77 12.68 12.77 s 12.68 -5.72 12.68 -12.77 C 
        75.2 76.98 69.53 71.26 62.52 71.26 z M 68.21 86.0 v 3.12 h -3.95 v 4.38 h -3.36 v -4.38 h -4.22 v -3.06 h 4.27 l 
        -5.55 -9.85 h 3.68 l 3.42 6.07 l 3.71 -6.07 h 3.39 l -5.5 9.79 H 68.21 z M 22.55 56.79 c -7.0 0.0 -12.68 5.72 
        -12.68 12.77 S 15.55 82.34 22.55 82.34 s 12.68 -5.72 12.68 -12.77 S 29.55 56.79 22.55 56.79 z M 22.95 67.13 v 
        3.04 h -2.28 v 7.29 h -3.23 v -7.26 h -1.92 v -3.04 h 1.92 v -2.71 c 0.0 -1.05 1.01 -4.25 4.83 -4.25 c 3.9 0.0 
        4.73 3.09 4.73 5.67 H 23.83 c 0.0 -1.66 -0.22 -2.53 -1.53 -2.53 c -1.4 0.0 -1.63 0.97 -1.63 2.5 v 1.29 H 22.95 z 
        M 30.23 70.14 c -2.61 0.32 -3.2 1.72 -3.2 3.46 v 3.85 h -3.2 V 67.13 h 3.2 v 1.61 c 0.69 -0.81 1.49 -1.67 3.2 
        -1.67 V 70.14 z M 0.25 3.63 v 49.56 h 58.28 c 1.1 5.92 6.26 10.41 12.46 10.41 s 11.36 -4.48 12.46 -10.41 H 99.5 
        V 3.63 H 0.25 z M 69.69 48.76 h 2.88 v 2.75 h -2.35 c 0.29 2.52 -1.15 3.57 -1.23 4.42 h 7.84 v 2.75 H 65.1 v 
        -2.75 c 1.33 -0.9 2.03 -3.18 1.6 -4.4 h -2.45 v -2.81 h 1.97 c -0.53 -1.27 -0.53 -1.69 -0.53 -2.81 c 0.0 -1.11 
        0.91 -4.74 5.66 -4.71 c 4.37 0.02 5.64 3.65 5.64 6.25 l -3.33 0.0 c -0.22 -1.57 -0.84 -2.86 -2.28 -2.86 c -2.21 
        0.0 -2.22 1.4 -2.22 1.88 S 69.24 48.12 69.69 48.76 z M 90.15 43.77 h -8.6 c -2.27 -3.44 -6.15 -5.71 -10.56 -5.71 
        s -8.29 2.27 -10.56 5.71 H 9.6 V 13.05 h 80.54 V 43.77 z"/>
</svg>