<?xml version="1.0" standalone="no"?>
<!--Created with Sketsa SVG Editor (http://www.kiyut.com)-->
<?xml-stylesheet type="text/css" href="..\travel.css" ?>
<svg contentScriptType="text/ecmascript" width="100.0px" xmlns:xlink="http://www.w3.org/1999/xlink" baseProfile="full"
    zoomAndPan="magnify" contentStyleType="text/css" height="100.0px" preserveAspectRatio="xMidYMid meet" xmlns="http://www.w3.org/2000/svg"
    version="1.0">
    <path d="M 12.09 39.62 H 6.05 C 2.91 39.62 0.38 42.31 0.38 45.63 v 28.84 c 0.0 3.32 2.54 6.01 5.67 6.01 h 6.05 V 
        39.62 z M 12.09 80.47 v 6.11 c 0.0 3.16 2.66 5.73 5.95 5.73 h 28.55 c 3.28 0.0 5.95 -2.56 5.95 -5.73 v -6.11 H 
        12.09 z M 83.51 18.62 H 65.96 h -2.0 l -5.2 5.16 h 5.2 v 1.15 c 0.0 6.01 4.82 10.88 10.77 10.88 c 5.95 0.0 10.77 
        -4.87 10.77 -10.88 v -6.3 H 83.51 z M 85.51 15.19 L 63.49 15.19 L 58.77 8.13 L 85.51 8.13 z M 93.7 39.62 h -0.19 
        h -0.85 L 65.57 74.36 h 22.08 v 6.11 H 59.9 V 92.31 h 27.75 H 99.38 V 80.47 v -6.01 V 52.52 v -6.89 C 99.38 
        42.31 96.84 39.62 93.7 39.62 z M 84.37 39.62 H 58.77 h -2.62 v 0.01 c -1.17 -0.02 -2.36 0.5 -3.37 1.78 c -7.51 
        9.59 -15.03 19.19 -22.54 28.79 c -4.03 5.15 3.14 12.5 7.22 7.29 c 7.1 -9.07 14.21 -18.15 21.32 -27.22 v 22.19 L 
        84.37 39.62 z"/>
</svg>