<?xml version="1.0" standalone="no"?>
<!--Created with Sketsa SVG Editor (http://www.kiyut.com)-->
<?xml-stylesheet type="text/css" href="..\travel.css" ?>
<svg contentScriptType="text/ecmascript" width="100.0px" xmlns:xlink="http://www.w3.org/1999/xlink" baseProfile="full"
    zoomAndPan="magnify" contentStyleType="text/css" height="100.0px" preserveAspectRatio="xMidYMid meet" xmlns="http://www.w3.org/2000/svg"
    version="1.0">
    <polygon points="0.38,83.05 18.4,83.05 18.4,64.52 36.3,64.52 36.3,45.87 54.49,45.87 54.49,27.56 72.55,27.56 
        72.55,9.38 99.38,9.38 99.38,18.65 81.54,18.65 81.54,36.91 63.46,36.91 63.46,55.42 45.41,55.42 45.41,73.84 
        27.29,73.84 27.29,92.41 0.38,92.41 0.38,83.05"/>
    <path d="M 60.43 92.05 h 15.94 c 4.39 0.0 4.56 -6.82 0.0 -6.82 h -8.17 L 83.73 69.53 c 3.44 -3.48 -1.43 -8.51 -5.09 
        -4.82 L 63.34 80.22 v -8.17 c 0.02 -4.43 -6.79 -4.6 -6.8 0.0 v 16.0 C 56.54 90.44 58.13 92.05 60.43 92.05 L 
        60.43 92.05 z"/>
</svg>