<?xml version="1.0" standalone="no"?>
<!--Created with Sketsa SVG Editor (http://www.kiyut.com)-->
<?xml-stylesheet type="text/css" href="..\travel.css" ?>
<svg contentScriptType="text/ecmascript" width="100.0px" xmlns:xlink="http://www.w3.org/1999/xlink" baseProfile="full"
    zoomAndPan="magnify" contentStyleType="text/css" height="100.0px" preserveAspectRatio="xMidYMid meet" xmlns="http://www.w3.org/2000/svg"
    version="1.0">
    <path d="M 61.07 20.74 c 5.59 0.0 10.13 -4.49 10.16 -10.04 C 71.21 5.18 66.66 0.69 61.07 0.67 c -5.62 0.02 -10.16 
        4.51 -10.15 10.04 C 50.92 16.25 55.46 20.74 61.07 20.74 L 61.07 20.74 z M 37.78 12.69 c 5.75 -2.93 13.78 2.44 
        13.85 8.32 v 19.11 l 9.18 10.04 c 4.22 4.67 -2.46 11.1 -7.11 6.44 l -10.37 -11.33 c -0.67 -0.63 -1.15 -1.38 
        -1.14 -3.11 v -9.13 L 24.04 42.7 v 48.59 C 24.05 102.26 9.01 102.26 9.0 91.39 V 33.79 c 0.01 -3.21 1.3 -6.33 
        4.51 -8.16 L 37.78 12.69 L 37.78 12.69 z M 75.41 61.97 h 15.97 V 33.25 l -32.15 -0.05 c -4.11 -9.92E-4 -5.65 4.6 
        -3.09 7.52 L 75.41 61.97 L 75.41 61.97 z M 66.18 31.91 c 0.67 -0.01 1.23 -0.56 1.25 -1.23 c -0.02 -0.68 -0.57 
        -1.23 -1.25 -1.24 c -0.69 0.01 -1.25 0.56 -1.25 1.24 C 64.93 31.36 65.48 31.9 66.18 31.91 L 66.18 31.91 z M 
        69.49 32.13 c 0.68 -0.01 1.24 -0.56 1.25 -1.23 c -0.01 -0.68 -0.57 -1.23 -1.25 -1.24 c -0.69 0.01 -1.24 0.56 
        -1.25 1.24 C 68.25 31.57 68.81 32.12 69.49 32.13 L 69.49 32.13 z M 69.71 28.48 c 0.68 0.02 1.23 -0.53 1.25 -1.18 
        c -0.01 -0.7 -0.57 -1.25 -1.25 -1.24 c -0.69 -0.01 -1.24 0.53 -1.25 1.24 C 68.46 27.94 69.02 28.49 69.71 28.48 L 
        69.71 28.48 z M 66.4 28.26 c 0.68 0.01 1.24 -0.54 1.25 -1.23 c -0.01 -0.66 -0.57 -1.21 -1.25 -1.24 c -0.69 0.02 
        -1.24 0.57 -1.25 1.24 C 65.16 27.72 65.71 28.27 66.4 28.26 L 66.4 28.26 z M 67.48 24.93 c 0.71 -0.03 1.29 -0.6 
        1.3 -1.29 c -0.01 -0.73 -0.6 -1.31 -1.3 -1.29 c -0.73 -0.02 -1.31 0.55 -1.31 1.29 C 66.17 24.33 66.75 24.91 
        67.48 24.93 L 67.48 24.93 z M 71.5 25.58 c 0.72 -0.03 1.31 -0.6 1.3 -1.29 c 0.0 -0.73 -0.58 -1.31 -1.3 -1.29 c 
        -0.72 -0.03 -1.3 0.55 -1.3 1.29 C 70.2 24.97 70.79 25.55 71.5 25.58 L 71.5 25.58 z M 70.09 22.25 c 0.74 -0.01 
        1.35 -0.62 1.36 -1.34 c -0.01 -0.77 -0.62 -1.38 -1.36 -1.4 c -0.78 0.02 -1.39 0.63 -1.36 1.4 C 68.71 21.63 69.32 
        22.23 70.09 22.25 L 70.09 22.25 z M 74.76 24.4 c 0.74 -0.01 1.35 -0.62 1.36 -1.34 c -0.0 -0.77 -0.61 -1.38 -1.36 
        -1.39 c -0.77 0.02 -1.38 0.62 -1.36 1.39 C 73.38 23.77 73.99 24.38 74.76 24.4 L 74.76 24.4 z M 73.24 21.07 c 
        0.77 -0.02 1.39 -0.62 1.41 -1.34 c -0.03 -0.77 -0.64 -1.38 -1.41 -1.39 c -0.73 0.02 -1.35 0.62 -1.36 1.39 C 
        71.89 20.45 72.5 21.05 73.24 21.07 L 73.24 21.07 z M 76.93 21.07 c 0.85 -0.01 1.52 -0.68 1.52 -1.5 c 0.0 -0.82 
        -0.68 -1.49 -1.52 -1.5 c -0.82 0.02 -1.49 0.69 -1.52 1.5 C 75.44 20.39 76.11 21.06 76.93 21.07 L 76.93 21.07 z M 
        78.13 25.69 c 0.82 -0.01 1.49 -0.68 1.52 -1.5 c -0.02 -0.82 -0.7 -1.49 -1.52 -1.5 c -0.85 0.01 -1.52 0.68 -1.52 
        1.5 C 76.61 25.01 77.28 25.67 78.13 25.69 L 78.13 25.69 z M 80.4 22.84 c 0.89 -0.02 1.6 -0.72 1.58 -1.56 c 0.02 
        -0.89 -0.69 -1.59 -1.58 -1.61 c -0.86 0.02 -1.57 0.72 -1.57 1.61 C 78.84 22.12 79.55 22.82 80.4 22.84 L 80.4 
        22.84 z M 83.45 25.85 c 0.92 0.01 1.66 -0.73 1.68 -1.61 c -0.02 -0.93 -0.77 -1.67 -1.68 -1.66 c -0.92 -0.0 -1.66 
        0.73 -1.68 1.66 C 81.78 25.12 82.53 25.85 83.45 25.85 L 83.45 25.85 z M 80.57 28.74 c 0.93 0.01 1.67 -0.73 1.69 
        -1.61 c -0.02 -0.93 -0.76 -1.67 -1.69 -1.66 c -0.91 -0.01 -1.66 0.73 -1.63 1.66 C 78.91 28.02 79.66 28.75 80.57 
        28.74 L 80.57 28.74 z" transform="matrix(1.0 0.0 0.0 1.0 -0.0 -3.81E-6)"/>
</svg>