<?xml version="1.0" standalone="no"?>
<!--Created with Sketsa SVG Editor (http://www.kiyut.com)-->
<?xml-stylesheet type="text/css" href="..\travel.css" ?>
<svg contentScriptType="text/ecmascript" width="100.0px" xmlns:xlink="http://www.w3.org/1999/xlink" baseProfile="full"
    zoomAndPan="magnify" contentStyleType="text/css" height="100.0px" preserveAspectRatio="xMidYMid meet" xmlns="http://www.w3.org/2000/svg"
    version="1.0">
    <path d="M 35.68 63.35 v 4.38 c 0.0 2.4 -1.94 4.35 -4.36 4.35 c -2.4 0.0 -4.34 -1.95 -4.34 -4.35 v -4.38 h -4.43 V 
        49.17 l 0.0 0.0 c 0.0 -3.09 2.1 -5.69 4.95 -6.48 l 5.11 -12.06 c 0.72 -1.77 2.48 -3.03 4.54 -3.03 h 26.19 c 2.06 
        0.0 3.82 1.26 4.57 3.03 l 5.11 12.06 c 2.87 0.78 4.97 3.38 4.97 6.48 l 0.0 0.0 v 14.19 h -4.45 v 4.38 c 0.0 2.4 
        -1.94 4.35 -4.36 4.35 c -2.42 0.0 -4.36 -1.95 -4.36 -4.35 v -4.38 H 35.68 z M 31.23 54.43 c 2.01 0.0 3.64 -1.61 
        3.64 -3.63 c 0.0 -1.99 -1.63 -3.62 -3.64 -3.62 c -2.01 0.0 -3.66 1.63 -3.66 3.62 C 27.57 52.82 29.22 54.43 31.23 
        54.43 z M 72.66 50.8 c 0.0 -1.99 -1.63 -3.62 -3.66 -3.62 c -2.01 0.0 -3.66 1.63 -3.66 3.62 c 0.0 2.02 1.65 3.63 
        3.66 3.63 C 71.03 54.43 72.66 52.82 72.66 50.8 z M 68.61 42.44 l -4.36 -10.4 c -0.2 -0.54 -0.7 -0.92 -1.31 -0.92 
        H 37.56 c -0.59 0.0 -1.11 0.38 -1.29 0.92 l -4.39 10.4 H 68.61 z M 57.99 0.33 L 50.85 7.36 L 57.99 14.45 L 51.93 
        14.45 L 44.81 7.36 L 51.93 0.33 z M 42.53 85.39 L 49.65 92.42 L 42.53 99.51 L 48.56 99.51 L 55.71 92.42 L 48.56 
        85.39 z M 88.95 7.66 c 0.0 2.09 1.69 3.77 3.82 3.77 c 2.08 0.0 3.8 -1.67 3.8 -3.77 c 0.0 -2.07 -1.72 -3.74 -3.8 
        -3.74 C 90.65 3.92 88.95 5.59 88.95 7.66 z M 11.57 92.02 c 0.0 -2.1 -1.67 -3.77 -3.8 -3.77 C 5.7 88.26 4.0 89.92 
        4.0 92.02 c 0.0 2.07 1.7 3.74 3.77 3.74 C 9.9 95.76 11.57 94.09 11.57 92.02 z M 21.94 96.08 c 2.1 0.0 3.77 -1.66 
        3.77 -3.77 c 0.0 -2.07 -1.67 -3.74 -3.77 -3.74 c -2.08 0.0 -3.77 1.67 -3.77 3.74 C 18.17 94.42 19.86 96.08 21.94 
        96.08 z M 36.09 96.14 c 2.1 0.0 3.82 -1.68 3.82 -3.77 c 0.0 -2.07 -1.72 -3.74 -3.82 -3.74 c -2.08 0.0 -3.8 1.67 
        -3.8 3.74 C 32.29 94.46 34.01 96.14 36.09 96.14 z M 64.43 96.14 c 2.1 0.0 3.8 -1.68 3.8 -3.77 c 0.0 -2.07 -1.69 
        -3.74 -3.8 -3.74 s -3.8 1.67 -3.8 3.74 C 60.63 94.46 62.33 96.14 64.43 96.14 z M 78.58 96.14 c 2.08 0.0 3.82 
        -1.68 3.82 -3.77 c 0.0 -2.07 -1.74 -3.74 -3.82 -3.74 c -2.12 0.0 -3.77 1.67 -3.77 3.74 C 74.8 94.46 76.45 96.14 
        78.58 96.14 z M 92.75 96.1 c 2.15 0.0 3.82 -1.66 3.82 -3.76 c 0.0 -2.06 -1.67 -3.74 -3.82 -3.74 c -2.1 0.0 -3.8 
        1.68 -3.8 3.74 C 88.95 94.44 90.65 96.1 92.75 96.1 z M 11.57 77.9 c 0.0 -2.08 -1.67 -3.74 -3.8 -3.74 C 5.7 74.16 
        4.0 75.82 4.0 77.9 s 1.7 3.77 3.77 3.77 C 9.9 81.67 11.57 79.99 11.57 77.9 z M 11.57 63.78 c 0.0 -2.09 -1.67 
        -3.75 -3.77 -3.75 C 5.7 60.02 4.0 61.69 4.0 63.78 c 0.0 2.08 1.7 3.77 3.8 3.77 C 9.9 67.55 11.57 65.86 11.57 
        63.78 z M 11.57 49.65 c 0.0 -2.04 -1.67 -3.76 -3.77 -3.76 C 5.7 45.89 4.0 47.6 4.0 49.65 c 0.0 2.1 1.7 3.78 3.8 
        3.78 C 9.9 53.43 11.57 51.75 11.57 49.65 z M 11.57 35.52 c 0.0 -2.07 -1.67 -3.74 -3.77 -3.74 C 5.7 31.78 4.0 
        33.45 4.0 35.52 c 0.0 2.09 1.7 3.78 3.8 3.78 C 9.9 39.29 11.57 37.61 11.57 35.52 z M 11.57 21.42 c 0.0 -2.09 
        -1.67 -3.76 -3.77 -3.76 C 5.7 17.66 4.0 19.33 4.0 21.42 c 0.0 2.03 1.7 3.74 3.8 3.74 C 9.9 25.16 11.57 23.46 
        11.57 21.42 z M 11.57 7.3 c 0.0 -2.11 -1.67 -3.77 -3.77 -3.77 C 5.72 3.54 4.0 5.19 4.0 7.3 c 0.0 2.07 1.72 3.74 
        3.8 3.74 C 9.9 11.05 11.57 9.37 11.57 7.3 z M 78.58 3.54 c -2.1 0.0 -3.8 1.67 -3.8 3.77 c 0.0 2.07 1.69 3.74 3.8 
        3.74 c 2.08 0.0 3.82 -1.67 3.82 -3.74 C 82.4 5.21 80.66 3.54 78.58 3.54 z M 64.41 3.54 c -2.08 0.0 -3.77 1.67 
        -3.77 3.77 c 0.0 2.07 1.69 3.74 3.77 3.74 c 2.13 0.0 3.82 -1.67 3.82 -3.74 C 68.23 5.21 66.53 3.54 64.41 3.54 z 
        M 36.09 3.54 c -2.08 0.0 -3.8 1.67 -3.8 3.77 c 0.0 2.07 1.72 3.74 3.8 3.74 c 2.15 0.0 3.82 -1.67 3.82 -3.74 C 
        39.91 5.21 38.24 3.54 36.09 3.54 z M 21.97 3.54 c -2.1 0.0 -3.84 1.67 -3.84 3.77 c 0.0 2.07 1.74 3.74 3.84 3.74 
        c 2.12 0.0 3.77 -1.67 3.77 -3.74 C 25.74 5.21 24.09 3.54 21.97 3.54 z M 88.95 21.76 c 0.0 2.09 1.69 3.76 3.82 
        3.76 c 2.08 0.0 3.8 -1.67 3.8 -3.76 c 0.0 -2.07 -1.72 -3.74 -3.8 -3.74 C 90.65 18.02 88.95 19.69 88.95 21.76 z M 
        88.95 35.88 c 0.0 2.06 1.69 3.77 3.8 3.77 c 2.08 0.0 3.82 -1.71 3.82 -3.77 c 0.0 -2.09 -1.74 -3.77 -3.82 -3.77 C 
        90.65 32.11 88.95 33.79 88.95 35.88 z M 88.95 49.97 c 0.0 2.08 1.69 3.79 3.8 3.79 c 2.08 0.0 3.82 -1.71 3.82 
        -3.79 c 0.0 -2.03 -1.74 -3.75 -3.82 -3.75 C 90.65 46.22 88.95 47.94 88.95 49.97 z M 88.95 64.11 c 0.0 2.09 1.69 
        3.75 3.8 3.75 c 2.08 0.0 3.82 -1.66 3.82 -3.75 s -1.74 -3.77 -3.82 -3.77 C 90.65 60.35 88.95 62.02 88.95 64.11 z 
        M 88.95 78.22 c 0.0 2.07 1.69 3.79 3.8 3.79 c 2.08 0.0 3.82 -1.71 3.82 -3.79 c 0.0 -2.04 -1.74 -3.75 -3.82 -3.75 
        C 90.65 74.46 88.95 76.18 88.95 78.22 z"/>
</svg>