<?xml version="1.0" standalone="no"?>
<!--Created with Sketsa SVG Editor (http://www.kiyut.com)-->
<?xml-stylesheet type="text/css" href="..\travel.css" ?>
<svg contentScriptType="text/ecmascript" width="100.0px" xmlns:xlink="http://www.w3.org/1999/xlink" baseProfile="full"
    zoomAndPan="magnify" contentStyleType="text/css" height="100.0px" preserveAspectRatio="xMidYMid meet" xmlns="http://www.w3.org/2000/svg"
    version="1.0">
    <path d="M 67.52 73.43 h -3.79 v 14.39 c 0.03 2.55 3.79 2.55 3.79 0.0 V 73.43 L 67.52 73.43 z M 63.19 73.43 h -3.79 
        v 14.39 c 0.02 2.53 3.78 2.53 3.79 0.0 V 73.43 L 63.19 73.43 z M 53.98 73.43 h -3.79 v 14.39 c 0.02 2.55 3.79 
        2.55 3.79 0.0 V 73.43 L 53.98 73.43 z M 49.65 73.43 h -3.79 v 14.39 c 0.01 2.53 3.78 2.53 3.79 0.0 V 73.43 L 
        49.65 73.43 z M 40.44 73.43 h -3.79 v 14.39 c 0.02 2.55 3.79 2.55 3.79 0.0 V 73.43 L 40.44 73.43 z M 36.11 73.43 
        h -3.79 v 14.39 c 0.01 2.53 3.78 2.53 3.79 0.0 V 73.43 L 36.11 73.43 z M 72.35 39.01 H 27.55 c -4.74 0.02 -8.17 
        3.68 -8.17 8.07 v 44.2 c -0.01 4.49 3.69 7.99 8.17 7.98 h 44.85 c 4.46 0.02 8.1 -3.29 8.07 -7.98 V 47.08 C 80.48 
        42.63 76.9 39.02 72.35 39.01 z M 72.05 90.89 H 27.79 V 47.47 h 44.25 V 90.89 z M 60.97 4.83 c -0.04 -5.76 8.42 
        -5.83 8.47 0.0 l -0.15 17.55 l 4.58 -5.49 c 3.14 -3.43 8.66 1.32 5.27 5.15 L 68.11 35.02 c -1.77 1.74 -4.03 1.73 
        -5.76 0.0 L 51.37 21.99 c -3.43 -3.83 2.15 -8.63 5.22 -5.15 l 4.53 5.54 L 60.97 4.83 L 60.97 4.83 z M 30.25 
        32.01 c -0.04 5.77 8.43 5.84 8.47 0.0 l -0.1 -17.55 l 4.53 5.54 c 3.14 3.39 8.66 -1.36 5.27 -5.2 L 37.39 1.81 c 
        -1.77 -1.72 -4.03 -1.71 -5.76 0.0 L 20.65 14.84 c -3.42 3.85 2.15 8.65 5.22 5.2 l 4.53 -5.59 L 30.25 32.01 L 
        30.25 32.01 z M 69.93 72.36 c 0.01 0.86 -0.71 1.47 -1.48 1.46 c 0.0 0.0 -9.91 0.01 -9.94 0.0 c -0.75 0.01 -1.48 
        -0.61 -1.48 -1.46 V 61.71 c -0.01 -1.22 0.98 -2.05 2.07 -2.04 c -0.01 -0.01 8.76 0.0 8.76 0.0 c 1.19 -0.01 2.08 
        0.92 2.07 2.04 V 72.36 L 69.93 72.36 z M 63.53 58.8 c 1.55 0.0 2.82 -1.25 2.81 -2.77 c 0.01 -1.56 -1.25 -2.82 
        -2.81 -2.82 c -1.57 0.0 -2.84 1.26 -2.85 2.82 C 60.69 57.55 61.96 58.8 63.53 58.8 L 63.53 58.8 z M 56.39 72.36 c 
        0.01 0.86 -0.71 1.47 -1.48 1.46 c 0.0 0.0 -9.91 0.01 -9.94 0.0 c -0.75 0.01 -1.48 -0.61 -1.48 -1.46 V 61.71 c 
        -0.01 -1.22 0.98 -2.05 2.07 -2.04 c -0.01 -0.01 8.76 0.0 8.76 0.0 c 1.18 -0.01 2.08 0.92 2.07 2.04 V 72.36 L 
        56.39 72.36 z M 49.99 58.8 c 1.55 0.0 2.82 -1.25 2.81 -2.77 c 0.01 -1.56 -1.26 -2.82 -2.81 -2.82 c -1.57 0.0 
        -2.84 1.26 -2.86 2.82 C 47.16 57.55 48.42 58.8 49.99 58.8 L 49.99 58.8 z M 42.86 72.36 c 0.01 0.86 -0.7 1.47 
        -1.48 1.46 c 0.0 0.0 -9.91 0.01 -9.94 0.0 c -0.76 0.01 -1.48 -0.61 -1.48 -1.46 V 61.71 c -0.01 -1.22 0.98 -2.05 
        2.07 -2.04 c -0.01 -0.01 8.76 0.0 8.76 0.0 c 1.18 -0.01 2.08 0.92 2.07 2.04 V 72.36 L 42.86 72.36 z M 36.46 58.8 
        c 1.55 0.0 2.82 -1.25 2.81 -2.77 c 0.01 -1.56 -1.25 -2.82 -2.81 -2.82 c -1.57 0.0 -2.84 1.26 -2.85 2.82 C 33.62 
        57.55 34.88 58.8 36.46 58.8 L 36.46 58.8 z"/>
</svg>