<?xml version="1.0" standalone="no"?>
<!--Created with Sketsa SVG Editor (http://www.kiyut.com)-->
<?xml-stylesheet type="text/css" href="..\travel.css" ?>
<svg contentScriptType="text/ecmascript" width="100.0px" xmlns:xlink="http://www.w3.org/1999/xlink" baseProfile="full"
    zoomAndPan="magnify" contentStyleType="text/css" height="100.0px" preserveAspectRatio="xMidYMid meet" xmlns="http://www.w3.org/2000/svg"
    version="1.0">
    <circle cx="42.41" r="6.56" cy="17.74"/>
    <path d="M 42.41 17.74"/>
    <path d="M 59.6 89.19 h 13.71 c 3.78 0.0 3.92 -5.87 0.0 -5.87 h -7.03 l 13.37 -13.49 c 2.96 -2.99 -1.23 -7.32 -4.38 
        -4.14 l -13.17 13.33 v -7.02 c 0.02 -3.81 -5.84 -3.96 -5.85 0.0 V 85.75 C 56.26 87.8 57.63 89.19 59.6 89.19 z"/>
    <path d="M 87.94 18.3 H 72.67 c -3.16 0.0 -7.22 1.3 -9.64 3.75 L 48.91 36.29 v -4.17 c 0.0 -8.9 -13.0 -8.8 -13.0 0.0 
        v 17.03 h 0.02 L 23.66 61.54 c -1.16 1.17 -1.3 1.22 -3.57 1.22 c -0.0 0.0 -7.51 0.0 -7.51 0.0 C 5.03 62.76 0.5 
        69.62 0.5 75.42 s 4.53 13.15 12.75 13.15 c 0.0 0.0 10.22 0.0 13.37 0.0 c 3.16 0.0 6.98 -1.22 10.14 -4.22 l 39.15 
        -39.4 c 0.84 -0.75 1.3 -0.98 2.74 -0.98 c 0.0 0.0 5.4 0.0 9.67 0.0 c 4.65 0.0 11.24 -5.32 11.24 -13.0 C 99.56 
        23.38 92.92 18.32 87.94 18.3 z M 87.24 37.33 h -8.26 c -3.5 0.0 -5.05 0.49 -7.06 2.53 L 32.48 79.68 c -1.6 1.61 
        -3.62 2.25 -6.22 2.25 H 13.25 c -3.34 0.0 -6.29 -2.85 -6.29 -6.6 s 2.81 -5.85 5.71 -5.85 h 8.92 c 2.6 0.0 4.31 
        -0.75 5.8 -2.25 l 40.11 -40.5 c 1.65 -1.67 3.28 -1.87 6.09 -1.87 h 13.73 c 3.34 0.0 5.59 3.77 5.59 6.02 S 91.33 
        37.33 87.24 37.33 z"/>
</svg>