<?xml version="1.0" standalone="no"?>
<!--Created with Sketsa SVG Editor (http://www.kiyut.com)-->
<?xml-stylesheet type="text/css" href="..\travel.css" ?>
<svg contentScriptType="text/ecmascript" width="100.0px" xmlns:xlink="http://www.w3.org/1999/xlink" baseProfile="full"
    zoomAndPan="magnify" contentStyleType="text/css" height="100.0px" preserveAspectRatio="xMidYMid meet" xmlns="http://www.w3.org/2000/svg"
    version="1.0">
    <circle cx="42.3" r="6.57" cy="16.7"/>
    <path d="M 42.3 16.7"/>
    <path d="M 77.45 63.33 H 63.72 c -3.78 0.0 -3.92 5.87 0.0 5.87 h 7.03 L 57.38 82.69 c -2.96 2.99 1.23 7.32 4.38 4.14 
        l 13.18 -13.33 v 7.02 c -0.02 3.81 5.84 3.96 5.85 0.0 V 66.76 C 80.79 64.71 79.42 63.33 77.45 63.33 z"/>
    <path d="M 87.86 17.26 H 72.58 c -3.16 0.0 -7.22 1.3 -9.64 3.75 L 48.81 35.25 v -4.17 c 0.0 -8.9 -13.0 -8.8 -13.0 
        0.0 v 17.03 h 0.03 L 23.54 60.5 c -1.16 1.17 -1.3 1.22 -3.58 1.22 c -0.0 0.0 -7.51 0.0 -7.51 0.0 C 4.89 61.72 
        0.36 68.57 0.36 74.38 s 4.53 13.15 12.76 13.15 c 0.0 0.0 10.22 0.0 13.38 0.0 s 6.99 -1.22 10.14 -4.22 l 39.18 
        -39.4 c 0.84 -0.75 1.3 -0.98 2.74 -0.98 c 0.0 0.0 5.4 0.0 9.67 0.0 c 4.66 0.0 11.25 -5.32 11.25 -13.0 C 99.49 
        22.34 92.85 17.28 87.86 17.26 z M 87.16 36.28 h -8.26 c -3.5 0.0 -5.05 0.49 -7.06 2.53 L 32.36 78.63 c -1.6 1.61 
        -3.62 2.25 -6.22 2.25 H 13.12 c -3.34 0.0 -6.29 -2.85 -6.29 -6.6 c 0.0 -3.75 2.81 -5.85 5.72 -5.85 h 8.93 c 2.6 
        0.0 4.31 -0.75 5.8 -2.25 l 40.14 -40.5 c 1.65 -1.67 3.28 -1.88 6.09 -1.88 H 87.25 c 3.34 0.0 5.59 3.77 5.59 6.02 
        C 92.85 32.09 91.25 36.28 87.16 36.28 z"/>
</svg>