<?xml version="1.0" standalone="no"?>
<!--Created with Sketsa SVG Editor (http://www.kiyut.com)-->
<?xml-stylesheet type="text/css" href="..\travel.css" ?>
<svg contentScriptType="text/ecmascript" width="100.0px" xmlns:xlink="http://www.w3.org/1999/xlink" baseProfile="full"
    zoomAndPan="magnify" contentStyleType="text/css" height="100.0px" preserveAspectRatio="xMidYMid meet" xmlns="http://www.w3.org/2000/svg"
    version="1.0">
    <path d="M 42.42 23.9 c 3.62 -0.01 6.55 -2.98 6.53 -6.62 C 48.97 13.61 46.04 10.64 42.42 10.63 c -3.61 0.02 -6.54 
        2.98 -6.53 6.66 C 35.88 20.93 38.81 23.89 42.42 23.9 L 42.42 23.9 z M 87.79 17.85 H 72.59 c -3.14 -0.02 -7.19 
        1.28 -9.59 3.71 L 48.91 35.82 v -4.18 c -0.01 -8.9 -12.96 -8.8 -12.98 0.0 v 17.03 h 0.05 L 23.75 61.07 c -1.17 
        1.17 -1.31 1.22 -3.57 1.22 c -0.01 0.0 -7.51 0.0 -7.51 0.0 c -7.51 0.0 -12.03 6.85 -12.05 12.67 c 0.02 5.8 4.53 
        13.15 12.74 13.14 c 0.0 0.0 10.17 0.01 13.3 0.0 c 3.17 0.01 6.98 -1.21 10.15 -4.22 L 75.83 44.51 c 0.82 -0.77 
        1.28 -1.0 2.73 -0.99 c 0.0 0.0 5.36 -0.02 9.64 0.0 c 4.62 -0.02 11.19 -5.34 11.17 -13.0 C 99.39 22.91 92.78 
        17.85 87.79 17.85 z M 87.14 36.86 H 78.89 c -3.49 -0.0 -5.04 0.49 -7.05 2.53 L 32.51 79.19 c -1.57 1.63 -3.59 
        2.27 -6.16 2.25 h -12.98 c -3.34 0.02 -6.28 -2.83 -6.26 -6.57 c -0.02 -3.76 2.78 -5.86 5.65 -5.87 h 8.9 c 2.61 
        0.01 4.32 -0.74 5.79 -2.25 l 39.99 -40.5 c 1.65 -1.65 3.27 -1.86 6.07 -1.88 h 13.67 c 3.35 0.01 5.59 3.78 5.61 
        6.05 C 92.78 32.66 91.19 36.85 87.14 36.86 z"/>
</svg>