<?xml version="1.0" standalone="no"?>
<!--Created with Sketsa SVG Editor (http://www.kiyut.com)-->
<?xml-stylesheet type="text/css" href="..\travel.css" ?>
<svg contentScriptType="text/ecmascript" width="100.0px" xmlns:xlink="http://www.w3.org/1999/xlink" baseProfile="full"
    zoomAndPan="magnify" contentStyleType="text/css" height="100.0px" preserveAspectRatio="xMidYMid meet" xmlns="http://www.w3.org/2000/svg"
    version="1.0">
    <path d="M 7.17 63.6 l 2.71 -9.07 h 12.67 c -0.09 -1.75 -0.13 -3.54 -0.13 -5.37 c 0.0 -1.57 0.04 -3.15 0.13 -4.73 H 
        7.17 l 2.71 -9.07 h 13.7 c 1.47 -7.79 4.2 -14.54 8.21 -20.25 C 38.52 5.48 47.8 0.67 59.66 0.67 c 10.08 0.0 17.92 
        3.13 23.5 9.39 c 5.58 6.26 8.67 13.38 9.28 21.34 H 81.89 c -1.16 -6.05 -3.53 -10.84 -7.11 -14.37 c -3.58 -3.54 
        -8.57 -5.3 -15.0 -5.3 c -7.89 -9.54E-7 -14.24 3.26 -19.07 9.78 c -2.67 3.58 -4.59 8.2 -5.75 13.86 h 36.07 l 
        -2.72 9.07 H 33.67 c -0.13 2.17 -0.19 4.47 -0.19 6.9 c 0.0 1.11 0.02 2.17 0.07 3.19 h 37.49 l -2.72 9.07 H 34.51 
        c 1.04 5.58 2.87 10.41 5.5 14.5 c 4.35 6.82 10.86 10.22 19.52 10.22 c 7.97 0.0 14.05 -3.6 18.23 -10.8 c 2.2 
        -3.79 3.84 -8.78 4.91 -14.95 H 93.21 c -0.95 9.88 -4.07 18.17 -9.37 24.85 C 77.5 95.48 68.96 99.5 58.23 99.5 c 
        -9.27 0.0 -17.04 -3.3 -23.34 -9.9 c -5.95 -6.22 -9.76 -14.89 -11.44 -26.0 H 7.17 z"/>
</svg>