<?xml version="1.0" standalone="no"?>
<!--Created with Sketsa SVG Editor (http://www.kiyut.com)-->
<?xml-stylesheet type="text/css" href="..\travel.css" ?>
<svg contentScriptType="text/ecmascript" width="100.0px" xmlns:xlink="http://www.w3.org/1999/xlink" baseProfile="full"
    zoomAndPan="magnify" contentStyleType="text/css" height="100.0px" preserveAspectRatio="xMidYMid meet" xmlns="http://www.w3.org/2000/svg"
    version="1.0">
    <path d="M 70.45 12.32 H 55.83 c -2.62 -0.02 -2.52 3.83 0.0 3.84 h 14.62 v 1.92 H 55.88 c -2.65 -0.01 -2.56 3.84 0.0 
        3.83 h 14.58 v 1.92 v 0.09 H 55.88 c -2.65 0.02 -2.56 3.87 0.0 3.89 h 14.58 v 1.91 H 55.88 c -2.6 -0.01 -2.56 
        3.84 0.0 3.84 h 14.58 v 1.92 H 55.88 c -2.6 0.01 -2.6 3.85 0.0 3.84 h 14.58 v 1.97 H 55.88 c -2.6 -0.02 -2.6 
        3.83 0.0 3.84 h 14.58 v 1.92 H 55.88 c -2.6 -9.88E-4 -2.6 3.84 0.0 3.84 h 14.58 v 1.92 H 55.88 c -2.6 0.02 -2.56 
        3.87 0.0 3.88 h 14.58 v 37.3 c -0.02 5.71 8.79 5.61 8.79 0.0 V 6.56 c -0.0 -2.58 -2.18 -5.87 -5.78 -5.85 L 55.83 
        0.67 c -2.62 0.02 -2.52 3.87 0.0 3.88 h 14.62 v 1.92 H 55.83 c -2.61 0.0 -2.52 3.85 0.0 3.84 h 14.62 V 12.32 L 
        70.45 12.32 z M 53.54 87.69 c -0.5 3.16 0.59 8.83 2.87 10.88 c 2.39 2.15 5.2 -0.59 4.03 -2.83 c -1.17 -2.19 
        -2.65 -3.39 -1.41 -8.63 L 53.54 87.69 L 53.54 87.69 z M 48.88 69.32 v -25.41 L 44.02 2.06 C 43.88 0.92 43.18 
        0.66 42.52 0.67 c -0.65 -0.01 -1.35 0.25 -1.46 1.39 l -4.76 41.85 v 25.41 C 27.32 64.71 20.58 71.91 20.56 78.43 
        c 0.02 5.84 4.37 10.62 10.59 10.64 c 6.2 -0.02 10.45 -5.38 10.44 -10.64 V 52.88 h 1.99 v 25.55 C 43.59 84.51 
        48.56 88.98 53.89 88.98 c 6.68 0.0 10.94 -4.64 10.93 -10.5 C 64.82 71.86 57.88 64.71 48.88 69.32 z M 31.05 83.71 
        c -2.91 0.0 -5.27 -2.33 -5.3 -5.22 c 0.02 -2.86 2.39 -5.2 5.3 -5.18 c 2.92 -0.02 5.29 2.32 5.3 5.18 C 36.34 
        81.38 33.97 83.71 31.05 83.71 z M 54.32 83.71 c -2.9 0.0 -5.26 -2.33 -5.25 -5.22 c -0.01 -2.86 2.35 -5.2 5.25 
        -5.18 c 2.94 -0.02 5.3 2.32 5.3 5.18 C 59.62 81.38 57.26 83.71 54.32 83.71 z"/>
</svg>