<?xml version="1.0" standalone="no"?>
<!--Created with Sketsa SVG Editor (http://www.kiyut.com)-->
<?xml-stylesheet type="text/css" href="..\travel.css" ?>
<svg contentScriptType="text/ecmascript" width="100.0px" xmlns:xlink="http://www.w3.org/1999/xlink" baseProfile="full"
    zoomAndPan="magnify" contentStyleType="text/css" height="100.0px" preserveAspectRatio="xMidYMid meet" xmlns="http://www.w3.org/2000/svg"
    version="1.0">
    <path d="M 22.9 62.95 c 4.86 -0.01 8.81 -3.93 8.83 -8.75 c -0.02 -4.83 -3.97 -8.75 -8.83 -8.75 c -4.89 0.01 -8.83 
        3.92 -8.83 8.75 C 14.07 59.03 18.02 62.94 22.9 62.95 L 22.9 62.95 z M 32.33 56.24 v 7.57 H 18.78 c -6.55 0.05 
        -6.56 8.38 0.0 8.37 h 17.77 c 2.6 0.01 4.22 -2.06 4.22 -4.4 V 56.24 C 40.78 49.93 32.34 49.93 32.33 56.24 L 
        32.33 56.24 z M 41.92 51.73 H 77.18 c 5.19 -0.01 8.24 3.29 8.23 7.73 v 12.62 H 41.92 V 51.73 L 41.92 51.73 z M 
        12.39 44.42 c -0.01 -6.89 -9.65 -6.89 -9.64 0.0 V 99.63 h 9.86 V 85.4 h 74.97 v 14.12 h 9.59 V 56.88 c 0.03 
        -7.26 -9.72 -7.26 -9.7 0.0 v 17.02 H 12.39 V 44.42 L 12.39 44.42 z M 49.77 0.5 c -12.06 0.01 -21.85 9.82 -21.83 
        21.91 c -0.02 12.1 9.77 21.9 21.83 21.91 c 12.1 -0.01 21.89 -9.81 21.89 -21.91 C 71.66 10.32 61.87 0.51 49.77 
        0.5 z M 49.77 39.27 c -9.28 -0.01 -16.81 -7.55 -16.79 -16.86 C 32.96 13.11 40.49 5.56 49.77 5.55 c 9.31 0.02 
        16.85 7.56 16.85 16.87 C 66.62 31.72 59.08 39.26 49.77 39.27 z M 47.49 30.14 h 4.93 v -3.81 c 0.03 -1.02 0.51 
        -2.0 1.79 -2.84 c 1.32 -0.84 4.93 -2.55 4.93 -7.03 c 0.0 -4.5 -3.79 -7.59 -6.99 -8.27 c -3.19 -0.63 -6.65 -0.2 
        -9.1 2.47 c -2.21 2.39 -2.67 4.28 -2.65 8.43 h 4.93 v -0.97 c -0.02 -2.21 0.24 -4.56 3.47 -5.21 c 1.72 -0.34 
        3.36 0.2 4.33 1.13 c 1.11 1.1 1.12 3.52 -0.65 4.73 l -2.76 1.88 c -1.64 1.03 -2.19 2.17 -2.22 3.86 V 30.14 L 
        47.49 30.14 z M 47.49 37.07 L 47.49 32.08 L 52.48 32.08 L 52.48 37.07 L 47.49 37.07 z"/>
</svg>