<?xml version="1.0" standalone="no"?>
<!--Created with Sketsa SVG Editor (http://www.kiyut.com)-->
<?xml-stylesheet type="text/css" href="..\travel.css" ?>
<svg contentScriptType="text/ecmascript" width="100.0px" xmlns:xlink="http://www.w3.org/1999/xlink" baseProfile="full"
    zoomAndPan="magnify" contentStyleType="text/css" height="100.0px" preserveAspectRatio="xMidYMid meet" xmlns="http://www.w3.org/2000/svg"
    version="1.0">
    <path d="M 77.72 12.74 H 56.67 h -2.4 l -6.23 6.07 h 6.23 v 1.35 c 0.0 7.08 5.79 12.81 12.93 12.81 s 12.93 -5.74 
        12.93 -12.81 v -7.42 H 77.72 z M 80.12 8.69 L 53.7 8.69 L 48.03 0.38 L 80.12 0.38 z M 89.95 37.46 h -0.23 h 
        -1.02 L 56.2 78.37 h 26.5 v 7.19 H 49.39 V 99.5 h 33.3 h 14.06 V 85.57 v -7.07 V 52.65 v -8.11 C 96.76 40.63 
        93.71 37.46 89.95 37.46 z M 2.88 4.57 v 9.1 v 7.83 v 9.1 l 1.02 0.77 c 4.74 3.58 9.48 7.16 14.23 10.74 c 0.23 
        0.19 0.45 0.37 0.7 0.53 c 0.04 0.03 0.09 0.07 0.13 0.1 v -9.1 v -2.27 h 5.61 V 4.57 H 2.88 z M 23.2 30.03 h 
        -4.25 v -4.21 v -9.1 c -4.77 -3.6 -9.53 -7.19 -14.3 -10.79 h 18.54 V 30.03 z M 78.56 37.32 H 47.84 h -2.81 l 
        -9.99E-4 0.02 c -1.55 0.0 -3.06 0.53 -4.04 1.76 c -3.84 4.82 -7.69 9.64 -11.53 14.46 c -5.67 -4.28 -11.35 -8.56 
        -17.02 -12.85 c -2.66 -2.01 -6.85 -0.42 -8.38 2.18 c -1.84 3.12 -0.45 6.3 2.2 8.3 c 6.77 5.11 13.54 10.22 20.31 
        15.33 c 0.2 0.16 0.4 0.33 0.63 0.47 c 0.08 0.06 0.16 0.12 0.24 0.19 c 1.18 0.89 2.67 1.07 4.09 0.77 c 1.29 -0.15 
        2.5 -0.68 3.33 -1.72 c 0.05 -0.07 0.11 -0.14 0.16 -0.21 c 0.26 -0.27 0.49 -0.56 0.68 -0.86 c 4.05 -5.07 8.09 
        -10.15 12.14 -15.22 v 26.04 L 78.56 37.32 z"/>
</svg>