<?xml version="1.0" standalone="no"?>
<!--Created with Sketsa SVG Editor (http://www.kiyut.com)-->
<?xml-stylesheet type="text/css" href="..\travel.css" ?>
<svg contentScriptType="text/ecmascript" width="100.0px" xmlns:xlink="http://www.w3.org/1999/xlink" baseProfile="full"
    zoomAndPan="magnify" contentStyleType="text/css" height="100.0px" preserveAspectRatio="xMidYMid meet" xmlns="http://www.w3.org/2000/svg"
    version="1.0">
    <path d="M 49.96 0.67 C 22.66 0.65 0.52 22.74 0.5 49.97 C 0.52 77.25 22.66 99.34 49.96 99.33 c 27.31 0.01 49.44 
        -22.08 49.46 -49.36 C 99.4 22.74 77.26 0.65 49.96 0.67 z M 49.96 87.97 c -21.0 0.0 -38.03 -17.0 -38.01 -37.99 C 
        11.92 29.02 28.95 12.02 49.96 12.03 c 21.01 -0.01 38.04 16.99 38.07 37.94 C 88.0 70.97 70.97 87.97 49.96 87.97 z 
        M 44.85 67.66 L 56.16 67.61 V 58.95 c -0.03 -2.35 1.08 -4.57 4.04 -6.49 c 2.97 -1.93 11.24 -5.83 11.26 -16.12 c 
        -0.01 -10.25 -8.7 -17.3 -16.01 -18.82 c -7.3 -1.47 -15.21 -0.49 -20.82 5.63 c -5.04 5.43 -6.1 9.74 -6.12 19.25 h 
        11.31 v -2.22 c -0.02 -5.06 0.57 -10.41 7.87 -11.9 c 4.01 -0.78 7.76 0.46 10.0 2.6 c 2.52 2.47 2.54 8.02 -1.53 
        10.76 l -6.34 4.27 c -3.69 2.37 -4.96 4.98 -4.97 8.81 V 67.66 L 44.85 67.66 z M 44.8 83.51 L 44.8 72.04 L 56.22 
        72.04 L 56.22 83.51 L 44.8 83.51 z"/>
</svg>