<?xml version="1.0" standalone="no"?>
<!--Created with Sketsa SVG Editor (http://www.kiyut.com)-->
<?xml-stylesheet type="text/css" href="..\travel.css" ?>
<svg contentScriptType="text/ecmascript" width="100.0px" xmlns:xlink="http://www.w3.org/1999/xlink" baseProfile="full"
    zoomAndPan="magnify" contentStyleType="text/css" height="100.0px" preserveAspectRatio="xMidYMid meet" xmlns="http://www.w3.org/2000/svg"
    version="1.0">
    <path d="M 68.19 0.63 c 6.03 0.0 10.96 3.69 10.96 8.24 c 0.0 4.54 -4.92 8.23 -10.96 8.23 c -6.04 0.0 -10.95 -3.69 
        -10.95 -8.23 C 57.24 4.31 62.15 0.63 68.19 0.63 z M 27.92 73.76 l 11.56 -21.32 H 27.38 c 11.75 -9.36 17.97 
        -16.81 24.37 -27.39 h 16.38 l -24.19 49.4 c -3.25 6.67 6.04 10.91 16.56 6.67 l -4.29 14.47 C 50.35 99.5 47.63 
        99.5 44.12 99.5 C 34.84 99.5 19.24 89.8 27.92 73.76" clip-rule="evenodd" fill-rule="evenodd"/>
</svg>