<?xml version="1.0" standalone="no"?>
<!--Created with Sketsa SVG Editor (http://www.kiyut.com)-->
<?xml-stylesheet type="text/css" href="..\travel.css" ?>
<svg contentScriptType="text/ecmascript" width="100.0px" xmlns:xlink="http://www.w3.org/1999/xlink" baseProfile="full"
    zoomAndPan="magnify" contentStyleType="text/css" height="100.0px" preserveAspectRatio="xMidYMid meet" xmlns="http://www.w3.org/2000/svg"
    version="1.0">
    <path d="M 10.13 32.0 V 99.38 h 78.82 V 32.0 H 10.13 z M 79.36 89.46 H 19.34 V 41.03 h 60.03 V 89.46 z M 33.91 83.69 
        h -3.5 c -2.41 0.0 -4.76 -1.77 -4.76 -4.84 c 0.0 0.0 0.0 -21.9 0.0 -21.96 c 0.0 -2.74 2.29 -4.81 4.76 -4.81 h 
        3.5 V 83.69 z M 64.76 83.69 h 3.5 c 2.41 0.0 4.76 -1.77 4.76 -4.84 c 0.0 0.0 0.0 -21.9 0.0 -21.96 c 0.0 -2.74 
        -2.29 -4.81 -4.76 -4.81 h -3.5 V 83.69 z M 55.99 52.14 v -4.44 c 0.0 -1.65 -1.47 -2.7 -3.24 -2.7 c 0.0 0.0 -6.83 
        0.0 -6.8 0.0 c -1.77 0.0 -3.26 1.05 -3.26 2.7 v 4.44 h -6.38 v 31.61 h 26.11 V 52.14 H 55.99 z M 53.56 52.14 h 
        -8.54 v -4.58 h 8.54 V 52.14 z M 78.53 11.87 l -4.63 -4.64 H 46.35 C 43.98 3.13 39.53 0.37 34.42 0.37 c -7.59 
        0.0 -13.74 6.09 -13.74 13.6 c 0.0 7.51 6.15 13.6 13.74 13.6 c 5.17 0.0 9.66 -2.82 12.01 -7.0 h 5.39 l 4.27 -4.29 
        l 3.29 3.3 l 3.29 -3.3 l 3.29 3.3 l 3.34 -3.35 l 3.43 3.43 l 0.08 -0.03 l 5.75 -5.77 C 79.21 13.22 79.25 12.6 
        78.53 11.87 z M 28.42 17.42 c -2.04 0.0 -3.69 -1.64 -3.69 -3.65 c 0.0 -2.02 1.65 -3.65 3.69 -3.65 c 2.04 0.0 
        3.69 1.64 3.69 3.65 C 32.1 15.78 30.45 17.42 28.42 17.42 z"/>
</svg>