<?xml version="1.0" standalone="no"?>
<!--Created with Sketsa SVG Editor (http://www.kiyut.com)-->
<?xml-stylesheet type="text/css" href="..\travel.css" ?>
<svg contentScriptType="text/ecmascript" width="100.0px" xmlns:xlink="http://www.w3.org/1999/xlink" baseProfile="full"
    zoomAndPan="magnify" contentStyleType="text/css" height="100.0px" preserveAspectRatio="xMidYMid meet" xmlns="http://www.w3.org/2000/svg"
    version="1.0">
    <path d="M 35.1 16.32 h 5.95 c 0.02 -2.38 -0.55 -7.63 5.71 -7.63 c 4.74 0.01 4.5 4.06 4.5 4.06 s 0.19 2.76 -3.82 
        4.75 c -3.63 1.83 -3.97 4.36 -3.97 5.48 v 7.04 h 6.0 v -4.55 c 0.02 -1.71 1.22 -2.64 3.91 -4.6 c 2.65 -1.94 4.42 
        -3.8 4.4 -8.02 C 57.8 8.67 53.69 2.32 46.17 2.33 c 0.0 0.0 -5.15 -0.06 -8.12 3.72 C 35.1 9.8 34.95 11.99 35.1 
        16.32 L 35.1 16.32 z M 49.41 32.22 L 43.46 32.22 L 43.46 38.58 L 49.41 38.58 L 49.41 32.22 z M 88.14 71.69 c 
        8.74 -0.01 11.35 -7.27 11.36 -11.45 c -0.01 -5.2 -4.43 -10.71 -10.44 -10.71 H 75.13 V 37.36 L 12.86 50.71 v 3.47 
        l 62.27 12.57 V 55.16 c 0.0 0.0 13.37 -0.02 13.44 0.0 c 3.12 -0.02 5.4 3.27 5.42 5.28 c -0.01 2.59 -1.53 5.49 
        -5.42 5.48 c 0.0 0.0 -4.39 -0.43 -4.4 2.74 C 84.18 71.87 87.51 71.68 88.14 71.69 L 88.14 71.69 z M 11.17 51.1 v 
        2.69 H 2.18 c -1.99 -0.02 -2.06 -2.68 0.0 -2.69 C 2.24 51.08 11.17 51.1 11.17 51.1 L 11.17 51.1 z M 69.19 83.63 
        c 0.0 0.0 2.61 -0.02 3.38 0.0 c 0.74 -0.02 2.3 0.7 2.32 2.15 v 12.38 l -7.4 -2.15 c 0.0 0.0 -40.26 -0.0 -42.4 
        0.0 c -2.12 -0.0 -2.97 -1.79 -2.95 -2.74 c -0.02 -0.97 0.73 -2.78 2.95 -2.79 h 21.37 V 89.2 c 0.0 0.0 -19.23 0.0 
        -21.37 0.0 c -2.12 0.0 -2.97 -1.81 -2.95 -2.74 c -0.02 -0.98 0.73 -2.73 2.95 -2.74 h 21.37 v -1.17 c 0.0 0.0 
        -19.23 0.01 -21.37 0.0 c -2.12 0.01 -2.97 -1.75 -2.95 -2.69 c -0.02 -0.97 0.73 -2.89 2.95 -2.89 h 21.37 v -1.18 
        h -21.37 c -2.13 0.02 -2.97 -1.91 -2.95 -2.89 c -0.02 -0.94 0.72 -2.79 2.95 -2.79 l 0.0 0.0 H 42.93 l -5.99 
        -1.66 c -1.52 -0.54 -2.3 -1.92 -1.88 -3.52 c 0.44 -1.56 1.73 -2.22 3.91 -1.81 l 35.92 7.04 v 7.04 c -0.02 1.69 
        -1.15 2.79 -2.37 2.79 h -3.33 C 67.07 80.01 67.07 83.61 69.19 83.63 L 69.19 83.63 z"/>
</svg>