<?xml version="1.0" standalone="no"?>
<!--Created with Sketsa SVG Editor (http://www.kiyut.com)-->
<?xml-stylesheet type="text/css" href="..\travel.css" ?>
<svg contentScriptType="text/ecmascript" width="100.0px" xmlns:xlink="http://www.w3.org/1999/xlink" baseProfile="full"
    zoomAndPan="magnify" contentStyleType="text/css" height="100.0px" preserveAspectRatio="xMidYMid meet" xmlns="http://www.w3.org/2000/svg"
    version="1.0">
    <path d="M 0.5 49.92 C 0.5 77.17 22.67 99.33 49.92 99.33 c 27.25 0.0 49.42 -22.17 49.42 -49.42 C 99.33 22.67 77.16 
        0.5 49.92 0.5 C 22.67 0.5 0.5 22.67 0.5 49.92 L 0.5 49.92 z M 9.2 49.92 C 9.2 27.46 27.46 9.2 49.92 9.2 c 22.45 
        0.0 40.72 18.27 40.72 40.72 c 0.0 22.45 -18.26 40.72 -40.72 40.72 C 27.46 90.64 9.2 72.37 9.2 49.92 L 9.2 49.92 
        z M 64.92 36.83 c -1.3 -1.99 -2.92 -3.28 -4.85 -3.87 c -1.26 -0.39 -3.96 -0.59 -8.09 -0.59 H 41.05 v 39.56 h 
        6.76 V 57.0 h 4.45 c 3.09 0.0 5.45 -0.19 7.08 -0.57 c 1.2 -0.31 2.38 -0.93 3.54 -1.87 c 1.16 -0.94 2.12 -2.24 
        2.87 -3.9 c 0.75 -1.65 1.13 -3.7 1.13 -6.12 C 66.88 41.39 66.22 38.82 64.92 36.83 z M 59.12 47.76 c -0.52 0.89 
        -1.23 1.54 -2.14 1.96 c -0.91 0.42 -2.72 0.63 -5.42 0.63 h -3.75 V 39.01 h 3.31 c 2.47 0.0 4.12 0.09 4.94 0.27 c 
        1.11 0.24 2.03 0.83 2.76 1.77 c 0.73 0.94 1.09 2.14 1.09 3.6 C 59.9 45.84 59.64 46.87 59.12 47.76 z"/>
</svg>