<?xml version="1.0" standalone="no"?>
<!--Created with Sketsa SVG Editor (http://www.kiyut.com)-->
<?xml-stylesheet type="text/css" href="..\travel.css" ?>
<svg contentScriptType="text/ecmascript" width="100.0px" xmlns:xlink="http://www.w3.org/1999/xlink" baseProfile="full"
    zoomAndPan="magnify" contentStyleType="text/css" height="100.0px" preserveAspectRatio="xMidYMid meet" xmlns="http://www.w3.org/2000/svg"
    version="1.0">
    <path d="M 50.14 56.52 c -1.82 -1.8 -1.82 -4.76 0.0 -6.57 c 1.8 -1.83 4.74 -1.83 6.54 0.0 l 9.26 9.27 V 46.1 c 0.0 
        -2.56 2.07 -4.66 4.64 -4.66 c 2.55 0.0 4.64 2.11 4.64 4.66 v 13.13 l 9.24 -9.27 c 1.82 -1.83 4.74 -1.83 6.57 0.0 
        c 1.82 1.8 1.82 4.76 0.0 6.57 l -9.24 9.27 l 13.08 0.02 c 2.55 0.0 4.62 2.08 4.62 4.66 c 0.0 2.56 -2.07 4.66 
        -4.62 4.66 H 81.8 l 9.24 9.27 c 1.82 1.83 1.82 4.76 0.0 6.59 c -1.82 1.8 -4.74 1.8 -6.57 0.0 l -9.21 -9.27 l 
        -0.02 13.11 c 0.0 2.58 -2.1 4.66 -4.64 4.66 c -2.57 0.0 -4.64 -2.08 -4.64 -4.66 v -13.13 l -9.26 9.3 c -1.8 1.8 
        -4.74 1.8 -6.54 0.0 c -1.82 -1.83 -1.82 -4.76 0.0 -6.59 l 9.24 -9.27 H 46.3 c -2.55 0.0 -4.64 -2.11 -4.64 -4.66 
        c 0.0 -2.58 2.1 -4.66 4.64 -4.66 h 13.08 L 50.14 56.52 z M 44.95 9.56 c 0.0 -2.56 -2.07 -4.64 -4.64 -4.64 s 
        -4.64 2.08 -4.64 4.64 v 19.27 L 8.53 1.62 c -1.8 -1.83 -4.74 -1.83 -6.54 0.0 c -1.82 1.8 -1.82 4.76 1.19E-7 6.57 
        l 27.11 27.24 H 9.9 c -2.55 0.0 -4.62 2.08 -4.62 4.66 c 0.0 2.56 2.07 4.66 4.62 4.66 l 30.38 -0.02 c 1.2 0.0 
        2.37 -0.45 3.3 -1.35 c 0.9 -0.9 1.35 -2.11 1.35 -3.28 L 44.95 9.56 z"/>
</svg>