<?xml version="1.0" standalone="no"?>
<!--Created with Sketsa SVG Editor (http://www.kiyut.com)-->
<?xml-stylesheet type="text/css" href="..\travel.css" ?>
<svg contentScriptType="text/ecmascript" width="100.0px" xmlns:xlink="http://www.w3.org/1999/xlink" baseProfile="full"
    zoomAndPan="magnify" contentStyleType="text/css" height="100.0px" preserveAspectRatio="xMidYMid meet" xmlns="http://www.w3.org/2000/svg"
    version="1.0">
    <path d="M 16.5 89.22 c 5.01 -3.46 9.05 -7.28 12.11 -11.45 c 3.06 -4.18 4.59 -8.72 4.59 -13.62 c 0.0 -1.4 -0.29 
        -3.04 -0.86 -4.92 c -0.35 -1.18 -0.95 -2.8 -1.8 -4.86 H 15.83 v -6.83 h 10.45 c 0.0 0.22 -0.74 -1.15 -2.23 -4.1 
        c -1.49 -2.95 -2.47 -5.11 -2.96 -6.47 c -0.44 -1.27 -0.82 -2.75 -1.13 -4.43 c -0.31 -1.68 -0.47 -3.49 -0.47 
        -5.41 c 0.0 -6.83 2.82 -12.94 8.45 -18.35 C 33.58 3.37 41.65 0.67 52.16 0.67 c 9.89 0.0 17.38 2.67 22.45 8.01 c 
        5.08 5.34 7.69 12.89 7.82 22.65 h -12.31 c 0.0 -6.61 -1.56 -11.63 -4.69 -15.07 c -3.13 -3.43 -7.88 -5.15 -14.27 
        -5.15 c -6.21 0.0 -10.91 1.61 -14.1 4.82 c -3.19 3.21 -4.79 7.12 -4.79 11.72 c 0.0 2.27 0.5 4.62 1.5 7.02 c 1.0 
        2.41 3.12 6.7 6.35 12.87 h 21.82 v 6.83 H 43.11 c 0.44 2.01 0.76 3.59 0.97 4.73 c 0.2 1.14 0.3 2.32 0.3 3.54 c 
        0.0 4.38 -1.33 8.7 -3.99 12.96 c -2.66 4.27 -6.83 8.5 -12.51 12.7 c 3.06 -1.53 6.08 -2.75 9.05 -3.64 c 2.97 -0.9 
        5.88 -1.34 8.71 -1.34 c 3.19 0.0 7.42 0.78 12.67 2.33 c 5.26 1.55 8.7 2.33 10.35 2.33 c 2.09 0.0 3.99 -0.39 5.72 
        -1.18 c 1.06 -0.48 2.68 -1.49 4.86 -3.02 l 5.52 8.86 c -2.48 1.97 -4.7 3.43 -6.65 4.4 c -3.24 1.53 -6.68 2.3 
        -10.31 2.3 c -2.66 0.0 -7.13 -1.01 -13.41 -3.02 c -6.28 -2.01 -11.23 -3.02 -14.87 -3.02 c -3.37 0.0 -6.56 0.57 
        -9.58 1.71 c -1.77 0.7 -4.06 1.88 -6.85 3.54 L 16.5 89.22 z"/>
</svg>