<?xml version="1.0" standalone="no"?>
<!--Created with Sketsa SVG Editor (http://www.kiyut.com)-->
<?xml-stylesheet type="text/css" href="..\travel.css" ?>
<svg contentScriptType="text/ecmascript" width="100.0px" xmlns:xlink="http://www.w3.org/1999/xlink" baseProfile="full"
    zoomAndPan="magnify" contentStyleType="text/css" height="100.0px" preserveAspectRatio="xMidYMid meet" xmlns="http://www.w3.org/2000/svg"
    version="1.0">
    <path d="M 0.62 3.72 h 16.56 v 8.99 c 0.02 2.07 1.5 2.79 3.48 1.94 L 47.61 2.25 c 0.78 -0.34 1.77 0.08 2.15 0.76 l 
        2.15 4.7 c 0.29 0.74 0.04 1.65 -0.76 2.05 L 13.51 26.92 c -6.47 3.47 -12.87 -1.05 -12.9 -7.23 V 3.72 L 0.62 3.72 
        z M 90.31 24.57 l 8.77 -7.11 l -5.0 -6.81 l -7.84 5.88 l 3.6 -11.87 l -7.78 -2.41 l -4.07 12.52 L 73.93 2.25 l 
        -7.84 2.41 l 3.6 11.87 L 61.61 10.53 l -5.0 6.82 l 9.01 7.22 h -9.06 v 72.98 H 99.38 V 24.69 v -0.12 H 90.31 z M 
        73.64 89.03 h -9.06 V 53.3 h 9.06 V 89.03 z M 73.64 44.78 h -9.06 V 33.21 h 9.06 V 44.78 z M 91.36 89.03 h -9.06 
        V 53.3 h 9.06 V 89.03 z M 91.36 44.78 h -9.06 V 33.21 h 9.06 V 44.78 z M 46.74 82.8 V 32.8 H 32.68 l 0.06 -8.34 
        C 32.69 24.48 6.31 36.38 6.31 36.38 C 2.04 38.45 0.5 41.46 0.5 45.55 v 40.3 c 0.0 6.43 5.1 11.69 10.98 11.69 h 
        35.38 V 90.15 C 42.52 89.61 42.52 83.35 46.74 82.8 z M 11.3 89.38 c -3.87 -0.03 -3.86 -5.52 0.0 -5.52 h 24.69 c 
        -1.72 1.29 -1.6 4.33 0.23 5.52 H 11.3 z M 38.84 76.04 H 17.23 l 15.45 -7.05 V 40.91 h 6.16 V 76.04 z"/>
</svg>