<?xml version="1.0" standalone="no"?>
<!--Created with Sketsa SVG Editor (http://www.kiyut.com)-->
<?xml-stylesheet type="text/css" href="..\travel.css" ?>
<svg contentScriptType="text/ecmascript" width="100.0px" xmlns:xlink="http://www.w3.org/1999/xlink" baseProfile="full"
    zoomAndPan="magnify" contentStyleType="text/css" height="100.0px" preserveAspectRatio="xMidYMid meet" xmlns="http://www.w3.org/2000/svg"
    version="1.0">
    <path d="M 75.42 20.83 c 4.36 0.0 7.91 -3.5 7.9 -7.82 c 0.0 -4.32 -3.54 -7.82 -7.9 -7.81 c -4.37 -0.01 -7.91 3.49 
        -7.9 7.81 C 67.51 17.33 71.05 20.84 75.42 20.83 L 75.42 20.83 z M 65.24 35.22 l 0.05 59.72 c 0.01 5.96 8.9 5.91 
        8.88 -0.14 l 0.05 -34.75 h 1.72 v 34.71 c -0.02 6.07 8.97 6.23 8.97 0.18 V 34.95 h 1.58 v 21.42 c -0.02 5.15 
        7.03 5.15 7.02 0.09 V 33.06 c 0.02 -6.32 -4.72 -10.02 -9.72 -10.02 H 69.7 c -3.34 -9.9E-4 -5.76 1.3 -7.81 4.18 L 
        54.78 37.48 H 42.46 c -4.98 -9.84E-4 -4.7 6.96 -0.09 6.94 h 14.22 c 1.11 0.02 2.46 -0.39 3.25 -1.56 L 65.24 
        35.22 L 65.24 35.22 z M 35.69 39.51 L 29.08 39.51 L 29.08 0.5 L 5.5 0.5 L 5.5 99.39 L 29.08 99.39 L 29.08 42.28 
        L 35.69 42.28 z"/>
</svg>