<?xml version="1.0" standalone="no"?>
<!--Created with Sketsa SVG Editor (http://www.kiyut.com)-->
<?xml-stylesheet type="text/css" href="..\travel.css" ?>
<svg contentScriptType="text/ecmascript" width="100.0px" xmlns:xlink="http://www.w3.org/1999/xlink" baseProfile="full"
    zoomAndPan="magnify" contentStyleType="text/css" height="100.0px" preserveAspectRatio="xMidYMid meet" xmlns="http://www.w3.org/2000/svg"
    version="1.0">
    <path d="M 25.26 15.95 c 4.27 0.01 7.73 -3.47 7.72 -7.79 C 32.99 3.87 29.53 0.39 25.26 0.37 c -4.26 0.01 -7.72 3.5 
        -7.72 7.79 C 17.55 12.48 21.0 15.96 25.26 15.95 L 25.26 15.95 z M 5.04 43.59 h 6.78 l 4.09 -15.08 h 1.69 L 13.55 
        43.59 h 24.01 l -4.33 -15.08 h 1.79 l 2.29 7.39 c 1.07 3.12 3.8 3.84 5.93 1.16 l 8.27 -10.1 c 2.62 -3.41 -2.08 
        -6.99 -4.78 -4.02 l -4.93 5.93 c 0.01 0.09 -0.95 -3.27 -0.95 -3.27 c -1.12 -3.96 -4.86 -7.87 -10.46 -7.89 H 
        19.83 c -5.01 0.02 -8.93 4.42 -9.76 7.19 L 5.04 43.59 L 5.04 43.59 z M 56.0 23.04 L 56.0 7.51 L 49.08 7.51 L 
        49.08 23.04 L 56.0 23.04 z M 79.37 16.05 c 4.28 -0.01 7.73 -3.5 7.72 -7.79 c 0.01 -4.32 -3.44 -7.8 -7.72 -7.79 c 
        -4.25 -0.01 -7.71 3.47 -7.72 7.79 C 71.66 12.55 75.12 16.04 79.37 16.05 L 79.37 16.05 z M 89.14 89.58 v -43.02 h 
        5.68 V 23.09 c 0.01 -3.07 -2.72 -5.43 -6.63 -5.43 H 70.06 c -3.6 9.96E-4 -4.48 1.18 -5.48 2.16 L 49.48 38.12 c 
        -3.06 3.83 2.4 8.3 5.48 4.72 L 69.51 25.5 v 64.18 c -0.02 6.45 8.95 6.66 8.97 0.2 v -36.44 h 1.74 v 36.24 C 
        80.24 96.11 89.15 96.13 89.14 89.58 L 89.14 89.58 z M 99.25 54.2 L 99.25 45.35 L 0.5 45.35 L 0.5 54.2 L 99.25 
        54.2 z"/>
</svg>