<?xml version="1.0" standalone="no"?>
<!--Created with Sketsa SVG Editor (http://www.kiyut.com)-->
<?xml-stylesheet type="text/css" href="..\travel.css" ?>
<svg contentScriptType="text/ecmascript" width="100.0px" xmlns:xlink="http://www.w3.org/1999/xlink" baseProfile="full"
    zoomAndPan="magnify" contentStyleType="text/css" height="100.0px" preserveAspectRatio="xMidYMid meet" xmlns="http://www.w3.org/2000/svg"
    version="1.0">
    <path d="M 36.1 66.78 V 49.69 c 0.0 -6.94 5.69 -12.58 12.75 -12.58 c 7.02 0.0 12.71 5.64 12.71 12.58 v 17.1 H 36.1 z 
        M 49.77 9.88 c 18.5 0.0 33.49 14.82 33.49 33.11 v 42.69 h 9.53 l -0.03 -42.69 C 92.77 19.52 73.5 0.5 49.77 0.5 C 
        26.03 0.5 6.78 19.52 6.78 42.99 L 6.75 85.7 l 9.52 -0.03 V 42.99 C 16.27 24.7 31.28 9.88 49.77 9.88 z M 51.43 
        70.44 H 46.24 l -0.63 3.6 h 6.49 L 51.43 70.44 z M 53.04 79.54 h -8.36 l -0.97 5.38 h 10.24 L 53.04 79.54 z M 
        55.21 92.17 H 42.46 L 41.24 99.38 h 15.25 L 55.21 92.17 z"/>
</svg>