<?xml version="1.0" standalone="no"?>
<!--Created with Sketsa SVG Editor (http://www.kiyut.com)-->
<svg contentScriptType="text/ecmascript" width="1000.0px" xmlns:xlink="http://www.w3.org/1999/xlink" baseProfile="full"
    zoomAndPan="magnify" contentStyleType="text/css" height="500.0px" preserveAspectRatio="xMidYMid meet" xmlns="http://www.w3.org/2000/svg"
    version="1.0">
    <rect x="100" y="100" fill="none" width="479" rx="5" height="200" ry="5" stroke="#000000"/>
    <polygon fill="#000000" points="113.0,183.0 113.0,192.0 106.0,187.5" stroke="#000000"/>
    <polygon fill="#000000" points="566.0,183.0 566.0,192.0 573.0,187.5" stroke="#000000"/>
    <rect fill="#999999" x="145" width="100" height="85" y="140.0" stroke="#999999"/>
    <rect fill="#999999" x="290" width="100" y="140.0" height="85" stroke="#999999"/>
    <rect fill="#999999" x="435" width="100" y="140.0" height="85" stroke="#999999"/>
    <line y2="275" fill="none" x1="120" x2="120" stroke="#000000" y1="100"/>
    <line y2="275" fill="none" x1="559" x2="559" y1="100" stroke="#000000"/>
    <line y2="275" fill="none" x1="100" x2="579" stroke="#000000" y1="275"/>
    <ellipse rx="5" fill="#cccccc" ry="5" cx="330" cy="287.5" stroke="#cccccc"/>
    <ellipse rx="5" fill="#cccccc" ry="5" cx="349" cy="287.5" stroke="#cccccc"/>
    <ellipse rx="5" fill="#333333" ry="5" cx="311" cy="287.5" stroke="#333333"/>
    <ellipse rx="5" fill="#cccccc" ry="5" cx="368" cy="287.5" stroke="#cccccc"/>
</svg>