<?xml version="1.0" standalone="no"?>
<!--Created with Sketsa SVG Editor (http://www.kiyut.com)-->
<svg contentScriptType="text/ecmascript" width="1000.0px" xmlns:xlink="http://www.w3.org/1999/xlink" baseProfile="full"
    zoomAndPan="magnify" contentStyleType="text/css" height="500.0px" preserveAspectRatio="xMidYMid meet" xmlns="http://www.w3.org/2000/svg"
    version="1.0">
    <rect x="-14.6666565" y="0.666687" transform="matrix(-1.0 0.0 0.0 1.0 174.0 0.0)" fill="#cccccc" width="54"
        stroke-linejoin="round" height="59" stroke="#ffffff"/>
    <rect x="34.666676" y="14.00002" transform="matrix(-1.0 0.0 0.0 1.0 174.0 0.0)" fill="#cccccc" width="54"
        stroke-linejoin="round" height="59" stroke="#ffffff"/>
    <rect x="-61.99999" y="14.666687" transform="matrix(-1.0 0.0 0.0 1.0 174.0 0.0)" fill="#cccccc" width="54"
        stroke-linejoin="round" height="59" stroke="#ffffff"/>
    <rect x="78.00001" y="34.00002" transform="matrix(-1.0 0.0 0.0 1.0 174.0 0.0)" fill="#cccccc" width="54"
        stroke-linejoin="round" height="59" stroke="#ffffff"/>
    <rect x="-106.66666" y="33.333355" transform="matrix(-1.0 0.0 0.0 1.0 174.0 0.0)" fill="#cccccc" width="54"
        stroke-linejoin="round" height="59" stroke="#ffffff"/>
    <rect x="106.66669" y="55.333355" transform="matrix(-1.0 0.0 0.0 1.0 174.0 0.0)" fill="#cccccc" width="67.33333"
        stroke-linejoin="round" height="72.33334" stroke="#ffffff"/>
    <rect x="-147.33331" y="55.333355" transform="matrix(-1.0 0.0 0.0 1.0 174.0 0.0)" fill="#cccccc" width="67.33333"
        stroke-linejoin="round" height="72.33334" stroke="#ffffff"/>
    <rect x="41.666687" y="65.33336" transform="matrix(-1.0 0.0 0.0 1.0 174.0 0.0)" fill="#cccccc" width="81.33333"
        stroke-linejoin="round" height="85.66667" stroke="#ffffff"/>
    <rect x="-97.33331" y="65.666695" transform="matrix(-1.0 0.0 0.0 1.0 174.0 0.0)" fill="#cccccc" width="81.33333"
        stroke-linejoin="round" height="85.66667" stroke="#ffffff"/>
    <rect x="116.019226" y="74.49857" fill="#666666" width="90" stroke-linejoin="round" height="100" stroke="#ffffff"
        stroke-width="2"/>
</svg>