<?xml version="1.0" standalone="no"?>
<!--Created with Sketsa SVG Editor (http://www.kiyut.com)-->
<svg contentScriptType="text/ecmascript" width="1000.0px" xmlns:xlink="http://www.w3.org/1999/xlink" baseProfile="full"
    zoomAndPan="magnify" contentStyleType="text/css" height="500.0px" preserveAspectRatio="xMidYMid meet" xmlns="http://www.w3.org/2000/svg"
    version="1.0">
    <rect x="120" y="100" fill="none" width="439" rx="5" height="200" ry="5" stroke="#000000"/>
    <polygon fill="#000000" points="524.0,283.0 524.0,292.0 517.0,287.5" stroke="#000000"/>
    <polygon fill="#000000" points="536.0,283.0 536.0,292.0 543.0,287.5" stroke="#000000"/>
    <rect fill="#999999" x="145" width="100" height="85" y="140.0" stroke="#999999"/>
    <rect fill="#999999" x="290" width="100" y="140.0" height="85" stroke="#999999"/>
    <rect fill="#999999" x="435" width="100" y="140.0" height="85" stroke="#999999"/>
    <line y2="275" fill="none" x1="120" x2="559" stroke="#000000" y1="275"/>
    <ellipse rx="5" fill="#cccccc" ry="5" cx="450" cy="287.5" stroke="#cccccc"/>
    <ellipse rx="5" fill="#cccccc" ry="5" cx="469" cy="287.5" stroke="#cccccc"/>
    <ellipse rx="5" fill="#333333" ry="5" cx="431" cy="287.5" stroke="#333333"/>
    <ellipse rx="5" fill="#cccccc" ry="5" cx="488" cy="287.5" stroke="#cccccc"/>
    <rect x="510" y="280" fill="none" width="40" rx="3" ry="3" height="15" stroke="#999999" stroke-width="2"/>
    <line fill="none" x1="530" x2="530" y1="280.0" y2="295" stroke="#999999" stroke-width="2"/>
</svg>