<?xml version="1.0" standalone="no"?>
<!--Created with Sketsa SVG Editor (http://www.kiyut.com)-->
<svg contentScriptType="text/ecmascript" width="1000.0px" xmlns:xlink="http://www.w3.org/1999/xlink" baseProfile="full"
    zoomAndPan="magnify" contentStyleType="text/css" height="1000.0px" preserveAspectRatio="xMidYMid meet" xmlns="http://www.w3.org/2000/svg"
    version="1.0">
    <rect x="100" y="100" fill="#f2f2f2" width="320" rx="5" visibility="visible" height="175" ry="5" stroke="#000000"/>
    <rect width="20" x="110" fill="#ffffff" height="20" y="147" stroke="#909090"/>
    <rect width="20" x="130" fill="#ffffff" height="20" y="147" stroke="#909090"/>
    <rect width="20" x="150" fill="#ffffff" height="20" y="147" stroke="#909090"/>
    <rect width="20" x="170" fill="#ffffff" height="20" y="147" stroke="#909090"/>
    <rect width="20" x="190" fill="#ffffff" height="20" y="147" stroke="#909090"/>
    <rect width="20" x="210" fill="#ffffff" height="20" y="147" stroke="#909090"/>
    <rect width="20" x="230" fill="#ffffff" height="20" y="147" stroke="#909090"/>
    <rect width="20" x="110" fill="#ffffff" height="20" y="167" stroke="#909090"/>
    <rect width="20" x="130" fill="#ffffff" height="20" y="167.0" stroke="#909090"/>
    <rect width="20" x="150" fill="#ffffff" height="20" y="167.0" stroke="#909090"/>
    <rect width="20" x="170" fill="#ffffff" height="20" y="167.0" stroke="#909090"/>
    <rect width="20" x="190" fill="#ffffff" height="20" y="167.0" stroke="#909090"/>
    <rect width="20" x="210" fill="#ffffff" height="20" y="167.0" stroke="#909090"/>
    <rect width="20" x="230." fill="#ffffff" height="20" y="167.0" stroke="#909090"/>
    <rect width="20" x="110" fill="#ffffff" height="20" y="147" stroke="#909090"/>
    <rect width="20" x="130" fill="#d3d7ff" height="20" y="147" stroke="#909090"/>
    <rect width="20" x="150" fill="#ffffff" height="20" y="147" stroke="#909090"/>
    <rect width="20" x="170" fill="#ffffff" height="20" y="147" stroke="#909090"/>
    <rect width="20" x="190" fill="#ffffff" height="20" y="147" stroke="#909090"/>
    <rect width="20" x="210" fill="#ffffff" height="20" y="147" stroke="#909090"/>
    <rect width="20" x="230" fill="#ffffff" height="20" y="147" stroke="#909090"/>
    <rect width="20" x="110" fill="#ffffff" height="20" y="167" stroke="#909090"/>
    <rect width="20" x="130" fill="#ffffff" height="20" y="167.0" stroke="#909090"/>
    <rect width="20" x="150" fill="#ffffff" height="20" y="167.0" stroke="#909090"/>
    <rect width="20" x="170" fill="#ffffff" height="20" y="167.0" stroke="#909090"/>
    <rect width="20" x="190" fill="#ffffff" height="20" y="167.0" stroke="#909090"/>
    <rect width="20" x="210" fill="#ffffff" height="20" y="167.0" stroke="#909090"/>
    <rect width="20" x="230." fill="#130d8e" height="20" y="167.0" stroke="#909090"/>
    <rect width="20" x="110.0" fill="#ffffff" height="20" y="187.0" stroke="#909090"/>
    <rect width="20" x="130.0" fill="#ffffff" height="20" y="187.0" stroke="#909090"/>
    <rect width="20" x="150.0" fill="#ffffff" height="20" y="187.0" stroke="#909090"/>
    <rect width="20" x="170.0" fill="#ffffff" height="20" y="187.0" stroke="#909090"/>
    <rect width="20" x="190.0" fill="#ffffff" height="20" y="187.0" stroke="#909090"/>
    <rect width="20" x="210.0" fill="#ffffff" height="20" y="187.0" stroke="#909090"/>
    <rect width="20" x="230.0" fill="#ffffff" height="20" y="187.0" stroke="#909090"/>
    <rect width="20" x="110.0" fill="#ffffff" height="20" y="207.0" stroke="#909090"/>
    <rect width="20" x="130.0" fill="#ffffff" height="20" y="207.0" stroke="#909090"/>
    <rect width="20" x="150.0" fill="#ffffff" height="20" y="207.0" stroke="#909090"/>
    <rect width="20" x="170.0" fill="#ffffff" height="20" y="207.0" stroke="#909090"/>
    <rect width="20" x="190.0" fill="#ffffff" height="20" y="207.0" stroke="#909090"/>
    <rect width="20" x="210.0" fill="#ffffff" height="20" y="207.0" stroke="#909090"/>
    <rect width="20" x="230.0" fill="#ffffff" height="20" y="207.0" stroke="#909090"/>
    <rect width="20" x="110.0" fill="#ffffff" height="20" y="187.0" stroke="#909090"/>
    <rect width="20" x="130.0" fill="#ffffff" height="20" y="187.0" stroke="#909090"/>
    <rect width="20" x="150.0" fill="#ffffff" height="20" y="187.0" stroke="#909090"/>
    <rect width="20" x="170.0" fill="#ffffff" height="20" y="187.0" stroke="#909090"/>
    <rect width="20" x="190.0" fill="#ffffff" height="20" y="187.0" stroke="#909090"/>
    <rect width="20" x="210.0" fill="#ffffff" height="20" y="187.0" stroke="#909090"/>
    <rect width="20" x="230.0" fill="#ffffff" height="20" y="187.0" stroke="#909090"/>
    <rect width="20" x="110.0" fill="#ffffff" height="20" y="207.0" stroke="#909090"/>
    <rect width="20" x="130.0" fill="#ffffff" height="20" y="207.0" stroke="#909090"/>
    <rect width="20" x="150.0" fill="#ffffff" height="20" y="207.0" stroke="#909090"/>
    <rect width="20" x="170.0" fill="#ffffff" height="20" y="207.0" stroke="#909090"/>
    <rect width="20" x="210.0" fill="#ffffff" height="20" y="207.0" stroke="#909090"/>
    <rect width="20" x="230.0" fill="#ffffff" height="20" y="207.0" stroke="#909090"/>
    <rect width="20" x="110.0" fill="#ffffff" height="20" y="227.0" stroke="#909090"/>
    <rect width="20" x="130.0" fill="#ffffff" height="20" y="227.0" stroke="#909090"/>
    <rect width="20" x="150.0" fill="#ffffff" height="20" y="227.0" stroke="#909090"/>
    <rect width="20" x="170.0" fill="#ffffff" height="20" y="227.0" stroke="#909090"/>
    <rect width="20" x="190.0" fill="#ffffff" height="20" y="227.0" stroke="#909090"/>
    <rect width="20" x="210.0" fill="#ffffff" height="20" y="227.0" stroke="#909090"/>
    <rect width="20" x="230.0" fill="#ffffff" height="20" y="227.0" stroke="#909090"/>
    <rect width="20" x="110.0" fill="#ffffff" height="20" y="247.0" stroke="#909090"/>
    <rect width="20" x="130.0" fill="#ffffff" height="20" y="247.0" stroke="#909090"/>
    <rect width="20" x="150.0" fill="#d9d9d9" height="20" y="247.0" stroke="#909090"/>
    <rect width="20" x="170.0" fill="#d9d9d9" height="20" y="247.0" stroke="#909090"/>
    <rect width="20" x="190.0" fill="#d9d9d9" height="20" y="247.0" stroke="#909090"/>
    <rect width="20" x="210.0" fill="#d9d9d9" height="20" y="247.0" stroke="#909090"/>
    <rect width="20" x="230.0" fill="#d9d9d9" height="20" y="247.0" stroke="#909090"/>
    <rect width="20" x="270.0" fill="#ffffff" height="20" y="147.0" stroke="#909090"/>
    <rect width="20" x="130.0" fill="#ffffff" height="20" y="227.0" stroke="#909090"/>
    <rect width="20" x="150.0" fill="#ffffff" height="20" y="227.0" stroke="#909090"/>
    <rect width="20" x="170.0" fill="#d9d9d9" height="20" y="227.0" stroke="#909090"/>
    <rect width="20" x="190.0" fill="#d9d9d9" height="20" y="227.0" stroke="#909090"/>
    <rect width="20" x="210.0" fill="#d9d9d9" height="20" y="227.0" stroke="#909090"/>
    <rect width="20" x="230.0" fill="#d9d9d9" height="20" y="227.0" stroke="#909090"/>
    <rect width="20" x="110.0" fill="#d9d9d9" height="20" y="247.0" stroke="#909090"/>
    <rect width="20" x="130.0" fill="#d9d9d9" height="20" y="247.0" stroke="#909090"/>
    <rect width="20" x="150.0" fill="#d9d9d9" height="20" y="247.0" stroke="#909090"/>
    <rect width="20" x="170.0" fill="#d9d9d9" height="20" y="247.0" stroke="#909090"/>
    <rect width="20" x="190.0" fill="#d9d9d9" height="20" y="247.0" stroke="#909090"/>
    <rect width="20" x="210.0" fill="#d9d9d9" height="20" y="247.0" stroke="#909090"/>
    <rect width="20" x="230.0" fill="#d9d9d9" height="20" y="247.0" stroke="#909090"/>
    <rect x="190.0" y="207.0" fill="#ffffff" width="20" stroke-linejoin="round" height="20" stroke="#bb271a"
        stroke-width="2"/>
    <rect x="108" y="108" fill="none" width="23" rx="4" height="18" ry="4" stroke="#000000"/>
    <polyline fill="none" stroke-width="2" points="123.0,113.0 116.0,117.0 123.0,121.0" stroke="#000000" stroke-linecap="round"
        stroke-linejoin="round"/>
    <rect x="390" y="108." fill="none" width="23" rx="4" ry="4" height="18" stroke="#000000"/>
    <polyline stroke-linecap="round" points="58.0,113.0 51.0,117.0 58.0,121.0" transform="matrix(-1.0 0.0 0.0 1.0 456.0 0.0)"
        fill="none" stroke-linejoin="round" stroke="#000000" stroke-width="2"/>
    <rect x="270.0" fill="#d9d9d9" width="20" y="147.0" height="20" stroke="#909090"/>
    <rect x="290.0" fill="#ffffff" width="20" y="147.0" height="20" stroke="#909090"/>
    <rect x="310.0" fill="#ffffff" width="20" y="147.0" height="20" stroke="#909090"/>
    <rect x="330.0" fill="#ffffff" width="20" y="147.0" height="20" stroke="#909090"/>
    <rect x="350.0" fill="#ffffff" width="20" y="147.0" height="20" stroke="#909090"/>
    <rect x="370.0" fill="#ffffff" width="20" y="147.0" height="20" stroke="#909090"/>
    <rect x="390.0" fill="#ffffff" width="20" y="147.0" height="20" stroke="#909090"/>
    <rect x="270.0" fill="#ffffff" width="20" y="167.0" height="20" stroke="#909090"/>
    <rect x="290.0" fill="#ffffff" width="20" y="167.0" height="20" stroke="#909090"/>
    <rect x="310.0" fill="#ffffff" width="20" y="167.0" height="20" stroke="#909090"/>
    <rect x="330.0" fill="#ffffff" width="20" y="167.0" height="20" stroke="#909090"/>
    <rect x="350.0" fill="#ffffff" width="20" y="167.0" height="20" stroke="#909090"/>
    <rect x="370.0" fill="#ffffff" width="20" y="167.0" height="20" stroke="#909090"/>
    <rect x="390.0" fill="#ffffff" width="20" y="167.0" height="20" stroke="#909090"/>
    <rect x="290.0" fill="#d9d9d9" width="20" y="147.0" height="20" stroke="#909090"/>
    <rect x="310.0" fill="#d9d9d9" width="20" y="147.0" height="20" stroke="#909090"/>
    <rect x="330.0" fill="#ffffff" width="20" y="147.0" height="20" stroke="#909090"/>
    <rect x="350.0" fill="#ffffff" width="20" y="147.0" height="20" stroke="#909090"/>
    <rect x="370.0" fill="#ffffff" width="20" y="147.0" height="20" stroke="#909090"/>
    <rect x="390.0" fill="#ffffff" width="20" y="147.0" height="20" stroke="#909090"/>
    <rect x="270.0" fill="#ffffff" width="20" y="167.0" height="20" stroke="#909090"/>
    <rect x="290.0" fill="#ffffff" width="20" y="167.0" height="20" stroke="#909090"/>
    <rect x="310.0" fill="#ffffff" width="20" y="167.0" height="20" stroke="#909090"/>
    <rect x="330.0" fill="#ffffff" width="20" y="167.0" height="20" stroke="#909090"/>
    <rect x="350.0" fill="#ffffff" width="20" y="167.0" height="20" stroke="#909090"/>
    <rect x="370.0" fill="#ffffff" width="20" y="167.0" height="20" stroke="#909090"/>
    <rect x="390.0" fill="#ffffff" width="20" y="167.0" height="20" stroke="#909090"/>
    <rect x="270.0" fill="#ffffff" width="20" y="187.0" height="20" stroke="#909090"/>
    <rect x="290.0" fill="#ffffff" width="20" y="187.0" height="20" stroke="#909090"/>
    <rect x="310.0" fill="#ffffff" width="20" y="187.0" height="20" stroke="#909090"/>
    <rect x="330.0" fill="#ffffff" width="20" y="187.0" height="20" stroke="#909090"/>
    <rect x="350.0" fill="#ffffff" width="20" y="187.0" height="20" stroke="#909090"/>
    <rect x="370.0" fill="#ffffff" width="20" y="187.0" height="20" stroke="#909090"/>
    <rect x="390.0" fill="#ffffff" width="20" y="187.0" height="20" stroke="#909090"/>
    <rect x="270.0" fill="#ffffff" width="20" y="207.0" height="20" stroke="#909090"/>
    <rect x="290.0" fill="#ffffff" width="20" y="207.0" height="20" stroke="#909090"/>
    <rect x="310.0" fill="#ffffff" width="20" y="207.0" height="20" stroke="#909090"/>
    <rect x="330.0" fill="#ffffff" width="20" y="207.0" height="20" stroke="#909090"/>
    <rect x="350.0" fill="#ffffff" width="20" y="207.0" height="20" stroke="#909090"/>
    <rect x="370.0" fill="#ffffff" width="20" y="207.0" height="20" stroke="#909090"/>
    <rect x="390.0" fill="#ffffff" width="20" y="207.0" height="20" stroke="#909090"/>
    <rect x="270.0" fill="#ffffff" width="20" y="187.0" height="20" stroke="#909090"/>
    <rect x="290.0" fill="#ffffff" width="20" y="187.0" height="20" stroke="#909090"/>
    <rect x="310.0" fill="#ffffff" width="20" y="187.0" height="20" stroke="#909090"/>
    <rect x="330.0" fill="#ffffff" width="20" y="187.0" height="20" stroke="#909090"/>
    <rect x="350.0" fill="#ffffff" width="20" y="187.0" height="20" stroke="#909090"/>
    <rect x="370.0" fill="#ffffff" width="20" y="187.0" height="20" stroke="#909090"/>
    <rect x="390.0" fill="#ffffff" width="20" y="187.0" height="20" stroke="#909090"/>
    <rect x="270.0" fill="#ffffff" width="20" y="207.0" height="20" stroke="#909090"/>
    <rect x="290.0" fill="#ffffff" width="20" y="207.0" height="20" stroke="#909090"/>
    <rect x="310.0" fill="#ffffff" width="20" y="207.0" height="20" stroke="#909090"/>
    <rect x="330.0" fill="#ffffff" width="20" y="207.0" height="20" stroke="#909090"/>
    <rect x="370.0" fill="#ffffff" width="20" y="207.0" height="20" stroke="#909090"/>
    <rect x="390.0" fill="#ffffff" width="20" y="207.0" height="20" stroke="#909090"/>
    <rect x="270.0" fill="#ffffff" width="20" y="227.0" height="20" stroke="#909090"/>
    <rect x="290.0" fill="#ffffff" width="20" y="227.0" height="20" stroke="#909090"/>
    <rect x="310.0" fill="#ffffff" width="20" y="227.0" height="20" stroke="#909090"/>
    <rect x="330.0" fill="#ffffff" width="20" y="227.0" height="20" stroke="#909090"/>
    <rect x="350.0" fill="#ffffff" width="20" y="227.0" height="20" stroke="#909090"/>
    <rect x="370.0" fill="#ffffff" width="20" y="227.0" height="20" stroke="#909090"/>
    <rect x="390.0" fill="#ffffff" width="20" y="227.0" height="20" stroke="#909090"/>
    <rect x="270.0" fill="#ffffff" width="20" y="247.0" height="20" stroke="#909090"/>
    <rect x="290.0" fill="#ffffff" width="20" y="247.0" height="20" stroke="#909090"/>
    <rect x="310.0" fill="#d9d9d9" width="20" y="247.0" height="20" stroke="#909090"/>
    <rect x="330.0" fill="#d9d9d9" width="20" y="247.0" height="20" stroke="#909090"/>
    <rect x="350.0" fill="#d9d9d9" width="20" y="247.0" height="20" stroke="#909090"/>
    <rect x="370.0" fill="#d9d9d9" width="20" y="247.0" height="20" stroke="#909090"/>
    <rect x="390.0" fill="#d9d9d9" width="20" y="247.0" height="20" stroke="#909090"/>
    <rect x="270.0" fill="#ffffff" width="20" y="227.0" height="20" stroke="#909090"/>
    <rect x="290.0" fill="#ffffff" width="20" y="227.0" height="20" stroke="#909090"/>
    <rect x="310.0" fill="#ffffff" width="20" y="227.0" height="20" stroke="#909090"/>
    <rect x="330.0" fill="#ffffff" width="20" y="227.0" height="20" stroke="#909090"/>
    <rect x="350.0" fill="#ffffff" width="20" y="227.0" height="20" stroke="#909090"/>
    <rect x="370.0" fill="#ffffff" width="20" y="227.0" height="20" stroke="#909090"/>
    <rect x="390.0" fill="#d9d9d9" width="20" y="227.0" height="20" stroke="#909090"/>
    <rect x="270.0" fill="#d9d9d9" width="20" y="247.0" height="20" stroke="#909090"/>
    <rect x="290.0" fill="#d9d9d9" width="20" y="247.0" height="20" stroke="#909090"/>
    <rect x="310.0" fill="#d9d9d9" width="20" y="247.0" height="20" stroke="#909090"/>
    <rect x="330.0" fill="#d9d9d9" width="20" y="247.0" height="20" stroke="#909090"/>
    <rect x="350.0" fill="#d9d9d9" width="20" y="247.0" height="20" stroke="#909090"/>
    <rect x="370.0" fill="#d9d9d9" width="20" y="247.0" height="20" stroke="#909090"/>
    <rect x="390.0" fill="#d9d9d9" width="20" y="247.0" height="20" stroke="#909090"/>
    <rect x="350.0" y="207.0" fill="#ffffff" width="20" stroke-linejoin="round" height="20" stroke="#909090"/>
</svg>