<?xml version="1.0" standalone="no"?>
<!--Created with Sketsa SVG Editor (http://www.kiyut.com)-->
<svg contentScriptType="text/ecmascript" width="1000.0px" xmlns:xlink="http://www.w3.org/1999/xlink" baseProfile="full"
    zoomAndPan="magnify" contentStyleType="text/css" height="1000.0px" preserveAspectRatio="xMidYMid meet" xmlns="http://www.w3.org/2000/svg"
    version="1.0">
    <rect x="100" y="100" fill="#f2f2f2" width="160" rx="5" visibility="visible" ry="5" height="175" stroke="#000000"/>
    <rect x="110" y="147" fill="#ffffff" width="20" height="20" stroke="#909090"/>
    <rect x="130" y="147" fill="#ffffff" width="20" height="20" stroke="#909090"/>
    <rect x="150" y="147" fill="#ffffff" width="20" height="20" stroke="#909090"/>
    <rect x="170" y="147" fill="#ffffff" width="20" height="20" stroke="#909090"/>
    <rect x="190" y="147" fill="#ffffff" width="20" height="20" stroke="#909090"/>
    <rect x="210" y="147" fill="#ffffff" width="20" height="20" stroke="#909090"/>
    <rect x="230" y="147" fill="#ffffff" width="20" height="20" stroke="#909090"/>
    <rect x="110" y="167" fill="#ffffff" width="20" height="20" stroke="#909090"/>
    <rect x="130" y="167.0" fill="#ffffff" width="20" height="20" stroke="#909090"/>
    <rect x="150" y="167.0" fill="#ffffff" width="20" height="20" stroke="#909090"/>
    <rect x="170" y="167.0" fill="#ffffff" width="20" height="20" stroke="#909090"/>
    <rect x="190" y="167.0" fill="#ffffff" width="20" height="20" stroke="#909090"/>
    <rect x="210" y="167.0" fill="#ffffff" width="20" height="20" stroke="#909090"/>
    <rect x="230." y="167.0" fill="#ffffff" width="20" height="20" stroke="#909090"/>
    <rect x="110" y="147" fill="#ffffff" width="20" height="20" stroke="#909090"/>
    <rect x="130" y="147" fill="#d3d7ff" width="20" height="20" stroke="#909090"/>
    <rect x="150" y="147" fill="#ffffff" width="20" height="20" stroke="#909090"/>
    <rect x="170" y="147" fill="#ffffff" width="20" height="20" stroke="#909090"/>
    <rect x="190" y="147" fill="#ffffff" width="20" height="20" stroke="#909090"/>
    <rect x="210" y="147" fill="#ffffff" width="20" height="20" stroke="#909090"/>
    <rect x="230" y="147" fill="#ffffff" width="20" height="20" stroke="#909090"/>
    <rect x="110" y="167" fill="#ffffff" width="20" height="20" stroke="#909090"/>
    <rect x="130" y="167.0" fill="#ffffff" width="20" height="20" stroke="#909090"/>
    <rect x="150" y="167.0" fill="#ffffff" width="20" height="20" stroke="#909090"/>
    <rect x="170" y="167.0" fill="#ffffff" width="20" height="20" stroke="#909090"/>
    <rect x="190" y="167.0" fill="#ffffff" width="20" height="20" stroke="#909090"/>
    <rect x="210" y="167.0" fill="#ffffff" width="20" height="20" stroke="#909090"/>
    <rect x="230." y="167.0" fill="#130d8e" width="20" height="20" stroke="#909090"/>
    <rect x="110.0" y="187.0" fill="#ffffff" width="20" height="20" stroke="#909090"/>
    <rect x="130.0" y="187.0" fill="#ffffff" width="20" height="20" stroke="#909090"/>
    <rect x="150.0" y="187.0" fill="#ffffff" width="20" height="20" stroke="#909090"/>
    <rect x="170.0" y="187.0" fill="#ffffff" width="20" height="20" stroke="#909090"/>
    <rect x="190.0" y="187.0" fill="#ffffff" width="20" height="20" stroke="#909090"/>
    <rect x="210.0" y="187.0" fill="#ffffff" width="20" height="20" stroke="#909090"/>
    <rect x="230.0" y="187.0" fill="#ffffff" width="20" height="20" stroke="#909090"/>
    <rect x="110.0" y="207.0" fill="#ffffff" width="20" height="20" stroke="#909090"/>
    <rect x="130.0" y="207.0" fill="#ffffff" width="20" height="20" stroke="#909090"/>
    <rect x="150.0" y="207.0" fill="#ffffff" width="20" height="20" stroke="#909090"/>
    <rect x="170.0" y="207.0" fill="#ffffff" width="20" height="20" stroke="#909090"/>
    <rect x="190.0" y="207.0" fill="#ffffff" width="20" height="20" stroke="#909090"/>
    <rect x="210.0" y="207.0" fill="#ffffff" width="20" height="20" stroke="#909090"/>
    <rect x="230.0" y="207.0" fill="#ffffff" width="20" height="20" stroke="#909090"/>
    <rect x="110.0" y="187.0" fill="#ffffff" width="20" height="20" stroke="#909090"/>
    <rect x="130.0" y="187.0" fill="#ffffff" width="20" height="20" stroke="#909090"/>
    <rect x="150.0" y="187.0" fill="#ffffff" width="20" height="20" stroke="#909090"/>
    <rect x="170.0" y="187.0" fill="#ffffff" width="20" height="20" stroke="#909090"/>
    <rect x="190.0" y="187.0" fill="#ffffff" width="20" height="20" stroke="#909090"/>
    <rect x="210.0" y="187.0" fill="#ffffff" width="20" height="20" stroke="#909090"/>
    <rect x="230.0" y="187.0" fill="#ffffff" width="20" height="20" stroke="#909090"/>
    <rect x="110.0" y="207.0" fill="#ffffff" width="20" height="20" stroke="#909090"/>
    <rect x="130.0" y="207.0" fill="#ffffff" width="20" height="20" stroke="#909090"/>
    <rect x="150.0" y="207.0" fill="#ffffff" width="20" height="20" stroke="#909090"/>
    <rect x="170.0" y="207.0" fill="#ffffff" width="20" height="20" stroke="#909090"/>
    <rect x="210.0" y="207.0" fill="#ffffff" width="20" height="20" stroke="#909090"/>
    <rect x="230.0" y="207.0" fill="#ffffff" width="20" height="20" stroke="#909090"/>
    <rect x="110.0" y="227.0" fill="#ffffff" width="20" height="20" stroke="#909090"/>
    <rect x="130.0" y="227.0" fill="#ffffff" width="20" height="20" stroke="#909090"/>
    <rect x="150.0" y="227.0" fill="#ffffff" width="20" height="20" stroke="#909090"/>
    <rect x="170.0" y="227.0" fill="#ffffff" width="20" height="20" stroke="#909090"/>
    <rect x="190.0" y="227.0" fill="#ffffff" width="20" height="20" stroke="#909090"/>
    <rect x="210.0" y="227.0" fill="#ffffff" width="20" height="20" stroke="#909090"/>
    <rect x="230.0" y="227.0" fill="#ffffff" width="20" height="20" stroke="#909090"/>
    <rect x="110.0" y="247.0" fill="#ffffff" width="20" height="20" stroke="#909090"/>
    <rect x="130.0" y="247.0" fill="#ffffff" width="20" height="20" stroke="#909090"/>
    <rect x="150.0" y="247.0" fill="#d9d9d9" width="20" height="20" stroke="#909090"/>
    <rect x="170.0" y="247.0" fill="#d9d9d9" width="20" height="20" stroke="#909090"/>
    <rect x="190.0" y="247.0" fill="#d9d9d9" width="20" height="20" stroke="#909090"/>
    <rect x="210.0" y="247.0" fill="#d9d9d9" width="20" height="20" stroke="#909090"/>
    <rect x="230.0" y="247.0" fill="#d9d9d9" width="20" height="20" stroke="#909090"/>
    <rect x="110.0" y="227.0" fill="#ffffff" width="20" height="20" stroke="#909090"/>
    <rect x="130.0" y="227.0" fill="#ffffff" width="20" height="20" stroke="#909090"/>
    <rect x="150.0" y="227.0" fill="#ffffff" width="20" height="20" stroke="#909090"/>
    <rect x="170.0" y="227.0" fill="#d9d9d9" width="20" height="20" stroke="#909090"/>
    <rect x="190.0" y="227.0" fill="#d9d9d9" width="20" height="20" stroke="#909090"/>
    <rect x="210.0" y="227.0" fill="#d9d9d9" width="20" height="20" stroke="#909090"/>
    <rect x="230.0" y="227.0" fill="#d9d9d9" width="20" height="20" stroke="#909090"/>
    <rect x="110.0" y="247.0" fill="#d9d9d9" width="20" height="20" stroke="#909090"/>
    <rect x="130.0" y="247.0" fill="#d9d9d9" width="20" height="20" stroke="#909090"/>
    <rect x="150.0" y="247.0" fill="#d9d9d9" width="20" height="20" stroke="#909090"/>
    <rect x="170.0" y="247.0" fill="#d9d9d9" width="20" height="20" stroke="#909090"/>
    <rect x="190.0" y="247.0" fill="#d9d9d9" width="20" height="20" stroke="#909090"/>
    <rect x="210.0" y="247.0" fill="#d9d9d9" width="20" height="20" stroke="#909090"/>
    <rect x="230.0" y="247.0" fill="#d9d9d9" width="20" height="20" stroke="#909090"/>
    <rect x="190.0" y="207.0" fill="#ffffff" width="20" stroke-linejoin="round" height="20" stroke="#bb271a"
        stroke-width="2"/>
    <rect x="108" y="108" fill="none" width="23" rx="4" ry="4" height="18" stroke="#000000"/>
    <polyline fill="none" stroke-width="2" points="123.0,113.0 116.0,117.0 123.0,121.0" stroke-linejoin="round"
        stroke-linecap="round" stroke="#000000"/>
    <rect x="230.0" y="108." fill="none" width="23" rx="4" height="18" ry="4" stroke="#000000"/>
    <polyline stroke-linecap="round" points="218.0,113.0 211.0,117.0 218.0,121.0" transform="matrix(-1.0 0.0 0.0 1.0 456.0 0.0)"
        fill="none" stroke-linejoin="round" stroke="#000000" stroke-width="2"/>
</svg>