<?xml version="1.0" standalone="no"?>
<!DOCTYPE svg PUBLIC "-//W3C//DTD SVG 1.1//EN"
    "http://www.w3.org/Graphics/SVG/1.1/DTD/svg11.dtd">
<!-- Generator: Adobe Illustrator 14.0.0, SVG Export Plug-In . SVG Version: 6.00 Build 43363)  -->
<svg contentScriptType="text/ecmascript" zoomAndPan="magnify" xmlns:xlink="http://www.w3.org/1999/xlink" baseProfile="full"
    contentStyleType="text/css" id="Layer_1" enable-background="new 0 0 70 70" version="1.1" width="70px" xml:space="preserve"
    preserveAspectRatio="xMidYMid meet" viewBox="0 0 70 70" height="70px" xmlns="http://www.w3.org/2000/svg" x="0px" y="0px">              
    <path fill="none" stroke-miterlimit="10" d=
        "M11.224,8.423c-3.22,0-5.794,2.897-5.794,5.794v47.312C5.43,64.425,8.004,67,11.224,67h47.633c3.22,0,5.794-2.575,5.794-5.471 
        V14.217c0-2.897-2.574-5.794-5.794-5.794H11.224z" stroke="#000000" stroke-linecap="round" stroke-linejoin="round"/>            
    <path fill="#F69721" d="M20.68,10.44L20.68,10.44c-1.021,0-1.253-0.671-1.253-1.275V9.063h0.66 
        v0.101c0,0.503,0.197,0.771,0.658,0.771c0.428,0,0.626-0.301,0.626-0.604c0-0.437-0.23-0.638-0.593-0.739L20.35,8.426 
        c-0.593-0.235-0.856-0.537-0.856-1.141c0-0.739,0.494-1.175,1.251-1.175c1.054,0,1.152,0.671,1.152,1.107v0.101h-0.624V7.217 
        c0-0.369-0.165-0.604-0.593-0.604c-0.265,0-0.527,0.168-0.527,0.604c0,0.369,0.165,0.537,0.593,0.705l0.461,0.168 
        c0.56,0.201,0.824,0.537,0.824,1.108C22.03,10.071,21.503,10.44,20.68,10.44L20.68,10.44z 
        M18.275,10.373L18.275,10.373h-0.758 
        l-0.528-3.156l0,0l-0.526,3.156h-0.758L14.949,6.21h0.657l0.527,3.223l0,0l0.528-3.223h0.691l0.561,3.223l0,0L18.44,6.21h0.658 
        L18.275,10.373L18.275,10.373z 
        M14.322,10.373L14.322,10.373l-0.23-1.041h-1.219l-0.263,1.041h-0.66l1.153-4.163h0.824 
        l1.088,4.163H14.322L14.322,10.373z M8.327,8.997L8.327,8.997v0.301c0,1.478,1.549,2.988,3.492,2.988l10.343,0 
        c1.943,0,3.492-1.511,3.492-2.988V8.997c0-1.377-1.351-3.122-3.096-3.257c-0.033-1.242-1.021-2.216-2.24-2.216 
        c-0.494,0-0.923,0.134-1.285,0.403c-0.692-1.578-2.241-2.652-4.052-2.652c-2.438,0-4.414,1.98-4.414,4.499 
        c0,0.032,0,0.066,0,0.134C9.249,6.277,8.327,7.855,8.327,8.997L8.327,8.997z"/>            
    <path fill="#FFFFFF" d="M13.004,8.795L13.004,8.795l0.495-2.048l0,0l0.461,2.048H13.004 L13.004,8.795z 
        M13.103,6.21L13.103,6.21l-1.153,4.163h0.66l0.263-1.041h1.219l0.23,1.041h0.692L13.926,6.21H13.103 L13.103,6.21z"/>            
    <polygon fill="#FFFFFF" points="17.913,9.433 17.913,9.433 17.913,9.433 17.352,6.21 16.661,6.21 16.133,9.433 
        16.133,9.433 15.573,6.21 14.949,6.21 15.705,10.373 16.463,10.373 16.989,7.217 16.989,7.217 17.517,10.373 
        18.275,10.373 19.098,6.21 18.44,6.21 17.913,9.433"/>            
    <path fill="#FFFFFF" d="M21.206,8.09L21.206,8.09l-0.461-0.168 
        c-0.428-0.168-0.593-0.336-0.593-0.705c0-0.436,0.263-0.604,0.527-0.604c0.428,0,0.593,0.235,0.593,0.604v0.101h0.624V7.217 
        c0-0.436-0.098-1.107-1.152-1.107c-0.758,0-1.251,0.436-1.251,1.175c0,0.604,0.263,0.906,0.856,1.141l0.429,0.168 
        c0.362,0.101,0.593,0.302,0.593,0.739c0,0.302-0.198,0.604-0.626,0.604c-0.428,0-0.658-0.269-0.658-0.771V9.063h-0.66v0.101 
        c0,0.604,0.232,1.275,1.253,1.275c0.824,0,1.35-0.369,1.35-1.241C22.03,8.627,21.766,8.292,21.206,8.09L21.206,8.09z"/> </svg>