<?xml version="1.0" standalone="no"?>
<!DOCTYPE svg PUBLIC "-//W3C//DTD SVG 1.1//EN"
    "http://www.w3.org/Graphics/SVG/1.1/DTD/svg11.dtd">
<!-- Generator: Adobe Illustrator 14.0.0, SVG Export Plug-In . SVG Version: 6.00 Build 43363)  -->
<svg contentScriptType="text/ecmascript" zoomAndPan="magnify" xmlns:xlink="http://www.w3.org/1999/xlink" baseProfile="full"
    contentStyleType="text/css" id="Layer_1" enable-background="new 0 0 70 70" version="1.1" width="70px" xml:space="preserve"
    preserveAspectRatio="xMidYMid meet" viewBox="0 0 70 70" height="70px" xmlns="http://www.w3.org/2000/svg" x="0px" y="0px">      
    <g>              
        <path fill="none" stroke-miterlimit="10" d=
            "M12.355,7.581c-3.222,0-5.798,2.576-5.798,5.797v47.018c0,3.22,2.576,5.796,5.798,5.796h47.66c3.222,0,5.798-2.577,5.798-5.796 
            V13.378c0-3.221-2.576-5.797-5.798-5.797H12.355z" stroke="#000000" stroke-linecap="round" stroke-linejoin="round"/>           
        <g>                
            <defs>                     
                <polyline id="SVGID_1_" points="11.711,3.072 11.711,3.072 11.711,11.661 18.369,11.661 18.369,3.072"/>   </defs>                
            <defs>                     
                <polyline id="SVGID_2_" points="11.711,3.072 11.711,3.072 11.711,11.661 18.369,11.661 18.369,3.072"/>   </defs>                
            <clipPath id="SVGID_3_">                     
                <use overflow="visible" xlink:href="#SVGID_1_"
                   />   </clipPath>                
            <clipPath id="SVGID_4_" clip-path="url(#SVGID_3_)">                     
                <use overflow="visible" xlink:href="#SVGID_2_"
                   />   </clipPath>                
            <path fill="#6D6F70" d="M17.551,9.316L17.551,9.316h-1.344V8.79h1.344V9.316L17.551,9.316z 
                M16.194,7.869L16.194,7.869h1.345v0.538h-1.345V7.869L16.194,7.869z 
                M17.539,7.486L17.539,7.486h-1.345V6.947h1.345V7.486 L17.539,7.486z 
                M16.194,6.039L16.194,6.039h1.345v0.526h-1.345V6.039L16.194,6.039z M16.184,5.118L16.184,5.118h1.343v0.538 
                h-1.343V5.118L16.184,5.118z M15.706,9.316L15.706,9.316h-1.344V8.79h1.344V9.316L15.706,9.316z 
                M14.362,7.869L14.362,7.869h1.332 v0.538h-1.332V7.869L14.362,7.869z 
                M15.694,7.486L15.694,7.486h-1.332V6.947h1.332V7.486L15.694,7.486z M14.35,6.039L14.35,6.039 
                h1.345v0.526H14.35V6.039L14.35,6.039z M14.35,5.118L14.35,5.118h1.345v0.538H14.35V5.118L14.35,5.118z 
                M13.874,9.316 L13.874,9.316h-1.345V8.79h1.345V9.316L13.874,9.316z 
                M12.517,7.869L12.517,7.869h1.345v0.538h-1.345V7.869L12.517,7.869z 
                M13.861,7.486L13.861,7.486h-1.345V6.947h1.345V7.486L13.861,7.486z 
                M12.517,6.039L12.517,6.039h1.345v0.526h-1.345V6.039 L12.517,6.039z 
                M12.505,5.118L12.505,5.118h1.344v0.538h-1.344V5.118L12.505,5.118z M12.505,4.197L12.505,4.197h1.344v0.538 
                h-1.344V4.197L12.505,4.197z M14.35,4.197L14.35,4.197h1.345v0.538H14.35V4.197L14.35,4.197z 
                M16.184,4.197L16.184,4.197h1.343 v0.538h-1.343V4.197L16.184,4.197z 
                M17.857,3L17.857,3h-5.671c-0.269,0-0.476,0.204-0.476,0.467v7.619 
                c0,0.264,0.207,0.479,0.476,0.479h5.671c0.269,0,0.488-0.215,0.488-0.479V3.467C18.346,3.204,18.126,3,17.857,3L17.857,3z"
                clip-path="url(#SVGID_4_)"/>  </g>              
        <path fill="none" stroke-miterlimit="10" d=
            "M12.355,7.581c-3.222,0-5.798,2.576-5.798,5.797v47.018c0,3.22,2.576,5.796,5.798,5.796h47.66c3.222,0,5.798-2.577,5.798-5.796 
            V13.378c0-3.221-2.576-5.797-5.798-5.797H12.355z" stroke="#000000" stroke-linecap="round" stroke-linejoin="round"/>              
        <path fill="none" stroke-miterlimit="10" d=
            "M12.355,7.581c-3.222,0-5.798,2.576-5.798,5.797v47.018c0,3.22,2.576,5.796,5.798,5.796h47.66c3.222,0,5.798-2.577,5.798-5.796 
            V13.378c0-3.221-2.576-5.797-5.798-5.797H12.355z" stroke="#000000" stroke-linecap="round" stroke-linejoin="round"/>           
        <g>                
            <defs>                     
                <polyline id="SVGID_5_" points="11.711,3.072 11.711,3.072 11.711,11.661 18.369,11.661 18.369,3.072"/>   </defs>                
            <defs>                     
                <polyline id="SVGID_6_" points="11.711,3.072 11.711,3.072 11.711,11.661 18.369,11.661 18.369,3.072"/>   </defs>                
            <clipPath id="SVGID_7_">                     
                <use overflow="visible" xlink:href="#SVGID_5_"
                   />   </clipPath>                
            <clipPath id="SVGID_8_" clip-path="url(#SVGID_7_)">                     
                <use overflow="visible" xlink:href="#SVGID_6_"
                   />   </clipPath>                
            <path fill="#6D6F70" d="M17.551,9.316L17.551,9.316h-1.344V8.79h1.344V9.316L17.551,9.316z 
                M16.194,7.869L16.194,7.869h1.345v0.538h-1.345V7.869L16.194,7.869z 
                M17.539,7.486L17.539,7.486h-1.345V6.947h1.345V7.486 L17.539,7.486z 
                M16.194,6.039L16.194,6.039h1.345v0.526h-1.345V6.039L16.194,6.039z M16.184,5.118L16.184,5.118h1.343v0.538 
                h-1.343V5.118L16.184,5.118z M15.706,9.316L15.706,9.316h-1.344V8.79h1.344V9.316L15.706,9.316z 
                M14.362,7.869L14.362,7.869h1.332 v0.538h-1.332V7.869L14.362,7.869z 
                M15.694,7.486L15.694,7.486h-1.332V6.947h1.332V7.486L15.694,7.486z M14.35,6.039L14.35,6.039 
                h1.345v0.526H14.35V6.039L14.35,6.039z M14.35,5.118L14.35,5.118h1.345v0.538H14.35V5.118L14.35,5.118z 
                M13.874,9.316 L13.874,9.316h-1.345V8.79h1.345V9.316L13.874,9.316z 
                M12.517,7.869L12.517,7.869h1.345v0.538h-1.345V7.869L12.517,7.869z 
                M13.861,7.486L13.861,7.486h-1.345V6.947h1.345V7.486L13.861,7.486z 
                M12.517,6.039L12.517,6.039h1.345v0.526h-1.345V6.039 L12.517,6.039z 
                M12.505,5.118L12.505,5.118h1.344v0.538h-1.344V5.118L12.505,5.118z M12.505,4.197L12.505,4.197h1.344v0.538 
                h-1.344V4.197L12.505,4.197z M14.35,4.197L14.35,4.197h1.345v0.538H14.35V4.197L14.35,4.197z 
                M16.184,4.197L16.184,4.197h1.343 v0.538h-1.343V4.197L16.184,4.197z 
                M17.857,3L17.857,3h-5.671c-0.269,0-0.476,0.204-0.476,0.467v7.619 
                c0,0.264,0.207,0.479,0.476,0.479h5.671c0.269,0,0.488-0.215,0.488-0.479V3.467C18.346,3.204,18.126,3,17.857,3L17.857,3z"
                clip-path="url(#SVGID_8_)"/>  </g> </g> </svg>