<?xml version="1.0" standalone="no"?>
<!DOCTYPE svg PUBLIC "-//W3C//DTD SVG 1.1//EN"
    "http://www.w3.org/Graphics/SVG/1.1/DTD/svg11.dtd">
<!-- Generator: Adobe Illustrator 14.0.0, SVG Export Plug-In . SVG Version: 6.00 Build 43363)  -->
<svg contentScriptType="text/ecmascript" zoomAndPan="magnify" xmlns:xlink="http://www.w3.org/1999/xlink" baseProfile="full"
    contentStyleType="text/css" id="Layer_1" enable-background="new 0 0 70 70" version="1.1" width="70px" xml:space="preserve"
    preserveAspectRatio="xMidYMid meet" viewBox="0 0 70 70" height="70px" xmlns="http://www.w3.org/2000/svg" x="0px" y="0px">      
    <g>              
        <path fill="none" stroke-miterlimit="10" d=
            "M12.933,9.926c-2.915,0-5.245,2.622-5.245,5.245v42.831c0,2.622,2.33,4.953,5.245,4.953h43.122c2.914,0,5.245-2.331,5.245-4.953 
            V15.171c0-2.623-2.331-5.245-5.245-5.245H12.933z" stroke="#000000" stroke-linecap="round" stroke-linejoin="round"/>           
        <path fill="#F69721" clip-rule="evenodd" d="M13.806,12.624c0,0.688,0.345,1.376,1.376,1.376 
            C20,14,20,14,20,14c0.688,0,1.376-0.688,1.376-1.376c0-4.817,0-4.817,0-4.817c0-1.033-0.688-1.376-1.376-1.376 
            c-4.817,0-4.817,0-4.817,0c-1.032,0-1.376,0.344-1.376,1.376V12.624z" fill-rule="evenodd"/>              
        <path fill="none" stroke-miterlimit="10" d=
            "M12.933,9.926c-2.915,0-5.245,2.622-5.245,5.245v42.831c0,2.622,2.33,4.953,5.245,4.953h43.122c2.914,0,5.245-2.331,5.245-4.953 
            V15.171c0-2.623-2.331-5.245-5.245-5.245H12.933z" stroke="#000000" stroke-linecap="round" stroke-linejoin="round"/>           
        <path fill="#F69721" clip-rule="evenodd" d="M13.806,12.624c0,0.688,0.345,1.376,1.376,1.376 
            C20,14,20,14,20,14c0.688,0,1.376-0.688,1.376-1.376c0-4.817,0-4.817,0-4.817c0-1.033-0.688-1.376-1.376-1.376 
            c-4.817,0-4.817,0-4.817,0c-1.032,0-1.376,0.344-1.376,1.376V12.624z" fill-rule="evenodd"/> </g> </svg>