<?xml version="1.0" standalone="no"?>
<!DOCTYPE svg PUBLIC "-//W3C//DTD SVG 1.1//EN"
    "http://www.w3.org/Graphics/SVG/1.1/DTD/svg11.dtd">
<!-- Generator: Adobe Illustrator 14.0.0, SVG Export Plug-In . SVG Version: 6.00 Build 43363)  -->
<svg contentScriptType="text/ecmascript" zoomAndPan="magnify" xmlns:xlink="http://www.w3.org/1999/xlink" baseProfile="full"
    contentStyleType="text/css" id="Layer_1" enable-background="new 0 0 70 70" version="1.1" width="70px" xml:space="preserve"
    preserveAspectRatio="xMidYMid meet" viewBox="0 0 70 70" height="70px" xmlns="http://www.w3.org/2000/svg" x="0px" y="0px">      
    <g>              
        <path fill="none" stroke-miterlimit="10" d=
            "M9.334,7.382c-2.985,0-5.969,2.984-5.969,5.969v48.746c0,2.984,2.984,5.637,5.969,5.637h49.409c2.984,0,5.637-2.653,5.637-5.637 
            V13.351c0-2.984-2.653-5.969-5.637-5.969H9.334z" stroke="#000000" stroke-linecap="round" stroke-linejoin="round"/>           
        <polygon fill="#2A6A35" points="15.675,12.022 10.161,12.022 10.161,3.071 15.675,3.071 15.675,12.022"/>           
        <path fill="#FFFFFF" d=
            "M10.949,6.765c0,0-2.52,0-3.15-0.569c-0.63-0.568-0.63-2.273-0.63-2.273s2.206,0.142,2.992,0.71 
            C10.634,5.202,10.949,6.765,10.949,6.765L10.949,6.765z"/>           
        <path fill="#2B6B36" d=
            "M10.792,6.907c-0.788,0-2.521,0-3.15-0.569c-0.63-0.568-0.63-2.274-0.63-2.416c0-0.284,0-0.284,0-0.284 
            c0.157,0,0.157,0,0.157,0c0.158,0.142,2.363,0.284,3.15,0.853c0.63,0.568,0.787,2.131,0.945,2.273c0,0.142,0,0.142,0,0.142 
            c-0.315,0-0.315,0-0.315,0S10.949,6.907,10.792,6.907L10.792,6.907z 
            M7.327,4.064c0.157,0.569,0.157,1.706,0.63,1.99 
            c0.315,0.426,1.732,0.568,2.835,0.568c-0.158-0.568-0.473-1.421-0.788-1.848C9.532,4.349,8.114,4.207,7.327,4.064L7.327,4.064z"/>           
        <path fill="#FFFFFF" d=
            "M14.729,10.459c0,0,1.103-1.989,2.048-2.274c0.788-0.142,2.52,0.568,2.52,0.568s-1.26,1.848-2.206,1.99 
            C16.305,11.028,14.729,10.459,14.729,10.459L14.729,10.459z"/>           
        <path fill="#2B6B36" d="M16.62,11.028c-0.787,0-1.89-0.284-2.047-0.284c-0.158-0.143-0.158-0.143-0.158-0.143 
            c0-0.142,0-0.142,0-0.142c0.158-0.284,1.26-2.131,2.205-2.416c0.158,0,0.315,0,0.472,0c0.788,0,2.206,0.568,2.206,0.568 
            c0.314,0.142,0.314,0.142,0.314,0.142c-0.157,0.142-0.157,0.142-0.157,0.142c0,0.143-1.26,1.848-2.206,2.132 
            C17.092,11.028,16.935,11.028,16.62,11.028L16.62,11.028z M15.044,10.459c0.315,0,1.103,0.285,1.575,0.285 
            c0.158,0,0.315-0.143,0.472-0.143c0.63-0.142,1.418-1.137,1.891-1.706c-0.473-0.142-1.417-0.567-1.891-0.567 
            c-0.157,0-0.157,0-0.314,0.142C16.147,8.612,15.36,9.749,15.044,10.459L15.044,10.459z"/>              
        <path fill="none" stroke-miterlimit="10" d=
            "M9.334,7.382c-2.985,0-5.969,2.984-5.969,5.969v48.746c0,2.984,2.984,5.637,5.969,5.637h49.409c2.984,0,5.637-2.653,5.637-5.637 
            V13.351c0-2.984-2.653-5.969-5.637-5.969H9.334z" stroke="#000000" stroke-linecap="round" stroke-linejoin="round"/>           
        <polygon fill="#2A6A35" points="15.675,12.022 10.161,12.022 10.161,3.071 15.675,3.071 15.675,12.022"/>           
        <path fill="#FFFFFF" d=
            "M10.949,6.765c0,0-2.52,0-3.15-0.569c-0.63-0.568-0.63-2.273-0.63-2.273s2.206,0.142,2.992,0.71 
            C10.634,5.202,10.949,6.765,10.949,6.765L10.949,6.765z"/>           
        <path fill="#2B6B36" d=
            "M10.792,6.907c-0.788,0-2.521,0-3.15-0.569c-0.63-0.568-0.63-2.274-0.63-2.416c0-0.284,0-0.284,0-0.284 
            c0.157,0,0.157,0,0.157,0c0.158,0.142,2.363,0.284,3.15,0.853c0.63,0.568,0.787,2.131,0.945,2.273c0,0.142,0,0.142,0,0.142 
            c-0.315,0-0.315,0-0.315,0S10.949,6.907,10.792,6.907L10.792,6.907z 
            M7.327,4.064c0.157,0.569,0.157,1.706,0.63,1.99 
            c0.315,0.426,1.732,0.568,2.835,0.568c-0.158-0.568-0.473-1.421-0.788-1.848C9.532,4.349,8.114,4.207,7.327,4.064L7.327,4.064z"/>           
        <path fill="#FFFFFF" d=
            "M14.729,10.459c0,0,1.103-1.989,2.048-2.274c0.788-0.142,2.52,0.568,2.52,0.568s-1.26,1.848-2.206,1.99 
            C16.305,11.028,14.729,10.459,14.729,10.459L14.729,10.459z"/>           
        <path fill="#2B6B36" d="M16.62,11.028c-0.787,0-1.89-0.284-2.047-0.284c-0.158-0.143-0.158-0.143-0.158-0.143 
            c0-0.142,0-0.142,0-0.142c0.158-0.284,1.26-2.131,2.205-2.416c0.158,0,0.315,0,0.472,0c0.788,0,2.206,0.568,2.206,0.568 
            c0.314,0.142,0.314,0.142,0.314,0.142c-0.157,0.142-0.157,0.142-0.157,0.142c0,0.143-1.26,1.848-2.206,2.132 
            C17.092,11.028,16.935,11.028,16.62,11.028L16.62,11.028z M15.044,10.459c0.315,0,1.103,0.285,1.575,0.285 
            c0.158,0,0.315-0.143,0.472-0.143c0.63-0.142,1.418-1.137,1.891-1.706c-0.473-0.142-1.417-0.567-1.891-0.567 
            c-0.157,0-0.157,0-0.314,0.142C16.147,8.612,15.36,9.749,15.044,10.459L15.044,10.459z"/> </g> </svg>