<?xml version="1.0" standalone="no"?>
<!DOCTYPE svg PUBLIC "-//W3C//DTD SVG 1.1//EN"
    "http://www.w3.org/Graphics/SVG/1.1/DTD/svg11.dtd">
<!-- Generator: Adobe Illustrator 14.0.0, SVG Export Plug-In . SVG Version: 6.00 Build 43363)  -->
<svg contentScriptType="text/ecmascript" zoomAndPan="magnify" xmlns:xlink="http://www.w3.org/1999/xlink" baseProfile="full"
    contentStyleType="text/css" id="Layer_1" enable-background="new 0 0 70 70" version="1.1" width="70px" xml:space="preserve"
    preserveAspectRatio="xMidYMid meet" viewBox="0 0 70 70" height="70px" xmlns="http://www.w3.org/2000/svg" x="0px" y="0px">      
    <g>              
        <path fill="none" stroke-miterlimit="10" d=
            "M11.925,9.984c-3.066,0-5.519,2.759-5.519,5.518v45.06c0,2.759,2.452,5.21,5.519,5.21h45.363c3.066,0,5.519-2.452,5.519-5.21 
            v-45.06c0-2.758-2.452-5.518-5.519-5.518H11.925z" stroke="#000000" stroke-linecap="round" stroke-linejoin="round"/>           
        <g>                
            <defs>                     
                <polyline id="SVGID_1_" points="8.553,3.241 8.553,3.241 8.553,13.918 25.359,13.918 25.359,3.241"/>   </defs>                
            <defs>                     
                <polyline id="SVGID_2_" points="8.553,3.241 8.553,3.241 8.553,13.918 25.359,13.918 25.359,3.241"/>   </defs>                
            <clipPath id="SVGID_3_">                     
                <use overflow="visible" xlink:href="#SVGID_1_"
                   />   </clipPath>                
            <clipPath id="SVGID_4_" clip-path="url(#SVGID_3_)">                     
                <use overflow="visible" xlink:href="#SVGID_2_"
                   />   </clipPath>                
            <path fill="#282560" d="M10.725,7.588L10.725,7.588c0-0.063,0-0.095,0-0.127 
                c0-2.397,1.918-4.284,4.281-4.284c1.759,0,3.26,1.023,3.931,2.525c0.352-0.255,0.767-0.383,1.246-0.383 
                c1.183,0,2.142,0.927,2.174,2.11c1.693,0.127,3.003,1.79,3.003,3.102v0.287c0,1.407-1.501,2.813-3.388,2.813H11.939 
                c-1.886,0-3.387-1.407-3.387-2.813V10.53C8.553,9.442,9.446,7.939,10.725,7.588L10.725,7.588z" clip-path="url(#SVGID_4_)"/>                
            <polygon fill="#FFFFFF" points="12.93,8.1 12.93,8.1 13.601,8.1 14.271,11.265 14.271,11.265 14.975,8.1 
                15.646,8.1 14.655,12.064 13.856,12.064 12.93,8.1" clip-path="url(#SVGID_4_)"/>                
            <path fill="#FFFFFF" d="M16.7,9.954L16.7,9.954h0.447c0.32,0,0.64-0.192,0.64-0.671 
                c0-0.448-0.192-0.704-0.703-0.704H16.7V9.954L16.7,9.954z 
                M16.061,8.1L16.061,8.1h1.246c0.768,0,1.088,0.479,1.088,1.151 
                c0,0.735-0.416,1.183-1.151,1.183H16.7v1.63h-0.64V8.1L16.061,8.1z" clip-path="url(#SVGID_4_)"/>                
            <path fill="#FFFFFF" d="M21.365,10.657L21.365,10.657v0.064c0,0.735-0.287,1.438-1.214,1.438 
                c-0.99,0-1.311-0.671-1.311-2.078s0.32-2.046,1.311-2.046c1.118,0,1.214,0.832,1.214,1.247v0.064h-0.639V9.283 
                c0-0.383-0.129-0.799-0.575-0.767c-0.448,0-0.671,0.288-0.671,1.566s0.223,1.598,0.671,1.598c0.544,0,0.575-0.607,0.575-0.959 
                v-0.064H21.365L21.365,10.657z" clip-path="url(#SVGID_4_)"/>  </g> </g> </svg>