<?xml version="1.0" standalone="no"?>
<!DOCTYPE svg PUBLIC "-//W3C//DTD SVG 1.1//EN"
    "http://www.w3.org/Graphics/SVG/1.1/DTD/svg11.dtd">
<?xml-stylesheet type="text/css" href="..\misc.css" ?>
<!-- Generator: Adobe Illustrator 14.0.0, SVG Export Plug-In . SVG Version: 6.00 Build 43363)  -->
<svg contentScriptType="text/ecmascript" zoomAndPan="magnify" xmlns:xlink="http://www.w3.org/1999/xlink" baseProfile="full"
    contentStyleType="text/css" id="Layer_1" enable-background="new 0 0 70 70" version="1.1" width="70px" xml:space="preserve"
    preserveAspectRatio="xMidYMid meet" viewBox="0 0 70 70" height="70px" xmlns="http://www.w3.org/2000/svg" x="0px" y="0px">                    
    <path d="M20.363,33.591c-0.003-0.099-0.015-0.194-0.015-0.294c0-5.58,4.521-10.102,10.101-10.102 
        c4.108,0,7.636,2.457,9.216,5.977c0.824-0.566,1.822-0.9,2.898-0.9c2.771,0,5.024,2.204,5.113,4.955 
        c3.983,0.34,7.081,4.205,7.081,7.284v0.666c0,3.311-3.579,6.66-7.991,6.66H23.233c-4.412,0-7.991-3.35-7.991-6.66v-0.666 
        C15.242,37.961,17.37,34.457,20.363,33.591z"/>                                 
    <path fill="#FFFFFF" d="M25.546,34.849h1.573l1.573,7.41h0.025l1.664-7.41h1.573l-2.34,9.282h-1.886L25.546,34.849z"/>                                          
    <path fill="#FFFFFF" d=
        "M32.903,34.849h2.938c1.781,0,2.562,1.118,2.562,2.704c0,1.664-0.976,2.743-2.717,2.743h-1.301v3.835 
        h-1.482V34.849z 
        M34.386,39.178h1.053c0.793,0,1.482-0.429,1.482-1.6c0-1.001-0.402-1.611-1.586-1.611h-0.949V39.178z"/>                                          
    <path fill="#FFFFFF" d="M45.371,40.803v0.195c0,1.677-0.676,3.314-2.86,3.314c-2.34,0-3.068-1.508-3.068-4.823 
        c0-3.314,0.729-4.823,3.082-4.823c2.639,0,2.795,1.95,2.795,2.912v0.17h-1.482v-0.156c0-0.858-0.26-1.847-1.326-1.808 
        c-1.092,0-1.586,0.677-1.586,3.667c0,2.989,0.494,3.744,1.586,3.744c1.235,0,1.379-1.379,1.379-2.236v-0.156H45.371z"/>  </svg>