<?xml version="1.0" standalone="no"?>
<!--Created with Sketsa SVG Editor (http://www.kiyut.com)-->
<?xml-stylesheet type="text/css" href="..\people.css" ?>
<svg contentScriptType="text/ecmascript" width="100.0px" xmlns:xlink="http://www.w3.org/1999/xlink" baseProfile="full"
    zoomAndPan="magnify" contentStyleType="text/css" height="100.0px" preserveAspectRatio="xMidYMid meet" xmlns="http://www.w3.org/2000/svg"
    version="1.0">
    <path d="M 49.85 25.34 c -6.94 0.0 -12.58 -5.54 -12.58 -12.36 C 37.26 6.16 42.9 0.62 49.85 0.62 c 6.95 0.0 12.58 
        5.53 12.58 12.36 C 62.43 19.81 56.8 25.34 49.85 25.34 z"/>
    <path d="M 87.56 76.53 l -9.91 -34.17 c -3.96 -13.65 -15.51 -13.23 -15.51 -13.23 H 37.55 c 0.0 0.0 -11.55 -0.43 
        -15.51 13.23 l -9.91 34.17 c -0.95 3.19 0.83 5.63 3.65 6.43 c 2.81 0.8 5.7 -0.6 6.44 -3.16 l 9.63 -33.3 l 4.71 
        -0.01 L 21.16 99.63 H 78.54 L 63.14 46.49 l 4.7 0.01 l 9.64 33.3 c 0.74 2.56 3.62 3.96 6.44 3.16 C 86.73 82.16 
        88.51 79.72 87.56 76.53 z M 68.45 78.05 c 0.0 10.17 -8.33 18.42 -18.6 18.42 c -10.28 0.0 -18.61 -8.25 -18.61 
        -18.42 c 0.0 -10.18 8.33 -18.42 18.61 -18.42 C 60.12 59.63 68.45 67.87 68.45 78.05 z"/>
    <path d="M 53.85 73.57 c -2.24 -1.04 -3.19 -3.68 -2.13 -5.89 c 1.06 -2.2 3.72 -3.15 5.95 -2.1 c 2.23 1.05 3.18 3.69 
        2.13 5.9 C 58.74 73.67 56.08 74.62 53.85 73.57 z"/>
    <path d="M 58.01 79.73 c -0.44 0.93 -2.79 5.84 -3.27 6.82 c -1.32 2.76 -4.66 3.94 -7.45 2.64 c -0.91 -0.43 -1.6 
        -1.09 -2.18 -1.82 c -0.88 -1.1 -1.48 -4.05 -1.48 -4.05 c -0.93 0.65 -3.3 2.13 -4.29 2.82 c -0.89 0.62 -2.13 0.41 
        -2.76 -0.48 c -0.63 -0.88 -0.42 -2.1 0.47 -2.73 c 1.41 -0.98 5.33 -3.62 5.33 -3.62 c 1.19 -0.83 2.84 -0.56 3.67 
        0.63 l 1.66 3.35 l 2.65 -5.29 l -2.31 -0.67 c -0.51 -0.14 -0.93 -0.49 -1.17 -0.95 l -2.27 -4.31 c -0.49 -0.93 
        -0.13 -2.09 0.82 -2.57 c 0.94 -0.49 2.1 -0.12 2.6 0.81 c 0.0 0.0 1.36 2.6 1.89 3.6 c 1.25 0.36 6.31 1.82 6.31 
        1.82 c 0.27 0.08 0.51 0.24 0.71 0.42 C 58.16 76.89 58.64 78.42 58.01 79.73 z"/>
</svg>