<?xml version="1.0" standalone="no"?>
<!--Created with Sketsa SVG Editor (http://www.kiyut.com)-->
<?xml-stylesheet type="text/css" href="..\people.css" ?>
<svg contentScriptType="text/ecmascript" width="100.0px" xmlns:xlink="http://www.w3.org/1999/xlink" baseProfile="full"
    zoomAndPan="magnify" contentStyleType="text/css" height="100.0px" preserveAspectRatio="xMidYMid meet" xmlns="http://www.w3.org/2000/svg"
    version="1.0">
    <path d="M 51.02 28.34 c 7.8 -0.01 14.12 -6.26 14.12 -13.96 c 0.0 -7.72 -6.32 -13.97 -14.12 -13.96 c -7.81 -0.02 
        -14.13 6.23 -14.12 13.96 C 36.89 22.08 43.22 28.33 51.02 28.34 L 51.02 28.34 z"/>
    <path d="M 51.02 57.54 H 36.05 V 46.84 L 24.65 58.22 c -5.17 5.11 -12.16 -1.43 -6.98 -6.56 l 18.89 -18.72 c 1.54 
        -1.49 3.22 -2.45 5.9 -2.47 h 8.57 l 0.0 0.0 h 8.39 c 2.65 0.02 4.44 0.95 6.01 2.47 l 19.11 18.95 c 4.92 4.84 
        -2.26 11.44 -6.98 6.5 L 65.82 46.78 v 10.76 H 51.02 L 51.02 57.54 L 51.02 57.54 z"/>
    <path d="M 65.77 63.04 L 54.54 74.14 l 8.28 8.13 l -8.45 8.35 c -5.0 4.92 1.87 11.96 7.03 6.9 l 13.33 -13.73 c 2.89 
        -2.9 3.68 -8.24 0.63 -11.27 C 75.32 72.49 65.77 63.04 65.77 63.04 L 65.77 63.04 z"/>
    <path d="M 36.05 63.04 l 11.23 11.1 l -8.22 8.13 l 8.45 8.35 c 4.97 4.92 -1.91 11.96 -7.04 6.9 L 27.09 83.78 c -2.86 
        -2.9 -3.65 -8.24 -0.57 -11.27 C 26.52 72.49 36.05 63.04 36.05 63.04 L 36.05 63.04 z"/>
</svg>