<?xml version="1.0" standalone="no"?>
<!--Created with Sketsa SVG Editor (http://www.kiyut.com)-->
<?xml-stylesheet type="text/css" href="..\people.css" ?>
<svg contentScriptType="text/ecmascript" width="100.0px" xmlns:xlink="http://www.w3.org/1999/xlink" baseProfile="full"
    zoomAndPan="magnify" contentStyleType="text/css" height="100.0px" preserveAspectRatio="xMidYMid meet" xmlns="http://www.w3.org/2000/svg"
    version="1.0">
    <rect x="49.2" width="47.99" y="73.7" height="5.05"/>
    <path d="M 80.69 53.85 c 0.0 -4.07 -6.39 -4.07 -6.39 0.0 c 0.0 1.78 0.0 3.57 0.0 5.35 c -0.0 0.0 -0.01 0.0 -0.01 0.0 
        c -3.24 0.0 -6.49 0.0 -9.74 0.0 c 0.61 -0.91 1.22 -1.81 1.82 -2.72 c 0.94 -1.4 1.0 -2.68 0.41 -3.79 c -0.3 -0.57 
        -1.02 -1.15 -1.74 -1.57 c -3.47 -1.98 -6.94 -3.97 -10.4 -5.95 c -3.57 -2.04 -6.79 3.41 -3.22 5.45 c 2.34 1.34 
        4.68 2.68 7.01 4.01 c -1.41 2.11 -2.83 4.22 -4.24 6.32 c -0.1 0.16 -1.83 2.21 -1.83 4.56 c 0.0 3.44 2.9 6.32 
        6.39 6.32 c 5.18 0.0 10.36 0.0 15.54 0.0 c 2.86 0.0 5.33 -1.94 6.12 -4.55 c 0.18 -0.38 0.28 -0.83 0.28 -1.34 C 
        80.69 61.91 80.69 57.88 80.69 53.85 z"/>
    <circle cx="64.92" r="9.76" cy="10.28"/>
    <circle cx="89.72" r="7.21" cy="65.49"/>
    <path d="M 71.21 42.52 c -4.78 -2.78 -9.56 -5.56 -14.34 -8.34 c 0.0 -4.08 0.0 -8.15 0.0 -12.23 c 0.14 -1.83 -0.24 
        -3.7 -1.14 -5.22 C 53.1 12.31 47.9 11.5 43.49 13.56 c -8.98 4.2 -17.96 8.4 -26.95 12.6 c -2.11 0.99 -3.46 2.92 
        -4.05 5.08 H 12.5 L 2.5 64.08 h 16.3 c 0.0 10.12 0.0 20.25 0.0 30.37 c 0.0 2.75 2.32 5.05 5.11 5.05 c 2.79 0.0 
        5.11 -2.3 5.11 -5.05 c 0.0 -10.12 0.0 -20.25 0.0 -30.37 h 16.22 l -8.49 -27.87 c 4.11 -1.92 8.21 -3.84 12.32 
        -5.76 v 3.45 c -0.02 2.35 0.31 4.73 2.22 5.84 c 5.35 3.11 10.7 6.22 16.05 9.33 C 71.61 51.55 75.46 44.99 71.21 
        42.52 z"/>
</svg>