<?xml version="1.0" standalone="no"?>
<!--Created with Sketsa SVG Editor (http://www.kiyut.com)-->
<?xml-stylesheet type="text/css" href="..\people.css" ?>
<svg contentScriptType="text/ecmascript" width="100.0px" xmlns:xlink="http://www.w3.org/1999/xlink" baseProfile="full"
    zoomAndPan="magnify" contentStyleType="text/css" height="100.0px" preserveAspectRatio="xMidYMid meet" xmlns="http://www.w3.org/2000/svg"
    version="1.0">
    <circle cx="34.26" r="10.55" cy="10.93"/>
    <path d="M 65.18 86.21 L 43.8 70.59 l -6.32 -46.24 c -1.03 0.24 -2.11 0.37 -3.22 0.37 c -3.37 0.0 -6.47 -1.19 -8.88 
        -3.16 L 5.5 43.55 l 9.24 7.83 l -1.58 3.91 L 15.02 99.38 h 6.31 l 1.32 -29.48 l 6.6 9.91 L 31.09 99.38 h 5.01 V 
        75.9 l -4.53 -10.99 L 55.84 82.64 L 47.06 99.38 h 21.9 l 24.93 -24.0 C 77.39 71.62 54.91 62.6 65.18 86.21 z M 
        17.11 44.98 L 14.21 42.5 l 5.28 -5.35 L 17.11 44.98 z M 37.4 65.91 l -6.85 -5.01 l 3.19 -12.13 L 37.4 65.91 z"/>
</svg>