<?xml version="1.0" standalone="no"?>
<!--Created with Sketsa SVG Editor (http://www.kiyut.com)-->
<?xml-stylesheet type="text/css" href="..\people.css" ?>
<svg contentScriptType="text/ecmascript" width="100.0px" xmlns:xlink="http://www.w3.org/1999/xlink" baseProfile="full"
    zoomAndPan="magnify" contentStyleType="text/css" height="100.0px" preserveAspectRatio="xMidYMid meet" xmlns="http://www.w3.org/2000/svg"
    version="1.0">
    <path d="M 36.86 82.46 v 9.52 h 8.56 v 7.23 L 55.39 99.21 v -7.23 h 7.89 v -9.52 l -7.89 9.92E-4 l -0.0 -7.01 c 
        18.69 -2.42 33.17 -18.25 33.17 -37.37 C 88.56 17.29 71.44 0.37 50.4 0.37 C 29.36 0.37 12.25 17.29 12.25 38.08 c 
        -0.0 19.12 14.48 34.95 33.17 37.38 v 7.0 H 36.86 z M 22.22 38.08 C 22.22 22.72 34.86 10.23 50.4 10.23 c 15.54 
        0.0 28.18 12.49 28.18 27.85 C 78.58 53.44 65.94 65.93 50.4 65.93 C 34.86 65.93 22.22 53.44 22.22 38.08 z"/>
</svg>