<?xml version="1.0" standalone="no"?>
<!--Created with Sketsa SVG Editor (http://www.kiyut.com)-->
<?xml-stylesheet type="text/css" href="..\people.css" ?>
<svg contentScriptType="text/ecmascript" width="100.0px" xmlns:xlink="http://www.w3.org/1999/xlink" baseProfile="full"
    zoomAndPan="magnify" contentStyleType="text/css" height="100.0px" preserveAspectRatio="xMidYMid meet" xmlns="http://www.w3.org/2000/svg"
    version="1.0">
    <path d="M 79.36 28.59 l 8.75 -8.76 l 8.03 8.04 L 99.3 0.5 L 71.95 3.66 l 8.03 8.04 L 71.23 20.45 C 53.98 7.2 29.1 
        8.45 13.32 24.25 c -17.16 17.18 -17.16 45.12 0.0 62.29 c 17.16 17.17 45.09 17.17 62.25 0.0 C 91.35 70.75 92.61 
        45.85 79.36 28.59 z M 21.46 78.4 c -12.68 -12.68 -12.68 -33.32 0.0 -46.01 c 12.67 -12.68 33.3 -12.68 45.98 0.0 c 
        12.68 12.69 12.68 33.33 0.0 46.01 C 54.76 91.08 34.13 91.08 21.46 78.4 z"/>
</svg>