<?xml version="1.0" standalone="no"?>
<!--Created with Sketsa SVG Editor (http://www.kiyut.com)-->
<?xml-stylesheet type="text/css" href="..\people.css" ?>
<svg contentScriptType="text/ecmascript" width="100.0px" xmlns:xlink="http://www.w3.org/1999/xlink" baseProfile="full"
    zoomAndPan="magnify" contentStyleType="text/css" height="100.0px" preserveAspectRatio="xMidYMid meet" xmlns="http://www.w3.org/2000/svg"
    version="1.0">
    <path d="M 65.65 19.92 H 35.03 c 0.0 0.0 -2.51 0.97 -2.78 2.76 v 42.13 h 4.89 V 46.66 h 3.85 L 40.9 99.63 h 6.6 l 
        0.83 -24.34 h 4.01 L 53.17 99.63 h 6.6 l -0.09 -52.96 h 3.85 v 18.15 h 4.89 V 22.68 C 68.15 20.89 65.65 19.92 
        65.65 19.92 z"/>
    <path d="M 50.34 16.43 c -4.47 0.0 -8.1 -3.58 -8.1 -8.03 C 42.23 3.94 45.87 0.37 50.34 0.37 c 4.48 0.0 8.1 3.57 8.1 
        8.03 C 58.44 12.85 54.82 16.43 50.34 16.43 z"/>
</svg>