<?xml version="1.0" standalone="no"?>
<!--Created with Sketsa SVG Editor (http://www.kiyut.com)-->
<?xml-stylesheet type="text/css" href="..\people.css" ?>
<svg contentScriptType="text/ecmascript" width="100.0px" xmlns:xlink="http://www.w3.org/1999/xlink" baseProfile="full"
    zoomAndPan="magnify" contentStyleType="text/css" height="100.0px" preserveAspectRatio="xMidYMid meet" xmlns="http://www.w3.org/2000/svg"
    version="1.0">
    <path d="M 55.34 29.8 c 3.16 -3.44 -1.85 -8.52 -5.2 -5.44 c -3.34 -3.08 -8.36 2.0 -5.2 5.44 c -2.48 2.6 -4.95 5.21 
        -7.43 7.81 c -2.32 2.44 -0.45 5.75 2.03 6.36 l 3.11 48.12 c 0.0 4.09 3.35 7.41 7.48 7.41 s 7.48 -3.32 7.48 -7.41 
        l 3.11 -48.12 c 2.48 -0.61 4.35 -3.92 2.03 -6.36 C 60.3 35.0 57.82 32.4 55.34 29.8 z"/>
    <path d="M 67.79 21.91 c 0.0 -2.09 -1.71 -3.78 -3.82 -3.78 H 50.14 H 36.32 c -2.11 0.0 -3.82 1.69 -3.82 3.78 c 0.0 
        0.29 0.04 0.57 0.1 0.84 l -0.0 9.9E-4 l 3.58 13.99 c 0.06 -0.07 0.11 -0.15 0.18 -0.22 l 6.55 -6.89 c -0.7 -1.36 
        -0.76 -2.91 -0.11 -4.38 c 0.9 -2.06 2.92 -3.44 5.04 -3.44 c 0.82 0.0 1.59 0.21 2.31 0.6 c 0.72 -0.39 1.49 -0.6 
        2.31 -0.6 c 2.12 0.0 4.14 1.38 5.04 3.44 c 0.64 1.47 0.58 3.02 -0.11 4.38 l 6.55 6.89 c 0.07 0.07 0.12 0.15 0.18 
        0.22 l 3.58 -13.99 l -0.0 -9.9E-4 C 67.75 22.48 67.79 22.2 67.79 21.91 z"/>
    <circle cx="50.14" r="8.07" cy="8.48"/>
</svg>