<?xml version="1.0" standalone="no"?>
<!--Created with Sketsa SVG Editor (http://www.kiyut.com)-->
<?xml-stylesheet type="text/css" href="..\people.css" ?>
<svg contentScriptType="text/ecmascript" width="100.0px" xmlns:xlink="http://www.w3.org/1999/xlink" baseProfile="full"
    zoomAndPan="magnify" contentStyleType="text/css" height="100.0px" preserveAspectRatio="xMidYMid meet" xmlns="http://www.w3.org/2000/svg"
    version="1.0">
    <circle cx="27.64" r="7.34" cy="23.59"/>
    <circle cx="63.27" r="9.09" cy="9.5"/>
    <path d="M 77.19 61.56 l 13.29 -2.91 l -2.8 -11.63 l -3.93 0.86 l 2.11 -5.57 c -3.39 -6.51 -7.17 -22.5 -15.94 -22.71 
        l -0.32 -1.36 c -1.54 1.2 -3.49 1.91 -5.6 1.91 c -0.61 0.0 -1.2 -0.06 -1.77 -0.17 v 1.42 l -4.76 3.6 l -6.15 
        16.75 l -7.81 2.97 l -0.03 -0.2 l -5.59 -9.97 l -6.16 -3.38 c -1.15 0.73 -2.51 1.16 -3.98 1.16 c -0.95 0.0 -1.85 
        -0.18 -2.68 -0.5 l -3.96 3.27 L 17.19 49.84 L 9.5 56.58 l 1.96 2.49 l 9.65 -6.51 l 1.96 -3.27 l 0.98 3.83 L 
        18.59 70.42 l 2.38 0.69 L 16.21 91.1 l 3.64 1.34 l 7.97 -19.65 c 1.3 0.15 2.64 0.23 4.0 0.27 l 11.39 20.35 l 3.5 
        -1.2 l -7.53 -19.38 c 1.01 -0.09 4.74 -0.46 4.74 -0.46 L 38.45 60.45 h 9.51 l -1.26 -9.14 h -2.38 l -0.21 -1.65 
        l 10.69 -1.81 l 2.41 -3.6 l 2.9 11.63 l -7.13 16.2 l -1.54 24.51 l 7.13 0.55 l 2.66 -20.12 l 3.92 -6.05 l 2.1 
        8.59 L 78.59 99.5 l 6.57 -1.8 l -9.65 -18.69 L 77.19 61.56 z M 80.13 43.49 l -1.42 5.49 l -2.12 0.46 l -0.87 
        -11.56 L 80.13 43.49 z M 39.15 51.32 h -2.61 l 1.03 -6.6 l 1.59 1.85 V 51.32 z"/>
</svg>