<?xml version="1.0" standalone="no"?>
<!--Created with Sketsa SVG Editor (http://www.kiyut.com)-->
<?xml-stylesheet type="text/css" href="..\people.css" ?>
<svg contentScriptType="text/ecmascript" width="100.0px" xmlns:xlink="http://www.w3.org/1999/xlink" baseProfile="full"
    zoomAndPan="magnify" contentStyleType="text/css" height="100.0px" preserveAspectRatio="xMidYMid meet" xmlns="http://www.w3.org/2000/svg"
    version="1.0">
    <path d="M 86.56 53.3 L 86.55 11.64 c 0.0 -0.02 0.0 -0.05 0.01 -0.07 l 0.01 -0.06 V 11.5 c 0.17 -1.83 -0.43 -3.73 
        -1.82 -5.13 c -2.47 -2.5 -6.47 -2.5 -8.94 0.0 c -0.1 0.1 -0.2 0.21 -0.3 0.33 l -0.01 -0.01 l -6.02 6.09 c -0.78 
        -0.79 -1.73 -1.75 -2.79 -2.84 c -2.27 -2.34 -3.39 -2.89 -5.81 -2.35 c -2.41 0.54 -5.32 3.19 -5.32 3.19 l 8.35 
        8.46 l 1.35 1.36 l 8.36 8.46 c 0.0 0.0 2.62 -2.94 3.15 -5.39 c 0.53 -2.44 -0.02 -3.59 -2.33 -5.89 c -0.68 -0.68 
        -1.31 -1.31 -1.88 -1.88 l 2.08 -2.1 l 3.83 -3.87 l 0.03 0.03 c 0.05 -0.07 0.11 -0.14 0.17 -0.2 c 0.85 -0.86 2.23 
        -0.86 3.08 0.0 c 0.39 0.39 0.59 0.89 0.63 1.4 v 0.37 V 53.3 H 50.13 H 0.75 c 0.0 0.0 0.59 2.11 6.33 24.48 c 2.27 
        8.85 4.14 8.59 9.0 8.63 h 3.37 l -0.01 0.03 c 0.0 0.0 0.01 0.0 0.01 0.0 l -1.58 9.46 h 5.01 l 1.99 -9.49 h 50.52 
        l 1.99 9.49 h 5.01 l -1.58 -9.46 c 0.0 0.0 0.01 0.0 0.01 0.0 l -0.01 -0.03 h 3.37 c 4.86 -0.04 6.73 0.22 9.0 
        -8.63 C 98.91 55.41 99.5 53.3 99.5 53.3 H 86.56 z"/>
    <polygon points="52.19,12.66 47.66,15.19 49.88,17.45 54.26,14.79"/>
    <polygon points="56.71,17.31 52.65,20.24 54.96,22.58 58.87,19.54"/>
    <polygon points="60.81,21.53 57.38,25.04 59.54,27.22 62.98,23.77"/>
    <polygon points="64.92,25.77 61.96,29.68 64.27,32.01 67.09,28.0"/>
    <polygon points="69.56,30.54 67.03,34.81 69.35,37.16 71.76,32.8"/>
    <polygon points="44.59,16.9 39.74,19.61 42.21,22.11 46.91,19.25"/>
    <polygon points="49.86,22.25 45.47,25.41 48.0,27.97 52.26,24.67"/>
    <polygon points="55.01,27.45 51.26,31.28 53.37,33.42 57.15,29.62"/>
    <polygon points="59.9,32.4 56.64,36.72 59.16,39.28 62.29,34.83"/>
    <polygon points="65.25,37.83 62.42,42.59 64.93,45.13 67.64,40.25"/>
    <polygon points="36.67,21.32 32.88,23.44 35.56,26.15 39.24,23.92"/>
    <polygon points="42.69,27.42 39.26,29.89 41.97,32.65 45.3,30.06"/>
    <polygon points="48.9,33.7 45.97,36.69 48.03,38.77 50.98,35.81"/>
    <polygon points="54.57,39.45 52.02,42.82 54.74,45.57 57.18,42.09"/>
    <polygon points="60.64,45.59 58.43,49.31 61.12,52.03 63.23,48.22"/>
</svg>