<?xml version="1.0" standalone="no"?>
<!--Created with Sketsa SVG Editor (http://www.kiyut.com)-->
<?xml-stylesheet type="text/css" href="..\people.css" ?>
<svg contentScriptType="text/ecmascript" width="100.0px" xmlns:xlink="http://www.w3.org/1999/xlink" baseProfile="full"
    zoomAndPan="magnify" contentStyleType="text/css" height="100.0px" preserveAspectRatio="xMidYMid meet" xmlns="http://www.w3.org/2000/svg"
    version="1.0">
    <path d="M 55.14 55.1 c 6.52 0.0 11.79 -5.06 11.79 -11.31 c 0.0 -6.25 -5.27 -11.3 -11.79 -11.3 s -11.8 5.06 -11.8 
        11.31 C 43.34 50.05 48.62 55.1 55.14 55.1 z"/>
    <path d="M 44.03 82.59 c 0.0 1.21 1.02 2.81 2.3 2.81 l 0.01 -0.02 h 5.43 l 0.01 0.02 c 1.28 0.0 2.93 -1.57 2.93 
        -2.79 v -9.62 c 0.0 -1.21 -1.65 -2.76 -2.93 -2.76 H 46.33 c -1.2 0.0 -2.17 1.46 -2.3 2.56 l 0.0 0.0 l 0.0 0.0 C 
        51.87 72.79 51.82 82.59 44.03 82.59 L 44.03 82.59 z M 39.08 58.72 c 1.27 -1.17 2.98 -1.86 4.85 -1.86 h 23.26 l 
        23.41 -22.5 c 5.01 -4.83 11.57 1.44 6.55 6.27 L 71.49 65.31 L 71.5 99.0 H 40.72 V 82.64 H 26.81 c -2.9 0.0 -5.25 
        -2.25 -5.25 -5.03 c 0.0 -1.19 0.42 -2.27 1.14 -3.15 L 39.08 58.72 z"/>
    <polygon points="1.89,14.8 4.75,17.55 18.56,4.01 15.7,1.27 9.44,3.54 6.57,0.8 0.8,6.31 3.66,9.07"/>
    <path d="M 23.15 57.8 c -0.27 1.66 0.93 3.17 2.63 3.39 c 1.71 0.27 3.33 -0.92 3.54 -2.52 c 0.26 -1.66 -0.91 -3.17 
        -2.64 -3.39 C 24.98 55.04 23.38 56.16 23.15 57.8 z"/>
    <path d="M 25.86 50.97 c 0.23 -1.57 -0.88 -3.01 -2.51 -3.24 c -1.63 -0.22 -3.13 0.85 -3.36 2.4 c -0.23 1.6 0.89 2.99 
        2.51 3.22 C 24.11 53.6 25.64 52.5 25.86 50.97 z"/>
    <path d="M 22.4 43.26 c 0.21 -1.48 -0.83 -2.85 -2.38 -3.08 c -1.55 -0.2 -2.97 0.81 -3.19 2.29 c -0.22 1.51 0.83 2.83 
        2.37 3.06 C 20.75 45.78 22.19 44.7 22.4 43.26 z"/>
    <path d="M 18.95 35.55 c 0.21 -1.39 -0.79 -2.7 -2.25 -2.9 c -1.48 -0.2 -2.81 0.76 -3.02 2.16 c -0.21 1.42 0.8 2.67 
        2.25 2.9 S 18.75 36.92 18.95 35.55 z"/>
    <path d="M 15.49 27.84 c 0.2 -1.33 -0.75 -2.56 -2.12 -2.74 c -1.4 -0.18 -2.65 0.72 -2.85 2.05 c -0.2 1.35 0.74 2.52 
        2.11 2.74 C 14.01 30.09 15.3 29.14 15.49 27.84 z"/>
    <path d="M 7.35 19.48 c -0.2 1.26 0.7 2.36 1.99 2.56 c 1.29 0.2 2.5 -0.7 2.68 -1.91 c 0.19 -1.24 -0.7 -2.4 -1.99 
        -2.56 C 8.71 17.39 7.53 18.24 7.35 19.48 z"/>
    <path d="M 34.79 46.92 c 0.08 -1.62 1.54 -2.9 3.24 -2.81 c 1.71 0.09 3.01 1.46 2.93 3.12 c -0.06 1.64 -1.52 2.88 
        -3.24 2.79 C 36.02 49.98 34.7 48.59 34.79 46.92 z"/>
    <path d="M 32.85 43.71 c -1.62 -0.07 -2.88 -1.37 -2.79 -2.97 c 0.08 -1.55 1.47 -2.74 3.08 -2.67 c 1.63 0.09 2.86 
        1.39 2.79 2.97 C 35.86 42.61 34.48 43.78 32.85 43.71 z"/>
    <path d="M 27.98 37.37 c -1.54 -0.07 -2.73 -1.3 -2.65 -2.79 c 0.08 -1.48 1.38 -2.63 2.93 -2.54 c 1.54 0.07 2.72 1.33 
        2.65 2.81 C 30.85 36.31 29.53 37.46 27.98 37.37 z"/>
    <path d="M 23.11 31.05 c -1.45 -0.07 -2.59 -1.24 -2.51 -2.65 c 0.08 -1.39 1.31 -2.47 2.78 -2.4 c 1.45 0.07 2.58 1.26 
        2.51 2.65 C 25.83 30.04 24.57 31.14 23.11 31.05 z"/>
    <path d="M 18.24 24.74 c -1.37 -0.07 -2.45 -1.19 -2.37 -2.52 c 0.07 -1.3 1.23 -2.31 2.61 -2.27 c 1.37 0.07 2.44 1.19 
        2.37 2.52 C 20.8 23.77 19.61 24.8 18.24 24.74 z"/>
    <path d="M 11.14 16.06 c 0.07 -1.24 1.16 -2.2 2.46 -2.13 c 1.29 0.05 2.3 1.1 2.23 2.34 c -0.06 1.24 -1.17 2.23 -2.46 
        2.13 C 12.07 18.33 11.07 17.3 11.14 16.06 z"/>
    <path d="M 43.24 34.2 c -1.71 0.09 -3.2 -1.17 -3.26 -2.81 c -0.09 -1.66 1.25 -3.06 2.97 -3.12 c 1.68 -0.07 3.14 1.17 
        3.21 2.85 C 46.27 32.72 44.96 34.13 43.24 34.2 z"/>
    <path d="M 39.53 26.45 c 0.08 1.51 -1.14 2.81 -2.74 2.88 s -2.99 -1.1 -3.06 -2.63 c -0.07 -1.55 1.17 -2.83 2.78 
        -2.92 C 38.09 23.7 39.45 24.87 39.53 26.45 z"/>
    <path d="M 32.89 21.77 c 0.07 1.42 -1.08 2.63 -2.58 2.7 c -1.5 0.07 -2.8 -1.03 -2.86 -2.45 c -0.07 -1.46 1.1 -2.67 
        2.6 -2.74 C 31.53 19.21 32.81 20.31 32.89 21.77 z"/>
    <path d="M 26.26 17.1 c 0.06 1.33 -1.01 2.47 -2.4 2.52 c -1.4 0.07 -2.6 -0.97 -2.66 -2.29 c -0.06 -1.35 1.03 -2.47 
        2.43 -2.54 C 24.99 14.71 26.19 15.75 26.26 17.1 z"/>
    <path d="M 14.94 12.64 c -0.07 -1.26 0.95 -2.31 2.24 -2.36 c 1.28 -0.07 2.39 0.9 2.45 2.13 c 0.06 1.24 -0.94 2.29 
        -2.23 2.34 C 16.11 14.82 14.98 13.86 14.94 12.64 z"/>
    <path d="M 20.74 6.64 c 1.28 -0.18 2.5 0.68 2.68 1.91 c 0.19 1.24 -0.7 2.4 -2.0 2.56 c -1.29 0.2 -2.5 -0.67 -2.68 
        -1.91 C 18.56 7.97 19.46 6.82 20.74 6.64 z"/>
    <path d="M 31.88 11.86 c 0.2 1.3 -0.75 2.52 -2.11 2.7 c -1.36 0.2 -2.64 -0.72 -2.82 -2.0 c -0.19 -1.3 0.76 -2.54 
        2.11 -2.72 C 30.41 9.66 31.69 10.56 31.88 11.86 z"/>
    <path d="M 40.35 15.14 c 0.21 1.39 -0.79 2.65 -2.22 2.85 c -1.43 0.2 -2.78 -0.76 -2.98 -2.11 c -0.2 -1.37 0.8 -2.65 
        2.22 -2.85 C 38.79 12.82 40.14 13.77 40.35 15.14 z"/>
    <path d="M 48.8 18.44 c 0.22 1.44 -0.82 2.76 -2.32 2.99 c -1.49 0.2 -2.91 -0.79 -3.11 -2.23 c -0.21 -1.44 0.82 -2.79 
        2.31 -2.99 C 47.18 15.99 48.59 17.01 48.8 18.44 z"/>
    <path d="M 57.26 21.75 c 0.22 1.51 -0.87 2.9 -2.43 3.12 c -1.56 0.22 -3.04 -0.83 -3.25 -2.32 c -0.22 -1.51 0.85 
        -2.92 2.41 -3.15 C 55.58 19.21 57.03 20.24 57.26 21.75 z"/>
    <path d="M 65.73 25.05 c 0.25 1.57 -0.9 3.03 -2.53 3.26 c -1.63 0.22 -3.18 -0.88 -3.4 -2.43 c -0.23 -1.57 0.89 -3.06 
        2.52 -3.28 C 63.96 22.38 65.49 23.48 65.73 25.05 z"/>
    <path d="M 70.64 25.79 c 1.71 -0.22 3.31 0.92 3.55 2.56 c 0.26 1.62 -0.95 3.15 -2.64 3.39 c -1.7 0.25 -3.32 -0.9 
        -3.54 -2.54 C 67.77 27.57 68.94 26.04 70.64 25.79 z"/>
</svg>