<?xml version="1.0" standalone="no"?>
<!--Created with Sketsa SVG Editor (http://www.kiyut.com)-->
<?xml-stylesheet type="text/css" href="..\people.css" ?>
<svg contentScriptType="text/ecmascript" width="100.0px" xmlns:xlink="http://www.w3.org/1999/xlink" baseProfile="full"
    zoomAndPan="magnify" contentStyleType="text/css" height="100.0px" preserveAspectRatio="xMidYMid meet" xmlns="http://www.w3.org/2000/svg"
    version="1.0">
    <polygon points="56.41,3.83 56.41,94.76 47.98,94.76 47.98,3.83 56.41,3.83"/>
    <path d="M 21.37 17.98 c 4.1 0.02 7.41 -3.33 7.39 -7.49 C 28.79 6.37 25.48 3.02 21.37 3.0 c -4.06 0.02 -7.37 3.37 
        -7.39 7.49 C 14.0 14.65 17.31 18.0 21.37 17.98 L 21.37 17.98 z"/>
    <path d="M 20.28 65.52 v 26.19 c 0.02 4.72 -6.95 4.72 -6.95 0.0 V 65.52 H 4.08 L 13.98 30.74 h -1.59 L 6.59 50.6 c 
        -1.38 4.34 -7.25 2.56 -5.91 -2.05 l 6.46 -21.58 c 0.71 -2.47 3.78 -6.83 9.09 -6.82 h 4.87 l 0.0 0.0 h 5.31 c 
        5.25 -0.01 8.34 4.39 9.14 6.82 l 6.46 21.52 c 1.29 4.65 -4.53 6.57 -5.91 2.05 l -5.8 -19.8 h -1.7 l 9.96 34.78 h 
        -9.25 v 26.24 c -0.0 4.67 -6.95 4.64 -6.95 0.0 v -26.24 H 20.28 L 20.28 65.52 z"/>
    <path d="M 74.15 20.09 c -5.2 0.02 -9.38 4.38 -9.36 9.82 v 23.19 c -0.02 4.5 6.4 4.5 6.41 0.0 V 31.9 h 1.53 V 90.65 
        c -0.02 6.01 8.53 5.83 8.54 0.0 V 56.26 h 1.48 V 90.65 c -0.02 5.83 8.57 6.01 8.59 0.0 V 31.9 h 1.48 v 21.19 c 
        -0.01 4.54 6.37 4.54 6.35 0.0 v -23.02 c 0.01 -5.04 -3.78 -9.96 -9.47 -9.93 L 74.15 20.09 L 74.15 20.09 z"/>
    <path d="M 81.98 17.98 c 4.06 0.02 7.37 -3.33 7.39 -7.49 C 89.35 6.37 86.04 3.02 81.98 3.0 c -4.1 0.02 -7.41 3.37 
        -7.39 7.49 C 74.56 14.65 77.87 18.0 81.98 17.98 L 81.98 17.98 z"/>
</svg>