<?xml version="1.0" standalone="no"?>
<!--Created with Sketsa SVG Editor (http://www.kiyut.com)-->
<?xml-stylesheet type="text/css" href="..\people.css" ?>
<svg contentScriptType="text/ecmascript" width="100.0px" xmlns:xlink="http://www.w3.org/1999/xlink" baseProfile="full"
    zoomAndPan="magnify" contentStyleType="text/css" height="100.0px" preserveAspectRatio="xMidYMid meet" xmlns="http://www.w3.org/2000/svg"
    version="1.0">
    <polygon points="77.16,52.3 50.92,48.03 54.68,45.37 60.99,46.24 67.28,45.37"/>
    <path d="M 60.99 3.26 c 5.26 0.0 9.52 4.21 9.52 9.42 c 0.0 5.2 -3.35 9.42 -9.52 9.42 c -5.26 0.0 -9.53 -4.22 -9.53 
        -9.42 C 51.45 7.48 55.72 3.26 60.99 3.26 z"/>
    <path d="M 63.36 71.34 v 22.77 c 0.0 2.84 2.33 5.14 5.2 5.14 c 2.87 0.0 5.2 -2.3 5.2 -5.14 V 71.34 c 0.0 -2.83 -2.33 
        -5.14 -5.2 -5.14 C 65.69 66.2 63.36 68.51 63.36 71.34 z"/>
    <path d="M 95.22 84.34 c 0.0 1.65 -1.36 2.99 -3.02 2.99 h -15.95 V 72.42 h 6.9 V 57.52 c 0.0 -1.64 1.35 -2.98 3.01 
        -2.98 h 6.04 c 1.66 0.0 3.02 1.34 3.02 2.98 V 84.34 z"/>
    <path d="M 60.87 87.33 H 29.9 c -1.67 0.0 -3.02 -1.34 -3.02 -2.99 V 57.52 c 0.0 -1.64 1.35 -2.98 3.02 -2.98 h 6.04 c 
        1.66 0.0 3.02 1.34 3.02 2.98 v 14.9 h 21.91 V 87.33 z"/>
    <path d="M 44.56 55.16 c -0.47 2.8 1.45 5.45 4.29 5.91 l 22.72 3.7 c 2.83 0.45 5.51 -1.44 5.98 -4.24 c 0.47 -2.8 
        -1.45 -5.45 -4.29 -5.91 L 50.54 50.92 C 47.71 50.47 45.03 52.36 44.56 55.16 z"/>
    <path d="M 18.94 26.97 C 11.53 26.97 5.5 21.01 5.5 13.67 C 5.5 6.34 11.53 0.38 18.94 0.38 c 7.41 0.0 13.45 5.96 
        13.45 13.3 C 32.39 21.01 26.35 26.97 18.94 26.97 L 18.94 26.97 z M 18.94 23.67 c 5.58 0.0 10.12 -4.49 10.12 
        -10.01 c 0.0 -5.51 -4.54 -10.01 -10.12 -10.01 c -5.58 -4.77E-7 -10.12 4.49 -10.12 10.01 C 8.83 19.19 13.36 23.67 
        18.94 23.67 L 18.94 23.67 z"/>
    <path d="M 19.01 15.43 c -0.3 0.14 -0.67 0.12 -0.97 -0.07 c -0.25 -0.16 -0.41 -0.41 -0.45 -0.69 L 17.58 6.94 c 0.0 
        -0.55 0.46 -1.0 1.01 -1.0 c 0.56 0.0 1.01 0.45 1.01 1.0 l 0.0 0.0 v 5.99 l 5.18 -2.41 c 0.5 -0.24 1.11 -0.02 
        1.35 0.47 l 0.0 0.0 c 0.24 0.5 0.02 1.1 -0.48 1.33 l 0.0 0.0 L 19.01 15.43 z"/>
    <path d="M 60.99 29.6 l 12.35 -1.99 v 8.59 c 1.97 1.46 6.1 4.53 6.1 4.53 c 0.59 0.58 0.35 1.25 0.21 1.44 c -0.35 
        0.45 -1.0 0.55 -1.46 0.21 l -7.7 -5.75 c -1.6 -1.11 -3.8 -0.73 -4.93 0.84 c -1.13 1.58 -0.74 3.76 0.85 4.87 l 
        13.15 9.13 c 0.61 0.43 1.48 0.72 2.35 0.72 l 0.0 0.0 c 0.74 0.0 1.61 -0.3 2.25 -0.76 c 1.38 -0.97 1.89 -2.69 
        1.42 -4.27 l -4.88 -14.27 c -1.3 -3.54 -4.59 -7.72 -9.53 -7.72 H 50.8 c -4.94 0.0 -8.23 4.17 -9.53 7.72 l -4.88 
        14.27 c -0.47 1.58 0.04 3.3 1.42 4.27 c 0.64 0.45 1.51 0.76 2.25 0.76 l 0.0 0.0 c 0.87 0.0 1.74 -0.29 2.35 -0.72 
        l 13.15 -9.13 c 1.59 -1.11 1.97 -3.29 0.85 -4.87 c -1.13 -1.58 -3.33 -1.95 -4.92 -0.84 l -7.7 5.75 c -0.46 0.34 
        -1.1 0.25 -1.45 -0.21 c -0.14 -0.19 -0.38 -0.85 0.21 -1.44 c 0.0 0.0 4.13 -3.07 6.1 -4.53 v -8.59 L 60.99 29.6 
        z"/>
</svg>