<?xml version="1.0" standalone="no"?>
<!--Created with Sketsa SVG Editor (http://www.kiyut.com)-->
<?xml-stylesheet type="text/css" href="..\people.css" ?>
<svg contentScriptType="text/ecmascript" width="100.0px" xmlns:xlink="http://www.w3.org/1999/xlink" baseProfile="full"
    zoomAndPan="magnify" contentStyleType="text/css" height="100.0px" preserveAspectRatio="xMidYMid meet" xmlns="http://www.w3.org/2000/svg"
    version="1.0">
    <path d="M 30.22 21.28 c 5.8 -0.02 10.5 -4.66 10.51 -10.39 C 40.72 5.16 36.03 0.51 30.22 0.5 C 24.44 0.51 19.74 5.16 
        19.72 10.89 C 19.74 16.62 24.44 21.27 30.22 21.28 L 30.22 21.28 z"/>
    <path d="M 22.25 33.88 C 20.37 21.94 37.79 18.32 40.58 30.55 l 4.76 23.39 h 17.7 c 5.17 0.02 7.85 4.11 7.87 7.89 v 
        31.79 c -0.01 7.75 -11.13 7.71 -11.13 -0.1 c -0.0 -7.27 0.0 -24.78 0.0 -24.78 H 37.16 c -5.26 0.01 -8.57 -3.57 
        -9.42 -7.68 L 22.25 33.88 L 22.25 33.88 z"/>
    <path d="M 51.5 70.83 c 5.86 0.0 5.83 8.59 0.05 8.6 H 35.35 C 27.44 79.43 19.57 73.56 17.49 64.49 L 12.47 40.17 c 
        -1.05 -5.51 6.99 -7.35 8.18 -1.69 l 4.81 23.24 c 1.32 5.95 5.77 9.11 11.13 9.11 H 51.5 L 51.5 70.83 z"/>
    <path d="M 73.44 17.9 l 7.82 -3.73 c 1.12 -0.51 0.39 -2.13 -0.78 -1.59 l -6.63 2.92 V 7.77 c -0.02 -1.24 -1.89 -1.18 
        -1.86 0.0 v 9.26 C 72.0 17.75 72.76 18.25 73.44 17.9 L 73.44 17.9 z"/>
    <path d="M 73.49 0.96 C 65.01 0.95 58.14 7.74 58.12 16.11 c 0.01 8.38 6.88 15.17 15.37 15.15 c 8.46 0.02 15.32 -6.77 
        15.32 -15.15 C 88.82 7.74 81.95 0.95 73.49 0.96 z M 73.49 28.71 c -7.05 0.0 -12.75 -5.64 -12.73 -12.59 C 60.74 
        9.16 66.45 3.52 73.49 3.52 c 7.02 9.89E-4 12.72 5.64 12.73 12.6 C 86.21 23.07 80.51 28.71 73.49 28.71 z"/>
    <path d="M 73.44 17.9 l 7.82 -3.73 c 1.12 -0.51 0.39 -2.13 -0.78 -1.59 l -6.63 2.92 V 7.77 c -0.02 -1.24 -1.89 -1.18 
        -1.86 0.0 v 9.26 C 72.0 17.75 72.76 18.25 73.44 17.9 L 73.44 17.9 z"/>
</svg>