<?xml version="1.0" standalone="no"?>
<!--Created with Sketsa SVG Editor (http://www.kiyut.com)-->
<?xml-stylesheet type="text/css" href="..\people.css" ?>
<svg contentScriptType="text/ecmascript" width="100.0px" xmlns:xlink="http://www.w3.org/1999/xlink" baseProfile="full"
    zoomAndPan="magnify" contentStyleType="text/css" height="100.0px" preserveAspectRatio="xMidYMid meet" xmlns="http://www.w3.org/2000/svg"
    version="1.0">
    <path d="M 57.65 18.57 c 5.7 0.0 8.01 4.64 8.87 7.19 l 7.0 22.72 c 1.4 4.89 -4.9 6.91 -6.4 2.15 l -6.3 -20.86 h 
        -1.83 L 69.91 66.89 H 59.85 v 28.93 c 0.0 4.93 -7.51 4.91 -7.51 0.0 V 66.7 h -3.06 l 0.01 29.08 c 0.0 4.97 -7.55 
        4.97 -7.55 0.0 l -0.0 -28.89 H 31.64 l 10.83 -37.11 h -1.69 l -6.3 20.94 c -1.5 4.56 -7.85 2.69 -6.4 -2.2 L 
        35.08 25.77 c 0.75 -2.59 3.05 -7.19 8.8 -7.19 H 57.65 z"/>
    <circle cx="50.8" r="8.16" cy="8.81"/>
</svg>