<?xml version="1.0" standalone="no"?>
<!--Created with Sketsa SVG Editor (http://www.kiyut.com)-->
<?xml-stylesheet type="text/css" href="..\people.css" ?>
<svg contentScriptType="text/ecmascript" width="100.0px" xmlns:xlink="http://www.w3.org/1999/xlink" baseProfile="full"
    zoomAndPan="magnify" contentStyleType="text/css" height="100.0px" preserveAspectRatio="xMidYMid meet" xmlns="http://www.w3.org/2000/svg"
    version="1.0">
    <path d="M 51.53 16.36 c -4.48 0.0 -8.12 -3.59 -8.12 -8.05 C 43.41 3.87 47.04 0.25 51.53 0.25 c 4.49 0.0 8.13 3.62 
        8.13 8.06 C 59.65 12.77 56.02 16.36 51.53 16.36 z" transform="matrix(1.0 0.0 0.0 1.0 -0.0 -3.81E-6)"/>
    <path d="M 59.41 34.73 L 71.54 57.11 l 2.9 -1.95 L 61.92 19.59 h -9.98 h -0.41 H 51.11 h -9.98 L 28.63 55.16 l 2.9 
        1.95 l 12.13 -22.38 c 0.0 0.0 1.53 0.0 1.53 3.88 L 32.03 69.89 h 12.51 L 48.59 99.5 h 2.53 h 0.41 h 0.41 h 2.53 
        l 4.05 -29.61 h 12.51 L 57.88 38.61 C 57.88 34.73 59.41 34.73 59.41 34.73 z" transform="matrix(1.0 0.0 0.0 1.0 -0.0 -3.81E-6)"/>
</svg>