<?xml version="1.0" standalone="no"?>
<!--Created with Sketsa SVG Editor (http://www.kiyut.com)-->
<?xml-stylesheet type="text/css" href="..\op_amps.css" ?>
<svg contentScriptType="text/ecmascript" width="100.0px" xmlns:xlink="http://www.w3.org/1999/xlink" baseProfile="full"
    zoomAndPan="magnify" contentStyleType="text/css" height="100.0px" preserveAspectRatio="xMidYMid meet" xmlns="http://www.w3.org/2000/svg"
    version="1.0">
    <polygon points="33.4,8.8 41.7,1.8 72.5,1.8 78.8,8.7 70.4,15.8 39.8,15.8"/>
    <polygon points="81.5,11.4 87.9,18.2 85.0,40.0 76.5,47.2 70.0,40.3 73.0,18.3"/>
    <polygon points="75.8,52.6 82.4,59.5 79.4,81.4 70.9,88.4 64.5,81.5 67.4,59.6"/>
    <polygon points="61.4,84.0 67.8,91.0 59.6,97.9 28.6,97.9 22.2,91.1 30.6,84.0"/>
    <polygon points="30.9,59.5 28.0,81.4 19.6,88.4 13.2,81.6 16.2,59.6 24.6,52.6"/>
    <polygon points="73.3,49.7 65.0,56.7 34.0,56.7 27.7,49.7 36.3,42.7 67.2,42.7"/>
    <polygon points="36.6,18.2 33.6,40.2 25.2,47.2 18.8,40.4 21.8,18.2 30.2,11.4"/>
    <ellipse rx="6" ry="6" cx="87" cy="92.7"/>
</svg>