<?xml version="1.0" standalone="no"?>
<!--Created with Sketsa SVG Editor (http://www.kiyut.com)-->
<?xml-stylesheet type="text/css" href="..\op_amps.css" ?>
<svg contentScriptType="text/ecmascript" width="100.0px" xmlns:xlink="http://www.w3.org/1999/xlink" baseProfile="full"
    zoomAndPan="magnify" contentStyleType="text/css" height="100.0px" preserveAspectRatio="xMidYMid meet" xmlns="http://www.w3.org/2000/svg"
    version="1.0">
    <rect x="0.5" width="99" height="60" y="20"/>
    <line y2="80" x1="20" x2="20" y1="20"/>
    <polygon points="11.0,45.0 20.0,54.5 29.0,45.0"/>
    <line y2="55" x1="40" x2="50" y1="55"/>
    <polygon points="77.0,66.0 80.0,70.0 75.0,69.4" stroke-miterlimit="2"/>
    <polyline fill="none" points="47.0,53.0 50.0,55.0 47.0,57.0"/>
    <line y2="45" x1="40" x2="50" y1="45"/>
    <polyline fill="none" points="47.0,43.0 50.0,45.0 47.0,47.0"/>
    <line y2="55" x1="10" x2="30" y1="55"/>
    <line y2="68" x1="60" x2="60" y1="32"/>
    <polyline fill="none" points="60.0,42.0 80.0,30.0 80.0,20.0"/>
    <line y2="58" x1="76.0" x2="60" y1="67.7"/>
    <line y2="80" x1="80" x2="80" y1="70"/>
</svg>