<?xml version="1.0" standalone="no"?>
<!--Created with Sketsa SVG Editor (http://www.kiyut.com)-->
<svg contentScriptType="text/ecmascript" width="100.0px" xmlns:xlink="http://www.w3.org/1999/xlink" baseProfile="full"
    zoomAndPan="magnify" contentStyleType="text/css" height="100.0px" preserveAspectRatio="xMidYMid meet" xmlns="http://www.w3.org/2000/svg"
    version="1.0">
    <polygon fill="#f2f2f2" points="31.8,8.8 35.8,3.7 40.4,5.5 39.5,11.5 42.0,14.0 47.8,13.0 49.8,17.5 45.1,21.25 
        45.1,25.0 49.8,28.2 48.1,33.0 42.3,32.0 39.2,34.7 40.0,40.5 35.3,42.5 32.0,37.3 28.7,37.3 25.4,42.5 20.5,40.5 
        21.5,34.7 19.0,32.0 13.0,33.0 10.8,28.2 15.8,25.0 15.8,21.25 10.8,17.5 13.0,13.0 19.0,14.0 21.5,11.5 20.5,5.5 
        25.4,3.7 28.7,8.8" stroke="#2c457e"/>
    <ellipse rx="6" fill="#ffffff" ry="6" cx="30.25" cy="23" stroke="#2c457e"/>
</svg>