<?xml version="1.0" standalone="no"?>
<!--Created with Sketsa SVG Editor (http://www.kiyut.com)-->
<svg contentScriptType="text/ecmascript" width="500.0px" xmlns:xlink="http://www.w3.org/1999/xlink" baseProfile="full"
    zoomAndPan="magnify" contentStyleType="text/css" height="500.0px" preserveAspectRatio="xMidYMid meet" xmlns="http://www.w3.org/2000/svg"
    version="1.0">
    <rect x="100" y="100" fill="#fafafa" width="250" rx="5" height="24" ry="5" stroke="none"/>
    <rect x="103" y="103" fill="#2c457e" width="10" height="18" stroke="none"/>
    <rect x="100" y="100" fill="none" width="250" rx="5" height="24" ry="5" stroke="#000000"/>
    <rect x="115" fill="#2c457e" width="10" y="103" height="18" stroke="none"/>
    <rect x="127" fill="#2c457e" width="10" y="103" height="18" stroke="none"/>
    <rect x="139" fill="#2c457e" width="10" height="18" y="103" stroke="none"/>
    <rect x="151" fill="#2c457e" width="10" y="103" height="18" stroke="none"/>
    <rect x="163" fill="#2c457e" width="10" height="18" y="103" stroke="none"/>
    <rect x="175" fill="#2c457e" width="10" y="103" height="18" stroke="none"/>
    <rect x="187" fill="#2c457e" width="10" height="18" y="103" stroke="none"/>
    <rect x="199" fill="#2c457e" width="10" y="103" height="18" stroke="none"/>
    <rect x="211" fill="#2c457e" width="10" height="18" y="103" stroke="none"/>
    <rect x="223" fill="#2c457e" width="10" y="103" height="18" stroke="none"/>
    <rect x="235" fill="#2c457e" width="10" height="18" y="103" stroke="none"/>
</svg>