<?xml version="1.0" standalone="no"?>
<!--Created with Sketsa SVG Editor (http://www.kiyut.com)-->
<svg contentScriptType="text/ecmascript" width="1000.0px" xmlns:xlink="http://www.w3.org/1999/xlink" baseProfile="full"
    zoomAndPan="magnify" contentStyleType="text/css" height="1000.0px" preserveAspectRatio="xMidYMid meet" xmlns="http://www.w3.org/2000/svg"
    version="1.0">
    <rect x="250" y="300" fill="#ffffff" width="250" height="250" stroke="none"/>
    <polygon fill="#ffca8c" points="264.83334,299.83334 262.66666,304.0 255.83333,300.0" stroke="#d87146"/>
    <polygon fill="#d87146" points="255.5,318.0 263.66666,318.33334 263.16666,324.5 271.33334,326.33334 
        268.66666,346.33334 259.66666,344.33334 259.0,350.16666 251.16667,349.16666 253.16667,340.66666 
        250.16667,339.83334 250.16667,328.83334 255.16667,324.83334" stroke="#d87146"/>
    <polygon fill="#ffca8c" points="271.66666,311.83334 269.0,309.0 273.16666,300.33334 289.16666,299.83334" stroke="#d87146"/>
    <polygon fill="#ffca8c" points="275.66666,317.33334 291.83334,306.83334 296.0,314.66666 278.33334,325.33334" stroke="#d87146"/>
    <polygon fill="#ffca8c" points="304.5,317.83334 310.33334,327.5 278.0,344.5 279.66666,340.33334 280.0,332.66666"
        stroke="#d87146"/>
    <polygon fill="#ffca8c" points="297.5,302.83334 303.16666,311.83334 307.66666,309.0 316.5,324.5 332.66666,316.83334 
        324.83334,300.16666 301.66666,300.0" stroke="#d87146"/>
    <polygon fill="#ffca8c" points="339.5,314.5 332.66666,300.0 351.5,300.0 363.83334,307.0 351.0,319.0" stroke="#d87146"/>
    <polygon fill="#ffca8c" points="345.66666,324.33334 343.5,323.83334 339.33334,314.0 347.66666,311.33334 
        352.33334,318.0" stroke="#d87146"/>
    <polygon fill="#ffca8c" points="371.0,302.66666 368.16666,300.16666 373.16666,300.0" stroke="#d87146"/>
    <polygon fill="#ffca8c" points="377.83334,309.16666 374.5,306.16666 380.83334,300.0 388.66666,300.0" stroke="#d87146"/>
    <polygon fill="#ffca8c" points="407.66666,305.0 402.33334,300.0 412.33334,300.16666" stroke="#d87146"/>
    <polygon fill="#ffca8c" points="414.0,309.33334 422.33334,301.16666 425.0,302.16666 421.66666,312.5" stroke="#d87146"/>
    <polygon fill="#ffca8c" points="396.5,327.0 411.0,313.5 421.0,318.66666 413.0,341.0" stroke="#d87146"/>
    <polygon fill="#d87146" points="403.16666,320.83334 411.0,313.83334 421.0,318.66666 417.33334,328.33334" stroke="#d87146"/>
    <polygon fill="#ffca8c" points="427.33334,316.33334 430.33334,307.0 441.33334,313.33334 431.33334,323.5" stroke="#d87146"/>
    <polygon fill="#ffca8c" points="450.0,305.83334 442.66666,299.83334 455.83334,299.83334" stroke="#d87146"/>
    <polygon fill="#ffca8c" points="456.83334,306.16666 462.0,301.5 475.83334,310.66666 470.0,315.66666" stroke="#d87146"/>
    <polygon fill="#ffca8c" points="473.83334,323.0 482.0,315.5 499.83334,327.66666 499.66666,341.16666" stroke="#d87146"/>
    <polygon fill="#ffca8c" points="481.66666,306.0 472.5,300.16666 483.5,300.0 485.5,301.83334" stroke="#d87146"/>
    <polygon fill="#ffca8c" points="493.66666,305.33334 498.66666,300.16666 500.16666,300.33334 499.83334,310.33334"
        stroke="#d87146"/>
    <polygon fill="#ffca8c" points="434.16666,328.66666 452.5,309.83334 466.16666,319.16666 439.66666,340.83334" stroke="#d87146"/>
    <polygon fill="#ffca8c" points="425.83334,330.0 435.5,346.0 426.33334,353.16666 418.66666,345.66666" stroke="#d87146"/>
    <polygon fill="#ffca8c" points="454.33334,338.5 467.16666,327.66666 477.33334,334.83334 470.83334,348.83334" stroke="#d87146"/>
    <polygon fill="#ffca8c" points="475.5,352.16666 482.16666,337.83334 497.33334,348.0 482.33334,357.16666" stroke="#d87146"/>
    <polygon fill="#ffca8c" points="488.33334,360.5 500.0,353.16666 499.66666,368.0" stroke="#d87146"/>
    <polygon fill="#ffca8c" points="475.33334,372.33334 482.33334,366.0 498.16666,376.16666 489.66666,384.5" stroke="#d87146"/>
    <polygon fill="#ffca8c" points="448.83334,359.83334 453.0,347.33334 477.33334,362.33334 462.83334,371.33334" stroke="#d87146"/>
    <polygon fill="#ffca8c" points="462.33334,387.33334 464.83334,380.66666 462.83334,377.0 470.66666,375.66666 
        485.66666,388.66666 478.83334,398.16666" stroke="#d87146"/>
    <polygon fill="#ffca8c" points="439.5,352.5 448.0,343.33334 449.66666,344.33334 449.16666,347.16666 444.5,356.83334"
        stroke="#d87146"/>
    <polygon fill="#ffca8c" points="415.16666,369.33334 436.0,355.66666 440.83334,360.0 427.5,372.16666 431.5,377.0 
        426.16666,381.5" stroke="#d87146"/>
    <polygon fill="#d87146" points="433.16666,373.16666 441.66666,363.83334 448.83334,369.66666 440.33334,379.33334"
        stroke="#d87146"/>
    <polygon fill="#ffca8c" points="449.33334,378.16666 453.16666,373.5 458.16666,378.16666 457.33334,384.33334" stroke="#d87146"/>
    <polygon fill="#ffca8c" points="446.66666,398.33334 430.83334,385.66666 435.33334,382.16666 440.66666,386.66666 
        444.83334,383.0 455.33334,389.5" stroke="#d87146"/>
    <polygon fill="#ffca8c" points="451.66666,400.83334 459.83334,392.83334 475.0,404.33334 473.16666,408.16666 
        467.66666,409.83334" stroke="#d87146"/>
    <polygon fill="#ffca8c" points="497.5,388.5 491.0,398.16666 500.0,402.83334 500.16666,389.83334" stroke="#d87146"/>
    <polygon fill="#ffca8c" points="490.33334,418.33334 493.5,413.83334 500.0,416.0 499.5,423.0" stroke="#d87146"/>
    <polygon fill="#ffca8c" points="483.5,434.66666 487.0,424.5 497.16666,428.16666 491.5,436.5" stroke="#d87146"/>
    <polygon fill="#ffca8c" points="471.83334,468.5 481.16666,442.66666 488.66666,442.66666 499.16666,447.0 
        487.0,476.83334" stroke="#d87146"/>
    <polygon fill="#ffca8c" points="492.33334,479.83334 495.83334,471.0 499.83334,472.16666 499.83334,483.83334" stroke="#d87146"/>
    <polygon fill="#ffca8c" points="498.16666,466.0 500.0,461.16666 500.0,466.0" stroke="#d87146"/>
    <polygon fill="#ffca8c" points="463.83334,493.0 470.16666,476.5 499.83334,492.0 499.66666,511.33334" stroke="#d87146"/>
    <polygon fill="#ffca8c" points="456.5,515.0 462.0,500.33334 500.0,519.8333 499.83334,535.1667" stroke="#d87146"/>
    <polygon fill="#ffca8c" points="452.33334,529.6667 454.83334,523.0 500.16666,543.0 500.16666,545.8333 
        496.83334,547.3333" stroke="#d87146"/>
    <polygon fill="#ffca8c" points="450.5,536.0 481.5,548.1667 480.66666,549.6667 457.0,549.6667 446.66666,546.3333"
        stroke="#d87146"/>
    <polygon fill="#d87146" points="429.16666,547.6667 427.83334,550.3333 403.66666,549.6667 407.33334,539.3333" stroke="#d87146"/>
    <polygon fill="#ffca8c" points="435.33334,541.8333 413.83334,532.8333 418.5,523.1667 439.16666,532.1667" stroke="#d87146"/>
    <polygon fill="#ffca8c" points="441.0,525.3333 423.5,517.0 427.33334,510.0 443.66666,517.1667" stroke="#d87146"/>
    <polygon fill="#ffca8c" points="440.66666,488.33334 451.83334,495.0 445.5,511.66666 430.66666,505.33334" stroke="#d87146"/>
    <polygon fill="#ffca8c" points="447.66666,484.83334 455.5,468.5 460.33334,471.66666 454.0,488.5" stroke="#d87146"/>
    <polygon fill="#ffca8c" points="463.0,448.16666 467.0,450.0 462.16666,464.33334 457.5,462.0" stroke="#d87146"/>
    <polygon fill="#ffca8c" points="456.66666,427.0 461.83334,416.33334 476.16666,422.16666 472.83334,432.33334" stroke="#d87146"/>
    <polygon fill="#ffca8c" points="452.33334,436.66666 454.66666,431.83334 470.5,438.5 468.16666,444.5" stroke="#d87146"/>
    <polygon fill="#ffca8c" points="449.83334,441.83334 453.83334,443.83334 448.5,456.16666 443.83334,454.0" stroke="#d87146"/>
    <polygon fill="#ffca8c" points="448.16666,433.33334 439.0,451.16666 433.16666,448.0 442.33334,430.83334" stroke="#d87146"/>
    <polygon fill="#ffca8c" points="456.5,415.0 450.0,428.16666 444.66666,425.83334 450.5,412.83334" stroke="#d87146"/>
    <polygon fill="#ffca8c" points="444.83334,410.33334 427.16666,445.16666 418.0,440.16666 440.16666,408.0" stroke="#d87146"/>
    <polygon fill="#ffca8c" points="411.83334,436.66666 407.0,434.0 429.5,404.33334 433.33334,405.66666" stroke="#d87146"/>
    <polygon fill="#ffca8c" points="423.16666,398.83334 403.0,427.5 397.0,416.66666 417.66666,394.16666" stroke="#d87146"/>
    <polygon fill="#ffca8c" points="412.16666,389.66666 391.83334,412.0 386.83334,414.16666 374.33334,417.0 
        372.5,412.66666 378.66666,409.33334 378.16666,406.0 405.5,382.66666" stroke="#d87146"/>
    <polygon fill="#d87146" points="384.33334,415.0 374.5,417.16666 372.5,412.5 378.83334,409.33334 378.5,406.0 
        379.83334,404.66666" stroke="#d87146"/>
    <polygon fill="#d87146" points="376.66666,423.66666 390.66666,420.5 397.5,434.66666 383.33334,440.66666" stroke="#d87146"/>
    <polygon fill="#ffca8c" points="386.66666,447.5 402.33334,440.0 407.5,443.33334 392.66666,463.5" stroke="#d87146"/>
    <polygon fill="#ffca8c" points="395.16666,472.66666 413.83334,446.16666 424.0,451.33334 401.5,488.83334" stroke="#d87146"/>
    <polygon fill="#ffca8c" points="405.33334,494.66666 414.16666,481.83334 430.66666,489.83334 422.83334,501.33334"
        stroke="#d87146"/>
    <polygon fill="#ffca8c" points="417.5,477.16666 430.0,456.16666 445.0,463.16666 434.33334,484.66666" stroke="#d87146"/>
    <polygon fill="#ffca8c" points="373.5,315.16666 388.0,328.66666 383.66666,332.5 372.33334,322.83334" stroke="#d87146"/>
    <polygon fill="#ffca8c" points="392.66666,333.83334 419.5,358.33334 413.0,362.0 389.16666,338.16666" stroke="#d87146"/>
    <polygon fill="#ffca8c" points="368.16666,312.5 366.5,324.83334 378.66666,337.5 371.16666,343.83334 
        356.16666,323.66666" stroke="#d87146"/>
    <polygon fill="#ffca8c" points="384.0,342.66666 409.5,367.33334 396.5,378.66666 376.0,351.16666" stroke="#d87146"/>
    <polygon fill="#ffca8c" points="371.16666,356.16666 391.33334,383.5 376.66666,396.16666 365.5,392.66666 
        357.33334,371.66666" stroke="#d87146"/>
    <polygon fill="#d87146" points="372.33334,399.5 366.66666,397.83334 365.33334,392.0 371.66666,388.16666 
        377.16666,396.0" stroke="#d87146"/>
    <polygon fill="#ffca8c" points="344.0,356.5 356.83334,389.0 350.66666,394.66666 326.16666,389.33334 
        327.83334,375.83334 334.16666,371.66666 330.33334,363.66666" stroke="#d87146"/>
    <polygon fill="#d87146" points="356.5,387.33334 358.33334,391.83334 358.16666,397.33334 350.5,394.66666 
        349.16666,394.5 351.0,387.0" stroke="#d87146"/>
    <polygon fill="#ffca8c" points="355.16666,363.0 351.0,352.16666 362.83334,345.66666 365.83334,350.0" stroke="#d87146"/>
    <polygon fill="#ffca8c" points="349.5,345.66666 344.83334,335.16666 351.5,330.0 358.5,339.83334" stroke="#d87146"/>
    <polygon fill="#ffca8c" points="343.33334,349.16666 327.0,358.33334 322.83334,347.16666 338.5,339.16666" stroke="#d87146"/>
    <polygon fill="#ffca8c" points="337.5,332.83334 320.83334,341.83334 316.33334,333.0 333.83334,324.0" stroke="#d87146"/>
    <polygon fill="#ffca8c" points="299.0,352.83334 293.83334,344.83334 310.5,336.66666 315.0,343.83334" stroke="#d87146"/>
    <polygon fill="#d87146" points="312.16666,352.0 316.83334,360.16666 308.0,365.0 303.16666,361.5 303.66666,356.16666"
        stroke="#d87146"/>
    <polygon fill="#ffca8c" points="289.83334,347.5 302.83334,368.66666 294.5,373.66666 280.0,352.5" stroke="#d87146"/>
    <polygon fill="#d87146" points="297.5,377.66666 306.0,372.0 322.33334,375.5 319.0,388.66666 306.5,390.83334" stroke="#d87146"/>
    <polygon fill="#ffca8c" points="369.5,486.0 388.5,473.5 406.5,523.3333 403.0,527.1667" stroke="#d87146"/>
    <polygon fill="#ffca8c" points="361.66666,482.66666 391.0,516.5 381.66666,515.3333 356.66666,486.66666" stroke="#d87146"/>
    <polygon fill="#ffca8c" points="392.66666,524.8333 401.83334,532.0 394.5,549.6667 355.66666,549.8333" stroke="#d87146"/>
    <polygon fill="#b2d8ad" points="266.5,517.8333 286.66666,540.0 275.16666,550.1667 257.16666,549.8333 258.0,524.8333"
        stroke="#d87146"/>
    <polygon fill="#ffca8c" points="249.83333,532.3333 259.5,523.5 272.83334,538.0 259.16666,550.0 250.0,550.3333"
        stroke="#d87146"/>
    <polygon fill="#b2d8ad" points="263.33334,514.5 250.16667,525.0 250.16667,510.33334 256.0,506.5" stroke="#d87146"/>
    <polygon fill="#b2d8ad" points="276.5,503.5 272.0,497.83334 292.33334,481.0 292.0,476.33334 303.5,467.33334 
        308.83334,468.66666 311.5,472.83334" stroke="#d87146"/>
    <polygon fill="#d87146" points="275.5,474.16666 285.83334,486.33334 280.0,490.66666 269.16666,479.0" stroke="#d87146"/>
    <polygon fill="#b2d8ad" points="283.0,468.5 262.0,485.33334 250.0,469.83334 269.16666,453.0" stroke="#d87146"/>
    <polygon fill="#b2d8ad" points="312.5,459.83334 318.5,455.16666 325.0,462.33334 315.83334,469.33334 
        312.33334,465.83334" stroke="#d87146"/>
    <polygon fill="#b2d8ad" points="274.83334,355.83334 300.66666,395.0 296.16666,399.0 303.16666,408.33334 
        300.66666,410.33334 280.16666,381.66666 283.5,379.5 274.33334,365.66666 265.5,371.33334 271.66666,382.66666 
        268.0,384.83334 261.83334,377.16666 263.33334,367.83334 272.0,362.5" stroke="#d87146"/>
    <polygon fill="#b2d8ad" points="272.16666,369.66666 278.0,377.33334 274.5,380.0 269.5,371.5" stroke="#d87146"/>
    <polygon fill="#b2d8ad" points="267.5,391.16666 276.83334,384.5 291.66666,404.5 287.5,407.33334 275.0,392.66666 
        270.66666,394.83334" stroke="#d87146"/>
    <polygon fill="#b2d8ad" points="271.16666,422.66666 269.5,421.33334 271.16666,412.16666 282.83334,412.83334" stroke="#d87146"/>
    <polygon fill="#b2d8ad" points="267.0,421.16666 264.66666,421.5 259.16666,413.16666 266.66666,413.5" stroke="#d87146"/>
    <polygon fill="#b2d8ad" points="255.5,417.16666 262.83334,423.5 261.0,426.0 254.33333,422.33334" stroke="#d87146"/>
    <polygon fill="#b2d8ad" points="257.16666,408.33334 258.66666,394.66666 264.16666,394.66666 267.0,398.33334 
        265.66666,409.0" stroke="#d87146"/>
    <polygon fill="#b2d8ad" points="260.33334,381.5 265.0,386.5 260.0,388.5" stroke="#d87146"/>
    <polygon fill="#b2d8ad" points="253.83333,392.33334 250.16667,408.66666 250.5,391.83334" stroke="#d87146"/>
    <polygon fill="#b2d8ad" points="298.5,414.66666 273.33334,433.5 275.16666,435.83334 300.0,417.66666" stroke="#d87146"/>
    <polygon fill="#b2d8ad" points="270.0,436.0 271.16666,437.5 259.0,447.0 258.33334,445.5" stroke="#d87146"/>
    <path fill="#b2d8ad" d="M 289.66666 434.0 C 289.66666 434.0 304.33334 421.5 304.33334 421.5 C 304.33334 421.5 
        319.33334 437.66666 319.33334 437.66666 C 319.33334 437.66666 304.16666 451.5 304.16666 451.5 C 304.16666 451.5 
        301.16666 449.0 301.16666 449.0 C 301.16666 449.0 292.33334 438.0 292.33334 438.0 C 292.33334 438.0 289.5 
        434.16666 289.5 434.16666 z" stroke="#d87146"/>
    <path fill="#b2d8ad" d="M 286.5 437.0 C 286.5 437.0 289.5 441.0 289.5 441.0 C 289.5 441.0 296.66666 452.33334 
        296.66666 452.33334 C 296.66666 452.33334 299.5 455.66666 299.5 455.66666 C 299.5 455.66666 285.66666 467.5 
        285.66666 467.5 C 285.66666 467.5 271.33334 449.66666 271.33334 449.66666 C 271.33334 449.66666 286.83334 437.0 
        286.83334 437.0 z" stroke="#d87146"/>
    <path fill="#b2d8ad" d="M 254.0 427.66666 C 254.0 427.66666 255.83333 428.5 255.83333 428.5 C 255.83333 428.5 261.5 
        437.5 261.5 437.66666 C 261.5 437.83334 250.5 446.66666 250.5 446.66666 C 250.5 446.66666 250.16667 431.16666 
        250.16667 431.16666 C 250.16667 431.16666 254.0 427.83334 254.0 427.83334 z" stroke="#d87146"/>
    <ellipse fill="#b2d8ad" rx="3.25" cx="266.91666" ry="3.3333333" cy="429.83334" stroke="#d87146"/>
    <polygon fill="#b2d8ad" points="273.66666,425.0 294.33334,409.5 296.66666,413.0 276.33334,428.66666" stroke="#d87146"/>
    <path fill="#b2d8ad" d="M 254.33333 388.0 L 256.5 379.16666 A 4.0 9.0 0.0 0 0 250.16667 378.0 L 250.16667 387.33334 
        L 254.16667 388.16666 z" stroke="#d87146"/>
    <path fill="#b2d8ad" d="M 250.5 365.5 L 260.83334 367.33334 L 259.16666 375.83334 A 10.0 10.0 0.0 0 0 250.33333 
        370.83334 L 250.33333 365.16666 z" stroke="#d87146"/>
    <path fill="#d87146" d="M 312.5 398.33334 A 50.0 50.0 0.0 0 1 334.66666 397.83334 A 50.0 50.0 0.0 0 1 353.0 
        403.66666 A 15.0 15.0 0.0 0 0 366.16666 417.5 L 377.83334 443.66666 L 365.66666 448.83334 L 372.33334 465.83334 
        L 384.16666 461.5 L 388.66666 473.83334 L 372.5 484.0 L 361.5 471.83334 L 307.16666 523.6667 L 292.0 507.5 L 
        305.0 494.83334 A 20.0 20.0 0.0 0 0 326.33334 488.83334 L 323.16666 486.33334 L 329.16666 481.5 L 331.16666 
        483.66666 A 20.0 20.0 0.0 0 0 338.0 463.5 L 323.66666 450.5 L 332.66666 441.5 L 310.16666 414.83334 L 318.33334 
        406.5 L 312.5 398.3334 z" stroke="#d87146"/>
    <polygon fill="#ffca8c" points="497.4,438.0 500.0,433.8 500.0,439.2" stroke="#d87146"/>
    <path fill="#b2d8ad" d="M 334.6 507.6 C 334.6 507.6 350.8 492.6 350.8 492.6 C 350.8 492.6 359.2 500.2 359.2 500.2 C 
        359.2 500.2 339.8 510.0 339.8 510.0 C 339.8 510.0 334.6 507.8 334.6 507.8 z" stroke="#d87146"/>
    <path fill="#b2d8ad" d="M 331.6 510.2 L 338.0 512.2 A 10.0 10.0 0.0 0 0 338.0 526.2 L 331.4 527.8 L 322.2 519.8 L 
        331.6 510.2 z" stroke="#d87146"/>
    <path fill="#b2d8ad" d="M 321.0 520.6 A 28.0 35.0 0.0 0 0 351.4 530.4 L 353.0 533.8 A 20.0 30.0 0.0 0 1 333.6 539.2 
        L 335.8 535.6 L 325.6 532.6 L 319.0 522.6 L 321.0 520.6 z" stroke="#d87146"/>
    <path fill="#b2d8ad" d="M 316.8 524.2 C 316.8 524.2 323.2 532.8 323.2 532.8 C 323.2 532.8 320.8 536.0 320.8 536.0 C 
        320.8 536.0 329.4 542.0 329.4 542.0 C 329.4 542.0 326.8 545.2 326.8 545.2 C 326.8 545.2 307.4 533.6 307.4 533.6 
        C 307.4 533.6 316.6 524.0 316.6 524.0 z" stroke="#d87146"/>
    <path fill="#b2d8ad" d="M 332.0 542.0 C 332.0 542.0 338.0 543.4 338.0 543.4 C 338.0 543.4 337.6 549.4 337.6 549.4 C 
        337.6 549.4 326.0 550.2 326.0 550.2 C 326.0 550.2 332.0 542.2 332.0 542.2 z" stroke="#d87146"/>
    <path fill="#b2d8ad" d="M 362.2 504.2 C 362.2 504.2 365.6 507.4 365.6 507.4 C 365.6 507.4 354.0 526.0 354.0 526.0 C 
        354.0 526.0 342.8 522.8 342.8 522.8 C 342.8 522.8 346.6 510.6 346.6 510.6 C 346.6 510.6 362.2 504.2 362.2 504.2 
        z" stroke="#d87146"/>
    <path fill="#b2d8ad" d="M 368.6 511.6 C 368.6 511.6 372.4 516.2 372.4 516.2 C 372.4 516.2 355.6 533.4 355.6 533.4 C 
        355.6 533.4 354.4 530.4 354.4 530.4 C 354.4 530.4 368.4 511.6 368.4 511.6 z" stroke="#d87146"/>
    <path fill="#b2d8ad" d="M 375.6 518.0 L 384.0 521.6 L 345.8 550.0 L 340.2 549.8 L 340.8 544.0 A 20.0 20.0 0.0 0 0 
        353.8 539.0 A 80.0 80.0 0.0 0 0 375.6 518.0 z" stroke="#d87146"/>
    <polygon fill="#ffffff" points="362.16666,422.66666 369.5,434.16666 364.66666,440.16666 354.66666,430.0" stroke="#d87146"/>
    <polygon fill="#ffffff" points="319.0,411.33334 329.0,402.5 342.83334,416.66666 331.83334,426.83334" stroke="#d87146"/>
    <polygon fill="#ffffff" points="348.66666,433.66666 357.16666,442.0 351.0,448.33334 343.0,438.83334" stroke="#d87146"/>
    <rect x="250" y="300" fill="none" width="250" height="250" stroke="#000000" stroke-width="2"/>
</svg>