<?xml version="1.0" standalone="no"?>
<!--Created with Sketsa SVG Editor (http://www.kiyut.com)-->
<svg contentScriptType="text/ecmascript" width="500.0px" xmlns:xlink="http://www.w3.org/1999/xlink" baseProfile="full"
    zoomAndPan="magnify" contentStyleType="text/css" height="100.0px" preserveAspectRatio="xMidYMid meet" xmlns="http://www.w3.org/2000/svg"
    version="1.0">
    <polygon fill="#ffff00" points="13.25,25.533333 25.99,25.533333 29.875,13.25 33.760002,25.533333 46.5,25.533333 
        36.350002,33.759445 40.37501,46.75 29.875,38.71 19.37499,46.75 23.399998,33.759445" stroke="#999999"/>
    <polygon fill="#ffff00" points="58.75,25.783333 71.49,25.783333 75.375,13.5 79.26,25.783333 92.0,25.783333 
        81.850006,34.009445 85.875015,47.0 75.375,38.96 64.87499,47.0 68.899994,34.009445" stroke="#999999"/>
    <polygon fill="#ffff00" points="103.5,25.783333 116.24,25.783333 120.125,13.5 124.01,25.783333 136.75,25.783333 
        126.600006,34.009445 130.62502,47.0 120.125,38.96 109.62499,47.0 113.649994,34.009445" stroke="#999999"/>
    <polygon fill="#ffff00" points="148.5,25.783333 161.24,25.783333 165.125,13.5 169.01001,25.783333 181.75,25.783333 
        171.6,34.009445 175.62502,47.0 165.125,38.96 154.62498,47.0 158.65,34.009445" stroke="#999999"/>
    <polygon fill="#ffffff" points="193.5,25.533333 206.24,25.533333 210.125,13.25 214.01001,25.533333 226.75,25.533333 
        216.6,33.759445 220.62502,46.75 210.125,38.71 199.62498,46.75 203.65,33.759445" stroke="#999999"/>
</svg>