<?xml version="1.0" standalone="no"?>
<!--Created with Sketsa SVG Editor (http://www.kiyut.com)-->
<svg contentScriptType="text/ecmascript" width="500.0px" xmlns:xlink="http://www.w3.org/1999/xlink" baseProfile="full"
    zoomAndPan="magnify" contentStyleType="text/css" height="500.0px" preserveAspectRatio="xMidYMid meet" xmlns="http://www.w3.org/2000/svg"
    version="1.0">
    <rect x="50" y="100" transform="matrix(0 1 -1 0 286 -63)" fill="#fafafa" width="250" rx="0" ry="0" height="24"
        stroke="none"/>
    <line transform="matrix(0 1 -1 0 286 -63)" fill="none" x1="50" x2="300" y1="100" y2="100" stroke="#2c457e"/>
    <line transform="matrix(0 1 -1 0 286 -63)" fill="none" x1="50" x2="300" y1="124" y2="124" stroke="#2c457e"/>
    <rect x="145" y="105" transform="matrix(0 1 -1 0 286 -63)" fill="#2c457e" width="25" rx="3" ry="3" height="14"
        stroke="#000000"/>
    <rect x="180.0" y="105.0" transform="matrix(0 1 -1 0 286 -63)" fill="#2c457e" width="25" rx="3" ry="3" height="14"
        stroke="#000000"/>
    <polygon fill="#ffffff" points="163.0,115.0 152.0,115.0 157.5,108.0" transform="matrix(0 1 -1 0 286 -63)" stroke="#ffffff"
        stroke-linejoin="round"/>
    <polygon fill="#ffffff" points="198.0,108.0 187.0,108.0 192.5,115.0" transform="matrix(0 1 -1 0 286 -63)"
        stroke-linejoin="round" stroke="#ffffff"/>
</svg>