<?xml version="1.0" standalone="no"?>
<!--Created with Sketsa SVG Editor (http://www.kiyut.com)-->
<?xml-stylesheet type="text/css" href="..\protection_and_switching.css" ?>
<svg contentScriptType="text/ecmascript" width="2000.0px" xmlns:xlink="http://www.w3.org/1999/xlink" baseProfile="full"
    zoomAndPan="magnify" contentStyleType="text/css" height="2000.0px" preserveAspectRatio="xMidYMid meet" xmlns="http://www.w3.org/2000/svg"
    version="1.0">
    <rect x="100" width="18" height="105" y="100"/>
    <polyline fill="none" points="102.0,100.0 102.0,110.0 116.0,110.0 116.0,100.0"/>
    <polyline fill="none" points="102.0,205.0 102.0,195.0 116.0,195.0 116.0,205.0"/>
    <line y2="130" fill="none" x1="100" x2="118" y1="130"/>
    <line y2="175" fill="none" x1="100.0" x2="118" y1="175"/>
    <ellipse rx="5" fill="none" ry="5" cx="109" cy="120"/>
    <ellipse rx="5" fill="none" ry="5" cx="109.0" cy="185.0"/>
    <line y2="120" fill="none" x1="106" x2="112" y1="120"/>
    <line y2="185.0" fill="none" x1="106" x2="112.0" y1="185.0"/>
    <line y2="123" fill="none" x1="109" x2="109" y1="117"/>
    <line y2="188" fill="none" x1="109" x2="109" y1="182"/>
    <rect fill="none" x="102" width="14" height="25" y="135"/>
    <polygon fill="#000000" points="104.0,137.0 114.0,137.0 114.0,152.0 116.5,155.0 116.5,161.0 101.5,161.0 101.5,155.0 
        104.0,152.0"/>
    <rect fill="none" x="111" width="5.0" height="3" y="170"/>
    <rect x="118" width="18" y="100.0" height="105"/>
    <polyline fill="none" points="120.0,100.0 120.0,110.0 134.0,110.0 134.0,100.0"/>
    <polyline fill="none" points="120.333336,205.0 120.333336,195.0 134.33333,195.0 134.33333,205.0"/>
    <line y2="130.0" fill="none" x1="118.333336" x2="136.33333" y1="130.0"/>
    <line y2="175.0" fill="none" x1="118.333336" x2="136.33333" y1="175.0"/>
    <ellipse rx="5" fill="none" ry="5" cx="127" cy="120.0"/>
    <ellipse rx="5" fill="none" ry="5" cx="127.333336" cy="185.0"/>
    <line y2="120.0" fill="none" x1="124" x2="130" y1="120.0"/>
    <line y2="185.0" fill="none" x1="124.333336" x2="130.33333" y1="185.0"/>
    <line y2="123.0" fill="none" x1="127" x2="127" y1="117.0"/>
    <line y2="188.0" fill="none" x1="127.333336" x2="127.333336" y1="182.0"/>
    <rect fill="none" x="120" width="14" y="135.0" height="25"/>
    <polygon fill="#000000" points="122.0,137.0 132.0,137.0 132.0,152.0 134.5,155.0 134.5,161.0 119.5,161.0 119.5,155.0 
        122.0,152.0"/>
    <rect fill="none" x="129.33333" width="5.0" y="170.0" height="3"/>
    <rect x="136.0" width="18" y="100.0" height="105"/>
    <polyline fill="none" points="138.0,100.0 138.0,110.0 152.0,110.0 152.0,100.0"/>
    <polyline fill="none" points="138.0,205.0 138.0,195.0 152.0,195.0 152.0,205.0"/>
    <line y2="130.0" fill="none" x1="136" x2="154" y1="130.0"/>
    <line y2="175.0" fill="none" x1="136" x2="154" y1="175.0"/>
    <ellipse rx="5" fill="none" ry="5" cx="145" cy="120.0"/>
    <ellipse rx="5" fill="none" ry="5" cx="145" cy="185.0"/>
    <line y2="120.0" fill="none" x1="142" x2="148" y1="120.0"/>
    <line y2="185.0" fill="none" x1="142" x2="148" y1="185.0"/>
    <line y2="123.0" fill="none" x1="145" x2="145" y1="117"/>
    <line y2="188.0" fill="none" x1="145" x2="145" y1="182.0"/>
    <rect fill="none" x="138" width="14" y="135.0" height="25"/>
    <polygon fill="#000000" points="140.0,137.0 150.0,137.0 150.0,152.0 152.5,155.0 152.5,161.0 137.5,161.0 137.5,155.0 
        140.0,152.0"/>
    <rect fill="none" x="147" width="5.0" y="170.0" height="3"/>
    <rect x="154.0" width="18" height="105" y="100.0"/>
    <polyline fill="none" points="156.0,100.0 156.0,110.0 170.0,110.0 170.0,100.0"/>
    <polyline fill="none" points="156.0,205.0 156.0,195.0 170.0,195.0 170.0,205.0"/>
    <line y2="130.0" fill="none" x1="154.0" x2="172.0" y1="130.0"/>
    <line y2="175.0" fill="none" x1="154.0" x2="172.0" y1="175.0"/>
    <ellipse rx="5" fill="none" ry="5" cx="163.0" cy="119.99999"/>
    <ellipse rx="5" fill="none" ry="5" cx="163.0" cy="185.0"/>
    <line y2="119.99999" fill="none" x1="160.0" x2="166.0" y1="119.99999"/>
    <line y2="185.0" fill="none" x1="160.0" x2="166.0" y1="185.0"/>
    <line y2="122.99999" fill="none" x1="163.0" x2="163.0" y1="116.99999"/>
    <line y2="188.0" fill="none" x1="163.0" x2="163.0" y1="182.0"/>
    <rect fill="none" x="156.0" width="14" height="25" y="135.0"/>
    <polygon fill="#3333ff" points="158.0,137.0 168.0,137.0 168.0,152.0 170.5,155.0 170.5,161.0 155.5,161.0 155.5,155.0 
        158.0,152.0" stroke="#3333ff"/>
    <rect fill="none" x="165.0" width="5.0" height="3" y="170.0"/>
</svg>