<?xml version="1.0" standalone="no"?>
<!--Created with Sketsa SVG Editor (http://www.kiyut.com)-->
<?xml-stylesheet type="text/css" href="..\protection_and_switching.css" ?>
<svg contentScriptType="text/ecmascript" width="600.0px" xmlns:xlink="http://www.w3.org/1999/xlink" baseProfile="full"
    zoomAndPan="magnify" contentStyleType="text/css" height="600.0px" preserveAspectRatio="xMidYMid meet" xmlns="http://www.w3.org/2000/svg"
    version="1.0">
    <polygon points="26.5,400.0 26.5,140.0 20.0,140.0 20.0,100.0 513.0,100.0 513.0,140.0 506.5,140.0 506.5,400.0"/>
    <rect fill="none" x="165.0" width="318" y="114.0" height="270.0"/>
    <ellipse rx="6" fill="none" ry="6" cx="30" cy="110.0"/>
    <ellipse rx="6" fill="none" ry="6" cx="503.0" cy="110.0"/>
    <ellipse rx="6" fill="none" ry="6" cx="35" cy="390.0"/>
    <ellipse rx="6" fill="none" ry="6" cx="499.0" cy="390.0"/>
    <rect fill="none" x="225.0" width="175" y="125.0" height="250"/>
    <rect fill="none" x="180.0" width="40" y="200.0" height="175"/>
    <rect fill="none" x="275.0" width="30.0" y="125.0" height="50"/>
    <rect fill="#ffffff" x="275.0" width="30" y="185.0" height="40"/>
    <rect fill="#ffffff" x="275.0" width="30" y="250.0" height="8"/>
    <rect fill="#ffffff" x="335.0" width="30" y="185.0" height="40"/>
    <rect fill="#ffffff" x="335.0" width="30" y="250.0" height="8"/>
    <line y2="375.0" fill="none" x1="265.0" x2="265.0" y1="125.0"/>
    <line y2="374.0" fill="none" x1="372.5" x2="373.0" y1="126.0"/>
    <line y2="240.0" fill="none" x1="265.0" x2="225.0" y1="240.0"/>
    <line y2="366.0" fill="none" x1="373.0" x2="225.0" y1="366.0"/>
    <line y2="362.0" fill="none" x1="373.0" x2="225.0" y1="362.0"/>
    <line y2="328.5" fill="none" x1="373.5" x2="400.5" y1="328.0"/>
    <line y2="271.5" fill="none" x1="373.0" x2="400.5" y1="272.0"/>
    <line y2="193.0" fill="none" x1="400.0" x2="483.0" y1="192.0"/>
    <rect fill="#ffffff" x="232.0" width="26" height="10" y="275.0"/>
    <polyline fill="none" stroke-width="2" points="33.0,563.0 33.0,585.0 11.0,585.0"/>
    <polyline fill="none" stroke-width="2" points="401.0,563.0 401.0,585.0 423.0,585.0"/>
    <rect x="410" width="48" height="41" y="59"/>
    <line y2="100.0" x1="434" x2="434" y1="59"/>
    <line y2="100" x1="422" x2="422" y1="59"/>
    <line y2="100" x1="446" x2="446" y1="59.0"/>
    <rect x="75" width="12" y="59" height="41"/>
</svg>