<?xml version="1.0" standalone="no"?>
<!--Created with Sketsa SVG Editor (http://www.kiyut.com)-->
<?xml-stylesheet type="text/css" href="..\protection_and_switching.css" ?>
<svg contentScriptType="text/ecmascript" width="2000.0px" xmlns:xlink="http://www.w3.org/1999/xlink" baseProfile="full"
    zoomAndPan="magnify" contentStyleType="text/css" height="2000.0px" preserveAspectRatio="xMidYMid meet" xmlns="http://www.w3.org/2000/svg"
    version="1.0">
    <rect x="100" width="18" height="105" y="100"/>
    <polyline fill="none" points="102.0,100.0 102.0,110.0 116.0,110.0 116.0,100.0"/>
    <polyline fill="none" points="102.0,205.0 102.0,195.0 116.0,195.0 116.0,205.0"/>
    <line y2="130" fill="none" x1="100" x2="118" y1="130"/>
    <line y2="175" fill="none" x1="100.0" x2="118" y1="175"/>
    <ellipse rx="5" fill="none" ry="5" cx="109" cy="120"/>
    <ellipse rx="5" fill="none" ry="5" cx="109.0" cy="185.0"/>
    <line y2="120" fill="none" x1="106" x2="112" y1="120"/>
    <line y2="185.0" fill="none" x1="106" x2="112.0" y1="185.0"/>
    <line y2="123" fill="none" x1="109" x2="109" y1="117"/>
    <line y2="188" fill="none" x1="109" x2="109" y1="182"/>
    <rect fill="none" x="102" width="14" height="25" y="135"/>
    <polygon fill="#000000" points="104.0,137.0 114.0,137.0 114.0,152.0 116.5,155.0 116.5,161.0 101.5,161.0 101.5,155.0 
        104.0,152.0"/>
    <rect fill="none" x="111" width="5.0" height="3" y="170"/>
</svg>