<?xml version="1.0" standalone="no"?>
<!--Created with Sketsa SVG Editor (http://www.kiyut.com)-->
<?xml-stylesheet type="text/css" href="..\protection_and_switching.css" ?>
<svg contentScriptType="text/ecmascript" width="300.0px" xmlns:xlink="http://www.w3.org/1999/xlink" baseProfile="full"
    zoomAndPan="magnify" contentStyleType="text/css" height="300.0px" preserveAspectRatio="xMidYMid meet" xmlns="http://www.w3.org/2000/svg"
    version="1.0">
    <path d="M 65.0 261.0 L 65.0 100.0 L 77.0 100.0 L 77.0 110.0 A 5.5 5.5 0.0 1 0 88.0 110.0 C 88.0 111.0 88.0 100.0 
        88.0 100.0 L 112.0 100.0 L 112.0 110.0 A 5.5 5.5 0.0 1 0 123.0 110.0 L 123.0 100.0 L 147.0 100.0 L 147.0 110.0 A 
        5.5 5.5 0.0 1 0 158.0 110.0 L 158.0 100.0 L 182.0 100.0 L 182.0 110.0 A 5.5 5.5 0.0 1 0 193.0 110.0 L 193.0 
        100.0 L 205.0 100.0 L 205.0 261.0 L 193.0 261.0 L 193.0 251.0 A 5.5 5.5 0.0 1 0 182.0 251.0 L 182.0 261.0 L 
        158.0 261.0 L 158.0 251.0 A 5.5 5.5 0.0 1 0 147.0 251.0 L 147.0 261.0 L 123.0 261.0 L 123.0 251.0 A 5.5 5.5 0.0 
        1 0 112.0 251.0 L 112.0 261.0 L 88.0 261.0 L 88.0 251.0 A 5.5 5.5 0.0 1 0 77.0 251.0 L 77.0 261.0 z"/>
    <line y2="130" x1="65" x2="205" y1="130"/>
    <line y2="231" x1="65" x2="205" y1="231"/>
    <rect x="107" fill="none" width="93" y="137" height="61"/>
    <line y2="200" x1="65" x2="205" y1="200"/>
    <rect x="147" fill="none" width="13.0" y="150" height="40"/>
    <line y2="163" x1="147" x2="160" y1="163"/>
    <line y2="175" x1="147" x2="160" y1="175"/>
    <rect x="149.0" y="168" fill="none" width="9" rx="2" height="5" ry="2"/>
    <ellipse rx="5" fill="none" ry="5" cx="170" cy="115"/>
    <ellipse rx="5" fill="none" ry="5" cx="100" cy="246"/>
    <ellipse rx="5" fill="none" ry="5" cx="100" cy="115"/>
    <ellipse rx="5" fill="none" ry="5" cx="170" cy="246"/>
    <line y2="261" x1="100" x2="100.0" y1="100"/>
</svg>