<?xml version="1.0" standalone="no"?>
<!--Created with Sketsa SVG Editor (http://www.kiyut.com)-->
<?xml-stylesheet type="text/css" href="..\protection_and_switching.css" ?>
<svg contentScriptType="text/ecmascript" width="400.0px" xmlns:xlink="http://www.w3.org/1999/xlink" baseProfile="full"
    zoomAndPan="magnify" contentStyleType="text/css" height="400.0px" preserveAspectRatio="xMidYMid meet" xmlns="http://www.w3.org/2000/svg"
    version="1.0">
    <rect x="100" width="184" y="100" height="245"/>
    <polyline fill="none" points="108.0,100.0 108.0,156.0 275.0,156.0 275.0,100.0"/>
    <rect x="119.25843" width="144.48315" height="26.26966" y="122.51685"/>
    <rect fill="none" x="184" width="16" y="180" height="110"/>
    <line y2="320" fill="none" x1="100" x2="284" y1="320"/>
    <rect fill="none" x="138" width="16" height="110" y="180"/>
    <rect fill="none" x="230" width="16" y="180" height="110"/>
    <ellipse rx="7" fill="none" ry="7" cx="146" cy="188"/>
    <ellipse rx="3" fill="none" ry="3" cx="146" cy="188"/>
    <ellipse rx="7" fill="none" ry="7" cx="146.0" cy="282.0"/>
    <ellipse rx="3" fill="none" ry="3" cx="146.0" cy="282.0"/>
    <ellipse rx="7" fill="none" ry="7" cx="192.0" cy="188.0"/>
    <ellipse rx="3" fill="none" ry="3" cx="192.0" cy="188.0"/>
    <ellipse rx="7" fill="none" ry="7" cx="192.0" cy="282"/>
    <ellipse rx="3" fill="none" ry="3" cx="192.0" cy="282"/>
    <ellipse rx="7" fill="none" ry="7" cx="238.0" cy="188"/>
    <ellipse rx="3" fill="none" ry="3" cx="238.0" cy="188"/>
    <ellipse rx="7" fill="none" ry="7" cx="238.0" cy="282.0"/>
    <ellipse rx="3" fill="none" ry="3" cx="238.0" cy="282.0"/>
</svg>