<?xml version="1.0" standalone="no"?>
<!--Created with Sketsa SVG Editor (http://www.kiyut.com)-->
<?xml-stylesheet type="text/css" href="..\protection_and_switching.css" ?>
<svg contentScriptType="text/ecmascript" width="400.0px" xmlns:xlink="http://www.w3.org/1999/xlink" baseProfile="full"
    zoomAndPan="magnify" contentStyleType="text/css" height="400.0px" preserveAspectRatio="xMidYMid meet" xmlns="http://www.w3.org/2000/svg"
    version="1.0">
    <polygon points="70.5,119.0 70.5,98.0 55.5,91.5 55.5,69.5 79.5,69.0 79.5,91.5 94.5,98.0 94.5,119.0"/>
    <polygon points="105.5,119.0 105.5,98.0 100.5,91.5 100.5,69.5 124.5,69.5 124.5,91.0 129.5,98.0 129.5,119.0"/>
    <polygon points="140.5,119.0 140.5,98.0 145.5,91.5 145.5,69.5 169.5,69.5 169.5,91.5 164.5,98.0 164.5,119.0"/>
    <polygon points="175.5,119.0 175.5,98.0 190.5,91.5 190.5,69.5 214.5,69.5 214.5,91.5 199.5,98.0 199.5,119.0"/>
    <polygon points="70.5,92.75 70.5,71.75 55.5,65.25 55.5,43.25 79.5,43.25 79.5,65.25 94.5,71.75 94.5,92.75" transform="matrix(1.0 0.0 0.0 -1.0 0.0 335.0)"/>
    <polygon points="105.5,92.75 105.5,71.75 100.5,65.25 100.5,43.25 124.5,43.25 124.5,64.75 129.5,71.75 129.5,92.75"
        transform="matrix(1.0 0.0 0.0 -1.0 0.0 335.0)"/>
    <polygon points="140.5,92.75 140.5,71.75 145.5,65.25 145.5,43.25 169.5,43.25 169.5,65.25 164.5,71.75 164.5,92.75"
        transform="matrix(1.0 0.0 0.0 -1.0 0.0 335.0)"/>
    <polygon points="175.5,92.75 175.5,71.75 190.5,65.25 190.5,43.25 214.5,43.25 214.5,65.25 199.5,71.75 199.5,92.75"
        transform="matrix(1.0 0.0 0.0 -1.0 0.0 335.0)"/>
    <ellipse rx="5.5" fill="none" ry="5.5" cx="82.5" cy="110"/>
    <ellipse rx="5.5" fill="none" ry="5.5" cx="117.5" cy="110"/>
    <ellipse rx="5.5" fill="none" ry="5.5" cx="152.5" cy="110.0"/>
    <ellipse rx="5.5" fill="none" ry="5.5" cx="187.5" cy="110.0"/>
    <ellipse rx="5.5" fill="none" ry="5.5" cx="67.5" cy="80.5"/>
    <ellipse rx="5.5" fill="none" ry="5.5" cx="112.5" cy="80.5"/>
    <ellipse rx="5.5" fill="none" ry="5.5" cx="202.5" cy="80.5"/>
    <ellipse rx="5.5" fill="none" ry="5.5" cx="157.5" cy="80.5"/>
    <ellipse rx="5.5" ry="5.5" fill="none" cx="67.5" cy="54.25" transform="matrix(1.0 0.0 0.0 -1.0 0.0 335.0)"/>
    <ellipse rx="5.5" ry="5.5" fill="none" cx="112.5" cy="54.25" transform="matrix(1.0 0.0 0.0 -1.0 0.0 335.0)"/>
    <ellipse rx="5.5" ry="5.5" fill="none" cx="202.5" cy="54.25" transform="matrix(1.0 0.0 0.0 -1.0 0.0 335.0)"/>
    <ellipse rx="5.5" ry="5.5" fill="none" cx="157.5" cy="54.25" transform="matrix(1.0 0.0 0.0 -1.0 0.0 335.0)"/>
    <ellipse rx="5.5" ry="5.5" fill="none" cx="187.5" cy="83.75" transform="matrix(1.0 0.0 0.0 -1.0 0.0 335.0)"/>
    <ellipse rx="5.5" ry="5.5" fill="none" cx="152.5" cy="83.75" transform="matrix(1.0 0.0 0.0 -1.0 0.0 335.0)"/>
    <ellipse rx="5.5" ry="5.5" fill="none" cx="117.5" cy="83.75" transform="matrix(1.0 0.0 0.0 -1.0 0.0 335.0)"/>
    <ellipse rx="5.5" ry="5.5" fill="none" cx="82.5" cy="83.75" transform="matrix(1.0 0.0 0.0 -1.0 0.0 335.0)"/>
</svg>