<?xml version="1.0" standalone="no"?>
<!--Created with Sketsa SVG Editor (http://www.kiyut.com)-->
<?xml-stylesheet type="text/css" href="..\protection_and_switching.css" ?>
<svg contentScriptType="text/ecmascript" width="400.0px" xmlns:xlink="http://www.w3.org/1999/xlink" baseProfile="full"
    zoomAndPan="magnify" contentStyleType="text/css" height="500.0px" preserveAspectRatio="xMidYMid meet" xmlns="http://www.w3.org/2000/svg"
    version="1.0">
    <polygon points="60.452843,130.01741 60.452843,96.620094 40.500008,86.28283 40.500008,51.29519 72.42453,50.50001 
        72.42453,86.28283 92.377365,96.620094 92.377365,130.01741"/>
    <polygon points="107.00943,130.01741 107.00943,96.620094 100.358505,86.28283 100.358505,51.29519 132.28304,51.29519 
        132.28304,85.487656 138.93394,96.620094 138.93394,130.01741"/>
    <polygon points="153.56602,130.01741 153.56602,96.620094 160.217,86.28283 160.217,51.29519 192.14151,51.29519 
        192.14151,86.28283 185.49055,96.620094 185.49055,130.01741"/>
    <polygon points="200.12263,130.01741 200.12263,96.620094 220.07549,86.28283 220.07549,51.29519 252.00002,51.29519 
        252.00002,86.28283 232.04718,96.620094 232.04718,130.01741"/>
    <ellipse rx="7.5" fill="none" ry="7.5" cx="76.415085" cy="116.704254"/>
    <ellipse rx="7.5" fill="none" ry="7.5" cx="123.30504" cy="116.954254"/>
    <ellipse rx="7.5" fill="none" ry="7.5" cx="169.52829" cy="117.03758"/>
    <ellipse rx="7.5" fill="none" ry="7.5" cx="215.75157" cy="117.03759"/>
    <ellipse rx="7.5" fill="none" ry="7.5" cx="56.462276" cy="68.78901"/>
    <ellipse rx="7.5" fill="none" ry="7.5" cx="116.32076" cy="68.78901"/>
    <ellipse rx="7.5" fill="none" ry="7.5" cx="236.03773" cy="68.78901"/>
    <ellipse rx="7.5" fill="none" ry="7.5" cx="176.17923" cy="68.78901"/>
    <polygon points="60.452843,8.97223 60.452843,-24.425074 40.500008,-34.762333 40.500008,-69.749985 
        72.42453,-69.749985 72.42453,-34.762333 92.377365,-24.425074 92.377365,8.97223" transform="matrix(1.0 0.0 0.0 -1.0 0.0 335.0)"/>
    <polygon points="107.00943,8.97223 107.00943,-24.425074 100.358505,-34.762333 100.358505,-69.749985 
        132.28304,-69.749985 132.28304,-35.557507 138.93394,-24.425074 138.93394,8.97223" transform="matrix(1.0 0.0 0.0 -1.0 0.0 335.0)"/>
    <polygon points="153.56602,8.97223 153.56602,-24.425074 160.217,-34.762333 160.217,-69.749985 192.14151,-69.749985 
        192.14151,-34.762333 185.49055,-24.425074 185.49055,8.97223" transform="matrix(1.0 0.0 0.0 -1.0 0.0 335.0)"/>
    <polygon points="200.12263,8.97223 200.12263,-24.425074 220.07549,-34.762333 220.07549,-69.749985 
        252.00002,-69.749985 252.00002,-34.762333 232.04718,-24.425074 232.04718,8.97223" transform="matrix(1.0 0.0 0.0 -1.0 0.0 335.0)"/>
    <ellipse rx="7.5" ry="7.5" fill="none" cx="56.462276" cy="-52.256165" transform="matrix(1.0 0.0 0.0 -1.0 0.0 335.0)"/>
    <ellipse rx="7.31604" ry="8.746914" fill="none" cx="116.32076" cy="-52.256165" transform="matrix(1.0 0.0 0.0 -1.0 0.0 335.0)"/>
    <ellipse rx="7.5" ry="7.5" fill="none" cx="236.03773" cy="-52.256165" transform="matrix(1.0 0.0 0.0 -1.0 0.0 335.0)"/>
    <ellipse rx="7.5" ry="7.5" fill="none" cx="176.17923" cy="-52.256165" transform="matrix(1.0 0.0 0.0 -1.0 0.0 335.0)"/>
    <ellipse rx="7.5" ry="7.5" fill="none" cx="215.58492" cy="-4.0908995" transform="matrix(1.0 0.0 0.0 -1.0 0.0 335.0)"/>
    <ellipse rx="7.5" ry="7.5" fill="none" cx="169.52829" cy="-3.8408995" transform="matrix(1.0 0.0 0.0 -1.0 0.0 335.0)"/>
    <ellipse rx="7.5" ry="7.5" fill="none" cx="123.4717" cy="-4.3408995" transform="matrix(1.0 0.0 0.0 -1.0 0.0 335.0)"/>
    <ellipse rx="7.5" ry="7.5" fill="none" cx="76.41509" cy="-4.674233" transform="matrix(1.0 0.0 0.0 -1.0 0.0 335.0)"/>
</svg>