<?xml version="1.0" standalone="no"?>
<!--Created with Sketsa SVG Editor (http://www.kiyut.com)-->
<?xml-stylesheet type="text/css" href="..\protection_and_switching.css" ?>
<svg contentScriptType="text/ecmascript" width="2000.0px" xmlns:xlink="http://www.w3.org/1999/xlink" baseProfile="full"
    zoomAndPan="magnify" contentStyleType="text/css" height="2000.0px" preserveAspectRatio="xMidYMid meet" xmlns="http://www.w3.org/2000/svg"
    version="1.0">
    <rect x="140.5" width="24" y="69.5" height="50"/>
    <rect x="140.5" width="24" y="241.5" height="50"/>
    <polygon points="105.5,119.5 105.5,98.0 95.0,91.5 95.0,69.5 119.0,69.5 119.0,91.5 129.5,98.0 129.5,119.5"/>
    <polygon points="175.5,119.5 175.5,98.0 185.0,91.5 185.0,69.5 209.0,69.5 209.0,91.0 199.5,98.0 199.5,119.5"/>
    <polygon points="105.5,241.5 129.5,241.5 129.5,263.0 119.5,269.5 119.5,291.5 95.0,291.5 95.0,269.5 105.5,263.0"/>
    <polygon points="175.5,241.5 199.5,241.5 199.5,263.5 209.0,269.5 209.0,291.5 185.0,291.5 185.0,269.5 175.5,263.5"/>
    <ellipse rx="5.5" fill="none" ry="5.5" cx="152.5" cy="110"/>
    <ellipse rx="5.5" fill="none" ry="5.5" cx="107" cy="80.5"/>
    <ellipse rx="5.5" fill="none" ry="5.5" cx="151.5" cy="80.5"/>
    <ellipse rx="5.5" fill="none" ry="5.5" cx="198" cy="80.5"/>
    <ellipse rx="5.5" fill="none" ry="5.5" cx="187.5" cy="110.0"/>
    <ellipse rx="5.5" fill="none" ry="5.5" cx="117.5" cy="110"/>
    <ellipse rx="5.5" fill="none" ry="5.5" cx="107" cy="280.5"/>
    <ellipse rx="5.5" fill="none" ry="5.5" cx="117.5" cy="251"/>
    <ellipse rx="5.5" fill="none" ry="5.5" cx="152.5" cy="251"/>
    <ellipse rx="5.5" fill="none" ry="5.5" cx="187.5" cy="251"/>
    <ellipse rx="5.5" fill="none" ry="5.5" cx="151.5" cy="280.5"/>
    <ellipse rx="5.5" fill="none" ry="5.5" cx="198" cy="280.5"/>
</svg>