<?xml version="1.0" standalone="no"?>
<!--Created with Sketsa SVG Editor (http://www.kiyut.com)-->
<?xml-stylesheet type="text/css" href="..\protection_and_switching.css" ?>
<svg contentScriptType="text/ecmascript" width="2000.0px" xmlns:xlink="http://www.w3.org/1999/xlink" baseProfile="full"
    zoomAndPan="magnify" contentStyleType="text/css" height="2000.0px" preserveAspectRatio="xMidYMid meet" xmlns="http://www.w3.org/2000/svg"
    version="1.0">
    <rect x="100.0" width="140" height="136" y="100.0"/>
    <rect x="100" width="140" height="104" y="116"/>
    <line y2="136.33333" fill="none" x1="22.333334" x2="22.666666" y1="136.33333"/>
    <rect x="109" width="122" y="127" height="82"/>
    <ellipse rx="3" ry="3" cx="135" cy="104"/>
    <ellipse rx="3" ry="3" cx="170" cy="104"/>
    <ellipse rx="3" ry="3" cx="205" cy="104"/>
    <ellipse rx="3" ry="3" cx="135" cy="232"/>
    <ellipse rx="3" ry="3" cx="170" cy="232"/>
    <ellipse rx="3" ry="3" cx="205" cy="232"/>
    <ellipse rx="6" ry="6" cx="135" cy="116"/>
    <ellipse rx="6" ry="6" cx="205" cy="116"/>
    <ellipse rx="6" ry="6" cx="135" cy="220"/>
    <ellipse rx="6" ry="6" cx="205" cy="220"/>
    <line y2="143" x1="109" x2="231.0" y1="143"/>
    <line y2="193" x1="109" x2="231.0" y1="193"/>
    <polyline points="109.0,193.0 205.0,193.0 205.0,209.0"/>
    <ellipse rx="21.572342" ry="21.572342" cx="147.90565" cy="168.90565"/>
    <path d="M 208.0 165.05345 L 163.31447 161.97168 A 16.95 16.95 0.0 0 0 132.49684 161.97168 L 129.41508 165.05345 L 
        129.41508 172.75786 L 132.49684 176.61006 A 16.949686 16.949686 0.0 0 0 163.31447 176.61006 L 208.0 172.75786 z"/>
    <rect x="129.41508" width="13.86792" height="3.0817566" y="167.36478"/>
    <rect x="184.8868" width="23.113205" height="3.0817566" y="167.36478"/>
    <rect x="112.0" width="15" height="8" y="182.0"/>
    <ellipse rx="8" ry="8" cx="222.0" cy="184"/>
    <line y2="192" x1="223" x2="223" y1="176.0"/>
    <line y2="192" x1="221" x2="221" y1="176"/>
    <ellipse rx="4" ry="4" cx="135" cy="116"/>
    <ellipse rx="4" ry="4" cx="205" cy="116"/>
    <ellipse rx="4" ry="4" cx="135" cy="220"/>
    <ellipse rx="4" ry="4" cx="205" cy="220"/>
    <path d="M 112.5 100.0 L 112.5 109.0 A 5.0 5.0 0.0 1 0 122.5 109.0 L 122.5 100.0"/>
    <path d="M 147.5 100.0 L 147.5 109.0 A 5.0 5.0 0.0 1 0 157.5 109.0 L 157.5 100.0"/>
    <path d="M 182.5 100.0 L 182.5 109.0 A 5.0 5.0 0.0 1 0 192.5 109.0 L 192.5 100.0"/>
    <path d="M 217.5 100.0 L 217.5 109.0 A 5.0 5.0 0.0 1 0 227.5 109.0 L 227.5 100.0"/>
    <path d="M 112.5 236.0 L 112.5 227.5 A 5.0 5.0 0.0 1 1 122.5 227.5 L 122.5 236.0"/>
    <path d="M 147.5 236.0 L 147.5 227.5 A 5.0 5.0 0.0 1 1 157.5 227.5 L 157.5 236.0"/>
    <path d="M 182.5 236.0 L 182.5 227.5 A 5.0 5.0 0.0 1 1 192.5 227.5 L 192.5 236.0"/>
    <path d="M 217.5 236.0 L 217.5 227.5 A 5.0 5.0 0.0 1 1 227.5 227.5 L 227.5 236.0"/>
</svg>