<?xml version="1.0" standalone="no"?>
<!--Created with Sketsa SVG Editor (http://www.kiyut.com)-->
<?xml-stylesheet type="text/css" href="..\protection_and_switching.css" ?>
<svg contentScriptType="text/ecmascript" width="2000.0px" xmlns:xlink="http://www.w3.org/1999/xlink" baseProfile="full"
    zoomAndPan="magnify" contentStyleType="text/css" height="2000.0px" preserveAspectRatio="xMidYMid meet" xmlns="http://www.w3.org/2000/svg"
    version="1.0">
    <rect x="425.3333" width="52" y="494.3333" height="33"/>
    <rect x="425.0" width="52" height="33" y="226.0"/>
    <rect x="356.0" width="52" y="226.0" height="33"/>
    <rect x="218.0" width="52" height="33" y="226.0"/>
    <rect x="287.0" width="52" y="226.0" height="33"/>
    <line y2="136.33333" x1="22.333334" x2="22.666666" y1="136.33333"/>
    <rect x="100.0" width="410" y="259.0" height="235"/>
    <rect x="218.0" width="52" y="494.0" height="33"/>
    <ellipse rx="8" ry="8" cx="233.0" cy="510.5"/>
    <ellipse rx="8.0" ry="8" cx="255.0" cy="510.5"/>
    <rect x="287.0" width="52" height="33" y="494.0"/>
    <ellipse rx="8" ry="8" cx="302.0" cy="510.5"/>
    <ellipse rx="8.0" ry="8" cx="324.0" cy="510.5"/>
    <rect x="356.0" width="52" height="33" y="494.0"/>
    <ellipse rx="8" ry="8" cx="371.0" cy="510.5"/>
    <ellipse rx="8.0" ry="8" cx="393.0" cy="510.5"/>
    <ellipse rx="8" ry="8" cx="233.0" cy="242.5"/>
    <ellipse rx="8.0" ry="8" cx="255.0" cy="242.5"/>
    <ellipse rx="8" ry="8" cx="302.0" cy="242.5"/>
    <ellipse rx="8.0" ry="8" cx="324.0" cy="242.5"/>
    <ellipse rx="8" ry="8" cx="371.0" cy="242.5"/>
    <ellipse rx="8.0" ry="8" cx="393.0" cy="242.5"/>
    <rect x="116.5" width="379.0" height="204.0" y="275.0"/>
    <g>
        <ellipse rx="40.0" ry="40.0" cx="318.73456" cy="316.7636" transform="matrix(0.5779227 0.81609154 -0.81609154 0.5779227 239.40587 -118.227425)"/>
        <rect width="88.0" x="355.73456" height="30.0" y="301.7636" transform="matrix(0.5779227 0.81609154 -0.81609154 0.5779227 239.40587 -118.227425)"/>
        <rect width="5.0" x="443.73456" height="20.0" y="306.7636" transform="matrix(0.5779227 0.81609154 -0.81609154 0.5779227 239.40587 -118.227425)"/>
        <polyline points="448.73456,306.7636 468.73456,296.7636" transform="matrix(0.5779227 0.81609154 -0.81609154 0.5779227 239.40587 -118.227425)"/>
        <polyline points="448.73456,326.7636 468.73456,336.7636" transform="matrix(0.5779227 0.81609154 -0.81609154 0.5779227 239.40587 -118.227425)"/>
        <polyline points="473.73456,296.7636 488.73456,301.7636 488.73456,331.7636 473.73456,336.7636" transform="matrix(0.5779227 0.81609154 -0.81609154 0.5779227 239.40587 -118.227425)"/>
        <rect width="5.0" x="468.73456" height="40.0" y="296.7636" transform="matrix(0.5779227 0.81609154 -0.81609154 0.5779227 239.40587 -118.227425)"/>
    </g>
    <line y2="479.0" x1="300.0" x2="300.0" y1="275.0"/>
    <ellipse rx="8" ry="8" cx="440.0" cy="242.5"/>
    <ellipse rx="8.0" ry="8" cx="462.0" cy="242.5"/>
    <ellipse rx="8" ry="8" cx="440.3333" cy="510.8333"/>
    <ellipse rx="8.0" ry="8" cx="462.3333" cy="510.8333"/>
</svg>