<?xml version="1.0" standalone="no"?>
<!--Created with Sketsa SVG Editor (http://www.kiyut.com)-->
<?xml-stylesheet type="text/css" href="..\compressors.css" ?>
<svg contentScriptType="text/ecmascript" width="100.0px" xmlns:xlink="http://www.w3.org/1999/xlink" baseProfile="full"
    zoomAndPan="magnify" contentStyleType="text/css" height="100.0px" preserveAspectRatio="xMidYMid meet" xmlns="http://www.w3.org/2000/svg"
    version="1.0">
    <polyline points="44.0,89.0 40.0,95.0 60.0,95.0 56.0,89.0"/>
    <path d="M 25.0 20.0 L 25.0 85.0 A 9.0 5.0 0.0 0 1 5.0 85.0 L 5.0 20.0 A 9.0 5.0 0.0 0 1 25.0 20.0 z"/>
    <path d="M 75.0 20.0 L 75.0 85.0 A 9.0 5.0 0.0 0 0 95.0 85.0 L 95.0 20.0 A 9.0 5.0 0.0 0 0 75.0 20.0 z"/>
    <path d="M 60.0 50.0 L 60.0 85.0 A 9.0 5.0 0.0 0 1 40.0 85.0 L 40.0 50.0 A 9.0 5.0 0.0 0 1 60.0 50.0 z"/>
    <ellipse rx="8" fill="none" ry="8" cx="50" cy="58"/>
    <ellipse rx="8" fill="none" ry="8" cx="50" cy="78"/>
    <line y2="68" x1="25" x2="40" y1="68"/>
    <line y2="68" x1="60" x2="75" y1="68"/>
    <line y2="76" stroke-width="2" x1="32.5" x2="32.5" y1="60"/>
    <line y2="76" stroke-width="2" x1="67.5" x2="67.5" y1="60"/>
</svg>