<?xml version="1.0" standalone="no"?>
<!--Created with Sketsa SVG Editor (http://www.kiyut.com)-->
<?xml-stylesheet type="text/css" href="..\abstract.css" ?>
<svg contentScriptType="text/ecmascript" width="100.0px" xmlns:xlink="http://www.w3.org/1999/xlink" baseProfile="full"
    zoomAndPan="magnify" contentStyleType="text/css" height="100.0px" preserveAspectRatio="xMidYMid meet" xmlns="http://www.w3.org/2000/svg"
    version="1.0">
    <polygon points="5.0,95.0 5.0,5.0 68.0,35.5 68.0,64.5"/>
    <line y2="20" x2="5" y1="20"/>
    <line y2="50" x1="68" x2="100" y1="50"/>
    <line y2="20" x1="8" x2="14" y1="20"/>
    <line y2="80" x1="8" x2="14" y1="80"/>
    <line y2="83" x1="11" x2="11" y1="77"/>
    <line y2="80" x2="5" y1="80"/>
    <line y2="67" x1="45" x2="51" y1="67"/>
    <line y2="33" x1="45" x2="51" y1="33"/>
    <line y2="36" x1="48" x2="48" y1="30"/>
    <line y2="68.5" x1="60" x2="80" y1="68.5"/>
    <line y2="31.5" x1="80" x2="60" y1="31.5"/>
    <line y2="90" x1="40" x2="40" y1="78"/>
    <line y2="22" x1="40" x2="40" y1="10"/>
</svg>