<?xml version="1.0" standalone="no"?>
<!--Created with Sketsa SVG Editor (http://www.kiyut.com)-->
<?xml-stylesheet type="text/css" href="..\sports.css" ?>
<svg contentScriptType="text/ecmascript" width="100.0px" xmlns:xlink="http://www.w3.org/1999/xlink" baseProfile="full"
    zoomAndPan="magnify" contentStyleType="text/css" height="100.0px" preserveAspectRatio="xMidYMid meet" xmlns="http://www.w3.org/2000/svg"
    version="1.0">
    <path d="M 49.76 12.48 c 3.35 0.0 6.1 -2.71 6.1 -6.04 C 55.86 3.08 53.1 0.38 49.76 0.38 c -3.37 0.0 -6.1 2.71 -6.1 
        6.07 C 43.65 9.78 46.38 12.48 49.76 12.48 z M 59.5 14.43 H 39.91 c -4.32 0.0 -7.81 3.51 -7.81 7.87 V 36.79 c 0.0 
        3.61 4.81 3.61 4.81 0.0 V 22.81 h 4.99 v 17.63 c 2.55 0.61 5.16 1.07 7.91 1.07 c 2.73 0.0 5.31 -0.45 7.85 -1.04 
        V 22.81 h 4.95 V 36.79 c 0.0 3.63 4.81 3.63 4.81 0.0 V 22.39 C 67.43 18.4 64.27 14.43 59.5 14.43 z M 72.87 46.09 
        c -6.57 4.47 -14.57 7.09 -23.15 7.09 c -8.53 0.0 -16.43 -2.59 -23.03 -6.97 l -5.17 7.62 c 8.05 5.41 17.76 8.55 
        28.2 8.55 c 10.51 0.0 20.27 -3.17 28.34 -8.62 L 72.87 46.09 z M 82.75 61.8 c -9.4 6.35 -20.76 10.04 -32.98 10.04 
        c -12.18 0.0 -23.49 -3.65 -32.86 -9.93 l -5.22 7.46 c 10.85 7.3 23.97 11.57 38.08 11.57 c 14.13 0.0 27.26 -4.29 
        38.15 -11.59 L 82.75 61.8 z M 92.56 77.38 c -12.23 8.23 -26.94 13.02 -42.82 13.02 c -15.85 0.0 -30.57 -4.79 
        -42.77 -12.98 L 1.88 84.99 C 15.52 94.15 32.01 99.5 49.74 99.5 c 17.76 0.0 34.29 -5.39 47.99 -14.61 L 92.56 
        77.38 z"/>
</svg>