<?xml version="1.0" standalone="no"?>
<!--Created with Sketsa SVG Editor (http://www.kiyut.com)-->
<?xml-stylesheet type="text/css" href="..\sports.css" ?>
<svg contentScriptType="text/ecmascript" width="100.0px" xmlns:xlink="http://www.w3.org/1999/xlink" baseProfile="full"
    zoomAndPan="magnify" contentStyleType="text/css" height="100.0px" preserveAspectRatio="xMidYMid meet" xmlns="http://www.w3.org/2000/svg"
    version="1.0">
    <path id="path5112" d="M 58.25 27.55 c 4.1 0.0 7.45 -3.34 7.45 -7.45 c 0.0 -4.1 -3.34 -7.45 -7.45 -7.45 c -4.12 0.0 
        -7.45 3.34 -7.45 7.45 C 50.8 24.21 54.13 27.55 58.25 27.55 z M 78.48 92.55 L 67.49 59.21 V 32.53 c 0.0 -3.5 -3.5 
        -3.34 -3.5 -3.34 H 52.77 h -2.96 c 0.0 0.0 -0.6 -0.09 -1.82 0.91 l -8.27 4.82 l -8.62 -8.64 c -1.41 -1.66 -3.89 
        -1.91 -5.57 -0.51 c -1.69 1.41 -1.78 3.96 -0.37 5.64 l 11.0 11.01 c 0.74 0.79 1.78 1.33 2.95 1.33 c 0.85 0.0 
        1.64 -0.27 2.31 -0.72 l 7.25 -3.99 v 19.57 L 37.57 92.49 c -0.81 2.95 0.94 5.97 3.9 6.77 c 2.95 0.79 5.99 -0.97 
        6.77 -3.91 l 9.69 -29.24 l 9.87 29.3 c 0.8 2.96 3.82 4.71 6.77 3.9 C 77.52 98.52 79.27 95.5 78.48 92.55 z M 
        23.21 35.18 c 0.38 0.38 1.01 0.39 1.41 0.0 l 0.13 -0.11 c 0.37 -0.39 0.39 -1.02 0.0 -1.41 l -2.15 -2.21 c -0.39 
        -0.39 -1.03 -0.39 -1.43 -0.01 l -0.11 0.12 c -0.39 0.39 -0.42 1.02 -0.02 1.41 L 23.21 35.18 z M 43.81 10.2 L 
        31.1 23.93 l 1.53 1.57 l 14.18 -12.22 l 9.43 -8.68 c 0.37 -0.43 0.62 -0.97 0.62 -1.56 c 0.0 -1.31 -1.06 -2.39 
        -2.35 -2.41 c -0.64 -0.01 -1.19 0.24 -1.63 0.61 L 43.81 10.2 z"/>
</svg>