<?xml version="1.0" standalone="no"?>
<!--Created with Sketsa SVG Editor (http://www.kiyut.com)-->
<?xml-stylesheet type="text/css" href="..\sports.css" ?>
<svg contentScriptType="text/ecmascript" width="100.0px" xmlns:xlink="http://www.w3.org/1999/xlink" baseProfile="full"
    zoomAndPan="magnify" contentStyleType="text/css" height="100.0px" preserveAspectRatio="xMidYMid meet" xmlns="http://www.w3.org/2000/svg"
    version="1.0">
    <path id="path5034" d="M 41.17 0.63 H 22.36 v 13.61 h 18.81 V 0.63 z M 62.4 59.37 c -1.78 0.0 -3.22 -1.46 -3.22 
        -3.26 V 18.5 h 28.42 L 99.57 69.81 l -0.06 3.32 V 95.81 c 0.0 1.74 -1.39 3.17 -3.13 3.17 H 68.75 c -1.74 0.0 
        -3.13 -1.43 -3.13 -3.17 V 59.37 h -3.0 z M 37.86 59.44 c 1.78 0.0 3.22 -1.44 3.22 -3.24 V 18.56 h -28.39 L 0.69 
        69.87 L 0.75 73.22 v 22.68 c 0.0 1.74 1.41 3.17 3.13 3.17 h 27.62 c 1.75 0.0 3.16 -1.43 3.16 -3.17 V 59.44 h 
        2.95 z M 54.99 18.56 h -9.74 v 34.94 h 9.74 V 18.56 z M 78.0 0.63 H 59.17 v 13.61 h 18.82 V 0.63 z"/>
</svg>