<?xml version="1.0" standalone="no"?>
<!--Created with Sketsa SVG Editor (http://www.kiyut.com)-->
<?xml-stylesheet type="text/css" href="..\sports.css" ?>
<svg contentScriptType="text/ecmascript" width="100.0px" xmlns:xlink="http://www.w3.org/1999/xlink" baseProfile="full"
    zoomAndPan="magnify" contentStyleType="text/css" height="100.0px" preserveAspectRatio="xMidYMid meet" xmlns="http://www.w3.org/2000/svg"
    version="1.0">
    <path d="M 51.68 12.65 c 3.36 0.27 6.28 -2.19 6.56 -5.5 c 0.26 -3.31 -2.24 -6.19 -5.61 -6.46 c -3.33 -0.25 -6.27 
        2.22 -6.53 5.53 C 45.82 9.5 48.32 12.4 51.68 12.65 z"/>
    <path d="M 46.52 15.12 c 1.2 -0.82 2.66 -1.37 4.28 -1.23 c 2.08 0.16 3.8 1.44 4.84 2.99 l 6.14 12.02 l 8.38 5.69 c 
        0.72 0.55 1.16 1.42 1.06 2.37 c -0.11 1.48 -1.43 2.6 -2.94 2.47 c -0.46 -0.02 -0.83 -0.21 -1.25 -0.39 l -9.14 
        -6.21 c -0.28 -0.23 -0.51 -0.5 -0.69 -0.8 l -2.29 -4.5 l -2.76 11.97 l 10.79 12.59 c 0.26 0.39 0.42 0.84 0.51 
        1.3 l 2.92 15.19 c -0.02 0.34 0.02 0.55 0.0 0.82 c -0.16 2.26 -2.15 3.91 -4.42 3.75 c -1.88 -0.16 -3.26 -1.53 
        -3.7 -3.22 l -2.76 -14.23 l -8.78 -9.48 l -2.04 9.23 c -0.07 0.43 -0.65 1.35 -0.81 1.71 l -8.43 14.0 c -0.83 
        1.28 -2.25 2.1 -3.84 1.96 c -2.29 -0.16 -3.98 -2.12 -3.8 -4.36 c 0.05 -0.64 0.32 -1.3 0.56 -1.76 l 7.82 -12.95 l 
        6.53 -28.53 L 38.44 28.91 l -2.27 10.16 c -0.3 1.3 -1.5 2.38 -2.92 2.26 c -1.53 -0.11 -2.64 -1.42 -2.52 -2.92 c 
        0.0 -0.11 0.02 -0.23 0.05 -0.37 l 2.69 -11.86 c 0.16 -0.5 0.44 -0.96 0.83 -1.3 L 46.52 15.12 z"/>
    <rect x="18.02" width="7.92" y="88.28" height="11.05"/>
    <rect x="73.03" width="7.92" y="88.28" height="11.05"/>
    <rect x="1.17" width="9.65" height="5.28" y="78.46"/>
    <rect x="75.5" width="9.65" y="78.46" height="5.28"/>
    <rect x="88.19" width="9.65" y="78.46" height="5.28"/>
    <rect x="63.12" width="9.65" y="78.46" height="5.28"/>
    <rect x="50.73" width="9.66" y="78.46" height="5.28"/>
    <rect x="38.34" width="9.63" y="78.46" height="5.28"/>
    <rect x="25.96" width="9.63" y="78.46" height="5.28"/>
    <rect x="13.57" width="9.63" y="78.46" height="5.28"/>
</svg>