<?xml version="1.0" standalone="no"?>
<!--Created with Sketsa SVG Editor (http://www.kiyut.com)-->
<?xml-stylesheet type="text/css" href="..\sports.css" ?>
<svg contentScriptType="text/ecmascript" width="100.0px" xmlns:xlink="http://www.w3.org/1999/xlink" baseProfile="full"
    zoomAndPan="magnify" contentStyleType="text/css" height="100.0px" preserveAspectRatio="xMidYMid meet" xmlns="http://www.w3.org/2000/svg"
    version="1.0">
    <path d="M 54.23 63.29 c 4.01 -0.93 6.99 -4.56 6.99 -8.89 c 0.0 -5.04 -4.04 -9.12 -9.01 -9.12 c -4.98 0.0 -9.02 4.08 
        -9.02 9.12 c 0.0 2.93 1.36 5.53 3.48 7.2 L 0.5 51.27 v 24.63 l 50.57 0.04 c 2.27 0.0 4.27 -1.2 5.4 -3.0 c 1.14 
        1.8 3.13 3.0 5.4 3.0 c 2.27 0.0 4.27 -1.2 5.41 -3.0 c 1.13 1.8 3.13 3.0 5.4 3.0 c 2.27 0.0 4.27 -1.2 5.4 -3.0 c 
        1.14 1.8 3.13 3.0 5.4 3.0 s 4.27 -1.2 5.4 -3.0 c 1.13 1.8 3.13 3.0 5.4 3.0 c 2.04 0.0 3.86 -0.97 5.03 -2.47 L 
        54.23 63.29 z M 47.49 54.4 c 0.0 -2.63 2.11 -4.77 4.72 -4.77 c 2.61 0.0 4.72 2.14 4.72 4.77 c 0.0 2.64 -2.11 
        4.77 -4.72 4.77 C 49.61 59.17 47.49 57.03 47.49 54.4 z M 92.4 59.97 l -30.26 -6.66 c 0.04 0.36 0.06 0.72 0.06 
        1.09 c 0.0 0.9 -0.12 1.76 -0.33 2.58 l 29.77 6.55 L 92.4 59.97 M 4.99 40.73 l -0.77 3.56 l 38.15 8.4 c 0.21 
        -1.24 0.64 -2.41 1.26 -3.46 L 4.99 40.73 M 33.75 31.58 l 10.41 -5.96 L 43.07 23.67 L 30.5 30.87 L 9.77 26.33 C 
        9.91 39.38 24.05 43.17 24.05 43.17 l 20.73 4.47 c 1.83 -2.06 4.48 -3.35 7.42 -3.35 c 4.44 0.0 8.21 2.94 9.5 6.99 
        l 26.14 5.63 l 6.52 -12.07 L 33.75 31.58" transform="matrix(1.0 0.0 0.0 1.0 -0.0 -1.91E-6)"/>
</svg>