<?xml version="1.0" standalone="no"?>
<!--Created with Sketsa SVG Editor (http://www.kiyut.com)-->
<?xml-stylesheet type="text/css" href="..\sports.css" ?>
<svg contentScriptType="text/ecmascript" width="100.0px" xmlns:xlink="http://www.w3.org/1999/xlink" baseProfile="full"
    zoomAndPan="magnify" contentStyleType="text/css" height="100.0px" preserveAspectRatio="xMidYMid meet" xmlns="http://www.w3.org/2000/svg"
    version="1.0">
    <path id="path5006" d="M 41.19 43.67 c 1.83 0.0 3.33 -1.52 3.33 -3.37 v -5.62 c 0.0 -1.85 -1.49 -3.37 -3.33 -3.37 H 
        16.12 c -1.83 0.0 -3.33 1.52 -3.33 3.37 v 5.62 c 0.0 1.85 1.49 3.37 3.33 3.37 H 41.19 z M 74.27 43.65 c 1.85 0.0 
        3.33 -1.52 3.33 -3.37 v -5.6 c 0.0 -1.85 -1.48 -3.37 -3.33 -3.37 H 62.7 c -1.83 0.0 -3.33 1.52 -3.33 3.37 v 5.6 
        c 0.0 1.85 1.49 3.37 3.33 3.37 H 74.27 z M 31.25 70.38 H 12.31 c -6.57 0.0 -11.89 -5.39 -11.89 -12.03 L 0.4 
        37.33 C 0.4 28.31 7.62 21.0 16.53 21.0 h 54.84 c 8.9 0.0 16.14 7.31 16.14 16.33 l 0.02 29.67 h 8.4 c 1.81 0.0 
        3.28 1.52 3.28 3.36 H 56.61 c -0.41 -6.75 -5.91 -12.09 -12.68 -12.09 C 37.16 58.27 31.67 63.61 31.25 70.38 z M 
        43.94 75.21 c 2.2 0.0 3.98 -1.79 3.98 -4.02 s -1.78 -4.03 -3.98 -4.03 c -2.19 0.0 -3.97 1.8 -3.97 4.03 S 41.74 
        75.21 43.94 75.21 M 34.78 71.2 c 0.0 -5.13 4.09 -9.27 9.15 -9.27 s 9.15 4.15 9.15 9.27 c 0.0 5.12 -4.08 9.27 
        -9.15 9.27 C 38.87 80.47 34.78 76.31 34.78 71.2"/>
</svg>