<?xml version="1.0" standalone="no"?>
<!--Created with Sketsa SVG Editor (http://www.kiyut.com)-->
<?xml-stylesheet type="text/css" href="..\sports.css" ?>
<svg contentScriptType="text/ecmascript" width="100.0px" xmlns:xlink="http://www.w3.org/1999/xlink" baseProfile="full"
    zoomAndPan="magnify" contentStyleType="text/css" height="100.0px" preserveAspectRatio="xMidYMid meet" xmlns="http://www.w3.org/2000/svg"
    version="1.0">
    <path d="M 97.15 30.17 C 47.46 17.75 15.37 29.17 15.37 29.17 C 10.07 30.79 10.29 33.42 10.29 33.42 v 33.5 H 0.5 v 
        2.6 l 41.71 0.06 c 0.0 -6.81 5.46 -12.48 12.19 -12.48 c 6.72 0.0 12.18 5.53 12.18 12.33 c 0.0 0.09 0.01 0.17 
        0.01 0.25 h 28.82 c 3.47 -0.38 3.84 -5.27 3.84 -5.27 V 34.05 C 99.25 30.54 97.15 30.17 97.15 30.17 z M 37.55 
        45.71 H 21.44 v -10.65 h 16.11 V 45.71 z M 85.5 45.71 H 55.39 v -10.65 h 30.11 V 45.71 z"/>
    <path d="M 6.33 71.32 c -2.32 0.0 -4.21 1.9 -4.21 4.25 c -2.38E-7 2.35 1.88 4.26 4.21 4.26 c 2.31 0.0 4.21 -1.9 4.21 
        -4.26 C 10.54 73.23 8.64 71.32 6.33 71.32 z"/>
    <path d="M 6.33 75.57"/>
    <path d="M 54.4 59.69 c -5.31 0.0 -9.62 4.36 -9.62 9.74 c 0.0 5.39 4.3 9.75 9.62 9.75 s 9.62 -4.36 9.62 -9.75 C 
        64.02 64.05 59.72 59.69 54.4 59.69 z M 54.4 74.06 c -2.52 0.0 -4.58 -2.07 -4.58 -4.63 c 0.0 -2.54 2.05 -4.61 
        4.58 -4.61 c 2.52 0.0 4.56 2.07 4.56 4.61 C 58.96 71.99 56.92 74.06 54.4 74.06 z"/>
</svg>