<?xml version="1.0" standalone="no"?>
<!--Created with Sketsa SVG Editor (http://www.kiyut.com)-->
<?xml-stylesheet type="text/css" href="..\sports.css" ?>
<svg contentScriptType="text/ecmascript" width="100.0px" xmlns:xlink="http://www.w3.org/1999/xlink" baseProfile="full"
    zoomAndPan="magnify" contentStyleType="text/css" height="100.0px" preserveAspectRatio="xMidYMid meet" xmlns="http://www.w3.org/2000/svg"
    version="1.0">
    <path d="M 34.23 24.18 c 5.08 0.0 9.17 -4.16 9.17 -9.28 C 43.4 9.78 39.31 5.63 34.23 5.63 c -5.06 0.0 -9.17 4.15 
        -9.17 9.27 C 25.07 20.02 29.17 24.18 34.23 24.18 z M 0.4 74.89 c 2.15 0.0 4.21 -0.5 6.06 -1.34 c 1.9 -0.89 4.04 
        -1.41 6.27 -1.41 s 4.37 0.52 6.26 1.41 c 1.86 0.84 3.94 1.33 6.11 1.33 c 2.16 0.0 4.23 -0.49 6.08 -1.33 c 1.89 
        -0.89 4.03 -1.41 6.27 -1.41 c 2.23 0.0 4.36 0.52 6.27 1.41 c 1.84 0.84 3.93 1.33 6.08 1.33 s 4.24 -0.49 6.08 
        -1.33 c 1.91 -0.89 4.04 -1.41 6.28 -1.41 c 2.23 0.0 4.36 0.52 6.26 1.41 c 1.86 0.84 3.94 1.33 6.1 1.33 c 2.17 
        0.0 4.23 -0.49 6.1 -1.33 c 1.89 -0.89 4.03 -1.41 6.26 -1.41 c 1.91 0.0 3.76 0.37 5.44 1.03 c 2.72 -3.01 4.41 
        -7.02 4.41 -11.41 c 0.0 -9.34 -7.48 -16.91 -16.71 -16.91 l -1.87 0.2 c -2.05 8.43 -10.39 8.79 -10.39 8.79 L 
        29.63 53.84 l -3.19 -1.9 l 7.69 -13.05 l 8.42 4.92 c 5.04 3.31 7.67 -1.33 7.67 -1.33 l 8.44 -13.92 c 3.67 -6.05 
        -4.12 -10.9 -7.76 -4.83 l -5.91 9.76 l -14.05 -7.86 c -9.73 -5.49 -13.86 3.6 -13.86 3.6 L 6.05 48.35 c -1.88 
        3.97 -0.2 5.68 -0.2 5.68 l -5.45 -0.01 V 74.89 z M 99.25 93.34 c -2.16 0.0 -4.23 -0.49 -6.07 -1.33 c -1.91 -0.89 
        -4.04 -1.41 -6.28 -1.41 c -2.23 0.0 -4.37 0.52 -6.26 1.41 c -1.86 0.84 -3.93 1.33 -6.1 1.33 c -2.16 0.0 -4.23 
        -0.49 -6.1 -1.33 c -1.9 -0.89 -4.03 -1.41 -6.26 -1.41 c -2.24 0.0 -4.37 0.52 -6.28 1.41 c -1.84 0.84 -3.93 1.33 
        -6.08 1.33 s -4.24 -0.49 -6.08 -1.33 c -1.91 -0.89 -4.04 -1.41 -6.27 -1.41 c -2.24 0.0 -4.39 0.52 -6.27 1.41 c 
        -1.85 0.84 -3.93 1.33 -6.08 1.33 c -2.17 0.0 -4.24 -0.49 -6.11 -1.33 c -1.89 -0.89 -4.03 -1.41 -6.26 -1.41 s 
        -4.37 0.52 -6.27 1.41 C 4.61 92.86 2.53 93.34 0.38 93.34 v -9.22 c 2.16 0.0 4.23 -0.5 6.08 -1.34 c 1.9 -0.89 
        4.04 -1.41 6.27 -1.41 s 4.37 0.52 6.26 1.41 c 1.86 0.84 3.94 1.34 6.11 1.34 c 2.16 0.0 4.23 -0.5 6.08 -1.34 c 
        1.89 -0.89 4.03 -1.41 6.27 -1.41 c 2.23 0.0 4.36 0.52 6.27 1.41 c 1.84 0.84 3.93 1.34 6.08 1.34 s 4.24 -0.5 6.08 
        -1.34 c 1.91 -0.89 4.04 -1.41 6.28 -1.41 c 2.23 0.0 4.36 0.52 6.26 1.41 c 1.86 0.84 3.94 1.34 6.1 1.34 c 2.17 
        0.0 4.23 -0.5 6.1 -1.34 c 1.89 -0.89 4.03 -1.41 6.26 -1.41 c 2.24 0.0 4.37 0.52 6.28 1.41 c 1.84 0.84 3.92 1.34 
        6.07 1.34 V 93.34 z"/>
</svg>