<?xml version="1.0" standalone="no"?>
<!--Created with Sketsa SVG Editor (http://www.kiyut.com)-->
<?xml-stylesheet type="text/css" href="..\sports.css" ?>
<svg contentScriptType="text/ecmascript" width="100.0px" xmlns:xlink="http://www.w3.org/1999/xlink" baseProfile="full"
    zoomAndPan="magnify" contentStyleType="text/css" height="100.0px" preserveAspectRatio="xMidYMid meet" xmlns="http://www.w3.org/2000/svg"
    version="1.0">
    <path d="M 78.27 24.75 c -2.63 0.0 -4.77 2.14 -4.77 4.81 c 0.0 2.67 2.14 4.83 4.77 4.83 c 2.63 0.0 4.77 -2.16 4.77 
        -4.83 C 83.04 26.89 80.9 24.75 78.27 24.75 z M 38.25 24.75 c -2.63 0.0 -4.77 2.14 -4.77 4.81 c 0.0 2.67 2.14 
        4.83 4.77 4.83 c 2.63 0.0 4.77 -2.16 4.77 -4.83 C 43.03 26.89 40.89 24.75 38.25 24.75 z M 98.71 57.52 c 0.0 0.0 
        -1.3 -5.51 -6.08 -10.45 c 0.0 0.0 -0.3 6.67 -24.07 9.12 c -0.84 -1.0 -1.39 -2.7 2.11 -4.39 l 7.28 2.52 c 0.0 0.0 
        1.52 -0.11 0.87 -1.75 l -4.68 -2.65 c 0.0 0.0 -0.98 -1.54 -0.11 -2.08 c 0.87 -0.55 1.63 -1.77 1.63 -1.77 s 1.19 
        -0.77 2.5 -0.33 c 1.31 0.44 2.17 -0.45 2.83 -1.1 l 3.81 -3.98 c 0.0 0.0 1.95 -1.64 2.82 -1.52 c 0.87 0.1 0.21 
        -2.55 0.21 -2.55 s -4.02 1.88 -6.2 3.75 c 0.0 0.0 -1.62 1.43 -2.82 -0.33 c 0.0 0.0 -4.13 -4.52 -5.44 -5.07 c 0.0 
        0.0 -1.42 -1.31 -3.26 0.35 c 0.0 0.0 -5.55 3.5 -9.57 10.0 c 0.0 0.0 -4.3 6.68 -3.47 11.65 c -2.22 0.08 -4.58 
        0.12 -7.08 0.13 c -9.02 -0.04 -16.13 -0.52 -21.73 -1.26 c -0.64 -1.02 -0.72 -2.52 2.38 -4.02 l 7.28 2.52 c 0.0 
        0.0 1.52 -0.11 0.87 -1.75 l -4.68 -2.65 c 0.0 0.0 -0.98 -1.54 -0.11 -2.08 c 0.87 -0.55 1.63 -1.77 1.63 -1.77 s 
        1.19 -0.77 2.5 -0.33 c 1.31 0.44 2.17 -0.45 2.83 -1.1 l 3.81 -3.98 c 0.0 0.0 1.95 -1.64 2.82 -1.52 c 0.87 0.1 
        0.21 -2.55 0.21 -2.55 s -4.02 1.88 -6.2 3.75 c 0.0 0.0 -1.62 1.43 -2.82 -0.33 c 0.0 0.0 -4.13 -4.52 -5.44 -5.07 
        c 0.0 0.0 -1.42 -1.31 -3.26 0.35 c 0.0 0.0 -5.55 3.5 -9.57 10.0 c 0.0 0.0 -2.65 4.11 -3.39 8.28 c -9.61 -2.89 
        -9.77 -6.51 -9.77 -6.51 c -4.79 4.94 -6.09 10.45 -6.09 10.45 c -2.93 8.48 4.46 13.09 4.46 13.09 c 5.65 3.65 8.42 
        -2.25 8.42 -2.25 c 1.25 1.8 3.49 4.36 6.03 4.36 c 2.5 0.0 4.68 -2.57 5.94 -4.33 c 1.27 1.71 3.37 4.18 5.84 4.18 
        c 2.63 0.0 4.86 -2.53 6.07 -4.46 c 1.26 1.83 3.42 4.46 5.97 4.46 s 4.71 -2.52 5.96 -4.34 c 1.25 1.81 3.39 4.41 
        5.95 4.41 c 2.51 0.0 4.64 -2.48 5.9 -4.24 c 1.27 1.75 3.39 4.31 5.89 4.31 c 2.64 0.0 4.9 -2.58 6.12 -4.52 c 1.25 
        1.81 3.43 4.44 5.99 4.44 c 2.49 0.0 4.7 -2.53 5.97 -4.26 c 0.0 0.0 2.78 5.88 8.44 2.23 C 94.26 70.61 101.66 66.0 
        98.71 57.52 z" transform="matrix(1.0 0.0 0.0 1.0 -0.0 1.91E-6)"/>
</svg>