<?xml version="1.0" standalone="no"?>
<!--Created with Sketsa SVG Editor (http://www.kiyut.com)-->
<?xml-stylesheet type="text/css" href="..\sports.css" ?>
<svg contentScriptType="text/ecmascript" width="100.0px" xmlns:xlink="http://www.w3.org/1999/xlink" baseProfile="full"
    zoomAndPan="magnify" contentStyleType="text/css" height="100.0px" preserveAspectRatio="xMidYMid meet" xmlns="http://www.w3.org/2000/svg"
    version="1.0">
    <path id="path5190" d="M 86.46 74.94 c 3.76 -1.23 5.79 -5.24 4.54 -8.98 l -2.72 0.87 c 0.74 2.25 -0.49 4.65 -2.73 
        5.4 L 13.95 96.5 L 14.87 99.2 L 86.46 74.94 z M 20.52 33.0 c 3.93 -1.15 6.18 -5.26 5.03 -9.18 c -1.14 -3.92 
        -5.28 -6.16 -9.21 -5.01 c -3.94 1.14 -6.21 5.26 -5.05 9.18 C 12.44 31.9 16.56 34.15 20.52 33.0 M 17.48 43.26 c 
        -3.92 -7.44 7.33 -13.46 11.47 -6.25 l 8.09 15.27 l 15.37 -4.34 c 2.54 -0.72 6.05 2.04 6.05 5.29 l 0.09 21.76 c 
        0.02 5.4 -8.05 5.42 -8.05 -0.05 c -0.01 -5.06 -0.15 -15.86 -0.15 -15.86 l -16.05 4.79 c -3.5 1.01 -6.41 -0.73 
        -7.79 -3.31 L 17.48 43.26 z M 42.34 46.7 V 0.8 h -3.22 v 46.79 L 42.34 46.7 z M 10.1 53.18 c -2.21 -4.32 3.48 
        -7.19 5.69 -2.87 l 6.94 13.53 c 1.51 2.8 4.46 4.7 7.86 4.7 c 1.06 0.0 2.05 -0.27 3.02 -0.47 l 8.75 -2.56 c 4.64 
        -1.39 6.44 4.7 1.76 6.06 l -9.21 2.67 c -1.37 0.42 -2.86 0.64 -4.39 0.64 c -5.92 0.0 -11.04 -3.33 -13.57 -8.21 L 
        10.1 53.18 z"/>
</svg>