<?xml version="1.0" standalone="no"?>
<!--Created with Sketsa SVG Editor (http://www.kiyut.com)-->
<?xml-stylesheet type="text/css" href="..\sports.css" ?>
<svg contentScriptType="text/ecmascript" width="100.0px" xmlns:xlink="http://www.w3.org/1999/xlink" baseProfile="full"
    zoomAndPan="magnify" contentStyleType="text/css" height="100.0px" preserveAspectRatio="xMidYMid meet" xmlns="http://www.w3.org/2000/svg"
    version="1.0">
    <path d="M 11.55 42.72 c -0.45 0.92 -0.77 1.94 -0.95 3.03 c -0.07 0.55 -0.13 1.09 -0.13 1.64 l 0.4 25.01 L 2.19 91.0 
        c -0.3 0.55 -0.52 1.19 -0.62 1.86 c -0.47 3.08 1.65 5.93 4.74 6.4 c 2.39 0.37 4.69 -0.84 5.79 -2.85 l 9.55 
        -20.35 c 0.2 -0.47 0.37 -0.97 0.45 -1.51 c 0.02 -0.25 0.05 -0.52 0.05 -0.77 l -0.07 -15.45 l 14.66 6.37 l 2.37 
        15.11 c 0.47 2.21 2.29 3.97 4.66 4.34 c 3.09 0.45 5.96 -1.66 6.43 -4.72 c 0.07 -0.52 0.07 -1.04 0.02 -1.54 L 
        47.33 59.67 c -0.35 -1.76 -1.52 -3.28 -3.17 -4.05 l -13.12 -5.81 l 8.35 -14.47 l 4.14 5.24 c 0.42 0.47 0.97 0.87 
        1.6 1.12 l 15.79 4.59 c 2.09 0.45 4.24 -0.65 5.06 -2.66 c 0.92 -2.28 -0.18 -4.86 -2.44 -5.78 c -0.07 -0.02 -0.15 
        -0.05 -0.22 -0.07 l -13.72 -4.02 L 39.28 21.43 c -1.55 -1.64 -3.62 -2.8 -6.01 -3.18 c -4.19 -0.62 -8.15 1.36 
        -10.25 4.74 L 11.55 42.72 z M 56.83 78.57 l -1.0 7.49 L 28.68 92.64 l 0.25 4.64 h 66.24 c 2.34 0.0 4.24 -1.89 
        4.24 -4.22 L 99.33 4.23 l -9.08 -2.11 L 85.04 25.47 l -8.7 3.65 l -7.73 21.54 l 7.33 16.47 l -2.07 6.33 L 56.83 
        78.57 z M 38.38 17.16 c 4.66 0.0 8.45 -3.77 8.45 -8.41 C 46.83 4.11 43.04 0.33 38.38 0.33 c -4.66 0.0 -8.45 3.77 
        -8.45 8.41 C 29.93 13.39 33.72 17.16 38.38 17.16 z M 21.57 18.47 c 0.65 -1.14 0.27 -2.63 -0.9 -3.28 l -4.09 
        -2.38 c -1.17 -0.65 -2.64 -0.27 -3.32 0.89 L 0.65 35.37 c -0.65 1.14 -0.27 2.61 0.9 3.28 l 4.12 2.36 c 1.15 0.67 
        2.62 0.27 3.29 -0.87 L 21.57 18.47 z" transform="matrix(1.0 0.0 0.0 1.0 -0.0 3.81E-6)"/>
</svg>