<?xml version="1.0" standalone="no"?>
<!--Created with Sketsa SVG Editor (http://www.kiyut.com)-->
<?xml-stylesheet type="text/css" href="..\sports.css" ?>
<svg contentScriptType="text/ecmascript" width="100.0px" xmlns:xlink="http://www.w3.org/1999/xlink" baseProfile="full"
    zoomAndPan="magnify" contentStyleType="text/css" height="100.0px" preserveAspectRatio="xMidYMid meet" xmlns="http://www.w3.org/2000/svg"
    version="1.0">
    <path d="M 74.01 18.71 c 4.22 0.0 7.62 -3.44 7.62 -7.66 C 81.62 6.81 78.22 3.38 74.01 3.38 c -4.19 0.0 -7.6 3.44 
        -7.6 7.67 C 66.4 15.27 69.82 18.71 74.01 18.71 z M 99.49 75.13 c -0.79 -1.59 -2.68 -1.01 -2.68 -1.01 c -3.35 
        3.28 -9.08 2.98 -9.08 2.98 h -3.12 l 7.46 -34.69 l 1.8 0.3 l 0.79 -4.98 l -3.26 -0.89 L 63.64 17.21 c 0.0 0.0 
        -2.66 -2.07 -5.73 0.31 l -20.93 12.04 l -9.48 13.91 l 0.86 0.54 L 9.35 75.92 l -2.48 -1.51 l -1.15 1.86 l 2.5 
        1.53 l -1.57 2.63 l 2.12 1.29 l 1.57 -2.63 l 2.54 1.55 l 1.15 -1.86 l -2.56 -1.57 l 18.99 -31.86 l 0.69 0.44 l 
        11.26 -12.15 l 9.58 -4.48 c 0.0 0.0 -6.52 9.85 -9.88 23.37 L 35.65 77.1 h -4.19 l -1.58 3.7 h 4.8 l -1.46 5.55 H 
        1.83 L 0.25 90.04 h 61.71 c 8.6 -0.29 7.9 -5.68 7.9 -5.68 c -0.79 -1.58 -2.66 -0.99 -2.66 -0.99 c -3.37 3.29 
        -9.09 2.98 -9.09 2.98 H 38.92 l 2.37 -5.55 h 40.01 l -2.08 9.71 l -2.89 -0.65 l -0.5 2.15 l 2.92 0.66 l -0.53 
        2.44 l 2.4 0.52 l 0.52 -2.41 l 2.86 0.64 l 0.5 -2.15 l -2.9 -0.65 l 2.2 -10.26 h 7.78 C 100.19 80.49 99.49 75.13 
        99.49 75.13 z M 42.88 77.1 l 9.9 -23.07 l 12.34 5.08 l 1.14 17.99 H 42.88 z M 82.09 77.1 H 71.61 l 2.01 -21.18 L 
        58.01 44.58 c 0.0 0.0 -0.48 -0.7 0.31 -1.1 l 12.34 -11.33 l 19.05 9.5 L 82.09 77.1 z"/>
</svg>