<?xml version="1.0" standalone="no"?>
<!--Created with Sketsa SVG Editor (http://www.kiyut.com)-->
<?xml-stylesheet type="text/css" href="..\sports.css" ?>
<svg contentScriptType="text/ecmascript" width="100.0px" xmlns:xlink="http://www.w3.org/1999/xlink" baseProfile="full"
    zoomAndPan="magnify" contentStyleType="text/css" height="100.0px" preserveAspectRatio="xMidYMid meet" xmlns="http://www.w3.org/2000/svg"
    version="1.0">
    <path d="M 96.31 89.32 c -0.01 2.57 -2.11 4.64 -4.64 4.63 H 16.26 v 3.15 h 75.4 c 4.25 0.02 7.72 -3.42 7.74 -7.74 L 
        96.31 89.32 z M 73.77 18.33 c 4.18 0.0 7.57 -3.44 7.57 -7.67 S 77.95 3.0 73.77 3.0 c -4.18 0.0 -7.58 3.43 -7.58 
        7.66 S 69.58 18.33 73.77 18.33 z M 25.74 84.3 L 0.53 58.72 l 0.01 4.47 l 23.46 23.82 c 2.7 2.95 7.31 -0.46 7.31 
        -0.46 l -2.21 -2.4 c 0.0 0.0 -2.18 1.45 -3.31 0.21 L 25.74 84.3 z M 96.29 28.62 L 99.23 29.87 L 69.94 89.5 L 
        66.7 89.5 z M 47.68 24.02 L 35.9 37.78 c -0.69 0.87 -1.76 1.41 -2.94 1.41 c -2.11 0.0 -3.81 -1.72 -3.81 -3.85 c 
        0.0 -1.15 0.49 -2.18 1.29 -2.89 l 12.71 -14.8 c 0.7 -0.85 1.76 -1.4 2.94 -1.4 l 18.4 -0.01 c 1.35 0.0 2.56 0.55 
        3.46 1.42 l 11.73 11.86 l 9.72 -9.81 c 0.68 -0.58 1.57 -0.93 2.53 -0.93 c 2.18 0.0 3.94 1.79 3.94 3.98 c 0.0 
        0.96 -0.32 1.83 -0.88 2.52 L 83.24 37.23 c -3.56 3.59 -6.42 0.54 -6.42 0.54 l -7.19 -7.31 L 58.39 43.61 l 10.3 
        10.42 c 0.0 0.0 2.17 2.04 0.93 6.1 l -5.77 26.02 c -0.46 2.26 -2.44 3.96 -4.8 3.96 c -2.71 0.0 -4.9 -2.22 -4.9 
        -4.95 c 0.0 -0.43 0.04 -0.85 0.16 -1.24 l 4.74 -21.35 L 47.35 51.05 L 37.28 62.4 c 0.0 0.0 -1.63 2.04 -5.95 1.88 
        l -20.41 0.03 c -2.28 0.05 -4.35 -1.54 -4.87 -3.87 c -0.6 -2.67 1.03 -5.28 3.67 -5.88 c 0.41 -0.1 0.83 -0.13 
        1.23 -0.12 l 17.56 0.05 l 25.96 -30.44 L 47.68 24.02 z"/>
    <rect x="0.75" width="25.8" y="36.06" height="3.12"/>
</svg>