<?xml version="1.0" standalone="no"?>
<!--Created with Sketsa SVG Editor (http://www.kiyut.com)-->
<?xml-stylesheet type="text/css" href="..\sports.css" ?>
<svg contentScriptType="text/ecmascript" width="100.0px" xmlns:xlink="http://www.w3.org/1999/xlink" baseProfile="full"
    zoomAndPan="magnify" contentStyleType="text/css" height="100.0px" preserveAspectRatio="xMidYMid meet" xmlns="http://www.w3.org/2000/svg"
    version="1.0">
    <path d="M 20.45 87.53 c 8.98 0.0 16.28 -7.39 16.28 -16.51 c 0.0 -9.09 -7.29 -16.48 -16.28 -16.48 c -8.96 0.0 -16.25 
        7.39 -16.25 16.48 C 4.2 80.15 11.49 87.53 20.45 87.53 z M 0.5 71.03 C 0.5 59.86 9.45 50.82 20.45 50.82 c 11.03 
        0.0 19.98 9.04 19.98 20.21 c 0.0 11.18 -8.94 20.23 -19.98 20.23 C 9.45 91.26 0.5 82.21 0.5 71.03 z M 79.21 87.72 
        c 8.96 0.0 16.25 -7.38 16.25 -16.49 c 0.0 -9.11 -7.29 -16.48 -16.25 -16.48 c -8.98 0.0 -16.27 7.38 -16.27 16.48 
        C 62.94 80.35 70.23 87.72 79.21 87.72 z M 59.24 71.23 c 0.0 -11.18 8.95 -20.22 19.97 -20.22 c 11.0 0.0 19.95 
        9.04 19.95 20.22 s -8.95 20.23 -19.95 20.23 C 68.19 91.46 59.24 82.41 59.24 71.23 z M 59.29 21.87 c 4.14 0.0 
        7.51 -3.39 7.51 -7.59 c 0.0 -4.2 -3.37 -7.61 -7.51 -7.61 c -4.14 0.0 -7.51 3.41 -7.51 7.61 C 51.78 18.48 55.15 
        21.87 59.29 21.87 z M 59.6 40.33 c -1.09 0.02 -2.26 -0.53 -3.12 -1.91 l -4.87 -7.73 L 41.55 40.79 l 9.33 4.97 c 
        3.83 1.86 3.26 5.28 3.26 5.28 v 21.4 c 0.0 2.42 -1.93 4.4 -4.32 4.4 s -4.32 -1.98 -4.32 -4.4 V 55.31 l -16.18 
        -9.11 c -1.93 -1.09 -3.24 -3.18 -3.24 -5.56 c 0.0 -1.64 0.6 -3.14 1.62 -4.27 l 15.86 -16.11 c 1.97 -2.26 4.72 
        -1.9 4.72 -1.9 c 3.32 0.0 5.07 2.94 5.07 2.94 l 8.24 13.09 l 12.52 -0.02 c 4.5 0.0 4.5 5.95 0.0 5.95 H 59.6 z"/>
</svg>