<?xml version="1.0" standalone="no"?>
<!--Created with Sketsa SVG Editor (http://www.kiyut.com)-->
<?xml-stylesheet type="text/css" href="..\sports.css" ?>
<svg contentScriptType="text/ecmascript" width="100.0px" xmlns:xlink="http://www.w3.org/1999/xlink" baseProfile="full"
    zoomAndPan="magnify" contentStyleType="text/css" height="100.0px" preserveAspectRatio="xMidYMid meet" xmlns="http://www.w3.org/2000/svg"
    version="1.0">
    <path d="M 55.01 11.13 C 53.76 6.25 49.34 2.63 44.1 2.63 C 37.85 2.63 32.8 7.69 32.8 13.97 c 0.0 1.06 0.12 2.03 0.39 
        2.98 h 4.53 c 0.34 0.79 0.69 1.24 0.69 1.24 c 1.36 1.97 3.64 3.26 6.2 3.26 c 4.18 0.0 7.58 -3.42 7.58 -7.63 c 
        0.0 -0.97 0.24 -1.84 -0.16 -2.68 H 55.01 L 55.01 11.13 z M 54.7 78.97 c -1.19 1.22 -2.82 2.14 -4.67 2.14 V 56.39 
        l 16.98 -4.91 l 4.25 8.44 L 54.7 78.97 z M 40.45 22.42 c -1.12 -1.26 -2.74 -2.05 -4.56 -2.05 c -1.93 0.0 -3.66 
        0.9 -4.77 2.31 L 17.65 43.42 c -0.55 0.92 -0.86 2.0 -0.86 3.15 c 0.0 2.14 1.07 4.01 2.7 5.12 l 18.08 10.11 v 
        17.2 c 0.0 2.44 1.95 4.41 4.37 4.41 c 2.4 0.0 4.36 -1.98 4.36 -4.41 V 57.51 c 0.0 0.0 0.58 -3.42 -3.28 -5.29 l 
        -11.27 -5.94 l 8.21 -12.64 l 4.36 6.89 c 0.87 1.39 2.04 1.93 3.12 1.91 l 11.2 -0.04 c 4.56 0.0 4.56 -5.96 0.0 
        -5.94 H 49.56 L 40.45 22.42 z M 89.98 50.61 c 0.18 0.17 0.29 0.4 0.29 0.69 c 0.0 0.54 -0.45 0.99 -0.99 0.99 c 
        -0.15 0.0 -0.24 0.0 -0.36 -0.04 c -1.94 -0.84 -3.17 -1.35 -5.41 -1.35 c -1.49 0.0 -3.32 0.52 -5.45 2.25 l -1.97 
        -3.92 c 2.45 -0.74 4.47 -1.4 6.56 -1.4 C 86.02 47.83 87.79 48.53 89.98 50.61 z M 14.82 53.62 l 18.97 10.54 l 
        0.04 4.23 L 12.17 56.37 c -1.57 -0.81 -3.68 -1.29 -5.17 -1.29 c -2.24 0.0 -3.47 0.52 -5.4 1.35 c -0.12 0.04 
        -0.22 0.04 -0.36 0.04 C 0.71 56.48 0.25 56.03 0.25 55.49 c 0.0 -0.29 0.11 -0.52 0.29 -0.7 c 2.19 -2.08 4.43 
        -2.77 7.79 -2.77 C 10.04 52.02 12.14 52.22 14.82 53.62 z M 16.58 92.39 c 6.18 0.0 11.18 -5.04 11.18 -11.28 c 0.0 
        -6.24 -5.0 -11.28 -11.18 -11.28 c -6.18 0.0 -11.18 5.05 -11.18 11.28 C 5.4 87.34 10.4 92.39 16.58 92.39 z M 0.44 
        81.11 c 0.0 -8.98 7.23 -16.28 16.14 -16.28 c 8.93 0.0 16.16 7.3 16.16 16.28 c 0.0 8.98 -7.23 16.27 -16.16 16.27 
        C 7.67 97.38 0.44 90.09 0.44 81.11 z M 83.34 92.39 C 89.53 92.39 94.54 87.34 94.54 81.11 c 0.0 -6.24 -5.01 
        -11.28 -11.2 -11.28 c -6.16 0.0 -11.17 5.05 -11.17 11.28 C 72.17 87.34 77.18 92.39 83.34 92.39 z M 67.21 81.11 c 
        0.0 -8.98 7.21 -16.28 16.13 -16.28 c 8.92 0.0 16.16 7.3 16.16 16.28 c 0.0 8.98 -7.24 16.27 -16.16 16.27 C 74.43 
        97.38 67.21 90.09 67.21 81.11 z M 79.79 62.51 l -7.84 -15.81 c -1.02 -1.9 -3.04 -3.2 -5.33 -3.2 h -5.12 c -1.01 
        0.0 -1.81 0.84 -1.81 1.84 c 0.0 1.02 0.8 1.82 1.81 1.82 l 5.12 -0.02 c 0.87 0.0 1.83 0.59 2.19 1.44 l 7.39 15.18 
        L 79.79 62.51 z"/>
</svg>