<?xml version="1.0" standalone="no"?>
<!--Created with Sketsa SVG Editor (http://www.kiyut.com)-->
<?xml-stylesheet type="text/css" href="..\sports.css" ?>
<svg contentScriptType="text/ecmascript" width="100.0px" xmlns:xlink="http://www.w3.org/1999/xlink" baseProfile="full"
    zoomAndPan="magnify" contentStyleType="text/css" height="100.0px" preserveAspectRatio="xMidYMid meet" xmlns="http://www.w3.org/2000/svg"
    version="1.0">
    <path id="path5602" d="M 96.63 99.33 c -2.07 0.0 -4.04 -0.47 -5.79 -1.26 c -1.81 -0.84 -3.86 -1.33 -5.99 -1.33 c 
        -2.14 0.0 -4.16 0.49 -5.99 1.33 C 77.1 98.86 75.13 99.33 73.06 99.33 c -2.07 0.0 -4.04 -0.47 -5.79 -1.26 c -1.84 
        -0.84 -3.85 -1.33 -5.99 -1.33 c -2.14 0.0 -4.18 0.49 -5.99 1.33 C 53.53 98.86 51.56 99.33 49.49 99.33 c -2.06 
        0.0 -4.04 -0.47 -5.82 -1.26 c -1.8 -0.84 -3.85 -1.33 -5.96 -1.33 c -2.14 0.0 -4.18 0.49 -5.99 1.33 C 29.96 98.86 
        27.99 99.33 25.93 99.33 c -2.07 0.0 -4.04 -0.47 -5.82 -1.26 c -1.8 -0.84 -3.85 -1.33 -5.96 -1.33 c -2.14 0.0 
        -4.18 0.49 -5.99 1.33 C 6.4 98.86 4.4 99.33 2.33 99.33 v -8.7 c 2.07 0.0 4.07 -0.47 5.83 -1.27 c 1.8 -0.82 3.85 
        -1.31 5.99 -1.31 c 2.11 0.0 4.16 0.49 5.96 1.31 c 1.78 0.8 3.75 1.27 5.82 1.27 c 2.06 0.0 4.03 -0.47 5.79 -1.27 
        c 1.8 -0.82 3.85 -1.31 5.99 -1.31 c 2.12 0.0 4.16 0.49 5.96 1.31 c 1.78 0.8 3.75 1.27 5.82 1.27 c 2.07 0.0 4.04 
        -0.47 5.81 -1.27 c 1.8 -0.82 3.85 -1.31 5.99 -1.31 c 2.14 0.0 4.15 0.49 5.99 1.31 c 1.75 0.8 3.73 1.27 5.79 1.27 
        c 2.07 0.0 4.04 -0.47 5.81 -1.27 c 1.83 -0.82 3.85 -1.31 5.99 -1.31 c 2.13 0.0 4.17 0.49 5.98 1.31 c 1.76 0.8 
        3.73 1.27 5.79 1.27 V 99.33 z M 29.02 56.67 c 4.39 0.0 7.96 -3.57 7.96 -7.96 c 0.0 -4.38 -3.57 -7.93 -7.96 -7.93 
        c -4.38 0.0 -7.94 3.54 -7.94 7.93 C 21.07 53.1 24.65 56.67 29.02 56.67 M 30.15 84.16 c -1.25 2.13 -3.99 2.86 
        -6.12 1.58 c -2.14 -1.24 -2.86 -3.99 -1.62 -6.11 l 18.45 -31.75 c 0.67 -1.2 1.66 -2.19 2.84 -2.83 l 23.72 -14.37 
        L 83.51 3.29 c 1.53 -2.67 4.94 -3.59 7.61 -2.07 c 2.65 1.55 3.57 4.95 2.04 7.6 L 73.87 41.65 c -0.66 1.19 -1.65 
        2.18 -2.85 2.83 L 43.04 61.87 L 30.15 84.16 z"/>
</svg>