<?xml version="1.0" standalone="no"?>
<!--Created with Sketsa SVG Editor (http://www.kiyut.com)-->
<?xml-stylesheet type="text/css" href="..\sports.css" ?>
<svg contentScriptType="text/ecmascript" width="100.0px" xmlns:xlink="http://www.w3.org/1999/xlink" baseProfile="full"
    zoomAndPan="magnify" contentStyleType="text/css" height="100.0px" preserveAspectRatio="xMidYMid meet" xmlns="http://www.w3.org/2000/svg"
    version="1.0">
    <path d="M 89.8 12.01 c -4.91 0.0 -8.91 4.04 -8.91 9.01 c 0.0 4.96 4.0 9.0 8.91 9.0 c 4.91 0.0 8.89 -4.04 8.89 -9.0 
        C 98.69 16.05 94.71 12.01 89.8 12.01 z M 60.78 67.92 c 0.0 0.0 1.32 -0.95 3.26 -0.52 l 0.08 0.01 l 14.39 3.28 c 
        0.0 0.0 1.04 -0.12 2.82 3.04 c 0.0 0.0 0.22 1.37 1.99 0.74 c 0.0 0.0 0.3 0.0 0.94 0.41 c 0.0 0.0 3.34 1.37 3.64 
        -0.41 l 11.59 -39.87 c 0.0 0.0 0.35 -4.39 -2.15 -4.39 c -2.14 1.94 -4.96 3.13 -8.07 3.13 c -6.65 0.0 -12.03 
        -5.44 -12.03 -12.14 c 0.0 -2.35 0.67 -4.57 1.81 -6.42 c 0.0 0.0 -0.1 -0.33 -0.84 -1.48 c 0.0 0.0 -2.1 -2.44 
        -1.47 -3.7 c 0.0 0.0 0.53 -2.52 -1.67 -1.69 L 53.28 13.1 c 0.0 0.0 -3.1 0.81 -3.08 3.06 c 0.0 0.0 -0.31 2.19 
        2.27 3.36 l 8.11 3.07 c 0.0 0.0 2.5 0.93 0.94 2.0 L 48.28 34.82 c 0.0 0.0 -2.82 1.79 -2.61 5.06 c 0.0 0.0 -1.33 
        13.9 -2.15 19.88 l -10.92 -2.53 l 0.47 -2.06 c 0.18 -0.83 -0.27 -1.65 -1.01 -1.83 c -0.75 -0.18 -1.51 0.36 -1.7 
        1.19 l -0.47 2.07 l -4.34 -1.01 l -1.61 1.0 l 1.04 1.69 l 4.3 1.0 l -0.49 2.14 c -0.18 0.84 0.27 1.66 1.01 1.83 
        c 0.75 0.17 1.51 -0.35 1.7 -1.19 l 0.49 -2.15 l 10.98 2.56 c -0.18 0.25 -0.58 0.77 -1.04 1.22 L 23.46 81.64 L 
        1.04 79.63 L 0.62 83.63 l 83.32 7.61 c 0.0 0.0 7.6 0.73 14.08 -5.07 l -0.4 -5.49 c 0.0 0.0 -6.17 7.5 -13.25 6.55 
        c -7.08 -0.96 -47.87 -4.34 -47.87 -4.34 l 10.95 -7.38 c 0.0 0.0 0.11 0.1 0.84 -1.38 L 71.33 15.5 l 2.82 1.09 L 
        52.01 73.13 L 60.78 67.92 z M 63.62 63.19 l 4.68 -16.58 c 0.32 -1.89 2.61 -2.3 2.61 -2.3 l 13.87 -2.86 c 2.49 
        -0.67 1.99 1.28 1.99 1.28 l -2.4 24.89 c -0.18 1.54 -1.04 1.25 -1.04 1.25 l -18.25 -4.09 C 62.97 64.39 63.62 
        63.19 63.62 63.19 z"/>
</svg>