<?xml version="1.0" standalone="no"?>
<!--Created with Sketsa SVG Editor (http://www.kiyut.com)-->
<?xml-stylesheet type="text/css" href="..\sports.css" ?>
<svg contentScriptType="text/ecmascript" width="100.0px" xmlns:xlink="http://www.w3.org/1999/xlink" baseProfile="full"
    zoomAndPan="magnify" contentStyleType="text/css" height="100.0px" preserveAspectRatio="xMidYMid meet" xmlns="http://www.w3.org/2000/svg"
    version="1.0">
    <path d="M 70.8 20.0 c 3.86 0.0 6.98 -3.17 6.98 -7.08 c 0.0 -3.89 -3.12 -7.06 -6.98 -7.06 c -3.83 0.0 -6.96 3.17 
        -6.96 7.06 C 63.85 16.83 66.97 20.0 70.8 20.0 z M 75.99 21.58 H 65.82 L 48.49 4.0 c -1.35 -1.44 -3.6 -1.51 -5.03 
        -0.12 c -1.42 1.37 -1.49 3.66 -0.14 5.1 l 18.11 18.39 v 60.96 c 0.0 2.21 1.75 3.98 3.9 3.98 c 2.18 0.0 3.93 
        -1.77 3.93 -3.98 V 55.27 h 3.17 l 0.02 33.06 c 0.0 2.21 1.77 3.98 3.93 3.98 s 3.9 -1.77 3.9 -3.98 l -0.02 -60.96 
        L 98.38 8.98 c 1.35 -1.44 1.28 -3.73 -0.14 -5.1 c -1.42 -1.4 -3.67 -1.33 -5.03 0.12 L 75.99 21.58 z M 39.14 
        48.47 c -1.06 -1.09 -2.5 -1.75 -4.11 -1.75 H 20.44 c -1.61 0.0 -3.05 0.65 -4.09 1.75 L 1.73 63.3 c -1.35 1.44 
        -1.31 3.73 0.11 5.1 s 3.7 1.33 5.03 -0.12 l 11.34 -11.5 v 15.37 H 5.49 c -2.34 0.0 -4.22 1.91 -4.22 4.28 c 
        1.79E-7 1.23 0.46 2.33 1.29 3.12 l 14.33 14.53 c 1.26 1.89 3.74 2.49 5.72 1.33 c 2.09 -1.21 2.78 -3.89 1.58 
        -5.98 l -8.17 -8.27 l 0.16 0.02 h 23.48 l -8.2 8.27 c -1.17 2.1 -0.48 4.77 1.58 5.98 c 1.97 1.16 4.48 0.56 5.74 
        -1.33 l 14.33 -14.53 c 0.83 -0.79 1.28 -1.89 1.28 -3.12 c 0.0 -2.38 -1.88 -4.28 -4.22 -4.28 H 37.47 V 56.97 l 
        11.14 11.34 c 1.35 1.44 3.61 1.49 5.03 0.12 c 1.42 -1.37 1.47 -3.65 0.11 -5.1 L 39.14 48.47 z M 27.88 45.21 c 
        3.85 0.0 6.95 -3.17 6.95 -7.06 c 0.0 -3.91 -3.1 -7.06 -6.95 -7.06 c -3.83 0.0 -6.96 3.14 -6.96 7.06 C 20.92 
        42.04 24.05 45.21 27.88 45.21 z"/>
</svg>