<?xml version="1.0" standalone="no"?>
<!--Created with Sketsa SVG Editor (http://www.kiyut.com)-->
<?xml-stylesheet type="text/css" href="..\sports.css" ?>
<svg contentScriptType="text/ecmascript" width="100.0px" xmlns:xlink="http://www.w3.org/1999/xlink" baseProfile="full"
    zoomAndPan="magnify" contentStyleType="text/css" height="100.0px" preserveAspectRatio="xMidYMid meet" xmlns="http://www.w3.org/2000/svg"
    version="1.0">
    <path id="path5274" d="M 67.31 30.3 L 51.75 15.86 L 61.49 5.25 l 33.18 30.84 c -7.07 7.93 -13.73 13.22 -24.34 14.28 
        L 67.31 30.3 z M 71.46 80.57 c 0.1 1.68 0.52 3.36 1.25 4.99 c 3.25 7.15 11.61 10.3 18.69 7.02 c 7.08 -3.28 10.19 
        -11.69 6.97 -18.83 c -2.03 -4.46 -6.07 -7.36 -10.53 -8.1 l -2.3 14.0 L 71.46 80.57 z M 82.38 77.37 l -9.18 -12.6 
        c -3.35 2.48 -5.72 6.33 -6.23 10.8 L 82.38 77.37 z M 42.39 38.77 l 2.3 -9.12 l 6.91 -7.59 l 10.51 9.78 l -44.78 
        48.73 c -3.59 3.85 -6.3 8.53 -7.79 13.76 L 0.38 91.41 c 1.85 -6.38 5.13 -12.13 9.48 -16.96 L 42.39 38.77 z M 
        58.25 80.83 c 3.64 2.86 5.98 7.33 5.98 12.34 H 48.72 L 58.25 80.83 z"/>
</svg>