<?xml version="1.0" standalone="no"?>
<!--Created with Sketsa SVG Editor (http://www.kiyut.com)-->
<?xml-stylesheet type="text/css" href="..\sports.css" ?>
<svg contentScriptType="text/ecmascript" width="100.0px" xmlns:xlink="http://www.w3.org/1999/xlink" baseProfile="full"
    zoomAndPan="magnify" contentStyleType="text/css" height="100.0px" preserveAspectRatio="xMidYMid meet" xmlns="http://www.w3.org/2000/svg"
    version="1.0">
    <path d="M 98.75 20.62 c 0.0 -2.89 -1.93 -5.23 -4.54 -6.02 V 0.38 h -3.51 v 14.22 c -2.61 0.78 -4.55 3.12 -4.55 6.02 
        c 0.0 2.9 1.94 5.24 4.55 6.01 v 11.27 v 3.08 v 3.27 c 0.0 0.0 -0.05 1.37 -1.59 1.37 c -1.64 -0.03 -1.56 -1.37 
        -1.56 -1.37 v -2.15 c 0.0 0.0 -0.08 -2.72 -1.61 -2.72 c -1.53 0.0 -1.53 2.72 -1.53 2.72 v 2.02 c 0.0 0.0 0.11 
        5.07 4.78 5.07 c 4.94 0.0 5.01 -5.2 5.01 -5.2 v -0.03 v -2.99 v -0.89 v -13.46 C 96.82 25.85 98.75 23.52 98.75 
        20.62 z M 92.45 23.34 c -1.48 0.0 -2.69 -1.22 -2.69 -2.72 c 0.0 -1.49 1.2 -2.7 2.69 -2.7 s 2.69 1.22 2.69 2.7 C 
        95.13 22.12 93.93 23.34 92.45 23.34 z M 93.88 77.2 l 5.14 -7.32 c 0.0 0.0 -35.67 -39.12 -79.75 0.96 L 1.32 60.43 
        l 7.94 15.36 L 0.38 92.33 l 19.06 -9.11 C 65.58 118.02 99.25 82.86 99.25 82.86 L 93.88 77.2 z M 86.15 74.76 c 
        -2.28 0.0 -4.12 -1.89 -4.12 -4.18 c 0.0 -2.32 1.84 -4.18 4.12 -4.18 c 2.29 0.0 4.14 1.86 4.14 4.18 C 90.3 72.88 
        88.44 74.76 86.15 74.76 z"/>
</svg>