<?xml version="1.0" standalone="no"?>
<!--Created with Sketsa SVG Editor (http://www.kiyut.com)-->
<?xml-stylesheet type="text/css" href="..\sports.css" ?>
<svg contentScriptType="text/ecmascript" width="100.0px" xmlns:xlink="http://www.w3.org/1999/xlink" baseProfile="full"
    zoomAndPan="magnify" contentStyleType="text/css" height="100.0px" preserveAspectRatio="xMidYMid meet" xmlns="http://www.w3.org/2000/svg"
    version="1.0">
    <path id="path4830_1_" d="M 17.67 57.01 c 1.8 0.0 3.33 -1.51 3.33 -3.33 c 0.0 -1.83 -1.53 -3.34 -3.33 -3.34 c -1.79 
        0.0 -3.33 1.51 -3.33 3.34 C 14.34 55.51 15.88 57.01 17.67 57.01 M 0.77 61.94 L 0.77 61.94 C 0.72 61.89 0.67 
        61.79 0.67 61.69 c 0.0 -0.19 0.17 -0.34 0.36 -0.34 h 10.53 c 0.51 0.0 0.92 -0.42 0.92 -0.93 c 0.0 -0.4 -0.17 
        -0.67 -0.56 -0.89 l -9.53 -4.59 c -0.17 -0.1 -0.3 -0.29 -0.3 -0.54 c -4.77E-7 -0.16 0.05 -0.31 0.17 -0.44 c 
        2.38E-7 0.0 25.01 -22.35 80.39 -0.69 l 15.2 -7.5 c 0.15 -0.08 0.32 -0.13 0.48 -0.13 c 0.66 0.0 1.19 0.54 1.19 
        1.21 c 0.0 0.21 -0.08 0.42 -0.17 0.6 l -8.97 11.29 l 8.97 11.26 c 0.1 0.2 0.17 0.4 0.17 0.64 c 0.0 0.64 -0.53 
        1.18 -1.19 1.18 c -0.16 0.0 -0.34 -0.05 -0.48 -0.13 l -15.2 -7.5 C 82.66 64.2 29.72 85.47 0.77 61.94 M 64.91 
        21.96 v 11.79 h 28.8 c 3.21 0.0 5.83 -2.64 5.83 -5.89 C 99.54 24.58 96.92 21.96 93.71 21.96 H 64.91 z M 10.75 
        30.43 l 2.66 -1.13 l 1.66 2.87 l 2.69 -1.96 l 1.92 2.72 l 2.57 -2.11 l 2.08 2.57 L 26.76 31.16 l 2.2 2.46 l 2.33 
        -2.37 l 2.34 2.37 l 2.33 -2.37 l 2.31 2.37 l 2.35 -2.37 l 2.33 2.37 l 2.33 -2.37 l 2.33 2.37 l 2.32 -2.37 l 2.33 
        2.37 l 2.33 -2.37 l 2.33 2.37 l 2.32 -2.37 l 2.36 2.37 V 21.98 H 0.67 v 0.05 C 3.46 25.42 6.88 28.3 10.75 30.43"
        transform="matrix(1.0 0.0 0.0 1.0 -0.0 -1.91E-6)"/>
</svg>