<?xml version="1.0" standalone="no"?>
<!--Created with Sketsa SVG Editor (http://www.kiyut.com)-->
<?xml-stylesheet type="text/css" href="..\sports.css" ?>
<svg contentScriptType="text/ecmascript" width="100.0px" xmlns:xlink="http://www.w3.org/1999/xlink" baseProfile="full"
    zoomAndPan="magnify" contentStyleType="text/css" height="100.0px" preserveAspectRatio="xMidYMid meet" xmlns="http://www.w3.org/2000/svg"
    version="1.0">
    <path d="M 59.01 66.78 c 2.24 0.0 4.04 -1.83 4.04 -4.1 c 0.0 -2.26 -1.8 -4.1 -4.04 -4.1 s -4.07 1.84 -4.07 4.1 C 
        54.94 64.95 56.76 66.78 59.01 66.78 z M 99.2 96.32 c -24.04 0.36 -49.17 -4.28 -68.4 -19.89 l -3.81E-6 0.0 c 
        -0.12 -0.11 -0.17 -0.26 -0.17 -0.44 c 0.0 -0.37 0.3 -0.66 0.64 -0.66 l 18.96 0.03 c 0.91 0.0 1.68 -0.76 1.68 
        -1.69 c 0.0 -0.7 -0.32 -1.18 -1.06 -1.56 l -17.14 -8.26 c -0.32 -0.2 -0.54 -0.56 -0.54 -0.97 c 0.0 -0.31 0.12 
        -0.59 0.32 -0.8 l 0.0 0.0 c 0.0 0.0 20.88 -18.64 65.71 -18.23 V 96.32 z M 89.54 3.38 C 74.7 3.55 60.16 9.94 
        43.87 23.44 c -0.61 -0.17 -1.95 -0.53 -1.95 -0.53 c -2.59 0.0 -4.7 2.12 -4.7 4.72 c 0.0 0.0 0.19 0.88 0.3 1.43 c 
        -0.5 0.47 -13.17 12.48 -13.17 12.48 L 13.14 52.21 c -1.05 0.97 -2.41 1.46 -3.83 1.39 c -1.42 -0.07 -2.72 -0.69 
        -3.66 -1.74 c -0.92 -1.03 -1.37 -2.32 -1.37 -3.6 c 0.0 -1.46 0.58 -2.91 1.72 -3.96 c 0.0 0.0 0.84 -0.47 1.49 
        -0.84 c 0.14 0.97 0.53 3.93 0.53 3.93 l 9.14 -11.75 L 7.07 39.1 c -2.66 0.92 -3.75 2.27 -3.79 2.33 c -3.69 3.38 
        -3.98 9.29 -0.57 13.11 c 3.43 3.82 9.3 4.1 13.07 0.64 l 0.1 -0.12 l 10.62 -10.21 c 0.0 0.0 13.11 -12.53 13.54 
        -12.94 c 0.63 0.17 1.87 0.49 1.87 0.49 c 2.58 0.0 4.67 -2.12 4.67 -4.74 c 0.0 0.0 -0.12 -0.69 -0.22 -1.19 C 
        62.14 13.35 75.93 7.14 89.74 6.98 c 2.84 -0.03 5.1 0.35 8.83 1.15 l 0.76 0.17 V 4.57 l -0.49 -0.11 C 94.99 3.63 
        92.46 3.34 89.54 3.38 z"/>
</svg>