<?xml version="1.0" standalone="no"?>
<!--Created with Sketsa SVG Editor (http://www.kiyut.com)-->
<?xml-stylesheet type="text/css" href="..\sports.css" ?>
<svg contentScriptType="text/ecmascript" width="100.0px" xmlns:xlink="http://www.w3.org/1999/xlink" baseProfile="full"
    zoomAndPan="magnify" contentStyleType="text/css" height="100.0px" preserveAspectRatio="xMidYMid meet" xmlns="http://www.w3.org/2000/svg"
    version="1.0">
    <path id="path5388" d="M 49.82 14.12 c 3.64 0.0 6.58 -2.93 6.58 -6.57 c 0.0 -3.62 -2.95 -6.58 -6.58 -6.58 c -3.65 
        -5.96E-8 -6.59 2.96 -6.59 6.58 C 43.23 11.19 46.17 14.12 49.82 14.12 M 91.35 89.54 c -1.81 -0.84 -3.85 -1.34 
        -5.99 -1.34 c -2.11 0.0 -4.15 0.49 -6.0 1.34 c -1.76 0.77 -3.73 1.24 -5.8 1.24 c -2.07 0.0 -4.07 -0.47 -5.84 
        -1.24 c -1.81 -0.84 -3.85 -1.34 -6.0 -1.34 c -2.13 0.0 -4.18 0.49 -5.99 1.34 c -1.78 0.77 -3.76 1.24 -5.83 1.24 
        c -2.07 0.0 -4.05 -0.47 -5.83 -1.24 c -1.82 -0.84 -3.86 -1.34 -5.99 -1.34 c -2.12 0.0 -4.16 0.49 -5.99 1.34 c 
        -1.77 0.77 -3.74 1.24 -5.8 1.24 c -2.07 0.0 -4.07 -0.47 -5.83 -1.24 c -1.82 -0.84 -3.86 -1.34 -6.0 -1.34 c -2.14 
        0.0 -4.19 0.49 -5.99 1.34 C 6.67 90.31 4.7 90.78 2.62 90.78 V 99.5 c 2.07 0.0 4.04 -0.44 5.84 -1.24 c 1.8 -0.85 
        3.85 -1.35 5.99 -1.35 c 2.13 0.0 4.18 0.49 6.0 1.35 C 22.21 99.06 24.21 99.5 26.28 99.5 c 2.06 0.0 4.03 -0.44 
        5.8 -1.24 c 1.83 -0.85 3.88 -1.35 5.99 -1.35 c 2.13 0.0 4.18 0.49 5.99 1.35 c 1.78 0.79 3.76 1.24 5.83 1.24 c 
        2.07 0.0 4.04 -0.44 5.83 -1.24 c 1.82 -0.85 3.86 -1.35 5.99 -1.35 c 2.14 0.0 4.19 0.49 6.0 1.35 C 69.48 99.06 
        71.48 99.5 73.55 99.5 c 2.07 0.0 4.05 -0.44 5.8 -1.24 c 1.84 -0.85 3.89 -1.35 6.0 -1.35 c 2.14 0.0 4.19 0.49 
        5.99 1.35 c 1.79 0.79 3.77 1.24 5.84 1.24 v -8.72 C 95.11 90.78 93.14 90.31 91.35 89.54 M 91.24 0.71 c -0.47 
        -0.18 -0.99 -0.07 -1.36 0.29 L 65.9 24.98 c -0.38 -0.17 -0.78 -0.26 -1.23 -0.26 h -9.1 c -1.55 -1.58 -9.77 -9.79 
        -9.77 -9.79 c -0.42 -0.42 -0.96 -0.66 -1.51 -0.81 c -1.89 -1.64 -4.73 -1.61 -6.54 0.19 L 23.54 28.51 c -0.54 
        0.54 -0.87 1.29 -0.87 2.09 v 10.43 H 2.69 v 3.31 h 19.98 v 23.29 c 0.0 2.93 2.37 5.3 5.3 5.3 c 2.91 0.0 5.34 
        -2.37 5.34 -5.3 V 44.34 H 49.41 v 30.88 H 2.69 v 5.63 h 50.04 V 44.34 h 5.73 v -3.31 H 33.31 v -2.96 l 13.25 
        -13.26 l 5.4 5.4 c 0.59 0.61 1.42 0.94 2.29 0.94 h 10.41 c 1.78 0.0 3.23 -1.43 3.23 -3.21 c 0.0 -0.42 -0.1 -0.83 
        -0.24 -1.2 L 89.52 4.9 v 76.04 h 2.5 V 1.89 C 92.02 1.37 91.71 0.93 91.24 0.71" transform="matrix(1.0 0.0 0.0 1.0 -0.0 -3.81E-6)"/>
</svg>