<?xml version="1.0" standalone="no"?>
<!--Created with Sketsa SVG Editor (http://www.kiyut.com)-->
<?xml-stylesheet type="text/css" href="..\sports.css" ?>
<svg contentScriptType="text/ecmascript" width="100.0px" xmlns:xlink="http://www.w3.org/1999/xlink" baseProfile="full"
    zoomAndPan="magnify" contentStyleType="text/css" height="100.0px" preserveAspectRatio="xMidYMid meet" xmlns="http://www.w3.org/2000/svg"
    version="1.0">
    <path d="M 73.71 17.07 c -4.72 0.0 -8.53 3.78 -8.53 8.44 c 0.0 4.65 3.81 8.42 8.53 8.42 c 4.7 0.0 8.52 -3.77 8.52 
        -8.42 C 82.23 20.85 78.41 17.07 73.71 17.07 z M 65.23 36.88 c 0.0 0.0 -7.23 -11.67 -16.29 -3.97 L 28.76 13.42 l 
        3.26 -7.79 L 25.17 0.37 L 20.96 11.69 L 20.83 11.8 l 0.06 0.07 L 20.83 12.04 l 0.35 0.14 l 24.63 24.04 C 39.27 
        44.26 25.7 64.53 21.98 72.95 C 19.0 79.65 19.0 83.43 19.0 83.43 L 20.71 99.38 h 21.59 l 1.3 -10.79 c -3.81E-6 
        0.0 -0.42 -6.42 1.7 -10.6 c 2.12 -4.21 20.54 -23.92 20.54 -23.92 l 12.96 6.32 l 3.81 -3.77 L 65.23 36.88 z"/>
</svg>