<?xml version="1.0" standalone="no"?>
<!--Created with Sketsa SVG Editor (http://www.kiyut.com)-->
<?xml-stylesheet type="text/css" href="..\sports.css" ?>
<svg contentScriptType="text/ecmascript" width="100.0px" xmlns:xlink="http://www.w3.org/1999/xlink" baseProfile="full"
    zoomAndPan="magnify" contentStyleType="text/css" height="100.0px" preserveAspectRatio="xMidYMid meet" xmlns="http://www.w3.org/2000/svg"
    version="1.0">
    <path d="M 39.87 17.1 c -4.12 0.0 -7.44 3.25 -7.44 7.25 c 0.0 4.01 3.32 7.25 7.44 7.25 c 4.09 0.0 7.42 -3.24 7.42 
        -7.25 C 47.29 20.35 43.97 17.1 39.87 17.1 z M 77.57 31.44 c -0.28 -1.57 -1.58 -2.45 -1.65 -2.51 L 32.24 0.46 L 
        28.18 6.27 c -0.76 1.15 -0.43 2.67 0.73 3.41 c 1.15 0.75 2.69 0.45 3.45 -0.7 l 2.38 -3.36 l 35.48 23.14 l -29.07 
        5.17 c -2.06 0.34 -3.55 2.38 -3.09 4.37 l 6.33 24.17 L 23.92 92.81 c -1.22 2.07 -0.48 4.72 1.63 5.91 c 2.14 1.2 
        4.84 0.47 6.07 -1.6 c 0.0 0.0 21.34 -31.72 21.42 -31.92 c 0.0 0.0 1.1 4.4 1.1 4.42 l -3.2 23.79 c -0.4 2.37 1.22 
        4.58 3.64 4.98 c 2.42 0.4 4.71 -1.19 5.12 -3.54 l 3.31 -24.48 c 0.1 -0.63 -0.03 -2.0 -0.17 -2.6 l -7.3 -28.66 l 
        18.99 -3.38 C 76.56 35.38 77.93 33.45 77.57 31.44 z"/>
</svg>