<?xml version="1.0" standalone="no"?>
<!--Created with Sketsa SVG Editor (http://www.kiyut.com)-->
<?xml-stylesheet type="text/css" href="..\sports.css" ?>
<svg contentScriptType="text/ecmascript" width="100.0px" xmlns:xlink="http://www.w3.org/1999/xlink" baseProfile="full"
    zoomAndPan="magnify" contentStyleType="text/css" height="100.0px" preserveAspectRatio="xMidYMid meet" xmlns="http://www.w3.org/2000/svg"
    version="1.0">
    <path d="M 99.5 8.04 L 99.5 4.63 L 0.38 42.86 L 0.38 46.29 z M 43.86 21.59 c 2.96 0.0 5.38 -2.47 5.38 -5.51 c 0.0 
        -3.03 -2.42 -5.48 -5.38 -5.48 c -2.98 0.0 -5.4 2.44 -5.4 5.48 C 38.46 19.12 40.88 21.59 43.86 21.59 z M 77.25 
        50.09 H 53.23 V 30.23 l -3.36 1.36 v 18.5 H 25.63 c -1.9 0.0 -3.45 1.58 -3.45 3.52 V 90.49 c 0.0 1.94 1.55 3.52 
        3.45 3.52 h 51.62 c 1.9 0.0 3.45 -1.58 3.45 -3.52 V 53.61 C 80.7 51.67 79.15 50.09 77.25 50.09 z M 40.6 70.12 c 
        0.0 1.05 -0.82 1.92 -1.85 1.92 H 27.39 c -1.03 0.0 -1.87 -0.86 -1.87 -1.92 V 58.57 c 0.0 -1.05 0.85 -1.92 1.87 
        -1.92 h 11.36 c 1.03 0.0 1.85 0.86 1.85 1.92 V 70.12 z M 59.07 69.98 c 0.0 1.06 -0.84 1.89 -1.88 1.89 H 45.86 c 
        -1.04 0.0 -1.88 -0.83 -1.88 -1.89 v -11.58 c 0.0 -1.05 0.84 -1.88 1.88 -1.88 h 11.33 c 1.04 0.0 1.88 0.83 1.88 
        1.88 V 69.98 z M 77.39 69.98 c 0.0 1.06 -0.82 1.89 -1.86 1.89 H 64.18 c -1.03 0.0 -1.88 -0.83 -1.88 -1.89 v 
        -11.58 c 0.0 -1.05 0.85 -1.88 1.88 -1.88 h 11.35 c 1.04 0.0 1.86 0.83 1.86 1.88 V 69.98 z M 56.73 16.69 c 2.97 
        0.0 5.39 -2.47 5.39 -5.51 s -2.42 -5.51 -5.39 -5.51 c -2.96 0.0 -5.38 2.47 -5.38 5.51 S 53.77 16.69 56.73 16.69 
        z" transform="matrix(1.0 0.0 0.0 1.0 -0.0 3.81E-6)"/>
</svg>