<?xml version="1.0" standalone="no"?>
<!--Created with Sketsa SVG Editor (http://www.kiyut.com)-->
<?xml-stylesheet type="text/css" href="..\sports.css" ?>
<svg contentScriptType="text/ecmascript" width="100.0px" xmlns:xlink="http://www.w3.org/1999/xlink" baseProfile="full"
    zoomAndPan="magnify" contentStyleType="text/css" height="100.0px" preserveAspectRatio="xMidYMid meet" xmlns="http://www.w3.org/2000/svg"
    version="1.0">
    <path d="M 57.79 52.63 c 2.56 0.9 5.34 -0.47 6.23 -3.09 c 0.89 -2.63 -0.47 -5.48 -3.03 -6.39 c -2.56 -0.92 -5.34 
        0.47 -6.23 3.1 C 53.89 48.86 55.23 51.73 57.79 52.63 z M 97.93 19.91 c 0.0 0.0 -16.56 -2.04 -50.96 -2.04 C 21.6 
        17.88 0.88 19.91 0.88 19.91 s 8.59 3.88 7.1 15.91 c 0.0 0.0 12.33 -1.5 17.5 9.33 l 23.16 -7.2 l -1.52 15.84 l 
        -9.79 2.46 c -0.87 0.2 -1.6 0.64 -2.2 1.19 L 13.64 78.71 c -1.27 1.23 -1.3 3.31 -0.07 4.58 c 1.2 1.3 3.23 1.35 
        4.47 0.12 l 16.18 -15.98 l 19.81 -4.97 l -0.14 0.04 l 3.3 -0.86 l 3.03 3.54 c 0.47 0.52 1.13 0.85 1.85 0.85 l 
        10.67 0.04 c 1.34 0.0 2.45 -1.12 2.45 -2.51 l 0.0 0.0 c 0.0 -1.21 -0.82 -2.15 -1.92 -2.43 l -7.94 -28.35 L 98.42 
        22.49 C 100.0 21.79 99.87 20.13 97.93 19.91 z M 70.88 61.01 c -2.43 0.0 -6.48 -0.02 -7.7 -0.02 c -1.16 -1.35 
        -5.75 -6.66 -5.75 -6.66 c -0.06 -0.1 -0.18 -0.12 -0.24 -0.18 c -1.16 -1.4 -3.01 -2.11 -4.85 -1.66 l -2.87 0.73 l 
        1.53 -16.0 l 12.13 -3.77 L 70.88 61.01 z"/>
</svg>