<?xml version="1.0" standalone="no"?>
<!--Created with Sketsa SVG Editor (http://www.kiyut.com)-->
<?xml-stylesheet type="text/css" href="..\sports.css" ?>
<svg contentScriptType="text/ecmascript" width="100.0px" xmlns:xlink="http://www.w3.org/1999/xlink" baseProfile="full"
    zoomAndPan="magnify" contentStyleType="text/css" height="100.0px" preserveAspectRatio="xMidYMid meet" xmlns="http://www.w3.org/2000/svg"
    version="1.0">
    <path d="M 69.87 11.7 c -3.87 0.0 -6.85 3.13 -6.85 6.93 c 0.0 3.91 2.98 7.04 6.85 7.04 c 3.75 0.0 6.85 -3.13 6.85 
        -7.04 C 76.71 14.83 73.62 11.7 69.87 11.7 z M 88.98 57.18 c 1.43 -3.24 1.1 -9.83 -0.33 -16.54 c 0.11 0.22 0.66 
        1.79 0.77 1.9 c 2.32 1.9 4.97 1.01 6.18 -2.35 c -2.54 -5.7 -5.08 -11.4 -7.62 -17.1 c -2.1 -0.33 -4.09 0.34 -6.19 
        2.01 c 1.0 2.35 1.88 4.69 2.76 7.04 l -3.65 -4.47 l -6.19 -1.9 l -3.98 1.34 c -0.33 0.33 -0.67 0.78 -0.88 1.12 c 
        -2.98 4.47 -4.64 9.16 -5.53 13.97 c -3.98 2.57 -7.73 4.92 -11.6 7.49 c -0.89 0.56 -1.77 1.12 -2.54 1.68 l 1.44 
        4.14 l 1.1 -0.34 l 0.88 -0.34 l 12.26 21.9 L 61.58 94.72 l 7.62 1.9 l 0.67 -2.12 l 1.88 -5.59 l 4.75 7.48 l 2.76 
        -0.56 l -6.19 -12.07 l 2.54 -11.17 l 5.19 -5.7 l 13.37 29.5 L 99.25 93.05 L 88.98 57.18 z M 69.87 64.77 c -1.11 
        2.24 -2.1 4.47 -3.1 6.82 L 56.72 53.83 l 11.82 -4.58 l 1.33 -2.12 l 1.88 -3.02 c 1.44 2.9 2.98 5.7 4.42 8.49 C 
        73.95 56.62 71.85 60.64 69.87 64.77 z M 21.36 2.88 c -3.98 0.0 -7.29 3.35 -7.29 7.37 c 0.0 4.14 3.31 7.37 7.29 
        7.37 c 3.98 0.0 7.29 -3.24 7.29 -7.37 C 28.66 6.23 25.34 2.88 21.36 2.88 z M 43.02 51.81 c 1.22 -1.79 1.88 -4.02 
        1.99 -6.59 c -0.33 -3.02 -1.44 -6.37 -2.43 -9.5 c -0.99 -2.01 -0.11 0.0 0.66 0.22 c 3.32 1.12 5.19 0.0 6.19 
        -2.57 c -3.09 -6.93 -5.75 -13.74 -8.95 -20.56 c -2.54 0.11 -4.53 1.01 -5.85 2.57 l 4.31 11.96 c -2.54 -5.92 
        -5.86 -10.06 -11.38 -9.95 c -1.99 0.0 -4.09 1.01 -6.19 3.13 c -0.11 0.11 -0.22 0.22 -0.33 0.33 c -1.77 5.14 
        -3.54 10.39 -5.3 15.53 L 0.38 47.01 l 2.1 4.25 l 2.32 -0.78 l 13.59 23.46 L 14.62 93.72 l 6.74 1.79 l 1.44 0.34 
        l 2.32 -9.72 l 5.3 8.6 l 3.98 -0.33 l -8.18 -14.75 l 1.66 -8.27 l 6.52 -7.93 L 49.98 96.4 l 2.76 -2.35 l 2.43 
        -2.12 L 43.02 51.81 z M 21.36 63.21 l -1.99 4.25 L 8.33 48.91 l 12.93 -6.59 c 0.0 -0.11 0.11 -0.22 0.11 -0.22 c 
        0.77 -1.23 1.55 -2.35 2.21 -3.46 c 2.43 3.02 4.09 6.15 4.97 9.16 L 21.36 63.21 z"/>
</svg>