<?xml version="1.0" standalone="no"?>
<!--Created with Sketsa SVG Editor (http://www.kiyut.com)-->
<?xml-stylesheet type="text/css" href="..\sports.css" ?>
<svg contentScriptType="text/ecmascript" width="100.0px" xmlns:xlink="http://www.w3.org/1999/xlink" baseProfile="full"
    zoomAndPan="magnify" contentStyleType="text/css" height="100.0px" preserveAspectRatio="xMidYMid meet" xmlns="http://www.w3.org/2000/svg"
    version="1.0">
    <path d="M 39.03 14.35 c 3.82 0.0 6.9 -3.1 6.9 -6.91 C 45.93 3.6 42.85 0.5 39.03 0.5 c -3.8 0.0 -6.88 3.1 -6.88 6.94 
        C 32.15 11.25 35.23 14.35 39.03 14.35 M 90.25 34.31 l -7.31 -1.41 l -4.25 8.49 c 0.69 0.17 1.4 0.24 2.13 0.24 C 
        85.37 41.63 89.16 38.53 90.25 34.31 M 0.5 48.64 c 0.0 -5.63 4.53 -10.2 10.13 -10.2 h 21.38 V 23.01 c 0.0 -3.84 
        3.08 -6.94 6.9 -6.94 c 3.82 0.0 6.9 3.1 6.9 6.94 v 2.38 l 10.18 2.62 c 1.78 0.41 2.92 2.19 2.51 3.98 c -0.4 1.81 
        -2.18 2.93 -3.99 2.53 l -8.71 -2.05 v 5.96 h 10.25 L 84.11 9.27 l -0.83 7.58 l 13.81 9.23 c 2.28 1.31 3.11 4.27 
        1.8 6.57 c -1.02 1.82 -3.06 2.71 -4.98 2.35 l -1.11 -0.21 c -1.33 5.41 -6.19 9.39 -11.96 9.39 c -1.14 0.0 -2.25 
        -0.17 -3.3 -0.45 L 67.07 65.2 v 29.48 c 0.0 2.53 -2.06 4.58 -4.58 4.58 c -2.51 0.0 -4.55 -2.05 -4.55 -4.58 V 
        64.54 H 34.85 l -4.13 7.11 l 8.64 20.7 c 1.26 2.22 0.47 5.01 -1.71 6.25 c -2.21 1.26 -4.98 0.48 -6.24 -1.74 L 
        21.33 72.98 v -7.61 l -4.51 7.13 v 22.17 c 0.0 2.53 -2.04 4.58 -4.56 4.58 c -2.52 0.0 -4.58 -2.05 -4.58 -4.58 V 
        69.07 l 3.77 -5.94 V 43.04 l -3.75 5.77 v 16.74 H 0.5 V 48.64 z"/>
</svg>