<?xml version="1.0" standalone="no"?>
<!--Created with Sketsa SVG Editor (http://www.kiyut.com)-->
<?xml-stylesheet type="text/css" href="..\sports.css" ?>
<svg contentScriptType="text/ecmascript" width="100.0px" xmlns:xlink="http://www.w3.org/1999/xlink" baseProfile="full"
    zoomAndPan="magnify" contentStyleType="text/css" height="100.0px" preserveAspectRatio="xMidYMid meet" xmlns="http://www.w3.org/2000/svg"
    version="1.0">
    <path id="path5176" d="M 60.3 69.79 c 2.19 0.0 3.97 -1.85 3.97 -4.1 c 0.0 -2.27 -1.77 -4.09 -3.97 -4.09 c -2.17 0.0 
        -3.94 1.82 -3.94 4.09 C 56.37 67.94 58.14 69.79 60.3 69.79 M 99.5 99.27 c -23.42 0.36 -47.93 -4.28 -66.72 -19.85 
        c -0.09 -0.13 -0.16 -0.26 -0.16 -0.45 c 0.0 -0.36 0.28 -0.65 0.65 -0.65 l 18.47 0.02 c 0.91 0.0 1.62 -0.75 1.62 
        -1.69 c 0.0 -0.7 -0.31 -1.17 -1.01 -1.54 L 35.65 66.85 c -0.33 -0.19 -0.53 -0.55 -0.53 -0.97 c 0.0 -0.32 0.12 
        -0.6 0.31 -0.79 c 0.0 0.0 20.38 -18.62 64.07 -18.2 V 99.27 z M 17.98 0.5 H 0.38 v 14.77 h 17.61 V 0.5 z M 99.5 
        0.5 H 36.85 v 14.59 H 99.5 V 0.5 z M 26.28 23.05 c -1.55 0.52 -2.67 2.06 -2.67 3.86 c 0.0 1.78 1.15 3.32 2.67 
        3.89 v 25.24 c 0.0 3.26 -2.51 5.87 -5.66 5.87 c -3.13 0.0 -5.65 -2.61 -5.65 -5.87 c 0.0 -0.8 0.15 -1.56 0.44 
        -2.27 l 0.23 0.2 l 2.0 1.88 L 16.39 44.36 l -3.25 7.75 c -0.98 2.39 -0.75 3.93 -0.75 3.93 c 0.0 4.7 3.68 8.53 
        8.23 8.53 c 4.57 0.0 8.24 -3.83 8.24 -8.53 V 30.75 c 1.54 -0.56 2.65 -2.09 2.65 -3.84 c 0.0 -1.79 -1.11 -3.33 
        -2.65 -3.91 V 0.5 h -2.57 V 23.05 z"/>
</svg>