<?xml version="1.0" standalone="no"?>
<!--Created with Sketsa SVG Editor (http://www.kiyut.com)-->
<?xml-stylesheet type="text/css" href="..\sports.css" ?>
<svg contentScriptType="text/ecmascript" width="100.0px" xmlns:xlink="http://www.w3.org/1999/xlink" baseProfile="full"
    zoomAndPan="magnify" contentStyleType="text/css" height="100.0px" preserveAspectRatio="xMidYMid meet" xmlns="http://www.w3.org/2000/svg"
    version="1.0">
    <path id="path7248_1_" d="M 88.86 18.52 c 5.0 0.0 9.08 -4.07 9.08 -9.08 c 0.0 -5.02 -4.08 -9.07 -9.08 -9.07 c -5.01 
        1.79E-7 -9.08 4.05 -9.08 9.07 C 79.78 14.46 83.85 18.52 88.86 18.52 M 63.1 95.96 h 23.42 c 0.0 0.0 1.78 0.18 
        1.78 -1.67 v -1.84 h 3.45 c 0.0 0.0 0.8 6.34 -3.93 6.94 H 63.1 V 95.96 z M 4.65 77.82 L 21.23 94.4 c 0.0 0.0 
        1.11 1.37 2.42 0.07 l 1.32 -1.32 l 2.43 2.46 c 0.0 0.0 -3.92 5.06 -7.68 2.14 L 2.25 80.26 L 4.65 77.82 z M 68.61 
        72.06 L 68.64 88.5 c 0.0 3.09 2.5 5.6 5.59 5.6 c 2.82 0.0 5.58 -3.27 5.58 -5.6 V 65.62 c 0.0 -1.59 -0.67 -3.04 
        -1.74 -4.06 L 64.67 48.18 l 17.78 -17.8 c 3.34 -4.19 1.58 -9.19 1.58 -9.19 c -1.84 -5.55 -8.14 -5.74 -8.14 -5.74 
        l -45.83 -0.01 c -2.44 0.0 -4.43 1.98 -4.43 4.43 c 0.0 2.46 1.99 4.43 4.43 4.43 l 31.64 0.05 L 48.38 37.63 c 
        -1.9 1.96 -2.87 4.16 -2.87 7.02 c 0.0 2.76 1.1 5.23 2.93 7.02 L 68.61 72.06 z M 45.59 54.18 c -0.42 -0.41 -0.8 
        -0.87 -1.16 -1.34 l -26.44 26.53 c -2.01 1.61 -2.65 4.43 -1.46 6.8 c 1.39 2.7 4.71 3.78 7.42 2.39 c 0.37 -0.2 
        0.71 -0.43 1.02 -0.68 l 27.15 -27.21 L 45.59 54.18 z" transform="matrix(1.0 0.0 0.0 1.0 -0.0 3.81E-6)"/>
</svg>