<?xml version="1.0" standalone="no"?>
<!--Created with Sketsa SVG Editor (http://www.kiyut.com)-->
<?xml-stylesheet type="text/css" href="..\sports.css" ?>
<svg contentScriptType="text/ecmascript" width="100.0px" xmlns:xlink="http://www.w3.org/1999/xlink" baseProfile="full"
    zoomAndPan="magnify" contentStyleType="text/css" height="100.0px" preserveAspectRatio="xMidYMid meet" xmlns="http://www.w3.org/2000/svg"
    version="1.0">
    <path d="M 49.93 5.25 L 0.25 21.01 L 0.25 28.14 L 49.93 12.39 L 99.63 28.14 L 99.63 21.01 z M 96.25 76.79 c -0.81 
        0.25 -1.86 0.2 -3.23 -0.1 c -1.4 -0.32 -2.67 -1.83 -4.98 -1.75 c -2.38 0.08 -5.73 2.25 -8.97 2.25 C 75.78 77.12 
        72.09 74.85 68.73 74.85 c -3.34 0.02 -6.38 2.38 -9.59 2.45 c -3.27 0.01 -6.52 -2.2 -9.72 -2.25 c -3.24 -0.08 
        -6.31 1.96 -9.34 1.94 c -2.98 -0.06 -5.63 -2.24 -8.59 -2.14 c -3.04 0.12 -6.37 2.51 -9.34 2.66 c -3.0 0.05 -5.71 
        -2.22 -8.35 -2.25 c -2.67 -0.05 -5.66 1.66 -7.46 2.05 c -1.8 0.35 -2.94 0.38 -3.36 0.11 v 6.34 c 0.43 0.27 1.57 
        0.24 3.36 -0.11 c 1.8 -0.38 4.79 -2.09 7.46 -2.04 c 2.65 0.02 5.36 2.3 8.35 2.25 c 2.97 -0.12 6.3 -2.57 9.34 
        -2.65 c 2.96 -0.12 5.61 2.1 8.59 2.15 c 3.03 0.02 6.1 -2.01 9.34 -1.95 c 3.2 0.05 6.45 2.26 9.72 2.25 c 3.21 
        -0.07 6.25 -2.43 9.59 -2.45 c 3.36 -0.01 7.05 2.3 10.33 2.35 c 3.24 0.0 6.6 -2.16 8.97 -2.25 c 2.32 -0.11 3.59 
        1.42 4.98 1.73 c 1.37 0.3 2.42 0.35 3.23 0.1 V 76.79 z M 42.91 73.42 l 25.75 -13.98 l 0.0 0.0 c -2.02 -4.52 
        -3.46 -7.93 -4.29 -10.36 c -0.86 -2.42 -1.22 -2.95 -0.73 -4.1 c 0.5 -1.18 -0.19 -1.36 3.58 -2.93 c 3.77 -1.63 
        15.05 -6.29 18.73 -6.52 c 3.6 -0.19 3.46 3.85 2.86 5.21 c -0.65 1.33 -4.01 1.66 -6.55 2.72 c -2.58 1.0 -5.41 
        2.13 -8.69 3.37 l 0.0 0.0 L 85.35 73.21 l 0.0 0.0 c -1.52 1.33 -3.53 1.84 -6.26 1.64 c -2.77 -0.27 -6.46 -2.95 
        -9.91 -2.97 c -3.43 0.01 -7.35 3.0 -10.49 3.06 c -3.15 -0.01 -5.65 -2.6 -8.28 -2.86 C 47.77 71.83 45.28 72.27 
        42.91 73.42 L 42.91 73.42 z M 89.18 50.59 c 3.97 0.0 7.19 3.42 7.19 7.64 c 0.0 4.22 -3.22 7.64 -7.19 7.64 c 
        -3.97 0.0 -7.19 -3.42 -7.19 -7.64 C 81.99 54.01 85.21 50.59 89.18 50.59 M 25.53 73.93 c -3.05 -0.57 -6.16 -1.46 
        -9.54 -2.66 c -3.4 -1.27 -9.2 -2.97 -10.57 -4.63 c -1.37 -1.71 -0.37 -5.13 2.4 -5.29 c 2.78 -0.16 8.3 2.35 14.03 
        4.44 c 5.7 2.06 12.21 4.63 19.9 7.85 l 0.0 0.0 c -0.95 0.53 -2.2 0.69 -3.79 0.45 c -1.62 -0.28 -3.67 -1.79 -5.75 
        -1.84 C 30.11 72.22 27.92 72.79 25.53 73.93 L 25.53 73.93 z M 96.25 87.4 c -0.81 0.23 -1.86 0.19 -3.23 -0.11 c 
        -1.4 -0.31 -2.67 -1.84 -4.98 -1.74 c -2.38 0.08 -5.73 2.25 -8.97 2.25 c -3.29 -0.07 -6.98 -2.34 -10.33 -2.34 c 
        -3.34 0.02 -6.38 2.38 -9.59 2.45 c -3.27 0.01 -6.52 -2.2 -9.72 -2.25 c -3.24 -0.09 -6.31 1.96 -9.34 1.94 c -2.98 
        -0.06 -5.63 -2.24 -8.59 -2.14 c -3.04 0.12 -6.37 2.51 -9.34 2.65 c -3.0 0.05 -5.71 -2.23 -8.35 -2.25 c -2.67 
        -0.04 -5.66 1.66 -7.46 2.04 c -1.8 0.37 -2.94 0.36 -3.36 0.1 v 6.34 c 0.43 0.26 1.57 0.28 3.36 -0.1 c 1.8 -0.38 
        4.79 -2.09 7.46 -2.04 c 2.65 0.02 5.36 2.29 8.35 2.25 c 2.97 -0.15 6.3 -2.54 9.34 -2.66 c 2.96 -0.1 5.61 2.08 
        8.59 2.14 c 3.03 0.02 6.1 -2.02 9.34 -1.94 c 3.2 0.05 6.45 2.26 9.72 2.25 c 3.21 -0.07 6.25 -2.43 9.59 -2.45 c 
        3.36 0.0 7.05 2.27 10.33 2.34 c 3.24 0.0 6.6 -2.16 8.97 -2.25 c 2.32 -0.08 3.59 1.42 4.98 1.75 c 1.37 0.3 2.42 
        0.35 3.23 0.1 V 87.4 z" fill-rule="evenodd"/>
</svg>