<?xml version="1.0" standalone="no"?>
<!--Created with Sketsa SVG Editor (http://www.kiyut.com)-->
<?xml-stylesheet type="text/css" href="..\sports.css" ?>
<svg contentScriptType="text/ecmascript" width="100.0px" xmlns:xlink="http://www.w3.org/1999/xlink" baseProfile="full"
    zoomAndPan="magnify" contentStyleType="text/css" height="100.0px" preserveAspectRatio="xMidYMid meet" xmlns="http://www.w3.org/2000/svg"
    version="1.0">
    <path d="M 32.43 23.63 c 4.4 -0.52 7.52 -4.56 7.0 -9.0 c -0.52 -4.44 -4.52 -7.59 -8.91 -7.07 c -4.41 0.55 -7.52 4.56 
        -7.0 9.01 C 24.07 21.0 28.02 24.16 32.43 23.63 M 98.32 61.79 c -0.43 -0.22 -33.1 -16.98 -33.1 -16.98 l -8.3 
        -10.79 L 56.82 33.9 c -1.12 -1.06 -2.88 -0.96 -3.92 0.19 v 0.02 c -0.73 0.86 -0.88 2.13 -0.31 3.16 l 6.15 8.02 l 
        0.02 0.07 l -5.11 11.82 l -13.55 -3.41 l -0.59 -4.9 l 11.14 -1.36 c 0.5 -0.02 1.02 -0.17 1.49 -0.43 c 1.84 -0.98 
        2.55 -3.3 1.58 -5.16 c -0.76 -1.44 -2.28 -2.2 -3.77 -2.03 l -11.35 1.38 l -1.0 -8.5 c -0.54 -4.41 -4.54 -7.59 
        -8.92 -7.07 c -4.39 0.55 -7.53 4.59 -7.01 9.03 l 2.36 19.65 c 0.29 2.51 1.77 4.68 3.73 5.94 L 9.95 62.48 L 4.39 
        76.38 c 0.22 -0.09 0.45 -0.12 0.64 -0.21 c 2.3 -1.08 4.84 -1.65 7.35 -1.65 c 2.52 0.0 5.05 0.57 7.31 1.63 c 1.44 
        0.66 3.03 1.0 4.56 1.0 c 1.55 0.0 3.11 -0.34 4.53 -0.98 c 2.29 -1.08 4.82 -1.65 7.35 -1.65 c 2.51 0.0 5.04 0.57 
        7.29 1.63 c 1.47 0.66 3.05 1.0 4.59 1.0 c 1.56 0.0 3.1 -0.34 4.54 -0.98 c 2.29 -1.08 4.84 -1.65 7.35 -1.65 s 
        5.04 0.57 7.29 1.63 c 0.54 0.23 1.14 0.41 1.72 0.57 c 9.1 -2.41 25.23 -7.07 29.58 -11.01 C 99.75 64.56 100.0 
        62.63 98.32 61.79 M 0.5 93.38 c 2.08 0.0 4.09 -0.48 5.86 -1.29 c 1.83 -0.86 3.88 -1.36 6.03 -1.36 c 2.16 0.0 
        4.19 0.5 6.04 1.36 c 1.77 0.81 3.75 1.29 5.83 1.29 c 2.07 0.0 4.06 -0.48 5.85 -1.29 c 1.83 -0.86 3.89 -1.36 6.03 
        -1.36 c 2.13 0.0 4.19 0.5 6.03 1.36 c 1.78 0.81 3.77 1.29 5.85 1.29 c 2.08 0.0 4.07 -0.48 5.86 -1.29 c 1.83 
        -0.86 3.88 -1.36 6.02 -1.36 c 2.13 0.0 4.19 0.5 6.0 1.36 c 1.8 0.81 3.79 1.29 5.87 1.29 c 2.09 0.0 4.07 -0.48 
        5.84 -1.29 c 1.85 -0.86 3.89 -1.36 6.03 -1.36 c 2.15 0.0 4.21 0.5 6.02 1.36 c 1.78 0.81 3.79 1.29 5.88 1.29 v 
        -8.86 c -2.09 0.0 -4.1 -0.48 -5.88 -1.29 c -1.81 -0.86 -3.87 -1.34 -6.02 -1.34 c -2.13 0.0 -4.18 0.48 -6.03 1.34 
        c -1.77 0.81 -3.75 1.29 -5.84 1.29 c -2.08 0.0 -4.07 -0.48 -5.87 -1.29 c -1.81 -0.86 -3.87 -1.34 -6.0 -1.34 c 
        -2.14 0.0 -4.2 0.48 -6.02 1.34 c -1.8 0.81 -3.78 1.29 -5.86 1.29 c -2.08 0.0 -4.07 -0.48 -5.85 -1.29 c -1.84 
        -0.86 -3.9 -1.34 -6.03 -1.34 c -2.14 0.0 -4.2 0.48 -6.03 1.34 c -1.79 0.81 -3.78 1.29 -5.85 1.29 c -2.08 0.0 
        -4.07 -0.48 -5.83 -1.29 c -1.85 -0.86 -3.88 -1.34 -6.04 -1.34 c -2.15 0.0 -4.2 0.48 -6.03 1.34 C 4.59 84.04 2.58 
        84.52 0.5 84.52 V 93.38 z" transform="matrix(1.0 0.0 0.0 1.0 -0.0 3.81E-6)"/>
</svg>