<?xml version="1.0" standalone="no"?>
<!--Created with Sketsa SVG Editor (http://www.kiyut.com)-->
<?xml-stylesheet type="text/css" href="..\sports.css" ?>
<svg contentScriptType="text/ecmascript" width="100.0px" xmlns:xlink="http://www.w3.org/1999/xlink" baseProfile="full"
    zoomAndPan="magnify" contentStyleType="text/css" height="100.0px" preserveAspectRatio="xMidYMid meet" xmlns="http://www.w3.org/2000/svg"
    version="1.0">
    <path d="M 85.03 62.01 c -2.13 0.0 -4.18 0.49 -5.98 1.33 c -1.78 0.77 -3.75 1.24 -5.82 1.24 c -2.06 0.0 -4.04 -0.47 
        -5.82 -1.24 c -1.81 -0.84 -3.85 -1.33 -5.98 -1.33 c -2.11 0.0 -4.15 0.49 -5.98 1.33 c -1.76 0.77 -3.73 1.24 -5.8 
        1.24 c -2.07 0.0 -4.06 -0.47 -5.82 -1.24 c -1.81 -0.84 -3.85 -1.33 -5.98 -1.33 s -4.18 0.49 -5.98 1.33 c -1.78 
        0.77 -3.75 1.24 -5.82 1.24 c -2.06 0.0 -4.04 -0.47 -5.82 -1.24 c -1.81 -0.84 -3.83 -1.33 -5.96 -1.33 s -4.18 
        0.49 -5.98 1.33 c -1.78 0.77 -3.76 1.24 -5.82 1.24 v 8.69 c 2.06 0.0 4.04 -0.47 5.82 -1.24 c 1.81 -0.84 3.85 
        -1.33 5.98 -1.33 s 4.15 0.49 5.96 1.33 c 1.5 0.66 3.17 1.03 4.88 1.15 l -7.23 7.19 c -2.3 -1.43 -5.35 -1.17 
        -7.35 0.82 L 2.22 89.45 c -2.3 2.29 -2.3 6.02 0.0 8.34 c 2.32 2.29 6.06 2.29 8.36 0.0 l 8.29 -8.27 c 1.88 -1.87 
        2.21 -4.68 1.03 -6.91 l 9.98 -9.93 c 0.68 -0.21 1.34 -0.37 1.97 -0.66 c 1.81 -0.84 3.85 -1.33 5.98 -1.33 s 4.18 
        0.49 5.98 1.33 c 1.76 0.77 3.75 1.24 5.82 1.24 c 2.06 0.0 4.04 -0.47 5.8 -1.24 c 1.83 -0.84 3.87 -1.33 5.98 
        -1.33 c 2.14 0.0 4.18 0.49 5.98 1.33 c 1.78 0.77 3.76 1.24 5.82 1.24 c 2.07 0.0 4.04 -0.47 5.82 -1.24 c 1.81 
        -0.84 3.85 -1.33 5.98 -1.33 c 2.14 0.0 4.16 0.49 5.98 1.33 c 1.76 0.77 3.76 1.24 5.82 1.24 v -8.69 c -2.07 0.0 
        -4.06 -0.47 -5.82 -1.24 C 89.18 62.5 87.16 62.01 85.03 62.01 z M 89.04 19.52 l 8.29 -8.26 c 2.32 -2.32 2.32 
        -6.04 0.0 -8.34 c -2.3 -2.32 -6.06 -2.32 -8.36 2.38E-7 l -8.29 8.26 c -2.0 1.99 -2.25 5.03 -0.8 7.3 L 69.58 
        28.78 l -20.47 -7.56 c -0.54 -0.3 -1.1 -0.56 -1.74 -0.75 c -4.46 -1.33 -9.18 1.19 -10.52 5.64 l -6.29 21.02 c 
        -0.09 0.25 -0.12 0.46 -0.14 0.67 H 2.46 V 59.09 c 1.53 0.0 3.1 -0.35 4.48 -0.96 c 2.28 -1.05 4.81 -1.62 7.3 
        -1.62 s 5.0 0.56 7.23 1.59 c 1.48 0.66 3.0 0.98 4.55 0.98 c 1.57 0.0 3.1 -0.33 4.51 -0.96 c 2.3 -1.05 4.81 -1.62 
        7.3 -1.62 c 2.51 0.0 4.98 0.54 7.25 1.59 c 1.43 0.66 3.0 0.98 4.55 0.98 s 3.07 -0.33 4.51 -0.96 c 2.28 -1.05 
        4.81 -1.62 7.28 -1.62 c 2.54 0.0 4.98 0.54 7.25 1.59 c 1.46 0.66 3.03 0.98 4.55 0.98 c 1.55 0.0 3.1 -0.33 4.51 
        -0.96 c 2.28 -1.05 4.81 -1.62 7.3 -1.62 c 0.42 0.0 2.14 0.13 3.83 -1.0 c 3.0 -1.31 4.13 -2.06 6.76 -3.66 c 2.16 
        -1.32 3.94 -4.2 -0.75 -4.05 c -1.31 0.05 -40.09 0.0 -40.09 0.0 l 11.88 -11.84 l 1.6 0.61 c 2.02 0.73 4.27 -0.3 
        5.02 -2.32 c 0.52 -1.43 0.12 -2.97 -0.87 -4.0 l 9.72 -9.73 C 84.35 21.7 87.16 21.4 89.04 19.52 z M 50.5 47.81 h 
        -2.51 l 5.07 -16.85 l 10.47 3.86 L 50.5 47.81 z M 50.43 10.17 l -1.08 2.29 c -0.7 1.43 -2.16 2.41 -3.83 2.41 h 
        -2.54 c 1.46 2.06 3.85 3.39 6.55 3.39 c 4.41 0.0 8.0 -3.56 8.0 -7.96 V 9.89 h -6.74 C 50.64 9.89 50.48 10.01 
        50.43 10.17 z M 45.53 12.86 c 0.87 0.0 1.64 -0.52 1.99 -1.26 l 1.06 -2.29 c 0.4 -0.87 1.24 -1.45 2.23 -1.45 h 
        8.26 C 57.99 3.61 54.12 0.5 49.54 0.5 c -5.42 0.0 -9.81 4.38 -9.81 9.81 c 0.0 0.87 0.1 1.73 0.33 2.55 H 45.53 z"/>
</svg>