<?xml version="1.0" standalone="no"?>
<!--Created with Sketsa SVG Editor (http://www.kiyut.com)-->
<?xml-stylesheet type="text/css" href="..\sports.css" ?>
<svg contentScriptType="text/ecmascript" width="100.0px" xmlns:xlink="http://www.w3.org/1999/xlink" baseProfile="full"
    zoomAndPan="magnify" contentStyleType="text/css" height="100.0px" preserveAspectRatio="xMidYMid meet" xmlns="http://www.w3.org/2000/svg"
    version="1.0">
    <path id="path4844" d="M 46.27 69.75 v 23.45 c 0.0 0.0 0.82 6.17 -7.14 6.17 H 7.69 c -7.97 0.0 -7.14 -6.17 -7.14 
        -6.17 V 69.75 H 46.27 z M 31.77 3.22 C 30.67 1.5 28.71 0.37 26.46 0.37 l -10.13 0.02 c -3.56 0.0 -6.45 2.8 -6.45 
        6.26 c 0.0 1.22 0.38 2.34 0.99 3.29 l 0.06 0.09 c 3.0 4.15 4.74 9.15 4.74 14.55 c 0.0 9.18 -5.05 17.24 -12.59 
        21.64 l -0.09 0.03 c -1.44 0.9 -2.42 2.44 -2.42 4.27 v 7.44 h 45.72 V 30.61 c 0.0 0.0 0.06 -2.53 -1.7 -5.65 L 
        31.77 3.22 z M 68.18 3.22 C 69.3 1.5 71.26 0.37 73.49 0.37 l 10.16 0.02 c 3.55 0.0 6.44 2.8 6.44 6.26 c 0.0 1.22 
        -0.35 2.34 -0.96 3.29 L 89.03 10.04 c -2.97 4.15 -4.74 9.15 -4.74 14.55 c 0.0 9.18 5.05 17.24 12.62 21.64 l 0.06 
        0.03 c 1.48 0.9 2.45 2.44 2.45 4.27 v 7.44 H 53.65 V 30.61 c 0.0 0.0 -0.03 -2.53 1.72 -5.65 L 68.18 3.22 z M 
        99.4 69.75 v 23.45 c 0.0 0.0 0.81 6.17 -7.16 6.17 H 60.81 c -7.98 0.0 -7.16 -6.17 -7.16 -6.17 V 69.75 H 99.4 z M 
        53.84 66.06 c 1.19 0.0 2.18 -0.94 2.18 -2.12 c 0.0 -1.13 -0.99 -2.07 -2.18 -2.07 h -7.3 c -1.2 0.0 -2.14 0.94 
        -2.14 2.07 c 0.0 1.17 0.94 2.12 2.14 2.12 H 53.84 z"/>
</svg>