<?xml version="1.0" standalone="no"?>
<!--Created with Sketsa SVG Editor (http://www.kiyut.com)-->
<?xml-stylesheet type="text/css" href="..\sports.css" ?>
<svg contentScriptType="text/ecmascript" width="100.0px" xmlns:xlink="http://www.w3.org/1999/xlink" baseProfile="full"
    zoomAndPan="magnify" contentStyleType="text/css" height="100.0px" preserveAspectRatio="xMidYMid meet" xmlns="http://www.w3.org/2000/svg"
    version="1.0">
    <path d="M 99.25 46.24 l -25.2 0.67 L 64.91 31.63 L 33.18 32.21 v 4.93 l 7.47 -0.21 l 6.1 10.57 L 1.36 48.61 c 0.0 
        0.0 -1.0 -0.06 -0.84 0.91 l 7.04 18.33 c 0.55 0.12 1.12 0.19 1.71 0.19 c 3.01 0.0 5.64 -1.68 7.17 -4.2 c 1.53 
        2.58 4.2 4.29 7.26 4.29 c 2.81 0.0 5.31 -1.47 6.87 -3.7 l -0.08 -0.16 c 1.55 2.4 4.13 3.94 7.05 3.94 c 3.04 0.0 
        5.71 -1.7 7.23 -4.27 l -0.02 0.13 c 1.57 2.4 4.15 3.97 7.07 3.97 c 3.09 0.0 5.79 -1.77 7.3 -4.4 l -0.02 0.05 c 
        1.52 2.6 4.22 4.35 7.3 4.35 c 2.99 0.0 5.63 -1.68 7.17 -4.19 c 1.52 2.57 4.2 4.29 7.25 4.29 c 2.81 0.0 5.31 
        -1.47 6.87 -3.7 l 0.08 -0.1 L 99.16 47.12 C 99.16 47.12 99.87 46.1 99.25 46.24 z M 55.22 47.29 L 48.81 36.93 l 
        14.3 -0.44 l 6.22 10.42 L 55.22 47.29 z"/>
</svg>