<?xml version="1.0" standalone="no"?>
<!--Created with Sketsa SVG Editor (http://www.kiyut.com)-->
<?xml-stylesheet type="text/css" href="..\sports.css" ?>
<svg contentScriptType="text/ecmascript" width="100.0px" xmlns:xlink="http://www.w3.org/1999/xlink" baseProfile="full"
    zoomAndPan="magnify" contentStyleType="text/css" height="100.0px" preserveAspectRatio="xMidYMid meet" xmlns="http://www.w3.org/2000/svg"
    version="1.0">
    <path d="M 99.49 72.87 c -2.02 0.0 -3.98 -0.46 -5.7 -1.25 c -1.77 -0.84 -3.77 -1.32 -5.84 -1.32 c -2.09 0.0 -4.09 
        0.49 -5.86 1.32 c -1.75 0.79 -3.68 1.25 -5.7 1.25 c -2.0 0.0 -3.95 -0.46 -5.68 -1.25 c -1.77 -0.84 -3.77 -1.32 
        -5.86 -1.32 c -2.07 0.0 -4.07 0.49 -5.84 1.32 c -1.75 0.79 -3.68 1.25 -5.7 1.25 c -2.02 0.0 -3.95 -0.46 -5.68 
        -1.25 c -1.77 -0.84 -3.77 -1.32 -5.86 -1.32 c -2.09 0.0 -4.07 0.49 -5.84 1.32 c -1.75 0.79 -3.68 1.25 -5.7 1.25 
        s -3.93 -0.46 -5.66 -1.25 c -1.79 -0.84 -3.77 -1.32 -5.86 -1.32 c -2.09 0.0 -4.07 0.49 -5.86 1.32 c -1.72 0.79 
        -3.65 1.25 -5.68 1.25 v -8.6 c 2.02 0.0 3.95 -0.46 5.68 -1.25 c 1.79 -0.81 3.77 -1.3 5.86 -1.3 c 2.09 0.0 4.07 
        0.49 5.86 1.3 c 1.72 0.79 3.63 1.25 5.66 1.25 s 3.95 -0.46 5.7 -1.25 c 1.77 -0.81 3.75 -1.3 5.84 -1.3 c 2.09 0.0 
        4.09 0.49 5.86 1.3 c 1.72 0.79 3.66 1.25 5.68 1.25 c 2.02 0.0 3.95 -0.46 5.7 -1.25 c 1.77 -0.81 3.77 -1.3 5.84 
        -1.3 c 2.09 0.0 4.09 0.49 5.86 1.3 c 1.72 0.79 3.68 1.25 5.68 1.25 c 2.02 0.0 3.95 -0.46 5.7 -1.25 c 1.77 -0.81 
        3.77 -1.3 5.86 -1.3 c 2.07 0.0 4.07 0.49 5.84 1.3 c 1.72 0.79 3.68 1.25 5.7 1.25 V 72.87 z M 76.27 36.94 l 16.78 
        1.32 l -1.26 -8.65 l -12.32 -0.88 c -3.33 -0.16 -2.85 3.2 -2.85 3.2 L 76.27 36.94 z M 45.15 34.97 c 3.08 0.0 
        5.56 -2.5 5.56 -5.61 S 48.23 23.75 45.15 23.75 s -5.56 2.51 -5.56 5.61 S 42.07 34.97 45.15 34.97 z M 10.81 56.6 
        c 0.71 -0.21 1.4 -0.49 2.05 -0.79 c 1.79 -0.84 3.77 -1.32 5.86 -1.32 c 2.09 0.0 4.07 0.49 5.86 1.32 c 1.72 0.79 
        3.63 1.25 5.66 1.25 s 3.95 -0.46 5.7 -1.25 c 1.77 -0.84 3.75 -1.32 5.84 -1.32 c 2.09 0.0 4.09 0.49 5.86 1.32 c 
        1.72 0.79 3.66 1.25 5.68 1.25 c 2.02 0.0 3.95 -0.46 5.7 -1.25 c 1.77 -0.84 3.77 -1.32 5.84 -1.32 c 2.09 0.0 4.09 
        0.49 5.86 1.32 c 1.72 0.79 3.68 1.25 5.68 1.25 c 2.02 0.0 3.95 -0.46 5.7 -1.25 c 1.77 -0.84 3.77 -1.32 5.86 
        -1.32 c 2.07 0.0 4.07 0.49 5.84 1.32 c 1.72 0.79 3.65 1.25 5.68 1.25 l -1.88 -15.34 l -69.76 -5.89 l 10.53 
        -10.71 l -4.62 -0.42 L 23.22 35.44 L 0.37 33.54 C 0.24 41.4 8.93 54.46 10.81 56.6 L 10.81 56.6 z"/>
</svg>