<?xml version="1.0" standalone="no"?>
<!--Created with Sketsa SVG Editor (http://www.kiyut.com)-->
<?xml-stylesheet type="text/css" href="..\sports.css" ?>
<svg contentScriptType="text/ecmascript" width="100.0px" xmlns:xlink="http://www.w3.org/1999/xlink" baseProfile="full"
    zoomAndPan="magnify" contentStyleType="text/css" height="100.0px" preserveAspectRatio="xMidYMid meet" xmlns="http://www.w3.org/2000/svg"
    version="1.0">
    <path d="M 93.28 25.74 c -2.77 -1.83 -4.85 -0.91 -4.85 -0.91 c -2.64 0.66 -4.14 0.65 -4.88 0.56 v -0.64 c 0.71 -0.49 
        1.18 -1.3 1.18 -2.23 c 0.0 -1.48 -1.22 -2.68 -2.71 -2.68 c -1.51 0.0 -2.73 1.21 -2.73 2.68 c 0.0 0.84 0.39 1.57 
        0.98 2.07 v 23.32 l -9.35 -7.06 L 51.13 55.97 v 28.15 h 39.84 V 55.97 l -7.41 -5.59 V 35.0 c 0.69 0.1 2.21 0.15 
        4.99 -0.55 c 0.0 0.0 2.08 -0.93 4.85 0.92 c 0.0 0.0 0.59 0.45 4.29 2.86 v -9.6 C 93.99 26.22 93.28 25.74 93.28 
        25.74 z M 18.48 61.23 L 37.03 61.23 L 36.52 99.25 L 30.88 99.25 L 28.92 71.36 L 26.75 71.36 L 25.08 99.25 L 
        18.94 99.25 z M 40.85 10.51 c -5.85 -0.92 -12.92 -0.99 -12.92 -0.99 h -0.01 c 0.0 0.0 -7.07 0.07 -12.93 0.99 c 
        0.0 0.0 -0.05 1.32 0.6 1.94 l 5.42 -0.21 c -0.19 0.65 -0.3 1.35 -0.3 2.06 c 0.0 3.98 3.23 7.21 7.21 7.21 l 0.0 
        0.0 c 3.99 0.0 7.22 -3.23 7.22 -7.21 c 0.0 -0.71 -0.11 -1.41 -0.3 -2.06 l 5.44 0.21 C 40.9 11.83 40.85 10.51 
        40.85 10.51 z M 31.67 0.38 L 24.15 0.38 L 19.81 4.32 L 19.81 7.81 L 36.02 7.81 L 36.02 4.32 z M 51.48 38.5 L 
        39.38 25.55 c -1.69 -2.04 -3.07 -2.04 -3.07 -2.04 H 19.17 c 0.0 0.0 -1.39 0.0 -3.07 2.04 L 4.0 38.5 c 0.0 0.0 
        -1.79 1.37 0.17 3.61 L 18.48 56.02 v 2.53 h 18.52 v -2.53 l 14.31 -13.9 C 53.28 39.87 51.48 38.5 51.48 38.5 z M 
        14.01 45.26 c 0.0 0.0 -2.14 -3.89 -2.55 -4.53 l -0.51 -0.92 l 7.24 -6.64 c 0.0 0.0 0.17 -0.23 0.34 0.3 l 0.18 
        15.81 C 18.71 49.27 16.92 49.04 14.01 45.26 z M 44.02 40.73 c -0.41 0.64 -2.54 4.53 -2.54 4.53 c -2.9 3.78 -4.7 
        4.02 -4.7 4.02 l 0.18 -15.81 c 0.17 -0.52 0.33 -0.3 0.33 -0.3 l 7.24 6.64 L 44.02 40.73 z"/>
</svg>