<?xml version="1.0" standalone="no"?>
<!--Created with Sketsa SVG Editor (http://www.kiyut.com)-->
<?xml-stylesheet type="text/css" href="..\sports.css" ?>
<svg contentScriptType="text/ecmascript" width="100.0px" xmlns:xlink="http://www.w3.org/1999/xlink" baseProfile="full"
    zoomAndPan="magnify" contentStyleType="text/css" height="100.0px" preserveAspectRatio="xMidYMid meet" xmlns="http://www.w3.org/2000/svg"
    version="1.0">
    <path d="M 46.94 25.07 c 4.06 0.0 7.37 -3.24 7.37 -7.26 c 0.0 -4.02 -3.3 -7.28 -7.37 -7.28 c -4.06 0.0 -7.37 3.26 
        -7.37 7.28 C 39.57 21.83 42.88 25.07 46.94 25.07 z M 57.44 99.33 L 57.44 66.58 L 54.33 68.02 L 54.33 99.33 z M 
        23.19 39.8 c 1.06 1.63 3.19 2.36 5.09 1.59 l 10.69 -4.15 v 14.67 h 18.47 V 34.93 L 73.99 8.75 c 1.22 -1.91 0.65 
        -4.45 -1.3 -5.67 c -1.93 -1.2 -4.5 -0.64 -5.58 1.22 l -14.06 22.25 l -8.47 0.02 c -0.54 0.0 -1.09 0.09 -1.63 0.3 
        L 28.32 32.54 l -7.54 -11.3 c -1.24 -1.89 -3.8 -2.45 -5.74 -1.22 c -1.93 1.22 -2.5 3.78 -1.26 5.69 L 23.19 39.8 
        z M 60.52 47.23 C 80.75 37.31 88.6 3.33 88.6 0.5 H 85.82 c -1.04 7.09 -9.74 35.44 -25.29 43.66 V 47.23 z M 52.0 
        66.05 c -0.94 0.34 -1.98 0.54 -3.04 0.54 c -1.15 0.0 -2.28 -0.13 -3.33 -0.43 l -11.82 26.85 c -1.06 2.47 -4.04 
        3.31 -6.63 1.87 c -2.59 -1.44 -3.8 -4.59 -2.69 -7.06 l 14.47 -32.84 h 18.47 v -3.07 l 9.34 -4.3 c 2.46 -1.18 
        5.63 0.84 6.28 3.39 L 77.65 69.16 c 0.65 2.58 -0.93 5.17 -3.54 5.82 s -5.26 -0.92 -5.91 -3.5 l -2.91 -11.58 L 
        52.0 66.05 z"/>
</svg>