<?xml version="1.0" standalone="no"?>
<!--Created with Sketsa SVG Editor (http://www.kiyut.com)-->
<?xml-stylesheet type="text/css" href="..\sports.css" ?>
<svg contentScriptType="text/ecmascript" width="100.0px" xmlns:xlink="http://www.w3.org/1999/xlink" baseProfile="full"
    zoomAndPan="magnify" contentStyleType="text/css" height="100.0px" preserveAspectRatio="xMidYMid meet" xmlns="http://www.w3.org/2000/svg"
    version="1.0">
    <path d="M 46.97 11.38 C 31.49 2.4 23.36 2.12 9.27 0.5 l -0.52 2.62 c 17.48 4.0 21.9 8.06 33.93 15.26 l 1.66 7.85 L 
        4.65 90.84 c -0.39 0.77 -0.62 1.62 -0.65 2.54 c -0.05 3.21 2.52 5.82 5.74 5.87 c 2.13 0.02 4.0 -1.08 5.07 -2.72 
        l 39.07 -63.14 l 15.9 10.06 l 8.18 -13.32 z M 67.21 71.03 L 72.33 75.31 L 81.27 64.92 L 70.75 56.1 L 66.35 61.2 
        z M 96.6 77.65 L 76.77 77.62 L 76.75 97.58 L 90.23 97.58 L 96.6 90.81 z M 60.77 98.63 L 67.47 96.66 L 61.44 
        76.75 L 47.13 80.96 L 44.35 92.86 z"/>
</svg>