<?xml version="1.0" standalone="no"?>
<!--Created with Sketsa SVG Editor (http://www.kiyut.com)-->
<?xml-stylesheet type="text/css" href="..\sports.css" ?>
<svg contentScriptType="text/ecmascript" width="100.0px" xmlns:xlink="http://www.w3.org/1999/xlink" baseProfile="full"
    zoomAndPan="magnify" contentStyleType="text/css" height="100.0px" preserveAspectRatio="xMidYMid meet" xmlns="http://www.w3.org/2000/svg"
    version="1.0">
    <path id="path5492" d="M 72.55 0.25 c -4.69 0.0 -8.51 3.83 -8.51 8.53 c 0.0 4.73 3.82 8.54 8.51 8.54 c 4.71 0.0 8.56 
        -3.81 8.56 -8.54 C 81.1 4.08 77.26 0.25 72.55 0.25 M 8.16 59.11 c -0.74 -1.19 -2.29 -1.55 -3.46 -0.8 c -1.19 
        0.73 -1.55 2.28 -0.82 3.48 c 0.75 1.17 2.29 1.52 3.49 0.79 C 8.54 61.83 8.89 60.28 8.16 59.11 M 9.91 66.08 c 
        -0.73 -1.17 -2.28 -1.52 -3.48 -0.78 c -1.16 0.73 -1.53 2.28 -0.78 3.45 c 0.73 1.19 2.28 1.54 3.45 0.8 C 10.27 
        68.82 10.64 67.27 9.91 66.08 M 11.66 73.06 c -0.73 -1.19 -2.32 -1.55 -3.47 -0.81 c -1.21 0.73 -1.55 2.28 -0.82 
        3.48 c 0.73 1.17 2.32 1.52 3.47 0.79 C 12.03 75.79 12.39 74.23 11.66 73.06 M 13.38 80.03 c -0.73 -1.18 -2.28 
        -1.53 -3.45 -0.82 c -1.19 0.76 -1.55 2.31 -0.82 3.48 c 0.73 1.19 2.28 1.55 3.49 0.81 C 13.76 82.78 14.13 81.22 
        13.38 80.03 M 54.32 94.22 c -1.34 0.44 -2.08 1.86 -1.66 3.18 c 0.45 1.35 1.87 2.06 3.18 1.66 c 1.33 -0.44 2.07 
        -1.86 1.66 -3.18 C 57.06 94.55 55.64 93.82 54.32 94.22 M 61.47 94.28 c -1.32 0.4 -2.04 1.82 -1.62 3.15 c 0.42 
        1.35 1.85 2.08 3.17 1.66 c 1.32 -0.44 2.06 -1.86 1.63 -3.18 C 64.22 94.59 62.82 93.85 61.47 94.28 M 68.69 94.3 c 
        -1.35 0.43 -2.09 1.82 -1.65 3.17 c 0.42 1.32 1.84 2.07 3.18 1.63 c 1.31 -0.4 2.06 -1.83 1.61 -3.18 C 71.42 94.61 
        70.0 93.88 68.69 94.3 M 75.84 94.33 c -1.31 0.44 -2.06 1.86 -1.62 3.18 c 0.44 1.31 1.86 2.04 3.17 1.62 c 1.32 
        -0.43 2.06 -1.82 1.63 -3.15 C 78.6 94.64 77.17 93.92 75.84 94.33 M 92.99 38.07 h -14.9 l -6.85 -15.51 c -0.08 
        -0.26 -0.24 -0.59 -0.32 -0.75 c -0.02 -0.05 -0.05 -0.07 -0.05 -0.1 l -0.12 -0.29 l -0.02 0.03 c -1.28 -2.7 -3.94 
        -4.62 -7.09 -4.74 c -0.61 -0.04 -1.17 0.02 -1.72 0.14 L 24.48 25.65 c -2.27 0.53 -3.68 2.77 -3.15 5.05 c 0.51 
        2.27 2.73 3.67 5.0 3.16 l 24.99 -5.95 L 32.33 59.27 H 18.51 h -0.02 H 12.01 l 4.5 17.72 c 0.15 0.53 0.15 0.65 
        0.32 0.93 c 0.64 1.04 1.98 1.37 3.0 0.73 c 0.56 -0.32 0.91 -0.89 1.02 -1.47 l 2.69 -8.21 l 0.1 -0.33 c 0.0 0.0 
        12.43 -0.05 12.52 -0.05 c 2.49 0.0 4.63 -0.68 5.9 -2.78 l 5.75 -9.54 l 12.82 12.77 l -5.44 21.42 h 18.82 c 1.22 
        0.0 2.21 -0.99 2.21 -2.18 c 0.0 -0.95 -0.59 -1.61 -1.32 -2.01 l -8.12 -4.49 l 3.9 -15.4 c 0.0 0.0 0.97 -3.25 
        -2.1 -6.26 L 58.09 49.61 c 0.0 0.0 5.61 -9.23 9.21 -15.15 l 4.18 9.48 c 0.33 0.76 0.89 1.37 1.55 1.8 c 0.0 0.02 
        0.05 0.02 0.05 0.06 c 0.66 0.43 1.45 0.69 2.3 0.69 h 17.52 c 2.34 0.03 4.22 -1.89 4.24 -4.2 C 97.17 39.95 95.29 
        38.11 92.99 38.07"/>
</svg>