<?xml version="1.0" standalone="no"?>
<!--Created with Sketsa SVG Editor (http://www.kiyut.com)-->
<?xml-stylesheet type="text/css" href="..\sports.css" ?>
<svg contentScriptType="text/ecmascript" width="100.0px" xmlns:xlink="http://www.w3.org/1999/xlink" baseProfile="full"
    zoomAndPan="magnify" contentStyleType="text/css" height="100.0px" preserveAspectRatio="xMidYMid meet" xmlns="http://www.w3.org/2000/svg"
    version="1.0">
    <path d="M 64.86 26.75 c 4.9 0.0 8.85 -4.01 8.85 -8.93 c 0.0 -4.94 -3.95 -8.95 -8.85 -8.95 c -4.9 0.0 -8.87 4.01 
        -8.87 8.95 C 55.99 22.74 59.96 26.75 64.86 26.75 z M 99.49 90.77 c -2.09 0.0 -4.11 -0.48 -5.9 -1.27 c -1.83 
        -0.86 -3.9 -1.37 -6.06 -1.37 c -2.14 0.0 -4.21 0.5 -6.04 1.37 c -1.81 0.79 -3.81 1.27 -5.9 1.27 c -2.09 0.0 
        -4.09 -0.48 -5.88 -1.27 c -1.83 -0.86 -3.9 -1.37 -6.07 -1.37 s -4.23 0.5 -6.07 1.37 c -1.78 0.79 -3.78 1.27 
        -5.87 1.27 c -2.09 0.0 -4.09 -0.48 -5.9 -1.27 c -1.83 -0.86 -3.88 -1.37 -6.04 -1.37 s -4.23 0.5 -6.07 1.37 c 
        -1.78 0.79 -3.78 1.27 -5.88 1.27 c -2.07 0.0 -4.07 -0.48 -5.88 -1.27 c -1.83 -0.86 -3.9 -1.37 -6.04 -1.37 c 
        -2.16 0.0 -4.23 0.5 -6.07 1.37 c -1.78 0.79 -3.78 1.27 -5.88 1.27 v -8.9 c 2.09 0.0 4.09 -0.46 5.88 -1.27 c 1.83 
        -0.86 3.9 -1.37 6.07 -1.37 c 2.14 0.0 4.21 0.5 6.04 1.37 c 1.81 0.82 3.81 1.27 5.88 1.27 c 2.09 0.0 4.09 -0.46 
        5.88 -1.27 c 1.83 -0.86 3.9 -1.37 6.07 -1.37 s 4.21 0.5 6.04 1.37 c 1.81 0.82 3.81 1.27 5.9 1.27 c 2.09 0.0 4.09 
        -0.46 5.87 -1.27 c 1.83 -0.86 3.9 -1.37 6.07 -1.37 s 4.23 0.5 6.07 1.37 c 1.78 0.82 3.78 1.27 5.88 1.27 c 2.09 
        0.0 4.09 -0.46 5.9 -1.27 c 1.83 -0.86 3.9 -1.37 6.04 -1.37 c 2.16 0.0 4.23 0.5 6.06 1.37 c 1.78 0.82 3.81 1.27 
        5.9 1.27 V 90.77 z M 10.06 73.04 c 1.78 -0.81 3.76 -1.27 5.85 -1.27 c 2.14 0.0 4.21 0.5 6.04 1.37 c 1.81 0.79 
        3.81 1.27 5.88 1.27 c 2.09 0.0 4.09 -0.48 5.88 -1.27 c 1.83 -0.86 3.9 -1.37 6.07 -1.37 s 4.21 0.5 6.04 1.37 c 
        1.81 0.79 3.81 1.27 5.9 1.27 c 2.09 0.0 4.09 -0.48 5.87 -1.27 c 1.17 -0.55 2.38 -0.91 3.66 -1.15 l 15.27 -17.61 
        h -19.65 l 8.14 -14.09 l 17.84 9.84 c 5.9 3.36 10.25 -4.39 4.33 -7.75 L 61.62 28.12 c -9.4 -5.28 -13.37 3.48 
        -13.37 3.48 L 35.08 54.06 L 0.38 54.03 C 1.47 60.44 7.18 69.03 10.06 73.04 z M 65.83 71.93 c 1.36 0.22 2.66 0.62 
        3.88 1.2 c 1.78 0.79 3.78 1.27 5.88 1.27 c 2.09 0.0 4.09 -0.48 5.9 -1.27 c 1.83 -0.86 3.9 -1.37 6.04 -1.37 c 
        2.16 0.0 4.23 0.5 6.06 1.37 c 1.78 0.79 3.81 1.27 5.9 1.27 L 99.44 54.37 l -18.41 -0.02 L 65.83 71.93 z"/>
</svg>