<?xml version="1.0" standalone="no"?>
<!--Created with Sketsa SVG Editor (http://www.kiyut.com)-->
<?xml-stylesheet type="text/css" href="..\sports.css" ?>
<svg contentScriptType="text/ecmascript" width="100.0px" xmlns:xlink="http://www.w3.org/1999/xlink" baseProfile="full"
    zoomAndPan="magnify" contentStyleType="text/css" height="100.0px" preserveAspectRatio="xMidYMid meet" xmlns="http://www.w3.org/2000/svg"
    version="1.0">
    <path d="M 36.01 42.77 c 0.88 0.0 1.6 -0.73 1.6 -1.61 l 0.02 -10.15 c 0.0 -0.89 -0.72 -1.61 -1.6 -1.61 H 12.87 c 
        -0.88 0.0 -1.6 0.73 -1.6 1.61 l -0.02 10.15 c 0.0 0.89 0.72 1.61 1.6 1.61 H 36.01 z M 69.17 29.35 c 0.41 0.0 
        0.72 -0.34 0.72 -0.75 c 0.0 -0.16 -0.05 -0.3 -0.14 -0.43 l -3.66 -5.29 c -0.14 -0.16 -0.34 -0.27 -0.59 -0.27 h 
        -8.06 c -0.72 0.0 -1.31 0.59 -1.31 1.32 v 4.11 c 0.0 0.73 0.59 1.32 1.31 1.32 H 69.17 z M 66.73 19.4 c 0.74 0.0 
        1.42 0.34 1.87 0.86 l 6.98 10.09 c 0.16 0.25 0.27 0.52 0.27 0.84 c 0.0 0.75 -0.63 1.39 -1.4 1.39 l -11.99 -0.02 
        c -4.13 0.0 -7.47 3.36 -7.47 7.52 v 12.22 H 0.25 V 27.05 c 0.0 0.0 -0.45 -7.68 7.43 -7.68 L 66.73 19.4 z M 83.37 
        53.93 l -15.44 -0.02 c -1.38 0.0 -2.48 -1.11 -2.48 -2.5 v -8.0 c 0.0 -1.39 1.11 -2.5 2.46 -2.5 h 8.4 c 0.43 0.0 
        0.81 0.2 1.08 0.52 l 7.09 10.29 c 0.16 0.23 0.27 0.5 0.27 0.82 C 84.75 53.31 84.14 53.93 83.37 53.93 z M 96.8 
        62.51 v -5.29 c 0.0 -2.14 -1.35 -3.95 -3.23 -4.63 l -4.56 -1.54 l -9.1 -13.22 c -0.45 -0.55 -1.13 -0.89 -1.87 
        -0.89 H 63.62 c -2.35 0.0 -4.24 1.91 -4.24 4.27 l 0.02 15.49 H 0.25 v 11.18 c 0.0 1.61 1.31 2.93 2.91 2.93 h 
        7.81 c 0.43 -6.52 6.93 -11.7 13.52 -11.7 c 6.59 0.0 13.09 5.18 13.54 11.7 h 28.99 c 0.48 -6.48 6.95 -11.61 13.55 
        -11.61 c 6.57 0.0 13.05 5.13 13.52 11.61 h 2.6 c 1.63 0.0 2.93 -1.32 2.93 -2.93 v -5.36 H 96.8 z M 80.53 76.87 c 
        2.14 0.0 3.88 -1.75 3.88 -3.91 s -1.74 -3.91 -3.88 -3.91 c -2.14 0.0 -3.86 1.75 -3.86 3.91 S 78.38 76.87 80.53 
        76.87 z M 71.59 72.96 c 0.0 -4.97 4.02 -9.0 8.94 -9.0 c 4.94 0.0 8.96 4.02 8.96 9.0 s -4.02 8.99 -8.96 8.99 C 
        75.61 81.96 71.59 77.94 71.59 72.96 z M 24.5 76.71 c 2.14 0.0 3.88 -1.75 3.88 -3.91 s -1.74 -3.91 -3.88 -3.91 c 
        -2.14 0.0 -3.88 1.75 -3.88 3.91 S 22.35 76.71 24.5 76.71 z M 15.56 72.8 c 0.0 -4.97 4.02 -8.99 8.94 -8.99 c 4.94 
        0.0 8.94 4.02 8.94 8.99 s -4.0 8.99 -8.94 8.99 C 19.58 81.8 15.56 77.78 15.56 72.8 z"/>
</svg>