<?xml version="1.0" standalone="no"?>
<!--Created with Sketsa SVG Editor (http://www.kiyut.com)-->
<?xml-stylesheet type="text/css" href="..\sports.css" ?>
<svg contentScriptType="text/ecmascript" width="100.0px" xmlns:xlink="http://www.w3.org/1999/xlink" baseProfile="full"
    zoomAndPan="magnify" contentStyleType="text/css" height="100.0px" preserveAspectRatio="xMidYMid meet" xmlns="http://www.w3.org/2000/svg"
    version="1.0">
    <path d="M 94.76 99.63 c -1.97 0.0 -3.9 -0.46 -5.61 -1.23 c -1.74 -0.82 -3.72 -1.3 -5.78 -1.3 c -2.05 0.0 -4.02 0.47 
        -5.77 1.3 C 75.88 99.17 73.97 99.63 71.98 99.63 c -1.97 0.0 -3.9 -0.46 -5.6 -1.23 c -1.75 -0.82 -3.73 -1.3 -5.79 
        -1.3 c -2.04 0.0 -4.02 0.47 -5.76 1.3 C 53.1 99.17 51.19 99.63 49.19 99.63 c -2.0 0.0 -3.9 -0.46 -5.61 -1.23 c 
        -1.75 -0.82 -3.73 -1.3 -5.78 -1.3 c -2.06 0.0 -4.04 0.47 -5.78 1.3 C 30.32 99.17 28.4 99.63 26.4 99.63 c -1.98 
        0.0 -3.9 -0.46 -5.61 -1.23 c -1.75 -0.82 -3.72 -1.3 -5.78 -1.3 c -2.05 0.0 -4.02 0.47 -5.77 1.3 C 7.52 99.17 
        5.62 99.63 3.63 99.63 v -8.44 c 2.0 0.0 3.9 -0.45 5.61 -1.23 c 1.75 -0.79 3.73 -1.26 5.77 -1.26 c 2.06 0.0 4.03 
        0.47 5.78 1.26 c 1.71 0.78 3.63 1.23 5.61 1.23 c 2.0 0.0 3.91 -0.45 5.62 -1.23 c 1.74 -0.79 3.72 -1.26 5.78 
        -1.26 c 2.05 0.0 4.03 0.47 5.78 1.26 c 1.71 0.78 3.61 1.23 5.61 1.23 c 1.99 0.0 3.9 -0.45 5.63 -1.23 c 1.75 
        -0.79 3.73 -1.26 5.76 -1.26 c 2.06 0.0 4.04 0.47 5.79 1.26 c 1.7 0.78 3.63 1.23 5.6 1.23 c 2.0 0.0 3.9 -0.45 
        5.63 -1.23 c 1.74 -0.79 3.72 -1.26 5.77 -1.26 c 2.06 0.0 4.04 0.47 5.78 1.26 c 1.71 0.78 3.63 1.23 5.61 1.23 V 
        99.63 H 94.76 z M 63.11 15.53 c 15.27 7.12 33.4 26.08 31.02 48.85 H 63.11 V 15.53 L 63.11 15.53 z M 87.57 68.97 
        H 73.41 H 18.54 v 12.55 c 0.78 0.2 1.55 0.43 2.25 0.77 c 1.71 0.75 3.63 1.21 5.61 1.21 c 2.0 0.0 3.91 -0.46 5.62 
        -1.21 c 1.74 -0.82 3.72 -1.3 5.78 -1.3 c 2.05 0.0 4.03 0.48 5.78 1.3 c 1.71 0.75 3.61 1.21 5.61 1.21 c 1.99 0.0 
        3.9 -0.46 5.63 -1.21 c 1.75 -0.82 3.73 -1.3 5.76 -1.3 c 2.06 0.0 4.04 0.48 5.79 1.3 c 1.7 0.75 3.63 1.21 5.61 
        1.21 c 0.38 0.0 0.75 -0.1 1.11 -0.14 c 0.04 0.0 0.04 0.04 0.09 0.04 c 0.25 0.0 0.44 -0.11 0.68 -0.11 c 0.45 
        -0.06 0.91 -0.11 1.36 -0.22 c 4.08 -0.85 6.72 -4.03 6.72 -4.03 l 7.94 -10.07 h -2.31 V 68.97 H 87.57 z M 58.36 
        0.57 c -0.13 -0.09 -0.29 -0.1 -0.43 0.05 c -9.99E-4 9.91E-4 -0.0 0.0 -0.01 0.0 c -0.0 0.0 -0.0 0.0 -0.01 0.0 c 
        -17.3 21.16 -34.6 42.33 -51.89 63.49 c -0.2 0.24 -0.09 0.63 0.26 0.63 c 17.3 0.0 34.6 0.0 51.89 0.0 c 0.2 0.0 
        0.37 -0.17 0.37 -0.37 c 0.0 -21.16 0.0 -42.33 0.0 -63.49 C 58.56 0.72 58.47 0.62 58.36 0.57 z"/>
</svg>