<?xml version="1.0" standalone="no"?>
<!--Created with Sketsa SVG Editor (http://www.kiyut.com)-->
<?xml-stylesheet type="text/css" href="..\sports.css" ?>
<svg contentScriptType="text/ecmascript" width="100.0px" xmlns:xlink="http://www.w3.org/1999/xlink" baseProfile="full"
    zoomAndPan="magnify" contentStyleType="text/css" height="100.0px" preserveAspectRatio="xMidYMid meet" xmlns="http://www.w3.org/2000/svg"
    version="1.0">
    <path d="M 49.29 26.44 c 1.67 0.0 2.99 -1.36 2.99 -3.05 v -5.01 c 0.0 -1.68 -1.33 -3.01 -2.99 -3.01 H 26.81 c -1.66 
        0.0 -2.99 1.34 -2.99 3.01 v 5.01 c 0.0 1.69 1.34 3.05 2.99 3.05 H 49.29 z M 78.97 26.42 c 1.67 0.0 2.99 -1.36 
        2.99 -3.05 v -4.99 c 0.0 -1.68 -1.33 -3.01 -2.99 -3.01 H 68.59 c -1.63 0.0 -2.97 1.34 -2.97 3.01 v 4.99 c 0.0 
        1.68 1.34 3.05 2.97 3.05 H 78.97 z M 39.22 50.35 H 23.39 c -5.9 0.0 -10.68 -4.82 -10.68 -10.79 l -0.02 -18.81 C 
        12.69 12.68 19.18 6.13 27.16 6.13 h 49.22 c 7.99 0.0 14.48 6.55 14.48 14.63 l 0.02 26.56 h 5.47 c 1.64 0.0 2.95 
        1.34 2.95 3.03 h -35.0 c -0.38 -6.06 -6.46 -10.86 -12.54 -10.86 S 39.61 44.3 39.22 50.35 M 52.01 55.94 c 1.97 
        0.0 3.58 -1.62 3.58 -3.6 c 0.0 -1.99 -1.61 -3.61 -3.58 -3.61 s -3.58 1.62 -3.58 3.61 C 48.43 54.32 50.04 55.94 
        52.01 55.94 M 99.38 60.47 l -0.04 29.17 c 0.0 2.1 -1.7 3.87 -3.83 3.87 H 4.2 C 2.09 93.51 0.38 91.74 0.38 89.64 
        V 60.54 h 20.13 v 4.9 l -13.6 0.02 c -0.7 0.0 -1.26 0.5 -1.37 1.17 v 19.36 c 0.0 1.48 1.17 2.64 2.61 2.64 h 
        40.22 c 1.44 0.0 2.54 -1.16 2.54 -2.64 l 0.02 -19.13 c 0.0 -0.77 -0.63 -1.4 -1.39 -1.4 L 34.36 65.44 v -4.98 h 
        15.9 c -3.69 -0.83 -6.49 -4.15 -6.49 -8.13 c 0.0 -4.59 3.69 -8.31 8.24 -8.31 s 8.23 3.73 8.23 8.31 c 0.0 3.98 
        -2.76 7.3 -6.47 8.13 H 99.38 z M 25.69 54.82 h 3.47 v 18.83 h 3.96 c 0.0 0.0 1.28 0.27 0.88 1.68 l -5.45 6.7 c 
        0.0 0.0 -0.36 0.58 -1.05 0.58 c -0.69 0.0 -1.07 -0.58 -1.07 -0.58 l -5.57 -6.7 c -0.43 -1.41 0.88 -1.68 0.88 
        -1.68 h 3.95 V 54.82 z"/>
</svg>