<?xml version="1.0" standalone="no"?>
<!--Created with Sketsa SVG Editor (http://www.kiyut.com)-->
<?xml-stylesheet type="text/css" href="..\sports.css" ?>
<svg contentScriptType="text/ecmascript" width="100.0px" xmlns:xlink="http://www.w3.org/1999/xlink" baseProfile="full"
    zoomAndPan="magnify" contentStyleType="text/css" height="100.0px" preserveAspectRatio="xMidYMid meet" xmlns="http://www.w3.org/2000/svg"
    version="1.0">
    <path d="M 30.89 49.94 c 0.0 5.71 -4.68 10.35 -10.45 10.35 C 14.68 60.29 10.0 55.65 10.0 49.94 c 0.0 -5.72 4.68 
        -10.35 10.44 -10.35 C 26.21 39.58 30.89 44.22 30.89 49.94 z M 37.72 46.81 L 37.72 53.07 L 90.7 56.95 L 
        90.7,42.93 z M 26.37 33.55 L 31.82 36.69 L 53.44 7.39 L 41.21 0.38 z M 33.84 38.68 L 36.99 44.11 L 76.23 26.08 L 
        69.16 13.93 z M 26.37 66.32 L 31.82 63.18 L 53.44 92.49 L 41.21 99.5 z M 33.84 61.19 L 36.99 55.77 L 76.23 73.79 
        L 69.16 85.93 z"/>
</svg>