<?xml version="1.0" standalone="no"?>
<!--Created with Sketsa SVG Editor (http://www.kiyut.com)-->
<?xml-stylesheet type="text/css" href="..\sports.css" ?>
<svg contentScriptType="text/ecmascript" width="100.0px" xmlns:xlink="http://www.w3.org/1999/xlink" baseProfile="full"
    zoomAndPan="magnify" contentStyleType="text/css" height="100.0px" preserveAspectRatio="xMidYMid meet" xmlns="http://www.w3.org/2000/svg"
    version="1.0">
    <path d="M 71.25 53.31 c 2.98 0.83 6.18 -0.88 7.03 -3.96 c 0.82 -3.03 -0.92 -6.22 -3.92 -7.08 l -2.34 -0.66 l -3.02 
        11.02 L 71.25 53.31 z M 69.41 40.91 l -18.85 -5.41 c -1.24 -0.33 -2.48 0.43 -2.83 1.69 l -1.77 6.42 c -0.35 1.26 
        0.33 2.56 1.6 2.93 l 18.85 5.35 L 69.41 40.91 z M 72.39 59.15 c -1.44 -1.39 -3.22 -2.5 -5.31 -3.08 l -22.86 
        -6.51 l 0.0 0.0 L 30.18 24.18 c -0.74 -1.31 -1.93 -2.35 -3.47 -2.78 c -3.08 -0.88 -6.28 0.96 -7.12 4.1 c -0.42 
        1.49 -0.22 3.01 0.44 4.3 l 17.57 31.38 c 0.0 0.0 1.44 2.35 5.06 3.56 l 31.94 9.12 l 14.81 15.32 c 0.49 0.52 1.14 
        0.93 1.91 1.15 c 2.23 0.63 4.56 -0.73 5.22 -2.97 c 0.42 -1.59 -0.08 -3.27 -1.19 -4.3 L 72.39 59.15 z M 89.43 
        65.49 l 3.32 4.42 L 99.5 62.41 l -5.7 -3.23 c 0.54 -4.07 -1.94 -8.0 -5.91 -9.15 c -4.37 -1.24 -8.91 1.34 -10.12 
        5.79 c -1.24 4.47 1.32 9.07 5.69 10.31 C 85.54 66.73 87.65 66.4 89.43 65.49 z M 0.25 7.38 L 16.0 23.77 L 22.05 
        18.24 L 16.57 7.43 z"/>
</svg>