<?xml version="1.0" standalone="no"?>
<!--Created with Sketsa SVG Editor (http://www.kiyut.com)-->
<?xml-stylesheet type="text/css" href="..\sports.css" ?>
<svg contentScriptType="text/ecmascript" width="100.0px" xmlns:xlink="http://www.w3.org/1999/xlink" baseProfile="full"
    zoomAndPan="magnify" contentStyleType="text/css" height="100.0px" preserveAspectRatio="xMidYMid meet" xmlns="http://www.w3.org/2000/svg"
    version="1.0">
    <circle cx="14.71" r="4.23" cy="40.24"/>
    <circle cx="76.73" r="4.23" cy="26.67"/>
    <path d="M 98.37 39.71 l -4.96 1.08 c 1.56 -3.75 -1.03 -5.29 -1.03 -5.29 L 81.97 28.59 l -4.18 3.01 c 0.0 0.0 -4.05 
        6.25 -4.05 6.25 s -1.96 3.02 -0.12 4.64 l 0.19 2.6 L 24.94 55.77 l -0.9 -2.45 c 1.0 -2.23 -2.02 -4.17 -2.02 
        -4.17 l -6.25 -4.0 l -5.04 -0.99 L 4.11 54.82 c 0.0 0.0 -1.73 2.49 1.23 5.25 L 0.38 61.15 l 1.13 5.27 l 14.43 
        -3.16 l 7.09 5.4 l 3.95 -3.21 l -2.89 -3.98 l 25.84 -5.65 l -5.15 4.54 v 16.95 H 49.94 h 5.15 V 60.36 L 49.94 
        55.82 l 26.97 -5.9 l -0.99 4.83 l 4.92 1.27 l 4.24 -7.88 L 99.5 44.97 L 98.37 39.71 z M 20.24 56.8 l -5.54 -2.68 
        l 1.37 -4.27 l 5.56 2.64 l 1.36 3.7 L 20.24 56.8 z M 78.5 44.05 l -2.75 0.6 l -0.29 -3.94 l 3.98 -4.73 L 82.44 
        39.3 L 78.5 44.05 z"/>
</svg>