<?xml version="1.0" standalone="no"?>
<!--Created with Sketsa SVG Editor (http://www.kiyut.com)-->
<?xml-stylesheet type="text/css" href="..\sports.css" ?>
<svg contentScriptType="text/ecmascript" width="100.0px" xmlns:xlink="http://www.w3.org/1999/xlink" baseProfile="full"
    zoomAndPan="magnify" contentStyleType="text/css" height="100.0px" preserveAspectRatio="xMidYMid meet" xmlns="http://www.w3.org/2000/svg"
    version="1.0">
    <path d="M 24.91 27.45 c 3.72 0.0 6.72 -2.97 6.72 -6.66 s -3.0 -6.68 -6.72 -6.68 c -3.69 0.0 -6.71 2.99 -6.71 6.68 S 
        21.21 27.45 24.91 27.45 z M 14.57 28.83 c 0.26 -1.04 -0.37 -2.05 -1.39 -2.3 l -5.6 -1.36 c -1.05 -0.21 -2.09 
        0.39 -2.32 1.43 l -4.69 19.3 c -0.26 0.99 0.37 2.03 1.42 2.28 l 5.6 1.34 c 1.02 0.25 2.04 -0.37 2.3 -1.4 L 14.57 
        28.83 z M 1.9 93.48 c -0.05 0.32 -0.09 0.64 -0.09 0.94 c 0.0 2.58 2.11 4.68 4.72 4.68 c 2.16 0.0 3.95 -1.41 4.53 
        -3.34 L 19.19 62.45 l 7.71 33.12 c 0.51 2.03 2.39 3.52 4.58 3.52 c 2.63 0.0 4.74 -2.1 4.74 -4.68 c 0.0 -0.35 
        -0.05 -0.69 -0.12 -1.01 l -10.62 -44.01 l 0.91 -3.85 l 0.67 3.04 c 0.65 1.98 2.49 2.19 2.49 2.19 l 10.94 2.76 c 
        0.21 0.05 0.42 0.05 0.65 0.05 c 1.77 0.0 3.23 -1.43 3.23 -3.2 c 0.0 -1.5 -1.07 -2.79 -2.49 -3.11 l -9.48 -2.35 l 
        -2.6 -10.48 c -1.23 -5.83 -6.85 -5.69 -6.85 -5.69 c -5.48 -0.14 -6.85 5.55 -6.85 5.55 L 1.9 93.48 z M 91.62 
        95.73 c 0.0 -2.16 1.72 -3.92 3.95 -3.92 c 2.16 0.0 3.95 1.75 3.95 3.92 c 0.0 2.14 -1.79 3.89 -3.95 3.89 C 93.34 
        99.63 91.62 97.87 91.62 95.73 z M 95.57 85.23 c -2.23 0.0 -3.95 -1.75 -3.95 -3.89 c 0.0 -2.16 1.72 -3.92 3.95 
        -3.92 c 2.16 0.0 3.95 1.75 3.95 3.92 C 99.52 83.48 97.73 85.23 95.57 85.23 z M 95.54 70.84 c -2.21 0.0 -3.95 
        -1.75 -3.95 -3.89 c 0.0 -2.19 1.74 -3.91 3.95 -3.91 c 2.16 0.0 3.95 1.73 3.95 3.91 C 99.49 69.09 97.71 70.84 
        95.54 70.84 z M 95.54 56.44 c -2.21 0.0 -3.95 -1.75 -3.95 -3.89 c 0.0 -2.19 1.74 -3.92 3.95 -3.92 c 2.16 0.0 
        3.95 1.73 3.95 3.92 C 99.49 54.69 97.71 56.44 95.54 56.44 z M 95.54 42.05 c -2.21 0.0 -3.95 -1.75 -3.95 -3.89 c 
        0.0 -2.19 1.74 -3.92 3.95 -3.92 c 2.16 0.0 3.93 1.73 3.93 3.92 C 99.47 40.3 97.71 42.05 95.54 42.05 z M 95.54 
        27.65 c -2.23 0.0 -3.95 -1.75 -3.95 -3.89 c 0.0 -2.21 1.72 -3.92 3.95 -3.92 c 2.16 0.0 3.93 1.7 3.93 3.92 C 
        99.47 25.9 97.71 27.65 95.54 27.65 z M 91.59 9.37 c 0.0 -2.21 1.72 -3.92 3.95 -3.92 c 2.16 0.0 3.93 1.7 3.93 
        3.92 c 0.0 2.14 -1.77 3.89 -3.93 3.89 C 93.31 13.26 91.59 11.51 91.59 9.37 z M 66.5 5.43 c 2.18 0.0 3.93 1.73 
        3.93 3.94 c 0.0 2.12 -1.74 3.89 -3.93 3.89 c -2.19 0.0 -3.95 -1.77 -3.95 -3.89 C 62.55 7.16 64.32 5.43 66.5 5.43 
        z M 81.02 5.41 c 2.18 0.0 3.93 1.75 3.93 3.94 c 0.0 2.12 -1.74 3.89 -3.93 3.89 c -2.18 0.0 -3.95 -1.77 -3.95 
        -3.89 C 77.07 7.16 78.84 5.41 81.02 5.41 z M 66.5 91.8 c 2.16 0.0 3.95 1.75 3.95 3.91 c 0.0 2.14 -1.79 3.89 
        -3.95 3.89 c -2.21 0.0 -3.95 -1.75 -3.95 -3.89 C 62.55 93.54 64.29 91.8 66.5 91.8 z M 81.05 91.8 c 2.18 0.0 3.93 
        1.75 3.93 3.91 c 0.0 2.14 -1.74 3.89 -3.93 3.89 s -3.95 -1.75 -3.95 -3.89 C 77.1 93.54 78.86 91.8 81.05 91.8 z M 
        57.05 0.5 L 57.05 18.3 L 41.57 9.39 z M 54.12 98.84 c 0.0 0.0 0.0 -28.24 0.0 -31.14 c 1.97 -1.96 15.22 -15.08 
        15.22 -15.08 c 0.74 -0.74 1.12 -1.73 1.12 -2.7 c 0.0 -0.99 -0.37 -1.96 -1.12 -2.69 c -1.51 -1.5 -3.95 -1.5 -5.46 
        0.0 L 46.4 64.53 V 98.84 H 54.12 z"/>
</svg>