<?xml version="1.0" standalone="no"?>
<!--Created with Sketsa SVG Editor (http://www.kiyut.com)-->
<?xml-stylesheet type="text/css" href="..\sports.css" ?>
<svg contentScriptType="text/ecmascript" width="100.0px" xmlns:xlink="http://www.w3.org/1999/xlink" baseProfile="full"
    zoomAndPan="magnify" contentStyleType="text/css" height="100.0px" preserveAspectRatio="xMidYMid meet" xmlns="http://www.w3.org/2000/svg"
    version="1.0">
    <path d="M 39.22 99.5 c 1.59 0.0 2.88 -1.29 2.88 -2.88 c 0.0 -1.58 -1.28 -2.86 -2.88 -2.86 c -1.59 0.0 -2.87 1.28 
        -2.87 2.86 C 36.35 98.21 37.63 99.5 39.22 99.5 z M 62.46 99.44 c 1.59 0.0 2.88 -1.3 2.88 -2.91 c 0.0 -1.59 -1.29 
        -2.88 -2.88 -2.88 c -1.58 0.0 -2.86 1.29 -2.86 2.88 C 59.59 98.14 60.88 99.44 62.46 99.44 z M 33.54 90.93 c 0.0 
        0.0 -1.69 -0.09 -1.69 -1.82 v -0.16 c 0.0 -1.71 1.69 -1.83 1.69 -1.83 h 34.47 c 0.0 0.0 1.69 0.16 1.69 1.83 v 
        0.16 c 0.0 1.67 -1.69 1.82 -1.69 1.82 H 33.54 z M 57.49 15.88 c 4.21 0.0 7.64 -3.43 7.64 -7.64 C 65.13 4.03 
        61.71 0.63 57.49 0.63 c -4.21 0.0 -7.64 3.4 -7.64 7.61 C 49.86 12.45 53.28 15.88 57.49 15.88 z M 16.06 82.6 C 
        15.7 83.28 15.5 84.04 15.5 84.87 c 0.0 2.68 2.18 4.87 4.89 4.87 c 1.94 0.0 3.61 -1.13 4.4 -2.75 l 16.67 -28.63 l 
        -6.92 -6.91 L 16.06 82.6 z M 49.53 81.32 c -0.72 1.62 -2.26 2.75 -4.05 2.75 c -2.47 0.0 -4.49 -2.19 -4.49 -4.87 
        c 0.0 -0.84 0.19 -1.6 0.52 -2.28 l 6.69 -12.74 l -13.04 -14.06 c -5.01 -5.46 -1.44 -11.35 -1.44 -11.35 l 7.02 
        -13.45 L 22.13 25.34 c -2.06 0.0 -3.7 -1.8 -3.7 -4.01 c 0.0 -2.18 1.64 -3.99 3.7 -3.99 h 56.35 c 2.03 0.0 3.68 
        1.8 3.68 4.01 c 0.0 2.2 -1.64 3.99 -3.68 3.99 H 56.98 L 46.73 44.82 l 10.44 11.19 c 3.65 3.81 1.29 8.09 1.29 
        8.09 L 49.53 81.32 z"/>
</svg>