<?xml version="1.0" standalone="no"?>
<!--Created with Sketsa SVG Editor (http://www.kiyut.com)-->
<?xml-stylesheet type="text/css" href="..\sports.css" ?>
<svg contentScriptType="text/ecmascript" width="100.0px" xmlns:xlink="http://www.w3.org/1999/xlink" baseProfile="full"
    zoomAndPan="magnify" contentStyleType="text/css" height="100.0px" preserveAspectRatio="xMidYMid meet" xmlns="http://www.w3.org/2000/svg"
    version="1.0">
    <path id="path5150" d="M 76.63 16.32 c 4.4 0.0 7.92 -3.47 7.92 -7.77 C 84.55 4.25 81.03 0.75 76.63 0.75 c -4.36 0.0 
        -7.88 3.5 -7.88 7.8 C 68.75 12.85 72.27 16.32 76.63 16.32 M 36.63 47.91 l 28.41 -18.1 c 3.7 -2.33 4.82 -7.16 
        2.47 -10.81 c -2.34 -3.66 -7.26 -4.77 -10.96 -2.44 L 35.6 29.9 c -1.19 0.75 -2.13 1.74 -2.74 2.9 L 11.07 75.17 C 
        9.8 77.68 10.8 80.72 13.32 81.98 c 2.52 1.27 5.61 0.28 6.9 -2.2 L 36.63 47.91 z M 91.96 44.94 c 3.75 -2.32 4.92 
        -7.2 2.56 -10.91 l -2.75 1.66 c 1.42 2.23 0.73 5.15 -1.54 6.53 L 3.0 96.68 L 4.73 99.38 L 91.96 44.94 z"
        transform="matrix(1.0 0.0 0.0 1.0 -0.0 3.81E-6)"/>
</svg>