<?xml version="1.0" standalone="no"?>
<!--Created with Sketsa SVG Editor (http://www.kiyut.com)-->
<?xml-stylesheet type="text/css" href="..\sports.css" ?>
<svg contentScriptType="text/ecmascript" width="100.0px" xmlns:xlink="http://www.w3.org/1999/xlink" baseProfile="full"
    zoomAndPan="magnify" contentStyleType="text/css" height="100.0px" preserveAspectRatio="xMidYMid meet" xmlns="http://www.w3.org/2000/svg"
    version="1.0">
    <path d="M 35.59 71.06 c 3.82 0.0 6.92 -3.13 6.92 -6.98 c 0.0 -3.85 -3.1 -6.98 -6.92 -6.98 s -6.92 3.13 -6.92 6.98 C 
        28.66 67.93 31.77 71.06 35.59 71.06 z M 93.94 61.1 c 3.03 0.0 5.48 2.45 5.51 5.51 l 0.02 14.67 H 56.49 V 61.1 H 
        93.94 z M 10.33 95.44 L 99.49 95.44 L 99.49 86.11 L 19.58 86.11 L 19.58 50.74 L 99.49 14.31 L 99.49 4.63 L 0.38 
        49.76 L 0.38 59.48 L 10.33 54.97 z M 45.91 74.39 h -12.42 c -1.89 0.0 -3.41 1.55 -3.41 3.45 c 0.0 1.88 1.53 3.43 
        3.41 3.43 h 15.81 c 1.89 0.0 3.41 -1.55 3.41 -3.43 V 64.03 c 0.0 -1.9 -1.53 -3.44 -3.41 -3.44 c -1.87 0.0 -3.4 
        1.53 -3.4 3.44 L 45.91 74.39 z" transform="matrix(1.0 0.0 0.0 1.0 -0.0 3.81E-6)"/>
</svg>