<?xml version="1.0" standalone="no"?>
<!--Created with Sketsa SVG Editor (http://www.kiyut.com)-->
<?xml-stylesheet type="text/css" href="..\sports.css" ?>
<svg contentScriptType="text/ecmascript" width="100.0px" xmlns:xlink="http://www.w3.org/1999/xlink" baseProfile="full"
    zoomAndPan="magnify" contentStyleType="text/css" height="100.0px" preserveAspectRatio="xMidYMid meet" xmlns="http://www.w3.org/2000/svg"
    version="1.0">
    <path d="M 79.13 20.58 c 4.53 0.0 8.22 -3.65 8.22 -8.13 c 0.0 -4.49 -3.69 -8.14 -8.22 -8.14 s -8.22 3.65 -8.22 8.14 
        C 70.91 16.94 74.6 20.58 79.13 20.58 z M 98.06 43.08 L 74.91 22.01 c -0.77 -0.75 -1.67 -1.34 -2.67 -1.78 l 
        -18.04 -6.36 L 46.01 2.11 c -0.63 -0.84 -1.6 -1.44 -2.74 -1.59 c -2.16 -0.24 -4.1 1.3 -4.36 3.43 c -0.1 0.91 
        0.12 1.77 0.58 2.5 l 8.36 11.98 c 0.39 0.5 0.87 0.89 1.46 1.15 l 9.7 3.79 l -15.95 8.06 c -2.21 1.28 -3.81 3.46 
        -4.24 6.05 l 0.1 14.43 l -14.73 6.58 c -1.67 0.77 -2.86 2.43 -2.93 4.37 c -0.05 1.15 0.31 2.21 0.92 3.09 c -4.86 
        -1.83 -7.94 -2.99 -7.94 -2.99 c -1.49 -0.57 -2.65 -1.77 -3.17 -3.29 c -0.91 -2.67 -3.84 -4.11 -6.55 -3.22 c -2.7 
        0.9 -4.16 3.8 -3.25 6.49 c 1.5 4.43 4.9 7.92 9.29 9.57 L 79.53 98.48 c 4.41 1.67 9.29 1.3 13.35 -1.02 c 2.47 
        -1.4 3.32 -4.52 1.9 -6.97 c -1.42 -2.45 -4.57 -3.29 -7.04 -1.89 c -1.37 0.78 -3.03 0.9 -4.53 0.32 c -0.0 0.0 
        -7.28 -2.74 -17.09 -6.43 c 1.77 -0.61 3.12 -2.16 3.37 -4.07 l 2.69 -21.58 c 0.03 -0.1 0.03 -0.19 0.03 -0.29 c 
        0.07 -1.51 -0.53 -2.9 -1.58 -3.87 l -11.59 -10.18 l 17.46 -8.53 l 16.22 14.79 c 0.73 0.7 1.7 1.12 2.79 1.12 c 
        2.18 -0.02 3.93 -1.77 3.9 -3.93 C 99.4 44.81 98.87 43.77 98.06 43.08 z M 61.68 58.23 l -2.3 18.94 c 0.0 0.1 
        -0.02 0.21 -0.02 0.33 c -0.04 0.98 0.21 1.9 0.67 2.7 c -10.82 -4.07 -23.3 -8.77 -32.49 -12.23 c 0.37 -0.09 0.72 
        -0.21 1.05 -0.37 l 18.05 -8.06 c 1.29 -0.7 2.25 -1.92 2.57 -3.38 l -0.05 -8.98 L 61.68 58.23 z" transform="matrix(1.0 0.0 0.0 1.0 -0.0 -3.81E-6)"/>
</svg>