<?xml version="1.0" standalone="no"?>
<!--Created with Sketsa SVG Editor (http://www.kiyut.com)-->
<?xml-stylesheet type="text/css" href="..\sports.css" ?>
<svg contentScriptType="text/ecmascript" width="100.0px" xmlns:xlink="http://www.w3.org/1999/xlink" baseProfile="full"
    zoomAndPan="magnify" contentStyleType="text/css" height="100.0px" preserveAspectRatio="xMidYMid meet" xmlns="http://www.w3.org/2000/svg"
    version="1.0">
    <path d="M 41.08 23.45 c 4.1 0.0 7.42 -3.33 7.42 -7.48 C 48.5 11.86 45.18 8.5 41.08 8.5 c -4.1 0.0 -7.42 3.36 -7.42 
        7.46 C 33.67 20.11 36.99 23.45 41.08 23.45 z M 49.81 83.8 h 35.28 c 0.0 0.0 2.28 0.15 6.81 -3.51 L 99.63 74.35 v 
        6.71 l -7.88 5.94 c 0.0 0.0 -2.35 1.92 -6.29 2.36 H 46.86 L 49.81 83.8 z M 0.67 89.36 L 35.96 89.36 L 38.9 83.8 
        L 38.61 83.8 L 3.32 83.8 L 0.38 89.36 z M 44.89 32.54 c 0.0 -4.13 -3.32 -7.48 -7.43 -7.48 c -4.1 0.0 -7.43 3.35 
        -7.43 7.48 v 18.3 c 0.0 2.32 1.13 4.48 2.78 5.85 H 16.2 L 7.22 73.11 c -0.2 0.38 -0.28 0.79 -0.28 1.24 c 0.0 1.5 
        1.22 2.74 2.71 2.74 h 61.27 c 0.0 0.0 2.63 0.42 6.6 -2.71 l 15.9 -11.79 l -6.0 -10.57 c 0.0 0.0 -1.35 -2.56 
        -6.44 -3.33 l -12.0 -2.03 l -6.44 -10.84 l -0.08 -0.11 c -0.93 -1.08 -2.55 -1.19 -3.63 -0.26 l -0.01 0.02 c 
        -0.76 0.71 -1.04 1.85 -0.62 2.87 l 4.79 8.04 v 0.06 L 56.98 56.69 l -12.08 -4.64 v -4.55 h 9.54 c 0.46 0.02 0.94 
        -0.04 1.4 -0.24 c 1.81 -0.69 2.71 -2.74 2.02 -4.55 c -0.53 -1.41 -1.84 -2.25 -3.23 -2.27 l -9.74 -0.02 L 44.89 
        32.54"/>
</svg>