<?xml version="1.0" standalone="no"?>
<!--Created with Sketsa SVG Editor (http://www.kiyut.com)-->
<?xml-stylesheet type="text/css" href="..\sports.css" ?>
<svg contentScriptType="text/ecmascript" width="100.0px" xmlns:xlink="http://www.w3.org/1999/xlink" baseProfile="full"
    zoomAndPan="magnify" contentStyleType="text/css" height="100.0px" preserveAspectRatio="xMidYMid meet" xmlns="http://www.w3.org/2000/svg"
    version="1.0">
    <path d="M 69.24 16.47 c 4.44 0.0 8.03 -3.58 8.03 -7.99 C 77.27 4.08 73.68 0.5 69.24 0.5 s -8.06 3.58 -8.06 7.99 C 
        61.18 12.89 64.79 16.47 69.24 16.47 z M 90.84 46.94 c -1.4 3.2 -4.4 2.24 -4.4 2.24 l -12.6 -4.71 c -1.26 -0.45 
        -2.23 -1.48 -2.57 -2.76 l -2.85 -8.25 l -4.44 12.13 l 13.17 13.59 c 1.64 2.85 1.5 4.95 1.5 4.95 v 18.76 l 0.0 
        0.0 c 4.66 0.0 8.44 3.75 8.44 8.36 c 0.0 4.62 -3.78 8.36 -8.44 8.36 c -0.67 0.0 -1.33 -0.07 -1.97 -0.23 l -27.69 
        -6.1 v -4.05 l 20.77 -4.57 V 67.58 L 55.79 53.75 l -2.14 14.49 c -0.36 1.84 -1.69 3.56 -2.45 4.41 l -9.7 11.14 c 
        -0.14 -0.12 -0.33 -0.12 -0.52 -0.09 l 0.52 0.09 c 2.52 1.96 3.83 5.23 3.04 8.51 c -1.07 4.5 -5.63 7.28 -10.15 
        6.22 c -0.67 -0.17 -1.28 -0.38 -1.88 -0.66 L 7.0 85.56 l 0.95 -3.94 l 23.4 0.33 l 11.12 -12.75 l 3.45 -25.07 l 
        7.23 -18.97 l -10.01 5.7 l -5.97 11.59 c -1.81 3.68 -5.06 1.74 -5.06 1.74 c -2.95 -1.67 -1.81 -4.5 -1.81 -4.5 l 
        6.11 -12.25 c 1.64 -3.11 2.95 -3.58 2.95 -3.58 l 14.29 -7.75 c 3.11 -2.12 6.72 -0.47 6.72 -0.47 l 8.22 3.09 c 
        4.11 1.46 4.28 3.75 4.28 3.75 l 5.09 16.14 l 10.96 3.84 C 88.92 42.46 91.86 43.71 90.84 46.94 z M 78.01 95.83 c 
        0.21 0.02 0.43 0.05 0.64 0.05 c 2.57 0.0 4.66 -2.07 4.66 -4.62 c 0.0 -2.54 -2.09 -4.62 -4.66 -4.62 v 0.97 c 0.0 
        2.43 -2.0 4.41 -4.44 4.41 c -2.16 0.0 -3.87 -1.56 -4.28 -3.58 l -12.93 2.83 L 78.01 95.83 z M 34.66 94.68 c 0.19 
        0.09 0.38 0.14 0.59 0.19 c 2.52 0.59 5.01 -0.94 5.61 -3.42 c 0.45 -1.88 -0.33 -3.77 -1.83 -4.83 l -1.9 2.19 c 
        -1.62 1.84 -4.42 2.05 -6.27 0.45 c -1.09 -0.94 -1.52 -2.29 -1.45 -3.61 L 15.25 85.42 L 34.66 94.68 z"/>
</svg>