<?xml version="1.0" standalone="no"?>
<!--Created with Sketsa SVG Editor (http://www.kiyut.com)-->
<?xml-stylesheet type="text/css" href="..\sports.css" ?>
<svg contentScriptType="text/ecmascript" width="100.0px" xmlns:xlink="http://www.w3.org/1999/xlink" baseProfile="full"
    zoomAndPan="magnify" contentStyleType="text/css" height="100.0px" preserveAspectRatio="xMidYMid meet" xmlns="http://www.w3.org/2000/svg"
    version="1.0">
    <path d="M 17.4 71.67 c 28.1 11.71 49.44 18.55 79.5 27.94 c 0.61 0.09 1.18 -0.33 1.28 -0.96 c 0.09 -0.61 -0.33 -1.2 
        -0.95 -1.32 c -47.35 -14.77 -84.52 -31.13 -93.0 -34.94 c -0.88 -0.35 -1.9 0.05 -2.23 0.89 c -0.36 0.87 0.02 1.81 
        0.88 2.14 c 2.11 0.94 4.19 1.86 6.21 2.72 l -6.68 5.05 c -0.76 1.1 -0.43 2.51 0.69 3.26 c 0.83 0.56 2.01 0.49 
        2.82 -0.02 L 17.4 71.67 z M 94.96 42.1 L 73.11 22.22 c 0.15 0.01 0.3 0.02 0.46 0.02 c 4.43 0.0 8.01 -3.57 8.01 
        -7.96 c 0.0 -4.39 -3.58 -7.96 -8.01 -7.96 c -4.45 0.0 -8.03 3.57 -8.03 7.96 c 0.0 1.68 0.52 3.23 1.42 4.51 l 
        -14.82 -5.24 L 44.13 2.07 c -0.62 -0.85 -1.56 -1.41 -2.68 -1.55 c -2.08 -0.23 -4.0 1.27 -4.24 3.36 c -0.1 0.87 
        0.12 1.71 0.54 2.42 l 8.17 11.74 c 0.38 0.47 0.85 0.87 1.42 1.13 l 9.47 3.69 l -15.56 7.89 c -2.18 1.22 -3.72 
        3.38 -4.15 5.89 l 0.07 14.11 l -14.39 6.43 c -1.61 0.77 -2.77 2.37 -2.84 4.27 c -0.12 2.72 2.01 5.0 4.76 5.12 c 
        0.85 0.05 1.68 -0.14 2.39 -0.49 l 17.61 -7.89 c 1.26 -0.66 2.2 -1.85 2.51 -3.31 l -0.02 -8.78 l 12.22 10.85 l 
        -2.25 18.48 c 0.0 0.12 -0.02 0.23 -0.02 0.35 c -0.12 2.72 2.01 5.02 4.76 5.14 c 2.58 0.09 4.78 -1.76 5.14 -4.27 
        l 2.63 -21.08 c 0.0 -0.09 0.02 -0.19 0.02 -0.28 c 0.05 -1.48 -0.54 -2.82 -1.54 -3.76 L 56.85 41.54 l 17.05 -8.31 
        L 89.73 47.67 c 0.71 0.68 1.68 1.1 2.72 1.1 c 2.13 -0.02 3.84 -1.74 3.81 -3.83 C 96.26 43.82 95.74 42.81 94.96 
        42.1 z"/>
</svg>