<?xml version="1.0" standalone="no"?>
<!--Created with Sketsa SVG Editor (http://www.kiyut.com)-->
<?xml-stylesheet type="text/css" href="..\sports.css" ?>
<svg contentScriptType="text/ecmascript" width="100.0px" xmlns:xlink="http://www.w3.org/1999/xlink" baseProfile="full"
    zoomAndPan="magnify" contentStyleType="text/css" height="100.0px" preserveAspectRatio="xMidYMid meet" xmlns="http://www.w3.org/2000/svg"
    version="1.0">
    <path d="M 67.68 65.34 c -1.71 2.45 -4.44 4.05 -7.51 4.05 c -3.35 0.0 -6.29 -1.88 -7.95 -4.72 l 0.09 -0.03 c -1.67 
        2.8 -4.59 4.66 -7.91 4.66 c -3.36 0.0 -6.31 -1.9 -7.97 -4.77 l 0.03 -0.02 c -1.66 2.88 -4.62 4.79 -8.0 4.79 c 
        -3.19 0.0 -6.01 -1.7 -7.71 -4.34 l 0.02 -0.12 c -1.67 2.79 -4.59 4.65 -7.91 4.65 c -4.25 0.0 -7.85 -3.03 -9.0 
        -7.21 l 33.87 -14.32 l -6.0 -7.85 L 0.5 47.43 l 1.55 -5.86 L 35.02 27.75 L 67.68 65.34 z M 70.79 36.3 c -5.93 
        0.0 -10.75 4.86 -10.75 10.84 c 0.0 6.01 4.81 10.88 10.75 10.88 c 5.95 0.0 10.76 -4.87 10.76 -10.88 C 81.55 41.16 
        76.74 36.3 70.79 36.3 z M 99.5 64.22 c 0.0 0.0 -6.0 3.3 -14.22 -4.03 c 0.0 0.0 -2.64 8.42 -14.08 4.95 c 0.0 0.0 
        5.75 7.7 14.08 1.52 C 85.28 66.67 95.62 70.96 99.5 64.22 z"/>
</svg>