<?xml version="1.0" standalone="no"?>
<!--Created with Sketsa SVG Editor (http://www.kiyut.com)-->
<?xml-stylesheet type="text/css" href="..\sports.css" ?>
<svg contentScriptType="text/ecmascript" width="100.0px" xmlns:xlink="http://www.w3.org/1999/xlink" baseProfile="full"
    zoomAndPan="magnify" contentStyleType="text/css" height="100.0px" preserveAspectRatio="xMidYMid meet" xmlns="http://www.w3.org/2000/svg"
    version="1.0">
    <path d="M 99.38 85.55 c -2.16 0.0 -4.23 -0.5 -6.08 -1.36 c -1.89 -0.88 -4.03 -1.41 -6.27 -1.41 c -2.25 0.0 -4.39 
        0.53 -6.28 1.41 c -1.85 0.86 -3.92 1.36 -6.08 1.36 c -2.16 0.0 -4.24 -0.5 -6.08 -1.36 c -1.92 -0.88 -4.06 -1.41 
        -6.28 -1.41 c -2.24 0.0 -4.38 0.53 -6.28 1.41 c -1.84 0.86 -3.94 1.36 -6.08 1.36 c -2.17 0.0 -4.23 -0.5 -6.1 
        -1.36 c -1.9 -0.88 -4.03 -1.41 -6.25 -1.41 c -2.24 0.0 -4.38 0.53 -6.28 1.41 c -1.84 0.86 -3.94 1.36 -6.11 1.36 
        c -2.13 0.0 -4.23 -0.5 -6.07 -1.36 c -1.9 -0.88 -4.04 -1.41 -6.28 -1.41 c -2.22 0.0 -4.36 0.53 -6.25 1.41 c 
        -1.87 0.86 -3.94 1.36 -6.1 1.36 v -9.33 c 2.17 0.0 4.23 -0.51 6.1 -1.34 c 1.9 -0.9 4.03 -1.43 6.25 -1.43 c 2.24 
        0.0 4.38 0.53 6.28 1.43 c 1.84 0.83 3.94 1.34 6.07 1.34 c 2.17 0.0 4.26 -0.51 6.11 -1.34 c 1.9 -0.9 4.04 -1.43 
        6.28 -1.43 c 2.22 0.0 4.35 0.53 6.25 1.43 c 1.87 0.83 3.93 1.34 6.1 1.34 c 2.14 0.0 4.24 -0.51 6.08 -1.34 c 1.9 
        -0.9 4.04 -1.43 6.28 -1.43 c 2.21 0.0 4.35 0.53 6.28 1.43 c 1.84 0.83 3.92 1.34 6.08 1.34 c 2.17 0.0 4.23 -0.51 
        6.08 -1.34 c 1.89 -0.9 4.03 -1.43 6.28 -1.43 c 2.24 0.0 4.38 0.53 6.27 1.43 c 1.85 0.83 3.92 1.34 6.08 1.34 V 
        85.55 z M 85.05 59.15 c 6.49 0.0 11.76 -5.41 11.76 -12.05 c 0.0 -6.65 -5.27 -12.03 -11.76 -12.03 c -6.51 0.0 
        -11.77 5.39 -11.77 12.03 C 73.29 53.74 78.08 59.15 85.05 59.15 z M 16.55 65.93 c 0.91 0.22 1.77 0.55 2.59 0.93 c 
        1.84 0.85 3.94 1.36 6.07 1.36 c 2.16 0.0 4.26 -0.51 6.1 -1.36 c 1.9 -0.88 4.04 -1.44 6.28 -1.44 c 2.22 0.0 4.36 
        0.56 6.25 1.44 c 1.87 0.85 3.93 1.36 6.1 1.36 c 2.14 0.0 4.24 -0.51 6.08 -1.36 c 1.9 -0.88 4.04 -1.44 6.28 -1.44 
        c 2.21 0.0 4.36 0.56 6.28 1.44 c 1.84 0.85 3.92 1.36 6.08 1.36 c 1.57 0.0 3.1 -0.27 4.53 -0.73 l -19.62 -36.21 l 
        22.82 -4.26 c 3.35 -0.65 5.78 -3.35 5.78 -6.79 c 0.0 -3.8 -3.02 -6.85 -6.72 -6.85 c -0.27 1.19E-7 -0.51 1.19E-7 
        -0.77 0.02 L 45.44 19.96 c -2.47 0.58 -5.75 4.28 -3.88 8.83 c 0.1 0.25 0.2 0.48 0.3 0.73 l 9.2 16.99 L 16.55 
        65.93 z"/>
</svg>