<?xml version="1.0" standalone="no"?>
<!--Created with Sketsa SVG Editor (http://www.kiyut.com)-->
<?xml-stylesheet type="text/css" href="..\sports.css" ?>
<svg contentScriptType="text/ecmascript" width="100.0px" xmlns:xlink="http://www.w3.org/1999/xlink" baseProfile="full"
    zoomAndPan="magnify" contentStyleType="text/css" height="100.0px" preserveAspectRatio="xMidYMid meet" xmlns="http://www.w3.org/2000/svg"
    version="1.0">
    <path id="path5020" d="M 11.5 63.11 c 6.18 0.0 11.19 -5.08 11.19 -11.35 c 0.0 -6.25 -5.01 -11.32 -11.19 -11.32 C 
        5.33 40.45 0.33 45.51 0.33 51.77 C 0.33 58.03 5.33 63.11 11.5 63.11 M 74.19 82.59 c 0.52 -0.36 1.21 -0.26 1.59 
        0.26 l 2.07 2.9 c 0.35 0.5 0.24 1.23 -0.25 1.61 L 62.42 98.53 c -0.49 0.37 -1.21 0.26 -1.59 -0.24 l -2.07 -2.91 
        c -0.35 -0.5 -0.24 -1.21 0.25 -1.61 L 74.19 82.59 z M 57.02 68.18 l -6.03 -10.7 l -3.15 2.34 l 6.01 10.76 L 
        57.02 68.18 z M 42.97 43.17 L 19.55 1.5 l -4.48 0.03 l 24.7 44.01 L 42.97 43.17 z M 65.02 65.22 c 1.33 -0.97 
        2.85 -1.73 4.58 -1.73 l 21.76 0.03 c 4.22 0.0 7.64 3.48 7.64 7.75 c 0.0 4.29 -3.42 7.75 -7.64 7.75 l -18.15 
        -0.03 L 50.01 95.58 c -8.17 5.96 -13.12 -0.59 -13.12 -0.59 L 18.69 76.54 c -3.04 -3.71 -2.39 -10.76 1.27 -13.87 
        l 25.18 -18.18 c 2.51 -2.11 6.22 -1.78 8.34 0.73 c 2.1 2.54 1.76 6.32 -0.74 8.45 l -16.11 11.96 L 48.2 77.21 L 
        65.02 65.22 z"/>
</svg>