<?xml version="1.0" standalone="no"?>
<!--Created with Sketsa SVG Editor (http://www.kiyut.com)-->
<?xml-stylesheet type="text/css" href="..\sports.css" ?>
<svg contentScriptType="text/ecmascript" width="100.0px" xmlns:xlink="http://www.w3.org/1999/xlink" baseProfile="full"
    zoomAndPan="magnify" contentStyleType="text/css" height="100.0px" preserveAspectRatio="xMidYMid meet" xmlns="http://www.w3.org/2000/svg"
    version="1.0">
    <path d="M 10.33 48.37 c -2.09 0.0 -3.8 1.71 -3.8 3.79 c 0.0 2.08 1.71 3.77 3.8 3.77 c 2.09 0.0 3.78 -1.68 3.78 
        -3.77 C 14.11 50.08 12.42 48.37 10.33 48.37 z M 63.06 16.82 c 4.53 0.0 8.24 -3.66 8.24 -8.21 S 67.6 0.37 63.06 
        0.37 c -4.56 0.0 -8.26 3.69 -8.26 8.23 S 58.5 16.82 63.06 16.82 z M 98.51 90.04 L 85.11 74.27 c 0.0 0.0 -4.18 
        -24.35 -4.18 -24.4 c 0.0 -0.02 -0.63 -2.76 -0.63 -2.76 c 0.02 0.02 -1.69 -7.68 -3.0 -13.71 c 2.09 1.2 3.98 2.28 
        4.08 2.33 c 0.1 0.23 7.11 13.5 7.11 13.5 c 0.53 0.98 1.41 1.71 2.47 2.03 c 1.08 0.33 2.22 0.23 3.2 -0.3 c 0.98 
        -0.5 1.71 -1.38 2.04 -2.46 c 0.35 -1.05 0.25 -2.18 -0.28 -3.16 L 88.23 30.77 c 0.0 0.0 -0.3 -0.53 -0.71 -0.93 c 
        -0.55 -0.55 -1.76 -1.23 -1.76 -1.23 l -14.92 -8.46 c -1.89 -0.95 -3.98 -1.28 -6.07 -0.83 c -0.86 0.18 -1.66 0.5 
        -2.57 1.0 c -0.1 0.02 -3.4 1.48 -5.32 5.95 L 49.23 41.64 c 0.0 0.0 -11.67 2.26 -12.07 2.33 c -0.1 0.02 -0.2 0.05 
        -0.28 0.1 l -10.88 -7.68 c -2.44 -1.71 -2.75 -6.83 -2.77 -7.03 c -0.3 -3.51 -2.32 -6.83 -5.54 -9.11 c -2.92 
        -2.06 -6.45 -2.94 -9.67 -2.41 c -2.52 0.43 -4.66 1.73 -6.02 3.64 C 0.93 22.97 0.38 24.75 0.38 26.66 c 0.0 0.02 
        0.15 1.66 0.15 1.66 c 0.55 3.24 2.55 6.25 5.47 8.33 c 2.95 2.08 6.45 2.96 9.67 2.41 l 0.76 -0.15 c 0.08 -0.05 
        4.91 -1.53 7.28 0.08 c 0.0 0.02 8.14 5.75 10.31 7.28 c -0.23 0.35 -0.63 1.13 -0.6 1.93 c 0.0 0.25 0.02 0.5 0.08 
        0.75 c 0.43 2.26 2.65 3.76 4.91 3.31 l 14.46 -2.81 c 0.0 0.0 1.24 -0.38 1.76 -0.75 c 0.68 -0.48 1.18 -1.48 1.18 
        -1.48 l 3.8 -7.63 c 0.0 0.0 2.62 12.32 2.67 12.55 c -0.3 0.3 -11.87 12.53 -11.87 12.53 l -0.2 0.25 c -1.13 1.03 
        -1.76 2.38 -1.76 3.82 v 25.91 c 0.0 2.76 2.27 4.99 5.04 4.99 c 2.75 0.0 5.01 -2.23 5.01 -4.99 c 0.0 0.0 0.0 
        -21.29 0.0 -21.64 c 1.06 -1.1 9.93 -10.42 12.3 -12.88 c 0.25 1.46 2.55 14.58 2.55 14.58 c 0.2 1.16 0.76 2.21 
        1.59 3.06 c 0.0 0.02 15.92 18.75 15.92 18.75 c 0.88 1.0 2.09 1.63 3.43 1.76 c 1.34 0.1 2.62 -0.33 3.65 -1.18 c 
        1.16 -0.98 1.76 -2.41 1.76 -3.82 C 99.7 92.12 99.32 90.99 98.51 90.04 z M 19.05 33.56 c -0.88 1.23 -2.24 2.03 
        -3.93 2.33 c -2.37 0.4 -5.01 -0.28 -7.23 -1.88 c -2.24 -1.58 -3.75 -3.84 -4.16 -6.2 l -0.1 -1.18 c 0.0 -1.23 
        0.33 -2.33 1.01 -3.29 c 2.19 -3.06 7.21 -3.26 11.19 -0.45 C 19.78 25.7 21.24 30.5 19.05 33.56 z"/>
</svg>