<?xml version="1.0" standalone="no"?>
<!--Created with Sketsa SVG Editor (http://www.kiyut.com)-->
<?xml-stylesheet type="text/css" href="..\sports.css" ?>
<svg contentScriptType="text/ecmascript" width="100.0px" xmlns:xlink="http://www.w3.org/1999/xlink" baseProfile="full"
    zoomAndPan="magnify" contentStyleType="text/css" height="100.0px" preserveAspectRatio="xMidYMid meet" xmlns="http://www.w3.org/2000/svg"
    version="1.0">
    <path d="M 53.92 14.82 c 4.06 0.31 7.61 -2.65 7.93 -6.57 c 0.32 -3.97 -2.73 -7.4 -6.79 -7.73 c -4.04 -0.31 -7.59 
        2.65 -7.93 6.59 C 46.81 11.06 49.85 14.51 53.92 14.82 z M 47.66 17.77 c 1.46 -0.99 3.24 -1.65 5.16 -1.51 c 2.55 
        0.21 4.65 1.73 5.89 3.59 l 7.44 14.34 l 10.14 6.78 c 0.88 0.64 1.39 1.7 1.31 2.81 c -0.15 1.8 -1.75 3.12 -3.6 
        2.98 c -0.54 -0.05 -0.97 -0.24 -1.51 -0.47 l -11.07 -7.42 c -0.34 -0.26 -0.63 -0.59 -0.83 -0.95 l -2.8 -5.36 l 
        -3.33 14.3 l 13.09 15.01 c 0.27 0.47 0.49 0.99 0.58 1.54 l 3.55 18.15 c -0.02 0.4 0.05 0.64 0.02 0.99 c -0.22 
        2.67 -2.63 4.66 -5.38 4.44 c -2.26 -0.16 -3.96 -1.82 -4.5 -3.83 l -3.36 -16.99 L 47.88 54.85 l -2.48 11.01 c 
        -0.07 0.52 -0.78 1.61 -1.0 2.06 L 34.21 84.62 c -1.02 1.54 -2.72 2.51 -4.67 2.36 c -2.75 -0.21 -4.82 -2.55 -4.6 
        -5.22 c 0.05 -0.76 0.39 -1.54 0.68 -2.08 l 9.49 -15.48 l 7.88 -34.03 l -5.16 4.04 l -2.72 12.15 c -0.36 1.54 
        -1.82 2.81 -3.55 2.67 c -1.85 -0.14 -3.21 -1.68 -3.06 -3.47 c 0.02 -0.14 0.02 -0.28 0.07 -0.43 l 3.26 -14.15 c 
        0.17 -0.61 0.53 -1.16 1.02 -1.56 L 47.66 17.77 z M 99.67 89.49 c -0.56 0.16 0.46 0.16 0.0 0.16 c -0.46 -0.28 
        0.46 -0.57 0.0 -0.57 c -6.03 -0.59 -13.65 -0.9 -19.68 -0.31 c -0.46 0.0 -2.31 0.95 -2.77 0.95 c -5.57 0.28 -8.83 
        -0.35 -13.94 0.52 c -7.9 1.16 -15.79 -0.59 -24.16 0.28 c -7.42 0.59 -15.32 0.0 -23.21 0.31 C 12.2 88.19 5.61 
        89.37 0.37 89.49 V 99.25 h 99.3 V 89.49 z"/>
</svg>