<?xml version="1.0" standalone="no"?>
<!--Created with Sketsa SVG Editor (http://www.kiyut.com)-->
<?xml-stylesheet type="text/css" href="..\sports.css" ?>
<svg contentScriptType="text/ecmascript" width="100.0px" xmlns:xlink="http://www.w3.org/1999/xlink" baseProfile="full"
    zoomAndPan="magnify" contentStyleType="text/css" height="100.0px" preserveAspectRatio="xMidYMid meet" xmlns="http://www.w3.org/2000/svg"
    version="1.0">
    <path id="path4876" d="M 6.13 6.93 h 37.01 v 3.55 h -3.59 v 3.91 L 6.13 17.26 V 6.93 z M 58.67 17.5 c 4.71 0.0 8.52 
        -3.76 8.52 -8.43 c 0.0 -4.66 -3.81 -8.45 -8.52 -8.45 c -4.73 1.19E-7 -8.55 3.79 -8.55 8.45 C 50.12 13.75 53.94 
        17.5 58.67 17.5 M 65.12 17.03 c 2.44 -2.39 6.38 -2.39 8.82 0.0 l 18.47 18.23 c 0.71 0.7 1.14 1.67 1.14 2.72 v 
        54.71 c 0.0 3.77 -3.07 6.81 -6.88 6.81 s -6.94 -3.04 -6.94 -6.81 V 47.56 L 62.52 30.53 l -6.88 6.81 c -0.78 0.92 
        -1.94 1.52 -3.28 1.52 c -1.23 0.0 -2.34 -0.52 -3.13 -1.37 L 37.37 25.74 c -1.51 -1.77 -1.38 -4.47 0.4 -5.96 c 
        1.79 -1.49 4.47 -1.24 5.98 0.52 l 9.01 8.95 L 65.12 17.03 z M 29.23 19.62 c -0.17 -0.82 -0.9 -1.42 -1.76 -1.42 c 
        -0.89 0.0 -1.61 0.62 -1.77 1.47 l -2.88 16.29 v 63.11 h 24.37 v -8.95 H 32.23 l -0.1 -54.16 L 29.23 19.62 z"/>
</svg>