<?xml version="1.0" standalone="no"?>
<!--Created with Sketsa SVG Editor (http://www.kiyut.com)-->
<?xml-stylesheet type="text/css" href="..\sports.css" ?>
<svg contentScriptType="text/ecmascript" width="100.0px" xmlns:xlink="http://www.w3.org/1999/xlink" baseProfile="full"
    zoomAndPan="magnify" contentStyleType="text/css" height="100.0px" preserveAspectRatio="xMidYMid meet" xmlns="http://www.w3.org/2000/svg"
    version="1.0">
    <path d="M 49.9 19.61 c 5.26 0.0 9.55 -4.23 9.55 -9.43 c 0.0 -5.2 -4.29 -9.43 -9.55 -9.43 c -5.26 1.19E-7 -9.55 4.23 
        -9.55 9.43 C 40.35 15.38 44.63 19.61 49.9 19.61 z M 99.53 99.5 c -2.15 0.0 -4.22 -0.44 -6.1 -1.22 c -1.9 -0.83 
        -4.05 -1.31 -6.3 -1.31 c -2.22 0.0 -4.37 0.48 -6.27 1.31 C 79.01 99.06 76.91 99.5 74.74 99.5 c -2.15 0.0 -4.25 
        -0.44 -6.1 -1.22 c -1.9 -0.83 -4.04 -1.31 -6.29 -1.31 c -2.22 0.0 -4.37 0.48 -6.27 1.31 c -1.88 0.78 -3.95 1.22 
        -6.12 1.22 c -2.15 0.0 -4.25 -0.44 -6.1 -1.22 c -1.9 -0.83 -4.05 -1.31 -6.3 -1.31 c -2.22 0.0 -4.37 0.48 -6.3 
        1.31 C 29.4 99.06 27.33 99.5 25.17 99.5 c -2.17 0.0 -4.25 -0.44 -6.1 -1.22 c -1.9 -0.83 -4.05 -1.31 -6.3 -1.31 c 
        -2.25 0.0 -4.4 0.48 -6.3 1.31 C 4.62 99.06 2.55 99.5 0.37 99.5 v -8.51 c 2.17 0.0 4.25 -0.46 6.1 -1.24 c 1.9 
        -0.83 4.05 -1.31 6.3 -1.31 c 2.25 0.0 4.4 0.48 6.3 1.31 c 1.85 0.78 3.93 1.24 6.1 1.24 c 2.16 0.0 4.24 -0.46 
        6.09 -1.24 c 1.93 -0.83 4.07 -1.31 6.3 -1.31 c 2.25 0.0 4.4 0.48 6.3 1.31 c 1.85 0.78 3.95 1.24 6.1 1.24 c 2.17 
        0.0 4.25 -0.46 6.12 -1.24 c 1.9 -0.83 4.05 -1.31 6.27 -1.31 c 2.25 0.0 4.4 0.48 6.29 1.31 c 1.85 0.78 3.95 1.24 
        6.1 1.24 c 2.17 0.0 4.27 -0.46 6.12 -1.24 c 1.9 -0.83 4.05 -1.31 6.27 -1.31 c 2.25 0.0 4.4 0.48 6.3 1.31 c 1.88 
        0.78 3.95 1.24 6.1 1.24 V 99.5 z M 60.21 82.89 c -1.56 0.16 -3.05 0.62 -4.43 1.24 c -1.33 0.57 -2.77 0.97 -4.26 
        1.13 l 0.0 0.0 V 61.98 l 8.69 -5.66 V 82.89 z M 48.29 85.31 c -1.42 -0.18 -2.77 -0.62 -4.03 -1.17 c -1.49 -0.69 
        -3.1 -1.13 -4.82 -1.26 l 0.02 -7.38 H 27.35 L 24.75 63.96 c -0.05 -0.39 -0.09 -0.71 -0.09 -1.11 c 0.0 -3.73 2.4 
        -6.92 5.72 -8.17 l 0.02 -23.39 c 0.0 -5.61 4.5 -10.12 10.06 -10.12 l 18.68 0.02 c 6.13 0.0 10.2 5.06 10.2 10.24 
        V 56.69 c 0.02 4.69 -6.17 4.69 -6.17 0.0 V 33.25 h -2.94 l -0.02 16.31 H 39.58 V 33.25 h -2.96 V 54.74 c 0.65 
        0.23 1.26 0.53 1.82 0.9 l 9.88 6.35 L 48.29 85.31 z M 27.98 62.86 h 11.02 c 0.0 -1.98 -1.05 -3.68 -2.66 -4.65 c 
        -1.03 2.65 -4.71 2.65 -5.71 -0.02 C 29.05 59.13 27.98 60.88 27.98 62.86 z"/>
</svg>