<?xml version="1.0" standalone="no"?>
<!--Created with Sketsa SVG Editor (http://www.kiyut.com)-->
<?xml-stylesheet type="text/css" href="..\sports.css" ?>
<svg contentScriptType="text/ecmascript" width="100.0px" xmlns:xlink="http://www.w3.org/1999/xlink" baseProfile="full"
    zoomAndPan="magnify" contentStyleType="text/css" height="100.0px" preserveAspectRatio="xMidYMid meet" xmlns="http://www.w3.org/2000/svg"
    version="1.0">
    <path d="M 59.54 88.06 c 0.71 -0.12 1.42 -0.17 2.15 -0.17 c 2.22 0.0 4.35 0.51 6.23 1.38 c 1.83 0.8 3.89 1.28 6.04 
        1.28 s 4.23 -0.48 6.06 -1.28 c 1.88 -0.87 4.01 -1.38 6.21 -1.38 c 2.22 0.0 4.35 0.51 6.23 1.38 c 1.83 0.8 3.91 
        1.28 6.03 1.28 V 99.5 c -2.13 0.0 -4.2 -0.48 -6.03 -1.3 c -1.88 -0.84 -4.01 -1.35 -6.23 -1.35 c -2.2 0.0 -4.32 
        0.51 -6.21 1.35 c -1.83 0.82 -3.91 1.3 -6.06 1.3 s -4.2 -0.48 -6.04 -1.3 c -1.88 -0.84 -4.01 -1.35 -6.23 -1.35 c 
        -2.2 0.0 -4.33 0.51 -6.23 1.35 C 53.63 99.02 51.57 99.5 49.42 99.5 s -4.2 -0.48 -6.04 -1.3 c -1.88 -0.84 -4.01 
        -1.35 -6.23 -1.35 s -4.35 0.51 -6.23 1.35 c -1.83 0.82 -3.89 1.3 -6.01 1.3 c -2.15 0.0 -4.2 -0.48 -6.04 -1.3 c 
        -1.91 -0.84 -4.03 -1.35 -6.23 -1.35 c -2.23 0.0 -4.35 0.51 -6.23 1.35 C 4.58 99.02 2.53 99.5 0.38 99.5 v -8.95 c 
        2.15 0.0 4.2 -0.48 6.04 -1.28 c 1.88 -0.87 4.01 -1.38 6.23 -1.38 c 2.2 0.0 4.32 0.51 6.23 1.38 c 1.83 0.8 3.89 
        1.28 6.04 1.28 c 2.13 0.0 4.18 -0.48 6.01 -1.28 c 1.08 -0.48 2.2 -0.87 3.37 -1.09 l 57.18 -10.06 c 1.86 -0.43 
        4.38 -1.71 5.25 -3.91 c 0.17 -0.41 0.78 -0.53 1.3 -0.51 c 0.93 0.05 1.61 0.84 1.61 1.76 c 0.0 1.45 -1.12 5.5 
        -7.38 6.76 L 59.54 88.06 z M 9.93 17.09 c 4.57 0.0 8.28 -3.67 8.28 -8.18 S 14.5 0.75 9.93 0.75 s -8.26 3.64 
        -8.26 8.16 S 5.36 17.09 9.93 17.09 z M 33.98 83.11 c 0.42 1.81 2.64 3.55 4.96 3.55 l -0.02 0.02 c 2.91 0.0 5.28 
        -2.32 5.28 -5.21 l -0.1 -0.84 l -6.31 -26.71 c -0.54 -1.71 -2.18 -3.33 -3.86 -4.01 l 0.0 0.0 l -9.26 -5.5 l 
        -4.23 -18.0 l 26.05 -0.05 c 2.13 0.0 3.84 -1.69 3.84 -3.79 c 0.0 -2.1 -1.71 -3.81 -3.84 -3.81 H 8.88 c -3.76 0.0 
        -5.5 2.65 -5.06 4.97 l 5.33 23.87 c 0.42 2.24 1.91 4.13 3.91 5.12 l 0.12 0.05 l 15.49 9.0 L 33.98 83.11 z"/>
    <rect x="52.58" width="46.04" y="23.56" height="2.85"/>
</svg>