<?xml version="1.0" standalone="no"?>
<!--Created with Sketsa SVG Editor (http://www.kiyut.com)-->
<?xml-stylesheet type="text/css" href="..\sports.css" ?>
<svg contentScriptType="text/ecmascript" width="100.0px" xmlns:xlink="http://www.w3.org/1999/xlink" baseProfile="full"
    zoomAndPan="magnify" contentStyleType="text/css" height="100.0px" preserveAspectRatio="xMidYMid meet" xmlns="http://www.w3.org/2000/svg"
    version="1.0">
    <path d="M 99.47 99.25 c -2.17 0.0 -4.24 -0.48 -6.09 -1.28 c -1.92 -0.86 -4.07 -1.36 -6.28 -1.36 c -2.24 0.0 -4.39 
        0.5 -6.28 1.36 c -1.85 0.81 -3.94 1.28 -6.09 1.28 c -2.17 0.0 -4.26 -0.48 -6.11 -1.28 c -1.9 -0.86 -4.04 -1.36 
        -6.28 -1.36 c -2.22 0.0 -4.36 0.5 -6.26 1.36 c -1.85 0.81 -3.94 1.28 -6.1 1.28 c -2.17 0.0 -4.24 -0.48 -6.09 
        -1.28 c -1.9 -0.86 -4.04 -1.36 -6.28 -1.36 c -2.22 0.0 -4.36 0.5 -6.28 1.36 c -1.85 0.81 -3.92 1.28 -6.07 1.28 c 
        -2.17 0.0 -4.24 -0.48 -6.09 -1.28 c -1.9 -0.86 -4.04 -1.36 -6.28 -1.36 c -2.22 0.0 -4.36 0.5 -6.28 1.36 c -1.85 
        0.81 -3.92 1.28 -6.09 1.28 v -8.82 c 2.17 0.0 4.24 -0.48 6.09 -1.28 c 1.92 -0.83 4.07 -1.33 6.28 -1.33 c 2.24 
        0.0 4.39 0.5 6.28 1.33 c 1.85 0.81 3.92 1.28 6.09 1.28 c 2.16 0.0 4.23 -0.48 6.07 -1.28 c 1.92 -0.83 4.07 -1.33 
        6.28 -1.33 c 2.24 0.0 4.39 0.5 6.28 1.33 c 1.85 0.81 3.92 1.28 6.09 1.28 c 2.17 0.0 4.26 -0.48 6.1 -1.28 c 1.9 
        -0.83 4.04 -1.33 6.26 -1.33 c 2.24 0.0 4.39 0.5 6.28 1.33 c 1.85 0.81 3.94 1.28 6.11 1.28 c 2.14 0.0 4.24 -0.48 
        6.09 -1.28 c 1.9 -0.83 4.04 -1.33 6.28 -1.33 c 2.22 0.0 4.36 0.5 6.28 1.33 c 1.85 0.81 3.92 1.28 6.09 1.28 V 
        99.25 z M 59.5 81.04 c 0.94 -0.19 1.87 -0.29 2.83 -0.29 c 2.24 0.0 4.39 0.5 6.28 1.33 c 1.85 0.81 3.94 1.28 6.11 
        1.28 c 2.14 0.0 4.24 -0.48 6.09 -1.28 c 1.3 -0.57 2.71 -1.02 4.21 -1.21 C 84.21 57.21 58.64 36.09 57.43 35.0 c 
        -1.26 -1.09 -2.42 -3.5 -1.6 -6.33 l 6.11 -19.5 c 1.08 -3.02 0.54 -7.06 -0.96 -8.27 c -0.86 -0.67 -2.69 -1.14 
        -3.92 0.21 L 40.53 19.21 c -3.62 3.71 -0.59 7.68 -0.66 7.66 c -5.62 -1.95 -12.22 -0.64 -16.23 0.95 L 9.99 34.5 c 
        -1.36 0.55 -1.95 2.21 -1.23 3.33 c 2.27 3.49 9.78 3.52 25.44 1.88 C 59.5 37.09 59.52 76.21 59.5 81.04 z"/>
</svg>