<?xml version="1.0" standalone="no"?>
<!--Created with Sketsa SVG Editor (http://www.kiyut.com)-->
<?xml-stylesheet type="text/css" href="..\sports.css" ?>
<svg contentScriptType="text/ecmascript" width="100.0px" xmlns:xlink="http://www.w3.org/1999/xlink" baseProfile="full"
    zoomAndPan="magnify" contentStyleType="text/css" height="100.0px" preserveAspectRatio="xMidYMid meet" xmlns="http://www.w3.org/2000/svg"
    version="1.0">
    <path d="M 99.53 99.25 c -2.15 0.0 -4.25 -0.47 -6.1 -1.25 c -1.9 -0.84 -4.05 -1.32 -6.29 -1.32 c -2.22 0.0 -4.37 
        0.48 -6.27 1.32 C 78.99 98.78 76.91 99.25 74.74 99.25 s -4.24 -0.47 -6.1 -1.25 c -1.9 -0.84 -4.05 -1.32 -6.3 
        -1.32 c -2.22 0.0 -4.37 0.48 -6.29 1.32 C 54.2 98.78 52.13 99.25 49.96 99.25 c -2.17 0.0 -4.25 -0.47 -6.11 -1.25 
        c -1.91 -0.84 -4.05 -1.32 -6.3 -1.32 c -2.24 0.0 -4.37 0.48 -6.28 1.32 C 29.41 98.78 27.33 99.25 25.16 99.25 c 
        -2.17 0.0 -4.24 -0.47 -6.11 -1.25 c -1.9 -0.84 -4.05 -1.32 -6.28 -1.32 c -2.25 0.0 -4.38 0.48 -6.29 1.32 C 4.62 
        98.78 2.55 99.25 0.37 99.25 v -8.62 c 2.17 0.0 4.24 -0.46 6.11 -1.25 c 1.9 -0.82 4.04 -1.3 6.29 -1.3 c 2.23 0.0 
        4.38 0.48 6.28 1.3 c 1.87 0.79 3.94 1.25 6.11 1.25 c 2.17 0.0 4.25 -0.46 6.11 -1.25 c 1.91 -0.82 4.05 -1.3 6.28 
        -1.3 c 2.25 0.0 4.38 0.48 6.3 1.3 c 1.86 0.79 3.93 1.25 6.11 1.25 c 2.17 0.0 4.24 -0.46 6.1 -1.25 c 1.92 -0.82 
        4.07 -1.3 6.29 -1.3 c 2.25 0.0 4.4 0.48 6.3 1.3 c 1.85 0.79 3.92 1.25 6.1 1.25 s 4.25 -0.46 6.12 -1.25 c 1.9 
        -0.82 4.05 -1.3 6.27 -1.3 c 2.24 0.0 4.39 0.48 6.29 1.3 c 1.85 0.79 3.95 1.25 6.1 1.25 V 99.25 z M 13.14 49.44 c 
        3.12 0.0 5.66 -2.53 5.66 -5.65 c 0.0 -3.12 -2.53 -5.64 -5.66 -5.64 c -3.11 0.0 -5.65 2.53 -5.65 5.64 C 7.49 46.9 
        10.02 49.44 13.14 49.44 z M 37.98 75.03 H 21.81 c -2.38 0.0 -4.45 -1.41 -5.38 -3.46 L 10.46 57.95 c -0.12 -0.46 
        -0.18 -0.93 -0.18 -1.41 c 0.0 -3.28 2.65 -5.92 5.92 -5.92 l 13.13 -0.02 l 9.01 -4.09 c 0.14 -0.1 0.51 -0.18 0.91 
        -0.18 c 1.55 0.0 2.81 1.28 2.81 2.81 c 0.0 0.95 -0.48 1.81 -1.2 2.32 l -9.8 4.41 c -0.65 0.51 -1.88 0.58 -1.88 
        0.58 h -5.9 l 4.95 10.98 h 10.92 l 0.0 0.0 c 1.08 0.0 1.84 0.37 2.5 0.96 l 10.71 10.17 l 0.0 0.0 c 1.49 1.4 1.58 
        3.74 0.19 5.25 c -1.42 1.48 -3.77 1.58 -5.25 0.19 l 0.0 0.0 L 37.98 75.03 z M 88.34 56.58 c 0.21 0.35 0.72 0.49 
        1.19 0.49 c 0.91 0.0 1.65 -0.74 1.65 -1.67 c 0.0 -0.44 -0.22 -0.84 -0.42 -1.21 c -10.1 -19.27 -37.37 -13.54 
        -40.71 -12.28 c -0.56 0.21 -0.89 0.84 -0.89 1.46 c 0.0 0.91 0.74 1.65 1.65 1.65 c 0.28 0.0 0.42 -0.02 0.65 -0.1 
        C 78.22 38.92 86.93 54.14 88.34 56.58 z M 92.99 58.32 L 58.78 79.89 L 27.64 0.38 C 55.51 4.07 90.94 25.71 92.99 
        58.32 z"/>
</svg>