<?xml version="1.0" standalone="no"?>
<!--Created with Sketsa SVG Editor (http://www.kiyut.com)-->
<?xml-stylesheet type="text/css" href="..\sports.css" ?>
<svg contentScriptType="text/ecmascript" width="100.0px" xmlns:xlink="http://www.w3.org/1999/xlink" baseProfile="full"
    zoomAndPan="magnify" contentStyleType="text/css" height="100.0px" preserveAspectRatio="xMidYMid meet" xmlns="http://www.w3.org/2000/svg"
    version="1.0">
    <path d="M 35.33 16.74 c -4.5 0.0 -8.15 -3.62 -8.15 -8.07 C 27.18 4.23 30.82 0.63 35.33 0.63 s 8.17 3.6 8.17 8.05 C 
        43.5 13.12 39.83 16.74 35.33 16.74 z M 95.85 27.0 c -0.36 -0.35 -0.9 -0.35 -1.26 0.0 l -5.27 5.2 v -5.27 c 0.0 
        -0.35 -0.31 -0.66 -0.67 -0.66 c -0.38 0.0 -0.67 0.31 -0.67 0.66 v 5.34 L 75.67 44.44 H 65.23 c 0.0 0.0 2.73 
        -2.69 5.53 -5.46 h 1.62 c 1.74 0.0 3.17 -1.39 3.17 -3.08 c 0.0 -0.46 -0.31 -0.78 -0.49 -1.17 c 0.87 -0.87 1.54 
        -1.54 1.68 -1.68 c 0.67 -0.64 0.69 -1.67 0.69 -1.67 v -5.76 l 8.96 -7.01 h 6.19 c 0.36 0.0 0.64 -0.26 0.64 -0.61 
        c 0.0 -0.33 -0.29 -0.66 -0.64 -0.66 h -5.98 l 5.72 -4.64 c 0.33 -0.33 0.38 -0.82 0.05 -1.15 c -0.33 -0.33 -0.88 
        -0.33 -1.22 0.0 l -8.94 7.06 V 8.62 c 0.0 -0.45 -0.33 -0.78 -0.79 -0.78 c -0.45 0.0 -0.81 0.33 -0.81 0.78 v 
        11.15 l -4.34 3.62 v -6.45 c 0.0 -0.59 -0.48 -1.11 -1.07 -1.11 c -0.62 0.0 -1.12 0.52 -1.12 1.11 v 13.13 l -2.72 
        2.68 c -2.61 0.0 -9.96 0.0 -11.72 0.0 c -1.38 -1.36 -9.44 -9.29 -11.44 -11.27 c -0.12 -0.14 -0.79 -0.75 -0.95 
        -0.85 c -1.76 -1.39 -4.0 -2.24 -6.43 -2.24 H 25.77 c -6.34 0.0 -10.56 5.25 -10.56 10.59 v 23.41 L 4.66 62.83 c 
        -0.55 0.54 -0.55 1.41 0.0 1.95 c 0.55 0.54 1.45 0.56 2.0 0.0 l 4.55 -4.49 v 4.8 l -5.29 5.22 c -0.33 0.33 -0.33 
        0.85 0.0 1.18 c 0.33 0.33 0.88 0.33 1.21 0.0 l 4.07 -4.05 l 0.02 12.16 c 0.0 0.4 0.33 0.73 0.74 0.73 c 0.43 0.0 
        0.76 -0.33 0.76 -0.73 l -0.02 -6.16 l 3.19 3.15 c 0.21 0.21 0.57 0.21 0.79 0.0 c 0.21 -0.21 0.21 -0.56 0.0 -0.78 
        l -3.22 -3.2 V 58.08 l 2.47 -2.45 c 1.57 2.48 5.65 1.92 5.65 -2.02 v -3.56 l 3.03 -3.0 l 0.02 47.81 c 0.0 2.49 
        2.05 4.52 4.58 4.52 s 4.57 -2.02 4.57 -4.52 V 56.98 h 3.05 v 37.88 c 0.0 2.49 2.05 4.52 4.58 4.52 c 2.53 0.0 
        4.58 -2.02 4.58 -4.52 v -66.77 l 10.13 10.0 c 0.57 0.59 1.38 0.89 2.22 0.89 h 6.76 L 52.7 51.24 l 2.83 2.78 l 
        6.36 -6.28 h 26.33 c 0.72 0.0 1.29 -0.56 1.29 -1.27 s -0.57 -1.29 -1.29 -1.29 l -9.58 0.05 l 4.84 -4.78 h 8.81 c 
        0.55 0.0 1.0 -0.42 1.0 -0.96 c 0.0 -0.56 -0.43 -0.99 -1.0 -1.01 h -6.84 l 10.39 -10.21 C 96.19 27.89 96.19 27.35 
        95.85 27.0 z M 21.6 46.11 V 29.52 h 3.03 l 0.01 13.59 L 21.6 46.11 z"/>
</svg>