<?xml version="1.0" standalone="no"?>
<!--Created with Sketsa SVG Editor (http://www.kiyut.com)-->
<?xml-stylesheet type="text/css" href="..\capacitors.css" ?>
<svg contentScriptType="text/ecmascript" width="100.0px" xmlns:xlink="http://www.w3.org/1999/xlink" baseProfile="full"
    zoomAndPan="magnify" contentStyleType="text/css" height="100.0px" preserveAspectRatio="xMidYMid meet" xmlns="http://www.w3.org/2000/svg"
    version="1.0">
    <line y2="50" y1="50" x2="45"/>
    <line y2="80" x1="55" x2="55" y1="20"/>
    <line y2="80" x1="45" x2="45" y1="20"/>
    <line y2="50" x1="55" x2="100" y1="50"/>
    <line y2="35" x1="30" x2="30" y1="25"/>
    <line y2="30" x1="25" x2="35" y1="30"/>
    <line y2="20" x1="45" x2="50" y1="25"/>
    <line y2="20" x1="45" x2="55" y1="30"/>
    <line y2="25" x1="45" x2="55" y1="35"/>
    <line y2="30" x1="45" x2="55" y1="40"/>
    <line y2="35" x1="45" x2="55" y1="45"/>
    <line y2="40" x1="45" x2="55" y1="50"/>
    <line y2="45" x1="45" x2="55" y1="55"/>
    <line y2="50" x1="45" x2="55" y1="60"/>
    <line y2="55" x1="45" x2="55" y1="65"/>
    <line y2="60" x1="45" x2="55" y1="70"/>
    <line y2="65" x1="45" x2="55" y1="75"/>
    <line y2="70" x1="45" x2="55" y1="80"/>
    <line y2="75" x1="50" x2="55" y1="80"/>
</svg>