<?xml version="1.0" standalone="no"?>
<!--Created with Sketsa SVG Editor (http://www.kiyut.com)-->
<?xml-stylesheet type="text/css" href="..\transportation.css" ?>
<svg contentScriptType="text/ecmascript" width="100.0px" xmlns:xlink="http://www.w3.org/1999/xlink" baseProfile="full"
    zoomAndPan="magnify" contentStyleType="text/css" height="100.0px" preserveAspectRatio="xMidYMid meet" xmlns="http://www.w3.org/2000/svg"
    version="1.0">
    <path d="M 78.72 31.88 V 19.33 H 77.59 c -3.4 0.0 -6.14 2.81 -6.14 6.27 c 0.0 3.47 2.74 6.27 6.14 6.27 H 78.72 z M 
        69.46 29.02 L 64.1 18.06 C 62.91 15.81 60.61 14.29 57.91 14.29 H 45.46 c -1.17 0.0 -2.1 0.96 -2.1 2.16 c 0.0 
        1.18 0.93 2.14 2.1 2.14 L 57.91 18.58 c 1.01 0.0 2.13 0.7 2.57 1.68 l 3.42 6.99 L 69.46 29.02 z M 94.19 40.75 c 
        1.62 0.47 2.81 2.01 2.81 3.81 l -9.06 0.01 c -11.93 0.0 -21.62 9.92 -21.62 22.12 H 36.8 c 0.0 -9.81 -6.24 -18.11 
        -14.86 -21.02 L 5.67 40.19 l 2.7 -4.21 c 0.95 -1.47 2.6 -2.44 4.47 -2.44 c 0.42 0.0 0.81 0.04 1.16 0.11 l 36.24 
        11.49 c 0.45 0.14 0.9 0.22 1.4 0.22 c 1.64 0.0 3.06 -0.85 3.92 -2.15 l 8.23 -12.17 L 94.19 40.75 z M 84.66 76.17 
        c 3.06 0.0 5.52 -2.54 5.52 -5.63 c 0.0 -3.13 -2.46 -5.65 -5.52 -5.65 c -3.02 0.0 -5.48 2.51 -5.48 5.65 C 79.18 
        73.63 81.64 76.17 84.66 76.17 M 69.92 70.53 c 0.0 -8.34 6.6 -15.07 14.74 -15.07 C 92.79 55.46 99.39 62.19 99.39 
        70.53 c 0.0 8.32 -6.6 15.07 -14.73 15.07 C 76.53 85.6 69.92 78.85 69.92 70.53 M 16.76 75.12 c 3.33 0.0 6.05 
        -2.76 6.05 -6.18 c 0.0 -3.43 -2.72 -6.2 -6.05 -6.2 c -3.36 0.0 -6.06 2.77 -6.06 6.2 C 10.7 72.36 13.4 75.12 
        16.76 75.12 M 0.51 68.92 c 0.0 -9.13 7.25 -16.56 16.21 -16.56 c 8.97 0.0 16.2 7.43 16.2 16.56 c 0.0 9.15 -7.23 
        16.59 -16.2 16.59 C 7.77 85.51 0.51 78.08 0.51 68.92"/>
</svg>