<?xml version="1.0" standalone="no"?>
<!--Created with Sketsa SVG Editor (http://www.kiyut.com)-->
<?xml-stylesheet type="text/css" href="..\transportation.css" ?>
<svg contentScriptType="text/ecmascript" width="100.0px" xmlns:xlink="http://www.w3.org/1999/xlink" baseProfile="full"
    zoomAndPan="magnify" contentStyleType="text/css" height="100.0px" preserveAspectRatio="xMidYMid meet" xmlns="http://www.w3.org/2000/svg"
    version="1.0">
    <path d="M 45.55 56.76 C 53.67 69.17 61.78 81.58 69.9 93.98 c 2.53 3.86 8.68 0.24 6.13 -3.65 c -8.11 -12.41 -16.23 
        -24.82 -24.35 -37.23 C 49.16 49.24 43.0 52.86 45.55 56.76 L 45.55 56.76 z"/>
    <circle cx="71.26" r="9.47" cy="20.17"/>
    <circle cx="39.15" r="21.64" cy="25.69"/>
    <path d="M 94.92 20.5 c -6.39 4.16 -12.25 7.98 -18.63 12.14 c 0.71 1.52 0.92 3.85 0.75 6.67 c 7.13 -4.65 13.74 -8.95 
        20.87 -13.59 C 101.11 23.62 98.15 18.39 94.92 20.5 z"/>
    <path d="M 43.82 56.41 c -6.06 -1.51 -9.26 -2.31 -16.18 -4.03 c -2.86 -0.71 -5.82 0.44 -7.35 3.05 C 14.24 65.77 8.2 
        76.12 2.15 86.46 c -4.31 7.37 6.95 14.04 11.24 6.7 c 5.21 -8.92 10.43 -17.85 15.65 -26.77 c 7.37 1.84 18.0 7.55 
        26.59 8.02 C 51.76 68.49 47.69 62.33 43.82 56.41 z"/>
    <path d="M 64.97 70.89 c 8.34 -8.49 15.43 -38.46 7.77 -39.55 c -9.11 -1.3 -16.17 10.59 -20.67 19.9 C 56.25 57.63 
        60.79 64.5 64.97 70.89 z"/>
</svg>