<?xml version="1.0" standalone="no"?>
<!--Created with Sketsa SVG Editor (http://www.kiyut.com)-->
<?xml-stylesheet type="text/css" href="..\transportation.css" ?>
<svg contentScriptType="text/ecmascript" width="100.0px" xmlns:xlink="http://www.w3.org/1999/xlink" baseProfile="full"
    zoomAndPan="magnify" contentStyleType="text/css" height="100.0px" preserveAspectRatio="xMidYMid meet" xmlns="http://www.w3.org/2000/svg"
    version="1.0">
    <path d="M 99.54 38.44 c -0.71 -2.61 -7.31 -2.83 -9.96 -1.94 c -9.65 3.24 -19.31 6.48 -28.96 9.72 L 27.11 32.72 l 
        -3.54 3.8 l 14.34 17.38 c -9.24 3.22 -26.17 9.18 -29.25 10.21 c -2.65 0.89 17.09 3.71 21.62 2.96 c 0.0 0.0 34.77 
        -11.44 50.15 -16.6 c 3.95 -1.33 7.91 -2.65 11.86 -3.98 C 94.93 45.59 100.31 41.27 99.54 38.44 z M 3.19 51.75 L 
        0.5 54.25 L 7.62 62.64 L 17.95 58.97 z"/>
</svg>