<?xml version="1.0" standalone="no"?>
<!--Created with Sketsa SVG Editor (http://www.kiyut.com)-->
<?xml-stylesheet type="text/css" href="..\transportation.css" ?>
<svg contentScriptType="text/ecmascript" width="100.0px" xmlns:xlink="http://www.w3.org/1999/xlink" baseProfile="full"
    zoomAndPan="magnify" contentStyleType="text/css" height="100.0px" preserveAspectRatio="xMidYMid meet" xmlns="http://www.w3.org/2000/svg"
    version="1.0">
    <path d="M 52.62 23.29 V 21.26 h 2.62 V 19.97 c 0.0 -2.29 1.97 -4.14 4.41 -4.14 c 2.44 0.0 4.41 1.85 4.41 4.14 v 
        1.29 h 2.57 V 23.29 H 52.62 z M 75.75 65.23 c -5.17 0.0 -9.37 4.25 -9.37 9.49 c 0.0 5.24 4.19 9.5 9.37 9.5 c 
        5.17 0.0 9.36 -4.25 9.36 -9.5 C 85.11 69.48 80.92 65.23 75.75 65.23 z M 75.75 79.27 c -2.48 0.0 -4.48 -2.03 
        -4.48 -4.54 c 0.0 -2.51 2.01 -4.54 4.48 -4.54 c 2.47 0.0 4.48 2.03 4.48 4.54 C 80.23 77.24 78.22 79.27 75.75 
        79.27 z M 22.12 65.14 c -5.17 0.0 -9.37 4.25 -9.37 9.49 c 0.0 5.24 4.19 9.49 9.37 9.49 c 5.17 0.0 9.37 -4.25 
        9.37 -9.49 C 31.48 69.39 27.29 65.14 22.12 65.14 z M 22.14 79.19 c -2.47 0.0 -4.48 -2.03 -4.48 -4.54 c 0.0 -2.51 
        2.01 -4.54 4.48 -4.54 s 4.48 2.03 4.48 4.54 C 26.62 77.16 24.61 79.19 22.14 79.19 z M 91.47 47.73 c 2.8 0.55 
        4.47 1.78 5.74 8.77 l 2.0 12.63 c 0.72 4.11 -1.57 5.61 -4.43 5.61 H 87.91 c 0.0 -6.81 -5.44 -12.35 -12.16 -12.35 
        c -6.72 0.0 -12.17 5.54 -12.17 12.35 H 34.25 c 0.0 -6.81 -5.45 -12.35 -12.17 -12.35 c -6.72 0.0 -12.17 5.54 
        -12.17 12.35 H 4.23 C 2.23 74.74 0.67 73.21 0.67 71.22 V 29.7 c 0.0 -2.26 1.76 -4.08 3.92 -4.08 h 63.3 h 10.34 c 
        2.8 0.0 4.84 1.41 5.86 3.88 L 91.47 47.73 z M 66.93 29.85 v 17.25 h 19.68 l -6.9 -17.25 H 66.93 z M 49.32 44.88 
        V 34.3 H 38.88 v 10.58 H 28.43 v 10.59 h 10.45 v 10.58 h 10.44 V 55.47 h 10.44 V 44.88 H 49.32 z"/>
</svg>