<?xml version="1.0" standalone="no"?>
<!--Created with Sketsa SVG Editor (http://www.kiyut.com)-->
<?xml-stylesheet type="text/css" href="..\transportation.css" ?>
<svg contentScriptType="text/ecmascript" width="100.0px" xmlns:xlink="http://www.w3.org/1999/xlink" baseProfile="full"
    zoomAndPan="magnify" contentStyleType="text/css" height="100.0px" preserveAspectRatio="xMidYMid meet" xmlns="http://www.w3.org/2000/svg"
    version="1.0">
    <path d="M 50.34 19.86 c -3.1 0.0 -5.64 -2.51 -5.64 -5.59 c 0.0 -3.1 2.54 -5.6 5.64 -5.6 c 3.14 0.0 5.67 2.49 5.67 
        5.6 C 56.01 17.35 53.49 19.86 50.34 19.86 z M 96.1 68.79 l -3.02 -18.56 c -0.35 -1.73 -1.89 -3.06 -3.72 -3.06 c 
        -1.11 0.0 -2.1 0.47 -2.82 1.22 L 72.64 61.27 c -0.23 0.19 -0.45 0.41 -0.65 0.69 c -1.31 1.76 -0.93 4.25 0.85 
        5.56 c 0.34 0.25 0.71 0.41 1.08 0.56 l 3.49 1.15 c -3.37 9.38 -11.59 16.51 -21.68 18.49 l 0.02 -60.92 c 4.95 
        -2.08 8.37 -6.91 8.37 -12.52 C 64.13 6.75 57.97 0.67 50.34 0.67 c -7.59 0.0 -13.78 6.08 -13.78 13.61 c 0.0 5.61 
        3.54 10.44 8.47 12.52 l 0.02 61.01 c -10.31 -1.83 -18.85 -9.03 -22.3 -18.58 l 3.52 -1.15 c 0.37 -0.15 0.75 -0.31 
        1.09 -0.56 c 1.78 -1.31 2.18 -3.8 0.84 -5.56 c -0.2 -0.27 -0.4 -0.49 -0.64 -0.69 L 13.65 48.4 c -0.69 -0.75 -1.7 
        -1.22 -2.8 -1.22 c -1.85 0.0 -3.41 1.32 -3.74 3.05 L 4.09 68.79 C 4.02 69.08 4.0 69.4 4.0 69.72 c 0.0 2.2 1.8 
        3.98 4.03 3.98 c 0.42 0.0 0.82 -0.05 1.19 -0.17 l 3.27 -1.05 C 17.68 88.06 32.56 99.33 50.1 99.33 c 17.54 0.0 
        32.42 -11.28 37.61 -26.88 l 3.26 1.07 c 0.37 0.13 0.77 0.17 1.19 0.17 c 2.23 0.0 4.04 -1.78 4.04 -3.98 C 96.2 
        69.4 96.17 69.08 96.1 68.79 z"/>
</svg>