<?xml version="1.0" standalone="no"?>
<!--Created with Sketsa SVG Editor (http://www.kiyut.com)-->
<?xml-stylesheet type="text/css" href="..\transportation.css" ?>
<svg contentScriptType="text/ecmascript" width="100.0px" xmlns:xlink="http://www.w3.org/1999/xlink" baseProfile="full"
    zoomAndPan="magnify" contentStyleType="text/css" height="100.0px" preserveAspectRatio="xMidYMid meet" xmlns="http://www.w3.org/2000/svg"
    version="1.0">
    <path d="M 82.22 44.45 c -2.22 0.0 -4.49 0.45 -6.56 1.27 c -0.03 0.04 -0.03 0.04 -0.03 0.04 c -2.0 -3.77 -4.0 -7.55 
        -6.0 -11.32 c 0.56 -1.38 1.11 -2.73 1.63 -4.07 c 2.56 0.0 4.63 -2.13 4.63 -4.71 c 0.0 -0.04 0.0 -0.04 0.0 -0.04 
        c -5.45 0.0 -10.89 0.0 -16.34 0.0 c -0.6 0.0 -1.15 0.56 -1.15 1.2 c 0.0 0.52 0.33 0.97 0.85 1.12 c 2.41 0.63 
        4.82 1.27 7.22 1.86 c -0.67 1.57 -1.3 3.1 -1.92 4.64 c -10.63 0.0 -21.27 0.0 -31.86 0.0 c 0.0 0.0 0.6 -1.98 0.71 
        -2.39 c 0.18 -0.71 0.3 -0.97 0.3 -1.72 c 0.0 -1.68 -1.04 -2.72 -2.48 -3.55 c -0.04 -0.04 -0.08 -0.07 -0.08 -0.07 
        c -0.15 -0.11 -0.26 -0.3 -0.26 -0.49 c 0.0 -0.3 0.3 -0.6 0.59 -0.6 c 0.41 0.0 0.78 0.0 1.15 0.0 c 1.97 0.0 3.93 
        0.0 5.85 0.0 c 0.0 -1.57 0.0 -3.14 0.0 -4.71 c -2.15 0.0 -4.3 0.0 -6.41 0.0 c -0.59 0.0 -1.19 0.0 -1.78 0.0 c 
        -2.55 0.04 -4.63 2.17 -4.63 4.74 c 0.0 1.91 1.15 3.62 2.89 4.37 c 0.03 0.0 0.07 0.0 0.07 0.0 c 0.22 0.11 0.33 
        0.3 0.33 0.56 c 0.0 0.03 0.0 0.07 0.0 0.11 c 0.0 0.04 0.0 0.04 0.0 0.04 c -1.48 5.01 -2.96 10.01 -4.45 14.98 c 
        -0.03 -0.04 -0.07 -0.07 -0.11 -0.07 c -2.55 -1.01 -3.59 -1.2 -6.34 -1.2 C 8.39 44.45 0.54 52.37 0.54 62.12 C 
        0.54 71.84 8.39 79.76 18.06 79.76 c 9.63 0.0 17.49 -7.92 17.49 -17.63 c 0.0 -5.57 -2.45 -10.57 -6.78 -13.97 c 
        -0.04 -0.07 -0.07 -0.11 -0.07 -0.15 c 0.22 -0.63 0.41 -1.27 0.59 -1.87 c 6.67 4.63 13.33 9.23 19.96 13.82 c 0.0 
        0.03 0.0 0.07 0.0 0.07 c -0.19 0.71 -0.29 1.38 -0.29 2.09 c 0.0 3.88 3.15 7.06 7.0 7.06 c 1.07 0.0 1.29 -0.08 
        2.3 -0.41 c 0.48 0.93 0.96 1.87 1.45 2.76 c -0.78 0.0 -1.53 0.0 -2.26 0.0 c 0.0 0.79 0.0 1.57 0.0 2.36 c 0.81 
        0.0 1.62 0.0 2.44 0.0 c 0.37 0.37 0.82 0.56 1.34 0.56 c 0.48 0.0 0.96 -0.22 1.3 -0.6 c 0.67 0.0 1.3 0.0 1.93 0.0 
        c 0.0 -0.79 0.0 -1.57 0.0 -2.32 c -0.97 0.0 -1.89 0.0 -2.82 0.0 c -0.59 -1.19 -1.18 -2.39 -1.74 -3.59 c 1.45 
        -0.97 2.41 -2.35 2.86 -4.07 c 0.04 0.0 0.04 0.0 0.04 0.0 c 0.7 0.0 1.36 0.0 2.03 0.0 c 0.89 9.04 8.41 15.88 
        17.41 15.88 c 9.63 0.0 17.48 -7.92 17.48 -17.63 C 99.71 52.37 91.85 44.45 82.22 44.45 z M 30.27 62.12 c 0.0 6.8 
        -5.48 12.33 -12.23 12.33 c -6.78 0.0 -12.26 -5.53 -12.26 -12.33 c 0.0 -6.84 5.49 -12.37 12.26 -12.37 c 1.74 0.0 
        3.41 0.38 4.93 1.05 c 0.03 0.04 0.07 0.04 0.07 0.04 c -0.48 1.57 -0.96 3.14 -1.45 4.71 c -0.67 2.02 -2.33 3.55 
        -4.33 4.93 c -0.11 0.07 -0.18 0.15 -0.26 0.18 c -0.44 0.34 -0.74 0.86 -0.74 1.46 c 0.0 0.93 0.82 1.75 1.78 1.75 
        c 0.08 0.0 0.26 0.0 0.34 -0.03 c 3.34 -0.94 6.7 -3.71 7.74 -6.99 c 0.34 -1.04 0.63 -2.09 0.93 -3.1 c 0.03 0.04 
        0.03 0.04 0.03 0.04 C 29.09 55.99 30.27 58.91 30.27 62.12 z M 74.43 52.56 c 0.04 -0.04 0.04 -0.08 0.04 -0.08 c 
        1.41 2.65 2.78 5.27 4.15 7.88 c -2.85 0.0 -5.7 0.0 -8.52 0.0 c 0.0 -0.03 0.0 -0.07 0.0 -0.07 C 70.54 57.15 71.99 
        54.58 74.43 52.56 z M 30.49 41.95 c 0.33 -1.12 0.67 -2.24 0.96 -3.36 c 10.52 0.0 21.01 0.0 31.49 0.0 c -2.22 
        5.49 -4.44 10.98 -6.63 16.47 c -0.04 0.0 -0.08 0.0 -0.08 0.0 c -0.11 0.0 -0.22 0.0 -0.29 0.0 c -0.71 0.0 -1.49 
        0.11 -2.15 0.34 c -0.07 0.03 -0.11 0.03 -0.15 0.03 c -0.48 -0.93 -0.92 -1.84 -1.37 -2.73 c 0.74 0.0 1.48 0.0 
        2.18 0.0 c 0.0 -0.78 0.0 -1.57 0.0 -2.36 c -0.82 0.0 -1.63 0.0 -2.44 0.0 c -0.03 -0.04 -0.03 -0.04 -0.03 -0.04 c 
        -0.34 -0.37 -0.82 -0.56 -1.3 -0.56 c -0.49 0.0 -0.93 0.19 -1.26 0.56 c -0.03 0.04 -0.03 0.04 -0.03 0.04 c -0.67 
        0.0 -1.3 0.0 -1.93 0.0 c 0.0 0.79 0.0 1.57 0.0 2.36 c 0.96 0.0 1.93 0.0 2.85 0.0 c 0.59 1.2 1.18 2.39 1.74 3.55 
        c -0.19 0.11 -0.33 0.22 -0.49 0.33 C 44.54 51.7 37.5 46.81 30.49 41.95 z M 55.94 66.83 c -2.56 0.0 -4.67 -2.14 
        -4.67 -4.71 c 0.0 -2.62 2.11 -4.71 4.67 -4.71 c 2.56 0.0 4.66 2.09 4.66 4.71 C 60.61 64.7 58.5 66.83 55.94 66.83 
        z M 64.79 60.29 c 0.0 0.0 0.0 0.0 0.0 0.04 c -0.67 0.0 -1.37 0.0 -2.07 0.0 c -0.37 -1.39 -1.0 -2.43 -2.04 -3.44 
        c 0.0 0.0 -0.04 -0.04 -0.08 -0.07 c 2.3 -5.79 4.63 -11.62 6.97 -17.45 c 1.44 2.8 2.93 5.6 4.41 8.4 c 0.0 0.0 
        -0.04 0.0 -0.08 0.04 C 67.8 50.84 65.32 55.21 64.79 60.29 z M 82.21 74.45 c -6.07 0.0 -11.22 -4.44 -12.11 -10.5 
        c 0.0 -0.04 0.0 -0.08 0.0 -0.08 c 4.04 0.0 8.08 0.0 12.11 0.0 c 0.93 0.0 1.74 -0.82 1.74 -1.75 c 0.0 -0.26 -0.04 
        -0.52 -0.11 -0.75 c -1.93 -3.66 -3.85 -7.29 -5.75 -10.91 c 1.26 -0.45 2.74 -0.71 4.11 -0.71 c 6.74 0.0 12.26 
        5.53 12.26 12.37 C 94.47 68.92 88.95 74.45 82.21 74.45 z" clip-rule="evenodd" fill-rule="evenodd"/>
</svg>