<?xml version="1.0" standalone="no"?>
<!--Created with Sketsa SVG Editor (http://www.kiyut.com)-->
<?xml-stylesheet type="text/css" href="..\transportation.css" ?>
<svg contentScriptType="text/ecmascript" width="100.0px" xmlns:xlink="http://www.w3.org/1999/xlink" baseProfile="full"
    zoomAndPan="magnify" contentStyleType="text/css" height="100.0px" preserveAspectRatio="xMidYMid meet" xmlns="http://www.w3.org/2000/svg"
    version="1.0">
    <path d="M 82.07 41.85 c -3.04 0.0 -5.91 0.8 -8.4 2.19 c -1.57 -2.38 -3.14 -4.76 -4.71 -7.14 c 0.7 -1.22 1.41 -2.44 
        2.11 -3.67 c 1.01 0.45 2.03 0.9 3.04 1.35 c 0.74 0.33 1.66 -0.05 1.66 -0.96 c 0.0 -1.72 0.0 -3.44 0.0 -5.16 c 
        0.0 -0.31 -0.11 -0.53 -0.27 -0.71 c -0.02 -0.03 -0.03 -0.05 -0.06 -0.08 c -0.02 -0.02 -0.05 -0.04 -0.07 -0.06 c 
        -0.17 -0.16 -0.4 -0.27 -0.7 -0.27 c -3.87 0.0 -7.73 0.0 -11.6 0.0 c -1.03 0.0 -1.6 1.61 -0.56 2.08 c 1.95 0.87 
        3.9 1.74 5.84 2.6 c -0.72 1.25 -1.43 2.49 -2.15 3.74 c -10.99 0.0 -21.98 0.0 -32.98 0.0 c 1.0 -1.51 2.08 -3.27 
        1.27 -4.77 c -0.46 -0.85 -0.89 -1.72 -1.31 -2.6 c -0.32 -0.67 -0.6 -1.36 -0.84 -2.07 c -0.06 -0.15 -0.07 -0.27 
        -0.07 -0.36 h 2.3 c 1.93 0.0 3.86 0.0 5.8 0.0 c 0.8 0.0 1.59 0.0 2.39 0.0 c 1.9 0.0 1.9 -2.98 0.0 -2.98 c -3.29 
        2.98E-8 -6.57 2.98E-8 -9.86 2.98E-8 c -2.02 0.0 -3.67 -0.0 -3.76 2.4 c -0.08 2.16 1.6 4.79 2.55 6.63 c 0.03 0.05 
        0.05 0.09 0.08 0.14 c -0.24 0.43 -0.49 0.86 -0.73 1.29 c -1.9 3.35 -3.79 6.71 -5.69 10.06 c -2.23 -1.05 -4.71 
        -1.66 -7.33 -1.66 C 8.43 41.85 0.61 49.76 0.61 59.47 c 0.0 9.71 7.81 17.62 17.42 17.62 c 9.6 0.0 17.42 -7.9 
        17.42 -17.62 c 0.0 -6.0 -2.99 -11.3 -7.53 -14.49 c 0.77 -1.36 1.54 -2.73 2.31 -4.09 c 6.49 5.32 12.99 10.64 
        19.48 15.95 c -0.67 0.9 -1.09 2.01 -1.09 3.22 c 0.0 2.96 2.37 5.37 5.3 5.37 c 0.17 0.0 0.33 -0.03 0.5 -0.05 l 
        0.0 0.03 l 10.87 -1.26 c 2.03 7.44 8.78 12.94 16.77 12.94 c 9.61 0.0 17.42 -7.9 17.42 -17.62 C 99.49 49.76 91.67 
        41.85 82.07 41.85 z M 32.5 59.47 c 0.0 8.07 -6.49 14.64 -14.48 14.64 c -7.98 0.0 -14.48 -6.57 -14.48 -14.64 c 
        -2.38E-7 -8.07 6.49 -14.64 14.48 -14.64 c 2.09 0.0 4.07 0.46 5.87 1.27 c -2.01 3.55 -4.02 7.11 -6.03 10.66 c 
        -1.41 0.09 -2.54 1.26 -2.54 2.71 c 0.0 1.51 1.21 2.73 2.7 2.73 c 1.49 0.0 2.7 -1.22 2.7 -2.73 c 0.0 -0.45 -0.12 
        -0.86 -0.3 -1.23 c 2.01 -3.55 4.02 -7.1 6.02 -10.65 C 30.11 50.24 32.5 54.57 32.5 59.47 z M 72.86 48.18 c 1.82 
        2.76 3.64 5.53 5.46 8.29 l -10.24 -0.74 C 68.87 52.73 70.56 50.1 72.86 48.18 z M 65.11 55.52 l -6.58 -0.48 c 
        2.93 -5.09 5.86 -10.18 8.79 -15.27 c 1.3 1.98 2.61 3.96 3.91 5.94 C 68.2 48.15 66.01 51.58 65.11 55.52 z M 55.25 
        54.81 l -1.33 -0.1 c -0.62 0.0 -1.22 0.13 -1.77 0.33 c -6.63 -5.43 -13.26 -10.86 -19.89 -16.29 c 10.74 9.54E-7 
        21.49 9.54E-7 32.23 9.54E-7 C 61.41 44.1 58.33 49.45 55.25 54.81 z M 82.07 74.11 c -6.49 0.0 -11.99 -4.34 -13.83 
        -10.3 l 13.83 -1.61 c 1.49 0.0 2.7 -1.22 2.7 -2.73 c 0.0 -1.51 -1.21 -2.73 -2.7 -2.73 l -0.03 -0.0 c -2.24 -3.4 
        -4.48 -6.8 -6.73 -10.2 c 2.02 -1.08 4.32 -1.7 6.76 -1.7 c 7.98 0.0 14.48 6.57 14.48 14.64 C 96.54 67.54 90.05 
        74.11 82.07 74.11 z"/>
</svg>