<?xml version="1.0" standalone="no"?>
<!--Created with Sketsa SVG Editor (http://www.kiyut.com)-->
<?xml-stylesheet type="text/css" href="..\transportation.css" ?>
<svg contentScriptType="text/ecmascript" width="100.0px" xmlns:xlink="http://www.w3.org/1999/xlink" baseProfile="full"
    zoomAndPan="magnify" contentStyleType="text/css" height="100.0px" preserveAspectRatio="xMidYMid meet" xmlns="http://www.w3.org/2000/svg"
    version="1.0">
    <path d="M 80.37 42.66 c -2.15 0.0 -4.22 0.36 -6.16 1.02 c -1.5 -3.35 -3.25 -7.27 -5.31 -11.88 l 1.31 -3.63 L 74.71 
        28.09 V 24.3 H 57.76 c -1.48 2.04 0.6 2.03 8.11 3.71 l -1.31 3.71 H 31.07 c 2.26 -7.94 0.98 -7.36 11.14 -7.34 V 
        20.5 C 28.23 20.64 30.65 19.05 23.17 43.31 c -1.15 -0.22 -2.33 -0.33 -3.53 -0.33 C 9.01 42.98 0.38 51.68 0.38 
        62.38 s 8.64 19.4 19.26 19.4 c 10.62 0.0 19.26 -8.7 19.26 -19.4 c 0.0 -8.01 -4.84 -14.9 -11.72 -17.86 c 0.42 
        -1.33 0.87 -2.75 1.35 -4.26 C 56.69 70.21 46.12 65.35 61.28 65.96 c 0.07 0.0 0.14 -9.99E-4 0.21 -0.0 c 1.8 8.84 
        9.57 15.51 18.87 15.51 c 10.62 0.0 19.26 -8.7 19.26 -19.4 S 90.99 42.66 80.37 42.66 z M 34.39 62.38 c 0.0 8.2 
        -6.62 14.86 -14.75 14.86 S 4.88 70.58 4.88 62.38 s 6.62 -14.86 14.75 -14.86 c 0.73 0.0 1.45 0.06 2.16 0.16 c 
        -4.7 14.93 -4.14 13.23 -4.16 14.49 c -0.02 1.06 0.83 1.9 1.9 1.98 c 1.92 -0.2 1.49 0.12 6.28 -15.26 C 30.86 
        51.24 34.39 56.4 34.39 62.38 z M 53.4 61.46 L 30.1 35.87 l 32.77 -0.06 L 53.4 61.46 z M 61.11 61.99 l -3.58 
        -0.01 l 9.3 -24.59 l 3.61 8.05 C 64.87 48.84 61.13 54.98 61.11 61.99 z M 72.3 49.62 l 5.56 12.42 l -12.25 -0.03 
        C 65.63 56.83 68.29 52.27 72.3 49.62 z M 80.37 76.93 c -6.8 0.0 -12.54 -4.67 -14.24 -10.99 c 15.35 0.01 16.72 
        0.81 16.94 -1.88 c -0.02 -0.78 -0.31 -1.32 -6.99 -16.22 c 1.36 -0.42 2.8 -0.65 4.29 -0.65 c 8.13 0.0 14.75 6.67 
        14.75 14.87 S 88.5 76.93 80.37 76.93 z"/>
</svg>