<?xml version="1.0" standalone="no"?>
<!--Created with Sketsa SVG Editor (http://www.kiyut.com)-->
<?xml-stylesheet type="text/css" href="..\transportation.css" ?>
<svg contentScriptType="text/ecmascript" width="100.0px" xmlns:xlink="http://www.w3.org/1999/xlink" baseProfile="full"
    zoomAndPan="magnify" contentStyleType="text/css" height="100.0px" preserveAspectRatio="xMidYMid meet" xmlns="http://www.w3.org/2000/svg"
    version="1.0">
    <path d="M 56.36 7.2 c 0.0 3.52 -2.81 6.37 -6.28 6.37 s -6.28 -2.85 -6.28 -6.37 C 43.8 3.69 46.62 0.83 50.08 0.83 S 
        56.36 3.69 56.36 7.2 z M 79.19 65.36 c -0.08 0.0 -0.16 -9.84E-4 -0.23 0.0 c -2.79 0.03 -5.43 0.66 -7.78 1.74 l 
        -3.05 -4.68 l 5.56 -19.7 L 57.26 11.92 l -7.46 3.36 L 33.78 43.88 c -2.8 0.58 -3.35 1.61 -4.23 3.67 c -0.11 0.27 
        -2.54 8.29 -5.5 18.14 c -1.15 -0.21 -2.33 -0.33 -3.54 -0.33 c -0.08 0.0 -0.16 -9.84E-4 -0.23 0.0 C 10.35 65.48 
        2.33 73.04 2.33 82.35 C 2.33 91.72 10.47 99.33 20.5 99.33 c 10.03 0.0 18.17 -7.61 18.17 -16.99 c 0.0 -7.32 -4.96 
        -13.56 -11.9 -15.95 c 0.38 -1.28 0.77 -2.55 1.14 -3.8 l 21.13 17.42 c -0.37 0.7 -0.59 1.49 -0.59 2.32 c 0.0 2.89 
        2.5 5.23 5.59 5.23 c 2.57 0.0 4.73 -1.63 5.39 -3.84 h 1.67 c 0.1 1.18 0.34 2.34 0.69 3.44 L 54.7 91.74 l 0.24 
        2.18 l 9.75 -1.33 c 3.32 4.1 8.57 6.75 14.49 6.75 c 10.03 0.0 18.17 -7.61 18.17 -16.99 C 97.35 72.97 89.21 65.36 
        79.19 65.36 z M 35.87 82.35 c 0.0 7.94 -6.89 14.37 -15.37 14.37 S 5.13 90.28 5.13 82.35 c 0.0 -7.87 6.78 -14.27 
        15.17 -14.37 c 0.07 -9.84E-4 0.13 0.0 0.2 0.0 c 0.95 0.0 1.88 0.08 2.78 0.24 c -1.14 3.79 -2.33 7.76 -3.49 11.61 
        c -1.2 0.29 -2.09 1.31 -2.09 2.52 c 0.0 1.44 1.25 2.61 2.8 2.61 s 2.79 -1.17 2.79 -2.61 c 0.0 -0.7 -0.3 -1.34 
        -0.78 -1.81 c 0.95 -3.18 2.21 -7.34 3.49 -11.61 C 31.77 71.0 35.87 76.23 35.87 82.35 z M 32.15 48.58 c 0.69 
        -1.61 0.73 -1.7 2.24 -2.0 c 0.61 -0.03 4.34 -0.01 6.87 0.01 l 0.03 -2.77 c -0.42 -0.0 -0.82 -0.01 -1.19 -0.01 l 
        10.11 -14.57 l 7.38 11.49 L 41.28 53.91 H 30.53 C 31.42 50.95 32.04 48.92 32.15 48.58 z M 60.23 51.29 l -0.45 
        2.62 h -3.75 L 60.23 51.29 z M 28.78 59.71 c 0.32 -1.05 0.62 -2.07 0.91 -3.03 h 11.34 l 6.92 14.58 l -2.36 2.31 
        L 28.78 59.71 z M 54.33 77.13 c -0.1 -0.0 -0.2 -0.01 -0.3 -0.01 c -1.14 0.0 -2.2 0.32 -3.09 0.87 l -3.51 -2.89 l 
        7.7 -0.33 L 54.33 77.13 z M 49.68 57.87 l 1.91 -1.19 h 7.72 l -2.01 11.77 l -1.19 3.47 L 49.68 57.87 z M 59.42 
        80.96 c -0.37 -1.26 -1.24 -2.34 -2.39 -3.02 l 1.55 -4.52 l 1.92 7.54 H 59.42 z M 66.49 68.17 l 0.61 -2.17 l 1.61 
        2.47 c -0.69 0.45 -1.33 0.96 -1.95 1.49 L 66.49 68.17 z M 70.18 70.71 l 6.67 10.22 c -0.01 0.01 -0.02 0.03 -0.03 
        0.04 h -8.37 l -1.18 -7.69 C 68.12 72.3 69.1 71.44 70.18 70.71 z M 79.19 96.72 c -4.44 0.0 -8.43 -1.76 -11.24 
        -4.58 l 2.63 -0.36 l -1.25 -5.09 l -0.45 -2.96 h 7.94 c 0.49 0.74 1.37 1.23 2.37 1.23 c 1.54 0.0 2.79 -1.17 2.79 
        -2.61 c 0.0 -1.37 -1.13 -2.49 -2.56 -2.6 L 72.63 69.35 c 1.93 -0.85 4.08 -1.34 6.35 -1.37 c 0.07 -9.84E-4 0.13 
        0.0 0.2 0.0 c 8.48 0.0 15.37 6.44 15.37 14.37 C 94.56 90.28 87.67 96.72 79.19 96.72 z"/>
</svg>