<?xml version="1.0" standalone="no"?>
<!--Created with Sketsa SVG Editor (http://www.kiyut.com)-->
<?xml-stylesheet type="text/css" href="..\transportation.css" ?>
<svg contentScriptType="text/ecmascript" width="100.0px" xmlns:xlink="http://www.w3.org/1999/xlink" baseProfile="full"
    zoomAndPan="magnify" contentStyleType="text/css" height="100.0px" preserveAspectRatio="xMidYMid meet" xmlns="http://www.w3.org/2000/svg"
    version="1.0">
    <path d="M 81.54 42.23 c -3.24 0.0 -6.27 0.86 -8.89 2.37 l -6.02 -9.27 l 1.89 -3.77 h 3.0 c 0.82 0.0 2.08 -0.65 2.08 
        -2.14 c -0.27 -2.37 -2.33 -2.47 -5.59 -1.19 c -5.36 0.0 -8.09 0.57 -8.09 3.32 h 6.15 l -1.04 2.08 h -29.71 c 
        0.89 -2.18 1.74 -4.39 2.52 -6.63 c -1.54 0.0 -3.28 -0.1 -3.28 -1.36 c 0.0 -1.23 1.08 -1.4 1.88 -1.45 h 10.69 V 
        22.0 H 36.45 c -2.28 -0.03 -4.13 0.93 -4.13 3.12 c 0.0 1.63 0.57 3.1 2.87 3.72 c -2.88 7.29 -5.33 12.08 -7.1 
        16.05 c -2.74 -1.68 -5.95 -2.65 -9.38 -2.65 C 8.72 42.23 0.63 50.41 0.63 60.5 C 0.63 70.59 8.72 78.77 18.71 
        78.77 c 9.99 0.0 18.09 -8.18 18.09 -18.26 c 0.0 -5.85 -2.72 -11.06 -6.96 -14.4 c 1.36 -2.97 2.71 -5.95 4.01 
        -8.95 l 13.56 19.24 c -1.32 1.2 -2.15 2.95 -2.15 4.89 c 0.0 3.38 2.53 6.17 5.77 6.54 v 2.65 H 49.28 v 1.78 h 
        4.97 v -1.78 h -1.74 V 67.82 c 3.25 -0.37 5.77 -3.16 5.77 -6.54 c 0.0 -0.04 9.92E-4 -0.07 0.0 -0.11 h 5.19 c 
        0.35 9.78 8.3 17.59 18.07 17.59 C 91.52 78.77 99.63 70.59 99.63 60.5 C 99.63 50.41 91.52 42.23 81.54 42.23 z M 
        33.84 60.5 c 0.0 8.44 -6.78 15.28 -15.13 15.28 c -8.35 0.0 -15.12 -6.84 -15.12 -15.28 c -2.38E-7 -8.44 6.77 
        -15.28 15.12 -15.28 c 3.0 0.0 5.79 0.89 8.14 2.41 c -1.05 2.29 -2.03 4.39 -3.06 6.65 c -0.0 0.01 -0.01 0.02 
        -0.01 0.03 c -1.03 1.77 -2.37 3.05 -3.74 4.17 c -0.38 -0.26 -0.84 -0.41 -1.33 -0.41 c -1.33 0.0 -2.4 1.09 -2.4 
        2.43 c 0.0 1.34 1.07 2.43 2.4 2.43 c 1.33 0.0 2.41 -1.09 2.41 -2.43 c 0.0 -0.02 -0.01 -0.05 -0.01 -0.07 c 1.57 
        -1.27 3.29 -2.83 4.59 -5.11 l 0.03 -0.05 l 0.02 -0.04 c 0.91 -2.12 1.85 -4.22 2.8 -6.32 C 31.78 51.71 33.84 
        55.86 33.84 60.5 z M 72.79 48.05 l 7.0 10.79 c -0.15 0.17 -0.28 0.35 -0.39 0.56 H 66.46 C 66.79 54.71 69.21 
        50.62 72.79 48.05 z M 34.77 35.41 h 29.38 L 54.22 55.18 c -0.54 -0.22 -1.11 -0.37 -1.71 -0.44 v -2.65 h 1.74 v 
        -1.78 H 49.28 v 1.78 h 1.74 v 2.65 c -0.77 0.09 -1.5 0.32 -2.17 0.66 L 34.77 35.41 z M 51.77 66.61 c -2.91 0.0 
        -5.27 -2.38 -5.27 -5.32 c 0.0 -2.94 2.36 -5.32 5.27 -5.32 c 2.91 0.0 5.27 2.38 5.27 5.32 C 57.04 64.22 54.68 
        66.61 51.77 66.61 z M 58.01 59.4 c -0.35 -1.19 -1.04 -2.25 -1.94 -3.06 l 9.64 -19.2 l 5.45 8.4 c -4.38 3.11 
        -7.33 8.13 -7.67 13.86 H 58.01 z M 81.54 75.78 c -8.13 0.0 -14.75 -6.48 -15.1 -14.6 h 12.8 c 0.29 1.01 1.21 1.76 
        2.31 1.76 c 1.33 0.0 2.41 -1.09 2.41 -2.43 c 0.0 -1.34 -1.08 -2.43 -2.41 -2.43 c -0.05 0.0 -0.1 0.0 -0.15 0.01 L 
        74.27 47.1 c 2.16 -1.19 4.63 -1.88 7.27 -1.88 c 8.35 0.0 15.13 6.84 15.13 15.28 C 96.67 68.94 89.89 75.78 81.54 
        75.78 z M 51.77 56.42 c -2.66 0.0 -4.81 2.18 -4.81 4.86 c 0.0 2.68 2.16 4.86 4.81 4.86 s 4.8 -2.18 4.8 -4.86 C 
        56.57 58.6 54.42 56.42 51.77 56.42 z M 51.77 62.11 c -0.45 0.0 -0.83 -0.37 -0.83 -0.83 c 0.0 -0.46 0.37 -0.83 
        0.83 -0.83 c 0.46 0.0 0.82 0.37 0.82 0.83 C 52.59 61.74 52.22 62.11 51.77 62.11 z"/>
</svg>