<?xml version="1.0" standalone="no"?>
<!--Created with Sketsa SVG Editor (http://www.kiyut.com)-->
<?xml-stylesheet type="text/css" href="..\transportation.css" ?>
<svg contentScriptType="text/ecmascript" width="100.0px" xmlns:xlink="http://www.w3.org/1999/xlink" baseProfile="full"
    zoomAndPan="magnify" contentStyleType="text/css" height="100.0px" preserveAspectRatio="xMidYMid meet" xmlns="http://www.w3.org/2000/svg"
    version="1.0">
    <path d="M 98.5 59.58 L 99.61 59.52 c -0.67 -10.46 -9.3 -18.74 -19.85 -18.74 c -3.28 0.0 -6.36 0.8 -9.09 2.21 l 
        -4.53 -8.05 l 1.2 -2.69 c 0.25 0.05 0.47 0.07 0.64 0.07 c 1.17 0.0 5.14 -3.63 4.37 -5.58 c -0.33 -0.84 -2.24 
        -0.04 -4.64 0.47 c -0.53 0.11 -2.18 0.1 -3.13 0.0 c -2.22 -0.24 -4.16 -0.76 -4.53 0.26 c -0.44 1.23 2.59 3.07 
        5.14 4.1 l -0.65 1.45 H 32.31 l 0.96 -2.71 l -0.26 -0.09 l 1.48 -4.15 L 34.44 26.06 l 0.0 -10.0E-4 c -0.59 -0.21 
        -1.91 -0.88 -2.19 -1.64 c -0.06 -0.17 -0.12 -0.45 0.13 -0.88 c 0.47 -0.81 4.46 -0.83 8.54 -0.06 L 41.23 21.82 c 
        -2.07 -0.39 -8.92 -1.49 -10.29 0.86 c -0.44 0.76 -0.53 1.57 -0.26 2.32 c 0.31 0.85 1.04 1.48 1.72 1.92 l -0.97 
        2.74 l -0.26 -0.1 L 26.65 42.26 c -2.32 -0.95 -4.85 -1.48 -7.51 -1.48 c -1.01 0.0 -2.0 0.08 -2.97 0.22 l 0.18 
        1.11 C 7.31 43.47 0.36 51.33 0.36 60.83 c 0.0 10.45 8.41 18.92 18.78 18.92 c 7.77 0.0 14.44 -4.76 17.3 -11.54 l 
        1.02 0.45 c 1.02 -2.41 1.58 -5.06 1.58 -7.84 c 0.0 -7.59 -4.19 -14.19 -10.36 -17.6 l 0.98 -2.76 l 18.01 20.15 c 
        -0.65 0.89 -1.04 1.98 -1.04 3.17 c 0.0 2.99 2.4 5.41 5.37 5.41 c 0.22 0.0 0.43 -0.02 0.64 -0.04 l 0.84 3.23 h 
        -1.22 v 2.25 h 4.76 v -2.25 h -1.81 L 54.26 68.7 c 1.76 -0.82 2.99 -2.58 3.1 -4.63 l 3.84 -0.41 c 1.36 9.11 9.15 
        16.09 18.56 16.09 c 10.37 0.0 18.78 -8.47 18.78 -18.92 c 0.0 -0.42 -0.02 -0.84 -0.05 -1.26 C 98.5 59.57 98.5 
        59.57 98.5 59.58 z M 34.58 60.83 c 0.0 8.59 -6.91 15.55 -15.44 15.55 S 3.71 69.42 3.71 60.83 c 0.0 -8.59 6.91 
        -15.55 15.44 -15.55 c 2.26 0.0 4.4 0.49 6.33 1.37 l -2.54 7.13 l -2.99 4.62 c -0.25 -0.08 -0.51 -0.14 -0.78 
        -0.14 c -1.41 0.0 -2.55 1.15 -2.55 2.56 c 0.0 1.42 1.14 2.56 2.55 2.56 c 1.41 0.0 2.55 -1.15 2.55 -2.56 c 0.0 
        -0.52 -0.16 -1.01 -0.42 -1.41 l 3.1 -4.8 l 2.58 -7.19 C 31.52 50.13 34.58 55.12 34.58 60.83 z M 53.15 58.51 c 
        -0.37 -0.08 -0.75 -0.13 -1.14 -0.13 c -0.18 0.0 -0.37 0.01 -0.54 0.03 l -0.95 -3.61 h 1.36 v -2.25 h -4.76 v 
        2.25 h 1.67 l 1.06 4.05 c -0.18 0.08 -0.35 0.18 -0.52 0.28 L 30.51 38.07 l 0.99 -2.79 h 32.04 L 53.15 58.51 z M 
        59.92 62.1 l -2.72 0.29 c -0.32 -1.2 -1.04 -2.24 -2.01 -2.96 l 10.11 -22.59 l 3.93 6.98 c -5.62 3.54 -9.36 9.83 
        -9.36 17.0 C 59.87 61.26 59.89 61.68 59.92 62.1 z M 64.33 60.83 c 0.0 -5.49 2.83 -10.32 7.1 -13.09 l 6.22 11.03 
        c -0.39 0.41 -0.67 0.93 -0.77 1.52 l -12.52 1.34 C 64.33 61.36 64.33 61.1 64.33 60.83 z M 79.76 76.38 c -7.69 
        0.0 -14.06 -5.67 -15.24 -13.08 l 12.52 -1.34 c 0.44 1.07 1.49 1.83 2.72 1.83 c 1.63 0.0 2.95 -1.33 2.95 -2.97 c 
        0.0 -1.64 -1.32 -2.97 -2.95 -2.97 c -0.23 0.0 -0.45 0.03 -0.66 0.08 l -6.22 -11.04 c 2.07 -1.04 4.41 -1.63 6.88 
        -1.63 c 8.53 0.0 15.44 6.96 15.44 15.55 C 95.2 69.42 88.29 76.38 79.76 76.38 z"/>
</svg>