<?xml version="1.0" standalone="no"?>
<!--Created with Sketsa SVG Editor (http://www.kiyut.com)-->
<?xml-stylesheet type="text/css" href="..\transportation.css" ?>
<svg contentScriptType="text/ecmascript" width="100.0px" xmlns:xlink="http://www.w3.org/1999/xlink" baseProfile="full"
    zoomAndPan="magnify" contentStyleType="text/css" height="100.0px" preserveAspectRatio="xMidYMid meet" xmlns="http://www.w3.org/2000/svg"
    version="1.0">
    <path d="M 76.49 55.93 c -1.97 0.0 -3.57 1.61 -3.57 3.6 s 1.6 3.6 3.57 3.6 c 1.97 0.0 3.57 -1.61 3.57 -3.6 S 78.46 
        55.93 76.49 55.93 z M 76.49 61.62 c -1.14 0.0 -2.07 -0.93 -2.07 -2.09 s 0.93 -2.09 2.07 -2.09 s 2.07 0.93 2.07 
        2.09 S 77.63 61.62 76.49 61.62 z"/>
    <path d="M 17.63 55.93 c -1.97 0.0 -3.57 1.61 -3.57 3.6 s 1.6 3.6 3.57 3.6 s 3.57 -1.61 3.57 -3.6 S 19.61 55.93 
        17.63 55.93 z M 17.63 61.62 c -1.14 0.0 -2.07 -0.93 -2.07 -2.09 s 0.93 -2.09 2.07 -2.09 s 2.07 0.93 2.07 2.09 S 
        18.78 61.62 17.63 61.62 z"/>
    <circle cx="17.63" r="0.71" cy="59.46"/>
    <circle cx="76.49" r="0.71" cy="59.46"/>
    <rect x="19.03" width="25.94" y="36.83" height="3.87"/>
    <polygon points="17.63,36.83 14.33,39.76 14.33,40.71 18.58,40.71 18.58,36.83"/>
    <rect x="45.41" width="25.94" y="36.83" height="3.87"/>
    <polygon points="72.75,36.83 76.05,39.76 76.05,40.71 71.8,40.71 71.8,36.83"/>
    <path d="M 99.44 58.15 l -1.14 -0.97 L 96.54 41.1 H 2.36 v 3.48 H 3.82 c 0.0 0.0 -1.35 2.46 -1.6 4.77 l -0.75 9.33 l 
        -1.04 0.06 L 0.28 60.97 h 13.0 c -0.15 -0.45 -0.23 -0.94 -0.23 -1.44 c 0.0 -2.55 2.05 -4.62 4.58 -4.62 s 4.58 
        2.07 4.58 4.62 c 0.0 0.5 -0.08 0.99 -0.23 1.44 h 50.15 c -0.15 -0.45 -0.23 -0.94 -0.23 -1.44 c 0.0 -2.55 2.05 
        -4.62 4.58 -4.62 s 4.58 2.07 4.58 4.62 c 0.0 0.5 -0.08 0.99 -0.23 1.44 h 5.26 l 12.14 -1.37 H 99.44 V 58.15 z M 
        12.56 51.88 c 0.0 0.9 -0.73 1.64 -1.63 1.64 H 5.76 c -0.9 0.0 -1.63 -0.73 -1.63 -1.64 v -5.02 c 0.0 -0.91 0.73 
        -1.64 1.63 -1.64 h 5.17 c 0.9 0.0 1.63 0.73 1.63 1.64 V 51.88 z M 79.89 45.23 h 7.29 c 0.86 0.0 1.57 0.68 1.62 
        1.54 H 78.27 C 78.32 45.91 79.03 45.23 79.89 45.23 z M 67.08 45.23 h 7.29 c 0.86 0.0 1.57 0.68 1.62 1.54 H 65.46 
        C 65.51 45.91 66.22 45.23 67.08 45.23 z M 54.11 45.23 h 7.61 c 0.86 0.0 1.57 0.68 1.62 1.54 H 52.49 C 52.54 
        45.91 53.25 45.23 54.11 45.23 z M 41.31 45.23 h 7.61 c 0.86 0.0 1.57 0.68 1.62 1.54 H 39.68 C 39.74 45.91 40.44 
        45.23 41.31 45.23 z M 28.5 45.23 h 7.61 c 0.86 0.0 1.57 0.68 1.62 1.54 H 26.88 C 26.93 45.91 27.63 45.23 28.5 
        45.23 z M 15.69 45.23 h 7.61 c 0.86 0.0 1.57 0.68 1.62 1.54 H 14.07 C 14.12 45.91 14.82 45.23 15.69 45.23 z M 
        23.3 53.52 H 15.69 c -0.9 0.0 -1.63 -0.73 -1.63 -1.64 v -4.52 h 10.86 v 4.52 C 24.92 52.79 24.2 53.52 23.3 53.52 
        z M 36.11 53.52 h -7.61 c -0.9 0.0 -1.63 -0.73 -1.63 -1.64 v -4.52 H 37.73 v 4.52 C 37.73 52.79 37.0 53.52 36.11 
        53.52 z M 48.92 53.52 h -7.61 c -0.9 0.0 -1.63 -0.73 -1.63 -1.64 v -4.52 h 10.86 v 4.52 C 50.54 52.79 49.81 
        53.52 48.92 53.52 z M 61.72 53.52 h -7.61 c -0.9 0.0 -1.63 -0.73 -1.63 -1.64 v -4.52 h 10.86 v 4.52 C 63.35 
        52.79 62.62 53.52 61.72 53.52 z M 74.37 52.03 h -7.29 c -0.9 0.0 -1.63 -0.73 -1.63 -1.64 v -3.03 h 10.54 v 3.03 
        C 76.0 51.3 75.27 52.03 74.37 52.03 z M 87.18 52.03 h -7.29 c -0.9 0.0 -1.63 -0.73 -1.63 -1.64 v -3.03 h 10.54 v 
        3.03 C 88.81 51.3 88.08 52.03 87.18 52.03 z"/>
</svg>