<?xml version="1.0" standalone="no"?>
<!--Created with Sketsa SVG Editor (http://www.kiyut.com)-->
<?xml-stylesheet type="text/css" href="..\transportation.css" ?>
<svg contentScriptType="text/ecmascript" width="100.0px" xmlns:xlink="http://www.w3.org/1999/xlink" baseProfile="full"
    zoomAndPan="magnify" contentStyleType="text/css" height="100.0px" preserveAspectRatio="xMidYMid meet" xmlns="http://www.w3.org/2000/svg"
    version="1.0">
    <path d="M 99.63 59.86 l -6.89 -48.15 c 0.0 0.0 -1.57 -11.08 -12.78 -11.08 H 20.17 C 8.96 0.63 7.38 11.71 7.38 11.71 
        L 0.5 59.86 l 2.75 15.92 L 1.48 77.99 v 11.28 h 7.47 v 10.07 h 18.09 v -10.07 h 46.02 v 10.07 h 18.1 v -10.07 h 
        7.47 V 77.99 l -1.77 -2.22 L 99.63 59.86 z M 29.51 3.04 h 41.11 v 11.28 H 29.51 V 3.04 z M 9.25 19.97 l 18.49 
        -2.02 h 19.47 v 30.62 H 5.71 L 9.25 19.97 z M 26.31 69.33 c 0.0 2.45 -1.94 4.43 -4.33 4.43 c -1.84 0.0 -3.4 
        -1.17 -4.03 -2.82 c -0.63 1.65 -2.2 2.82 -4.03 2.82 c -2.39 0.0 -4.33 -1.99 -4.33 -4.43 c 0.0 -2.45 1.94 -4.43 
        4.33 -4.43 c 1.84 0.0 3.4 1.17 4.03 2.82 c 0.63 -1.65 2.2 -2.82 4.03 -2.82 C 24.38 64.89 26.31 66.88 26.31 69.33 
        z M 91.56 80.21 H 8.56 v -1.61 h 83.0 V 80.21 z M 73.81 69.33 c 0.0 -2.45 1.94 -4.43 4.33 -4.43 c 1.84 0.0 3.4 
        1.17 4.03 2.82 c 0.63 -1.65 2.2 -2.82 4.03 -2.82 c 2.39 0.0 4.33 1.98 4.33 4.43 c 0.0 2.45 -1.94 4.43 -4.33 4.43 
        c -1.84 0.0 -3.4 -1.17 -4.03 -2.82 c -0.63 1.65 -2.2 2.82 -4.03 2.82 C 75.75 73.76 73.81 71.78 73.81 69.33 z M 
        52.91 48.58 V 17.95 H 72.39 l 18.49 2.02 l 3.54 28.61 H 52.91 z"/>
</svg>