<?xml version="1.0" standalone="no"?>
<!--Created with Sketsa SVG Editor (http://www.kiyut.com)-->
<?xml-stylesheet type="text/css" href="..\transportation.css" ?>
<svg contentScriptType="text/ecmascript" width="100.0px" xmlns:xlink="http://www.w3.org/1999/xlink" baseProfile="full"
    zoomAndPan="magnify" contentStyleType="text/css" height="100.0px" preserveAspectRatio="xMidYMid meet" xmlns="http://www.w3.org/2000/svg"
    version="1.0">
    <path d="M 87.29 15.22 c -1.1 -5.45 -4.62 -7.62 -9.93 -9.78 C 72.17 3.3 59.69 0.74 50.46 0.67 c -9.24 0.08 -21.72 
        2.63 -26.95 4.77 c -5.27 2.17 -8.8 4.34 -9.88 9.78 L 9.67 45.28 v 41.47 h 6.84 v 6.47 c -0.03 7.95 11.74 7.95 
        11.75 0.0 v -6.47 h 21.74 h 0.05 H 72.67 v 6.47 c -0.01 7.95 11.76 7.95 11.75 0.0 v -6.47 h 6.84 V 45.28 L 87.29 
        15.22 z M 33.66 8.27 h 16.39 h 17.21 c 3.29 -0.01 3.29 4.88 0.0 4.89 H 49.99 H 33.66 C 30.36 13.14 30.36 8.26 
        33.66 8.27 z M 22.35 73.77 c -3.1 -0.01 -5.63 -2.5 -5.63 -5.6 c -0.0 -3.05 2.53 -5.54 5.63 -5.54 c 3.14 0.0 5.67 
        2.49 5.68 5.54 C 28.02 71.26 25.49 73.75 22.35 73.77 z M 50.05 48.44 H 20.09 c -2.92 0.03 -3.54 -2.05 -3.25 
        -4.13 l 3.09 -21.85 c 0.43 -2.63 1.34 -4.38 4.85 -4.4 h 25.21 h 26.15 c 3.5 0.02 4.41 1.77 4.85 4.4 l 3.09 21.85 
        c 0.27 2.08 -0.35 4.16 -3.26 4.13 H 50.05 z M 78.51 73.77 c -3.1 -0.01 -5.63 -2.5 -5.63 -5.6 c 0.0 -3.05 2.53 
        -5.54 5.63 -5.54 c 3.14 0.0 5.67 2.49 5.68 5.54 C 84.18 71.26 81.65 73.75 78.51 73.77 z"/>
    <path d="M 50.05 0.66 c 0.13 0.0 0.28 0.01 0.41 0.01 c 0.14 -9.85E-4 0.28 -0.01 0.41 -0.01 H 50.05 z"/>
</svg>