<?xml version="1.0" standalone="no"?>
<!--Created with Sketsa SVG Editor (http://www.kiyut.com)-->
<?xml-stylesheet type="text/css" href="..\transportation.css" ?>
<svg contentScriptType="text/ecmascript" width="100.0px" xmlns:xlink="http://www.w3.org/1999/xlink" baseProfile="full"
    zoomAndPan="magnify" contentStyleType="text/css" height="100.0px" preserveAspectRatio="xMidYMid meet" xmlns="http://www.w3.org/2000/svg"
    version="1.0">
    <path d="M 99.43 46.64 c -0.05 -0.28 -0.16 -0.62 -0.36 -1.06 L 80.47 30.69 h -37.42 c -0.87 -0.05 -1.34 0.36 -1.75 
        0.84 L 28.8 44.17 L 1.44 48.75 C 1.06 49.09 0.68 49.42 0.37 50.28 l 0.06 9.49 c 0.59 1.52 1.0 1.32 1.45 1.54 h 
        5.27 c 0.0 -12.9 19.06 -12.86 19.06 0.0 h 48.59 c 0.0 -12.93 18.91 -12.91 18.91 0.0 h 4.32 c 0.72 -0.07 1.13 
        -0.71 1.48 -1.47 L 99.43 46.64 z M 59.26 46.03 H 33.34 c -0.99 -0.39 -1.12 -0.99 -0.71 -1.71 l 9.32 -9.28 c 0.21 
        -0.18 0.38 -0.43 0.74 -0.37 h 16.57 V 46.03 z M 86.11 46.03 H 62.34 V 34.66 h 13.94 c 0.36 -0.06 0.53 0.19 0.74 
        0.37 l 7.99 8.11 C 85.75 44.27 87.23 45.8 86.11 46.03 z M 16.63 53.52 c -4.27 0.0 -7.74 3.49 -7.74 7.8 s 3.46 
        7.8 7.74 7.8 s 7.74 -3.49 7.74 -7.8 S 20.9 53.52 16.63 53.52 z M 16.63 64.6 c -1.8 0.0 -3.27 -1.47 -3.27 -3.29 c 
        0.0 -1.82 1.46 -3.29 3.27 -3.29 c 1.8 0.0 3.26 1.47 3.26 3.29 C 19.89 63.13 18.43 64.6 16.63 64.6 z M 84.25 
        53.52 c -4.27 0.0 -7.74 3.49 -7.74 7.8 s 3.46 7.8 7.74 7.8 s 7.73 -3.49 7.73 -7.8 S 88.52 53.52 84.25 53.52 z M 
        84.25 64.6 c -1.8 0.0 -3.27 -1.47 -3.27 -3.29 c 0.0 -1.82 1.46 -3.29 3.27 -3.29 c 1.8 0.0 3.26 1.47 3.26 3.29 C 
        87.51 63.13 86.05 64.6 84.25 64.6 z"/>
</svg>