<?xml version="1.0" standalone="no"?>
<!--Created with Sketsa SVG Editor (http://www.kiyut.com)-->
<?xml-stylesheet type="text/css" href="..\transportation.css" ?>
<svg contentScriptType="text/ecmascript" width="100.0px" xmlns:xlink="http://www.w3.org/1999/xlink" baseProfile="full"
    zoomAndPan="magnify" contentStyleType="text/css" height="100.0px" preserveAspectRatio="xMidYMid meet" xmlns="http://www.w3.org/2000/svg"
    version="1.0">
    <path d="M 90.38 35.57 L 82.3 14.4 C 80.79 10.35 77.48 6.9 71.23 6.88 h -11.4 H 40.34 H 28.74 c -6.22 0.03 -9.53 
        3.48 -11.07 7.53 L 9.59 35.57 C 6.38 35.99 0.7 39.82 0.71 47.06 v 26.95 h 7.89 v 8.6 c -0.02 10.61 14.78 10.48 
        14.78 0.0 v -8.6 H 50.02 h 26.58 v 8.6 c 0.03 10.48 14.84 10.61 14.85 0.0 v -8.6 h 7.89 V 47.06 C 99.31 39.82 
        93.62 35.99 90.38 35.57 z M 16.22 57.75 c -3.78 0.01 -6.84 -3.19 -6.83 -7.12 c -0.02 -3.96 3.05 -7.16 6.83 -7.13 
        c 3.77 -0.03 6.83 3.17 6.83 7.13 C 23.05 54.56 19.99 57.76 16.22 57.75 z M 50.02 35.37 h -0.07 H 18.01 l 6.1 
        -16.67 c 0.74 -2.37 1.88 -4.06 4.58 -4.1 h 21.27 H 50.02 H 71.36 c 2.66 0.04 3.8 1.73 4.57 4.1 l 6.1 16.67 H 
        50.02 z M 83.82 57.75 c -3.81 0.01 -6.87 -3.19 -6.89 -7.12 c 0.02 -3.96 3.08 -7.16 6.89 -7.13 c 3.74 -0.03 6.8 
        3.17 6.83 7.13 C 90.63 54.56 87.57 57.76 83.82 57.75 z"/>
</svg>