<?xml version="1.0" standalone="no"?>
<!--Created with Sketsa SVG Editor (http://www.kiyut.com)-->
<?xml-stylesheet type="text/css" href="..\transportation.css" ?>
<svg contentScriptType="text/ecmascript" width="100.0px" xmlns:xlink="http://www.w3.org/1999/xlink" baseProfile="full"
    zoomAndPan="magnify" contentStyleType="text/css" height="100.0px" preserveAspectRatio="xMidYMid meet" xmlns="http://www.w3.org/2000/svg"
    version="1.0">
    <path d="M 98.52 43.7 L 79.28 42.06 L 74.83 33.17 H 40.85 l -7.34 9.82 L 2.72 44.62 L 0.29 57.61 h 7.03 c 0.48 -4.88 
        4.56 -8.69 9.52 -8.69 c 4.96 0.0 9.04 3.81 9.52 8.69 h 43.85 c 0.48 -4.88 4.56 -8.69 9.52 -8.69 c 4.94 0.0 9.0 
        3.78 9.52 8.63 l 8.66 -1.26 C 97.92 56.28 100.58 46.18 98.52 43.7 z M 55.51 43.93 H 35.15 l 6.66 -8.9 h 13.7 V 
        43.93 z M 57.36 43.93 V 35.03 h 12.86 l 4.46 8.9 H 57.36 z M 16.85 50.45 c -4.45 0.0 -8.05 3.64 -8.05 8.13 s 
        3.61 8.13 8.05 8.13 c 4.45 0.0 8.05 -3.64 8.05 -8.13 S 21.3 50.45 16.85 50.45 z M 16.85 63.95 c -2.94 0.0 -5.32 
        -2.4 -5.32 -5.37 s 2.38 -5.37 5.32 -5.37 c 2.94 0.0 5.32 2.4 5.32 5.37 S 19.79 63.95 16.85 63.95 z M 79.74 50.45 
        c -4.45 0.0 -8.05 3.64 -8.05 8.13 s 3.61 8.13 8.05 8.13 c 4.45 0.0 8.05 -3.64 8.05 -8.13 S 84.18 50.45 79.74 
        50.45 z M 79.74 63.95 c -2.94 0.0 -5.32 -2.4 -5.32 -5.37 s 2.38 -5.37 5.32 -5.37 c 2.94 0.0 5.32 2.4 5.32 5.37 S 
        82.67 63.95 79.74 63.95 z"/>
</svg>