<?xml version="1.0" standalone="no"?>
<!--Created with Sketsa SVG Editor (http://www.kiyut.com)-->
<?xml-stylesheet type="text/css" href="..\transportation.css" ?>
<svg contentScriptType="text/ecmascript" width="100.0px" xmlns:xlink="http://www.w3.org/1999/xlink" baseProfile="full"
    zoomAndPan="magnify" contentStyleType="text/css" height="100.0px" preserveAspectRatio="xMidYMid meet" xmlns="http://www.w3.org/2000/svg"
    version="1.0">
    <path d="M 98.33 50.1 c -0.42 -4.14 -0.42 -3.54 -1.96 -8.02 c -1.57 -4.54 -4.87 -13.42 -7.24 -18.67 c -2.42 -5.31 
        -4.99 -9.85 -6.86 -12.65 c -1.85 -2.8 -2.35 -3.03 -4.1 -3.81 c -1.81 -0.79 -4.13 -0.66 -6.45 -0.8 C 69.42 5.94 
        67.01 5.83 64.45 5.83 H 35.22 c -2.62 0.0 -5.09 0.1 -7.4 0.31 c -2.33 0.15 -4.71 0.01 -6.47 0.8 c -1.78 0.77 
        -2.29 1.01 -4.1 3.81 c -1.91 2.8 -4.44 7.34 -6.84 12.65 c -2.39 5.25 -5.7 14.14 -7.23 18.67 c -1.55 4.48 -1.61 
        3.88 -1.97 8.02 C 0.81 54.27 0.07 62.17 0.82 66.57 c 0.71 4.26 2.48 7.14 4.68 9.22 c 2.19 2.07 4.97 3.14 8.41 
        3.22 c -0.19 4.39 -0.19 7.78 9.54E-7 10.24 c 0.1 2.43 -0.07 3.5 0.99 4.42 c 1.07 0.88 3.81 0.92 5.48 1.0 c 1.64 
        0.1 3.41 0.06 4.31 -0.6 c 0.84 -0.74 0.6 -1.31 0.77 -3.83 c 0.14 -2.59 0.23 -6.34 0.2 -11.42 h 47.92 c 0.12 5.09 
        0.26 8.84 0.49 11.42 c 0.19 2.52 -0.07 3.08 0.78 3.83 c 0.89 0.65 2.6 0.7 4.29 0.6 c 1.62 -0.07 4.36 -0.12 5.48 
        -1.0 c 1.01 -0.92 0.84 -1.99 0.99 -4.42 c 0.16 -2.46 0.16 -5.85 0.0 -10.24 c 3.42 -0.08 6.21 -1.15 8.41 -3.22 c 
        2.19 -2.08 3.94 -4.97 4.7 -9.22 C 99.39 62.17 98.74 54.27 98.33 50.1 z M 15.02 68.17 c -5.07 0.0 -9.19 -4.23 
        -9.19 -9.43 c 0.0 -5.21 4.12 -9.43 9.19 -9.43 c 5.07 0.0 9.19 4.23 9.19 9.43 C 24.21 63.94 20.09 68.17 15.02 
        68.17 z M 62.83 66.36 H 36.72 c -2.73 0.0 -4.94 -1.53 -4.94 -3.42 c 0.0 -1.88 2.21 -3.41 4.94 -3.41 h 26.11 c 
        2.73 0.0 4.94 1.53 4.94 3.41 C 67.77 64.83 65.56 66.36 62.83 66.36 z M 62.83 57.12 H 36.72 c -2.73 0.0 -4.94 
        -1.53 -4.94 -3.41 s 2.21 -3.41 4.94 -3.41 h 26.11 c 2.73 0.0 4.94 1.52 4.94 3.41 S 65.56 57.12 62.83 57.12 z M 
        67.01 39.27 c -7.61 0.03 -27.29 0.03 -34.81 0.0 c -7.47 -0.06 -6.82 0.06 -9.79 -0.21 c -3.0 -0.27 -6.51 -0.52 
        -8.02 -1.4 c -1.51 -0.95 -1.33 -2.03 -0.99 -4.02 c 0.36 -2.04 1.62 -5.06 2.94 -8.03 c 1.28 -3.03 3.15 -7.5 4.5 
        -9.84 c 1.28 -2.35 1.9 -3.15 3.32 -4.02 c 1.41 -0.88 3.16 -1.01 5.09 -1.2 c 1.89 -0.25 3.97 -0.3 6.26 -0.19 h 
        28.49 c 2.28 -0.1 4.37 -0.06 6.26 0.19 c 1.88 0.19 3.64 0.33 5.09 1.2 c 1.41 0.86 1.97 1.67 3.32 4.02 c 1.35 
        2.34 3.19 6.8 4.51 9.84 c 1.23 2.98 2.58 5.99 2.93 8.03 c 0.32 1.99 0.49 3.06 -0.99 4.02 c -1.55 0.88 -4.99 1.13 
        -8.02 1.4 C 74.07 39.33 74.51 39.21 67.01 39.27 z M 84.52 68.17 c -5.07 0.0 -9.19 -4.23 -9.19 -9.43 c 0.0 -5.21 
        4.12 -9.43 9.19 -9.43 c 5.07 0.0 9.19 4.23 9.19 9.43 C 93.71 63.94 89.59 68.17 84.52 68.17 z" clip-rule="evenodd"
        fill-rule="evenodd"/>
</svg>