<?xml version="1.0" standalone="no"?>
<!--Created with Sketsa SVG Editor (http://www.kiyut.com)-->
<?xml-stylesheet type="text/css" href="..\transportation.css" ?>
<svg contentScriptType="text/ecmascript" width="100.0px" xmlns:xlink="http://www.w3.org/1999/xlink" baseProfile="full"
    zoomAndPan="magnify" contentStyleType="text/css" height="100.0px" preserveAspectRatio="xMidYMid meet" xmlns="http://www.w3.org/2000/svg"
    version="1.0">
    <path d="M 80.99 36.3 v 10.52 c 0.0 5.15 -1.22 10.24 -3.42 14.91 c -0.73 1.56 -1.58 3.07 -2.56 4.49 c -1.81 2.62 
        -3.79 5.15 -5.14 8.04 c -1.35 2.92 -2.13 6.1 -2.13 9.31 v 8.11 H 54.52 v -8.11 c 0.0 -3.54 0.52 -7.08 1.52 
        -10.47 c 0.91 -3.07 2.2 -6.1 4.04 -8.75 c 0.91 -1.31 1.96 -2.53 2.98 -3.75 c 0.91 -1.09 1.76 -2.19 2.39 -3.46 c 
        1.6 -3.25 2.16 -6.86 2.18 -10.44 l 0.07 -10.39 l -7.68 2.49 c -0.25 0.1 -0.46 0.17 -0.73 0.19 c -0.96 0.08 -1.92 
        -0.4 -2.44 -1.2 c -0.44 -0.69 -0.54 -1.59 -0.28 -2.36 c 0.14 -0.4 0.36 -0.61 0.59 -0.95 L 74.24 10.19 l 17.34 
        24.35 c 0.44 0.61 0.69 0.83 0.72 1.55 c 0.05 1.03 -0.29 1.89 -1.18 2.48 c -0.57 0.38 -1.24 0.48 -1.91 0.38 c 
        -0.19 -0.03 -0.3 -0.1 -0.48 -0.16 L 80.99 36.3 z M 34.66 73.13 l 7.75 -2.47 c 0.34 -0.12 0.51 -0.2 0.86 -0.2 c 
        0.99 0.0 1.74 0.32 2.32 1.13 c 0.51 0.72 0.6 1.69 0.27 2.5 c -0.14 0.36 -0.32 0.51 -0.54 0.81 L 27.91 99.25 L 
        10.9 74.96 c -0.16 -0.24 -0.54 -0.69 -0.65 -1.04 c -0.08 -0.26 -0.14 -0.53 -0.14 -0.79 c -0.01 -1.09 0.72 -2.02 
        1.7 -2.45 c 0.42 -0.19 0.84 -0.26 1.29 -0.17 c 0.21 0.04 0.41 0.05 0.6 0.16 l 7.74 2.47 l -0.06 -10.38 c -0.01 
        -2.43 -0.29 -4.86 -0.98 -7.2 c -0.54 -1.83 -1.31 -3.65 -2.49 -5.18 c -1.05 -1.36 -2.18 -2.65 -3.24 -4.0 c -0.9 
        -1.15 -1.69 -2.38 -2.36 -3.66 C 9.6 37.54 8.25 31.71 8.25 25.93 v -8.16 h 13.24 v 8.16 c 0.0 4.48 1.48 8.94 4.02 
        12.65 c 0.99 1.45 2.03 2.87 3.02 4.31 c 1.06 1.55 1.99 3.19 2.78 4.88 c 2.19 4.68 3.36 9.76 3.36 14.91 V 73.13 z 
        M 56.93 0.62 c -0.06 2.5 -0.12 4.99 -0.29 7.49 c -0.36 5.29 -1.2 10.55 -2.53 15.68 c -1.08 4.17 -2.2 8.4 -4.06 
        12.31 c -0.18 0.38 -0.4 0.76 -0.64 1.11 c -1.01 1.47 -2.37 2.38 -4.14 2.75 c -1.73 0.35 -3.54 -0.11 -4.97 -1.11 
        c -1.01 -0.7 -1.72 -1.76 -2.19 -2.87 c -1.46 -3.49 -2.54 -7.13 -3.47 -10.78 c -1.44 -5.65 -2.59 -11.38 -3.04 
        -17.2 C 31.42 5.55 31.36 3.08 31.3 0.62 H 56.93" clip-rule="evenodd" fill-rule="evenodd"/>
</svg>