<?xml version="1.0" standalone="no"?>
<!--Created with Sketsa SVG Editor (http://www.kiyut.com)-->
<?xml-stylesheet type="text/css" href="..\transportation.css" ?>
<svg contentScriptType="text/ecmascript" width="100.0px" xmlns:xlink="http://www.w3.org/1999/xlink" baseProfile="full"
    zoomAndPan="magnify" contentStyleType="text/css" height="100.0px" preserveAspectRatio="xMidYMid meet" xmlns="http://www.w3.org/2000/svg"
    version="1.0">
    <path d="M 99.49 84.77 c -2.16 0.0 -4.24 -0.49 -6.08 -1.33 c -1.91 -0.88 -4.05 -1.4 -6.29 -1.4 c -2.23 0.0 -4.39 
        0.52 -6.27 1.4 c -1.86 0.85 -3.93 1.33 -6.1 1.33 c -2.15 0.0 -4.23 -0.49 -6.1 -1.33 c -1.9 -0.88 -4.04 -1.4 
        -6.26 -1.4 c -2.25 0.0 -4.37 0.52 -6.3 1.4 c -1.84 0.85 -3.93 1.33 -6.08 1.33 c -2.16 0.0 -4.25 -0.49 -6.09 
        -1.33 c -1.91 -0.88 -4.05 -1.4 -6.28 -1.4 c -2.23 0.0 -4.39 0.52 -6.27 1.4 c -1.85 0.85 -3.93 1.33 -6.09 1.33 c 
        -2.17 0.0 -4.24 -0.49 -6.12 -1.33 c -1.89 -0.88 -4.04 -1.4 -6.26 -1.4 c -2.24 0.0 -4.37 0.52 -6.29 1.4 c -1.85 
        0.85 -3.93 1.33 -6.09 1.33 v -9.2 c 2.16 0.0 4.24 -0.5 6.09 -1.33 c 1.91 -0.88 4.05 -1.4 6.29 -1.4 c 2.22 0.0 
        4.37 0.52 6.26 1.4 c 1.88 0.84 3.94 1.33 6.12 1.33 c 2.16 0.0 4.24 -0.5 6.09 -1.33 c 1.89 -0.88 4.04 -1.4 6.27 
        -1.4 c 2.23 0.0 4.37 0.52 6.28 1.4 c 1.84 0.84 3.93 1.33 6.09 1.33 c 2.15 0.0 4.24 -0.5 6.08 -1.33 c 1.92 -0.88 
        4.05 -1.4 6.3 -1.4 c 2.22 0.0 4.36 0.52 6.26 1.4 c 1.87 0.84 3.95 1.33 6.1 1.33 c 2.17 0.0 4.24 -0.5 6.1 -1.33 c 
        1.89 -0.88 4.04 -1.4 6.27 -1.4 c 2.23 0.0 4.37 0.52 6.29 1.4 c 1.84 0.84 3.92 1.33 6.08 1.33 V 84.77 z M 0.55 
        45.23 L 0.51 66.96 c 2.13 0.0 4.17 -0.48 5.99 -1.32 c 1.88 -0.88 3.98 -1.4 6.18 -1.4 c 2.18 0.0 4.3 0.52 6.15 
        1.4 c 1.84 0.83 3.87 1.32 6.01 1.32 c 2.13 0.0 4.17 -0.48 5.99 -1.32 c 1.85 -0.88 3.97 -1.4 6.17 -1.4 c 2.2 0.0 
        4.3 0.52 6.18 1.4 c 1.81 0.83 3.86 1.32 5.99 1.32 c 2.12 0.0 4.17 -0.48 5.98 -1.32 c 1.89 -0.88 3.98 -1.4 6.19 
        -1.4 c 2.18 0.0 4.29 0.52 6.16 1.4 c 1.84 0.83 3.89 1.32 6.0 1.32 c 0.6 0.0 1.18 -0.13 1.77 -0.19 c 1.07 -0.24 
        2.15 -0.35 3.19 -0.77 l 0.07 -0.04 c 7.73 -3.21 14.4 -11.17 18.56 -17.1 L 99.17 45.23 H 0.55 z M 77.68 20.78 C 
        75.3 15.38 68.91 15.84 68.91 15.84 H 0.51 L 0.5 41.64 h 85.75 L 77.68 20.78 z M 33.33 36.04 c 0.0 0.99 -0.8 1.82 
        -1.78 1.82 h -7.9 c -0.98 0.0 -1.77 -0.82 -1.77 -1.82 V 23.7 c 0.0 -0.99 0.79 -1.8 1.77 -1.8 h 7.9 c 0.98 0.0 
        1.78 0.81 1.78 1.8 V 36.04 z M 49.76 36.04 c 0.0 0.99 -0.79 1.82 -1.76 1.82 h -7.96 c -0.98 0.0 -1.77 -0.82 
        -1.77 -1.82 V 23.7 c 0.0 -0.99 0.79 -1.8 1.77 -1.8 h 7.96 c 0.97 0.0 1.76 0.81 1.76 1.8 V 36.04 z M 16.96 36.04 
        c 0.0 0.99 -0.8 1.82 -1.77 1.82 H 7.22 c -0.98 0.0 -1.77 -0.82 -1.77 -1.82 V 23.7 c 0.0 -0.99 0.79 -1.8 1.77 
        -1.8 h 7.96 c 0.97 0.0 1.77 0.81 1.77 1.8 V 36.04 z M 55.6 21.9 h 14.26 l 0.12 -0.01 h 0.1 c 0.15 -0.01 3.91 
        -0.16 5.17 2.71 l 5.44 13.27 H 62.13 L 55.6 21.9 z"/>
</svg>