<?xml version="1.0" standalone="no"?>
<!--Created with Sketsa SVG Editor (http://www.kiyut.com)-->
<?xml-stylesheet type="text/css" href="..\transportation.css" ?>
<svg contentScriptType="text/ecmascript" width="100.0px" xmlns:xlink="http://www.w3.org/1999/xlink" baseProfile="full"
    zoomAndPan="magnify" contentStyleType="text/css" height="100.0px" preserveAspectRatio="xMidYMid meet" xmlns="http://www.w3.org/2000/svg"
    version="1.0">
    <path d="M 99.33 54.79 h -2.3 l -2.65 -11.3 h -6.41 V 42.37 h 6.41 V 40.84 l -1.56 0.05 l -0.05 -5.16 h 1.65 V 34.33 
        H 48.85 v 1.44 h 0.82 l 0.0 5.07 h -1.02 v 1.53 h 5.46 v 1.12 l -7.04 0.01 V 35.64 h -5.99 v 1.65 l -2.08 0.09 c 
        -0.9 0.04 -1.88 -0.01 -2.6 0.61 c -0.72 0.63 -0.89 1.58 -1.0 2.48 l -0.52 4.1 l -0.3 -3.49 c -0.06 -0.65 -0.31 
        -1.4 -0.86 -1.8 c -0.22 -0.15 -0.46 -0.28 -0.71 -0.38 c 0.2 -0.06 0.38 -0.15 0.54 -0.28 c 0.23 -0.18 0.39 -0.38 
        0.49 -0.64 c 0.09 -0.21 0.12 -0.43 0.14 -0.65 l 1.17 0.87 l 0.13 -0.3 l -1.09 -0.92 c -0.09 -0.24 -0.2 -0.47 
        -0.34 -0.7 c -0.27 -0.45 -0.64 -0.87 -1.06 -1.19 c -0.32 -0.24 -0.68 -0.44 -1.07 -0.53 c -0.23 -0.05 -0.46 -0.07 
        -0.7 -0.06 V 34.55 l -0.17 1.18 h -1.74 v 0.22 c 0.13 0.02 0.27 0.04 0.4 0.06 c 0.11 0.01 0.22 0.02 0.33 0.03 c 
        0.24 0.04 0.49 0.08 0.74 0.13 c -0.14 0.31 -0.25 0.61 -0.3 0.94 c -0.06 0.44 0.06 0.91 0.36 1.24 c 0.24 0.26 
        0.54 0.45 0.85 0.61 c -0.21 0.11 -0.41 0.23 -0.59 0.38 c -0.21 0.19 -0.4 0.39 -0.56 0.62 c -0.14 0.2 -0.24 0.42 
        -0.33 0.65 c -0.09 0.3 -0.18 0.6 -0.25 0.9 c -0.14 0.61 -0.24 1.23 -0.36 1.84 l -0.26 1.39 h -3.13 l -0.78 -3.62 
        l 0.26 -6.1 h -1.13 L 23.86 40.61 L 7.19 42.75 C 6.91 42.79 6.63 42.82 6.36 42.86 C 6.08 42.89 5.8 42.97 5.58 
        43.15 C 5.29 43.38 5.05 43.73 5.02 44.1 l -0.83 9.51 c -0.03 0.36 -0.2 0.72 -0.48 0.96 c -0.27 0.23 -0.61 0.27 
        -0.96 0.26 L 0.33 54.79 v 2.75 h 8.25 c -0.24 1.12 -0.43 2.2 -0.15 3.33 c 0.39 1.54 1.37 2.88 2.69 3.75 c 0.91 
        0.6 2.05 0.77 3.1 0.9 c 1.21 -0.1 2.24 -0.22 3.28 -0.86 c 1.38 -0.84 2.38 -2.23 2.8 -3.78 c 0.29 -1.09 0.09 
        -2.27 -0.13 -3.34 h 45.96 c -0.31 1.13 -0.57 2.21 -0.33 3.37 c 0.32 1.58 1.29 2.98 2.61 3.89 c 0.91 0.63 2.08 
        0.8 3.15 0.93 c 1.23 -0.11 2.29 -0.25 3.34 -0.92 c 1.36 -0.88 2.32 -2.32 2.67 -3.9 c 0.25 -1.11 -0.04 -2.3 -0.33 
        -3.37 H 99.33 V 54.79 z M 88.09 35.77 h 3.47 V 40.83 h -3.47 V 35.77 z M 50.63 40.84 V 35.77 h 3.48 l 0.01 5.07 
        H 50.63 z M 83.36 35.77 h 3.47 V 40.83 h -3.47 V 35.77 z M 78.68 35.77 h 3.47 V 40.83 h -3.47 V 35.77 z M 74.03 
        35.77 h 3.47 V 40.83 H 74.03 V 35.77 z M 69.34 35.77 h 3.47 V 40.83 h -3.47 V 35.77 z M 64.65 35.77 h 3.48 V 
        40.83 H 64.65 V 35.77 z M 59.92 35.77 H 63.4 V 40.83 h -3.47 V 35.77 z M 55.19 35.77 h 3.47 l 0.01 5.07 H 55.19 
        L 55.19 35.77 z M 87.04 43.49 H 55.19 V 42.37 h 31.85 V 43.49 z"/>
</svg>