<?xml version="1.0" standalone="no"?>
<!--Created with Sketsa SVG Editor (http://www.kiyut.com)-->
<?xml-stylesheet type="text/css" href="..\transportation.css" ?>
<svg contentScriptType="text/ecmascript" width="100.0px" xmlns:xlink="http://www.w3.org/1999/xlink" baseProfile="full"
    zoomAndPan="magnify" contentStyleType="text/css" height="100.0px" preserveAspectRatio="xMidYMid meet" xmlns="http://www.w3.org/2000/svg"
    version="1.0">
    <path d="M 67.06 30.91 c 2.42 0.0 4.38 -1.99 4.38 -4.45 s -1.96 -4.45 -4.38 -4.45 l -0.1 0.0 c -2.38 0.06 -4.28 2.03 
        -4.28 4.45 C 62.67 28.92 64.64 30.91 67.06 30.91 z M 99.08 56.98 c -0.0 -2.1 -1.68 -3.81 -3.76 -3.81 V 53.18 H 
        82.07 V 19.34 h 0.0 c 0.0 -2.11 -1.68 -3.82 -3.76 -3.82 L 48.22 15.53 v 0.01 c -1.64 0.06 -3.02 1.19 -3.47 2.72 
        l -9.84E-4 0.0 L 29.02 72.17 H 24.69 L 43.53 7.46 L 39.93 6.38 L 16.52 86.76 L 1.5 83.07 L 0.63 86.77 l 18.49 
        4.54 l 0.91 -3.11 h 8.59 c 1.03 3.22 4.0 5.55 7.51 5.55 s 6.48 -2.33 7.51 -5.55 h 23.21 c 1.88 3.31 5.41 5.55 
        9.44 5.55 c 4.04 0.0 7.56 -2.23 9.44 -5.55 h 13.37 L 99.08 56.98 H 99.08 z M 48.32 19.35 h 0.04 v -0.0 h 29.95 V 
        53.18 l -5.99 -0.0 c 0.66 -0.58 1.06 -1.22 1.13 -1.65 V 32.26 c -0.25 -0.84 -1.08 -1.93 -1.49 -2.02 c -1.59 2.0 
        -4.8 2.86 -8.45 1.09 c 0.0 0.0 -4.07 5.59 -7.61 8.65 c -0.66 0.34 -5.73 1.53 -5.73 1.53 l 0.77 3.94 l 7.6 -1.5 l 
        4.56 -5.13 v 10.8 L 52.5 49.62 v 13.36 H 35.61 L 48.32 19.35 z M 61.37 53.8 v 3.19 v 6.0 h -4.73 v -9.18 H 61.37 
        z M 36.12 90.18 c -2.42 0.0 -4.38 -1.99 -4.38 -4.45 c 0.0 -2.46 1.96 -4.45 4.38 -4.45 c 2.42 0.0 4.38 1.99 4.38 
        4.45 C 40.5 88.19 38.54 90.18 36.12 90.18 z M 76.27 89.67 c -3.8 0.0 -6.88 -3.13 -6.88 -6.99 c 0.0 -3.86 3.08 
        -7.0 6.88 -7.0 s 6.89 3.14 6.89 7.0 C 83.16 86.54 80.07 89.67 76.27 89.67 z M 95.33 84.38 h -8.29 c 0.09 -0.56 
        0.13 -1.13 0.13 -1.71 c 0.0 -6.11 -4.88 -11.07 -10.9 -11.07 s -10.9 4.96 -10.9 11.07 c 0.0 0.58 0.04 1.15 0.13 
        1.71 H 43.89 c -0.63 -3.78 -3.88 -6.67 -7.78 -6.67 s -7.15 2.89 -7.78 6.67 h -7.21 l 2.45 -8.4 l 8.24 0.01 l 
        2.68 -9.19 h 30.63 v -9.81 l 30.19 0.01 V 84.38 z"/>
</svg>