<?xml version="1.0" standalone="no"?>
<!--Created with Sketsa SVG Editor (http://www.kiyut.com)-->
<?xml-stylesheet type="text/css" href="..\transportation.css" ?>
<svg contentScriptType="text/ecmascript" width="100.0px" xmlns:xlink="http://www.w3.org/1999/xlink" baseProfile="full"
    zoomAndPan="magnify" contentStyleType="text/css" height="100.0px" preserveAspectRatio="xMidYMid meet" xmlns="http://www.w3.org/2000/svg"
    version="1.0">
    <path d="M 48.26 29.67 c 0.0 1.3 -1.04 2.3 -2.37 2.3 H 21.14 c -1.33 0.0 -2.37 -1.01 -2.37 -2.3 V 9.11 c 0.0 -1.3 
        1.03 -2.3 2.37 -2.3 H 45.9 c 1.32 0.0 2.37 1.01 2.37 2.3 V 29.67 z M 77.12 32.29 c -3.13 -0.68 -4.27 -2.26 -4.27 
        -3.72 v -5.31 c 0.0 0.0 2.08 0.46 2.58 0.59 c 1.01 0.26 1.66 1.8 1.69 3.14 C 77.15 28.32 77.12 32.29 77.12 32.29 
        z M 83.42 64.57 c 0.0 -0.05 -0.87 -6.53 -0.87 -6.53 V 28.15 c 0.0 -3.2 -1.07 -5.81 -3.27 -7.99 L 65.23 6.38 c 
        -0.97 0.0 -3.66 2.64 -3.66 2.64 c 0.0 0.96 6.98 7.78 6.98 7.78 L 68.34 28.39 c 0.0 4.12 3.4 7.46 7.6 7.46 l 1.88 
        0.03 l -0.67 22.17 l 0.94 7.6 l 4.23 22.43 c 0.16 3.64 -3.23 5.81 -5.89 5.81 c -2.47 0.0 -5.33 -2.01 -5.33 -4.6 
        l 0.05 -39.31 c 0.0 -4.78 -3.94 -8.66 -8.79 -8.66 c 0.0 0.0 -8.44 0.0 -8.48 0.0 c 0.59 -0.03 0.62 -25.74 0.62 
        -31.2 c 0.0 -0.65 0.0 -1.01 0.0 -1.01 C 54.48 4.45 50.63 0.67 45.89 0.67 H 21.14 C 16.41 0.67 12.56 4.45 12.56 
        9.11 V 99.17 h 41.94 l 0.03 -52.32 h 7.92 c 1.82 0.0 3.3 1.46 3.3 3.25 v 39.2 c 0.0 5.26 4.99 9.87 10.69 9.87 c 
        5.38 0.0 11.4 -4.21 11.4 -9.87 C 87.73 87.99 83.42 64.57 83.42 64.57 z"/>
</svg>