<?xml version="1.0" standalone="no"?>
<!--Created with Sketsa SVG Editor (http://www.kiyut.com)-->
<?xml-stylesheet type="text/css" href="..\transportation.css" ?>
<svg contentScriptType="text/ecmascript" width="100.0px" xmlns:xlink="http://www.w3.org/1999/xlink" baseProfile="full"
    zoomAndPan="magnify" contentStyleType="text/css" height="100.0px" preserveAspectRatio="xMidYMid meet" xmlns="http://www.w3.org/2000/svg"
    version="1.0">
    <path d="M 72.12 84.45 c 0.0 0.0 0.73 5.36 7.64 5.36 h 0.13 c 7.04 0.0 7.65 -5.36 7.65 -5.36 V 26.31 c 0.0 -2.86 
        -5.47 -6.91 -5.47 -6.91 L 66.54 9.36 V 0.67 H 26.73 v 92.83 H 12.17 V 99.0 h 74.53 v -5.5 H 66.54 V 43.03 h 4.49 
        c 1.45 0.0 1.09 1.18 1.09 1.18 V 84.45 z M 59.01 27.4 H 34.25 V 6.86 h 24.76 V 27.4 z M 71.39 37.9 h -4.85 V 
        13.57 l 5.7 4.99 v 7.03 h 3.16 v 2.51 c 0.0 0.84 1.21 1.33 1.21 1.33 h 6.07 v 51.89 c 0.0 0.0 0.48 3.23 -2.79 
        3.23 h -0.13 c -3.27 0.0 -2.79 -3.23 -2.79 -3.23 V 44.09 C 76.97 38.12 71.39 37.9 71.39 37.9 z"/>
</svg>