<?xml version="1.0" standalone="no"?>
<!--Created with Sketsa SVG Editor (http://www.kiyut.com)-->
<?xml-stylesheet type="text/css" href="..\transportation.css" ?>
<svg contentScriptType="text/ecmascript" width="100.0px" xmlns:xlink="http://www.w3.org/1999/xlink" baseProfile="full"
    zoomAndPan="magnify" contentStyleType="text/css" height="100.0px" preserveAspectRatio="xMidYMid meet" xmlns="http://www.w3.org/2000/svg"
    version="1.0">
    <path d="M 12.76 7.83 h 48.93 c 1.97 0.0 3.41 1.38 3.41 3.33 v 23.2 c 0.0 1.94 -1.44 3.33 -3.41 3.33 H 12.76 c -1.98 
        0.0 -3.48 -1.38 -3.48 -3.33 V 11.16 C 9.28 9.22 10.78 7.83 12.76 7.83 L 12.76 7.83 z M 98.64 87.1 L 86.0 17.3 c 
        0.0 0.0 0.0 -5.83 -9.49 -5.27 v 6.33 h 2.39 l 12.57 68.87 c 0.0 3.01 -2.66 5.51 -6.01 5.51 c -3.35 0.0 -6.08 
        -2.5 -6.08 -5.51 l 0.06 -24.21 c 0.0 -6.65 1.17 -15.5 -12.63 -15.5 v -2.06 h 6.89 V 1.0 H 0.67 v 44.71 h 6.7 v 
        53.13 h 59.3 V 54.12 c 4.85 -0.31 5.53 0.56 5.53 4.71 v 28.41 c 0.0 6.64 5.94 12.1 13.26 12.1 C 92.77 99.33 
        98.64 93.87 98.64 87.1" clip-rule="evenodd" fill-rule="evenodd"/>
</svg>