<?xml version="1.0" standalone="no"?>
<!--Created with Sketsa SVG Editor (http://www.kiyut.com)-->
<?xml-stylesheet type="text/css" href="..\transportation.css" ?>
<svg contentScriptType="text/ecmascript" width="100.0px" xmlns:xlink="http://www.w3.org/1999/xlink" baseProfile="full"
    zoomAndPan="magnify" contentStyleType="text/css" height="100.0px" preserveAspectRatio="xMidYMid meet" xmlns="http://www.w3.org/2000/svg"
    version="1.0">
    <path d="M 70.1 92.25 h -6.02 v -49.02 c 1.73 0.0 1.59 0.79 1.59 1.31 v 38.14 c 0.0 4.98 3.71 8.39 8.09 8.39 c 4.51 
        0.0 7.96 -3.54 7.96 -8.26 c 0.0 -4.72 -6.36 -18.35 -6.36 -22.81 V 23.57 c 0.0 -2.75 -1.06 -5.11 -2.52 -6.29 l 
        -8.75 -7.08 V 4.56 c 0.0 -2.22 -1.86 -4.06 -4.11 -4.06 H 28.4 C 26.15 0.5 24.29 2.34 24.29 4.56 v 87.69 H 18.28 
        V 99.33 h 51.82 V 92.25 z M 56.12 28.03 H 32.25 c -1.06 0.0 -2.12 -0.92 -2.12 -2.1 V 7.84 c 0.0 -1.18 1.06 -2.1 
        2.12 -2.1 h 23.87 c 1.06 0.0 2.12 0.92 2.12 2.1 v 18.09 C 58.25 27.11 57.18 28.03 56.12 28.03 z M 73.76 87.27 c 
        -2.52 0.0 -4.11 -1.83 -4.11 -4.59 V 40.61 c 0.0 -1.44 -1.72 -2.1 -3.31 -2.1 h -2.26 V 15.57 c 1.06 0.79 1.85 1.7 
        1.85 2.75 v 7.6 h 5.31 v 32.77 c 0.0 8.26 6.63 19.4 6.63 24.12 C 77.87 85.31 76.28 87.27 73.76 87.27 z"/>
</svg>