<?xml version="1.0" standalone="no"?>
<!--Created with Sketsa SVG Editor (http://www.kiyut.com)-->
<?xml-stylesheet type="text/css" href="..\transportation.css" ?>
<svg contentScriptType="text/ecmascript" width="100.0px" xmlns:xlink="http://www.w3.org/1999/xlink" baseProfile="full"
    zoomAndPan="magnify" contentStyleType="text/css" height="100.0px" preserveAspectRatio="xMidYMid meet" xmlns="http://www.w3.org/2000/svg"
    version="1.0">
    <path d="M 42.8 54.45 l -3.8 -9.79 c -0.74 -1.85 -2.3 -3.44 -5.22 -3.46 h -5.41 v -2.54 c 0.0 -1.0 -0.55 -1.52 -1.42 
        -1.53 h -3.18 h -3.13 c -0.9 0.01 -1.45 0.53 -1.47 1.53 v 2.54 H 13.7 c -2.91 0.02 -4.47 1.61 -5.17 3.46 l -3.85 
        9.79 C 3.17 54.63 0.49 56.39 0.5 59.73 V 72.16 h 3.7 v 3.98 c 0.0 4.87 6.99 4.81 6.98 0.0 V 72.16 h 12.58 h 
        12.53 v 3.98 c 0.01 4.81 6.99 4.87 6.98 0.0 V 72.16 h 3.75 V 59.73 C 47.0 56.39 44.32 54.63 42.8 54.45 z M 7.81 
        64.57 C 6.03 64.56 4.59 63.08 4.58 61.26 c 0.0 -1.82 1.44 -3.29 3.23 -3.31 c 1.78 0.02 3.22 1.49 3.23 3.31 C 
        11.03 63.08 9.59 64.56 7.81 64.57 z M 23.76 54.21 h -0.05 H 8.62 l 2.9 -7.53 c 0.36 -1.1 0.9 -1.88 2.18 -1.87 h 
        10.02 h 0.05 h 10.06 c 1.25 -0.01 1.79 0.77 2.14 1.87 l 2.9 7.53 H 23.76 z M 39.67 64.57 c -1.77 -0.02 -3.21 
        -1.49 -3.23 -3.31 c 0.02 -1.82 1.46 -3.29 3.23 -3.31 c 1.8 0.02 3.24 1.49 3.23 3.31 C 42.91 63.08 41.46 64.56 
        39.67 64.57 z M 74.04 18.56 c 0.09 0.0 0.18 0.0 0.26 0.0 C 74.39 18.56 74.48 18.56 74.57 18.56 H 74.04 z M 97.02 
        27.63 c -0.69 -3.38 -2.87 -4.73 -6.12 -6.1 c -3.21 -1.32 -10.89 -2.91 -16.59 -2.97 c -5.69 0.06 -13.38 1.65 
        -16.59 2.97 c -3.25 1.36 -5.42 2.71 -6.08 6.1 l -2.47 18.71 V 72.16 h 4.22 v 4.03 c -0.01 4.94 7.24 4.94 7.26 
        0.0 V 72.16 h 13.39 h 13.96 v 4.03 c -0.01 4.94 7.24 4.94 7.22 0.0 V 72.16 H 99.44 V 46.34 L 97.02 27.63 z M 
        63.98 23.31 h 10.06 h 10.59 c 2.06 -0.01 2.06 3.03 0.0 3.02 H 74.04 H 63.98 C 61.93 26.34 61.93 23.3 63.98 23.31 
        z M 57.0 64.04 c -1.91 0.02 -3.47 -1.53 -3.47 -3.46 c -0.0 -1.9 1.55 -3.45 3.47 -3.45 c 1.93 0.0 3.49 1.55 3.47 
        3.45 C 60.49 62.51 58.93 64.06 57.0 64.04 z M 74.04 48.31 H 55.62 c -1.82 0.01 -2.2 -1.28 -2.04 -2.59 l 1.9 
        -13.58 c 0.28 -1.64 0.85 -2.73 2.99 -2.73 h 15.57 h 16.09 c 2.16 0.01 2.72 1.09 2.99 2.73 l 1.9 13.58 c 0.17 
        1.31 -0.21 2.6 -2.04 2.59 H 74.04 z M 91.61 64.04 c -1.92 0.02 -3.48 -1.53 -3.47 -3.46 c -0.01 -1.9 1.55 -3.45 
        3.47 -3.45 c 1.92 0.0 3.48 1.55 3.47 3.45 C 95.09 62.51 93.53 64.06 91.61 64.04 z"/>
</svg>