<?xml version="1.0" standalone="no"?>
<!--Created with Sketsa SVG Editor (http://www.kiyut.com)-->
<?xml-stylesheet type="text/css" href="..\transportation.css" ?>
<svg contentScriptType="text/ecmascript" width="100.0px" xmlns:xlink="http://www.w3.org/1999/xlink" baseProfile="full"
    zoomAndPan="magnify" contentStyleType="text/css" height="100.0px" preserveAspectRatio="xMidYMid meet" xmlns="http://www.w3.org/2000/svg"
    version="1.0">
    <path id="path3136_2_" d="M 80.1 62.53 h 15.04 v -10.25 h -9.75 L 80.1 62.53 z M 68.32 47.19 V 36.91 H 50.19 V 47.19 
        H 68.32 z"/>
    <path d="M 60.27 34.86 V 22.56 h -2.02 v 12.3 H 60.27 z M 26.35 56.39 L 40.29 12.42 l 19.98 8.13 v -2.05 L 34.06 
        5.17 L 9.21 56.39 h 17.14 z M 86.81 91.3 c -2.98 0.0 -5.81 -0.65 -8.36 -1.81 c -1.41 -0.64 -2.73 -1.42 -3.95 
        -2.35 c -1.22 0.93 -2.54 1.71 -3.95 2.35 c -2.56 1.16 -5.39 1.81 -8.36 1.81 s -5.8 -0.65 -8.36 -1.81 c -1.41 
        -0.64 -2.73 -1.42 -3.95 -2.35 c -1.22 0.93 -2.54 1.71 -3.95 2.35 c -2.56 1.16 -5.39 1.81 -8.36 1.81 c -2.98 0.0 
        -5.81 -0.65 -8.36 -1.81 c -1.4 -0.64 -2.73 -1.42 -3.95 -2.35 c -1.22 0.93 -2.54 1.71 -3.95 2.35 c -2.56 1.16 
        -5.39 1.81 -8.36 1.81 c -4.6 0.0 -8.84 -1.54 -12.28 -4.13 v 5.18 c 3.63 2.1 7.82 3.3 12.28 3.3 c 4.48 0.0 8.68 
        -1.21 12.31 -3.32 c 3.63 2.11 7.84 3.32 12.31 3.32 c 4.47 0.0 8.68 -1.21 12.31 -3.32 c 3.63 2.11 7.84 3.32 12.31 
        3.32 s 8.68 -1.21 12.31 -3.32 c 3.63 2.11 7.84 3.32 12.31 3.32 c 4.43 0.0 8.58 -1.18 12.19 -3.25 v -5.17 C 95.58 
        89.78 91.37 91.3 86.81 91.3 z M 77.97 66.64 l -3.16 6.14 H 34.62 l -8.27 -6.14 H 0.67 l 12.69 20.4 c 2.82 -0.06 
        5.51 -0.69 7.95 -1.8 c 1.4 -0.64 2.73 -1.42 3.95 -2.35 c 1.22 0.93 2.54 1.71 3.95 2.35 c 2.56 1.16 5.39 1.81 
        8.36 1.81 c 2.98 0.0 5.8 -0.65 8.36 -1.81 c 1.4 -0.64 2.73 -1.42 3.95 -2.35 c 1.22 0.93 2.54 1.71 3.95 2.35 c 
        2.56 1.16 5.39 1.81 8.36 1.81 s 5.8 -0.65 8.36 -1.81 c 1.41 -0.64 2.73 -1.42 3.95 -2.35 c 1.22 0.93 2.54 1.71 
        3.95 2.35 c 2.56 1.16 5.39 1.81 8.36 1.81 c 4.56 0.0 8.77 -1.51 12.19 -4.07 v -2.48 V 66.64 H 77.97 z"/>
</svg>