<?xml version="1.0" standalone="no"?>
<!--Created with Sketsa SVG Editor (http://www.kiyut.com)-->
<?xml-stylesheet type="text/css" href="..\transportation.css" ?>
<svg contentScriptType="text/ecmascript" width="100.0px" xmlns:xlink="http://www.w3.org/1999/xlink" baseProfile="full"
    zoomAndPan="magnify" contentStyleType="text/css" height="100.0px" preserveAspectRatio="xMidYMid meet" xmlns="http://www.w3.org/2000/svg"
    version="1.0">
    <path d="M 11.4 23.29 C 5.47 23.3 0.68 28.17 0.67 34.19 c 0.01 5.98 4.81 10.84 10.73 10.84 c 5.9 9.99E-4 10.69 -4.86 
        10.68 -10.84 C 22.09 28.17 17.3 23.3 11.4 23.29 z M 11.4 41.08 c -3.78 -9.99E-4 -6.82 -3.1 -6.84 -6.89 c 0.02 
        -3.84 3.07 -6.94 6.84 -6.95 c 3.75 0.01 6.8 3.1 6.79 6.95 C 18.2 37.99 15.15 41.08 11.4 41.08 z M 45.81 69.02 c 
        -8.18 -0.03 -8.18 11.15 0.0 11.14 h 47.36 c 7.96 0.01 7.96 -11.17 0.0 -11.14 H 45.81 L 45.81 69.02 z M 59.84 
        30.54 L 59.84 20.4 L 55.61 20.4 L 55.61 30.54 L 59.84 30.54 z M 66.29 20.7 L 66.29 18.5 L 49.21 18.5 L 49.21 
        20.7 L 66.29 20.7 z M 67.77 17.0 H 95.09 c 3.64 -0.02 3.64 5.27 0.0 5.25 H 67.77 C 64.24 22.27 64.24 16.98 67.77 
        17.0 L 67.77 17.0 z M 20.46 17.0 h 26.98 c 3.64 -0.02 3.64 5.27 0.0 5.25 h -26.98 C 16.59 22.27 16.54 16.98 
        20.46 17.0 L 20.46 17.0 z M 98.63 53.18 l -5.47 -13.39 c -1.94 -4.91 -6.14 -9.51 -13.69 -9.49 H 11.74 c -4.3 
        -0.02 -5.23 5.67 -1.43 7.15 l 31.16 12.59 l 2.76 6.99 c 0.57 2.19 2.32 4.78 5.81 4.8 h 42.39 C 97.27 61.78 
        100.57 57.77 98.63 53.18 z M 67.17 46.48 h -7.29 V 34.59 h 7.29 V 46.48 z M 78.74 46.48 h -7.24 V 34.59 h 7.24 V 
        46.48 z M 83.17 46.53 V 35.09 c 2.26 0.55 4.52 2.59 6.01 6.0 l 2.31 5.45 H 83.17 z"/>
</svg>