<?xml version="1.0" standalone="no"?>
<!--Created with Sketsa SVG Editor (http://www.kiyut.com)-->
<?xml-stylesheet type="text/css" href="..\transportation.css" ?>
<svg contentScriptType="text/ecmascript" width="100.0px" xmlns:xlink="http://www.w3.org/1999/xlink" baseProfile="full"
    zoomAndPan="magnify" contentStyleType="text/css" height="100.0px" preserveAspectRatio="xMidYMid meet" xmlns="http://www.w3.org/2000/svg"
    version="1.0">
    <path d="M 35.02 62.49 c -0.5 -7.54 -6.71 -13.5 -14.3 -13.5 c -7.6 0.0 -13.81 5.96 -14.31 13.5 H 6.37 H 0.33 V 40.16 
        h 36.66 l 5.93 9.16 h 14.66 l 7.98 -11.89 L 60.19 28.18 L 63.63 26.22 l 9.28 13.94 H 99.33 v 10.02 H 75.18 l 
        -6.16 12.32 H 35.0 H 35.02 z M 20.74 74.49 c -6.01 0.0 -10.91 -4.95 -10.91 -11.02 c 0.0 -6.07 4.89 -11.02 10.91 
        -11.02 s 10.91 4.95 10.91 11.02 C 31.65 69.54 26.76 74.49 20.74 74.49 L 20.74 74.49 z M 20.74 58.87 c -2.51 0.0 
        -4.56 2.06 -4.56 4.6 c 0.0 2.54 2.04 4.6 4.56 4.6 s 4.56 -2.06 4.56 -4.6 C 25.3 60.93 23.26 58.87 20.74 58.87 L 
        20.74 58.87 z M 85.52 74.49 c -6.01 0.0 -10.91 -4.95 -10.91 -11.02 c 0.0 -6.07 4.9 -11.02 10.91 -11.02 c 6.02 
        0.0 10.91 4.95 10.91 11.02 C 96.43 69.54 91.54 74.49 85.52 74.49 L 85.52 74.49 z M 85.52 58.87 c -2.5 0.0 -4.56 
        2.06 -4.56 4.6 c 0.0 2.54 2.05 4.6 4.56 4.6 c 2.53 0.0 4.56 -2.06 4.56 -4.6 C 90.08 60.93 88.05 58.87 85.52 
        58.87 L 85.52 58.87 z"/>
</svg>