<?xml version="1.0" standalone="no"?>
<!--Created with Sketsa SVG Editor (http://www.kiyut.com)-->
<?xml-stylesheet type="text/css" href="..\transportation.css" ?>
<svg contentScriptType="text/ecmascript" width="100.0px" xmlns:xlink="http://www.w3.org/1999/xlink" baseProfile="full"
    zoomAndPan="magnify" contentStyleType="text/css" height="100.0px" preserveAspectRatio="xMidYMid meet" xmlns="http://www.w3.org/2000/svg"
    version="1.0">
    <path d="M 78.13 70.68 c 2.69 0.0 4.85 -2.24 4.85 -5.01 c 0.0 -2.73 -2.16 -4.97 -4.85 -4.97 c -2.7 0.0 -4.87 2.24 
        -4.87 4.97 C 73.27 68.44 75.43 70.68 78.13 70.68 z M 66.89 65.68 c 0.0 -6.34 5.02 -11.49 11.24 -11.49 c 6.19 0.0 
        11.21 5.16 11.21 11.49 c 0.0 6.37 -5.02 11.52 -11.21 11.52 C 71.92 77.2 66.89 72.04 66.89 65.68 z M 94.83 53.37 
        l -0.02 -11.6 c 0.0 -4.62 -4.01 -4.13 -4.01 -4.13 H 68.11 L 59.84 23.33 h -4.87 l 8.28 14.3 l -6.27 10.87 l 
        -14.29 -0.02 c -4.94 -10.39 -14.97 -9.74 -14.97 -9.74 H 0.61 v 24.69 h 3.87 c 0.52 -8.4 8.39 -15.06 16.71 -15.06 
        c 8.32 0.0 16.21 6.68 16.71 15.06 l 23.56 0.02 c 0.5 -8.41 8.39 -15.08 16.71 -15.08 c 8.32 0.0 16.23 6.67 16.71 
        15.1 l 1.46 0.01 c 1.62 0.0 2.93 -1.35 2.93 -3.01 v -7.11 h -4.45 V 53.37 z M 21.15 70.68 c 2.69 0.0 4.88 -2.24 
        4.88 -5.01 c 0.0 -2.73 -2.18 -4.97 -4.88 -4.97 c -2.68 0.0 -4.86 2.24 -4.86 4.97 C 16.29 68.44 18.47 70.68 21.15 
        70.68 z M 9.93 65.68 c 0.0 -6.34 5.03 -11.49 11.22 -11.49 c 6.21 0.0 11.22 5.16 11.22 11.49 c 0.0 6.37 -5.01 
        11.52 -11.22 11.52 C 14.96 77.2 9.93 72.04 9.93 65.68 z"/>
</svg>