<?xml version="1.0" standalone="no"?>
<!--Created with Sketsa SVG Editor (http://www.kiyut.com)-->
<?xml-stylesheet type="text/css" href="..\transportation.css" ?>
<svg contentScriptType="text/ecmascript" width="100.0px" xmlns:xlink="http://www.w3.org/1999/xlink" baseProfile="full"
    zoomAndPan="magnify" contentStyleType="text/css" height="100.0px" preserveAspectRatio="xMidYMid meet" xmlns="http://www.w3.org/2000/svg"
    version="1.0">
    <path id="path5334" d="M 0.52 26.45 L 0.5 8.32 l 40.47 5.48 l 0.02 7.23 L 0.52 26.45 z M 99.13 8.32 v 18.13 l -40.47 
        -5.47 v -7.23 L 99.13 8.32 z M 35.5 8.98 c -0.24 0.12 -0.37 0.34 -0.37 0.61 c 0.0 0.36 0.27 0.65 0.63 0.65 H 
        63.85 c 0.35 0.0 0.64 -0.29 0.64 -0.65 c 0.0 -0.27 -0.15 -0.49 -0.37 -0.61 L 49.81 0.5 L 35.5 8.98 z M 71.6 
        99.22 l -9.57 -72.18 h 2.45 c 0.72 -7.63E-6 1.3 -0.61 1.3 -1.34 c 0.0 -0.76 -0.58 -1.37 -1.3 -1.37 h -29.35 c 
        -0.72 0.0 -1.3 0.61 -1.3 1.37 c 0.0 0.73 0.58 1.34 1.3 1.34 h 2.45 l -9.57 72.18 H 71.6 z"/>
</svg>