<?xml version="1.0" standalone="no"?>
<!--Created with Sketsa SVG Editor (http://www.kiyut.com)-->
<?xml-stylesheet type="text/css" href="..\transportation.css" ?>
<svg contentScriptType="text/ecmascript" width="100.0px" xmlns:xlink="http://www.w3.org/1999/xlink" baseProfile="full"
    zoomAndPan="magnify" contentStyleType="text/css" height="100.0px" preserveAspectRatio="xMidYMid meet" xmlns="http://www.w3.org/2000/svg"
    version="1.0">
    <path d="M 91.17 46.77 l 1.03 -3.81 l -0.82 -1.2 H 70.32 l 1.48 -5.01 l -0.76 -1.11 H 57.93 c -1.24 1.1 0.47 3.66 
        0.47 3.66 l 3.05 1.44 l -5.67 14.25 H 44.82 l -1.05 -1.2 c 0.0 0.0 1.91 -2.25 1.91 -2.25 l -7.39 -15.89 H 28.33 
        l -1.0 -1.15 l 1.62 -4.67 c 0.0 0.0 3.15 -1.54 3.15 -1.54 l -0.72 -1.54 l 6.81 -3.66 L 37.1 21.0 L 25.61 26.15 l 
        -0.81 3.18 l -7.18 -0.75 c -0.48 1.01 -0.76 2.15 -0.76 3.35 c 0.0 1.58 0.47 3.05 1.27 4.27 l 5.14 -1.29 l -2.47 
        9.27 c -1.2 -0.25 -2.45 -0.39 -3.73 -0.39 c -3.16 0.0 -6.14 0.82 -8.73 2.26 l 0.79 1.4 C 3.99 50.3 0.5 55.82 0.5 
        62.16 c 0.0 9.25 7.42 16.75 16.57 16.75 c 7.13 0.0 13.21 -4.56 15.55 -10.95 l 1.49 0.59 c 0.73 -1.99 1.13 -4.15 
        1.13 -6.4 c 0.0 -7.77 -4.77 -14.4 -11.52 -17.09 l 0.7 -2.07 h 2.33 l 15.23 17.84 c -0.45 0.78 -0.72 1.69 -0.72 
        2.67 c 0.0 2.93 2.35 5.31 5.26 5.31 c 0.23 0.0 0.46 -0.02 0.68 -0.05 l 0.0 0.0 l 18.15 -1.93 c 2.01 6.97 8.37 
        12.07 15.91 12.07 c 7.13 0.0 13.21 -4.56 15.55 -10.95 l 1.49 0.59 c 0.73 -1.99 1.13 -4.15 1.13 -6.4 C 99.44 
        55.71 96.15 50.04 91.17 46.77 z M 29.58 62.16 c 0.0 6.98 -5.6 12.64 -12.51 12.64 S 4.56 69.15 4.56 62.16 c 0.0 
        -6.98 5.6 -12.64 12.51 -12.64 c 0.77 0.0 1.52 0.07 2.25 0.21 l -2.53 9.5 c -1.52 0.11 -2.72 1.38 -2.72 2.94 c 
        0.0 1.63 1.31 2.96 2.92 2.96 c 1.61 0.0 2.92 -1.32 2.92 -2.96 c 0.0 -0.95 -0.45 -1.8 -1.15 -2.34 l 3.13 -9.33 C 
        26.42 52.41 29.58 56.91 29.58 62.16 z M 69.2 58.86 c 0.81 -3.02 2.7 -5.6 5.23 -7.27 l 4.22 7.55 L 69.2 58.86 z M 
        81.27 74.81 c -5.44 0.0 -10.06 -3.5 -11.78 -8.4 l 12.08 -1.28 c 1.61 0.0 2.92 -1.32 2.92 -2.96 c 0.0 -1.63 -1.31 
        -2.95 -2.92 -2.95 l -0.43 -0.01 l -4.84 -8.65 c 1.52 -0.67 3.2 -1.04 4.97 -1.04 c 6.91 0.0 12.51 5.66 12.51 
        12.64 C 93.78 69.15 88.18 74.81 81.27 74.81 z"/>
</svg>