<?xml version="1.0" standalone="no"?>
<!--Created with Sketsa SVG Editor (http://www.kiyut.com)-->
<?xml-stylesheet type="text/css" href="..\transportation.css" ?>
<svg contentScriptType="text/ecmascript" width="100.0px" xmlns:xlink="http://www.w3.org/1999/xlink" baseProfile="full"
    zoomAndPan="magnify" contentStyleType="text/css" height="100.0px" preserveAspectRatio="xMidYMid meet" xmlns="http://www.w3.org/2000/svg"
    version="1.0">
    <path d="M 70.83 43.73 c 3.46 -2.63 7.06 -3.07 10.64 -3.61 l 14.11 -0.05 l -0.1 -4.99 H 64.08 c -1.19 0.47 -2.03 
        1.23 -1.36 3.33 L 70.83 43.73 z M 81.88 41.83 c -9.02 9.99E-4 -16.43 6.95 -17.31 15.86 l -11.27 0.67 c -4.1 0.17 
        -6.73 -3.96 -6.07 -6.28 c 0.57 -2.01 1.03 -3.9 0.48 -6.24 l -6.55 -9.46 c -0.73 -0.91 -1.45 -1.02 -2.18 -1.25 l 
        -8.38 -0.01 l 2.14 -5.29 c 0.63 -1.8 1.38 -2.44 2.38 -2.34 h 8.18 L 43.34 22.44 h -8.49 c -2.75 0.2 -4.86 1.7 
        -6.36 4.43 c 0.0 0.0 -3.1 7.67 -6.24 15.42 c -1.36 -0.35 -2.78 -0.53 -4.24 -0.53 C 8.4 41.77 0.61 49.67 0.61 
        59.41 c 0.0 9.74 7.79 17.63 17.4 17.64 c 9.61 -0.0 17.4 -7.89 17.4 -17.64 c -9.92E-4 -6.45 -3.41 -12.08 -8.51 
        -15.16 l 2.39 -5.92 c 1.29 2.62 3.3 4.77 8.8 12.81 c 4.24 6.21 8.14 11.94 14.97 12.15 l 11.83 0.01 c 1.73 7.89 
        8.68 13.79 16.98 13.79 c 9.61 -0.0 17.4 -7.9 17.4 -17.64 C 99.28 49.72 91.49 41.83 81.88 41.83 z M 30.54 59.41 c 
        -9.88E-4 3.51 -1.4 6.67 -3.67 8.98 c -2.28 2.3 -5.39 3.72 -8.86 3.72 c -3.47 -0.0 -6.58 -1.42 -8.86 -3.72 c 
        -2.27 -2.31 -3.67 -5.46 -3.67 -8.98 c 9.87E-4 -3.51 1.4 -6.67 3.67 -8.98 c 2.27 -2.3 5.39 -3.72 8.86 -3.72 c 
        0.81 0.0 1.6 0.08 2.37 0.23 c -2.4 5.95 -4.42 10.98 -4.53 11.3 c -1.21 3.94 3.35 4.94 4.55 2.1 l 4.63 -11.46 c 
        0.66 0.45 1.27 0.97 1.84 1.54 C 29.14 52.73 30.54 55.89 30.54 59.41 z M 90.74 68.44 c -2.28 2.3 -5.39 3.72 -8.86 
        3.72 c -3.47 -0.0 -6.58 -1.42 -8.86 -3.72 c -1.4 -1.42 -2.47 -3.17 -3.08 -5.12 l 15.83 0.02 l 0.08 -6.91 l 
        -16.32 0.97 c 0.43 -2.68 1.69 -5.06 3.5 -6.91 c 2.27 -2.3 5.39 -3.72 8.86 -3.72 c 3.47 0.0 6.58 1.42 8.86 3.72 c 
        2.27 2.3 3.67 5.46 3.67 8.98 C 94.4 62.98 93.01 66.14 90.74 68.44 z"/>
</svg>