<?xml version="1.0" standalone="no"?>
<!--Created with Sketsa SVG Editor (http://www.kiyut.com)-->
<?xml-stylesheet type="text/css" href="..\transportation.css" ?>
<svg contentScriptType="text/ecmascript" width="100.0px" xmlns:xlink="http://www.w3.org/1999/xlink" baseProfile="full"
    zoomAndPan="magnify" contentStyleType="text/css" height="100.0px" preserveAspectRatio="xMidYMid meet" xmlns="http://www.w3.org/2000/svg"
    version="1.0">
    <path d="M 88.06 50.75 l 0.05 -0.76 c 0.0 -2.59 -0.7 -3.85 -2.74 -3.85 H 70.15 c 0.0 -1.69 -0.14 -3.57 -1.81 -5.31 l 
        -7.47 -7.95 c -0.93 -0.95 -1.15 -0.99 -1.85 -1.42 c -0.75 -0.42 -3.9 -1.68 -4.78 -2.06 c -0.88 -0.34 -1.39 -0.42 
        -1.9 -0.38 V 26.85 c 0.51 -0.93 1.11 -0.89 1.16 -3.9 c 0.0 -3.35 -2.13 -6.08 -5.98 -6.08 s -5.7 2.73 -6.08 6.08 
        h 1.35 v 4.69 c 0.0 1.69 1.64 3.07 3.66 3.07 v 0.9 l -4.18 7.1 L 38.33 42.37 c -1.67 1.6 -3.67 0.51 -3.2 -1.18 L 
        38.33 27.65 c 0.23 -0.88 -0.42 -1.78 -1.44 -0.19 l -7.84 12.19 c -1.86 3.01 -6.68 4.65 -9.7 4.65 h -3.85 v 6.41 
        l 0.28 -0.05 c 2.26 0.0 4.42 0.46 6.4 1.28 l -1.0 1.66 c -1.64 -0.62 -3.41 -0.97 -5.26 -0.97 C 7.55 52.62 0.75 
        59.52 0.75 68.01 c 0.0 8.49 6.8 15.39 15.17 15.39 c 8.37 0.0 15.17 -6.9 15.17 -15.39 c 0.0 -4.54 -1.96 -8.61 
        -5.04 -11.43 l 0.98 -1.61 c 3.61 3.19 5.92 7.87 5.92 13.04 c 0.0 3.67 1.71 7.48 7.14 7.48 c 5.38 0.0 9.69 0.0 
        16.0 -0.1 h 11.47 c 2.58 4.76 7.57 8.0 13.3 8.0 c 8.34 0.0 15.11 -6.85 15.16 -15.29 H 99.37 C 99.37 60.34 94.69 
        53.66 88.06 50.75 z M 15.87 77.51 c -5.17 0.0 -9.38 -4.26 -9.38 -9.51 c 9.78E-4 -5.24 4.2 -9.5 9.38 -9.5 c 0.75 
        0.0 1.47 0.1 2.17 0.27 l -2.06 3.4 c -0.04 -9.99E-4 -0.07 -0.01 -0.11 -0.01 c -3.18 0.0 -5.76 2.62 -5.76 5.83 c 
        0.0 3.22 2.58 5.84 5.76 5.84 c 3.17 0.0 5.75 -2.62 5.75 -5.84 c 0.0 -1.06 -0.28 -2.05 -0.77 -2.9 l 2.04 -3.36 c 
        1.45 1.67 2.34 3.86 2.34 6.26 C 25.24 73.25 21.05 77.51 15.87 77.51 z M 47.6 52.58 l -9.65 -3.96 l 11.88 -6.91 c 
        1.35 2.12 2.32 3.11 4.26 4.27 L 47.6 52.58 z M 66.02 64.71 c -0.14 0.74 -0.98 0.62 -0.98 0.0 v -9.92 h 6.22 c 
        0.74 0.0 0.83 0.51 0.42 0.93 C 68.85 57.89 66.77 61.05 66.02 64.71 z M 80.87 77.51 c -5.17 0.0 -9.37 -4.26 -9.37 
        -9.51 c 0.0 -3.34 1.71 -6.28 4.29 -7.97 l 1.23 3.65 c -1.16 1.07 -1.9 2.6 -1.9 4.32 c 0.0 3.22 2.58 5.84 5.76 
        5.84 c 3.17 0.0 5.75 -2.62 5.75 -5.84 c 0.0 -2.91 -2.11 -5.32 -4.86 -5.76 l -1.28 -3.72 c 0.13 -0.01 0.26 -0.02 
        0.39 -0.02 c 5.17 0.0 9.37 4.26 9.37 9.5 C 90.23 73.25 86.03 77.51 80.87 77.51 z"/>
</svg>