<?xml version="1.0" standalone="no"?>
<!--Created with Sketsa SVG Editor (http://www.kiyut.com)-->
<?xml-stylesheet type="text/css" href="..\transportation.css" ?>
<svg contentScriptType="text/ecmascript" width="100.0px" xmlns:xlink="http://www.w3.org/1999/xlink" baseProfile="full"
    zoomAndPan="magnify" contentStyleType="text/css" height="100.0px" preserveAspectRatio="xMidYMid meet" xmlns="http://www.w3.org/2000/svg"
    version="1.0">
    <path d="M 99.13 88.56 c -2.15 0.0 -4.22 -0.49 -6.04 -1.33 c -1.91 -0.89 -4.04 -1.41 -6.25 -1.41 s -4.36 0.52 -6.23 
        1.41 c -1.87 0.84 -3.92 1.33 -6.07 1.33 s -4.22 -0.49 -6.07 -1.33 c -1.89 -0.89 -4.01 -1.41 -6.23 -1.41 c -2.24 
        0.0 -4.36 0.52 -6.25 1.41 c -1.84 0.84 -3.92 1.33 -6.07 1.33 s -4.22 -0.49 -6.04 -1.33 c -1.91 -0.89 -4.04 -1.41 
        -6.25 -1.41 s -4.36 0.52 -6.23 1.41 c -1.84 0.84 -3.92 1.33 -6.07 1.33 s -4.22 -0.49 -6.07 -1.33 c -1.89 -0.89 
        -4.01 -1.41 -6.23 -1.41 s -4.36 0.52 -6.25 1.41 C 4.91 88.07 2.86 88.56 0.71 88.56 v -9.22 c 2.15 0.0 4.2 -0.5 
        6.04 -1.34 c 1.89 -0.89 4.04 -1.41 6.25 -1.41 s 4.34 0.52 6.23 1.41 c 1.84 0.84 3.92 1.34 6.07 1.34 s 4.22 -0.5 
        6.07 -1.34 c 1.87 -0.89 4.01 -1.41 6.23 -1.41 s 4.34 0.52 6.25 1.41 c 1.82 0.84 3.9 1.34 6.04 1.34 s 4.22 -0.5 
        6.07 -1.34 c 1.89 -0.89 4.01 -1.41 6.25 -1.41 c 2.22 0.0 4.34 0.52 6.23 1.41 c 1.84 0.84 3.92 1.34 6.07 1.34 s 
        4.2 -0.5 6.07 -1.34 c 1.87 -0.89 4.01 -1.41 6.23 -1.41 s 4.34 0.52 6.25 1.41 c 1.82 0.84 3.9 1.34 6.04 1.34 V 
        88.56 z M 53.55 50.12 l -8.89 -21.52 l 8.99 -3.83 l -2.31 -5.6 l -6.03 2.57 c 0.0 0.0 -1.2 0.51 -2.95 1.26 L 
        37.89 12.22 l -5.51 2.35 l 4.46 10.79 c -4.7 2.0 -9.62 4.1 -9.62 4.1 l 2.32 5.6 l 9.6 -4.1 l 8.89 21.51 C 29.74 
        60.25 11.91 67.96 13.01 67.96 c 2.22 0.0 4.34 0.52 6.23 1.41 c 1.84 0.84 3.92 1.33 6.07 1.33 s 4.22 -0.49 6.07 
        -1.33 c 1.87 -0.89 4.01 -1.41 6.23 -1.41 s 4.34 0.52 6.25 1.41 c 1.82 0.84 3.9 1.33 6.04 1.33 s 4.22 -0.49 6.07 
        -1.33 c 1.89 -0.89 4.01 -1.41 6.25 -1.41 c 2.22 0.0 4.34 0.52 6.23 1.41 c 1.84 0.84 3.92 1.33 6.07 1.33 c 0.61 
        0.0 1.19 -0.13 1.77 -0.2 c 1.1 -0.24 2.19 -0.34 3.24 -0.77 c 0.02 -0.01 0.05 -0.02 0.07 -0.04 c 1.94 -11.09 6.44 
        -33.28 6.44 -33.28 S 70.37 42.98 53.55 50.12 z"/>
</svg>