<?xml version="1.0" standalone="no"?>
<!--Created with Sketsa SVG Editor (http://www.kiyut.com)-->
<?xml-stylesheet type="text/css" href="..\transportation.css" ?>
<svg contentScriptType="text/ecmascript" width="100.0px" xmlns:xlink="http://www.w3.org/1999/xlink" baseProfile="full"
    zoomAndPan="magnify" contentStyleType="text/css" height="100.0px" preserveAspectRatio="xMidYMid meet" xmlns="http://www.w3.org/2000/svg"
    version="1.0">
    <path d="M 53.68 84.26 c 0.0 -3.18 -2.55 -5.75 -5.73 -5.75 c -3.13 0.0 -5.71 2.58 -5.71 5.75 c 0.0 3.15 2.57 5.73 
        5.71 5.73 C 51.13 89.99 53.68 87.41 53.68 84.26 z M 47.95 97.53 c -7.27 0.0 -13.16 -5.92 -13.16 -13.28 c 0.0 
        -7.33 5.89 -13.28 13.16 -13.28 c 7.31 0.0 13.2 5.95 13.2 13.28 C 61.15 91.61 55.26 97.53 47.95 97.53 z M 0.46 
        2.63 c 5.7 0.0 23.9 8.12 31.21 20.77 l -7.66 6.28 c 0.0 0.0 -8.12 -11.08 -23.54 -13.97 V 2.63 z M 23.55 48.01 c 
        0.0 3.7 2.97 6.71 6.65 6.71 s 6.67 -3.01 6.67 -6.71 c 0.0 -3.68 -6.67 -19.08 -6.67 -19.08 S 23.55 44.34 23.55 
        48.01 z M 75.1 56.44 l 8.69 -14.68 c 1.12 -1.84 1.54 -2.67 2.16 -3.25 c 1.12 -1.05 2.54 -0.98 2.54 -0.98 H 99.33 
        v -5.11 H 88.49 c -4.27 0.0 -6.36 2.32 -6.95 3.25 L 69.19 55.94 l -19.18 -31.92 h -5.93 l 19.75 32.81 c -7.86 
        0.55 -27.16 1.89 -38.24 4.42 c -1.9 0.45 -4.58 3.82 -5.53 10.51 l -1.16 7.85 c 0.0 1.91 1.54 3.46 3.44 3.46 h 
        7.29 c 0.57 -9.69 8.5 -17.41 18.27 -17.41 S 65.61 73.37 66.2 83.04 H 99.33 V 56.44 H 75.1 z"/>
</svg>