<?xml version="1.0" standalone="no"?>
<!--Created with Sketsa SVG Editor (http://www.kiyut.com)-->
<?xml-stylesheet type="text/css" href="..\transportation.css" ?>
<svg contentScriptType="text/ecmascript" width="100.0px" xmlns:xlink="http://www.w3.org/1999/xlink" baseProfile="full"
    zoomAndPan="magnify" contentStyleType="text/css" height="100.0px" preserveAspectRatio="xMidYMid meet" xmlns="http://www.w3.org/2000/svg"
    version="1.0">
    <path d="M 86.07 55.66 c -7.28 0.0 -13.19 5.99 -13.19 13.38 c 0.0 7.37 5.91 13.34 13.19 13.34 c 7.3 0.0 13.19 -5.97 
        13.19 -13.34 C 99.26 61.64 93.37 55.66 86.07 55.66 z M 10.4 71.82 c 1.3 5.99 6.58 10.67 12.87 10.67 c 6.38 0.0 
        11.69 -4.58 12.92 -10.67 H 10.4 z M 85.03 46.55 l -3.43 -11.65 C 81.49 34.46 82.13 34.25 82.13 34.25 l 5.44 
        -1.63 l -0.75 -7.77 L 80.42 24.31 c -1.82 0.23 -2.24 -1.52 -2.24 -1.52 l -0.75 -2.7 c -0.53 -2.05 -2.35 -1.83 
        -2.35 -1.83 H 62.41 c -1.82 1.41 0.32 2.49 0.32 2.49 h 7.78 c 0.75 -0.13 1.17 0.76 1.17 0.76 l 4.32 27.13 c 
        -4.89 2.24 -9.25 6.42 -11.62 12.93 H 50.25 c -9.07 -6.92 -5.01 -16.85 -5.01 -16.85 h 3.51 v -7.22 H 2.59 v 7.22 
        h 7.05 c -9.81 9.51 -9.07 23.55 -9.07 23.55 h 68.49 c 0.45 -9.15 7.87 -16.45 17.01 -16.45 c 3.99 0.0 7.63 1.46 
        10.54 3.78 h 2.65 C 98.68 49.91 92.3 46.42 85.03 46.55 z"/>
</svg>