<?xml version="1.0" standalone="no"?>
<!--Created with Sketsa SVG Editor (http://www.kiyut.com)-->
<?xml-stylesheet type="text/css" href="..\transportation.css" ?>
<svg contentScriptType="text/ecmascript" width="100.0px" xmlns:xlink="http://www.w3.org/1999/xlink" baseProfile="full"
    zoomAndPan="magnify" contentStyleType="text/css" height="100.0px" preserveAspectRatio="xMidYMid meet" xmlns="http://www.w3.org/2000/svg"
    version="1.0">
    <path id="path5518" d="M 95.58 84.19 c -2.01 0.0 -3.94 -0.46 -5.65 -1.23 c -1.75 -0.82 -3.73 -1.31 -5.81 -1.31 c 
        -2.06 0.0 -4.05 0.48 -5.81 1.31 c -1.7 0.77 -3.64 1.23 -5.64 1.23 c -1.98 0.0 -3.92 -0.46 -5.63 -1.23 c -1.77 
        -0.82 -3.75 -1.31 -5.81 -1.31 c -2.06 0.0 -4.05 0.48 -5.8 1.31 c -1.73 0.77 -3.64 1.23 -5.64 1.23 c -2.01 0.0 
        -3.94 -0.46 -5.64 -1.23 c -1.76 -0.82 -3.74 -1.31 -5.81 -1.31 c -2.08 0.0 -4.06 0.48 -5.82 1.31 c -1.7 0.77 
        -3.64 1.23 -5.64 1.23 c -2.01 0.0 -3.92 -0.46 -5.62 -1.23 c -1.78 -0.82 -3.77 -1.31 -5.81 -1.31 c -2.07 0.0 
        -4.06 0.48 -5.81 1.31 c -1.74 0.77 -3.65 1.23 -5.65 1.23 v -8.54 c 2.0 0.0 3.92 -0.46 5.65 -1.23 c 1.75 -0.82 
        3.73 -1.31 5.81 -1.31 c 2.04 0.0 4.02 0.48 5.81 1.31 c 1.7 0.77 3.61 1.23 5.62 1.23 c 2.01 0.0 3.94 -0.46 5.64 
        -1.23 c 1.76 -0.82 3.74 -1.31 5.82 -1.31 c 2.06 0.0 4.05 0.48 5.81 1.31 c 1.7 0.77 3.64 1.23 5.64 1.23 c 2.0 0.0 
        3.92 -0.46 5.64 -1.23 c 1.76 -0.82 3.74 -1.31 5.8 -1.31 c 2.05 0.0 4.03 0.48 5.81 1.31 c 1.71 0.77 3.65 1.23 
        5.63 1.23 c 2.01 0.0 3.94 -0.46 5.64 -1.23 c 1.76 -0.82 3.74 -1.31 5.81 -1.31 c 2.08 0.0 4.06 0.48 5.81 1.31 c 
        1.71 0.77 3.65 1.23 5.65 1.23 V 84.19 z M 74.99 32.11 c -0.27 0.46 -1.79 3.1 -1.79 3.1 s -0.33 0.67 -1.36 0.67 h 
        -5.22 l -2.98 -8.95 c 0.23 -0.05 0.48 -0.09 0.64 -0.12 c 1.87 -0.34 2.51 -0.34 3.89 0.38 c 0.0 0.0 5.95 3.1 6.35 
        3.33 C 75.02 30.76 75.33 31.51 74.99 32.11 M 60.71 27.5 l 2.81 8.38 h -20.78 c -0.45 0.0 -0.93 -0.27 -0.93 -0.99 
        v -1.13 c 0.0 -0.61 0.26 -0.99 0.8 -1.26 c 0.63 -0.29 4.4 -1.81 6.67 -2.42 C 53.39 29.04 57.69 28.1 60.71 27.5 M 
        42.29 60.21 l 3.37 -9.18 h 23.34 l 3.37 9.14 L 42.29 60.21 z M 98.59 60.13 l -23.53 0.02 l -3.39 -9.19 c 2.71 
        -0.44 7.81 -1.26 10.75 -2.11 c 1.27 -0.33 2.57 -1.66 2.94 -2.43 l 7.01 -10.79 v 13.51 c 0.0 1.52 2.24 1.52 2.24 
        0.0 V 35.2 h 0.96 c 2.68 0.0 2.68 -4.06 0.0 -4.06 h -0.96 V 17.65 c 0.0 -1.52 -2.24 -1.52 -2.24 0.0 v 13.49 h 
        -0.65 c -2.39 -0.24 -13.62 -1.45 -15.78 -2.58 c -2.18 -1.16 -4.47 -2.46 -6.6 -3.57 c -1.96 -0.99 -3.1 -0.92 
        -5.22 -0.55 c -1.2 0.24 -8.27 1.57 -15.11 3.32 c -8.45 2.16 -18.89 7.13 -18.89 7.13 l -11.93 0.05 c -2.73 -0.8 
        -3.8 -5.96 -4.99 -8.23 L 10.18 20.58 C 9.96 20.07 9.41 19.92 8.89 19.89 l -7.6 -0.46 c -1.14 -0.07 -0.71 0.9 
        -0.55 1.45 l 5.21 20.65 c 0.55 2.31 3.72 4.51 5.95 4.75 l 30.7 4.76 h 0.39 l -3.37 9.18 l -24.13 0.02 c -0.59 
        0.0 -1.07 0.33 -1.07 0.91 v 1.55 c 0.0 0.65 0.39 1.08 1.07 1.3 c 1.98 0.6 7.94 2.25 15.05 4.0 c 0.25 -0.09 0.5 
        -0.14 0.75 -0.26 c 2.25 -1.06 4.63 -1.59 7.06 -1.59 c 2.44 0.0 4.83 0.53 7.03 1.57 c 1.39 0.65 2.92 0.97 4.42 
        0.97 s 2.99 -0.32 4.37 -0.94 c 2.2 -1.04 4.66 -1.59 7.08 -1.59 c 2.39 0.0 4.85 0.55 7.02 1.57 c 1.41 0.65 2.94 
        0.97 4.42 0.97 c 1.5 0.0 3.03 -0.32 4.37 -0.94 c 2.23 -1.04 4.66 -1.59 7.08 -1.59 c 2.29 0.0 4.58 0.51 6.68 1.43 
        c 5.86 -1.96 7.94 -3.56 7.94 -3.56 c 0.45 -0.38 0.76 -0.77 0.76 -1.37 v -1.6 C 99.5 60.45 99.17 60.13 98.59 
        60.13"/>
</svg>