<?xml version="1.0" standalone="no"?>
<!--Created with Sketsa SVG Editor (http://www.kiyut.com)-->
<?xml-stylesheet type="text/css" href="..\transportation.css" ?>
<svg contentScriptType="text/ecmascript" width="100.0px" xmlns:xlink="http://www.w3.org/1999/xlink" baseProfile="full"
    zoomAndPan="magnify" contentStyleType="text/css" height="100.0px" preserveAspectRatio="xMidYMid meet" xmlns="http://www.w3.org/2000/svg"
    version="1.0">
    <path d="M 50.18 62.09 c 9.23 0.0 17.71 1.65 24.77 4.51 c 0.2 -1.91 0.26 -3.76 0.15 -5.53 c -1.25 -20.81 -3.65 
        -27.43 -10.34 -32.15 L 28.08 65.61 C 34.56 63.37 42.09 62.09 50.18 62.09 z M 26.33 72.06 c 1.77 7.85 5.6 16.75 
        11.08 26.65 c 0.13 0.24 0.27 0.46 0.4 0.68 h 8.83 c -8.46 -14.77 -9.74 -21.31 -8.13 -23.98 c 0.0 0.0 8.95 -0.63 
        11.94 -0.63 c 2.99 0.0 11.94 0.63 11.94 0.63 c 1.61 2.68 0.33 9.21 -8.13 23.98 h 8.32 c 0.13 -0.22 0.26 -0.44 
        0.4 -0.68 c 5.48 -9.9 9.3 -18.8 11.08 -26.64 c -6.69 -2.94 -14.98 -4.72 -23.86 -4.72 C 41.3 67.34 33.02 69.12 
        26.33 72.06 z M 78.87 14.81 l -3.71 -3.71 L 60.11 26.16 c 1.75 0.91 3.29 1.8 4.66 2.76 L 78.87 14.81 z M 74.95 
        66.6 c -0.18 1.76 -0.49 3.58 -0.91 5.46 c 5.7 2.51 10.23 5.85 12.93 9.69 l 3.82 -3.81 C 87.3 73.28 81.8 69.37 
        74.95 66.6 z M 25.27 61.07 c 0.0 -0.03 0.0 -0.05 0.0 -0.08 L 8.82 77.45 l 3.71 3.71 l 0.18 -0.18 l 0.72 0.72 c 
        2.7 -3.82 7.22 -7.14 12.9 -9.64 C 25.44 68.13 25.06 64.46 25.27 61.07 z M 55.35 23.81 v -4.81 c 2.86 -1.74 4.78 
        -4.87 4.78 -8.46 c 0.0 -5.47 -4.44 -9.9 -9.9 -9.9 s -9.9 4.44 -9.9 9.9 c 0.0 3.57 1.9 6.7 4.74 8.44 v 4.82 C 
        30.86 30.67 27.0 32.49 25.27 61.0 l 34.83 -34.84 C 58.66 25.41 57.09 24.65 55.35 23.81 z"/>
</svg>