<?xml version="1.0" standalone="no"?>
<!--Created with Sketsa SVG Editor (http://www.kiyut.com)-->
<?xml-stylesheet type="text/css" href="..\transportation.css" ?>
<svg contentScriptType="text/ecmascript" width="100.0px" xmlns:xlink="http://www.w3.org/1999/xlink" baseProfile="full"
    zoomAndPan="magnify" contentStyleType="text/css" height="100.0px" preserveAspectRatio="xMidYMid meet" xmlns="http://www.w3.org/2000/svg"
    version="1.0">
    <path d="M 56.92 97.35 c 5.07 -2.11 7.43 -1.82 11.59 0.26 c 4.2 2.08 8.37 2.08 13.32 -0.31 c 4.9 -2.39 8.91 -1.03 
        11.16 0.26 c 1.84 1.07 3.7 1.5 6.5 1.5 v -9.54 c -4.21 -0.02 -6.01 -1.39 -6.01 -1.39 c -4.33 -2.53 -8.31 -2.03 
        -13.76 0.67 c -3.13 1.55 -8.07 1.14 -11.59 -0.57 c -4.79 -2.42 -7.52 -1.83 -12.56 0.31 c -3.92 1.65 -7.45 1.65 
        -11.32 0.0 c -5.07 -2.15 -7.67 -2.73 -12.51 -0.31 c -3.48 1.71 -8.49 2.12 -11.59 0.57 c -5.47 -2.7 -9.38 -3.2 
        -13.7 -0.67 c 4.77E-7 0.0 -1.88 1.37 -6.01 1.39 v 9.54 c 2.61 0.0 4.64 -0.48 6.39 -1.5 c 2.22 -1.3 6.36 -2.65 
        11.26 -0.26 c 4.94 2.39 9.12 2.39 13.27 0.31 c 4.2 -2.08 6.51 -2.45 11.59 -0.36 C 47.86 99.64 52.73 99.42 56.92 
        97.35 L 56.92 97.35 z M 93.53 74.2 c -8.52 -4.45 -12.23 0.95 -16.79 0.93 V 53.57 l 7.04 -15.52 c 1.08 -2.37 0.01 
        -4.55 -2.55 -5.62 l -4.28 -1.65 V 17.38 h -8.28 V 10.31 H 57.13 V 0.83 h -7.2 h -7.15 v 9.49 h -11.53 v 7.07 h 
        -8.29 v 13.41 l -4.28 1.65 c -2.56 1.06 -3.63 3.25 -2.55 5.62 l 7.04 15.52 v 21.55 c -4.57 0.02 -8.46 -5.29 
        -16.79 -0.87 c 4.77E-7 0.0 -2.39 1.28 -6.01 1.34 v 9.28 c 2.83 -0.21 4.18 -0.64 6.34 -1.75 c 2.26 -1.23 6.41 
        -2.41 11.32 0.0 c 4.94 2.37 9.12 2.37 13.27 0.31 c 4.2 -2.09 7.84 -2.2 11.75 -0.31 c 4.92 2.37 8.78 2.4 13.76 
        0.05 c 3.99 -1.95 7.6 -1.84 11.75 0.26 c 4.2 2.07 8.37 2.07 13.32 -0.31 c 4.9 -2.41 9.03 -1.2 11.32 0.0 c 2.01 
        1.0 3.42 1.54 6.34 1.75 V 75.54 C 95.84 75.45 93.53 74.2 93.53 74.2 z M 70.84 28.31 l -20.91 -8.2 l -20.85 8.2 v 
        -5.41 h 8.23 v -6.96 h 12.62 h 12.67 v 6.96 h 8.23 V 28.31 z"/>
</svg>