<?xml version="1.0" standalone="no"?>
<!--Created with Sketsa SVG Editor (http://www.kiyut.com)-->
<?xml-stylesheet type="text/css" href="..\transportation.css" ?>
<svg contentScriptType="text/ecmascript" width="100.0px" xmlns:xlink="http://www.w3.org/1999/xlink" baseProfile="full"
    zoomAndPan="magnify" contentStyleType="text/css" height="100.0px" preserveAspectRatio="xMidYMid meet" xmlns="http://www.w3.org/2000/svg"
    version="1.0">
    <path d="M 95.64 57.42 l -2.17 -4.21 H 38.12 l 1.33 -4.21 h 51.84 l -2.17 -4.23 h -4.6 V 34.27 h -8.22 l -5.82 10.51 
        H 45.29 l -3.39 -3.69 l 3.18 -10.19 h 4.32 V 27.95 h -3.39 L 47.35 23.63 h -2.06 l -9.62 17.37 h -8.95 l -3.89 
        8.01 h 8.42 l -2.34 4.21 h -8.12 l -2.06 4.21 H 0.62 l 11.82 18.99 l 0.13 -0.01 c 0.13 0.0 0.26 0.01 0.39 0.01 c 
        0.73 0.0 1.44 -0.04 2.15 -0.12 l 0.38 -0.02 l 1.5 -0.25 l 0.2 -0.07 c 1.38 -0.3 2.71 -0.74 3.97 -1.3 l 0.22 
        -0.07 l 0.24 -0.15 c 1.15 -0.55 2.23 -1.2 3.25 -1.95 l 0.48 -0.29 l 0.07 0.05 c 2.03 1.56 4.37 2.74 6.9 3.44 l 
        0.01 0.0 l 0.01 0.0 c 1.44 0.4 2.94 0.64 4.49 0.7 l 0.11 0.02 l 0.15 -0.01 c 0.19 0.0 0.38 0.01 0.56 0.01 c 1.26 
        0.0 2.49 -0.12 3.69 -0.34 l 0.23 -0.02 l 0.21 -0.07 c 1.42 -0.3 2.79 -0.74 4.08 -1.32 l 0.15 -0.05 l 0.18 -0.11 
        c 1.2 -0.56 2.34 -1.24 3.39 -2.02 l 0.46 -0.28 l 0.05 0.03 c 2.42 1.86 5.26 3.18 8.35 3.79 l 0.08 0.02 l 0.09 
        0.01 c 1.21 0.23 2.46 0.35 3.74 0.35 c 0.21 0.0 0.42 -0.01 0.63 -0.01 l 0.17 0.01 l 0.27 -0.03 c 0.86 -0.05 1.7 
        -0.14 2.53 -0.29 l 0.29 -0.03 l 0.17 -0.06 c 1.46 -0.3 2.86 -0.76 4.19 -1.36 l 0.09 -0.03 l 0.1 -0.06 c 1.27 
        -0.59 2.47 -1.31 3.58 -2.14 l 0.35 -0.21 l 0.24 0.15 c 1.56 1.17 3.29 2.13 5.15 2.81 l 0.1 0.05 l 0.09 0.02 c 
        0.9 0.32 1.83 0.58 2.78 0.77 l 0.13 0.04 l 0.1 0.01 c 1.21 0.23 2.46 0.35 3.74 0.35 c 0.21 0.0 0.42 -0.01 0.63 
        -0.01 l 0.17 0.01 l 0.15 -0.02 c 1.48 -0.07 2.91 -0.3 4.29 -0.67 l 0.15 -0.02 L 92.66 75.63 c 1.42 -0.41 2.78 
        -0.96 4.05 -1.66 l 0.14 -0.06 l 0.27 -0.18 c 0.63 -0.36 1.23 -0.75 1.82 -1.18 L 99.49 72.2 v -0.06 v -6.2 v 
        -8.53 H 95.64 z"/>
</svg>