<?xml version="1.0" standalone="no"?>
<!--Created with Sketsa SVG Editor (http://www.kiyut.com)-->
<?xml-stylesheet type="text/css" href="..\transportation.css" ?>
<svg contentScriptType="text/ecmascript" width="100.0px" xmlns:xlink="http://www.w3.org/1999/xlink" baseProfile="full"
    zoomAndPan="magnify" contentStyleType="text/css" height="100.0px" preserveAspectRatio="xMidYMid meet" xmlns="http://www.w3.org/2000/svg"
    version="1.0">
    <path id="path1888" d="M 70.98 42.24 H 49.36 l -6.64 -3.6 V 28.47 L 85.25 24.5 v 13.27 L 70.98 40.58 L 70.98 42.24 L 
        70.98 42.24 z M 1.99 56.27 L 99.45 56.44 l -0.02 -18.31 l -27.95 6.2 H 30.81 L 1.99 52.11 C 0.29 52.81 -0.28 
        56.27 1.99 56.27 z M 29.72 64.53 c 0.0 3.5 -2.8 6.34 -6.26 6.35 c -3.46 0.01 -6.28 -2.82 -6.29 -6.31 c -0.02 
        -3.5 2.77 -6.35 6.23 -6.38 c 3.46 -0.03 6.29 2.78 6.33 6.28 z M 43.85 64.53 c 0.0 3.5 -2.8 6.34 -6.26 6.35 c 
        -3.46 0.01 -6.28 -2.82 -6.29 -6.31 c -0.02 -3.5 2.77 -6.35 6.23 -6.38 c 3.46 -0.03 6.29 2.78 6.33 6.28 z M 57.73 
        64.53 c 0.0 3.5 -2.8 6.34 -6.26 6.35 c -3.46 0.01 -6.28 -2.82 -6.29 -6.31 c -0.02 -3.5 2.77 -6.35 6.23 -6.38 c 
        3.46 -0.03 6.29 2.78 6.33 6.28 z M 71.95 64.53 c 0.0 3.5 -2.8 6.34 -6.26 6.35 c -3.46 0.01 -6.28 -2.82 -6.29 
        -6.31 c -0.02 -3.5 2.77 -6.35 6.23 -6.38 c 3.46 -0.03 6.29 2.78 6.33 6.28 z M 7.65 58.27 L 4.73 58.41 c -1.63 
        4.1 -0.27 7.85 4.21 10.62 c 5.05 3.13 11.12 6.14 12.88 6.19 l 59.72 0.02 c 1.76 -0.05 7.83 -3.06 12.88 -6.19 c 
        4.48 -2.78 5.84 -6.54 4.21 -10.63 l -2.93 -0.13 c 0.88 3.83 1.64 6.42 -3.85 9.05 c -4.49 2.15 -9.24 4.71 -9.98 
        4.86 l -60.39 -0.01 c -0.74 -0.15 -5.48 -2.72 -9.97 -4.87 C 6.02 64.69 6.77 62.11 7.65 58.27 z M 0.52 30.42 v 
        4.2 l 40.78 1.4 V 30.35 L 0.52 30.42 z M 86.05 64.86 c 0.0 3.5 -2.8 6.34 -6.26 6.35 c -3.46 0.01 -6.28 -2.81 
        -6.29 -6.31 c -0.02 -3.5 2.77 -6.35 6.23 -6.38 c 3.46 -0.03 6.29 2.78 6.33 6.28 z M 94.76 61.91 c 0.0 2.0 -1.6 
        3.61 -3.57 3.62 c -1.97 0.01 -3.58 -1.6 -3.59 -3.6 c -0.01 -1.99 1.58 -3.62 3.55 -3.63 c 1.97 -0.02 3.59 1.59 
        3.61 3.58 z M 15.69 61.91 c 0.0 2.0 -1.6 3.61 -3.57 3.62 c -1.97 0.01 -3.58 -1.6 -3.59 -3.6 c -0.01 -1.99 1.58 
        -3.62 3.55 -3.63 c 1.97 -0.02 3.59 1.59 3.61 3.58 z"/>
</svg>