<?xml version="1.0" standalone="no"?>
<!--Created with Sketsa SVG Editor (http://www.kiyut.com)-->
<?xml-stylesheet type="text/css" href="..\transportation.css" ?>
<svg contentScriptType="text/ecmascript" width="100.0px" xmlns:xlink="http://www.w3.org/1999/xlink" baseProfile="full"
    zoomAndPan="magnify" contentStyleType="text/css" height="100.0px" preserveAspectRatio="xMidYMid meet" xmlns="http://www.w3.org/2000/svg"
    version="1.0">
    <path d="M 90.27 42.17 L 82.17 21.14 c -1.5 -3.97 -4.8 -7.38 -11.03 -7.36 H 59.75 V 8.28 C 59.73 6.09 58.56 4.98 
        56.65 5.0 h -6.7 h -6.58 c -1.93 -0.02 -3.1 1.09 -3.11 3.28 v 5.5 h -11.57 c -6.2 -0.02 -9.5 3.39 -11.03 7.36 L 
        9.56 42.17 c -3.19 0.39 -8.87 4.17 -8.89 11.32 V 80.2 h 7.92 v 8.54 c -0.02 10.47 14.76 10.35 14.74 0.0 V 80.2 h 
        26.62 h 26.56 v 8.54 c 0.02 10.35 14.8 10.47 14.8 0.0 V 80.2 H 99.17 V 53.49 C 99.17 46.34 93.49 42.56 90.27 
        42.17 z M 16.2 63.88 c -3.78 -9.99E-4 -6.84 -3.17 -6.82 -7.05 c -0.02 -3.93 3.04 -7.1 6.82 -7.11 c 3.76 0.01 
        6.82 3.18 6.82 7.11 C 23.02 60.71 19.96 63.87 16.2 63.88 z M 49.95 41.67 h -0.06 H 17.97 l 6.09 -16.27 c 0.75 
        -2.31 1.89 -3.98 4.57 -4.02 h 21.26 h 0.06 h 21.32 c 2.65 0.04 3.79 1.71 4.57 4.02 l 6.09 16.27 H 49.95 z M 
        83.69 63.88 c -3.79 -9.99E-4 -6.85 -3.17 -6.82 -7.05 c -0.02 -3.93 3.03 -7.1 6.82 -7.11 c 3.75 0.01 6.81 3.18 
        6.83 7.11 C 90.5 60.71 87.44 63.87 83.69 63.88 z"/>
</svg>