<?xml version="1.0" standalone="no"?>
<!--Created with Sketsa SVG Editor (http://www.kiyut.com)-->
<?xml-stylesheet type="text/css" href="..\transportation.css" ?>
<svg contentScriptType="text/ecmascript" width="100.0px" xmlns:xlink="http://www.w3.org/1999/xlink" baseProfile="full"
    zoomAndPan="magnify" contentStyleType="text/css" height="100.0px" preserveAspectRatio="xMidYMid meet" xmlns="http://www.w3.org/2000/svg"
    version="1.0">
    <path d="M 67.31 17.33 C 67.31 14.46 69.62 12.14 72.48 12.14 c 2.85 0.0 5.16 2.32 5.16 5.2 c 0.0 2.88 -2.31 5.2 
        -5.16 5.2 C 69.62 22.54 67.31 20.21 67.31 17.33 z M 74.4 24.04 c 0.0 0.0 4.55 -0.44 4.55 4.59 c -0.09 0.0 0.0 
        13.66 0.0 13.66 s 0.17 2.29 -3.07 2.82 c 0.09 -0.08 -14.35 3.17 -14.35 3.17 s -1.05 0.09 -1.4 1.15 c 0.0 0.08 
        -4.03 14.9 -4.03 14.9 s -0.43 2.39 -3.32 1.67 c 0.26 0.0 -2.98 -0.17 -2.19 -3.7 c 0.08 0.09 3.93 -16.23 3.93 
        -16.23 s 0.44 -3.08 4.03 -3.79 c 0.09 0.0 9.72 -1.94 9.72 -1.94 s 0.87 -0.26 0.61 -0.97 c 0.0 -0.09 -1.48 -4.14 
        -1.48 -4.14 s -0.44 -0.71 -1.4 -0.18 c 0.09 0.0 -9.63 4.76 -9.63 4.76 s -2.54 1.15 -3.59 -1.23 c 0.08 0.0 -1.66 
        -2.64 1.05 -4.32 c 0.09 -0.09 17.15 -9.52 17.15 -9.52 S 72.3 23.95 74.4 24.04 z M 13.31 60.98 C 6.16 60.98 0.36 
        66.83 0.36 74.03 s 5.8 13.05 12.95 13.05 c 7.15 0.0 12.96 -5.84 12.96 -13.05 S 20.47 60.98 13.31 60.98 z M 13.31 
        79.33 c -2.9 0.0 -5.25 -2.37 -5.25 -5.29 c 0.0 -2.93 2.35 -5.29 5.25 -5.29 c 2.9 0.0 5.25 2.36 5.25 5.29 C 18.57 
        76.96 16.22 79.33 13.31 79.33 z M 78.96 46.7 c -11.41 0.0 -20.66 9.32 -20.66 20.81 c 0.0 11.5 9.25 20.81 20.66 
        20.81 c 11.4 0.0 20.66 -9.31 20.66 -20.81 C 99.61 56.02 90.36 46.7 78.96 46.7 z M 78.96 75.53 c -4.4 0.0 -7.97 
        -3.59 -7.97 -8.02 s 3.57 -8.02 7.97 -8.02 c 4.4 0.0 7.96 3.59 7.96 8.02 S 83.35 75.53 78.96 75.53 z M 52.72 
        41.19 l -6.29 -6.33 c -0.43 -0.43 -1.19 -0.43 -1.62 0.0 l -1.23 1.24 c -0.22 0.22 -0.33 0.51 -0.33 0.82 s 0.12 
        0.6 0.33 0.82 l 1.31 1.32 c 0.38 0.38 0.38 0.99 0.0 1.37 l -0.99 1.0 c -0.35 0.35 -0.73 0.25 -0.86 -0.24 l -0.62 
        -2.38 c -0.16 -0.6 -0.79 -1.1 -1.41 -1.1 H 1.8 c -0.31 0.0 -0.57 0.12 -0.74 0.34 c -0.17 0.22 -0.22 0.5 -0.14 
        0.81 l 5.32 20.51 c 0.16 0.6 0.79 1.1 1.41 1.1 h 39.21 c 0.31 0.0 0.57 -0.12 0.74 -0.34 s 0.22 -0.5 0.14 -0.81 l 
        -3.27 -12.61 c -0.14 -0.53 0.07 -1.3 0.45 -1.69 l 2.26 -2.28 c 0.36 -0.36 1.0 -0.36 1.36 0.0 l 1.31 1.32 c 0.43 
        0.43 1.19 0.43 1.62 0.0 l 1.23 -1.24 c 0.22 -0.22 0.33 -0.51 0.33 -0.82 S 52.94 41.41 52.72 41.19 z M 49.53 
        66.12 l -0.93 -3.6 c -0.16 -0.6 -0.79 -1.1 -1.41 -1.1 H 22.61 c -0.32 0.0 -0.54 0.1 -0.62 0.28 c -0.08 0.19 
        -0.01 0.42 0.21 0.65 l 3.71 4.09 c 0.41 0.45 1.23 0.81 1.83 0.81 h 20.91 c 0.31 0.0 0.57 -0.12 0.74 -0.34 C 
        49.56 66.71 49.61 66.42 49.53 66.12 z"/>
</svg>