<?xml version="1.0" standalone="no"?>
<!--Created with Sketsa SVG Editor (http://www.kiyut.com)-->
<?xml-stylesheet type="text/css" href="..\transportation.css" ?>
<svg contentScriptType="text/ecmascript" width="100.0px" xmlns:xlink="http://www.w3.org/1999/xlink" baseProfile="full"
    zoomAndPan="magnify" contentStyleType="text/css" height="100.0px" preserveAspectRatio="xMidYMid meet" xmlns="http://www.w3.org/2000/svg"
    version="1.0">
    <path d="M 2.7 0.25 C 2.7 0.25 2.7 0.25 2.7 0.25 C 2.7 0.25 2.7 0.25 2.7 0.25 H 2.68 v 9.97E-4 C 1.74 0.26 0.98 1.04 
        0.98 1.99 s 0.76 1.73 1.7 1.74 V 3.73 L 99.38 12.67 V 0.25 H 2.7 z M 12.36 10.56 c -6.29 0.0 -11.38 5.15 -11.38 
        11.5 s 5.1 11.5 11.38 11.5 c 6.29 0.0 11.38 -5.15 11.38 -11.5 S 18.64 10.56 12.36 10.56 z M 12.36 31.1 c -4.95 
        0.0 -8.95 -4.05 -8.95 -9.05 c -2.38E-7 -5.0 4.01 -9.05 8.95 -9.05 c 4.95 0.0 8.95 4.05 8.95 9.05 C 21.31 27.05 
        17.3 31.1 12.36 31.1 z M 12.39 95.26 H 0.62 v 4.12 h 98.48 v -4.12 H 83.46 c 2.33 -1.57 3.86 -4.25 3.86 -7.29 c 
        0.0 -1.89 -0.6 -3.64 -1.61 -5.07 h 11.59 V 65.83 v -7.68 h -6.09 v 7.68 H 78.9 V 43.72 h 14.35 v -6.19 H 72.75 v 
        6.19 v 10.31 h -22.53 v -6.38 c 0.0 -0.45 -2.33 -3.82 -6.14 -3.83 c -3.81 9.96E-4 -6.14 3.38 -6.14 3.83 v 6.38 h 
        -15.16 V 41.66 h -8.19 v 12.37 H 5.15 v 28.87 h 5.0 c -1.01 1.43 -1.61 3.18 -1.61 5.07 C 8.53 91.01 10.07 93.69 
        12.39 95.26 L 12.39 95.26 z M 39.25 87.98 c 0.0 3.04 1.53 5.71 3.86 7.29 h -21.08 c 2.33 -1.57 3.86 -4.25 3.86 
        -7.29 c 0.0 -1.89 -0.6 -3.64 -1.61 -5.07 h 16.58 C 39.85 84.33 39.25 86.08 39.25 87.98 z M 73.82 95.26 H 52.74 c 
        2.33 -1.57 3.86 -4.25 3.86 -7.29 c 0.0 -1.89 -0.6 -3.64 -1.61 -5.07 h 16.58 c -1.01 1.43 -1.61 3.18 -1.61 5.07 C 
        69.96 91.01 71.5 93.69 73.82 95.26 z M 15.08 18.87 c -0.57 0.57 -1.14 1.14 -1.71 1.71 c 0.0 -1.31 0.0 -2.63 0.0 
        -3.95 c 0.0 -1.32 -2.03 -1.32 -2.03 0.0 c 0.0 2.11 0.0 4.23 0.0 6.34 c -9.87E-4 0.05 0.0 0.1 0.01 0.15 c 0.04 
        0.44 0.31 0.73 0.65 0.84 c 0.32 0.14 0.7 0.12 1.03 -0.17 c 0.01 -0.01 0.02 -0.02 0.03 -0.03 c 0.0 -0.0 0.01 -0.0 
        0.01 -0.01 c 1.15 -1.15 2.29 -2.29 3.44 -3.43 C 17.45 19.38 16.01 17.94 15.08 18.87 z"/>
</svg>