<?xml version="1.0" standalone="no"?>
<!--Created with Sketsa SVG Editor (http://www.kiyut.com)-->
<?xml-stylesheet type="text/css" href="..\transportation.css" ?>
<svg contentScriptType="text/ecmascript" width="100.0px" xmlns:xlink="http://www.w3.org/1999/xlink" baseProfile="full"
    zoomAndPan="magnify" contentStyleType="text/css" height="100.0px" preserveAspectRatio="xMidYMid meet" xmlns="http://www.w3.org/2000/svg"
    version="1.0">
    <path d="M 45.05 7.34 c -1.93 -0.01 -3.51 -1.57 -3.51 -3.48 C 41.54 1.92 43.12 0.35 45.05 0.37 c 1.95 -0.02 3.53 
        1.54 3.51 3.48 C 48.58 5.77 47.0 7.33 45.05 7.34 L 45.05 7.34 z M 54.41 7.34 c 1.94 -0.01 3.51 -1.57 3.51 -3.48 
        c 0.0 -1.94 -1.58 -3.5 -3.51 -3.48 c -1.95 -0.02 -3.53 1.54 -3.51 3.48 C 50.89 5.77 52.46 7.33 54.41 7.34 L 
        54.41 7.34 z M 68.36 77.76 c 4.87 -0.8 9.73 -5.85 9.72 -12.0 V 20.81 C 78.09 14.47 72.7 8.64 65.4 8.65 H 49.78 H 
        34.11 C 26.77 8.64 21.38 14.47 21.39 20.81 v 44.95 c -0.01 6.16 4.85 11.2 9.72 12.0 L 16.5 99.5 h 8.45 l 10.43 
        -15.24 H 49.73 h 14.35 L 74.56 99.5 h 8.4 L 68.36 77.76 z M 41.49 13.29 c 0.0 -1.13 0.97 -2.05 2.08 -2.07 h 6.16 
        h 6.16 c 1.12 0.02 2.09 0.94 2.09 2.07 v 3.53 c 0.0 1.12 -0.92 2.07 -2.09 2.07 H 49.73 h -6.16 c -1.17 0.0 -2.08 
        -0.95 -2.08 -2.07 V 13.29 z M 33.8 71.2 c -3.06 -0.02 -5.55 -2.49 -5.55 -5.55 c -0.01 -3.04 2.49 -5.51 5.55 -5.5 
        c 3.09 -0.02 5.58 2.45 5.6 5.5 C 39.39 68.71 36.89 71.18 33.8 71.2 z M 34.51 41.99 c -3.51 -0.02 -6.37 -2.4 
        -6.36 -6.31 v -8.07 c 0.02 -3.37 2.22 -6.3 6.36 -6.31 H 49.73 h 15.22 c 4.15 0.01 6.34 2.94 6.36 6.31 v 8.07 c 
        0.01 3.91 -2.85 6.29 -6.36 6.31 H 49.73 H 34.51 z M 59.96 65.65 c -0.01 -3.04 2.48 -5.51 5.54 -5.5 c 3.09 -0.02 
        5.58 2.45 5.6 5.5 c -0.02 3.05 -2.51 5.53 -5.6 5.55 C 62.44 71.18 59.95 68.71 59.96 65.65 z"/>
</svg>