<?xml version="1.0" standalone="no"?>
<!--Created with Sketsa SVG Editor (http://www.kiyut.com)-->
<?xml-stylesheet type="text/css" href="..\transportation.css" ?>
<svg contentScriptType="text/ecmascript" width="100.0px" xmlns:xlink="http://www.w3.org/1999/xlink" baseProfile="full"
    zoomAndPan="magnify" contentStyleType="text/css" height="100.0px" preserveAspectRatio="xMidYMid meet" xmlns="http://www.w3.org/2000/svg"
    version="1.0">
    <path d="M 9.69 71.57 c 0.04 6.56 9.32 6.56 9.32 0.06 z M 28.92 71.57 c 0.04 6.56 9.32 6.56 9.32 0.06 z M 20.02 
        74.56 h 7.81 c -0.4 -0.7 -0.58 -1.44 -0.55 -2.95 h -6.57 C 20.66 73.15 20.42 73.86 20.02 74.56 z M 81.14 71.63 c 
        0.0 6.5 9.28 6.5 9.32 -0.06 z M 61.9 71.63 c 0.0 6.5 9.28 6.5 9.32 -0.06 z M 93.14 46.72 h 1.81 v -2.99 H 78.37 
        l -0.82 -1.0 h -7.7 l 11.2 -7.46 L 68.15 26.67 L 55.53 35.26 l 10.95 7.47 h -7.42 l -0.94 1.0 H 50.0 h -8.12 l 
        -0.94 -1.0 h -7.42 l 10.95 -7.47 L 31.85 26.67 L 18.94 35.27 l 11.2 7.46 h -7.7 l -0.82 1.0 H 5.05 v 2.99 h 1.81 
        L 0.61 59.3 v 7.73 c 0.0 1.4 1.63 2.85 2.87 2.85 H 50.0 h 46.52 c 1.24 0.0 2.87 -1.45 2.87 -2.85 v -7.73 L 93.14 
        46.72 z M 12.53 59.56 h -5.39 c -1.24 0.0 -3.34 -1.51 -2.59 -4.35 l 4.13 -8.5 h 3.86 L 12.53 59.56 z M 21.66 
        66.29 c -0.17 0.96 -0.83 1.13 -1.36 1.65 h -4.49 c -0.53 -0.53 -1.2 -0.7 -1.37 -1.66 L 14.44 48.0 c 0.0 -0.41 
        0.57 -0.82 1.23 -1.28 h 4.76 c 0.67 0.47 1.25 0.88 1.25 1.3 L 21.66 66.29 z M 20.89 35.27 l 10.95 -7.31 l 10.72 
        7.3 L 31.85 42.57 L 20.89 35.27 z M 39.86 57.93 c -0.16 0.94 -0.81 1.13 -1.33 1.63 H 25.09 c -0.53 -0.52 -1.22 
        -0.65 -1.39 -1.61 l -0.09 9.99E-4 l 0.02 -9.96 c 0.0 -0.37 0.6 -0.79 1.26 -1.26 h 13.77 c 0.65 0.46 1.21 0.86 
        1.21 1.27 L 39.86 57.93 z M 58.17 57.95 c -0.15 0.95 -0.82 1.1 -1.34 1.6 H 50.0 h -6.83 c -0.53 -0.5 -1.19 -0.65 
        -1.34 -1.6 l -0.0 -10.01 c 0.0 -0.36 0.57 -0.78 1.21 -1.23 H 50.0 h 6.96 c 0.64 0.46 1.21 0.87 1.21 1.23 L 58.17 
        57.95 z M 57.44 35.26 l 10.72 -7.3 l 10.95 7.31 L 68.15 42.57 L 57.44 35.26 z M 76.3 57.94 c -0.17 0.96 -0.86 
        1.09 -1.39 1.62 H 61.48 c -0.52 -0.5 -1.17 -0.68 -1.33 -1.63 l -0.01 -9.94 c 0.0 -0.41 0.56 -0.81 1.21 -1.27 h 
        13.77 c 0.66 0.47 1.26 0.9 1.26 1.26 l 0.02 9.96 L 76.3 57.94 z M 85.55 66.27 c -0.17 0.97 -0.84 1.14 -1.37 1.66 
        H 79.69 c -0.53 -0.51 -1.19 -0.69 -1.35 -1.65 L 78.33 48.02 c 0.0 -0.42 0.58 -0.83 1.25 -1.3 h 4.76 C 84.99 
        47.18 85.56 47.59 85.56 48.0 L 85.55 66.27 z M 92.87 59.56 h -5.39 L 87.46 46.72 h 3.86 l 4.13 8.5 C 96.2 58.06 
        94.11 59.56 92.87 59.56 z"/>
</svg>