<?xml version="1.0" standalone="no"?>
<!--Created with Sketsa SVG Editor (http://www.kiyut.com)-->
<?xml-stylesheet type="text/css" href="..\transportation.css" ?>
<svg contentScriptType="text/ecmascript" width="100.0px" xmlns:xlink="http://www.w3.org/1999/xlink" baseProfile="full"
    zoomAndPan="magnify" contentStyleType="text/css" height="100.0px" preserveAspectRatio="xMidYMid meet" xmlns="http://www.w3.org/2000/svg"
    version="1.0">
    <path d="M 79.8 72.91 c 1.52 -0.32 2.75 -1.46 3.21 -2.93 h 9.56 V 56.24 l -3.77 -13.82 H 49.87 h -8.61 v -1.68 l 
        11.15 -7.56 L 38.8 23.94 L 25.2 33.17 l 11.15 7.56 v 1.68 H 10.94 l -3.77 13.82 v 13.74 h 9.56 c 0.46 1.48 1.69 
        2.61 3.21 2.93 H 0.31 v 3.12 h 99.13 v -3.12 H 79.8 z M 81.94 44.81 h 5.04 l 3.11 11.43 h -8.16 V 44.81 z M 
        69.62 44.81 h 9.95 v 11.43 H 69.62 V 44.81 z M 78.03 72.91 h -7.75 c 1.08 -0.23 2.02 -0.86 2.63 -1.74 h 2.49 C 
        76.01 72.05 76.95 72.68 78.03 72.91 z M 57.29 44.81 h 9.95 v 11.43 H 57.29 V 44.81 z M 68.52 72.91 H 31.21 c 
        1.08 -0.23 2.02 -0.86 2.63 -1.74 H 49.87 h 16.02 C 66.51 72.05 67.44 72.68 68.52 72.91 z M 44.82 44.81 h 10.09 v 
        11.43 H 44.82 V 44.81 z M 29.46 33.17 l 9.35 -6.34 l 9.35 6.34 l -9.35 6.34 L 29.46 33.17 z M 32.5 44.81 h 9.95 
        v 11.43 H 32.5 V 44.81 z M 20.17 44.81 h 9.95 v 11.43 H 20.17 V 44.81 z M 17.8 56.24 h -8.16 l 3.11 -11.43 h 
        5.04 V 56.24 z M 24.34 71.17 h 2.49 c 0.62 0.88 1.55 1.51 2.63 1.74 h -7.75 C 22.79 72.68 23.72 72.05 24.34 
        71.17 z"/>
</svg>