<?xml version="1.0" standalone="no"?>
<!--Created with Sketsa SVG Editor (http://www.kiyut.com)-->
<?xml-stylesheet type="text/css" href="..\transportation.css" ?>
<svg contentScriptType="text/ecmascript" width="100.0px" xmlns:xlink="http://www.w3.org/1999/xlink" baseProfile="full"
    zoomAndPan="magnify" contentStyleType="text/css" height="100.0px" preserveAspectRatio="xMidYMid meet" xmlns="http://www.w3.org/2000/svg"
    version="1.0">
    <path d="M 88.89 64.24 H 99.56 V 24.94 H 32.07 v 6.75 h -9.26 c -3.79 0.0 -6.15 0.0 -7.71 5.32 l -2.58 10.39 H 6.49 
        c -2.96 0.0 -2.96 0.0 -2.96 2.91 c 0.0 4.64 0.0 9.28 0.0 13.93 H 0.39 v 3.21 h 11.3 c 0.59 4.39 3.33 7.38 7.65 
        7.38 c 4.3 0.0 7.21 -3.06 8.18 -7.38 h 4.55 v -3.21 h 39.77 c -0.08 0.42 -0.11 1.31 -0.11 1.77 c 0.0 4.87 3.9 
        8.83 8.67 8.83 c 4.77 0.0 8.66 -3.96 8.66 -8.83 C 89.06 65.46 89.0 64.75 88.89 64.24" clip-rule="evenodd"
        fill-rule="evenodd"/>
</svg>