<?xml version="1.0" standalone="no"?>
<!--Created with Sketsa SVG Editor (http://www.kiyut.com)-->
<?xml-stylesheet type="text/css" href="..\transportation.css" ?>
<svg contentScriptType="text/ecmascript" width="100.0px" xmlns:xlink="http://www.w3.org/1999/xlink" baseProfile="full"
    zoomAndPan="magnify" contentStyleType="text/css" height="100.0px" preserveAspectRatio="xMidYMid meet" xmlns="http://www.w3.org/2000/svg"
    version="1.0">
    <path d="M 90.91 63.38 c 2.62 0.0 4.77 -2.17 4.77 -4.83 c 0.0 -0.31 -0.03 -0.62 -0.1 -0.92 L 99.53 57.63 V 36.32 H 
        56.74 v 19.52 h -2.3 V 36.32 L 17.81 36.33 v 3.72 H 12.75 c -2.07 0.0 -3.36 0.0 -4.21 2.89 l -1.43 5.64 H 3.82 c 
        -1.62 0.0 -1.62 0.0 -1.62 1.58 c 0.0 2.52 0.0 5.05 0.0 7.57 H 0.47 v 1.76 h 6.19 c 0.31 2.38 1.81 4.01 4.19 4.01 
        c 2.35 0.0 3.95 -1.67 4.47 -4.01 h 2.48 v -1.76 h 16.51 c -0.04 0.22 -0.05 0.72 -0.05 0.96 c 0.0 2.65 2.13 4.8 
        4.74 4.8 c 2.61 0.0 4.74 -2.15 4.74 -4.8 c 0.0 -0.3 -0.04 -0.68 -0.09 -0.96 l 17.88 0.0 c -0.06 0.31 -0.1 0.64 
        -0.1 0.97 c 0.0 2.65 2.14 4.82 4.76 4.82 c 2.62 0.0 4.76 -2.17 4.76 -4.82 c 0.0 -0.33 -0.03 -0.83 -0.09 -1.14 l 
        15.38 0.05 c -0.06 0.3 -0.09 0.62 -0.09 0.93 C 86.15 61.21 88.3 63.38 90.91 63.38" clip-rule="evenodd"
        fill-rule="evenodd"/>
</svg>