<?xml version="1.0" standalone="no"?>
<!--Created with Sketsa SVG Editor (http://www.kiyut.com)-->
<?xml-stylesheet type="text/css" href="..\transportation.css" ?>
<svg contentScriptType="text/ecmascript" width="100.0px" xmlns:xlink="http://www.w3.org/1999/xlink" baseProfile="full"
    zoomAndPan="magnify" contentStyleType="text/css" height="100.0px" preserveAspectRatio="xMidYMid meet" xmlns="http://www.w3.org/2000/svg"
    version="1.0">
    <path d="M 74.05 54.45 c -4.1 0.0 -7.78 6.6 -7.78 10.27 h 2.7 c 0.48 -8.41 9.74 -9.36 12.6 -5.62 l -0.01 0.34 h 2.7 
        l -0.01 -0.34 c 2.85 -3.74 12.12 -2.79 12.6 5.62 H 99.54 c 0.0 -3.66 -3.69 -10.27 -7.78 -10.27 H 74.05 z M 82.12 
        64.49 c 0.0 3.33 -2.68 6.04 -5.98 6.05 c -3.31 0.01 -6.0 -2.68 -6.01 -6.02 s 2.65 -6.05 5.95 -6.08 c 3.31 -0.03 
        6.01 2.65 6.04 5.98 z M 95.36 64.49 c 0.0 3.33 -2.68 6.04 -5.98 6.05 c -3.31 0.01 -6.0 -2.68 -6.01 -6.02 s 2.65 
        -6.05 5.95 -6.08 c 3.31 -0.03 6.01 2.65 6.04 5.98 z M 18.84 64.49 c 0.0 3.33 -2.68 6.04 -5.98 6.05 c -3.31 0.01 
        -6.0 -2.68 -6.01 -6.02 s 2.65 -6.05 5.95 -6.08 c 3.31 -0.03 6.01 2.65 6.04 5.98 z M 42.48 64.49 c 0.0 3.33 -2.68 
        6.04 -5.98 6.05 c -3.31 0.01 -6.0 -2.68 -6.01 -6.02 s 2.65 -6.05 5.95 -6.08 c 3.31 -0.03 6.01 2.65 6.04 5.98 z M 
        26.76 29.33 l -0.02 23.28 l 72.63 -0.02 V 29.41 L 26.76 29.33 z M 38.93 54.41 H 20.18 l 0.1 -19.26 L 5.62 35.11 
        L 0.33 49.39 v 13.57 c 0.0 0.94 0.61 1.81 1.7 1.81 h 2.99 c 2.27 -9.12 10.99 -10.47 14.86 -2.82 h 9.58 c 4.27 
        -7.28 14.07 -5.93 14.56 2.73 h 2.69 C 46.72 61.02 43.03 54.41 38.93 54.41 z M 2.1 48.54 L 5.66 38.46 l 9.0 -0.03 
        l 0.03 8.77 L 2.1 48.54 z"/>
</svg>