<?xml version="1.0" standalone="no"?>
<!--Created with Sketsa SVG Editor (http://www.kiyut.com)-->
<?xml-stylesheet type="text/css" href="..\transportation.css" ?>
<svg contentScriptType="text/ecmascript" width="100.0px" xmlns:xlink="http://www.w3.org/1999/xlink" baseProfile="full"
    zoomAndPan="magnify" contentStyleType="text/css" height="100.0px" preserveAspectRatio="xMidYMid meet" xmlns="http://www.w3.org/2000/svg"
    version="1.0">
    <path id="path5302" d="M 75.81 52.29 l -1.01 -14.82 c -0.18 -2.15 -2.0 -3.81 -4.22 -3.81 H 29.41 c -2.22 0.0 -4.04 
        1.66 -4.23 3.81 l -0.98 14.82 H 75.81 z M 84.48 67.49 c 0.0 -3.04 -2.48 -5.52 -5.55 -5.52 c -3.07 0.0 -5.57 2.48 
        -5.57 5.52 c 0.0 3.04 2.5 5.49 5.57 5.49 S 84.48 70.53 84.48 67.49 M 68.25 75.74 V 61.86 c 0.0 -1.38 -1.14 -2.5 
        -2.53 -2.5 H 34.17 c -1.35 0.0 -2.49 1.12 -2.49 2.5 V 75.74 H 68.25 z M 21.06 72.99 c 3.06 0.0 5.55 -2.45 5.55 
        -5.49 c 0.0 -3.04 -2.49 -5.52 -5.55 -5.52 c -3.07 0.0 -5.56 2.48 -5.56 5.52 C 15.5 70.53 17.99 72.99 21.06 72.99 
        M 70.58 29.77 c 4.26 0.0 7.77 3.27 8.12 7.41 l 1.03 15.27 L 89.99 58.59 l -0.03 25.79 H 85.38 l 0.03 8.43 c 0.0 
        3.65 -2.98 6.56 -6.66 6.56 c -3.65 0.0 -6.62 -2.91 -6.62 -6.56 v -8.43 H 27.85 l 0.03 8.43 c 0.0 3.65 -2.98 6.56 
        -6.66 6.56 c -3.65 0.0 -6.62 -2.91 -6.62 -6.56 v -8.43 H 10.03 L 10.0 58.59 l 10.26 -6.14 l 1.03 -15.27 c 0.32 
        -4.14 3.83 -7.41 8.12 -7.41 H 70.58 z M 82.63 0.38 c 4.05 0.0 7.33 3.25 7.33 7.23 v 46.82 l -6.75 -4.1 l -0.88 
        -13.67 c -0.6 -5.89 -5.65 -10.5 -11.76 -10.5 H 29.4 c -6.13 -1.91E-6 -11.14 4.61 -11.74 10.5 l -0.89 13.67 L 
        10.0 54.43 L 10.02 7.61 C 10.02 3.62 13.3 0.38 17.33 0.38 H 82.63 z"/>
</svg>