<?xml version="1.0" standalone="no"?>
<!--Created with Sketsa SVG Editor (http://www.kiyut.com)-->
<?xml-stylesheet type="text/css" href="..\transportation.css" ?>
<svg contentScriptType="text/ecmascript" width="100.0px" xmlns:xlink="http://www.w3.org/1999/xlink" baseProfile="full"
    zoomAndPan="magnify" contentStyleType="text/css" height="100.0px" preserveAspectRatio="xMidYMid meet" xmlns="http://www.w3.org/2000/svg"
    version="1.0">
    <path d="M 91.65 79.59 H 77.41 l 1.4 -10.52 l 4.38 0.6 l 3.21 -24.04 l -2.62 -4.22 L 82.89 27.33 c 0.0 0.0 -0.53 
        -3.96 -3.87 -4.42 L 29.34 16.15 c -3.34 -0.45 -4.89 3.22 -4.89 3.22 L 19.9 32.71 l -3.64 3.37 l -3.21 24.04 l 
        3.76 0.51 l -1.43 10.7 l 8.98 1.22 l 1.43 -10.7 l 44.05 6.0 L 68.41 78.55 l 7.65 1.04 H 54.79 v -7.02 H 0.44 v 
        11.7 h 99.0 L 91.65 79.59 z M 47.09 35.77 c -0.58 -1.22 -1.51 -2.52 -2.94 -3.19 c -1.56 -0.74 -2.24 -2.02 -2.52 
        -3.13 c 0.6 -0.69 1.04 -1.65 1.18 -2.74 c 0.32 -2.39 -0.87 -4.52 -2.66 -4.76 c -1.79 -0.24 -3.49 1.5 -3.81 3.88 
        c -0.2 1.48 0.18 2.86 0.92 3.75 l -0.28 0.95 c 0.0 0.0 -1.34 -0.28 -3.11 -0.01 c 0.03 -0.68 -0.07 -1.4 -0.72 
        -0.98 c 0.0 0.0 -0.57 -0.42 -0.69 0.12 c 0.0 0.0 -0.59 -0.48 -0.69 0.12 c 0.0 0.0 -0.67 -0.25 -0.75 0.32 c 0.0 
        0.0 -1.16 1.01 -1.38 2.19 c -0.37 0.28 -0.72 0.6 -1.07 0.97 l -3.37 -0.46 l 1.83 -13.71 l 52.4 7.13 l -1.83 
        13.71 L 47.09 35.77 z"/>
</svg>