<?xml version="1.0" standalone="no"?>
<!--Created with Sketsa SVG Editor (http://www.kiyut.com)-->
<?xml-stylesheet type="text/css" href="..\transportation.css" ?>
<svg contentScriptType="text/ecmascript" width="100.0px" xmlns:xlink="http://www.w3.org/1999/xlink" baseProfile="full"
    zoomAndPan="magnify" contentStyleType="text/css" height="100.0px" preserveAspectRatio="xMidYMid meet" xmlns="http://www.w3.org/2000/svg"
    version="1.0">
    <path d="M 99.62 83.51 c -2.15 0.0 -4.25 -0.5 -6.1 -1.32 c -1.9 -0.9 -4.05 -1.44 -6.3 -1.44 c -2.22 0.0 -4.37 0.55 
        -6.27 1.44 c -1.88 0.82 -3.95 1.32 -6.13 1.32 c -2.17 0.0 -4.25 -0.5 -6.1 -1.32 c -1.9 -0.9 -4.05 -1.44 -6.3 
        -1.44 c -2.22 0.0 -4.37 0.55 -6.28 1.44 c -1.88 0.82 -3.95 1.32 -6.13 1.32 c -2.17 0.0 -4.25 -0.5 -6.1 -1.32 c 
        -1.9 -0.9 -4.05 -1.44 -6.3 -1.44 c -2.25 0.0 -4.4 0.55 -6.3 1.44 c -1.85 0.82 -3.93 1.32 -6.1 1.32 c -2.17 0.0 
        -4.25 -0.5 -6.1 -1.32 c -1.93 -0.9 -4.08 -1.44 -6.3 -1.44 c -2.25 0.0 -4.4 0.55 -6.3 1.44 C 4.64 83.01 2.56 
        83.51 0.39 83.51 v -9.24 c 2.17 0.0 4.25 -0.47 6.1 -1.32 c 1.9 -0.9 4.05 -1.42 6.3 -1.42 c 2.22 0.0 4.37 0.52 
        6.3 1.42 c 1.85 0.85 3.93 1.32 6.1 1.32 c 2.17 0.0 4.25 -0.47 6.1 -1.32 c 1.9 -0.9 4.05 -1.42 6.3 -1.42 c 2.25 
        0.0 4.4 0.52 6.3 1.42 c 1.85 0.85 3.93 1.32 6.1 1.32 c 2.17 0.0 4.25 -0.47 6.13 -1.32 c 1.9 -0.9 4.05 -1.42 6.28 
        -1.42 c 2.25 0.0 4.4 0.52 6.3 1.42 c 1.85 0.85 3.93 1.32 6.1 1.32 c 2.17 0.0 4.25 -0.47 6.13 -1.32 c 1.9 -0.9 
        4.05 -1.42 6.27 -1.42 c 2.25 0.0 4.4 0.52 6.3 1.42 c 1.85 0.85 3.95 1.32 6.1 1.32 V 83.51 z M 87.51 48.13 c 1.04 
        -0.5 1.75 -1.54 1.75 -2.79 v -3.09 h 3.11 V 32.17 l 0.0 0.0 c 0.0 -2.19 -1.48 -4.03 -3.48 -4.58 l -3.56 -8.56 C 
        84.81 17.76 83.58 16.89 82.15 16.89 H 63.86 c -1.43 0.0 -2.67 0.87 -3.19 2.14 l -3.56 8.56 c -2.0 0.55 -3.48 
        2.39 -3.48 4.58 l 0.0 0.0 v 10.08 h 3.11 v 3.09 c 0.0 1.25 0.72 2.29 1.75 2.79 H 41.68 c 1.04 -0.5 1.78 -1.54 
        1.78 -2.79 l -0.02 -3.09 h 3.11 V 32.17 l 0.0 0.0 c 0.0 -2.19 -1.48 -4.03 -3.48 -4.58 l -3.56 -8.56 C 38.98 
        17.76 37.75 16.89 36.31 16.89 H 18.03 c -1.43 0.0 -2.67 0.87 -3.19 2.14 l -3.56 8.56 c -2.0 0.55 -3.48 2.39 
        -3.48 4.58 l 0.0 0.0 v 10.08 h 3.11 v 3.09 c 0.0 1.25 0.72 2.29 1.75 2.79 H 0.39 v 7.83 h 8.4 l 6.84 8.04 c 1.21 
        0.25 2.37 0.65 3.46 1.15 c 1.85 0.85 3.93 1.32 6.1 1.32 c 2.17 0.0 4.25 -0.47 6.1 -1.32 c 1.9 -0.9 4.05 -1.42 
        6.3 -1.42 c 2.25 0.0 4.4 0.52 6.3 1.42 c 1.85 0.85 3.93 1.32 6.1 1.32 c 2.17 0.0 4.25 -0.47 6.13 -1.32 c 1.9 
        -0.9 4.05 -1.42 6.28 -1.42 c 2.25 0.0 4.4 0.52 6.3 1.42 c 1.85 0.85 3.93 1.32 6.1 1.32 c 2.17 0.0 4.25 -0.47 
        6.13 -1.32 c 1.31 -0.62 2.74 -1.05 4.25 -1.27 l 6.67 -8.01 H 99.64 v -7.73 H 87.51 z M 15.24 48.13 c 1.04 -0.5 
        1.78 -1.54 1.78 -2.79 l -0.02 -3.09 h 20.36 v 3.09 c 0.0 1.25 0.72 2.29 1.75 2.79 H 15.24 z M 61.07 48.13 c 1.04 
        -0.5 1.75 -1.54 1.75 -2.79 v -3.09 h 20.36 v 3.09 c 0.0 1.25 0.72 2.29 1.75 2.79 H 61.07 z M 11.43 33.98 c 0.0 
        -1.72 1.38 -3.1 3.09 -3.1 c 1.68 0.0 3.09 1.38 3.09 3.1 s -1.41 3.1 -3.09 3.1 C 12.82 37.08 11.43 35.7 11.43 
        33.98 z M 39.85 37.08 c -1.71 0.0 -3.09 -1.38 -3.09 -3.1 s 1.38 -3.1 3.09 -3.1 c 1.68 0.0 3.11 1.38 3.11 3.1 S 
        41.53 37.08 39.85 37.08 z M 14.35 27.42 l 3.06 -7.39 c 0.12 -0.37 0.47 -0.65 0.89 -0.65 h 17.74 c 0.42 0.0 0.77 
        0.27 0.91 0.65 l 3.06 7.39 H 14.35 z M 57.27 33.98 c 0.0 -1.72 1.38 -3.1 3.09 -3.1 c 1.68 0.0 3.09 1.38 3.09 3.1 
        s -1.41 3.1 -3.09 3.1 C 58.65 37.08 57.27 35.7 57.27 33.98 z M 85.68 37.08 c -1.7 0.0 -3.09 -1.38 -3.09 -3.1 s 
        1.38 -3.1 3.09 -3.1 c 1.68 0.0 3.09 1.38 3.09 3.1 S 87.36 37.08 85.68 37.08 z M 60.18 27.42 l 3.06 -7.39 c 0.12 
        -0.37 0.47 -0.65 0.89 -0.65 h 17.74 c 0.42 0.0 0.77 0.27 0.89 0.65 l 3.06 7.39 H 60.18 z"/>
</svg>