<?xml version="1.0" standalone="no"?>
<!--Created with Sketsa SVG Editor (http://www.kiyut.com)-->
<?xml-stylesheet type="text/css" href="..\food.css" ?>
<svg contentScriptType="text/ecmascript" width="100.0px" xmlns:xlink="http://www.w3.org/1999/xlink" baseProfile="full"
    zoomAndPan="magnify" contentStyleType="text/css" height="100.0px" preserveAspectRatio="xMidYMid meet" xmlns="http://www.w3.org/2000/svg"
    version="1.0">
    <path id="path4896" d="M 66.83 7.58 c -0.83 -0.12 -1.48 -0.88 -1.48 -1.78 c 0.0 -0.68 0.37 -1.25 0.89 -1.58 c -0.54 
        -0.31 -0.89 -0.91 -0.89 -1.58 C 65.35 1.64 66.12 0.83 67.08 0.83 h 8.62 c 0.97 0.0 1.74 0.81 1.74 1.81 c 0.0 
        0.69 -0.37 1.28 -0.94 1.58 c 0.54 0.3 0.94 0.9 0.94 1.58 c 0.0 0.9 -0.65 1.65 -1.48 1.78 l 10.47 29.58 c 0.65 
        1.92 0.99 4.06 0.99 6.2 v 52.45 c 0.0 1.97 -1.53 3.57 -3.45 3.57 H 58.8 c -1.9 0.0 -3.43 -1.6 -3.43 -3.57 V 
        43.36 c 0.0 -2.14 0.34 -4.29 0.96 -6.2 L 66.83 7.58 z"/>
    <path id="path4898" d="M 18.7 37.37 c 0.22 0.2 0.52 0.33 0.83 0.33 c 0.7 0.0 1.27 -0.59 1.27 -1.31 c 0.0 -0.23 -0.07 
        -0.44 -0.16 -0.64 l -1.42 -3.44 c -0.33 -0.69 -1.04 -1.16 -1.81 -1.16 c -1.13 0.0 -2.05 0.93 -2.05 2.11 c 0.0 
        0.57 0.22 1.08 0.57 1.45 L 18.7 37.37 z M 23.39 38.02 c 0.12 0.29 0.19 0.62 0.19 0.93 c 0.0 1.36 -1.06 2.46 
        -2.36 2.46 c -0.47 0.0 -0.92 -0.16 -1.29 -0.42 l -5.68 -4.92 c -0.62 -0.77 -0.99 -1.73 -0.99 -2.81 c -1.91E-6 
        -2.38 1.86 -4.33 4.15 -4.33 c 1.7 0.0 3.19 1.11 3.79 2.66 L 23.39 38.02 z"/>
    <path id="path4900" d="M 41.6 42.35 c 0.68 0.0 1.24 0.59 1.24 1.3 v 2.02 c 0.0 0.72 -0.57 1.3 -1.24 1.3 l -1.16 
        -0.05 c 1.39 0.91 2.4 2.48 2.4 4.34 v 44.09 c 0.0 2.26 -1.74 4.08 -3.89 4.08 H 16.58 C 14.41 99.43 12.67 97.6 
        12.67 95.34 l 0.02 -44.09 c 0.0 -1.85 0.99 -3.43 2.39 -4.34 L 13.92 46.97 c -0.69 0.0 -1.23 -0.58 -1.23 -1.3 v 
        -2.02 c 0.0 -0.71 0.54 -1.3 1.23 -1.3 H 41.6 z"/>
</svg>