<?xml version="1.0" standalone="no"?>
<!--Created with Sketsa SVG Editor (http://www.kiyut.com)-->
<?xml-stylesheet type="text/css" href="..\food.css" ?>
<svg contentScriptType="text/ecmascript" width="100.0px" xmlns:xlink="http://www.w3.org/1999/xlink" baseProfile="full"
    zoomAndPan="magnify" contentStyleType="text/css" height="100.0px" preserveAspectRatio="xMidYMid meet" xmlns="http://www.w3.org/2000/svg"
    version="1.0">
    <path id="path6712" d="M 73.2 17.37 c -1.85 1.77 -4.34 2.47 -7.1 2.47 c -3.51 0.0 -6.69 -1.42 -8.53 -4.1 c -1.82 
        2.74 -5.02 4.1 -8.57 4.1 c -3.51 0.0 -6.67 -1.45 -8.5 -4.13 c -1.82 2.77 -5.02 4.13 -8.61 4.13 c -2.59 0.0 -4.97 
        -0.58 -6.76 -2.15 l -1.36 -9.65 c 1.86 2.44 4.81 4.02 8.11 4.02 c 3.59 0.0 6.79 -1.75 8.61 -4.51 c 1.83 2.68 
        4.99 4.51 8.5 4.51 c 3.55 0.0 6.75 -1.75 8.57 -4.48 c 1.83 2.68 5.02 4.48 8.53 4.48 c 3.58 0.0 6.74 -1.83 8.54 
        -4.6 L 73.2 17.37 z" transform="matrix(1.0 0.0 0.0 1.0 -0.0 -3.81E-6)"/>
    <path id="path6714" d="M 75.79 98.83 L 91.29 0.75 L 80.86 0.85 L 66.77 88.49 H 31.65 L 17.56 0.85 L 7.13 0.75 l 15.5 
        98.08 H 75.79 z" transform="matrix(1.0 0.0 0.0 1.0 -0.0 -3.81E-6)"/>
</svg>