<?xml version="1.0" standalone="no"?>
<!--Created with Sketsa SVG Editor (http://www.kiyut.com)-->
<?xml-stylesheet type="text/css" href="..\food.css" ?>
<svg contentScriptType="text/ecmascript" width="100.0px" xmlns:xlink="http://www.w3.org/1999/xlink" baseProfile="full"
    zoomAndPan="magnify" contentStyleType="text/css" height="100.0px" preserveAspectRatio="xMidYMid meet" xmlns="http://www.w3.org/2000/svg"
    version="1.0">
    <path d="M 23.8 49.11 V 33.37 c 1.86 -7.37 7.16 -11.05 15.89 -11.05 h 11.16 c 0.0 -2.29 1.87 -4.14 4.18 -4.14 l 0.0 
        0.0 V 7.13 H 43.88 c -1.85 0.0 -3.35 -1.48 -3.35 -3.31 C 40.53 1.98 42.03 0.5 43.88 0.5 h 29.28 c 1.85 0.0 3.35 
        1.48 3.35 3.31 c 0.0 1.83 -1.5 3.31 -3.35 3.31 H 62.0 v 11.05 c 2.31 0.0 4.18 1.85 4.18 4.14 l 0.0 0.0 h 15.34 v 
        -9.67 c 0.0 -1.07 0.87 -1.93 1.95 -1.93 h 4.18 v 33.14 h -4.18 c -1.08 3.81E-6 -1.95 -0.87 -1.95 -1.93 v -9.67 H 
        66.19 c 0.0 2.29 -1.87 4.14 -4.18 4.14 l 0.0 0.0 h -6.97 c -2.31 0.0 -4.18 -1.85 -4.18 -4.14 l 0.0 0.0 H 39.69 c 
        -2.77 0.0 -5.02 2.23 -5.02 4.97 v 11.88 H 23.8 z M 11.25 58.22 L 15.99 99.38 h 25.38 l 4.74 -41.15 H 11.25 z M 
        15.15 61.81 h 27.05 l -0.84 8.29 H 16.27 z"/>
</svg>