<?xml version="1.0" standalone="no"?>
<!--Created with Sketsa SVG Editor (http://www.kiyut.com)-->
<?xml-stylesheet type="text/css" href="..\food.css" ?>
<svg contentScriptType="text/ecmascript" width="100.0px" xmlns:xlink="http://www.w3.org/1999/xlink" baseProfile="full"
    zoomAndPan="magnify" contentStyleType="text/css" height="100.0px" preserveAspectRatio="xMidYMid meet" xmlns="http://www.w3.org/2000/svg"
    version="1.0">
    <path d="M 98.42 65.78 h -0.58 c -0.36 0.0 -0.66 -0.3 -0.66 -0.67 V 51.39 c 0.0 -0.45 -0.33 -0.96 -0.73 -1.14 l -6.4 
        -2.85 c -0.35 -0.16 -0.74 -0.6 -0.85 -0.97 L 84.1 29.33 c -0.12 -0.39 -0.21 -1.05 -0.21 -1.46 V 26.47 C 83.89 
        26.0 83.66 25.63 83.37 25.63 H 3.66 C 3.2 25.63 2.82 26.0 2.82 26.47 v 38.64 c 0.0 0.37 -0.3 0.67 -0.66 0.67 H 
        1.58 C 1.12 65.78 0.75 66.16 0.75 66.62 v 2.99 c 0.0 0.47 0.37 0.85 0.83 0.85 h 13.19 c 0.22 0.0 0.42 -0.09 0.56 
        -0.25 c 0.14 -0.16 0.2 -0.38 0.17 -0.6 c 0.0 -0.0 -0.06 -0.43 -0.06 -1.02 c 0.0 -5.32 4.26 -9.65 9.51 -9.65 s 
        9.51 4.33 9.51 9.65 c 0.0 0.6 -0.06 1.02 -0.06 1.02 c -0.03 0.23 0.03 0.44 0.17 0.6 c 0.14 0.16 0.34 0.25 0.56 
        0.25 h 35.99 c 0.22 0.0 0.42 -0.09 0.56 -0.25 c 0.14 -0.16 0.2 -0.38 0.17 -0.6 c 0.0 -0.0 -0.06 -0.43 -0.06 
        -1.02 c 0.0 -5.32 4.26 -9.65 9.51 -9.65 s 9.51 4.33 9.51 9.65 c 0.0 0.6 -0.06 1.02 -0.06 1.02 c -0.03 0.23 0.03 
        0.44 0.17 0.6 c 0.14 0.16 0.34 0.25 0.56 0.25 h 6.95 c 0.46 0.0 0.83 -0.38 0.83 -0.85 v -2.99 C 99.25 66.16 
        98.88 65.78 98.42 65.78 z M 12.67 39.51 c -0.0 0.62 -0.57 1.29 -1.3 1.29 v 10.58 c 0.0 1.51 -2.02 1.51 -2.02 0.0 
        V 40.81 c -0.71 0.0 -1.33 -0.56 -1.32 -1.38 V 33.6 c -9.85E-4 -0.51 0.72 -0.53 0.72 0.02 v 4.31 H 9.36 V 33.58 c 
        0.0 -0.47 0.69 -0.49 0.7 0.02 v 4.33 h 0.62 V 33.59 c 0.0 -0.49 0.68 -0.51 0.68 0.02 v 4.32 h 0.62 V 33.59 c 
        -9.85E-4 -0.49 0.7 -0.51 0.71 0.02 V 39.51 z M 25.33 52.51 c -5.25 0.0 -9.51 -4.32 -9.51 -9.65 c 0.0 -5.33 4.26 
        -9.65 9.51 -9.65 s 9.51 4.32 9.51 9.65 C 34.84 48.19 30.58 52.51 25.33 52.51 z M 41.86 51.42 c 0.0 1.47 -2.02 
        1.45 -2.02 0.0 v -6.54 h -1.08 V 34.95 c -9.84E-4 -2.31 3.1 -2.31 3.1 0.0 V 51.42 z M 78.35 48.03 c 0.0 0.74 
        -0.6 1.35 -1.33 1.35 H 66.84 c -0.73 0.0 -1.33 -0.61 -1.33 -1.35 v -10.34 c 0.0 -0.74 0.6 -1.35 1.33 -1.35 h 
        10.19 c 0.73 0.0 1.33 0.61 1.33 1.35 V 48.03 z M 87.0 46.32 c -0.19 0.25 -0.48 0.39 -0.84 0.39 H 82.53 c -0.73 
        0.0 -1.33 -0.61 -1.33 -1.35 v -7.66 c 0.0 -0.74 0.6 -1.35 1.33 -1.35 h 0.59 c 0.72 0.0 1.48 0.57 1.69 1.27 l 
        2.31 7.77 C 87.23 45.73 87.18 46.06 87.0 46.32 z"/>
    <circle r="7.17" cx="24.95" cy="68.59"/>
    <circle r="7.17" cx="81.29" cy="68.59"/>
    <circle r="7.49" cx="25.33" cy="42.86"/>
    <circle r="7.49" cx="24.95" cy="68.59"/>
    <circle r="7.49" cx="81.29" cy="68.59"/>
</svg>