<?xml version="1.0" standalone="no"?>
<!--Created with Sketsa SVG Editor (http://www.kiyut.com)-->
<?xml-stylesheet type="text/css" href="..\food.css" ?>
<svg contentScriptType="text/ecmascript" width="100.0px" xmlns:xlink="http://www.w3.org/1999/xlink" baseProfile="full"
    zoomAndPan="magnify" contentStyleType="text/css" height="100.0px" preserveAspectRatio="xMidYMid meet" xmlns="http://www.w3.org/2000/svg"
    version="1.0">
    <path d="M 47.66 32.72 c -0.02 3.21 -2.98 6.66 -6.81 6.66 v 54.34 c -9.99E-4 7.74 -10.61 7.74 -10.62 0.0 V 39.38 c 
        -3.72 0.0 -6.97 -2.86 -6.96 -7.11 V 2.33 C 23.26 -0.27 27.05 -0.37 27.08 2.43 v 22.13 h 3.15 V 2.22 c 0.0 -2.39 
        3.65 -2.54 3.66 0.1 v 22.23 h 3.25 V 2.27 c 0.02 -2.52 3.57 -2.62 3.56 0.1 v 22.18 h 3.26 V 2.27 c -0.01 -2.49 
        3.69 -2.59 3.71 0.1 V 32.72 L 47.66 32.72 z"/>
    <path d="M 75.92 9.28 v 84.43 c 0.01 7.54 -10.61 7.43 -10.62 0.0 V 60.19 h -5.64 V 9.28 C 59.65 -2.57 75.94 -2.57 
        75.92 9.28 L 75.92 9.28 z"/>
</svg>