<?xml version="1.0" standalone="no"?>
<!--Created with Sketsa SVG Editor (http://www.kiyut.com)-->
<svg contentScriptType="text/ecmascript" width="100.0px" xmlns:xlink="http://www.w3.org/1999/xlink" baseProfile="full"
    zoomAndPan="magnify" contentStyleType="text/css" height="100.0px" preserveAspectRatio="xMidYMid meet" xmlns="http://www.w3.org/2000/svg"
    version="1.0">
    <defs>
        <radialGradient r="100%" cx="0.5" id="radGradient" cy="-0.3">
            <stop offset="40%" style="stop-color: #F6AF7B;"/>
            <stop offset="100%" style="stop-color: #DC5D26;"/>
        </radialGradient>
    </defs>
    <rect x="1" y="1.0" fill="url(#radGradient)" width="98" rx="10" height="98" ry="10" stroke="#C26539" stroke-width="2"/>
    <path fill="#ffffff" d="M 66.0 43.0 L 73.0 43.0 A 2.0 2.0 0.0 0 1 75.0 45.0 L 75.0 62.0 A 11.0 11.0 0.0 0 1 65.0 
        72.0 L 38.0 72.0 A 11.0 11.0 0.0 0 1 29.0 60.0 L 29.0 35.0 A 12.0 12.0 0.0 0 1 40.0 25.0 L 56.0 25.0 A 10.0 10.0 
        0.0 0 1 66.0 34.0 z M 42.0 37.0 A 2.0 2.0 0.0 1 0 42.0 42.0 L 51.0 42.0 A 2.0 2.0 0.0 1 0 51.0 37.0 z M 42.0 
        55.0 A 2.0 2.0 0.0 1 0 42.0 60.0 L 61.0 60.0 A 2.0 2.0 0.0 1 0 61.0 55.0 z" stroke="#ffffff"/>
</svg>