<?xml version="1.0" standalone="no"?>
<!--Created with Sketsa SVG Editor (http://www.kiyut.com)-->
<svg contentScriptType="text/ecmascript" width="100.0px" xmlns:xlink="http://www.w3.org/1999/xlink" baseProfile="full"
    zoomAndPan="magnify" contentStyleType="text/css" height="100.0px" preserveAspectRatio="xMidYMid meet" xmlns="http://www.w3.org/2000/svg"
    version="1.0">
    <defs>
        <radialGradient r="100%" cx="0.5" cy="-0.3" id="radGradient">
            <stop style="stop-color: #FDFDFD;" offset="40%"/>
            <stop style="stop-color: #D5D0CD;" offset="100%"/>
        </radialGradient>
    </defs>
    <path fill="#EBEBEB" d="M 49.5 49.5 L 1.0 49.5 L 1.0 10.0 A 10.0 10.0 0.0 0 1 10.0 1.0 L 49.5 1.0 z" fill-opacity="1"
        stroke-opacity="1" stroke="#EBEBEB"/>
    <path fill="#4C5CA7" d="M 50.5 49.5 L 50.5 1.0 L 90.0 1.0 A 10.0 10.0 0.0 0 1 99.0 10.0 L 99.0 49.5 z" fill-opacity="1"
        stroke-opacity="1" stroke="#4C5CA7"/>
    <path fill="#000000" d="M 49.5 99.0 L 10.0 99.0 A 10.0 10.0 0.0 0 1 1.0 90.0 L 1.0 50.5 L 49.5 50.5 z" fill-opacity="1"
        stroke-opacity="1" stroke="#000000"/>
    <path fill="#cccccc" d="M 99.0 90.0 A 10.0 10.0 0.0 0 1 90.0 99.0 L 50.5 99.0 L 50.5 50.5 L 99.0 50.5 z"
        fill-opacity="1" stroke-opacity="1" stroke="#cccccc"/>
    <rect x="1.0" y="1.0" fill="none" width="98" rx="10" ry="10" height="98" stroke="#B5B4B0" stroke-width="2"/>
</svg>