<?xml version="1.0" standalone="no"?>
<!--Created with Sketsa SVG Editor (http://www.kiyut.com)-->
<svg contentScriptType="text/ecmascript" width="100.0px" xmlns:xlink="http://www.w3.org/1999/xlink" baseProfile="full"
    zoomAndPan="magnify" contentStyleType="text/css" height="100.0px" preserveAspectRatio="xMidYMid meet" xmlns="http://www.w3.org/2000/svg"
    version="1.0">
    <rect x="1" y="1.0" fill="url(#radGradient)" width="98" rx="10" ry="10" height="98" stroke="#CA4E1A" stroke-width="2"/>
    <polygon fill="#CA4E1A" stroke-width="0.1" fill-opacity="0.5" points="50.85,41.875 58.65,55.875 66.15,55.875 
        58.35,41.875" stroke-opacity="0.5" stroke="none"/>
    <polygon fill="#CA4E1A" stroke-width="0.1" fill-opacity="0.5" points="38.05,41.875 30.35,55.875 37.35,55.875 
        45.05,41.875" stroke-opacity="0.5" stroke="none"/>
    <rect x="50.75" y="55.875" fill-opacity="0.5" fill="#CA4E1A" width="34" rx="3" ry="3" height="25" stroke="none"
        stroke-width="0.1" stroke-opacity="0.5"/>
    <rect x="11.75" y="55.875" fill-opacity="0.5" fill="#CA4E1A" width="34" rx="3" ry="3" height="25" stroke="none"
        stroke-width="0.1" stroke-opacity="0.5"/>
    <rect x="31.75" y="16.875" fill-opacity="0.5" fill="#CA4E1A" width="34" rx="3" ry="3" height="25" stroke="none"
        stroke-width="0.1" stroke-opacity="0.5"/>
    <defs>
        <radialGradient r="100%" cx="0.5" cy="-0.3" id="radGradient">
            <stop style="stop-color: #FFEED5;" offset="40%"/>
            <stop style="stop-color: #FF941E;" offset="100%"/>
        </radialGradient>
    </defs>
    <rect x="33" y="18" fill="#ffffff" width="34" rx="3" height="25" ry="3" stroke="none"/>
    <rect x="13" y="57.0" fill="#ffffff" width="34" rx="3" ry="3" height="25" stroke="none"/>
    <rect x="52" y="57" fill="#ffffff" width="34" rx="3" ry="3" height="25" stroke="none"/>
    <polygon fill="#ffffff" points="41.0,40.0 30.0,60.0 37.0,60.0 48.0,40.0" stroke="none"/>
    <polygon fill="#ffffff" points="50.5,40.0 61.5,60.0 69.0,60.0 58.0,40.0" stroke="none"/>
</svg>