<?xml version="1.0" standalone="no"?>
<!--Created with Sketsa SVG Editor (http://www.kiyut.com)-->
<svg contentScriptType="text/ecmascript" width="100.0px" xmlns:xlink="http://www.w3.org/1999/xlink" baseProfile="full"
    zoomAndPan="magnify" contentStyleType="text/css" height="100.0px" preserveAspectRatio="xMidYMid meet" xmlns="http://www.w3.org/2000/svg"
    version="1.0">
    <defs>
        <radialGradient r="100%" cx="0.5" cy="-0.3" id="radGradient">
            <stop style="stop-color: #FDFDFD;" offset="40%"/>
            <stop style="stop-color: #D5D0CD;" offset="100%"/>
        </radialGradient>
        <radialGradient r="100%" cx="0.5" cy="-0.3" id="radGradient1">
            <stop style="stop-color: #A0C5E7;" offset="40%"/>
            <stop style="stop-color: #468CD0;" offset="100%"/>
        </radialGradient>
        <radialGradient r="100%" cx="0.5" cy="-0.3" id="radGradien2">
            <stop style="stop-color: #F8D19F;" offset="40%"/>
            <stop style="stop-color: #F79624;" offset="100%"/>
        </radialGradient>
    </defs>
    <rect x="1" y="1.0" fill="url(#radGradient)" width="98" rx="10" ry="10" height="98" stroke="#B5B4B0" stroke-width="2"/>
    <path fill="url(#radGradien2)" d="M 54.0 33.0 L 74.5 29.5 L 75.5 36.5 L 61.0 38.0 L 61.0 48.0 A 15.5 26.0 0.0 0 1 
        71.0 44.5 A 15.0 15.0 0.0 0 1 79.5 65.0 A 20.0 13.0 0.0 0 1 55.5 72.0 L 55.5 64.0 A 20.0 20.0 0.0 0 0 68.0 63.0 
        A 5.6 5.6 0.0 0 0 66.0 52.0 A 10.0 10.0 0.0 0 0 60.0 54.5 L 54.0 55.0 z" stroke="url(#radGradien2)"/>
    <path fill="#FBDCB2" stroke-width="0.2" d="M 61.0 24.0 A 10.0 15.0 20.0 0 1 72.0 25.0 A 15.0 80.0 20.0 0 0 61.0 24.0 
        z" stroke-opacity="0.5" stroke="#FBDCB2"/>
    <text x="34" fill="#D5D0CD;" y="66" style="text-anchor: middle; font-size: 34pt; font-weight: 900" stroke="url(#radGradient1)"><tspan
            fill="url(#radGradient1)" xml:space="preserve">hi</tspan></text>
    <polygon fill="#B7CBE0" stroke-width="0.2" points="54.5,30.0 55.0,27.5 53.3,26.5 55.3,26.0 55.5,24.0 56.8,25.8 
        59.0,25.0 57.3,27.0 58.5,28.9 56.4,27.8" stroke="#B7CBE0"/>
</svg>