<?xml version="1.0" standalone="no"?>
<!--Created with Sketsa SVG Editor (http://www.kiyut.com)-->
<svg contentScriptType="text/ecmascript" width="100.0px" xmlns:xlink="http://www.w3.org/1999/xlink" baseProfile="full"
    zoomAndPan="magnify" contentStyleType="text/css" height="100.0px" preserveAspectRatio="xMidYMid meet" xmlns="http://www.w3.org/2000/svg"
    version="1.0">
    <defs>
        <radialGradient r="100%" cx="0.5" id="radGradient" cy="-0.3">
            <stop offset="40%" style="stop-color: #DE2628;"/>
            <stop offset="100%" style="stop-color: #810D0D;"/>
        </radialGradient>
    </defs>
    <rect x="1" y="1.0" fill="url(#radGradient)" width="98" rx="10" height="98" ry="10" stroke="#E70906" stroke-width="2"/>
    <path fill="#ffffff" d="M 43.0 61.0 L 45.5 68.0 A 21.5 30.0 40.0 0 1 13.5 60.0 A 12.0 20.0 0.0 0 1 20.0 33.0 A 19.0 
        15.0 0.0 0 1 50.0 39.0 L 58.0 60.0 A 20.0 30.0 45.0 0 0 76.0 65.0 A 4.8 4.8 0.0 0 0 74.0 56.0 A 20.0 13.0 -2.0 0 
        1 57.5 43.0 A 14.0 12.5 0.0 0 1 70.0 29.5 A 20.0 35.0 45.0 0 1 87.5 40.5 L 79.0 42.0 A 15.0 45.0 30.0 0 0 73.0 
        36.5 A 7.0 5.0 10.0 0 0 73.0 47.5 A 20.0 20.0 0.0 0 1 84.0 51.0 A 13.0 13.0 0.0 0 1 84.0 69.0 A 15.5 6.0 0.0 0 1 
        55.0 69.0 A 18.0 18.0 0.0 0 1 48.0 60.0 L 42.3 43.0 A 11.0 11.0 0.0 0 0 22.5 43.0 A 25.0 25.0 0.0 0 0 23.0 60.0 
        A 20.0 40.0 20.0 0 0 43.0 61.0 z" stroke="#ffffff"/>
</svg>