<?xml version="1.0" standalone="no"?>
<!--Created with Sketsa SVG Editor (http://www.kiyut.com)-->
<svg contentScriptType="text/ecmascript" width="100.0px" xmlns:xlink="http://www.w3.org/1999/xlink" baseProfile="full"
    zoomAndPan="magnify" contentStyleType="text/css" height="100.0px" preserveAspectRatio="xMidYMid meet" xmlns="http://www.w3.org/2000/svg"
    version="1.0">
    <rect x="1" y="1.0" fill="url(#radGradient)" width="98" rx="10" ry="10" height="98" stroke="#465171" stroke-width="2"/>
    <path fill="#ffffff" d="M 56.0 73.0 L 56.0 50.0 A 12.181818 11.4536085 0.0 0 0 31.0 50.0 L 31.0 73.0 z"
        stroke-linejoin="round" stroke="#ffffff"/>
    <path fill="#ffffff" d="M 36.0 60.0 L 36.0 44.0 A 8.7 7.7 0.0 0 0 18.0 44.0 L 18.0 60.0 z" stroke-linejoin="round"
        stroke="#ffffff"/>
    <defs>
        <radialGradient r="100%" cx="0.5" cy="-0.3" id="radGradient">
            <stop style="stop-color: #9EABD7;" offset="40%"/>
            <stop style="stop-color: #223F8F;" offset="100%"/>
        </radialGradient>
    </defs>
    <path fill="#ffffff" d="M 82.0 88.0 L 82.0 58.0 A 16.0 15.0 0.0 0 0 49.0 58.0 L 49.0 88.0 z" stroke="#ffffff"
        stroke-linejoin="round"/>
    <ellipse rx="12" fill="#ffffff" ry="12" cx="66" cy="29" stroke="#ffffff"/>
    <ellipse rx="9" fill="#ffffff" ry="9" cx="43.5" cy="28" stroke="#ffffff"/>
    <ellipse rx="6" fill="#ffffff" ry="6" cx="27" cy="29" stroke="#ffffff"/>
</svg>