<?xml version="1.0" standalone="no"?>
<!--Created with Sketsa SVG Editor (http://www.kiyut.com)-->
<svg contentScriptType="text/ecmascript" width="100.0px" xmlns:xlink="http://www.w3.org/1999/xlink" baseProfile="full"
    zoomAndPan="magnify" contentStyleType="text/css" height="100.0px" preserveAspectRatio="xMidYMid meet" xmlns="http://www.w3.org/2000/svg"
    version="1.0">
    <rect x="1.0" y="1.0" fill="url(#radGradient)" width="98" rx="10" height="98" ry="10" stroke="#30523A" stroke-width="2"/>
    <line stroke-linecap="round" fill="#ffffff" x1="50" x2="37" y1="28" y2="18" stroke="#ffffff" stroke-width="4.8"/>
    <defs>
        <radialGradient r="100%" cx="0.5" id="radGradient" cy="-0.3">
            <stop offset="40%" style="stop-color: #BCCEC0;"/>
            <stop offset="100%" style="stop-color: #235532;"/>
        </radialGradient>
    </defs>
    <line fill="#ffffff" x1="50" x2="50" y1="7" y2="93" stroke="#ffffff" stroke-width="5"/>
    <ellipse rx="7" ry="7" fill="#ffffff" cx="34.0" cy="16.0" stroke="#ffffff"/>
    <line stroke-linecap="round" fill="#ffffff" x1="50" x2="37" y1="52" y2="42" stroke="#ffffff" stroke-width="4.8"/>
    <ellipse rx="7" ry="7" fill="#ffffff" cx="34.0" cy="40.0" stroke="#ffffff"/>
    <line stroke-linecap="round" fill="#ffffff" x1="50" x2="37" y1="75" y2="65" stroke="#ffffff" stroke-width="4.8"/>
    <ellipse rx="7" ry="7" fill="#ffffff" cx="34.0" cy="63.0" stroke="#ffffff"/>
    <ellipse rx="7" ry="7" fill="#ffffff" cx="66.0" cy="28.0" stroke="#ffffff"/>
    <line stroke-linecap="round" fill="#ffffff" x1="50" x2="63" y1="40" y2="30" stroke="#ffffff" stroke-width="4.8"/>
    <ellipse rx="7" ry="7" fill="#ffffff" cx="66" cy="51" stroke="#ffffff"/>
    <line stroke-linecap="round" fill="#ffffff" x1="50" x2="63" y1="63" y2="53" stroke="#ffffff" stroke-width="4.8"/>
    <ellipse rx="7" ry="7" fill="#ffffff" cx="66.0" cy="75.0" stroke="#ffffff"/>
    <line stroke-linecap="round" fill="#ffffff" x1="50" x2="63" y1="87.0" y2="77.0" stroke="#ffffff" stroke-width="4.8"/>
</svg>