<?xml version="1.0" standalone="no"?>
<!--Created with Sketsa SVG Editor (http://www.kiyut.com)-->
<svg contentScriptType="text/ecmascript" width="100.0px" xmlns:xlink="http://www.w3.org/1999/xlink" baseProfile="full"
    zoomAndPan="magnify" contentStyleType="text/css" height="100.0px" preserveAspectRatio="xMidYMid meet" xmlns="http://www.w3.org/2000/svg"
    version="1.0">
    <defs>
        <radialGradient r="100%" cx="0.5" cy="-0.3" id="radGradient">
            <stop style="stop-color: #FDFDFD;" offset="40%"/>
            <stop style="stop-color: #D5D0CD;" offset="100%"/>
        </radialGradient>
    </defs>
    <rect x="1.0" y="1.0" fill="url(#radGradient)" width="98" rx="10" ry="10" height="98" stroke="#B5B4B0" stroke-width="2"/>
    <path fill="#9864ae" d="M 48.6 32.2 L 21.8 57.4 A 29.0 29.0 0.0 0 1 38.8 23.3 z" stroke="#9864ae"/>
    <path fill="#f93539" d="M 63.0 42.8 L 41.0 22.5 A 29.0 29.0 0.0 0 1 63.0 24.2 z" stroke="#f93539"/>
    <path fill="#ff7d0b" d="M 65.0 59.0 L 65.0 25.2 A 29.0 29.0 0.0 0 1 77.6 59.0 z" stroke="#ff7d0b"/>
    <path fill="#35a328" d="M 37.0 61.0 L 77.0 61.0 A 29.0 29.0 0.0 0 1 37.0 76.0 z" stroke="#35a328"/>
    <path fill="#1d58a8" d="M 35.0 47.6 L 35.0 75.0 A 29.0 29.0 0.0 0 1 22.5 59.4 z" stroke="#1d58a8"/>
</svg>