<?xml version="1.0" standalone="no"?>
<!--Created with Sketsa SVG Editor (http://www.kiyut.com)-->
<svg contentScriptType="text/ecmascript" width="100.0px" xmlns:xlink="http://www.w3.org/1999/xlink" baseProfile="full"
    zoomAndPan="magnify" contentStyleType="text/css" height="100.0px" preserveAspectRatio="xMidYMid meet" xmlns="http://www.w3.org/2000/svg"
    version="1.0">
    <defs>
        <radialGradient r="100%" cx="0.5" cy="-0.3" id="radGradient">
            <stop style="stop-color: #D5E5F4;" offset="40%"/>
            <stop style="stop-color: #769ABA;" offset="100%"/>
        </radialGradient>
    </defs>
    <rect x="1.0" y="1.0" fill="url(#radGradient)" width="98" rx="10" height="98" ry="10" stroke="#B5B4B0" stroke-width="2"/>
    <ellipse transform="matrix(0.64205045 -0.7666624 0.7666624 0.64205045 -27.340816 31.440979)" fill="#ffffff" rx="8"
        cx="20.087296" ry="5" cy="45.796463" stroke="#000000"/>
    <ellipse transform="matrix(0.59973097 0.8002017 -0.8002017 0.59973097 68.04291 -45.782932)" fill="#ffffff" rx="8"
        cx="78.79406" ry="5" cy="46.610928" stroke="#000000"/>
    <ellipse rx="30" fill="#ffffff" ry="20" cx="50" cy="56" stroke="#000000"/>
    <ellipse rx="3.5833359" fill="#ff0000" ry="3.6944466" cx="39.80555" cy="51.75" stroke="#ff0000"/>
    <ellipse rx="5.5" fill="#ffffff" ry="5.5" cx="74.5" cy="24" stroke="#000000"/>
    <polyline fill="none" points="50.0,36.0 55.0,20.0 69.0,23.0" stroke-linejoin="round" stroke="#000000"/>
    <ellipse rx="3.5833359" fill="#ff0000" ry="3.6944466" cx="60.58333" cy="51.63889" stroke="#ff0000"/>
    <path fill="none" d="M 40.0 65.0 A 18.0 18.0 0.0 0 0 60.0 65.0" stroke-linecap="round" stroke="#000000"/>
</svg>