<?xml version="1.0" standalone="no"?>
<!--Created with Sketsa SVG Editor (http://www.kiyut.com)-->
<svg contentScriptType="text/ecmascript" width="100.0px" xmlns:xlink="http://www.w3.org/1999/xlink" baseProfile="full"
    zoomAndPan="magnify" contentStyleType="text/css" height="100.0px" preserveAspectRatio="xMidYMid meet" xmlns="http://www.w3.org/2000/svg"
    version="1.0">
    <rect x="1" y="1" fill="url(#radGradient)" width="98" rx="10" height="98" ry="10" stroke="#69885f" stroke-width="2"/>
    <defs>
        <radialGradient r="100%" cx="0.5" id="radGradient" cy="-0.3">
            <stop offset="40%" style="stop-color: #B2E5FA;"/>
            <stop offset="100%" style="stop-color: #1C84A7;"/>
        </radialGradient>
        <radialGradient r="100%" cx="0.5" id="radGradient1" cy="-0.3">
            <stop offset="40%" style="stop-color: #D1F1C8;"/>
            <stop offset="100%" style="stop-color: #3C9859;"/>
        </radialGradient>
    </defs>
    <polygon fill="url(#radGradient1)" points="9.0,35.0 1.0,31.0 1.0,9.0 3.5,4.0 8.5,1.0 91.0,1.0 96.0,3.5 99.0,8.0 
        99.0,15.0 90.0,73.0 70.0,73.0 60.0,27.0 17.0,26.0" stroke="url(#radGradient1)"/>
    <path fill="none" stroke-miterlimit="15" d="M 1.0 73.0 L 28.0 73.0 A 12.0 12.0 0.0 0 0 32.0 50.0 L 20.0 47.0 A 15.0 
        12.5 0.0 0 1 26.0 23.0 L 54.0 23.0 A 11.0 13.0 0.0 0 1 65.0 37.0 L 65.0 62.0 A 13.0 13.0 0.0 0 0 92.0 62.0 L 
        92.0 10.0" stroke-width="14" stroke="#ffffff"/>
    <polygon fill="#ffffff" points="99.0,15.0 85.5,15.0 85.5,1.0 91.0,1.0 96.0,3.5 99.0,8.0" stroke="#ffffff"/>
    <rect x="1" y="1" fill="none" width="98" rx="10" height="98" ry="10" stroke="#69885f" stroke-width="2"/>
</svg>