<?xml version="1.0" standalone="no"?>
<!--Created with Sketsa SVG Editor (http://www.kiyut.com)-->
<svg contentScriptType="text/ecmascript" width="100.0px" xmlns:xlink="http://www.w3.org/1999/xlink" baseProfile="full"
    zoomAndPan="magnify" contentStyleType="text/css" height="100.0px" preserveAspectRatio="xMidYMid meet" xmlns="http://www.w3.org/2000/svg"
    version="1.0">
    <defs>
        <radialGradient r="100%" cx="0.5" cy="-0.3" id="radGradient">
            <stop style="stop-color: #BAE7EA;" offset="40%"/>
            <stop style="stop-color: #65AFAE;" offset="100%"/>
        </radialGradient>
    </defs>
    <rect x="1" y="1.0" fill="url(#radGradient)" width="98" rx="10" ry="10" height="98" stroke="#749C9B" stroke-width="2"/>
    <path fill="#ffffff" d="M 42.0 39.0 L 58.0 39.0 A 5.0 4.0 0.0 0 1 58.0 52.0 L 42.0 52.0 L 42.0 60.0 A 4.5 4.5 0.0 0 
        0 45.0 64.0 L 58.0 64.0 A 6.0 5.0 0.0 0 1 58.0 77.0 L 42.0 77.0 A 15.0 15.0 0.0 0 1 29.0 62.0 L 29.0 35.0 A 5.0 
        6.0 0.0 0 1 42.0 35.0 z" stroke-miterlimit="15" stroke="#ffffff"/>
</svg>