<?xml version="1.0" standalone="no"?>
<!--Created with Sketsa SVG Editor (http://www.kiyut.com)-->
<svg contentScriptType="text/ecmascript" width="100.0px" xmlns:xlink="http://www.w3.org/1999/xlink" baseProfile="full"
    zoomAndPan="magnify" contentStyleType="text/css" height="100.0px" preserveAspectRatio="xMidYMid meet" xmlns="http://www.w3.org/2000/svg"
    version="1.0">
    <rect x="1" y="1.0" fill="url(#radGradient)" width="98" rx="10" ry="10" height="98" stroke="#197C91" stroke-width="2"/>
    <path fill="#ffffff" d="M 19.0 44.0 A 20.0 20.0 0.0 0 1 37.0 27.0 A 5.0 5.0 0.0 0 1 42.0 30.0 A 80.0 80.0 0.0 0 1 
        47.0 54.0 A 3.0 3.0 0.0 0 0 52.5 55.0 A 30.0 30.0 0.0 0 0 59.0 42.0 A 3.0 3.0 0.0 0 0 57.0 37.8 A 15.0 15.0 0.0 
        0 0 51.0 39.0 A 30.0 30.0 0.0 0 1 62.0 27.0 A 9.0 9.0 0.0 0 1 75.0 34.0 A 35.0 35.0 0.0 0 1 73.0 49.0 A 50.0 
        50.0 0.0 0 1 58.0 70.0 A 25.0 50.0 20.0 0 1 42.0 76.0 A 9.0 9.0 0.0 0 1 36.0 69.0 A 150.0 150.0 0.0 0 0 28.0 
        43.0 A 8.0 20.0 20.0 0 0 19.0 44.0 z" stroke="#ffffff"/>
    <defs>
        <radialGradient r="100%" cx="0.5" cy="-0.3" id="radGradient">
            <stop style="stop-color: #B2E5FA;" offset="40%"/>
            <stop style="stop-color: #1C84A7;" offset="100%"/>
        </radialGradient>
    </defs>
</svg>