<?xml version="1.0" standalone="no"?>
<!--Created with Sketsa SVG Editor (http://www.kiyut.com)-->
<svg contentScriptType="text/ecmascript" width="100.0px" xmlns:xlink="http://www.w3.org/1999/xlink" baseProfile="full"
    zoomAndPan="magnify" contentStyleType="text/css" height="100.0px" preserveAspectRatio="xMidYMid meet" xmlns="http://www.w3.org/2000/svg"
    version="1.0">
    <defs>
        <radialGradient r="100%" cx="0.5" cy="-0.3" id="radGradient">
            <stop style="stop-color: #CDB9D2;" offset="40%"/>
            <stop style="stop-color: #441644;" offset="100%"/>
        </radialGradient>
    </defs>
    <rect x="1" y="1.0" fill="url(#radGradient)" width="98" rx="10" ry="10" height="98" stroke="#512C4E" stroke-width="2"/>
    <ellipse rx="28" fill="#ffffff" ry="21" cx="42.5" cy="52" stroke="#ffffff"/>
    <polygon fill="#512c4e" points="51.0,64.0 35.0,64.0 35.0,63.0 40.0,63.0 40.0,56.0 31.0,44.0 26.0,44.0 26.0,42.5 
        42.0,42.5 42.0,44.0 37.0,44.0 44.0,54.0 51.0,48.0 46.0,48.0 46.0,46.5 59.0,46.5 59.0,48.0 54.0,48.0 46.0,55.0 
        46.0,63.0 51.0,63.0" stroke="#512c4e"/>
    <rect fill="#ffffff" x="72.25" width="9.5" height="7.25" y="65.25" stroke="#ffffff"/>
    <polygon fill="#ffffff" points="73.0,62.0 73.0,30.0 90.0,30.0 81.0,62.0" stroke="#ffffff"/>
</svg>