<?xml version="1.0" standalone="no"?>
<!--Created with Sketsa SVG Editor (http://www.kiyut.com)-->
<?xml-stylesheet type="text/css" href="..\healthcare.css" ?>
<svg contentScriptType="text/ecmascript" width="100.0px" xmlns:xlink="http://www.w3.org/1999/xlink" baseProfile="full"
    zoomAndPan="magnify" contentStyleType="text/css" height="100.0px" preserveAspectRatio="xMidYMid meet" xmlns="http://www.w3.org/2000/svg"
    version="1.0">
    <path d="M 76.88 30.05 c -2.64 -0.62 -9.52 -1.32 -9.52 -1.32 l -5.98 -2.4 c -0.35 1.55 -1.43 3.84 -4.84 4.84 l 
        -18.44 5.28 c -0.61 0.19 -2.12 0.62 -3.61 0.62 c -0.79 0.0 -1.48 -0.12 -2.08 -0.36 c -1.69 -0.73 -2.93 -1.88 
        -3.67 -3.32 c -1.75 2.17 -2.81 4.92 -2.81 7.93 l 0.0 5.0 l -4.96 -0.0 C 16.27 39.78 8.99 35.25 0.63 34.36 v 
        58.11 c 8.39 -0.9 15.7 -5.45 20.37 -12.04 h 22.06 c 5.78 7.43 14.76 12.2 24.84 12.21 C 85.35 92.64 99.49 78.34 
        99.5 60.69 C 99.5 46.19 88.73 32.83 76.88 30.05 z M 64.13 34.97 c 0.0 -0.94 0.78 -1.62 1.61 -1.62 c 0.93 0.0 1.6 
        0.68 1.6 1.62 v 7.01 c 0.0 0.84 -0.67 1.63 -1.6 1.63 c -0.83 0.0 -1.61 -0.79 -1.61 -1.63 V 34.97 z M 68.74 64.81 
        c 0.0 5.32 -4.26 9.65 -9.51 9.65 c -5.25 0.0 -9.52 -4.33 -9.52 -9.65 v -0.73 h 3.2 v 0.73 c 0.01 3.52 2.84 6.4 
        6.32 6.41 c 3.48 -0.01 6.31 -2.89 6.31 -6.41 v -0.73 h 3.2 V 64.81 z"/>
    <path d="M 21.53 15.88 c 3.31 -1.86 6.41 -2.37 9.23 -1.54 c 2.92 0.86 5.09 3.01 6.38 4.64 c -3.32 2.52 -5.37 6.53 
        -5.45 10.88 c -0.01 0.28 0.04 0.54 0.09 0.79 c 0.2 1.11 0.87 1.96 2.02 2.46 c 0.07 0.03 0.26 0.09 0.68 0.09 c 
        1.14 0.0 2.53 -0.46 2.55 -0.47 l 18.44 -5.28 c 1.42 -0.42 2.15 -1.19 2.24 -2.36 l 0.03 -0.19 c 0.0 -0.01 0.0 
        -0.02 0.0 -0.03 c 0.15 -0.85 -0.74 -2.29 -1.51 -2.72 c -1.18 -0.67 -2.27 -1.31 -3.28 -1.91 c -3.76 -2.21 -6.47 
        -3.81 -9.22 -3.81 c -0.3 0.0 -0.61 0.03 -0.91 0.07 c -1.59 -2.32 -5.02 -6.39 -10.3 -7.97 c -4.43 -1.33 -9.11 
        -0.65 -13.89 2.04 C 16.76 11.62 7.26 16.43 0.67 10.42 v 7.27 C 9.5 22.06 19.36 17.1 21.53 15.88 z"/>
</svg>