<?xml version="1.0" standalone="no"?>
<!--Created with Sketsa SVG Editor (http://www.kiyut.com)-->
<?xml-stylesheet type="text/css" href="..\healthcare.css" ?>
<svg contentScriptType="text/ecmascript" width="100.0px" xmlns:xlink="http://www.w3.org/1999/xlink" baseProfile="full"
    zoomAndPan="magnify" contentStyleType="text/css" height="100.0px" preserveAspectRatio="xMidYMid meet" xmlns="http://www.w3.org/2000/svg"
    version="1.0">
    <path d="M 43.82 27.58 h 2.17 c 12.12 0.02 19.07 11.43 19.12 19.16 c -0.05 1.5 -0.42 2.8 -2.15 2.76 c -3.63 0.04 
        -2.33 -5.75 -5.33 -10.65 c -1.42 -2.42 -5.97 -6.81 -11.15 -6.77 h -1.91 c -2.78 -0.04 -8.01 1.55 -11.53 6.77 c 
        -4.39 6.3 -1.51 10.92 -5.19 10.9 c -0.57 0.02 -2.19 -0.14 -2.17 -2.75 C 25.86 35.14 36.85 27.6 43.82 27.58 L 
        43.82 27.58 z" transform="matrix(1.0 0.0 0.0 1.0 -0.0 -3.81E-6)"/>
    <path d="M 45.47 93.11 c 4.55 0.05 8.06 -4.51 8.11 -7.65 v -6.51 c -0.05 -13.34 14.12 -18.6 14.07 -31.96 C 67.7 
        34.49 56.27 25.04 45.47 25.06 c -8.96 -0.02 -15.06 5.69 -17.37 8.65 c -6.93 8.47 -2.95 16.55 -7.85 16.55 c -1.39 
        0.0 -2.76 -0.78 -2.78 -3.52 C 17.26 33.48 28.31 19.44 45.73 19.42 c 14.05 0.02 27.86 11.09 27.86 28.08 c 0.0 
        15.73 -13.93 19.02 -13.93 32.83 v 5.9 c 0.0 6.06 -5.47 13.0 -14.45 13.03 c -0.33 -0.09 -0.71 -0.21 -1.13 -0.26 c 
        -1.65 -0.49 -2.81 -2.2 -2.4 -3.88 c 0.47 -1.46 1.84 -1.82 3.68 -2.0 H 45.47 L 45.47 93.11 z" transform="matrix(1.0 0.0 0.0 1.0 -0.0 -3.81E-6)"/>
    <polygon points="33.83,70.11 30.29,73.62 20.56,64.12 24.09,60.62" transform="matrix(1.0 0.0 0.0 1.0 -0.0 -3.81E-6)"/>
    <path d="M 33.64 58.02 c -0.05 -1.53 1.2 -2.77 2.69 -2.82 c 1.63 0.05 2.88 1.29 2.85 2.82 c 0.02 1.54 -1.23 2.77 
        -2.85 2.82 C 34.84 60.79 33.59 59.56 33.64 58.02 L 33.64 58.02 z" transform="matrix(1.0 0.0 0.0 1.0 -0.0 -3.81E-6)"/>
    <path d="M 42.62 49.14 c 0.02 -1.58 1.27 -2.83 2.85 -2.82 c 1.53 -0.01 2.78 1.24 2.85 2.82 c -0.07 1.47 -1.32 2.72 
        -2.85 2.66 C 43.89 51.85 42.64 50.61 42.62 49.14 L 42.62 49.14 z" transform="matrix(1.0 0.0 0.0 1.0 -0.0 -3.81E-6)"/>
    <path d="M 6.13 85.19 c -0.07 -1.49 1.2 -2.74 2.71 -2.66 c 1.58 -0.08 2.83 1.17 2.85 2.66 c -0.02 1.57 -1.27 2.81 
        -2.85 2.82 C 7.33 88.0 6.06 86.76 6.13 85.19 L 6.13 85.19 z" transform="matrix(1.0 0.0 0.0 1.0 -0.0 -3.81E-6)"/>
    <path d="M 15.13 76.31 c 0.0 -1.56 1.25 -2.81 2.85 -2.82 c 1.49 0.02 2.76 1.26 2.69 2.82 c 0.07 1.5 -1.2 2.74 -2.69 
        2.82 C 16.38 79.05 15.13 77.82 15.13 76.31 L 15.13 76.31 z" transform="matrix(1.0 0.0 0.0 1.0 -0.0 -3.81E-6)"/>
    <path clip-rule="evenodd" d="M 53.7 14.03 c 12.0 3.01 21.62 11.98 25.37 23.56 l 4.43 -1.39 C 79.21 23.16 68.5 13.02 
        54.97 9.65 l -1.27 4.51 V 14.03 L 53.7 14.03 z" fill-rule="evenodd" transform="matrix(1.0 0.0 0.0 1.0 -0.0 -3.81E-6)"/>
    <path clip-rule="evenodd" d="M 56.13 4.89 L 57.38 0.37 c 16.76 4.16 30.18 16.67 35.5 32.83 l -4.69 1.5 C 83.38 20.12 
        71.24 8.73 56.13 4.89 L 56.13 4.89 z" fill-rule="evenodd" transform="matrix(1.0 0.0 0.0 1.0 -0.0 -3.81E-6)"/>
</svg>