<?xml version="1.0" standalone="no"?>
<!--Created with Sketsa SVG Editor (http://www.kiyut.com)-->
<?xml-stylesheet type="text/css" href="..\healthcare.css" ?>
<svg contentScriptType="text/ecmascript" width="100.0px" xmlns:xlink="http://www.w3.org/1999/xlink" baseProfile="full"
    zoomAndPan="magnify" contentStyleType="text/css" height="100.0px" preserveAspectRatio="xMidYMid meet" xmlns="http://www.w3.org/2000/svg"
    version="1.0">
    <path d="M 99.33 49.55 c 0.0 4.26 -1.65 8.13 -4.33 11.01 c -0.46 6.08 -4.26 11.21 -9.56 13.52 v 0.06 c -6.47 3.82 
        -10.33 10.33 -11.51 18.15 h -5.98 V 74.15 c 0.04 -5.65 1.79 -9.27 5.47 -11.5 c 1.34 -0.78 2.57 -1.68 3.61 -2.68 
        c 2.73 0.99 5.14 2.94 6.68 5.71 c 0.32 0.55 0.89 0.85 1.46 0.85 c 0.27 0.0 0.56 -0.07 0.82 -0.22 c 0.82 -0.46 
        1.11 -1.49 0.65 -2.31 h -0.01 c -1.72 -3.1 -4.34 -5.39 -7.31 -6.75 c 1.52 -2.38 2.37 -5.2 2.33 -8.6 c 0.0 -0.02 
        0.02 -0.03 0.02 -0.06 c 0.0 -1.53 -0.22 -3.03 -0.63 -4.43 c 3.49 -0.68 6.57 -2.47 8.83 -5.0 c 0.63 -0.7 0.58 
        -1.77 -0.11 -2.4 c -0.69 -0.63 -1.73 -0.57 -2.35 0.11 c -1.97 2.18 -4.64 3.66 -7.66 4.07 c -2.43 -4.57 -6.96 
        -7.81 -12.26 -8.4 c 0.35 -2.9 1.64 -5.48 3.58 -7.45 c 0.64 -0.66 0.64 -1.73 0.0 -2.39 c -0.65 -0.67 -1.73 -0.67 
        -2.38 0.0 c -2.48 2.52 -4.14 5.88 -4.56 9.62 c -6.23 -0.8 -11.02 -6.15 -11.03 -12.67 c 0.0 -0.93 -0.76 -1.7 
        -1.65 -1.7 c -0.95 0.0 -1.69 0.77 -1.69 1.7 c 0.0 1.1 0.11 2.15 0.31 3.19 c -2.36 2.07 -5.3 3.11 -8.24 3.11 c 
        -1.45 0.0 -2.91 -0.26 -4.28 -0.77 c 0.0 0.0 -0.02 -0.01 -0.04 -0.01 c -1.69 -0.62 -3.25 -1.6 -4.59 -2.97 c -0.64 
        -0.66 -1.71 -0.66 -2.37 0.0 c -0.66 0.66 -0.66 1.73 0.0 2.39 c 1.38 1.39 2.93 2.47 4.58 3.25 c -0.33 4.22 -2.75 
        7.85 -6.14 9.89 c -1.96 -3.01 -4.9 -5.4 -8.51 -6.56 c -0.9 -0.28 -1.84 0.21 -2.12 1.1 c -0.25 0.89 0.2 1.84 1.09 
        2.12 c 2.68 0.86 4.84 2.54 6.39 4.68 c -1.04 0.28 -2.11 0.44 -3.25 0.44 c 0.0 0.0 0.0 0.0 -0.02 0.0 H 22.42 c 
        -4.29 0.0 -8.24 1.73 -11.11 4.57 c -0.68 0.65 -0.69 1.73 -0.03 2.39 c 0.32 0.34 0.76 0.51 1.21 0.51 c 0.38 0.0 
        0.8 -0.16 1.13 -0.48 c 2.28 -2.25 5.38 -3.61 8.8 -3.61 h 0.18 h 0.0 h 0.02 c 8.05 0.0 14.73 -6.07 15.78 -13.95 c 
        1.14 0.25 2.29 0.39 3.45 0.39 c 3.27 0.0 6.56 -1.03 9.34 -3.06 c 1.01 2.35 2.62 4.4 4.56 5.99 c -1.98 2.48 -3.15 
        5.42 -3.46 8.43 c -0.84 -0.14 -1.71 -0.21 -2.59 -0.21 c -2.52 0.0 -5.08 0.61 -7.47 1.9 c -0.82 0.44 -1.13 1.47 
        -0.69 2.29 c 0.3 0.56 0.89 0.89 1.49 0.89 c 0.27 0.0 0.52 -0.06 0.76 -0.21 c 1.92 -1.02 3.92 -1.5 5.91 -1.5 c 
        0.89 0.0 1.76 0.1 2.59 0.28 c 0.36 3.43 1.83 6.79 4.34 9.46 c 0.34 0.35 0.77 0.52 1.2 0.52 c 0.41 0.0 0.83 -0.15 
        1.17 -0.47 c 0.68 -0.65 0.7 -1.72 0.05 -2.39 h -0.01 c -2.24 -2.4 -3.42 -5.44 -3.5 -8.52 c 0.0 -0.05 0.01 -0.08 
        0.0 -0.13 c 0.0 -0.06 0.0 -0.13 0.0 -0.19 c 0.0 -2.99 1.02 -5.94 3.04 -8.32 c 2.12 1.07 4.54 1.7 7.11 1.7 c 0.0 
        0.0 0.01 0.01 0.03 0.01 c 0.0 0.0 0.01 0.0 0.03 0.0 c 6.94 0.02 12.55 5.7 12.58 12.74 c -1.32 -0.35 -2.67 -0.53 
        -4.06 -0.53 c -1.99 0.0 -4.01 0.37 -5.95 1.18 c -0.86 0.36 -1.27 1.34 -0.92 2.2 c 0.35 0.86 1.31 1.28 2.17 0.93 
        c 1.56 -0.63 3.14 -0.94 4.71 -0.94 c 1.26 0.0 2.51 0.19 3.68 0.56 c -0.41 1.9 -1.21 3.42 -2.45 4.77 c -0.1 0.08 
        -0.19 0.18 -0.26 0.29 c -0.95 0.95 -2.1 1.82 -3.51 2.69 c -4.84 2.86 -7.16 8.06 -7.11 14.42 v 18.13 h -5.71 V 
        75.04 c 0.0 -6.33 -3.92 -12.34 -8.85 -14.47 c -2.35 -0.93 -4.81 -2.48 -6.6 -4.51 c -2.55 1.75 -5.61 2.79 -8.9 
        2.79 c -3.3 0.0 -6.36 -1.02 -8.89 -2.76 c -2.52 1.68 -5.57 2.66 -8.82 2.66 C 7.9 58.75 0.67 51.4 0.67 42.34 c 
        0.0 -6.77 4.04 -12.58 9.83 -15.08 c 1.56 -7.23 7.88 -12.63 15.48 -12.63 c 0.4 0.0 0.77 0.03 1.15 0.06 c 2.86 
        -4.24 7.68 -7.03 13.13 -7.03 c 2.7 -1.79E-7 5.24 0.68 7.46 1.9 C 50.22 7.86 53.23 6.88 56.46 6.88 c 4.15 0.0 
        7.94 1.64 10.77 4.31 c 1.19 -0.29 2.42 -0.46 3.7 -0.46 c 6.42 0.0 11.97 3.91 14.44 9.52 c 6.51 2.0 11.25 8.12 
        11.25 15.37 c 0.0 1.45 -0.19 2.86 -0.54 4.19 C 98.11 42.51 99.33 45.88 99.33 49.55 z" transform="matrix(1.0 0.0 0.0 1.0 -0.0 3.81E-6)"/>
</svg>