<?xml version="1.0" standalone="no"?>
<!--Created with Sketsa SVG Editor (http://www.kiyut.com)-->
<?xml-stylesheet type="text/css" href="..\healthcare.css" ?>
<svg contentScriptType="text/ecmascript" width="100.0px" xmlns:xlink="http://www.w3.org/1999/xlink" baseProfile="full"
    zoomAndPan="magnify" contentStyleType="text/css" height="100.0px" preserveAspectRatio="xMidYMid meet" xmlns="http://www.w3.org/2000/svg"
    version="1.0">
    <path d="M 7.78 53.38 h 8.75 c 0.67 0.0 1.28 0.33 1.65 0.87 c 0.0 0.0 1.67 2.5 3.33 4.99 c 0.92 -8.14 4.14 -36.57 
        4.14 -36.57 c 0.11 -0.94 0.88 -1.68 1.85 -1.73 c 0.96 -0.06 1.81 0.58 2.03 1.5 c 0.0 0.0 4.19 17.47 6.18 25.72 c 
        1.31 -3.67 2.63 -7.38 2.63 -7.38 c 0.28 -0.78 1.02 -1.3 1.85 -1.31 c 0.83 -0.0 1.58 0.51 1.86 1.29 c 0.0 0.0 
        3.89 10.51 4.67 12.63 c 1.97 0.0 7.6 0.0 7.6 0.0 c 0.66 0.0 1.28 0.33 1.65 0.87 c 0.0 0.0 1.67 2.5 3.33 4.99 c 
        0.92 -8.14 4.14 -36.57 4.14 -36.57 c 0.11 -0.94 0.88 -1.68 1.84 -1.73 c 0.96 -0.06 1.81 0.58 2.03 1.5 c 0.0 0.0 
        4.19 17.46 6.17 25.72 c 1.3 -3.67 2.63 -7.38 2.63 -7.38 c 0.28 -0.78 1.01 -1.3 1.84 -1.31 c 0.83 -0.0 1.58 0.51 
        1.86 1.29 c 0.0 0.0 3.9 10.51 4.68 12.63 c 1.36 0.0 5.39 0.0 7.77 0.0 l 0.41 -0.78 C 96.45 46.15 99.2 34.2 99.2 
        25.5 C 99.2 14.41 91.07 1.0 75.24 1.0 C 52.61 1.0 49.7 22.07 49.7 22.07 S 46.89 1.1 24.28 1.1 C 9.0 1.1 0.8 
        14.02 0.8 25.5 c 0.0 9.92 4.37 22.16 6.61 27.19 L 7.78 53.38 z"/>
    <path d="M 83.12 57.3 c -0.83 0.0 -1.57 -0.52 -1.85 -1.28 c 0.0 0.0 -1.75 -4.72 -3.26 -8.81 c -1.42 4.0 -3.02 8.52 
        -3.02 8.52 c -0.29 0.82 -1.09 1.35 -1.96 1.3 c -0.87 -0.04 -1.61 -0.65 -1.81 -1.5 c 0.0 0.0 -2.82 -11.74 -5.11 
        -21.28 c -1.36 12.02 -3.48 30.78 -3.48 30.78 c -0.09 0.81 -0.69 1.49 -1.5 1.68 c -0.81 0.19 -1.65 -0.13 -2.11 
        -0.82 c 0.0 0.0 -4.78 -7.15 -5.75 -8.59 c -1.64 0.0 -7.92 0.0 -7.92 0.0 c -0.83 0.0 -1.57 -0.52 -1.85 -1.28 c 
        0.0 0.0 -1.75 -4.72 -3.26 -8.81 c -1.42 4.0 -3.03 8.52 -3.03 8.52 c -0.29 0.82 -1.09 1.35 -1.96 1.3 c -0.87 
        -0.04 -1.61 -0.65 -1.82 -1.5 c 0.0 0.0 -2.82 -11.74 -5.1 -21.27 c -1.36 12.01 -3.48 30.77 -3.48 30.77 c -0.09 
        0.81 -0.69 1.49 -1.5 1.68 c -0.81 0.19 -1.64 -0.13 -2.11 -0.82 c 0.0 0.0 -4.78 -7.15 -5.75 -8.59 c -0.8 0.0 
        -3.34 0.0 -5.55 0.0 c 14.15 24.98 39.78 41.44 39.78 41.44 s 26.09 -16.46 40.46 -41.44 H 83.12 z"/>
</svg>