<?xml version="1.0" standalone="no"?>
<!--Created with Sketsa SVG Editor (http://www.kiyut.com)-->
<?xml-stylesheet type="text/css" href="..\healthcare.css" ?>
<svg contentScriptType="text/ecmascript" width="100.0px" xmlns:xlink="http://www.w3.org/1999/xlink" baseProfile="full"
    zoomAndPan="magnify" contentStyleType="text/css" height="100.0px" preserveAspectRatio="xMidYMid meet" xmlns="http://www.w3.org/2000/svg"
    version="1.0">
    <rect x="0.56" width="81.13" y="63.54" height="6.35"/>
    <path d="M 60.85 80.68 c 0.0 -4.23 -18.74 -3.81 -18.74 0.06 c 0.0 0.61 0.0 12.99 0.0 14.31 c -0.19 1.97 1.25 3.91 
        3.25 3.91 c 1.48 0.0 50.19 0.0 50.19 0.0 c 2.0 0.0 3.61 -1.6 3.61 -3.58 c 0.0 0.0 0.0 -45.25 0.0 -45.32 c 0.0 
        -28.48 -24.6 -51.37 -53.8 -48.73 c -1.98 0.18 -3.45 1.92 -3.27 3.9 c 0.0 1.31 0.0 15.42 0.0 15.42 h 18.76 V 9.72 
        c 17.93 4.78 31.09 21.04 31.1 40.32 c -0.06 19.26 -13.16 35.6 -31.1 40.35 V 80.68 z"/>
    <path d="M 67.17 50.16 c 0.0 -4.44 3.62 -8.03 8.08 -8.03 c 4.46 0.0 8.09 3.59 8.09 8.03 c 0.0 4.42 -3.63 8.03 -8.09 
        8.03 C 70.79 58.19 67.17 54.58 67.17 50.16 z"/>
    <path d="M 56.84 41.85 H 29.76 L 0.5 46.3 v 11.88 l 21.28 0.0 c -0.64 -1.04 -1.04 -2.25 -1.04 -3.55 c 0.0 -3.75 3.07 
        -6.79 6.84 -6.79 h 14.83 l 12.02 -2.5 l 0.67 3.17 l -12.35 2.56 H 27.59 c -1.97 0.0 -3.57 1.59 -3.57 3.55 c 0.0 
        1.95 1.58 3.52 3.53 3.55 l 29.36 0.0 c 4.54 -0.04 8.19 -3.67 8.19 -8.16 C 65.08 45.51 61.41 41.85 56.84 41.85 z"/>
</svg>