<?xml version="1.0" standalone="no"?>
<!--Created with Sketsa SVG Editor (http://www.kiyut.com)-->
<?xml-stylesheet type="text/css" href="..\healthcare.css" ?>
<svg contentScriptType="text/ecmascript" width="100.0px" xmlns:xlink="http://www.w3.org/1999/xlink" baseProfile="full"
    zoomAndPan="magnify" contentStyleType="text/css" height="100.0px" preserveAspectRatio="xMidYMid meet" xmlns="http://www.w3.org/2000/svg"
    version="1.0">
    <path d="M 49.51 21.8 c -11.35 0.0 -20.58 9.09 -20.58 20.27 h 4.89 c 0.0 -8.52 7.04 -15.46 15.69 -15.46 s 15.69 6.93 
        15.69 15.46 c 0.0 4.09 -5.19 11.94 -8.02 16.15 c -0.48 0.71 -0.92 1.37 -1.3 1.95 c -1.06 1.61 -1.15 3.88 -1.26 
        6.29 c -0.11 2.72 -0.25 5.8 -1.75 6.87 c -1.08 0.78 -3.18 0.77 -6.08 -0.02 l -1.3 4.64 c 1.88 0.51 3.57 0.77 
        5.06 0.77 c 2.08 0.0 3.8 -0.5 5.19 -1.5 c 3.41 -2.45 3.6 -6.95 3.75 -10.57 c 0.06 -1.34 0.14 -3.37 0.48 -3.88 c 
        0.37 -0.57 0.8 -1.21 1.27 -1.9 c 3.55 -5.28 8.83 -13.27 8.83 -18.81 C 70.09 30.89 60.86 21.8 49.51 21.8 z"/>
    <path d="M 39.39 42.07 c 0.0 -5.5 4.54 -9.97 10.12 -9.97 c 5.58 0.0 10.12 4.47 10.12 9.97 c 0.0 1.45 -0.32 2.83 
        -0.89 4.08 l 3.4 1.58 c 0.8 -1.72 1.25 -3.64 1.25 -5.66 c 0.0 -7.54 -6.23 -13.67 -13.88 -13.67 s -13.88 6.13 
        -13.88 13.67 l 0.0 0.0 H 39.39 L 39.39 42.07 z"/>
    <path d="M 43.63 71.92 c -4.45 -3.21 -8.9 -6.42 -13.36 -9.62 c -0.15 -0.11 -0.31 -0.06 -0.4 0.06 c -0.02 0.02 -0.04 
        0.04 -0.06 0.06 c -6.28 8.47 -12.57 16.93 -18.85 25.4 c -0.3 0.41 -0.6 0.81 -0.9 1.22 C 10.02 89.09 10.0 89.17 
        10.0 89.27 c 0.0 0.0 2.28 7.02 3.14 9.66 C 13.19 99.07 13.31 99.17 13.46 99.17 c 0.21 0.0 0.43 0.0 0.64 0.0 c 
        2.52 0.0 5.04 0.0 7.56 0.0 h 2.06 c 0.11 -0.04 0.2 -0.09 0.26 -0.16 c 0.23 -0.31 0.47 -0.63 0.7 -0.94 c 3.53 
        -4.76 7.07 -9.52 10.6 -14.28 c 2.83 -3.8 5.65 -7.61 8.48 -11.41 C 43.86 72.21 43.76 72.02 43.63 71.92 z"/>
    <path d="M 89.51 10.53 c -1.04 -3.21 -2.08 -6.42 -3.13 -9.62 C 86.34 0.77 86.21 0.67 86.06 0.67 c -3.41 0.0 -6.82 
        0.0 -10.22 0.0 c -0.13 0.0 -0.22 0.06 -0.27 0.14 c -0.0 0.01 -0.01 0.01 -0.01 0.02 c -4.77 6.43 -9.55 12.86 
        -14.32 19.29 c -0.1 0.14 -0.03 0.37 0.12 0.44 c 5.25 2.67 9.07 7.37 10.55 13.01 c 0.08 0.29 0.44 0.29 0.6 0.08 c 
        2.89 -3.9 5.79 -7.8 8.68 -11.69 c 1.28 -1.72 8.31 -11.2 8.31 -11.2 C 89.52 10.67 89.53 10.59 89.51 10.53 z"/>
</svg>