<?xml version="1.0" standalone="no"?>
<!--Created with Sketsa SVG Editor (http://www.kiyut.com)-->
<?xml-stylesheet type="text/css" href="..\healthcare.css" ?>
<svg contentScriptType="text/ecmascript" width="100.0px" xmlns:xlink="http://www.w3.org/1999/xlink" baseProfile="full"
    zoomAndPan="magnify" contentStyleType="text/css" height="100.0px" preserveAspectRatio="xMidYMid meet" xmlns="http://www.w3.org/2000/svg"
    version="1.0">
    <path d="M 62.74 1.5 C 46.18 1.5 30.92 13.94 27.74 27.63 c -0.71 3.05 -1.51 11.0 -1.51 11.0 l -7.61 19.2 c -0.15 
        0.35 -0.23 0.74 -0.23 1.15 c 0.0 1.62 1.32 2.94 2.94 2.94 h 2.6 l 4.64 -4.64 c 2.0 -1.99 5.23 -1.99 7.22 0.0 c 
        0.73 0.74 1.2 1.65 1.39 2.6 l 1.42 -1.42 c 1.99 -2.0 5.22 -2.0 7.22 0.0 c 1.95 1.96 1.98 5.1 0.1 7.1 c 0.96 0.19 
        1.87 0.66 2.61 1.4 c 1.99 2.0 1.99 5.23 -0.0 7.22 l -1.48 1.48 c 0.95 0.19 1.85 0.65 2.59 1.39 c 1.99 2.0 1.99 
        5.23 0.0 7.23 l -3.29 3.29 v 10.12 h 38.96 V 66.71 C 93.78 60.04 99.25 49.66 99.25 38.02 C 99.25 17.84 82.91 1.5 
        62.74 1.5 z M 35.22 45.93 c -2.25 0.0 -4.08 -1.83 -4.08 -4.07 c 0.0 -2.26 1.82 -4.08 4.08 -4.08 c 2.25 0.0 4.07 
        1.82 4.07 4.08 C 39.28 44.1 37.47 45.93 35.22 45.93 z M 54.27 55.43 c 1.02 0.0 1.86 0.84 1.86 1.85 c 0.0 1.03 
        -0.84 1.86 -1.86 1.86 c -1.02 0.0 -1.85 -0.83 -1.85 -1.86 C 52.42 56.26 53.25 55.43 54.27 55.43 z M 53.17 67.02 
        c -1.02 0.0 -1.85 -0.83 -1.85 -1.86 c 0.0 -1.02 0.83 -1.86 1.85 -1.86 c 1.02 0.0 1.86 0.84 1.86 1.86 C 55.02 
        66.19 54.19 67.02 53.17 67.02 z M 57.12 75.01 c -1.54 -0.13 -2.67 -1.48 -2.55 -3.01 c 0.14 -1.53 1.48 -2.66 3.01 
        -2.53 c 1.52 0.13 2.66 1.48 2.53 3.0 C 59.98 74.01 58.64 75.14 57.12 75.01 z M 59.8 63.89 c -1.55 0.0 -2.78 
        -1.24 -2.78 -2.78 s 1.23 -2.77 2.78 -2.77 c 1.52 0.0 2.76 1.24 2.76 2.77 S 61.32 63.89 59.8 63.89 z M 63.74 
        69.71 c -1.03 0.0 -1.86 -0.83 -1.86 -1.86 c 0.0 -1.01 0.83 -1.85 1.86 -1.85 c 1.02 0.0 1.85 0.84 1.85 1.85 C 
        65.59 68.88 64.76 69.71 63.74 69.71 z M 67.88 58.92 H 67.23 v -3.31 l 0.64 -0.01 c 4.13 -0.01 7.5 -3.37 7.51 
        -7.5 c -0.01 -4.13 -3.38 -7.5 -7.51 -7.5 l -0.64 -0.0 v -3.31 h 0.65 c 5.97 0.0 10.82 4.85 10.82 10.82 S 73.85 
        58.92 67.88 58.92 z"/>
    <path d="M 48.0 78.7 c -1.09 -1.09 -2.87 -1.09 -3.96 0.0 L 30.85 91.89 l -1.64 -1.64 l 17.69 -17.68 c 1.09 -1.09 
        1.09 -2.87 0.0 -3.96 c -1.09 -1.1 -2.87 -1.1 -3.96 -0.0 L 25.25 86.28 L 23.61 84.64 l 20.57 -20.58 c 1.09 -1.09 
        1.1 -2.87 0.0 -3.97 c -1.09 -1.1 -2.87 -1.1 -3.96 -0.0 L 19.65 80.67 l -1.64 -1.64 L 34.16 62.88 c 1.09 -1.09 
        1.09 -2.87 0.0 -3.96 c -1.09 -1.09 -2.87 -1.1 -3.96 0.0 L 9.42 79.67 c -0.01 -2.01 -0.03 -5.63 -0.03 -8.89 c 0.0 
        -4.53 -5.72 -5.21 -6.01 -4.89 C 3.1 66.22 0.25 97.71 0.25 97.71 h 16.41 h 16.35 l 0.0 0.0 l 0.0 0.0 l 1.82 -1.83 
        l -0.02 -0.02 l 13.2 -13.2 C 49.1 81.57 49.1 79.79 48.0 78.7 z"/>
</svg>