<?xml version="1.0" standalone="no"?>
<!--Created with Sketsa SVG Editor (http://www.kiyut.com)-->
<?xml-stylesheet type="text/css" href="..\healthcare.css" ?>
<svg contentScriptType="text/ecmascript" width="100.0px" xmlns:xlink="http://www.w3.org/1999/xlink" baseProfile="full"
    zoomAndPan="magnify" contentStyleType="text/css" height="100.0px" preserveAspectRatio="xMidYMid meet" xmlns="http://www.w3.org/2000/svg"
    version="1.0">
    <path d="M 8.13 76.64 C 1.2 76.64 0.67 69.08 0.67 69.08 V 21.67 h 91.76 c 0.0 0.0 6.91 -0.33 6.91 6.13 c 0.0 6.78 
        -5.98 6.41 -5.98 6.41 H 68.86 c -0.61 -0.23 -1.26 -0.4 -1.95 -0.48 L 46.88 31.16 l -22.15 -6.47 c -0.71 -0.21 
        -1.44 0.2 -1.65 0.92 c -0.2 0.72 0.2 1.5 0.9 1.71 l 22.59 6.6 c 1.56 0.45 2.85 1.5 3.63 2.94 c 0.79 1.44 0.97 
        3.09 0.52 4.67 c -0.44 1.58 -1.47 2.88 -2.9 3.68 c -1.41 0.79 -3.03 0.98 -4.58 0.54 c -0.01 -0.0 -0.02 -0.0 
        -0.04 -0.0 l -9.5 -2.79 c -4.93 -1.57 -8.6 0.01 -12.5 1.67 c -3.0 1.29 -6.1 2.6 -10.31 2.9 c -0.52 0.03 -1.06 
        0.07 -1.69 0.06 c -0.74 -0.01 -1.34 0.59 -1.35 1.34 c -0.01 0.75 0.61 1.4 1.35 1.4 c 5.65 -0.0 9.58 -1.69 13.06 
        -3.17 c 3.71 -1.59 6.65 -2.85 10.66 -1.57 c 0.01 0.0 0.84 0.25 2.0 0.58 c -2.66 1.24 -4.65 3.8 -5.05 6.95 c 
        -0.45 3.62 1.33 7.02 4.24 8.76 c -1.83 1.26 -3.14 3.27 -3.43 5.66 c -0.55 4.4 2.54 8.7 6.89 9.12 H 8.13 z"/>
    <path d="M 80.62 70.89 h 12.14 v -3.09 H 80.62 V 70.89 z M 85.17 52.75 v 4.55 h -4.55 v 3.09 h 4.55 v 4.5 h 3.05 v 
        -4.5 h 4.54 v -3.09 h -4.54 v -4.55 H 85.17 z M 86.69 77.03 c -7.44 0.0 -11.07 -6.15 -11.07 -11.63 c 0.0 -8.05 
        11.07 -25.86 11.07 -25.86 s 11.07 17.8 11.07 25.86 C 97.76 70.88 94.14 77.03 86.69 77.03"/>
    <path d="M 71.84 43.31 c -0.42 3.36 -3.46 5.76 -6.78 5.33 l -14.69 -1.87 c 1.42 -1.14 2.45 -2.69 2.96 -4.49 c 0.65 
        -2.27 0.38 -4.67 -0.76 -6.75 c -0.19 -0.33 -0.39 -0.66 -0.61 -0.96 l 14.62 1.87 C 69.9 36.86 72.26 39.94 71.84 
        43.31"/>
    <path d="M 64.74 57.55 c -0.2 1.63 -1.02 3.08 -2.3 4.09 c -1.28 1.0 -2.87 1.45 -4.48 1.24 l -20.13 -2.57 c -3.32 
        -0.43 -5.68 -3.51 -5.26 -6.87 c 0.2 -1.63 1.02 -3.08 2.3 -4.09 c 1.28 -1.01 2.87 -1.45 4.48 -1.25 l 20.13 2.58 C 
        62.8 51.11 65.16 54.19 64.74 57.55"/>
    <path d="M 55.35 70.67 c -0.36 2.91 -3.0 4.98 -5.86 4.61 l -11.56 -1.48 c -2.87 -0.36 -4.91 -3.03 -4.55 -5.94 c 0.36 
        -2.91 3.0 -4.98 5.87 -4.61 l 11.56 1.48 c 2.65 0.34 4.59 2.64 4.59 5.27 C 55.39 70.22 55.38 70.44 55.35 70.67"/>
</svg>