<?xml version="1.0" standalone="no"?>
<!--Created with Sketsa SVG Editor (http://www.kiyut.com)-->
<?xml-stylesheet type="text/css" href="..\healthcare.css" ?>
<svg contentScriptType="text/ecmascript" width="100.0px" xmlns:xlink="http://www.w3.org/1999/xlink" baseProfile="full"
    zoomAndPan="magnify" contentStyleType="text/css" height="100.0px" preserveAspectRatio="xMidYMid meet" xmlns="http://www.w3.org/2000/svg"
    version="1.0">
    <path d="M 98.81 50.65 C 87.91 33.96 69.62 24.0 49.88 24.0 C 30.15 24.0 11.85 33.96 0.94 50.65 L 0.38 51.51 l 0.56 
        0.86 c 10.9 16.69 29.2 26.65 48.94 26.65 c 19.74 0.0 38.03 -9.96 48.93 -26.66 L 99.38 51.51 L 98.81 50.65 z M 
        6.35 51.51 C 14.39 40.26 26.18 32.69 39.4 30.03 c -2.21 1.13 -4.26 2.61 -6.05 4.42 c -4.5 4.54 -6.98 10.58 -6.98 
        16.99 c 0.0 6.42 2.48 12.46 6.98 17.0 c 1.91 1.92 4.09 3.46 6.44 4.61 C 26.41 70.48 14.47 62.87 6.35 51.51 z M 
        50.13 66.34 c -8.1 0.0 -14.69 -6.66 -14.69 -14.84 c 0.0 -3.96 1.53 -7.68 4.3 -10.49 c 2.77 -2.8 6.46 -4.34 10.39 
        -4.34 c 3.92 0.0 7.61 1.54 10.39 4.34 c 2.77 2.81 4.3 6.53 4.3 10.49 c 0.0 3.96 -1.53 7.69 -4.3 10.5 C 57.74 
        64.79 54.04 66.34 50.13 66.34 z M 60.92 72.88 c 2.22 -1.13 4.26 -2.61 6.07 -4.43 c 4.49 -4.54 6.97 -10.58 6.97 
        -17.0 c 0.0 -9.21 -5.17 -17.22 -12.73 -21.25 c 12.87 2.8 24.31 10.31 32.17 21.31 C 85.48 62.6 73.92 70.13 60.92 
        72.88 z"/>
    <path d="M 45.03 52.33 c 2.68 0.0 4.85 -2.19 4.85 -4.9 c 0.0 -2.71 -2.18 -4.91 -4.85 -4.91 c -2.68 0.0 -4.85 2.2 
        -4.85 4.91 C 40.18 50.14 42.35 52.33 45.03 52.33"/>
</svg>