<?xml version="1.0" standalone="no"?>
<!--Created with Sketsa SVG Editor (http://www.kiyut.com)-->
<?xml-stylesheet type="text/css" href="..\healthcare.css" ?>
<svg contentScriptType="text/ecmascript" width="100.0px" xmlns:xlink="http://www.w3.org/1999/xlink" baseProfile="full"
    zoomAndPan="magnify" contentStyleType="text/css" height="100.0px" preserveAspectRatio="xMidYMid meet" xmlns="http://www.w3.org/2000/svg"
    version="1.0">
    <path d="M 35.3 66.36 c -1.16 -0.41 -2.43 0.17 -2.85 1.31 s 0.17 2.4 1.33 2.82 c 1.15 0.42 2.43 -0.17 2.85 -1.31 C 
        37.05 68.04 36.46 66.78 35.3 66.36 z"/>
    <path d="M 16.28 41.06 c 1.15 0.42 2.43 -0.17 2.85 -1.31 c 0.42 -1.14 -0.17 -2.4 -1.33 -2.82 c -1.15 -0.42 -2.43 
        0.17 -2.85 1.31 S 15.12 40.65 16.28 41.06 z"/>
    <path d="M 18.45 49.6 c -0.42 1.14 0.18 2.4 1.33 2.82 c 1.15 0.42 2.43 -0.17 2.85 -1.32 c 0.42 -1.14 -0.18 -2.4 
        -1.33 -2.82 C 20.14 47.87 18.87 48.45 18.45 49.6 z"/>
    <path d="M 26.36 42.51 c -1.16 -0.41 -2.43 0.17 -2.85 1.31 c -0.42 1.14 0.17 2.4 1.33 2.82 c 1.15 0.42 2.43 -0.17 
        2.85 -1.31 S 27.51 42.93 26.36 42.51 z"/>
    <path d="M 25.0 36.74 c -1.16 -0.41 -2.43 0.17 -2.85 1.31 c -0.42 1.14 0.17 2.4 1.33 2.82 c 1.15 0.41 2.43 -0.17 
        2.85 -1.31 C 26.74 38.42 26.15 37.16 25.0 36.74 z"/>
    <path d="M 17.83 46.83 c 1.15 0.41 2.43 -0.17 2.85 -1.31 c 0.42 -1.14 -0.17 -2.4 -1.33 -2.82 s -2.43 0.17 -2.85 1.31 
        C 16.09 45.16 16.68 46.42 17.83 46.83 z"/>
    <path d="M 35.3 54.44 c -1.16 -0.42 -2.43 0.17 -2.85 1.31 s 0.17 2.4 1.33 2.82 c 1.15 0.42 2.43 -0.17 2.85 -1.31 C 
        37.05 56.11 36.46 54.85 35.3 54.44 z"/>
    <path d="M 35.3 42.51 c -1.16 -0.41 -2.43 0.17 -2.85 1.31 c -0.42 1.14 0.17 2.4 1.33 2.82 c 1.15 0.42 2.43 -0.17 
        2.85 -1.31 C 37.05 44.19 36.46 42.93 35.3 42.51 z"/>
    <path d="M 35.3 60.4 c -1.16 -0.41 -2.43 0.17 -2.85 1.31 c -0.42 1.14 0.17 2.4 1.33 2.82 c 1.15 0.42 2.43 -0.17 2.85 
        -1.31 C 37.05 62.08 36.46 60.82 35.3 60.4 z"/>
    <path d="M 52.04 71.86 c -3.14 0.0 -17.4 0.0 -17.4 0.0 s -14.26 0.0 -17.41 0.0 s -3.14 1.04 -2.36 3.63 c 0.79 2.59 
        4.45 6.48 8.91 6.48 c 4.45 0.0 7.45 2.07 7.45 2.07 V 98.8 h 6.81 V 84.03 c 0.0 0.0 3.0 -2.07 7.45 -2.07 c 4.45 
        0.0 8.12 -3.89 8.9 -6.48 C 55.18 72.89 55.18 71.86 52.04 71.86 z"/>
    <path d="M 17.51 53.73 c 0.42 -1.14 -0.17 -2.4 -1.33 -2.82 c -1.15 -0.42 -2.43 0.17 -2.85 1.32 c -0.42 1.14 0.17 2.4 
        1.33 2.82 C 15.82 55.46 17.09 54.87 17.51 53.73 z"/>
    <path d="M 35.3 48.47 c -1.16 -0.41 -2.43 0.17 -2.85 1.31 c -0.42 1.14 0.17 2.4 1.33 2.82 c 1.15 0.42 2.43 -0.17 
        2.85 -1.31 C 37.05 50.15 36.46 48.89 35.3 48.47 z"/>
    <path d="M 15.5 48.21 c 0.42 -1.14 -0.18 -2.4 -1.33 -2.82 c -1.15 -0.41 -2.43 0.18 -2.85 1.31 c -0.42 1.14 0.17 2.4 
        1.33 2.82 C 13.81 49.94 15.08 49.35 15.5 48.21 z"/>
    <path d="M 28.92 70.49 c 1.16 0.42 2.43 -0.17 2.85 -1.31 c 0.42 -1.14 -0.18 -2.4 -1.33 -2.82 c -1.15 -0.41 -2.43 
        0.17 -2.85 1.31 C 27.17 68.82 27.77 70.08 28.92 70.49 z"/>
    <path d="M 15.21 57.8 c -0.42 1.14 0.17 2.4 1.33 2.82 c 1.15 0.41 2.43 -0.18 2.85 -1.32 c 0.42 -1.14 -0.17 -2.4 
        -1.33 -2.82 C 16.91 56.07 15.63 56.66 15.21 57.8 z"/>
    <path d="M 27.53 48.67 c -1.15 -0.42 -2.43 0.17 -2.85 1.31 c -0.42 1.14 0.18 2.4 1.33 2.82 c 1.15 0.42 2.43 -0.17 
        2.85 -1.31 C 29.27 50.34 28.68 49.08 27.53 48.67 z"/>
    <path d="M 28.14 64.53 c 1.16 0.42 2.43 -0.17 2.85 -1.31 c 0.42 -1.14 -0.18 -2.4 -1.33 -2.82 s -2.43 0.17 -2.85 1.31 
        C 26.4 62.85 26.99 64.12 28.14 64.53 z"/>
    <path d="M 10.83 35.97 c 0.42 -1.14 -0.18 -2.4 -1.33 -2.82 c -1.15 -0.42 -2.43 0.17 -2.85 1.31 c -0.42 1.14 0.17 2.4 
        1.33 2.82 C 9.14 37.7 10.41 37.11 10.83 35.97 z"/>
    <path d="M 13.3 41.99 c 0.42 -1.14 -0.17 -2.4 -1.33 -2.82 c -1.15 -0.41 -2.43 0.18 -2.85 1.31 c -0.42 1.14 0.17 2.4 
        1.33 2.82 C 11.6 43.72 12.88 43.13 13.3 41.99 z"/>
    <path d="M 17.64 65.43 c 1.15 0.41 2.43 -0.17 2.85 -1.31 c 0.42 -1.14 -0.17 -2.4 -1.33 -2.82 c -1.15 -0.41 -2.43 
        0.18 -2.85 1.31 C 15.9 63.75 16.49 65.01 17.64 65.43 z"/>
    <path d="M 23.86 70.49 c 1.16 0.42 2.43 -0.17 2.85 -1.31 c 0.42 -1.14 -0.17 -2.4 -1.33 -2.82 c -1.15 -0.41 -2.43 
        0.17 -2.85 1.31 S 22.71 70.08 23.86 70.49 z"/>
    <path d="M 25.84 55.75 c -0.42 1.14 0.18 2.4 1.33 2.82 c 1.16 0.42 2.43 -0.17 2.85 -1.31 c 0.42 -1.14 -0.18 -2.4 
        -1.33 -2.82 C 27.54 54.02 26.26 54.61 25.84 55.75 z"/>
    <path d="M 18.81 70.49 c 1.16 0.42 2.43 -0.17 2.85 -1.31 c 0.42 -1.14 -0.17 -2.4 -1.33 -2.82 c -1.15 -0.41 -2.43 
        0.17 -2.85 1.31 S 17.65 70.08 18.81 70.49 z"/>
    <path d="M 23.05 54.24 c -1.16 -0.42 -2.43 0.17 -2.85 1.31 c -0.42 1.14 0.18 2.4 1.33 2.82 c 1.15 0.41 2.43 -0.17 
        2.85 -1.32 C 24.8 55.92 24.2 54.66 23.05 54.24 z"/>
    <path d="M 22.89 64.34 c 1.15 0.42 2.43 -0.17 2.85 -1.31 c 0.42 -1.14 -0.18 -2.4 -1.33 -2.82 c -1.15 -0.42 -2.43 
        0.17 -2.85 1.31 C 21.14 62.66 21.73 63.92 22.89 64.34 z"/>
    <path d="M 16.99 34.17 c 0.42 -1.14 -0.17 -2.4 -1.33 -2.82 c -1.15 -0.41 -2.43 0.17 -2.85 1.31 c -0.42 1.14 0.17 2.4 
        1.33 2.82 C 15.29 35.9 16.57 35.31 16.99 34.17 z"/>
    <path d="M 53.51 50.91 c -1.15 0.42 -1.75 1.68 -1.33 2.82 c 0.42 1.14 1.69 1.73 2.85 1.32 c 1.15 -0.42 1.75 -1.68 
        1.33 -2.82 C 55.93 51.08 54.66 50.49 53.51 50.91 z"/>
    <path d="M 55.52 45.39 c -1.15 0.41 -1.75 1.68 -1.33 2.82 c 0.42 1.14 1.69 1.73 2.85 1.31 c 1.15 -0.41 1.75 -1.68 
        1.33 -2.82 C 57.94 45.57 56.67 44.98 55.52 45.39 z"/>
    <path d="M 57.72 39.18 c -1.15 0.41 -1.75 1.68 -1.33 2.82 s 1.69 1.73 2.85 1.31 c 1.15 -0.41 1.75 -1.68 1.33 -2.82 C 
        60.15 39.35 58.87 38.76 57.72 39.18 z"/>
    <path d="M 42.87 61.71 c -0.42 -1.14 -1.7 -1.73 -2.85 -1.31 c -1.15 0.41 -1.75 1.68 -1.33 2.82 c 0.42 1.14 1.7 1.73 
        2.85 1.31 C 42.7 64.12 43.29 62.85 42.87 61.71 z"/>
    <path d="M 39.24 66.36 c -1.15 0.41 -1.75 1.68 -1.33 2.82 c 0.42 1.14 1.69 1.73 2.85 1.31 c 1.15 -0.41 1.75 -1.68 
        1.33 -2.82 S 40.4 65.95 39.24 66.36 z"/>
    <path d="M 60.18 33.15 c -1.15 0.42 -1.75 1.68 -1.33 2.82 c 0.42 1.14 1.69 1.73 2.85 1.31 c 1.15 -0.41 1.75 -1.68 
        1.33 -2.82 C 62.61 33.32 61.34 32.73 60.18 33.15 z"/>
    <path d="M 8.11 30.0 c 0.42 -1.14 -0.18 -2.4 -1.33 -2.82 c -1.15 -0.42 -2.43 0.17 -2.85 1.31 s 0.17 2.4 1.33 2.82 C 
        6.42 31.73 7.69 31.15 8.11 30.0 z"/>
    <path d="M 39.67 57.25 c 0.42 1.14 1.69 1.73 2.85 1.31 c 1.15 -0.41 1.75 -1.68 1.33 -2.82 s -1.69 -1.73 -2.85 -1.31 
        C 39.84 54.85 39.25 56.11 39.67 57.25 z"/>
    <path d="M 62.9 27.19 c -1.15 0.41 -1.75 1.68 -1.33 2.82 c 0.42 1.14 1.69 1.73 2.85 1.31 c 1.15 -0.41 1.75 -1.68 
        1.33 -2.82 S 64.06 26.77 62.9 27.19 z"/>
    <path d="M 34.59 1.02 h -0.52 c 0.0 0.0 -17.81 -2.07 -28.55 16.58 c 10.74 18.65 28.55 16.58 28.55 16.58 h 0.52 c 0.0 
        0.0 17.81 2.07 28.55 -16.58 C 52.4 -1.05 34.59 1.02 34.59 1.02 z M 34.59 8.74 c 3.07 0.0 5.56 2.46 5.56 5.49 c 
        0.0 3.04 -2.49 5.49 -5.56 5.49 c -3.07 0.0 -5.56 -2.46 -5.56 -5.49 C 29.04 11.2 31.53 8.74 34.59 8.74 z M 34.69 
        28.65 h -0.34 c 0.0 0.0 -11.43 1.3 -18.32 -10.44 c 1.91 -3.26 4.17 -5.51 6.45 -7.07 c -0.3 1.07 -0.48 2.19 -0.48 
        3.36 c 0.0 6.88 5.64 12.46 12.59 12.46 s 12.59 -5.58 12.59 -12.46 c 0.0 -1.12 -0.16 -2.2 -0.44 -3.24 c 2.21 1.55 
        4.41 3.77 6.28 6.95 C 46.13 29.95 34.69 28.65 34.69 28.65 z"/>
    <polygon points="88.41,1.55 78.43,1.55 78.43,10.76 69.25,10.76 69.25,20.64 78.43,20.64 78.43,29.5 88.41,29.5 
        88.41,20.64 97.49,20.64 97.49,10.76 88.41,10.76"/>
    <path d="M 44.69 36.74 c -1.15 0.42 -1.75 1.68 -1.33 2.82 c 0.42 1.14 1.69 1.73 2.85 1.31 c 1.15 -0.41 1.75 -1.68 
        1.33 -2.82 C 47.12 36.91 45.84 36.33 44.69 36.74 z"/>
    <path d="M 45.83 70.49 c 1.15 -0.41 1.75 -1.68 1.33 -2.82 s -1.7 -1.73 -2.85 -1.31 c -1.15 0.41 -1.75 1.68 -1.33 
        2.82 C 43.4 70.32 44.67 70.91 45.83 70.49 z"/>
    <path d="M 46.64 54.24 c -1.15 0.41 -1.75 1.68 -1.33 2.82 c 0.42 1.14 1.69 1.73 2.85 1.32 c 1.15 -0.42 1.75 -1.68 
        1.33 -2.82 C 49.07 54.42 47.79 53.83 46.64 54.24 z"/>
    <path d="M 48.13 61.52 c -0.42 -1.14 -1.69 -1.73 -2.85 -1.31 c -1.15 0.42 -1.75 1.68 -1.33 2.82 c 0.42 1.14 1.7 1.73 
        2.85 1.31 C 47.95 63.92 48.55 62.66 48.13 61.52 z"/>
    <path d="M 50.88 70.49 c 1.15 -0.41 1.75 -1.68 1.33 -2.82 s -1.69 -1.73 -2.85 -1.31 c -1.15 0.41 -1.75 1.68 -1.33 
        2.82 C 48.45 70.32 49.72 70.91 50.88 70.49 z"/>
    <path d="M 53.18 44.02 c -0.42 -1.14 -1.7 -1.73 -2.85 -1.31 c -1.15 0.41 -1.75 1.68 -1.33 2.82 s 1.7 1.73 2.85 1.31 
        C 53.01 46.42 53.6 45.16 53.18 44.02 z"/>
    <path d="M 56.88 32.67 c -0.42 -1.14 -1.69 -1.73 -2.85 -1.31 c -1.15 0.41 -1.75 1.68 -1.33 2.82 s 1.69 1.73 2.85 
        1.31 C 56.7 35.07 57.3 33.81 56.88 32.67 z"/>
    <path d="M 54.74 38.25 c -0.42 -1.14 -1.69 -1.73 -2.85 -1.31 c -1.15 0.41 -1.75 1.68 -1.33 2.82 c 0.42 1.14 1.7 1.73 
        2.85 1.31 C 54.56 40.65 55.16 39.39 54.74 38.25 z"/>
    <path d="M 42.0 45.33 c 0.42 1.14 1.69 1.73 2.85 1.31 c 1.15 -0.41 1.75 -1.68 1.33 -2.82 c -0.42 -1.14 -1.69 -1.73 
        -2.85 -1.31 C 42.18 42.93 41.58 44.19 42.0 45.33 z"/>
    <path d="M 40.83 51.48 c 0.42 1.14 1.69 1.73 2.85 1.31 s 1.75 -1.68 1.33 -2.82 c -0.42 -1.14 -1.69 -1.73 -2.85 -1.31 
        C 41.01 49.08 40.41 50.34 40.83 51.48 z"/>
    <path d="M 54.48 57.8 c -0.42 -1.14 -1.7 -1.73 -2.85 -1.32 c -1.15 0.42 -1.75 1.68 -1.33 2.82 c 0.42 1.14 1.69 1.73 
        2.85 1.32 C 54.3 60.21 54.89 58.94 54.48 57.8 z"/>
    <path d="M 51.24 49.6 c -0.42 -1.14 -1.69 -1.73 -2.85 -1.31 c -1.15 0.41 -1.75 1.68 -1.33 2.82 c 0.42 1.14 1.69 1.73 
        2.85 1.32 C 51.07 52.0 51.66 50.74 51.24 49.6 z"/>
    <path d="M 53.37 62.61 c -0.42 -1.14 -1.69 -1.73 -2.85 -1.31 c -1.15 0.42 -1.75 1.68 -1.33 2.82 c 0.42 1.14 1.69 
        1.73 2.85 1.31 C 53.2 65.01 53.79 63.75 53.37 62.61 z"/>
</svg>