<?xml version="1.0" standalone="no"?>
<!--Created with Sketsa SVG Editor (http://www.kiyut.com)-->
<?xml-stylesheet type="text/css" href="..\healthcare.css" ?>
<svg contentScriptType="text/ecmascript" width="100.0px" xmlns:xlink="http://www.w3.org/1999/xlink" baseProfile="full"
    zoomAndPan="magnify" contentStyleType="text/css" height="100.0px" preserveAspectRatio="xMidYMid meet" xmlns="http://www.w3.org/2000/svg"
    version="1.0">
    <path d="M 86.12 45.87 c 8.28 0.0 13.22 4.98 13.22 12.61 v 35.69 c 0.0 2.76 -0.25 5.0 -0.25 5.0 h -9.83 H 61.25 V 
        64.49 h -1.54 l -7.02 10.57 c -1.14 1.57 -3.47 2.34 -5.32 2.34 H 30.88 c -2.74 0.0 -4.96 -2.24 -4.96 -5.0 c 0.0 
        -2.76 2.22 -4.93 4.96 -4.93 h 15.0 L 56.28 51.59 c 2.5 -3.84 7.12 -5.67 11.29 -5.67 c 0.0 11.16 2.76 15.88 7.74 
        15.88 v 18.55 c -1.4 0.61 -2.39 2.02 -2.39 3.66 c 0.0 2.19 1.74 3.95 3.91 3.95 c 2.18 0.0 3.92 -1.8 3.92 -4.01 c 
        0.0 -1.64 -0.99 -3.04 -2.39 -3.65 V 61.75 C 83.35 61.75 86.12 57.03 86.12 45.87"/>
    <path d="M 83.01 45.87 c -0.09 11.44 -2.05 12.95 -6.17 12.95 c -4.11 0.0 -6.07 -1.51 -6.16 -12.95 H 83.01 z"/>
    <path d="M 76.77 20.11 c 6.25 0.0 11.31 5.11 11.31 11.42 c 0.0 6.3 -5.07 11.42 -11.31 11.42 c -6.25 0.0 -11.32 -5.11 
        -11.32 -11.42 C 65.45 25.22 70.53 20.11 76.77 20.11"/>
    <path d="M 48.96 21.67 c 1.38 0.0 2.5 -1.13 2.5 -2.53 c 0.0 -1.4 -1.12 -2.53 -2.5 -2.53 c -1.39 0.0 -2.51 1.13 -2.51 
        2.53 C 46.45 20.54 47.57 21.67 48.96 21.67"/>
    <path d="M 31.04 7.73 c 1.97 0.0 3.57 -1.61 3.57 -3.6 c 0.0 -1.99 -1.6 -3.6 -3.57 -3.6 c -1.97 -1.19E-7 -3.57 1.62 
        -3.57 3.6 C 27.47 6.12 29.07 7.73 31.04 7.73"/>
    <path d="M 11.66 7.76 c 2.0 0.0 3.63 -1.62 3.63 -3.63 C 15.29 2.12 13.66 0.5 11.66 0.5 C 9.66 0.5 8.03 2.12 8.03 
        4.13 C 8.03 6.13 9.66 7.76 11.66 7.76"/>
    <path d="M 45.56 43.49 c 0.0 0.82 0.67 1.48 1.48 1.48 c 0.81 0.0 1.47 -0.67 1.47 -1.48 v -8.87 h 1.15 v 8.87 c 0.0 
        0.82 0.66 1.48 1.47 1.48 s 1.48 -0.67 1.48 -1.48 V 26.91 h 1.14 v 5.62 c 0.0 0.61 0.49 1.11 1.09 1.11 c 0.61 0.0 
        1.08 -0.5 1.08 -1.11 v -6.39 c 0.0 -1.79 -1.56 -3.24 -3.33 -3.24 c 0.0 0.0 -6.8 0.0 -6.83 0.01 l -2.2 -0.22 l 
        -2.83 -9.94 c -1.14 -4.01 -4.47 -3.88 -4.47 -3.88 h -9.17 c 0.0 0.0 -3.33 -0.13 -4.47 3.88 l -1.48 5.21 l -1.48 
        -5.21 c -1.14 -4.01 -4.47 -3.88 -4.47 -3.88 h -7.09 c 0.0 0.0 -3.33 -0.13 -4.47 3.88 L 0.79 22.79 c -0.28 0.93 
        0.18 1.81 0.99 2.05 c 0.81 0.23 1.7 -0.34 1.92 -1.09 l 2.77 -9.78 h 1.36 L 3.77 30.9 h 3.59 v 12.03 c 0.0 0.99 
        0.79 1.8 1.77 1.8 c 0.99 0.0 1.79 -0.8 1.79 -1.8 V 30.9 h 1.5 v 12.03 c 0.0 0.99 0.79 1.8 1.78 1.8 s 1.78 -0.8 
        1.78 -1.8 V 30.9 h 3.53 l -4.02 -16.93 h 1.35 l 2.77 9.78 c 0.19 0.65 0.78 1.18 1.48 1.12 c 0.7 0.06 1.41 -0.47 
        1.59 -1.12 l 2.78 -9.78 h 1.25 v 28.61 c 0.0 1.17 0.94 2.11 2.11 2.11 c 1.15 0.0 2.1 -0.95 2.1 -2.11 V 26.3 h 
        1.55 v 16.28 c 0.0 1.17 0.94 2.11 2.1 2.11 s 2.1 -0.95 2.1 -2.11 V 13.97 h 1.36 l 2.58 9.45 c 0.16 0.57 0.75 
        1.12 1.37 1.31 l 3.6 1.02 V 43.49 z"/>
</svg>