<?xml version="1.0" standalone="no"?>
<!--Created with Sketsa SVG Editor (http://www.kiyut.com)-->
<?xml-stylesheet type="text/css" href="..\healthcare.css" ?>
<svg contentScriptType="text/ecmascript" width="100.0px" xmlns:xlink="http://www.w3.org/1999/xlink" baseProfile="full"
    zoomAndPan="magnify" contentStyleType="text/css" height="100.0px" preserveAspectRatio="xMidYMid meet" xmlns="http://www.w3.org/2000/svg"
    version="1.0">
    <path d="M 53.82 11.49 c 3.04 0.0 5.52 -2.47 5.52 -5.52 c 0.0 -3.04 -2.47 -5.52 -5.52 -5.52 c -3.05 1.19E-7 -5.51 
        2.48 -5.51 5.52 C 48.31 9.02 50.78 11.49 53.82 11.49 z"/>
    <path d="M 23.89 11.53 c -3.1 0.0 -5.6 -2.49 -5.6 -5.56 C 18.3 2.9 20.8 0.42 23.89 0.42 c 3.09 0.0 5.6 2.49 5.6 5.55 
        C 29.49 9.04 26.98 11.53 23.89 11.53 z"/>
    <circle cx="81.23" r="3.87" cy="28.95"/>
    <path d="M 86.83 34.73 c -1.36 0.0 -9.12 0.0 -10.44 0.0 c -0.05 0.0 -3.49 -0.31 -3.49 -0.31 l -4.37 -15.24 c -1.76 
        -6.13 -6.9 -5.95 -6.9 -5.95 h -7.2 h -6.95 c 0.0 0.0 -5.14 -0.19 -6.9 5.95 l -2.16 7.51 l -2.16 -7.51 c -1.77 
        -6.13 -6.9 -5.95 -6.9 -5.95 h -5.48 h -5.47 c 0.0 0.0 -5.14 -0.19 -6.9 5.95 L 7.1 34.53 c -0.42 1.44 0.37 2.53 
        1.62 2.89 c 1.25 0.36 2.54 -0.27 2.86 -1.42 l 4.29 -14.97 l 2.09 -0.0 l -6.27 25.92 h 5.54 v 0.01 v 18.4 c 0.0 
        1.52 1.22 2.75 2.74 2.75 c 1.52 0.0 2.76 -1.23 2.76 -2.75 V 46.95 h 2.32 v 18.41 c 0.0 1.52 1.22 2.75 2.74 2.75 
        c 1.52 0.0 2.76 -1.23 2.76 -2.75 V 46.96 v -0.01 h 5.44 l -6.2 -25.92 l 2.09 0.0 l 4.24 14.81 c 0.07 0.25 0.18 
        0.48 0.33 0.69 c 0.42 0.62 1.14 0.98 1.95 0.95 c 0.81 0.03 1.53 -0.32 1.94 -0.94 c 0.17 -0.22 0.29 -0.48 0.36 
        -0.76 l 4.22 -14.75 l 1.93 -0.0 c 0.0 0.0 0.0 41.15 0.0 43.8 c 0.0 1.79 1.46 3.24 3.25 3.24 c 1.79 0.0 3.24 
        -1.45 3.24 -3.24 c 0.0 -2.65 0.0 -24.92 0.0 -24.92 h 2.39 c 0.0 -7.63E-6 0.0 22.27 0.0 24.92 c 0.0 1.79 1.45 
        3.24 3.23 3.24 c 1.79 0.0 3.26 -1.45 3.26 -3.24 c 0.0 -2.65 0.0 -43.8 0.0 -43.8 l 2.09 0.0 l 4.11 14.97 c 0.22 
        0.74 0.84 1.23 1.57 1.41 c 0.03 0.01 0.05 0.03 0.08 0.03 c 0.65 0.15 3.67 1.0 5.89 1.64 c 0.0 4.04 0.0 25.48 0.0 
        27.16 c 0.0 1.25 1.03 2.27 2.28 2.27 c 1.25 0.0 2.27 -1.02 2.27 -2.27 c 0.0 -1.86 0.0 -13.57 0.0 -13.57 h 1.78 c 
        0.0 0.0 0.0 11.71 0.0 13.57 c 0.0 1.25 1.02 2.27 2.27 2.27 s 2.28 -1.02 2.28 -2.27 c 0.0 -1.86 0.0 -25.37 0.0 
        -25.37 h 1.75 c 0.0 0.0 0.0 7.51 0.0 8.6 c 0.0 0.94 0.76 1.7 1.69 1.7 c 0.94 0.0 1.67 -0.76 1.67 -1.7 c 0.0 
        -0.93 0.0 -8.39 0.0 -9.78 C 91.98 36.95 89.57 34.73 86.83 34.73 z"/>
    <path d="M 74.99 88.56 c -1.07 -0.83 -2.14 -1.68 -3.22 -2.54 c -0.9 -0.72 -1.8 -1.44 -2.72 -2.15 c -5.45 -4.26 
        -11.12 -8.14 -17.43 -8.71 c -0.52 -0.05 -1.05 -0.08 -1.58 -0.08 c -0.53 0.0 -1.06 0.07 -1.58 0.11 c -6.33 0.57 
        -12.02 4.44 -17.48 8.71 c 0.19 0.15 0.38 0.3 0.57 0.45 c 0.67 0.53 1.32 1.04 1.98 1.56 c 5.43 -4.21 10.73 -7.68 
        16.51 -7.68 c 5.75 0.0 11.04 3.45 16.46 7.65 c 1.09 0.84 2.19 1.72 3.3 2.6 c 0.88 0.7 1.75 1.4 2.64 2.09 C 78.37 
        95.21 84.55 99.42 91.53 99.42 c 2.7 0.0 5.28 -0.64 7.78 -1.69 v -3.44 c -2.53 1.22 -5.1 1.98 -7.78 1.98 C 85.75 
        96.26 80.44 92.78 74.99 88.56 z"/>
    <path d="M 72.45 83.93 c 0.18 0.14 0.36 0.29 0.54 0.43 c 0.67 0.54 1.34 1.05 2.01 1.58 c 1.97 -1.52 3.93 -2.95 5.89 
        -4.15 v 8.48 c 1.05 0.69 2.1 1.33 3.16 1.86 V 80.1 c 1.95 -0.91 3.92 -1.53 5.94 -1.75 v 15.7 c 0.49 0.06 0.97 
        0.11 1.46 0.11 c 0.57 0.0 1.13 -0.05 1.69 -0.13 V 78.33 c 2.1 0.23 4.14 0.89 6.16 1.86 v -3.44 c -2.48 -1.03 
        -5.05 -1.67 -7.74 -1.67 C 84.58 75.08 78.39 79.29 72.45 83.93 z"/>
    <path d="M 27.6 90.61 c -0.21 -0.17 -0.42 -0.33 -0.63 -0.5 c -0.64 -0.52 -1.28 -1.0 -1.92 -1.51 c -5.43 4.21 -10.72 
        7.67 -16.49 7.67 C 5.91 96.26 3.35 95.46 0.83 94.17 v 3.48 C 3.31 98.74 5.87 99.42 8.56 99.42 C 15.52 99.42 
        21.69 95.23 27.6 90.61 z"/>
    <path d="M 6.95 94.05 c 0.52 0.07 1.05 0.12 1.57 0.12 c 0.53 0.0 1.06 -0.05 1.58 -0.12 V 78.33 c 2.04 0.22 4.02 0.84 
        5.98 1.77 c -0.01 0.07 -0.04 0.14 -0.04 0.22 v 11.77 c 1.05 -0.54 2.1 -1.18 3.16 -1.87 v -8.42 c 3.02 1.85 6.01 
        4.23 9.08 6.68 C 35.02 93.86 41.99 99.42 50.01 99.42 c 6.95 0.0 13.12 -4.18 19.04 -8.79 c -0.22 -0.17 -0.44 
        -0.35 -0.65 -0.52 c -0.64 -0.51 -1.27 -0.99 -1.9 -1.49 c -1.94 1.49 -3.85 2.88 -5.78 4.07 v -8.34 c -1.06 -0.69 
        -2.11 -1.33 -3.16 -1.87 v 11.71 c 0.0 0.06 0.03 0.12 0.04 0.18 c -1.96 0.92 -3.94 1.56 -5.97 1.78 V 80.47 c 
        -0.55 -0.08 -1.1 -0.13 -1.65 -0.13 c -0.5 0.0 -1.01 0.05 -1.51 0.12 v 15.72 c -2.04 -0.22 -4.03 -0.84 -5.99 
        -1.75 c 0.01 -0.08 0.05 -0.15 0.05 -0.23 V 82.39 c -1.05 0.54 -2.1 1.18 -3.16 1.87 v 8.46 c -3.03 -1.86 -6.04 
        -4.25 -9.12 -6.71 c -6.74 -5.38 -13.7 -10.94 -21.72 -10.94 c -2.67 0.0 -5.22 0.59 -7.7 1.56 v 3.4 c 2.0 -0.89 
        4.03 -1.51 6.12 -1.72 V 94.05 z"/>
</svg>