<?xml version="1.0" standalone="no"?>
<!--Created with Sketsa SVG Editor (http://www.kiyut.com)-->
<?xml-stylesheet type="text/css" href="..\healthcare.css" ?>
<svg contentScriptType="text/ecmascript" width="100.0px" xmlns:xlink="http://www.w3.org/1999/xlink" baseProfile="full"
    zoomAndPan="magnify" contentStyleType="text/css" height="100.0px" preserveAspectRatio="xMidYMid meet" xmlns="http://www.w3.org/2000/svg"
    version="1.0">
    <path d="M 14.44 75.81 c -3.78 0.0 -6.84 -2.9 -6.84 -6.48 c 0.0 -3.58 3.06 -6.49 6.84 -6.49 c 3.78 0.0 6.84 2.9 6.84 
        6.49 C 21.28 72.91 18.22 75.81 14.44 75.81 z" transform="matrix(1.0 0.0 0.0 1.0 -0.0 3.81E-6)"/>
    <path d="M 0.67 99.33 c 0.0 -1.57 0.0 -10.37 0.0 -12.71 c 0.0 -4.58 3.97 -8.31 8.81 -8.31 c 2.4 0.0 7.11 0.0 9.45 
        0.0 c 4.84 0.0 9.16 3.73 9.16 8.31 c 0.0 2.34 0.0 11.14 0.0 12.71 H 0.67 z" transform="matrix(1.0 0.0 0.0 1.0 -0.0 3.81E-6)"/>
    <path d="M 85.36 75.26 c 3.78 0.0 6.84 -2.91 6.84 -6.49 c 0.0 -3.59 -3.06 -6.49 -6.84 -6.49 c -3.78 0.0 -6.84 2.9 
        -6.84 6.49 C 78.52 72.35 81.58 75.26 85.36 75.26 z" transform="matrix(1.0 0.0 0.0 1.0 -0.0 3.81E-6)"/>
    <path d="M 99.13 99.33 c 0.0 -1.57 0.0 -10.37 0.0 -12.71 c 0.0 -4.58 -3.97 -8.31 -8.81 -8.31 c -2.4 0.0 -7.1 0.0 
        -9.44 0.0 c -4.85 0.0 -9.16 3.73 -9.16 8.31 c 0.0 2.34 0.0 11.14 0.0 12.71 H 99.13 z" transform="matrix(1.0 0.0 0.0 1.0 -0.0 3.81E-6)"/>
    <ellipse rx="6.92" ry="6.51" cx="49.89" cy="69.27" transform="matrix(1.0 0.0 0.0 1.0 -0.0 3.81E-6)"/>
    <path d="M 33.23 99.33 l 5.45 -14.06 c 2.18 -7.19 8.53 -6.96 8.53 -6.96 h 2.7 h 2.69 c 0.0 0.0 6.35 -0.22 8.53 6.96 
        L 66.57 99.33 H 33.23 z" transform="matrix(1.0 0.0 0.0 1.0 -0.0 3.81E-6)"/>
    <g transform="matrix(1.0 0.0 0.0 1.0 -0.0 3.81E-6)">
        <polygon points="49.89,54.55 49.89,39.16 47.19,36.61 47.19,51.99 6.43,51.99 6.43,3.06 47.19,3.06 47.19,28.19 
            49.89,30.75 49.89,0.5 3.75,0.5 3.75,54.55"/>
    </g>
    <path d="M 26.42 13.57 c 2.01 0.0 3.64 -1.55 3.64 -3.45 c 0.0 -1.9 -1.63 -3.45 -3.64 -3.45 c -2.0 0.0 -3.63 1.55 
        -3.63 3.45 C 22.79 12.03 24.41 13.57 26.42 13.57 z" transform="matrix(1.0 0.0 0.0 1.0 -0.0 3.81E-6)"/>
    <path d="M 38.43 27.91 c 0.0 0.0 -2.98 -9.61 -2.99 -9.62 c -1.19 -3.74 -4.52 -3.63 -4.52 -3.63 h -9.0 c 0.0 0.0 
        -3.33 -0.11 -4.52 3.63 c -0.0 0.01 -2.98 9.62 -2.98 9.62 c -0.24 0.78 0.23 1.6 1.05 1.83 c 0.15 0.04 0.29 0.06 
        0.44 0.06 c 0.67 0.0 1.29 -0.42 1.49 -1.06 l 2.85 -9.2 l 0.01 0.0 l 1.27 -0.0 V 30.0 l -5.01 16.32 c -0.33 1.07 
        0.32 2.19 1.45 2.5 c 0.2 0.05 0.4 0.08 0.6 0.08 c 0.92 0.0 1.77 -0.57 2.05 -1.45 l 4.95 -16.11 h 1.75 L 32.25 
        47.45 c 0.27 0.88 1.12 1.45 2.04 1.45 c 0.2 0.0 0.4 -0.03 0.6 -0.08 c 1.13 -0.31 1.78 -1.43 1.45 -2.5 l -5.01 
        -16.31 V 19.54 l 1.27 0.0 l 0.01 -0.0 l 2.85 9.2 c 0.2 0.64 0.82 1.06 1.49 1.06 c 0.15 0.0 0.29 -0.02 0.44 -0.06 
        C 38.2 29.5 38.67 28.69 38.43 27.91 z" transform="matrix(1.0 0.0 0.0 1.0 -0.0 3.81E-6)"/>
    <path d="M 85.33 26.46 c -3.76 0.0 -6.83 -2.9 -6.83 -6.47 c 0.0 -3.58 3.06 -6.48 6.83 -6.48 c 3.78 0.0 6.82 2.9 6.82 
        6.48 C 92.15 23.56 89.11 26.46 85.33 26.46 z" transform="matrix(1.0 0.0 0.0 1.0 -0.0 3.81E-6)"/>
    <g transform="matrix(1.0 0.0 0.0 1.0 -0.0 3.81E-6)">
        <path d="M 85.33 36.09 c 0.0 0.0 1.66 0.2 2.67 -1.13 c 0.92 -1.22 0.99 -5.25 0.99 -5.98 h -7.33 c -0.02 2.9 0.33 
            5.02 1.06 6.08 C 83.46 36.15 85.33 36.09 85.33 36.09 z"/>
    </g>
    <path d="M 55.57 41.8 c -0.25 0.39 -0.64 1.19 -0.64 1.69 c 0.0 1.51 1.29 2.73 2.88 2.73 h 9.47 c 1.08 0.0 2.49 -0.41 
        3.09 -1.27 c 2.04 -2.87 4.19 -5.89 4.82 -6.79 v 16.98 h 23.85 V 37.72 c 0.0 -4.55 -3.75 -8.65 -8.19 -8.65 c 0.01 
        2.14 -0.29 5.69 -1.61 7.24 c -1.38 1.59 -3.0 1.45 -3.0 1.45 v 6.62 c 0.86 0.34 1.47 1.14 1.47 2.08 c 0.0 1.25 
        -1.06 2.26 -2.38 2.26 c -1.32 0.0 -2.38 -1.01 -2.38 -2.26 c 0.0 -0.94 0.6 -1.74 1.46 -2.08 v -6.65 c 0.0 0.0 
        -1.42 0.11 -2.75 -1.16 c -1.79 -1.77 -1.85 -6.77 -1.85 -7.59 H 79.37 c -3.06 0.0 -5.74 1.49 -7.29 3.7 l -5.67 
        8.11 l -8.6 -0.0 L 45.67 29.26 c -0.46 -0.43 -1.2 -0.43 -1.65 0.0 c -0.46 0.43 -0.46 1.14 -0.0 1.57 L 55.57 41.8 
        z" transform="matrix(1.0 0.0 0.0 1.0 -0.0 3.81E-6)"/>
</svg>