<?xml version="1.0" standalone="no"?>
<!--Created with Sketsa SVG Editor (http://www.kiyut.com)-->
<?xml-stylesheet type="text/css" href="..\healthcare.css" ?>
<svg contentScriptType="text/ecmascript" width="100.0px" xmlns:xlink="http://www.w3.org/1999/xlink" baseProfile="full"
    zoomAndPan="magnify" contentStyleType="text/css" height="100.0px" preserveAspectRatio="xMidYMid meet" xmlns="http://www.w3.org/2000/svg"
    version="1.0">
    <path d="M 50.0 99.37 C 22.77 99.37 0.62 77.25 0.62 50.06 C 0.62 22.87 22.77 0.75 50.0 0.75 c 27.23 0.0 49.38 22.12 
        49.38 49.31 C 99.38 77.25 77.23 99.37 50.0 99.37 L 50.0 99.37 z M 50.0 6.08 c -24.29 0.0 -44.04 19.73 -44.04 
        43.99 c -3.34E-6 24.25 19.76 43.99 44.04 43.99 c 24.28 0.0 44.04 -19.73 44.04 -43.99 C 94.04 25.81 74.28 6.08 
        50.0 6.08 L 50.0 6.08 z M 86.99 42.37 L 57.7 42.37 L 57.7 13.12 L 42.3 13.12 L 42.3 42.37 L 13.01 42.37 L 13.01 
        57.76 L 42.3 57.76 L 42.3 87.0 L 57.7 87.0 L 57.7 57.76 L 86.99 57.76 z"/>
</svg>