<?xml version="1.0" standalone="no"?>
<!--Created with Sketsa SVG Editor (http://www.kiyut.com)-->
<?xml-stylesheet type="text/css" href="..\healthcare.css" ?>
<svg contentScriptType="text/ecmascript" width="100.0px" xmlns:xlink="http://www.w3.org/1999/xlink" baseProfile="full"
    zoomAndPan="magnify" contentStyleType="text/css" height="100.0px" preserveAspectRatio="xMidYMid meet" xmlns="http://www.w3.org/2000/svg"
    version="1.0">
    <path d="M 51.62 38.9 c 3.05 -0.97 6.31 0.7 7.28 3.72 c 0.97 3.01 -0.71 6.24 -3.76 7.21 l -15.75 4.98 c -1.82 0.58 
        -3.82 0.22 -5.33 -0.95 l -6.51 -5.05 L 41.7 99.17 H 0.5 V 35.2 c 0.0 -3.78 3.09 -6.84 6.91 -6.84 h 10.3 c 1.47 
        0.0 2.82 0.46 3.94 1.32 c 0.0 0.0 13.44 10.4 17.15 13.28 L 51.62 38.9 z M 26.46 58.19 h -6.25 V 52.0 h -7.46 v 
        6.19 H 6.52 v 7.41 h 6.23 v 6.16 h 7.46 v -6.16 h 6.25 V 58.19 z"/>
    <path d="M 13.93 25.29 c 6.86 0.0 12.43 -5.51 12.43 -12.31 C 26.36 6.18 20.79 0.67 13.93 0.67 c -6.87 0.0 -12.44 
        5.52 -12.44 12.31 C 1.49 19.78 7.06 25.29 13.93 25.29"/>
    <path d="M 87.1 25.33 c 6.87 0.0 12.45 -5.52 12.45 -12.32 c 0.0 -6.81 -5.58 -12.34 -12.45 -12.34 c -6.88 -5.36E-7 
        -12.45 5.52 -12.45 12.34 C 74.64 19.81 80.22 25.33 87.1 25.33"/>
    <path d="M 83.33 28.64 c -5.09 0.0 -7.41 1.73 -9.34 4.71 l -1.25 2.38 L 65.46 33.63 l 0.31 -1.96 L 48.39 27.82 l 
        -0.48 2.15 l -3.25 -0.72 l 0.49 -2.15 l -1.31 -0.29 l -1.49 6.59 l 1.3 0.29 l 0.5 -2.15 l 3.25 0.72 l -0.49 2.16 
        l 17.38 3.85 l 0.56 -2.02 l 7.04 1.12 L 53.74 71.9 c -1.4 2.78 -0.27 6.15 2.54 7.54 c 2.8 1.39 6.21 0.27 7.63 
        -2.51 l 15.14 -29.08 h 2.48 v 51.31 h 17.84 V 28.64 H 83.33 z"/>
</svg>