<?xml version="1.0" standalone="no"?>
<!--Created with Sketsa SVG Editor (http://www.kiyut.com)-->
<?xml-stylesheet type="text/css" href="..\healthcare.css" ?>
<svg contentScriptType="text/ecmascript" width="100.0px" xmlns:xlink="http://www.w3.org/1999/xlink" baseProfile="full"
    zoomAndPan="magnify" contentStyleType="text/css" height="100.0px" preserveAspectRatio="xMidYMid meet" xmlns="http://www.w3.org/2000/svg"
    version="1.0">
    <path d="M 28.41 30.8 c 5.29 -2.39 7.66 -8.65 5.29 -13.98 c -2.37 -5.33 -8.58 -7.72 -13.87 -5.33 c -5.3 2.39 -7.67 
        8.65 -5.29 13.98 C 16.9 30.81 23.12 33.19 28.41 30.8 z" transform="matrix(1.0 0.0 0.0 1.0 -0.0 3.81E-6)"/>
    <path d="M 43.44 19.16 c 0.59 -1.02 0.25 -2.31 -0.77 -2.91 c -1.01 -0.59 -2.3 -0.24 -2.89 0.77 c -0.59 1.01 -0.25 
        2.32 0.75 2.91 C 41.55 20.52 42.85 20.17 43.44 19.16 z" transform="matrix(1.0 0.0 0.0 1.0 -0.0 3.81E-6)"/>
    <path d="M 62.92 7.81 c 0.59 -1.01 0.25 -2.32 -0.76 -2.91 c -1.01 -0.59 -2.31 -0.24 -2.89 0.77 c -0.59 1.01 -0.24 
        2.32 0.76 2.91 C 61.04 9.18 62.33 8.84 62.92 7.81 z" transform="matrix(1.0 0.0 0.0 1.0 -0.0 3.81E-6)"/>
    <path d="M 56.42 11.59 c 0.59 -1.02 0.24 -2.31 -0.77 -2.91 c -1.01 -0.59 -2.3 -0.25 -2.89 0.76 c -0.59 1.02 -0.24 
        2.32 0.76 2.92 C 54.54 12.96 55.83 12.62 56.42 11.59 z" transform="matrix(1.0 0.0 0.0 1.0 -0.0 3.81E-6)"/>
    <path d="M 69.41 4.03 c 0.59 -1.01 0.24 -2.32 -0.76 -2.92 c -1.01 -0.59 -2.31 -0.24 -2.9 0.77 c -0.59 1.02 -0.25 
        2.32 0.76 2.91 C 67.53 5.4 68.82 5.05 69.41 4.03 z" transform="matrix(1.0 0.0 0.0 1.0 -0.0 3.81E-6)"/>
    <path d="M 49.53 15.88 c 0.86 -0.8 0.92 -2.14 0.13 -3.01 c -0.79 -0.87 -2.12 -0.93 -2.98 -0.14 c -0.87 0.8 -0.92 
        2.14 -0.14 3.01 C 47.33 16.61 48.67 16.67 49.53 15.88 z" transform="matrix(1.0 0.0 0.0 1.0 -0.0 3.81E-6)"/>
    <path d="M 43.44 23.11 c 0.59 1.02 0.25 2.32 -0.77 2.92 c -1.01 0.59 -2.3 0.25 -2.89 -0.77 c -0.59 -1.01 -0.25 -2.32 
        0.75 -2.92 C 41.55 21.75 42.85 22.1 43.44 23.11 z" transform="matrix(1.0 0.0 0.0 1.0 -0.0 3.81E-6)"/>
    <path d="M 56.42 30.67 c 0.59 1.02 0.24 2.32 -0.77 2.91 c -1.01 0.59 -2.3 0.25 -2.89 -0.77 c -0.59 -1.02 -0.24 -2.32 
        0.76 -2.91 C 54.54 29.31 55.83 29.65 56.42 30.67 z" transform="matrix(1.0 0.0 0.0 1.0 -0.0 3.81E-6)"/>
    <g transform="matrix(1.0 0.0 0.0 1.0 -0.0 3.81E-6)">
        <path d="M 85.46 34.86 c -3.69 0.0 -23.4 0.0 -26.99 0.0 c -7.44 0.0 -14.07 6.08 -14.07 13.58 c 0.0 3.82 0.0 
            30.31 0.0 32.87 c 0.0 2.57 2.0 4.66 4.53 4.66 c 2.55 0.0 4.6 -2.09 4.6 -4.66 c 0.0 -2.98 0.0 -29.63 0.0 
            -29.63 h 3.81 v 47.43 h 12.36 v -12.85 h 3.93 v 12.85 h 12.37 V 51.67 h 3.85 c 0.0 0.0 0.0 26.65 0.0 29.63 c 
            0.0 2.57 2.06 4.66 4.59 4.66 c 2.55 0.0 4.56 -2.09 4.56 -4.66 c 0.0 -2.56 0.0 -29.05 0.0 -32.87 C 99.0 40.94 
            92.9 34.86 85.46 34.86 z M 63.34 39.79 c -1.01 0.59 -2.31 0.25 -2.9 -0.77 c -0.59 -1.02 -0.24 -2.32 0.76 
            -2.91 c 1.02 -0.6 2.31 -0.25 2.9 0.77 C 64.68 37.9 64.35 39.2 63.34 39.79 z M 69.83 43.58 c -1.01 0.59 -2.3 
            0.24 -2.89 -0.77 c -0.59 -1.02 -0.25 -2.33 0.76 -2.92 c 1.01 -0.59 2.3 -0.25 2.89 0.77 C 71.18 41.68 70.84 
            42.98 69.83 43.58 z"/>
    </g>
    <path d="M 49.53 26.39 c 0.86 0.8 0.92 2.14 0.13 3.01 c -0.79 0.86 -2.12 0.93 -2.98 0.14 c -0.87 -0.8 -0.92 -2.15 
        -0.14 -3.01 C 47.33 25.66 48.67 25.6 49.53 26.39 z" transform="matrix(1.0 0.0 0.0 1.0 -0.0 3.81E-6)"/>
    <path d="M 51.84 19.41 c 1.01 0.58 1.36 1.88 0.78 2.91 c -0.58 1.02 -1.88 1.38 -2.89 0.79 c -1.02 -0.58 -1.36 -1.88 
        -0.79 -2.9 C 49.54 19.19 50.83 18.83 51.84 19.41 z" transform="matrix(1.0 0.0 0.0 1.0 -0.0 3.81E-6)"/>
    <g transform="matrix(1.0 0.0 0.0 1.0 -0.0 3.81E-6)">
        <path d="M 71.59 10.57 c -5.81 0.0 -10.51 4.75 -10.51 10.6 c 0.0 5.85 4.71 10.6 10.51 10.6 c 5.8 0.0 10.51 -4.75 
            10.51 -10.6 C 82.11 15.32 77.4 10.57 71.59 10.57 z M 66.37 14.18 c 0.59 -1.02 1.87 -1.38 2.89 -0.79 c 1.01 
            0.59 1.36 1.88 0.78 2.91 c -0.58 1.02 -1.87 1.38 -2.89 0.79 C 66.14 16.5 65.79 15.2 66.37 14.18 z M 63.56 
            23.12 c -1.01 -0.59 -1.36 -1.89 -0.79 -2.91 c 0.59 -1.03 1.88 -1.38 2.89 -0.79 c 1.01 0.58 1.36 1.88 0.77 
            2.91 C 65.86 23.35 64.57 23.7 63.56 23.12 z M 70.14 28.2 c -0.58 1.02 -1.87 1.38 -2.89 0.8 c -1.01 -0.59 
            -1.36 -1.89 -0.79 -2.91 c 0.59 -1.02 1.87 -1.38 2.89 -0.79 C 70.37 25.88 70.72 27.17 70.14 28.2 z M 73.94 
            22.32 c -0.58 1.02 -1.87 1.38 -2.89 0.8 c -1.02 -0.59 -1.36 -1.89 -0.79 -2.91 c 0.59 -1.03 1.88 -1.38 2.89 
            -0.8 C 74.16 20.0 74.53 21.3 73.94 22.32 z"/>
    </g>
    <path d="M 58.15 19.19 c 1.14 0.25 1.86 1.38 1.61 2.54 c -0.25 1.14 -1.38 1.87 -2.52 1.62 c -1.14 -0.25 -1.86 -1.4 
        -1.61 -2.54 C 55.89 19.66 57.02 18.93 58.15 19.19 z" transform="matrix(1.0 0.0 0.0 1.0 -0.0 3.81E-6)"/>
    <path d="M 61.13 27.77 c 1.14 0.26 1.86 1.39 1.61 2.54 c -0.26 1.14 -1.39 1.88 -2.52 1.62 c -1.14 -0.25 -1.86 -1.4 
        -1.61 -2.54 C 58.86 28.24 59.99 27.52 61.13 27.77 z" transform="matrix(1.0 0.0 0.0 1.0 -0.0 3.81E-6)"/>
    <path d="M 60.55 11.02 c 1.14 0.26 1.86 1.39 1.61 2.54 c -0.25 1.15 -1.38 1.88 -2.52 1.62 c -1.14 -0.25 -1.86 -1.39 
        -1.61 -2.54 C 58.29 11.49 59.42 10.77 60.55 11.02 z" transform="matrix(1.0 0.0 0.0 1.0 -0.0 3.81E-6)"/>
    <path d="M 27.09 60.85 c 0.75 1.41 2.22 2.35 3.94 2.35 c 1.94 0.0 3.62 -1.17 4.29 -2.89 l 8.0 -23.67 c 0.82 -2.42 
        -0.47 -5.04 -2.86 -5.86 c -2.4 -0.82 -5.0 0.47 -5.81 2.89 l -4.58 13.59 l -4.96 -8.97 c -1.18 -1.86 -2.97 -3.35 
        -5.2 -4.11 c -5.18 -1.74 -10.77 1.07 -12.5 6.29 l -6.0 18.11 C 0.95 59.67 0.67 61.62 0.67 62.65 v 36.45 h 17.95 
        V 69.27 l 4.94 -14.8 L 27.09 60.85 z" transform="matrix(1.0 0.0 0.0 1.0 -0.0 3.81E-6)"/>
</svg>