<?xml version="1.0" standalone="no"?>
<!--Created with Sketsa SVG Editor (http://www.kiyut.com)-->
<?xml-stylesheet type="text/css" href="..\healthcare.css" ?>
<svg contentScriptType="text/ecmascript" width="100.0px" xmlns:xlink="http://www.w3.org/1999/xlink" baseProfile="full"
    zoomAndPan="magnify" contentStyleType="text/css" height="100.0px" preserveAspectRatio="xMidYMid meet" xmlns="http://www.w3.org/2000/svg"
    version="1.0">
    <path d="M 15.78 55.9 c 0.0 -3.66 2.99 -6.61 6.69 -6.61 c 3.69 0.0 6.69 2.95 6.69 6.61 c 0.0 3.65 -3.0 6.61 -6.69 
        6.61 C 18.77 62.52 15.78 59.56 15.78 55.9"/>
    <path d="M 80.42 51.86 c 2.94 0.0 5.32 2.28 5.35 5.17 l 0.01 13.95 H 32.06 V 51.87 L 80.42 51.86 z"/>
    <path d="M 25.88 70.97 c 1.82 0.0 3.29 -1.46 3.29 -3.25 c 0.0 -1.79 -1.48 -3.25 -3.29 -3.25 h -9.52 c -1.82 0.0 
        -3.29 1.46 -3.29 3.25 c 0.0 1.8 1.47 3.25 3.29 3.25 H 25.88 z"/>
    <path d="M 88.96 84.69 V 99.25 h 8.71 V 53.1 c 0.0 -2.37 -1.94 -4.31 -4.35 -4.31 c -2.41 0.0 -4.37 1.93 -4.37 4.31 v 
        21.18 H 10.7 V 44.39 c 0.0 -2.38 -2.1 -4.31 -4.51 -4.31 v 0.0 c -2.4 0.0 -4.29 1.93 -4.29 4.31 V 99.25 h 8.8 V 
        84.69 H 88.96 z"/>
    <path d="M 61.34 0.38 c 2.79 0.0 7.36 1.16 9.9 3.91 l -3.42 6.5 c -1.5 -1.91 -3.84 -3.14 -6.47 -3.14 c -2.6 0.0 
        -4.92 1.2 -6.42 3.08 l -3.49 -6.3 C 54.37 1.52 58.43 0.38 61.34 0.38 M 60.35 6.93 h 1.96 V 5.0 h 1.95 V 3.07 h 
        -1.95 V 1.13 h -1.96 v 1.93 h -1.95 v 1.93 h 1.95 V 6.93 z"/>
    <path d="M 67.61 16.15 c 0.0 3.43 -2.81 6.21 -6.29 6.21 c -3.47 0.0 -6.28 -2.78 -6.28 -6.21 c 0.0 -3.43 2.81 -6.22 
        6.28 -6.22 C 64.79 9.93 67.61 12.71 67.61 16.15"/>
    <path d="M 55.28 24.13 c -4.4 0.02 -6.94 3.55 -7.51 5.54 l -5.35 17.37 h 5.42 l 3.94 -13.33 h 2.81 l -3.94 13.33 h 
        21.32 L 68.06 33.71 h 2.81 l 4.05 13.33 h 5.34 L 74.88 29.67 c -0.57 -1.97 -3.06 -5.42 -7.36 -5.53 L 55.28 24.13 
        z"/>
    <path d="M 15.23 28.13 C 7.52 28.13 1.25 21.93 1.25 14.3 C 1.25 6.67 7.52 0.47 15.23 0.47 c 7.71 0.0 13.99 6.2 13.99 
        13.83 C 29.22 21.93 22.94 28.13 15.23 28.13 M 15.23 24.7 c 5.8 0.0 10.53 -4.67 10.53 -10.41 c 0.0 -5.73 -4.73 
        -10.41 -10.53 -10.41 c -5.8 -4.77E-7 -10.52 4.67 -10.52 10.41 C 4.71 20.04 9.43 24.7 15.23 24.7"/>
    <path d="M 15.3 16.12 c -0.31 0.14 -0.7 0.13 -1.01 -0.08 c -0.26 -0.17 -0.43 -0.43 -0.47 -0.72 l -0.01 -8.04 c 0.0 
        -0.58 0.47 -1.04 1.05 -1.04 c 0.58 0.0 1.05 0.47 1.05 1.04 v 6.23 l 5.39 -2.51 c 0.52 -0.25 1.15 -0.03 1.4 0.49 
        c 0.25 0.52 0.02 1.14 -0.5 1.39 L 15.3 16.12 z"/>
</svg>