<?xml version="1.0" standalone="no"?>
<!--Created with Sketsa SVG Editor (http://www.kiyut.com)-->
<?xml-stylesheet type="text/css" href="..\healthcare.css" ?>
<svg contentScriptType="text/ecmascript" width="100.0px" xmlns:xlink="http://www.w3.org/1999/xlink" baseProfile="full"
    zoomAndPan="magnify" contentStyleType="text/css" height="100.0px" preserveAspectRatio="xMidYMid meet" xmlns="http://www.w3.org/2000/svg"
    version="1.0">
    <path d="M 99.2 99.38 h -8.97 V 84.43 H 9.68 V 99.38 H 0.63 V 43.05 c 0.0 -2.43 1.95 -4.41 4.42 -4.41 v -0.0 c 2.47 
        0.0 4.63 1.98 4.63 4.42 v 30.69 h 80.56 V 51.99 c 0.0 -2.44 2.01 -4.42 4.49 -4.42 c 2.48 0.0 4.48 1.98 4.48 4.42 
        V 99.38 z"/>
    <path d="M 21.81 48.08 c 3.81 0.0 6.89 3.04 6.89 6.79 c 0.0 3.75 -3.08 6.79 -6.89 6.79 c -3.81 0.0 -6.9 -3.04 -6.9 
        -6.79 C 14.91 51.12 18.0 48.08 21.81 48.08"/>
    <path d="M 28.7 67.0 c 0.0 1.85 -1.52 3.35 -3.4 3.35 h -9.79 c -1.88 0.0 -3.39 -1.5 -3.39 -3.35 c 0.0 -1.84 1.52 
        -3.34 3.39 -3.34 h 9.79 C 27.17 63.66 28.7 65.16 28.7 67.0"/>
    <path d="M 81.44 50.72 c 3.03 0.0 5.47 2.34 5.5 5.31 l 0.01 14.32 H 31.67 V 50.73 L 81.44 50.72 z"/>
    <path d="M 48.68 47.62 V 16.61 c 0.0 -3.34 -2.75 -6.05 -6.13 -6.05 c -3.36 0.0 -6.1 2.7 -6.1 6.01 c 0.0 0.56 -0.46 
        1.02 -1.03 1.02 c -0.57 0.0 -1.03 -0.46 -1.03 -1.02 c 0.0 -0.74 -0.61 -1.34 -1.36 -1.34 c -0.75 0.0 -1.36 0.6 
        -1.36 1.34 c 0.0 2.05 1.68 3.7 3.75 3.7 c 2.07 0.0 3.75 -1.66 3.75 -3.7 c 0.0 -1.84 1.51 -3.33 3.38 -3.33 c 1.87 
        0.0 3.4 1.51 3.4 3.36 v 31.0 H 48.68 z"/>
    <path d="M 37.27 38.21 h 3.46 c 0.0 0.0 0.68 -2.91 0.68 -7.55 s -0.68 -7.54 -0.68 -7.54 h -8.84 c 0.0 0.0 -0.79 2.35 
        -0.79 7.54 c 0.0 5.2 0.79 7.55 0.79 7.55 h 3.52 c 0.0 0.01 -0.01 0.02 -0.01 0.03 c 0.0 0.06 0.11 5.66 -3.61 9.37 
        h 2.45 C 37.32 43.54 37.27 38.6 37.27 38.21"/>
    <path d="M 61.81 35.77 h 37.4 V 0.62 H 61.81 V 35.77 z M 65.01 8.61 c 0.0 -2.59 2.12 -4.69 4.76 -4.69 h 21.5 c 2.63 
        2.38E-7 4.76 2.1 4.76 4.69 v 12.74 H 93.14 l -1.79 -4.79 c -0.11 -0.29 -0.4 -0.49 -0.71 -0.48 c -0.31 0.0 -0.6 
        0.2 -0.7 0.49 c 0.0 0.0 -0.51 1.41 -1.0 2.8 c -0.76 -3.13 -2.36 -9.75 -2.36 -9.75 c -0.08 -0.35 -0.41 -0.59 
        -0.78 -0.57 c -0.37 0.02 -0.66 0.3 -0.71 0.65 c 0.0 0.0 -1.23 10.78 -1.58 13.87 c -0.64 -0.95 -1.28 -1.89 -1.28 
        -1.89 c -0.14 -0.2 -0.37 -0.33 -0.63 -0.33 h -2.9 c -0.3 -0.8 -1.78 -4.79 -1.78 -4.79 c -0.11 -0.29 -0.4 -0.49 
        -0.72 -0.48 c -0.32 0.0 -0.6 0.2 -0.7 0.49 c 0.0 0.0 -0.51 1.41 -1.01 2.8 c -0.76 -3.13 -2.36 -9.75 -2.36 -9.75 
        c -0.08 -0.35 -0.41 -0.59 -0.78 -0.57 c -0.37 0.02 -0.66 0.3 -0.71 0.65 c 0.0 0.0 -1.22 10.78 -1.58 13.87 c 
        -0.64 -0.95 -1.28 -1.89 -1.28 -1.89 c -0.14 -0.2 -0.37 -0.33 -0.62 -0.33 H 65.01 V 8.61 z M 91.27 32.84 h -21.5 
        c -2.64 0.0 -4.76 -2.1 -4.76 -4.7 v -5.3 h 1.76 c 0.37 0.55 2.2 3.26 2.2 3.26 c 0.18 0.26 0.5 0.38 0.81 0.31 c 
        0.31 -0.07 0.54 -0.33 0.57 -0.64 c 0.0 0.0 0.81 -7.11 1.33 -11.67 c 0.87 3.61 1.95 8.06 1.95 8.06 c 0.08 0.32 
        0.36 0.55 0.69 0.57 c 0.34 0.02 0.64 -0.18 0.75 -0.49 c 0.0 0.0 0.61 -1.71 1.16 -3.23 c 0.58 1.55 1.25 3.34 1.25 
        3.34 c 0.1 0.29 0.39 0.49 0.7 0.49 h 3.02 c 0.37 0.55 2.2 3.26 2.2 3.26 c 0.18 0.26 0.49 0.38 0.8 0.31 c 0.31 
        -0.07 0.54 -0.33 0.57 -0.64 c 0.0 0.0 0.81 -7.11 1.34 -11.67 c 0.87 3.62 1.95 8.07 1.95 8.07 c 0.08 0.32 0.36 
        0.55 0.69 0.57 c 0.34 0.02 0.64 -0.18 0.75 -0.49 c 0.0 0.0 0.62 -1.71 1.16 -3.23 c 0.58 1.55 1.24 3.34 1.24 3.34 
        c 0.11 0.29 0.39 0.49 0.7 0.49 h 3.42 v 5.3 C 96.03 30.73 93.9 32.84 91.27 32.84"/>
</svg>