<?xml version="1.0" standalone="no"?>
<!--Created with Sketsa SVG Editor (http://www.kiyut.com)-->
<?xml-stylesheet type="text/css" href="..\healthcare.css" ?>
<svg contentScriptType="text/ecmascript" width="100.0px" xmlns:xlink="http://www.w3.org/1999/xlink" baseProfile="full"
    zoomAndPan="magnify" contentStyleType="text/css" height="100.0px" preserveAspectRatio="xMidYMid meet" xmlns="http://www.w3.org/2000/svg"
    version="1.0">
    <circle cx="49.94" r="13.74" cy="14.2"/>
    <path d="M 68.08 31.9 c -2.25 0.0 -9.08 0.0 -16.18 0.0 v 12.67 l 2.98 0.72 v -2.94 c 0.0 -1.91 1.76 -3.64 4.98 -1.51 
        c 4.53 3.01 9.4 20.14 4.12 19.46 c -2.55 -0.32 -4.0 -1.54 -6.81 -1.7 c -2.28 -0.12 -2.28 -1.09 -2.29 -2.36 c 
        -0.0 -1.28 0.0 -5.37 0.0 -5.37 v -2.28 c -0.96 -0.23 -2.08 -0.5 -2.98 -0.72 v 15.67 c 0.0 0.0 4.46 -3.0 7.65 
        -0.55 c 2.01 1.54 3.27 5.99 -2.95 9.61 c -1.44 0.86 -9.25 2.91 -11.71 -1.64 h -2.77 c -1.25 0.0 -2.26 1.01 -2.26 
        2.24 c 0.0 1.23 1.01 2.23 2.26 2.23 h 16.39 c 2.59 0.0 4.7 2.08 4.7 4.64 s -2.11 4.64 -4.7 4.64 H 41.55 c -0.58 
        0.0 -1.05 0.47 -1.05 1.05 c 0.0 0.57 0.47 1.04 1.05 1.04 h 16.96 c 2.59 0.0 4.7 2.08 4.7 4.64 c 0.0 2.56 -2.11 
        4.64 -4.7 4.64 H 38.67 c -1.0 0.0 -1.82 -0.8 -1.82 -1.8 c 0.0 -0.99 0.82 -1.8 1.82 -1.8 h 19.83 c 0.58 0.0 1.05 
        -0.47 1.05 -1.04 c 0.0 -0.57 -0.48 -1.04 -1.05 -1.04 H 41.55 c -2.59 0.0 -4.7 -2.08 -4.7 -4.64 c 0.0 -2.56 2.11 
        -4.65 4.7 -4.65 h 16.96 c 0.58 0.0 1.05 -0.47 1.05 -1.04 s -0.48 -1.04 -1.05 -1.04 H 42.12 c -3.26 0.0 -5.9 
        -2.62 -5.9 -5.83 s 2.65 -5.84 5.9 -5.84 h 3.66 c 0.02 0.0 0.04 0.01 0.07 0.01 h 1.24 c 1.21 0.0 1.16 -1.26 1.16 
        -1.26 v -18.05 c -1.03 0.28 -2.21 0.6 -2.97 0.81 v 2.0 c 0.0 0.0 0.0 4.09 0.0 5.37 c 0.0 1.27 -0.01 2.24 -2.29 
        2.36 c -2.81 0.16 -4.25 1.38 -6.81 1.7 c -5.29 0.67 -0.41 -16.45 4.11 -19.46 c 3.21 -2.13 4.98 -0.4 4.98 1.51 v 
        3.19 l 2.97 -0.81 V 31.9 c -6.88 0.0 -13.34 0.0 -15.47 0.0 C 23.05 31.9 14.38 39.69 14.38 49.29 c 0.0 4.89 0.0 
        38.81 0.0 42.09 s 2.62 5.95 5.94 5.95 c 3.33 0.0 6.02 -2.66 6.02 -5.95 c 0.0 -3.83 0.0 -37.95 0.0 -37.95 h 4.98 
        V 99.38 h 37.47 V 53.43 h 5.04 c 0.0 0.0 0.0 34.13 0.0 37.95 c 0.0 3.28 2.69 5.95 6.02 5.95 c 3.33 0.0 5.94 
        -2.66 5.94 -5.95 s 0.0 -37.2 0.0 -42.09 C 85.77 39.69 77.8 31.9 68.08 31.9 z"/>
</svg>