<?xml version="1.0" standalone="no"?>
<!--Created with Sketsa SVG Editor (http://www.kiyut.com)-->
<?xml-stylesheet type="text/css" href="..\healthcare.css" ?>
<svg contentScriptType="text/ecmascript" width="100.0px" xmlns:xlink="http://www.w3.org/1999/xlink" baseProfile="full"
    zoomAndPan="magnify" contentStyleType="text/css" height="100.0px" preserveAspectRatio="xMidYMid meet" xmlns="http://www.w3.org/2000/svg"
    version="1.0">
    <path d="M 49.9 27.74 c 7.6 0.0 13.75 -6.06 13.75 -13.53 C 63.65 6.72 57.49 0.67 49.9 0.67 c -7.59 0.0 -13.75 6.06 
        -13.75 13.54 C 36.15 21.68 42.31 27.74 49.9 27.74 z"/>
    <path d="M 68.04 31.86 c 9.73 0.0 17.7 7.77 17.7 17.34 c 0.0 4.88 0.0 38.71 0.0 41.98 c 0.0 3.28 -2.62 5.93 -5.94 
        5.93 c -3.32 0.0 -6.02 -2.66 -6.02 -5.93 c 0.0 -3.81 0.0 -37.85 0.0 -37.85 h -5.03 V 99.17 H 31.27 V 53.34 H 
        26.28 c 0.0 0.0 0.0 34.04 0.0 37.85 c 0.0 3.28 -2.69 5.93 -6.01 5.93 C 16.95 97.12 14.33 94.47 14.33 91.19 c 0.0 
        -3.27 0.0 -37.11 0.0 -41.98 C 14.33 39.63 23.01 31.86 32.74 31.86 C 37.44 31.86 63.21 31.86 68.04 31.86 z M 
        44.94 80.92 c -0.46 -0.48 -0.71 -1.03 -0.67 -2.04 c 0.04 -0.91 0.37 -1.34 0.84 -1.76 c 0.92 -0.81 1.23 -2.36 
        1.23 -3.62 c 0.0 -2.49 -2.17 -4.5 -4.88 -4.5 c -2.28 0.0 -4.35 2.02 -5.04 3.31 c -0.53 1.04 -1.23 3.13 -1.31 
        5.58 c -0.08 2.31 0.35 4.18 0.9 6.07 c 0.76 2.06 2.8 4.4 5.45 4.4 c 2.7 0.0 4.88 -2.02 4.88 -4.51 c 0.0 -0.42 
        -0.03 -0.79 -0.2 -1.21 C 46.0 82.2 45.37 81.37 44.94 80.92 z M 53.91 82.63 c -0.16 0.42 -0.21 0.79 -0.21 1.21 c 
        0.0 2.49 2.19 4.51 4.89 4.51 c 2.64 0.0 4.7 -2.34 5.46 -4.4 c 0.56 -1.89 0.97 -3.76 0.89 -6.07 c -0.07 -2.45 
        -0.79 -4.54 -1.31 -5.58 c -0.69 -1.3 -2.77 -3.31 -5.04 -3.31 c -2.7 0.0 -4.89 2.01 -4.89 4.5 c 0.0 1.27 0.34 
        2.81 1.25 3.62 c 0.47 0.42 0.8 0.85 0.84 1.76 c 0.03 1.01 -0.22 1.56 -0.67 2.04 C 54.69 81.37 54.07 82.2 53.91 
        82.63 z"/>
</svg>