<?xml version="1.0" standalone="no"?>
<!--Created with Sketsa SVG Editor (http://www.kiyut.com)-->
<?xml-stylesheet type="text/css" href="..\healthcare.css" ?>
<svg contentScriptType="text/ecmascript" width="100.0px" xmlns:xlink="http://www.w3.org/1999/xlink" baseProfile="full"
    zoomAndPan="magnify" contentStyleType="text/css" height="100.0px" preserveAspectRatio="xMidYMid meet" xmlns="http://www.w3.org/2000/svg"
    version="1.0">
    <path d="M 73.14 48.53 H 61.6 V 35.21 c 4.56 -3.54 7.5 -9.05 7.5 -15.22 C 69.1 9.29 60.31 0.62 49.47 0.62 C 40.57 
        0.62 32.35 7.22 30.65 14.49 c -0.38 1.61 -0.81 5.83 -0.81 5.83 l -4.09 10.19 c -0.08 0.18 -0.12 0.39 -0.12 0.61 
        c 0.0 0.86 0.7 1.55 1.57 1.56 c 0.44 -0.87 1.42 -1.41 2.45 -1.21 c 1.22 0.22 2.02 1.39 1.78 2.59 c -0.15 0.83 
        -0.79 1.46 -1.58 1.69 v 2.33 c 0.0 4.22 3.47 7.63 7.74 7.63 h 3.08 v 2.82 H 28.15 C 13.78 48.52 4.38 58.93 4.38 
        69.57 V 99.26 l 15.82 -0.01 v -25.7 h 4.56 v 25.7 L 75.24 99.26 V 73.55 h 4.67 V 99.26 l 15.48 -0.01 l 0.01 
        -32.49 C 95.4 58.67 87.27 48.52 73.14 48.53 z M 34.59 28.44 c -0.38 0.31 -0.89 0.48 -1.38 0.48 c -0.7 0.0 -1.36 
        -0.31 -1.77 -0.86 c -0.38 -0.46 -0.54 -1.05 -0.47 -1.63 c 0.07 -0.6 0.38 -1.12 0.85 -1.48 c 0.94 -0.74 2.42 
        -0.57 3.15 0.36 c 0.38 0.48 0.54 1.06 0.47 1.65 C 35.38 27.54 35.08 28.07 34.59 28.44 z M 41.3 26.89 v 0.05 l 
        -0.49 -0.03 c -1.23 -0.1 -2.16 -1.18 -2.06 -2.41 c 0.11 -1.13 1.08 -2.04 2.25 -2.04 l 0.19 0.02 c 0.59 0.05 1.15 
        0.33 1.53 0.77 c 0.38 0.47 0.57 1.03 0.52 1.63 C 43.16 25.93 42.32 26.77 41.3 26.89 z M 46.19 29.69 c -0.35 
        -0.48 -0.49 -1.06 -0.38 -1.65 c 0.1 -0.58 0.42 -1.1 0.92 -1.44 c 0.98 -0.69 2.44 -0.43 3.14 0.53 c 0.71 1.02 
        0.47 2.41 -0.54 3.11 c -0.39 0.26 -0.84 0.4 -1.31 0.4 C 47.29 30.63 46.61 30.29 46.19 29.69 z M 50.07 46.54 c 
        -1.24 0.0 -2.24 -1.0 -2.24 -2.21 c 0.0 -1.22 1.01 -2.22 2.24 -2.22 c 1.26 0.0 2.26 1.0 2.26 2.22 C 52.34 45.55 
        51.33 46.54 50.07 46.54 z M 50.07 38.4 c -1.24 0.0 -2.24 -1.0 -2.24 -2.23 c 0.0 -1.22 1.01 -2.22 2.24 -2.22 c 
        1.26 0.0 2.26 1.0 2.26 2.22 C 52.34 37.4 51.33 38.4 50.07 38.4 z M 59.55 57.77 c 8.19 -0.28 12.87 17.86 10.05 
        34.8 c -1.66 7.19 -6.01 -0.19 -9.83 -0.82 c -4.23 -0.7 -6.61 -1.19 -6.81 -3.38 C 52.23 80.46 55.3 57.92 59.55 
        57.77 z M 47.15 88.31 c -0.2 2.18 -2.58 2.66 -6.81 3.37 c -3.82 0.64 -8.38 8.44 -9.83 0.83 c -2.82 -16.94 1.86 
        -35.09 10.04 -34.8 C 44.81 57.86 47.89 80.39 47.15 88.31 z M 53.05 62.29 c -0.84 0.0 -1.6 -0.46 -2.0 -1.2 c 
        -0.57 -1.08 -0.14 -2.42 0.96 -2.99 c 1.08 -0.55 2.49 -0.1 3.05 0.95 c 0.28 0.51 0.33 1.11 0.14 1.68 c -0.17 0.57 
        -0.56 1.03 -1.1 1.31 C 53.78 62.21 53.42 62.29 53.05 62.29 L 53.05 62.29 z M 50.07 54.7 c -1.04 0.0 -1.93 -0.7 
        -2.19 -1.7 c -0.14 -0.58 -0.03 -1.18 0.28 -1.68 c 0.31 -0.52 0.8 -0.86 1.4 -1.0 c 1.18 -0.29 2.42 0.46 2.71 1.63 
        c 0.3 1.18 -0.45 2.39 -1.65 2.68 C 50.44 54.67 50.25 54.7 50.07 54.7 L 50.07 54.7 z M 47.1 62.29 c -0.35 0.0 
        -0.71 -0.08 -1.05 -0.26 c -1.1 -0.57 -1.51 -1.91 -0.94 -2.99 c 0.56 -1.05 1.97 -1.5 3.03 -0.95 c 0.54 0.27 0.92 
        0.74 1.12 1.3 c 0.17 0.57 0.12 1.17 -0.16 1.7 C 48.72 61.85 47.95 62.29 47.1 62.29 L 47.1 62.29 z"/>
    <path d="M 64.06 91.21 c 0.78 0.0 1.53 -0.41 1.93 -1.06 c 0.64 -1.07 0.3 -2.42 -0.77 -3.06 c -1.03 -0.62 -2.47 -0.24 
        -3.1 0.76 c -0.3 0.51 -0.4 1.1 -0.24 1.68 c 0.14 0.58 0.5 1.06 1.03 1.37 C 63.26 91.1 63.66 91.21 64.06 91.21 L 
        64.06 91.21 z"/>
    <path d="M 66.41 83.49 c 1.2 0.0 2.19 -0.94 2.24 -2.13 c 0.06 -1.24 -0.92 -2.27 -2.24 -2.32 c -1.22 0.0 -2.21 0.95 
        -2.27 2.13 c -0.02 0.6 0.19 1.17 0.59 1.6 c 0.42 0.43 0.98 0.69 1.58 0.72 H 66.41 L 66.41 83.49 z"/>
    <path d="M 64.7 75.61 c 0.37 0.0 0.7 -0.08 1.01 -0.24 c 1.12 -0.55 1.57 -1.87 1.01 -2.97 c -0.52 -1.07 -1.92 -1.55 
        -3.01 -1.01 c -0.54 0.27 -0.94 0.72 -1.13 1.29 c -0.19 0.57 -0.16 1.17 0.12 1.7 C 63.08 75.13 63.85 75.61 64.7 
        75.61 L 64.7 75.61 z"/>
    <path d="M 59.39 69.47 c 0.73 0.0 1.41 -0.34 1.85 -0.94 c 0.7 -1.0 0.45 -2.39 -0.56 -3.09 c -0.97 -0.69 -2.44 -0.43 
        -3.13 0.53 c -0.71 1.01 -0.47 2.41 0.54 3.11 C 58.47 69.34 58.92 69.47 59.39 69.47 L 59.39 69.47 z"/>
    <path d="M 36.09 91.21 c 0.42 0.0 0.82 -0.1 1.17 -0.31 c 0.5 -0.31 0.87 -0.79 1.03 -1.37 c 0.14 -0.57 0.05 -1.17 
        -0.26 -1.67 c -0.63 -1.01 -2.07 -1.38 -3.1 -0.78 c -0.51 0.31 -0.87 0.79 -1.03 1.38 c -0.14 0.57 -0.06 1.17 0.26 
        1.68 C 34.56 90.81 35.3 91.21 36.09 91.21 L 36.09 91.21 z"/>
    <path d="M 33.76 83.49 h 0.08 c 1.24 -0.05 2.19 -1.08 2.16 -2.32 c -0.05 -1.18 -1.01 -2.13 -2.35 -2.13 c -0.59 0.04 
        -1.15 0.28 -1.57 0.72 c -0.4 0.43 -0.61 1.0 -0.59 1.6 C 31.55 82.55 32.53 83.49 33.76 83.49 L 33.76 83.49 z"/>
    <path d="M 35.43 75.61 c 0.87 0.0 1.66 -0.48 2.04 -1.23 c 0.26 -0.53 0.3 -1.13 0.1 -1.7 s -0.59 -1.01 -1.13 -1.29 c 
        -1.09 -0.53 -2.49 -0.05 -3.01 1.01 c -0.27 0.53 -0.31 1.13 -0.12 1.7 c 0.19 0.55 0.59 1.01 1.13 1.27 C 34.75 
        75.52 35.1 75.61 35.43 75.61 L 35.43 75.61 z"/>
    <path d="M 40.76 69.47 c 0.47 0.0 0.92 -0.14 1.31 -0.39 c 1.01 -0.7 1.26 -2.1 0.54 -3.11 c -0.7 -0.96 -2.16 -1.22 
        -3.14 -0.53 c -0.5 0.35 -0.82 0.86 -0.92 1.44 c -0.1 0.58 0.02 1.17 0.36 1.65 C 39.35 69.13 40.03 69.47 40.76 
        69.47 L 40.76 69.47 z"/>
</svg>