<?xml version="1.0" standalone="no"?>
<!--Created with Sketsa SVG Editor (http://www.kiyut.com)-->
<?xml-stylesheet type="text/css" href="..\healthcare.css" ?>
<svg contentScriptType="text/ecmascript" width="100.0px" xmlns:xlink="http://www.w3.org/1999/xlink" baseProfile="full"
    zoomAndPan="magnify" contentStyleType="text/css" height="100.0px" preserveAspectRatio="xMidYMid meet" xmlns="http://www.w3.org/2000/svg"
    version="1.0">
    <polygon points="0.5,52.22 0.5,76.2 15.79,76.2 23.12,52.22" transform="matrix(1.0 0.0 0.0 1.0 -0.0 -3.81E-6)"/>
    <path d="M 51.68 38.31 c 8.24 0.0 12.72 -5.67 12.72 -12.66 c 0.0 -6.99 -5.69 -12.65 -12.72 -12.65 c -7.03 0.0 -12.72 
        5.66 -12.72 12.65 C 38.96 32.64 44.66 38.31 51.68 38.31 z" transform="matrix(1.0 0.0 0.0 1.0 -0.0 -3.81E-6)"/>
    <path d="M 44.65 57.56 c -3.7 0.0 -6.69 2.97 -6.69 6.65 c 0.0 3.67 2.99 6.65 6.69 6.65 c 3.69 0.0 6.68 -2.98 6.68 
        -6.65 C 51.33 60.54 48.34 57.56 44.65 57.56 z" transform="matrix(1.0 0.0 0.0 1.0 -0.0 -3.81E-6)"/>
    <path d="M 59.98 57.56 c -3.69 0.0 -6.68 2.97 -6.68 6.65 c 0.0 3.67 2.99 6.65 6.68 6.65 s 6.68 -2.98 6.68 -6.65 C 
        66.66 60.54 63.68 57.56 59.98 57.56 z" transform="matrix(1.0 0.0 0.0 1.0 -0.0 -3.81E-6)"/>
    <path d="M 68.6 57.39 c -0.34 0.94 -0.44 2.13 0.23 4.45 l 4.12 14.36 h 18.24 v 22.8 h 8.18 V 0.62 h -8.18 v 51.6 H 
        71.28 L 68.6 57.39 z" transform="matrix(1.0 0.0 0.0 1.0 -0.0 -3.81E-6)"/>
    <polygon points="31.87,60.19 27.23,76.2 31.71,76.2 36.24,60.19" transform="matrix(1.0 0.0 0.0 1.0 -0.0 -3.81E-6)"/>
    <g transform="matrix(1.0 0.0 0.0 1.0 -0.0 -3.81E-6)">
        <polygon points="25.15,98.99 79.5,98.99 72.95,76.2 31.68,76.2"/>
    </g>
    <path d="M 84.3 26.37 L 78.95 4.86 c -0.72 -2.91 -3.69 -4.69 -6.61 -3.97 c -2.93 0.72 -4.72 3.66 -3.99 6.58 l 4.83 
        19.4 L 64.7 41.64 H 39.88 c -8.87 0.0 -14.91 6.24 -16.49 9.84 l -0.27 0.74 h 48.16 L 83.74 30.37 C 84.43 29.16 
        84.63 27.72 84.3 26.37 z" transform="matrix(1.0 0.0 0.0 1.0 -0.0 -3.81E-6)"/>
    <path d="M 16.36 99.13 c -0.51 0.0 -1.02 -0.07 -1.53 -0.21 c -2.9 -0.84 -4.56 -3.86 -3.72 -6.74 l 4.68 -15.98 h 
        11.44 l -5.63 19.02 C 20.9 97.59 18.72 99.13 16.36 99.13 L 16.36 99.13 z" transform="matrix(1.0 0.0 0.0 1.0 -0.0 -3.81E-6)"/>
</svg>