<?xml version="1.0" standalone="no"?>
<!--Created with Sketsa SVG Editor (http://www.kiyut.com)-->
<?xml-stylesheet type="text/css" href="..\healthcare.css" ?>
<svg contentScriptType="text/ecmascript" width="100.0px" xmlns:xlink="http://www.w3.org/1999/xlink" baseProfile="full"
    zoomAndPan="magnify" contentStyleType="text/css" height="100.0px" preserveAspectRatio="xMidYMid meet" xmlns="http://www.w3.org/2000/svg"
    version="1.0">
    <polygon points="22.16,11.13 22.16,0.5 11.39,0.5 11.39,11.13 0.63,11.13 0.63,21.77 11.39,21.77 11.39,32.4 22.16,32.4 
        22.16,21.77 32.93,21.77 32.93,11.13"/>
    <path d="M 56.15 44.14 c 7.43 0.0 13.46 -5.96 13.46 -13.29 c 0.0 -7.34 -6.03 -13.29 -13.46 -13.29 c -7.43 0.0 -13.46 
        5.94 -13.46 13.29 C 42.69 38.19 48.72 44.14 56.15 44.14 z"/>
    <path d="M 35.07 99.12 V 87.33 L 23.09 90.62 c -0.88 0.35 -1.83 0.54 -2.83 0.54 c -4.23 0.0 -7.67 -3.4 -7.67 -7.58 c 
        0.0 -1.57 0.48 -3.03 1.31 -4.24 l 19.21 -26.01 c 2.09 -2.82 5.0 -5.96 11.14 -5.96 h 23.22 c 6.14 0.0 9.05 3.14 
        11.14 5.96 l 19.21 26.01 c 0.83 1.21 1.31 2.66 1.31 4.24 c 0.0 4.18 -3.44 7.58 -7.67 7.58 c -1.0 0.0 -1.96 -0.19 
        -2.83 -0.54 l -11.98 -3.29 V 99.12 H 35.07 z M 55.86 90.89 L 55.86 90.89 l 15.52 -5.07 l -0.35 -0.1 c -10.71 
        -3.11 -6.54 -17.08 4.17 -13.96 l 1.46 0.49 V 56.47 L 55.86 63.18 L 35.07 56.47 v 15.77 l 1.46 -0.49 c 10.71 
        -3.12 14.88 10.85 4.17 13.96 l -0.34 0.1 L 55.86 90.89 L 55.86 90.89 z"/>
</svg>