<?xml version="1.0" standalone="no"?>
<!--Created with Sketsa SVG Editor (http://www.kiyut.com)-->
<?xml-stylesheet type="text/css" href="..\healthcare.css" ?>
<svg contentScriptType="text/ecmascript" width="100.0px" xmlns:xlink="http://www.w3.org/1999/xlink" baseProfile="full"
    zoomAndPan="magnify" contentStyleType="text/css" height="100.0px" preserveAspectRatio="xMidYMid meet" xmlns="http://www.w3.org/2000/svg"
    version="1.0">
    <path d="M 14.41 36.24 c 2.91 0.0 5.28 2.39 5.28 5.35 c 0.0 2.95 -2.37 5.34 -5.28 5.34 c -2.91 0.0 -5.27 -2.39 -5.27 
        -5.34 C 9.14 38.63 11.5 36.24 14.41 36.24 z"/>
    <path d="M 49.38 6.5 c 3.83 0.0 6.94 3.15 6.94 7.03 c 0.0 3.88 -3.11 7.02 -6.94 7.02 c -3.83 0.0 -6.93 -3.14 -6.93 
        -7.02 C 42.45 9.65 45.55 6.5 49.38 6.5 z"/>
    <path d="M 11.16 29.21 l 1.08 1.74 c 2.48 -1.58 5.78 -0.83 7.34 1.69 l 1.71 -1.09 C 19.13 28.07 14.59 27.03 11.16 
        29.21 z"/>
    <path d="M 16.02 20.95 l 0.66 1.93 c 2.77 -0.98 5.81 0.51 6.77 3.31 l 1.91 -0.68 C 24.04 21.66 19.85 19.61 16.02 
        20.95 z"/>
    <path d="M 22.6 14.01 l 0.22 2.04 c 2.92 -0.32 5.55 1.82 5.87 4.77 l 2.01 -0.22 C 30.25 16.53 26.62 13.57 22.6 14.01 
        z"/>
    <path d="M 30.31 10.79 c 2.91 0.35 5.0 3.04 4.65 5.99 l 2.01 0.24 c 0.48 -4.07 -2.4 -7.78 -6.42 -8.26 L 30.31 10.79 
        z"/>
    <path d="M 62.55 8.16 c 1.72 2.41 1.18 5.78 -1.19 7.52 l 1.19 1.66 c 3.28 -2.4 4.02 -7.06 1.65 -10.38 L 62.55 8.16 
        z"/>
    <path d="M 70.77 12.15 c 1.14 2.74 -0.13 5.9 -2.83 7.05 l 0.79 1.89 c 3.72 -1.59 5.48 -5.96 3.91 -9.74 L 70.77 12.15 
        z"/>
    <path d="M 77.9 17.9 c 0.5 2.93 -1.44 5.72 -4.33 6.23 l 0.34 2.02 c 3.99 -0.7 6.67 -4.56 5.98 -8.6 L 77.9 17.9 z"/>
    <path d="M 77.96 30.22 l -0.11 2.04 c 4.04 0.22 7.51 -2.92 7.73 -7.02 l -2.02 -0.11 C 83.4 28.1 80.89 30.39 77.96 
        30.22 z"/>
    <path d="M 83.35 47.59 c -2.93 0.0 -5.31 -2.39 -5.31 -5.34 c 0.0 -2.95 2.38 -5.34 5.31 -5.34 c 2.93 0.0 5.31 2.39 
        5.31 5.34 C 88.66 45.2 86.28 47.59 83.35 47.59 z"/>
    <path d="M 88.96 56.71 l 1.99 0.0 l 4.07 14.38 c 0.31 1.1 1.53 1.71 2.72 1.36 c 1.19 -0.34 1.94 -1.4 1.54 -2.78 l 
        -4.18 -14.75 c -1.67 -5.9 -6.55 -5.71 -6.55 -5.71 H 78.15 c 0.0 0.0 -4.87 -0.18 -6.55 5.71 l -4.19 14.75 c -0.4 
        1.38 0.35 2.43 1.55 2.78 c 1.19 0.35 2.4 -0.26 2.71 -1.36 l 4.07 -14.38 l 1.98 -0.0 l -5.43 19.18 H 94.39 L 
        88.96 56.71 z"/>
    <path d="M 14.3 54.67 c 1.9 0.0 3.02 -0.71 3.06 -6.03 c -1.91 0.0 -4.16 0.0 -6.04 0.0 C 11.37 53.97 12.39 54.67 14.3 
        54.67 z"/>
    <path d="M 21.49 57.1 h 1.93 c 0.0 0.0 0.0 13.42 0.0 14.92 c 0.0 1.29 1.03 2.34 2.3 2.34 c 1.28 0.0 2.28 -1.05 2.28 
        -2.34 c 0.0 -1.29 0.0 -14.62 0.0 -16.55 c 0.0 -3.78 -3.06 -6.84 -6.78 -6.84 c -0.43 0.0 -1.3 0.0 -2.39 0.0 c 0.0 
        5.2 -1.5 7.4 -3.71 7.4 v 6.01 c 0.65 0.28 1.11 0.94 1.11 1.7 c 0.0 1.02 -0.81 1.86 -1.82 1.86 c -1.01 0.0 -1.82 
        -0.81 -1.82 -1.84 c 0.0 -0.77 0.45 -1.42 1.11 -1.7 v -6.02 c -2.32 0.0 -3.75 -2.4 -3.75 -7.42 c -1.04 0.0 -1.87 
        0.0 -2.27 0.0 C 3.95 48.64 0.63 51.7 0.63 55.47 c 0.0 1.92 0.0 15.26 0.0 16.55 c 0.0 1.29 1.0 2.34 2.28 2.34 c 
        1.27 0.0 2.31 -1.05 2.31 -2.34 c 0.0 -1.5 0.0 -14.92 0.0 -14.92 h 1.91 v 18.79 h 14.37 V 57.1 z"/>
    <path d="M 59.97 32.13 h -1.76 v 55.44 c 0.0 2.19 -1.75 3.96 -3.92 3.96 c -2.16 0.0 -3.92 -1.77 -3.92 -3.96 V 53.23 
        h -2.01 v 34.34 c 0.0 2.19 -1.76 3.96 -3.92 3.96 s -3.91 -1.77 -3.91 -3.96 V 32.13 h -1.76 l -0.0 20.44 c 0.0 
        1.67 -1.34 3.03 -2.99 3.03 s -2.99 -1.35 -2.99 -3.03 V 29.97 c 0.0 -4.98 3.52 -7.8 8.34 -7.8 h 16.48 c 4.82 0.0 
        8.34 2.82 8.34 7.8 v 22.6 c 0.0 1.67 -1.34 3.03 -2.99 3.03 c -1.65 0.0 -2.99 -1.35 -2.99 -3.03 L 59.97 32.13 z"/>
</svg>