<?xml version="1.0" standalone="no"?>
<!--Created with Sketsa SVG Editor (http://www.kiyut.com)-->
<?xml-stylesheet type="text/css" href="..\healthcare.css" ?>
<svg contentScriptType="text/ecmascript" width="100.0px" xmlns:xlink="http://www.w3.org/1999/xlink" baseProfile="full"
    zoomAndPan="magnify" contentStyleType="text/css" height="100.0px" preserveAspectRatio="xMidYMid meet" xmlns="http://www.w3.org/2000/svg"
    version="1.0">
    <path d="M 4.64 9.23 v 21.05 H 1.56 C 0.97 30.28 0.5 29.8 0.5 29.2 V 2.04 C 0.5 1.12 1.17 0.38 2.09 0.38 h 13.62 c 
        0.92 0.0 1.59 0.75 1.59 1.66 v 1.59 h 21.07 c 0.59 0.0 1.06 0.48 1.06 1.08 v 6.11 H 21.45 V 9.22 c 0.0 -0.92 
        -0.67 -1.66 -1.6 -1.66 H 6.24 C 5.31 7.55 4.64 8.31 4.64 9.23 z"/>
    <path d="M 47.72 43.03 c 0.0 0.6 -0.47 1.08 -1.06 1.08 H 12.92 H 9.84 c -0.59 0.0 -1.06 -0.48 -1.06 -1.08 V 15.87 c 
        0.0 -0.92 0.67 -1.67 1.59 -1.67 h 13.62 c 0.92 0.0 1.6 0.75 1.6 1.66 v 1.6 h 21.07 c 0.59 0.0 1.06 0.48 1.06 
        1.08 V 43.03 z M 31.39 27.56 v -6.41 h -6.27 v 6.41 h -6.27 v 6.41 h 6.27 v 6.41 h 6.27 v -6.41 h 6.27 v -6.41 H 
        31.39 z"/>
    <path d="M 55.24 17.22 v 82.01 H 99.38 V 17.22 H 55.24 z M 96.61 87.63 H 58.0 V 56.66 h 38.61 V 87.63 z M 96.61 51.1 
        H 58.0 V 20.13 h 38.61 V 51.1 z"/>
    <path d="M 93.81 22.77 H 60.77 v 25.71 h 33.04 V 22.77 z M 82.67 31.38 H 71.79 c -0.85 0.0 -1.53 -0.7 -1.53 -1.57 c 
        0.0 -0.86 0.68 -1.57 1.53 -1.57 h 10.88 c 0.85 0.0 1.53 0.7 1.53 1.57 C 84.2 30.69 83.52 31.38 82.67 31.38 z"/>
    <path d="M 93.83 59.29 H 60.79 v 25.7 h 33.03 V 59.29 z M 82.67 67.92 H 71.79 c -0.85 0.0 -1.53 -0.7 -1.53 -1.56 c 
        0.0 -0.87 0.68 -1.57 1.53 -1.57 h 10.88 c 0.85 0.0 1.53 0.7 1.53 1.57 C 84.2 67.21 83.52 67.92 82.67 67.92 z"/>
</svg>