<?xml version="1.0" standalone="no"?>
<!--Created with Sketsa SVG Editor (http://www.kiyut.com)-->
<?xml-stylesheet type="text/css" href="..\healthcare.css" ?>
<svg contentScriptType="text/ecmascript" width="100.0px" xmlns:xlink="http://www.w3.org/1999/xlink" baseProfile="full"
    zoomAndPan="magnify" contentStyleType="text/css" height="100.0px" preserveAspectRatio="xMidYMid meet" xmlns="http://www.w3.org/2000/svg"
    version="1.0">
    <path d="M 53.99 0.5 C 36.77 0.5 20.9 13.26 17.6 27.33 c -0.75 3.13 -1.56 11.29 -1.56 11.29 L 8.1 58.33 C 7.95 58.69 
        7.88 59.09 7.88 59.51 c 0.0 1.66 1.38 3.02 3.07 3.02 h 5.09 v 10.47 c 0.0 8.17 6.7 14.78 14.96 14.78 h 5.95 V 
        99.25 h 40.49 V 67.45 c 8.83 -6.86 14.5 -17.51 14.5 -29.47 C 91.92 17.28 74.94 0.5 53.99 0.5 z M 25.35 46.09 c 
        -2.32 0.0 -4.22 -1.87 -4.22 -4.19 c 0.0 -2.3 1.9 -4.17 4.22 -4.17 c 2.34 0.0 4.25 1.87 4.25 4.17 C 29.6 44.22 
        27.69 46.09 25.35 46.09 z M 81.35 40.43 l -3.95 3.9 l -4.81 -3.36 c -0.93 0.48 -1.9 0.86 -2.92 1.11 l -0.89 5.17 
        h 1.84 l 0.49 2.76 c 0.19 0.05 0.39 0.08 0.58 0.15 c 0.49 0.18 0.95 0.41 1.38 0.68 l 2.22 -1.54 l 1.82 1.8 l 
        -1.63 2.29 c 0.35 0.61 0.63 1.27 0.78 1.96 l 2.68 0.45 v 2.54 l -2.79 0.47 c -0.06 0.19 -0.08 0.39 -0.15 0.58 c 
        -0.18 0.49 -0.42 0.95 -0.7 1.37 l 1.57 2.18 l -1.82 1.8 l -2.31 -1.62 c -0.63 0.35 -1.29 0.62 -1.99 0.77 l -0.47 
        2.65 h -2.57 l -0.46 -2.76 c -0.2 -0.06 -0.4 -0.08 -0.6 -0.15 c -0.49 -0.18 -0.95 -0.41 -1.38 -0.68 l -2.22 1.56 
        l -1.81 -1.8 l 1.64 -2.29 c -0.35 -0.62 -0.63 -1.27 -0.78 -1.97 l -2.69 -0.46 v -2.53 l 2.81 -0.47 c 0.06 -0.19 
        0.08 -0.39 0.16 -0.58 c 0.18 -0.48 0.41 -0.94 0.68 -1.36 l -1.57 -2.19 l 1.82 -1.8 l 2.32 1.62 c 0.62 -0.34 1.28 
        -0.62 1.98 -0.77 l 0.4 -2.3 h -4.85 l -1.01 -5.73 c -0.22 -0.07 -0.44 -0.12 -0.65 -0.21 c -0.78 -0.28 -1.51 
        -0.64 -2.2 -1.04 l -4.65 3.23 l -3.94 -3.9 l 3.39 -4.74 c -0.49 -0.92 -0.87 -1.88 -1.13 -2.89 l -5.58 -0.95 v 
        -4.53 l -2.81 0.48 c -0.05 0.13 -0.06 0.27 -0.11 0.4 c -0.18 0.49 -0.42 0.94 -0.68 1.38 l 2.16 3.02 l -2.6 2.56 
        l -3.17 -2.2 c -0.59 0.3 -1.19 0.55 -1.83 0.71 l -0.64 3.62 l -3.65 0.0 l -0.66 -3.77 c -0.13 -0.04 -0.26 -0.05 
        -0.39 -0.1 c -0.5 -0.18 -0.96 -0.42 -1.41 -0.68 l -3.06 2.13 l -2.59 -2.56 l 2.24 -3.14 c -0.3 -0.57 -0.53 -1.18 
        -0.7 -1.8 l -3.69 -0.62 v -3.62 l 3.8 -0.64 c 0.04 -0.13 0.07 -0.26 0.12 -0.39 c 0.18 -0.49 0.43 -0.95 0.68 
        -1.39 l -2.16 -3.02 l 2.58 -2.56 l 3.18 2.21 c 0.59 -0.3 1.2 -0.55 1.84 -0.72 l 0.64 -3.62 h 3.65 L 38.78 16.3 c 
        0.13 0.04 0.27 0.05 0.39 0.1 c 0.5 0.18 0.96 0.42 1.41 0.68 l 3.06 -2.13 l 2.59 2.56 l -2.25 3.13 c 0.31 0.58 
        0.55 1.18 0.72 1.81 l 3.66 0.62 v 2.63 l 4.8 -0.81 c 0.07 -0.22 0.12 -0.43 0.21 -0.64 c 0.29 -0.78 0.65 -1.5 
        1.06 -2.19 L 51.13 17.49 l 3.96 -3.91 l 4.81 3.36 c 0.93 -0.48 1.91 -0.86 2.93 -1.12 l 0.94 -5.52 h 5.59 l 1.01 
        5.73 c 0.22 0.06 0.44 0.12 0.65 0.2 c 0.78 0.28 1.51 0.64 2.2 1.04 l 4.65 -3.23 l 3.93 3.9 l -3.39 4.75 c 0.48 
        0.91 0.86 1.87 1.13 2.87 l 5.6 0.95 v 5.52 l -5.81 0.99 c -0.07 0.22 -0.13 0.43 -0.2 0.64 c -0.29 0.77 -0.65 
        1.49 -1.06 2.18 L 81.35 40.43 z" transform="matrix(1.0 0.0 0.0 1.0 -0.0 -3.81E-6)"/>
    <path d="M 66.1 24.67 c -2.2 0.0 -3.99 1.76 -3.99 3.96 c 0.0 2.19 1.79 3.95 3.99 3.95 c 2.21 0.0 3.99 -1.76 3.99 
        -3.95 C 70.09 26.44 68.31 24.67 66.1 24.67 z" transform="matrix(1.0 0.0 0.0 1.0 -0.0 -3.81E-6)"/>
    <path d="M 65.16 57.08 c 0.0 2.19 1.8 3.95 4.01 3.95 c 2.2 0.0 3.99 -1.77 3.99 -3.95 c 0.0 -2.19 -1.79 -3.95 -3.99 
        -3.95 C 66.96 53.13 65.16 54.89 65.16 57.08 z" transform="matrix(1.0 0.0 0.0 1.0 -0.0 -3.81E-6)"/>
    <path d="M 35.92 20.39 c -2.22 0.0 -4.01 1.77 -4.01 3.96 c 0.0 2.18 1.79 3.95 4.01 3.95 c 2.22 0.0 4.01 -1.77 4.01 
        -3.95 C 39.93 22.16 38.14 20.39 35.92 20.39 z" transform="matrix(1.0 0.0 0.0 1.0 -0.0 -3.81E-6)"/>
</svg>