<?xml version="1.0" standalone="no"?>
<!--Created with Sketsa SVG Editor (http://www.kiyut.com)-->
<?xml-stylesheet type="text/css" href="..\healthcare.css" ?>
<svg contentScriptType="text/ecmascript" width="100.0px" xmlns:xlink="http://www.w3.org/1999/xlink" baseProfile="full"
    zoomAndPan="magnify" contentStyleType="text/css" height="100.0px" preserveAspectRatio="xMidYMid meet" xmlns="http://www.w3.org/2000/svg"
    version="1.0">
    <rect x="0.56" width="62.47" y="57.96" height="5.92"/>
    <path d="M 49.6 45.51 c 0.0 -4.14 3.32 -7.5 7.41 -7.5 c 4.09 0.0 7.42 3.35 7.42 7.5 c 0.0 4.13 -3.33 7.5 -7.42 7.5 C 
        52.92 53.01 49.6 49.64 49.6 45.51 z"/>
    <path d="M 40.12 37.75 H 15.3 L 0.54 40.03 v 12.96 l 7.45 0.0 c -0.59 -0.97 -0.95 -2.1 -0.95 -3.31 c 0.0 -3.5 2.81 
        -6.34 6.27 -6.34 h 13.59 l 11.02 -2.33 l 0.61 2.96 l -11.32 2.39 H 13.31 c -1.81 0.0 -3.28 1.49 -3.28 3.32 c 0.0 
        1.82 1.44 3.29 3.24 3.31 l 26.92 0.0 c 4.16 -0.03 7.5 -3.43 7.5 -7.62 C 47.69 41.17 44.32 37.75 40.12 37.75 z"/>
    <path d="M 52.97 79.79 c 16.56 0.0 29.98 -13.58 29.98 -30.34 c 0.0 -16.76 -13.42 -30.34 -29.98 -30.34 c -10.83 0.0 
        -20.28 5.83 -25.56 14.53 h 12.56 c 3.54 -3.0 8.1 -4.81 13.08 -4.81 c 11.25 0.0 20.38 9.23 20.38 20.62 c 0.0 
        11.39 -9.12 20.62 -20.38 20.62 c -3.19 0.0 -6.2 -0.76 -8.89 -2.09 H 29.27 C 34.75 75.16 43.32 79.79 52.97 79.79 
        z"/>
    <g>
        <path d="M 52.97 2.38 C 32.45 2.38 15.06 15.86 8.93 34.54 l 5.72 -0.9 l 9.28 0.0 C 29.5 23.19 40.41 16.08 52.97 
            16.08 c 18.21 0.0 32.98 14.94 32.98 33.37 c 0.0 18.43 -14.76 33.37 -32.98 33.37 c -11.44 0.0 -21.51 -5.9 
            -27.42 -14.84 H 10.38 c 7.13 16.65 23.51 28.3 42.58 28.3 C 78.6 96.28 99.38 75.26 99.38 49.33 C 99.38 23.4 
            78.6 2.38 52.97 2.38 z M 63.5 13.05 c -0.17 0.68 -0.76 1.13 -1.43 1.13 c -0.12 0.0 -0.24 -0.01 -0.36 -0.05 c 
            -5.66 -1.43 -11.68 -1.43 -17.34 0.0 c -0.79 0.21 -1.59 -0.29 -1.78 -1.08 c -0.2 -0.8 0.28 -1.61 1.07 -1.8 c 
            6.13 -1.55 12.64 -1.55 18.77 0.0 C 63.22 11.45 63.7 12.26 63.5 13.05 z"/>
    </g>
</svg>