<?xml version="1.0" standalone="no"?>
<!--Created with Sketsa SVG Editor (http://www.kiyut.com)-->
<?xml-stylesheet type="text/css" href="..\healthcare.css" ?>
<svg contentScriptType="text/ecmascript" width="100.0px" xmlns:xlink="http://www.w3.org/1999/xlink" baseProfile="full"
    zoomAndPan="magnify" contentStyleType="text/css" height="100.0px" preserveAspectRatio="xMidYMid meet" xmlns="http://www.w3.org/2000/svg"
    version="1.0">
    <path d="M 54.1 0.5 C 36.88 0.5 21.0 13.27 17.7 27.33 c -0.73 3.13 -1.56 11.29 -1.56 11.29 L 8.24 58.33 C 8.08 58.69 
        8.0 59.09 8.0 59.51 c 0.0 1.66 1.36 3.02 3.05 3.02 h 5.09 v 10.47 c 0.0 8.17 6.69 14.78 14.95 14.78 h 5.94 V 
        99.25 h 22.09 v -5.12 h 9.0 V 99.25 h 9.4 V 67.44 c 8.83 -6.86 14.51 -17.51 14.51 -29.46 C 92.04 17.28 75.06 0.5 
        54.1 0.5 z M 25.48 46.09 c -2.35 0.0 -4.26 -1.88 -4.26 -4.21 c 0.0 -2.32 1.91 -4.2 4.26 -4.2 c 2.33 0.0 4.24 
        1.88 4.24 4.2 C 29.73 44.21 27.81 46.09 25.48 46.09 z M 59.14 73.62 h 9.0 v 4.81 h -9.0 V 73.62 z M 59.14 66.78 
        h 9.0 v 4.8 h -9.0 V 66.78 z M 59.14 80.45 h 9.0 v 4.81 h -9.0 V 80.45 z M 59.14 87.29 h 9.0 v 4.81 h -9.0 V 
        87.29 z M 59.14 59.94 h 9.05 c -0.02 0.35 -0.06 0.7 -0.06 1.06 v 3.75 h -9.0 V 59.94 z M 84.05 32.24 c 0.0 2.56 
        -1.02 4.88 -2.67 6.61 c -0.28 3.65 -2.63 6.73 -5.89 8.12 v 0.03 c -3.99 2.29 -6.37 6.21 -7.1 10.9 H 64.71 V 
        47.02 c 0.02 -3.4 1.1 -5.57 3.37 -6.91 c 0.83 -0.47 1.58 -1.01 2.22 -1.61 c 1.68 0.6 3.17 1.77 4.12 3.43 c 0.2 
        0.33 0.55 0.51 0.9 0.51 c 0.17 0.0 0.35 -0.04 0.5 -0.13 c 0.51 -0.27 0.69 -0.89 0.4 -1.38 h -0.01 c -1.06 -1.86 
        -2.67 -3.24 -4.51 -4.06 c 0.94 -1.43 1.46 -3.12 1.44 -5.16 c 0.0 -0.01 0.01 -0.02 0.01 -0.03 c 0.0 -0.92 -0.14 
        -1.82 -0.39 -2.66 c 2.15 -0.41 4.05 -1.48 5.44 -3.0 c 0.39 -0.42 0.36 -1.06 -0.07 -1.44 c -0.43 -0.38 -1.07 
        -0.34 -1.45 0.06 c -1.22 1.31 -2.86 2.2 -4.72 2.45 c -1.5 -2.74 -4.29 -4.69 -7.55 -5.05 c 0.22 -1.74 1.01 -3.29 
        2.21 -4.47 c 0.39 -0.4 0.39 -1.04 0.0 -1.43 c -0.4 -0.4 -1.06 -0.4 -1.47 0.0 c -1.53 1.51 -2.55 3.53 -2.81 5.78 
        c -3.84 -0.48 -6.79 -3.69 -6.8 -7.61 c 0.0 -0.56 -0.47 -1.02 -1.02 -1.02 c -0.58 0.0 -1.04 0.46 -1.04 1.02 c 0.0 
        0.66 0.06 1.29 0.19 1.91 c -1.45 1.24 -3.26 1.87 -5.08 1.87 c -0.9 0.0 -1.79 -0.16 -2.64 -0.46 c 0.0 0.0 -0.01 
        -0.0 -0.02 -0.01 c -1.04 -0.37 -2.0 -0.96 -2.83 -1.78 c -0.4 -0.4 -1.05 -0.4 -1.46 0.0 c -0.4 0.4 -0.4 1.04 0.0 
        1.44 c 0.85 0.84 1.81 1.48 2.83 1.95 c -0.2 2.53 -1.7 4.71 -3.78 5.94 c -1.21 -1.81 -3.02 -3.24 -5.25 -3.94 c 
        -0.56 -0.17 -1.13 0.13 -1.31 0.66 c -0.15 0.54 0.13 1.11 0.67 1.27 c 1.65 0.52 2.98 1.52 3.94 2.81 c -0.64 0.17 
        -1.3 0.26 -2.0 0.26 c 0.0 0.0 0.0 0.0 -0.01 0.0 h -0.11 c -2.65 0.0 -5.08 1.04 -6.85 2.74 c -0.42 0.39 -0.43 
        1.04 -0.02 1.44 c 0.2 0.2 0.47 0.31 0.75 0.31 c 0.23 0.0 0.49 -0.1 0.69 -0.29 c 1.4 -1.35 3.32 -2.17 5.42 -2.17 
        h 0.11 h 0.0 h 0.01 c 4.96 0.0 9.08 -3.65 9.73 -8.38 c 0.71 0.15 1.41 0.23 2.13 0.23 c 2.01 0.0 4.05 -0.62 5.76 
        -1.84 c 0.63 1.41 1.61 2.64 2.81 3.6 c -1.22 1.49 -1.94 3.25 -2.13 5.06 c -0.52 -0.08 -1.06 -0.13 -1.6 -0.13 c 
        -1.56 0.0 -3.13 0.37 -4.6 1.14 c -0.5 0.26 -0.69 0.88 -0.43 1.38 c 0.19 0.34 0.55 0.54 0.92 0.54 c 0.17 0.0 0.32 
        -0.04 0.47 -0.12 c 1.18 -0.61 2.42 -0.9 3.64 -0.9 c 0.55 0.0 1.08 0.06 1.6 0.17 c 0.22 2.06 1.13 4.08 2.68 5.68 
        c 0.21 0.21 0.47 0.31 0.74 0.31 c 0.25 0.0 0.51 -0.09 0.72 -0.28 c 0.42 -0.39 0.43 -1.03 0.03 -1.44 h -0.01 c 
        -1.38 -1.44 -2.11 -3.27 -2.16 -5.12 c 0.0 -0.03 0.01 -0.05 0.0 -0.08 c 0.0 -0.04 0.0 -0.08 0.0 -0.11 c 0.0 -1.8 
        0.63 -3.57 1.87 -5.0 c 1.31 0.64 2.8 1.02 4.38 1.02 c 0.0 0.0 0.01 0.0 0.02 0.0 c 0.0 0.0 0.01 0.0 0.02 0.0 c 
        4.28 0.01 7.74 3.43 7.76 7.65 c -0.81 -0.21 -1.65 -0.32 -2.5 -0.32 c -1.23 0.0 -2.47 0.22 -3.67 0.71 c -0.53 
        0.21 -0.78 0.8 -0.57 1.32 c 0.22 0.52 0.81 0.77 1.34 0.56 c 0.96 -0.38 1.94 -0.56 2.9 -0.56 c 0.78 0.0 1.55 0.12 
        2.27 0.34 c -0.25 1.14 -0.75 2.05 -1.51 2.87 c -0.06 0.05 -0.11 0.11 -0.16 0.18 c -0.59 0.57 -1.29 1.1 -2.16 
        1.62 c -2.98 1.72 -4.41 4.84 -4.38 8.66 v 10.89 h -3.52 V 47.55 c 0.0 -3.8 -2.42 -7.41 -5.45 -8.69 c -1.45 -0.56 
        -2.96 -1.49 -4.07 -2.7 c -1.57 1.05 -3.46 1.67 -5.49 1.67 c -2.03 0.0 -3.92 -0.61 -5.48 -1.66 c -1.55 1.01 -3.43 
        1.6 -5.44 1.6 c -5.52 0.0 -9.98 -4.41 -9.98 -9.86 c 0.0 -4.07 2.49 -7.56 6.06 -9.06 c 0.96 -4.34 4.86 -7.59 9.54 
        -7.59 c 0.25 0.0 0.48 0.02 0.71 0.03 c 1.77 -2.55 4.73 -4.22 8.09 -4.22 c 1.67 0.0 3.23 0.41 4.6 1.14 c 1.55 
        -1.02 3.4 -1.61 5.39 -1.61 c 2.56 0.0 4.89 0.99 6.64 2.59 c 0.73 -0.17 1.49 -0.28 2.28 -0.28 c 3.96 0.0 7.38 
        2.35 8.9 5.72 c 4.01 1.2 6.94 4.88 6.94 9.23 c 0.0 0.87 -0.12 1.72 -0.33 2.52 C 83.3 28.02 84.05 30.04 84.05 
        32.24 z"/>
</svg>