<?xml version="1.0" standalone="no"?>
<!--Created with Sketsa SVG Editor (http://www.kiyut.com)-->
<?xml-stylesheet type="text/css" href="..\healthcare.css" ?>
<svg contentScriptType="text/ecmascript" width="100.0px" xmlns:xlink="http://www.w3.org/1999/xlink" baseProfile="full"
    zoomAndPan="magnify" contentStyleType="text/css" height="100.0px" preserveAspectRatio="xMidYMid meet" xmlns="http://www.w3.org/2000/svg"
    version="1.0">
    <path d="M 10.56 64.68 c 0.24 -7.78 -4.11 -10.71 -9.42 -12.65 C -0.63 58.69 4.24 64.23 10.56 64.68"/>
    <path d="M 11.76 29.93 c 3.38 -7.05 0.58 -11.44 -3.52 -15.25 C 3.94 20.12 6.15 27.08 11.76 29.93"/>
    <path d="M 13.67 49.55 c -0.23 -7.78 4.12 -10.72 9.43 -12.65 C 24.86 43.56 19.99 49.1 13.67 49.55"/>
    <path d="M 13.67 61.55 c -0.23 -7.78 4.12 -10.71 9.43 -12.65 C 24.86 55.55 19.99 61.1 13.67 61.55"/>
    <path d="M 13.67 37.56 c -0.23 -7.78 4.12 -10.72 9.43 -12.66 C 24.86 31.56 19.99 37.1 13.67 37.56"/>
    <path d="M 10.56 52.69 c 0.24 -7.78 -4.11 -10.72 -9.42 -12.65 C -0.63 46.69 4.24 52.23 10.56 52.69"/>
    <path d="M 10.56 40.7 c 0.24 -7.78 -4.11 -10.72 -9.42 -12.66 C -0.63 34.7 4.24 40.23 10.56 40.7"/>
    <path d="M 70.51 99.38 H 27.61 L 49.06 63.23 L 70.51 99.38 z M 36.13 94.59 h 25.85 L 49.06 72.81 L 36.13 94.59 z"/>
    <polygon points="4.3,74.75 95.17,50.71 93.83,45.85 2.94,69.9"/>
    <path d="M 68.42 0.37 c 0.0 0.0 0.66 12.75 12.16 11.67 C 80.58 12.05 81.88 1.39 68.42 0.37"/>
    <path d="M 80.45 41.85 c -1.2 1.65 -3.2 2.72 -5.45 2.72 c -1.83 0.0 -3.63 -0.84 -4.83 -2.01 c -2.47 -2.63 -5.68 -8.5 
        -5.68 -8.5 c -1.8 -3.55 -2.76 -6.3 -2.76 -9.08 c 0.0 -5.92 4.92 -11.05 11.02 -11.05 c 3.0 0.0 5.72 1.17 7.71 
        3.06 c 1.99 -1.89 4.7 -3.06 7.7 -3.06 c 6.09 0.0 11.02 5.13 11.02 11.05 c 0.0 2.78 -0.96 5.52 -2.76 9.08 c 0.0 
        0.0 -3.21 5.87 -5.68 8.5 c -1.21 1.18 -3.0 2.01 -4.84 2.01 C 83.65 44.57 81.65 43.5 80.45 41.85"/>
</svg>