<?xml version="1.0" standalone="no"?>
<!--Created with Sketsa SVG Editor (http://www.kiyut.com)-->
<?xml-stylesheet type="text/css" href="..\healthcare.css" ?>
<svg contentScriptType="text/ecmascript" width="100.0px" xmlns:xlink="http://www.w3.org/1999/xlink" baseProfile="full"
    zoomAndPan="magnify" contentStyleType="text/css" height="100.0px" preserveAspectRatio="xMidYMid meet" xmlns="http://www.w3.org/2000/svg"
    version="1.0">
    <path d="M 49.94 0.63 C 32.44 0.63 18.2 14.9 18.2 32.44 c 0.0 17.55 14.24 31.81 31.73 31.81 c 17.49 0.0 31.73 -14.27 
        31.73 -31.81 C 81.67 14.9 67.43 0.63 49.94 0.63 z M 49.94 61.3 c -15.88 0.0 -28.8 -12.95 -28.8 -28.87 c 0.0 
        -15.91 12.93 -28.87 28.8 -28.87 c 15.87 -2.38E-7 28.8 12.96 28.8 28.87 C 78.73 48.35 65.81 61.3 49.94 61.3 z"/>
    <path d="M 33.51 30.34 c 1.39 0.0 4.71 0.0 6.09 0.0 c 0.0 -1.41 0.0 -4.79 0.0 -6.19 c -1.38 0.0 -4.7 0.0 -6.09 0.0 C 
        33.51 25.55 33.51 28.93 33.51 30.34 z"/>
    <g>
        <path d="M 49.96 7.41 c -13.77 0.0 -24.98 11.24 -24.98 25.04 c 0.0 13.81 11.2 25.04 24.98 25.04 c 13.77 0.0 
            24.97 -11.23 24.97 -25.04 C 74.93 18.65 63.73 7.41 49.96 7.41 z M 31.36 32.51 V 21.97 h 10.44 v 10.54 H 
            31.36 z M 42.12 51.78 c -2.86 0.0 -5.17 -2.32 -5.17 -5.19 c 0.0 -2.87 2.32 -5.19 5.17 -5.19 c 2.85 0.0 5.17 
            2.32 5.17 5.19 C 47.29 49.46 44.97 51.78 42.12 51.78 z M 48.38 40.26 c -2.86 0.0 -5.18 -2.32 -5.18 -5.19 c 
            0.0 -2.86 2.32 -5.19 5.18 -5.19 c 2.85 0.0 5.17 2.33 5.17 5.19 C 53.55 37.93 51.23 40.26 48.38 40.26 z M 
            52.0 20.6 c -3.0 0.0 -5.45 -2.45 -5.45 -5.47 c 0.0 -3.02 2.44 -5.46 5.45 -5.46 c 3.01 0.0 5.45 2.44 5.45 
            5.46 C 57.45 18.15 55.01 20.6 52.0 20.6 z M 61.04 48.43 c -2.87 0.0 -5.18 -2.32 -5.18 -5.19 c 0.0 -2.87 2.31 
            -5.19 5.18 -5.19 c 2.85 0.0 5.17 2.32 5.17 5.19 C 66.21 46.11 63.9 48.43 61.04 48.43 z M 62.14 33.19 c -2.85 
            0.0 -5.17 -2.33 -5.17 -5.19 c 0.0 -2.87 2.32 -5.19 5.17 -5.19 c 2.86 0.0 5.18 2.32 5.18 5.19 C 67.32 30.86 
            65.0 33.19 62.14 33.19 z"/>
    </g>
    <g>
        <path d="M 10.81 55.04 v -20.03 c 0.0 -2.84 -2.32 -5.15 -5.17 -5.15 C 2.8 29.86 0.5 32.17 0.5 35.01 v 27.42 c 
            0.0 3.79 1.36 7.45 3.8 10.31 l 17.06 18.16 c 1.69 1.59 2.11 3.01 2.11 5.16 V 99.38 h 18.57 l 0.02 -7.87 c 
            0.0 -3.0 0.24 -7.0 -3.5 -10.93 L 16.92 58.79 c -0.77 -0.75 -1.78 -1.15 -2.85 -1.15 c -2.26 0.0 -4.11 1.84 
            -4.11 4.11 c 0.0 0.98 0.35 1.93 0.98 2.68 l 10.44 11.21 c 0.68 0.79 1.82 2.29 2.39 4.13 c 0.31 0.96 0.39 
            1.89 0.41 2.95 h -3.36 c -0.01 -0.76 -0.07 -1.37 -0.25 -1.94 c -0.33 -1.06 -0.98 -2.01 -1.48 -2.62 L 8.49 
            66.5 c -1.33 -1.35 -2.06 -3.09 -2.06 -4.92 C 6.43 58.82 8.08 56.29 10.81 55.04 z"/>
    </g>
    <g>
        <path d="M 89.04 55.04 v -20.03 c 0.0 -2.84 2.32 -5.15 5.17 -5.15 c 2.84 0.0 5.14 2.31 5.14 5.15 v 27.42 c 0.0 
            3.79 -1.36 7.45 -3.8 10.31 L 78.49 90.91 c -1.69 1.59 -2.11 3.01 -2.11 5.16 V 99.38 H 57.82 l -0.02 -7.87 c 
            0.0 -3.0 -0.24 -7.0 3.5 -10.93 l 21.64 -21.79 c 0.77 -0.75 1.78 -1.15 2.85 -1.15 c 2.26 0.0 4.11 1.84 4.11 
            4.11 c 0.0 0.98 -0.35 1.93 -0.98 2.68 L 78.48 75.64 c -0.68 0.79 -1.82 2.29 -2.39 4.13 c -0.31 0.96 -0.39 
            1.89 -0.41 2.95 h 3.36 c 0.01 -0.76 0.07 -1.37 0.25 -1.94 c 0.33 -1.06 0.98 -2.01 1.48 -2.62 l 10.6 -11.66 c 
            1.33 -1.35 2.06 -3.09 2.06 -4.92 C 93.42 58.82 91.77 56.29 89.04 55.04 z"/>
    </g>
</svg>