<?xml version="1.0" standalone="no"?>
<!--Created with Sketsa SVG Editor (http://www.kiyut.com)-->
<?xml-stylesheet type="text/css" href="..\healthcare.css" ?>
<svg contentScriptType="text/ecmascript" width="100.0px" xmlns:xlink="http://www.w3.org/1999/xlink" baseProfile="full"
    zoomAndPan="magnify" contentStyleType="text/css" height="100.0px" preserveAspectRatio="xMidYMid meet" xmlns="http://www.w3.org/2000/svg"
    version="1.0">
    <path d="M 47.36 16.91 c 4.61 0.36 8.65 -3.05 9.01 -7.6 c 0.36 -4.56 -3.09 -8.55 -7.7 -8.91 c -4.61 -0.36 -8.64 3.05 
        -9.01 7.61 C 39.3 12.57 42.74 16.55 47.36 16.91"/>
    <path d="M 49.65 33.52 c 2.61 0.48 4.58 2.77 4.58 5.5 c 0.0 3.09 -2.54 5.6 -5.66 5.6 H 30.22 c -1.98 0.0 -3.59 -1.59 
        -3.59 -3.55 c 0.0 -0.48 0.09 -0.93 0.26 -1.35 L 28.88 35.13 l 22.1 -15.65 H 40.44 c -4.04 -0.11 -6.88 1.28 -8.51 
        4.43 c -1.11 2.12 -6.97 15.08 -6.97 15.08 c -0.26 0.64 -0.4 1.34 -0.4 2.07 c 0.0 3.09 2.54 5.6 5.66 5.6 h 7.17 l 
        -2.11 13.75 L 24.15 92.19 c -0.94 2.82 0.61 5.83 3.44 6.76 c 2.83 0.93 5.9 -0.6 6.84 -3.41 l 12.79 -35.85 c 2.49 
        4.01 7.46 11.19 8.3 12.55 c 0.19 2.25 1.98 22.14 1.98 22.14 c 0.27 2.96 2.9 5.11 5.87 4.86 c 2.97 -0.25 5.18 
        -2.86 4.91 -5.8 l -2.1 -23.4 c -0.07 -0.83 -0.34 -1.63 -0.79 -2.34 l -9.2 -14.74 l 1.46 -18.49 c 0.0 0.0 2.18 
        7.32 2.34 7.85 c 0.47 1.51 1.52 2.59 2.6 3.46 c 0.63 0.5 11.37 7.72 11.37 7.72 c 0.6 0.27 1.09 0.51 1.73 0.56 c 
        2.08 0.17 3.9 -1.37 4.07 -3.43 c 0.1 -1.32 -0.49 -2.52 -1.48 -3.27 c 0.0 0.0 -10.7 -7.26 -11.13 -7.58 c -0.35 
        -0.26 -0.63 -0.73 -0.71 -0.97 l -4.23 -15.08 c -0.69 -2.28 -3.01 -4.24 -5.95 -4.24 h -1.27 L 49.65 33.52 z"/>
    <path d="M 48.57 42.57 c 1.98 0.0 3.59 -1.59 3.59 -3.55 c 0.0 -1.83 -1.41 -3.32 -3.21 -3.51 l -2.62 7.09 L 48.57 
        42.57 z"/>
</svg>