<?xml version="1.0" standalone="no"?>
<!--Created with Sketsa SVG Editor (http://www.kiyut.com)-->
<?xml-stylesheet type="text/css" href="..\healthcare.css" ?>
<svg contentScriptType="text/ecmascript" width="100.0px" xmlns:xlink="http://www.w3.org/1999/xlink" baseProfile="full"
    zoomAndPan="magnify" contentStyleType="text/css" height="100.0px" preserveAspectRatio="xMidYMid meet" xmlns="http://www.w3.org/2000/svg"
    version="1.0">
    <path d="M 47.73 24.05 c 5.1 0.0 9.23 -4.16 9.23 -9.28 S 52.83 5.5 47.73 5.5 c -5.1 0.0 -9.23 4.15 -9.23 9.28 S 
        42.63 24.05 47.73 24.05 z"/>
    <path d="M 75.84 86.78 c 0.0 0.0 -71.73 0.0 -73.56 0.0 c -2.07 0.0 -1.86 1.64 -1.86 1.64 v 2.73 c 0.0 0.0 -0.19 3.55 
        3.43 3.55 c 2.76 0.0 92.1 0.0 92.1 0.0 c 3.64 0.0 3.44 -3.47 3.44 -3.47 v -7.56 c 0.0 0.0 -0.31 -2.39 -3.1 -2.39 
        h -8.98 C 84.25 81.28 81.7 86.78 75.84 86.78 z"/>
    <path d="M 82.99 70.02 c 0.0 4.61 3.72 8.35 8.31 8.35 c 4.59 0.0 8.32 -3.75 8.32 -8.35 c 0.0 -4.63 -3.73 -8.36 -8.32 
        -8.36 C 86.72 61.66 82.99 65.39 82.99 70.02 z"/>
    <path d="M 55.82 54.08 c -0.55 1.66 -1.8 3.06 -3.55 3.72 l -7.4 2.77 l 2.73 2.73 h 12.49 l -0.01 -19.27 l -4.18 9.93 
        C 55.89 54.01 55.85 54.04 55.82 54.08 z"/>
    <path d="M 73.77 67.88 H 47.93 l -6.23 -6.13 l -4.34 1.61 c -3.22 1.16 -7.13 -0.61 -8.34 -3.83 c -0.71 -2.0 -0.61 
        -4.23 0.57 -5.86 c -0.53 -0.02 -15.67 0.0 -15.67 0.0 c -2.52 0.0 -4.57 2.04 -4.57 4.57 c 0.0 2.53 2.05 4.52 4.57 
        4.52 h 15.41 l 6.11 9.32 L 3.9 74.64 C 1.88 75.11 0.37 76.93 0.37 79.11 c 0.0 2.54 2.04 4.6 4.55 4.6 l 35.4 0.0 
        c -0.61 -1.0 -0.99 -2.17 -0.99 -3.43 c 0.0 -3.63 2.93 -6.58 6.53 -6.58 h 14.16 l 11.48 -2.42 l 0.64 3.07 l -11.8 
        2.48 H 45.87 c -1.89 0.0 -3.42 1.54 -3.42 3.44 c 0.0 1.88 1.49 3.4 3.35 3.43 l 28.03 0.0 c 4.34 -0.03 7.82 -3.56 
        7.82 -7.91 C 81.65 71.43 78.14 67.88 73.77 67.88 z"/>
    <path d="M 36.82 60.49 c -1.83 0.8 -3.96 -0.03 -4.76 -1.87 c -0.8 -1.85 0.03 -3.99 1.86 -4.8 l 13.15 -4.98 l 4.07 
        -9.77 l -2.65 -0.99 L 45.04 46.46 l -10.01 3.72 V 39.95 L 25.24 50.72 l -11.08 -0.01 c 0.0 0.0 19.38 -21.41 
        19.99 -22.05 c 0.8 -0.8 2.64 -2.14 6.1 -2.14 h 12.45 c 7.07 0.0 8.43 7.1 6.99 10.78 L 53.18 53.21 c -0.4 0.91 
        -1.15 1.65 -2.09 1.99 L 36.82 60.49 z"/>
</svg>