<?xml version="1.0" standalone="no"?>
<!--Created with Sketsa SVG Editor (http://www.kiyut.com)-->
<?xml-stylesheet type="text/css" href="..\healthcare.css" ?>
<svg contentScriptType="text/ecmascript" width="100.0px" xmlns:xlink="http://www.w3.org/1999/xlink" baseProfile="full"
    zoomAndPan="magnify" contentStyleType="text/css" height="100.0px" preserveAspectRatio="xMidYMid meet" xmlns="http://www.w3.org/2000/svg"
    version="1.0">
    <path d="M 48.09 49.82 c -1.84 1.69 -16.58 15.79 -16.58 15.79 l 3.93 3.83 c 0.0 0.0 13.1 -11.92 15.06 -13.72 c 0.49 
        -0.44 1.31 -1.29 2.83 -1.29 h 44.67 v -6.1 H 51.78 C 50.43 48.33 49.15 48.85 48.09 49.82 z"/>
    <path d="M 74.55 16.66 c 5.24 0.0 8.1 -3.58 8.1 -7.98 c 0.0 -4.41 -3.63 -7.98 -8.1 -7.98 c -4.47 -5.36E-7 -8.1 3.57 
        -8.1 7.98 C 66.45 13.08 70.08 16.66 74.55 16.66 z"/>
    <path d="M 62.54 30.38 h 2.72 l -3.98 14.09 H 87.82 l -3.98 -14.09 h 2.72 l 4.13 14.09 h 7.01 L 92.05 25.77 c -0.74 
        -2.58 -4.06 -7.16 -9.79 -7.16 H 66.83 c -5.73 0.0 -9.04 4.58 -9.79 7.16 l -5.63 18.7 h 7.01 L 62.54 30.38 z"/>
    <path d="M 39.6 43.74 l -3.44 -6.33 l -3.68 -6.78 c 0.0 0.0 -0.42 -0.62 -1.19 -0.25 c -0.7 0.33 -0.38 1.11 -0.38 
        1.11 l 2.36 4.45 l 1.47 2.77 l -1.7 -0.75 c -3.0 -1.34 -4.66 -1.91 -5.33 -2.2 c -0.12 -0.05 -0.7 -0.37 -0.98 
        -0.97 c -0.79 -1.74 -4.15 -10.13 -4.9 -11.98 c -0.64 -1.57 -2.21 -3.8 -5.44 -4.59 c -3.68 -0.9 -7.39 1.39 -8.27 
        5.03 L 3.09 44.12 C 2.64 45.8 1.88 50.36 1.88 52.28 c 0.0 1.92 0.03 40.77 0.03 40.77 c 0.03 3.44 2.54 6.21 6.03 
        6.2 c 3.48 -0.01 5.86 -2.81 5.85 -6.24 c 0.0 0.0 -0.0 -22.2 -0.01 -34.54 l 5.35 -22.29 c 0.63 1.51 1.4 3.35 1.65 
        3.79 c 0.6 1.04 1.2 1.76 2.41 2.32 c 0.0 0.0 7.01 2.86 9.72 4.08 c 1.63 0.62 3.41 0.07 4.44 -1.21 l 0.38 -0.77 l 
        0.13 0.24 c 0.0 0.0 0.8 1.39 1.98 1.45 C 40.19 45.01 39.6 43.74 39.6 43.74 z"/>
    <circle cx="20.66" r="8.1" cy="8.61"/>
    <polygon points="32.41,60.71 48.18,46.23 46.13,44.06 30.36,58.54"/>
</svg>