<?xml version="1.0" standalone="no"?>
<!--Created with Sketsa SVG Editor (http://www.kiyut.com)-->
<?xml-stylesheet type="text/css" href="..\healthcare.css" ?>
<svg contentScriptType="text/ecmascript" width="100.0px" xmlns:xlink="http://www.w3.org/1999/xlink" baseProfile="full"
    zoomAndPan="magnify" contentStyleType="text/css" height="100.0px" preserveAspectRatio="xMidYMid meet" xmlns="http://www.w3.org/2000/svg"
    version="1.0">
    <path d="M 94.46 29.66 c -5.28 3.08 -8.12 4.34 -13.59 4.06 c -2.06 -0.02 -3.15 -0.9 -5.18 -0.71 c -1.89 0.07 -2.86 
        0.78 -4.76 1.42 c -2.91 0.9 -4.5 1.71 -7.55 2.66 c -1.94 0.55 -3.17 0.57 -5.18 1.26 c -1.73 0.74 -0.9 0.14 -2.11 
        1.54 c -1.56 1.73 -1.18 3.09 -2.65 6.05 c -1.82 3.89 -1.61 4.41 -0.57 4.89 c -0.69 1.99 -0.85 3.32 -0.69 5.48 c 
        0.19 1.64 -0.5 2.78 1.25 4.08 c 2.39 1.78 7.41 5.96 8.69 6.03 c 1.92 -0.07 7.51 0.14 10.35 -1.83 c 0.64 -0.4 
        0.83 -0.81 0.28 0.71 c -0.12 0.19 -7.08 5.62 -7.84 5.6 c -5.36 0.17 -6.39 0.42 -6.49 0.55 c -0.62 -0.24 -4.72 
        -5.15 -7.24 -3.35 c -0.97 0.59 -1.42 1.16 -1.8 2.23 c 0.33 0.69 1.9 1.78 3.34 2.68 c 2.08 1.33 2.27 2.73 4.36 
        3.23 c 2.53 0.57 5.23 0.19 6.84 0.4 c 0.62 0.17 6.21 -1.47 9.69 -3.35 c 3.22 -1.66 -4.43 3.2 -6.3 5.6 c -5.64 
        1.78 -4.05 1.85 -6.73 2.4 c -2.49 0.57 -2.37 0.43 -4.07 0.97 c -1.75 0.43 -3.2 2.82 -1.54 4.08 c 0.99 0.83 4.1 
        -0.33 7.15 -0.43 c 1.35 -0.02 6.87 -2.56 8.12 -3.23 c 3.13 -1.69 5.42 -4.01 7.27 -5.34 c 2.56 -1.78 -2.89 4.91 
        -5.19 7.71 c -0.66 0.9 -0.97 1.09 -1.8 2.25 c -1.37 1.78 0.38 4.49 1.25 4.06 c 1.02 -0.38 1.68 -2.42 2.79 -3.08 
        c 0.57 -0.31 2.08 -2.54 3.51 -4.06 c 1.04 -1.19 1.8 -1.71 2.79 -2.94 c 1.68 -2.09 2.04 -3.68 3.51 -5.91 c 0.9 
        -1.16 1.54 -1.52 2.37 -2.94 c 4.38 -8.31 3.1 -12.03 7.29 -17.96 c 1.28 -1.76 2.72 -2.18 4.76 -3.23 C 100.69 
        37.42 94.42 29.68 94.46 29.66 z M 74.15 51.68 c -1.0 3.49 -0.9 3.89 -2.79 5.2 c -2.3 1.76 -2.42 0.43 -7.7 3.37 c 
        0.0 0.0 -2.18 -2.28 -5.61 -3.37 c 0.02 0.05 -0.92 -4.41 -2.79 -5.91 c 4.45 -3.39 4.33 -6.26 5.04 -6.17 c 1.59 
        0.14 4.12 0.95 8.81 -0.83 C 71.8 49.12 75.07 48.86 74.15 51.68 z" transform="matrix(1.0 0.0 0.0 1.0 -0.0 -3.81E-6)"/>
    <path d="M 47.41 26.43 c -2.08 -1.4 -2.3 -2.8 -4.36 -3.25 c -2.53 -0.62 -5.26 -0.24 -6.84 -0.55 c -0.62 -0.07 -6.2 
        1.57 -9.66 3.37 c -3.27 1.73 4.4 -3.13 6.3 -5.62 c 5.61 -1.68 4.0 -1.76 6.73 -2.37 c 2.46 -0.5 2.34 -0.36 4.05 
        -0.85 c 1.73 -0.47 3.2 -2.85 1.54 -4.2 c -1.02 -0.76 -4.1 0.4 -7.13 0.43 C 36.66 13.47 31.14 16.01 29.89 16.73 c 
        -3.13 1.64 -5.42 3.96 -7.27 5.2 c -2.58 1.88 2.89 -4.79 5.19 -7.57 c 0.66 -0.95 0.97 -1.14 1.82 -2.25 c 1.33 
        -1.83 -0.4 -4.53 -1.25 -4.2 c -1.04 0.47 -1.7 2.51 -2.96 3.23 c -0.45 0.26 -1.97 2.49 -3.36 4.06 c -1.04 1.14 
        -1.8 1.66 -2.8 2.97 c -1.7 2.02 -2.04 3.61 -3.5 5.74 c -0.9 1.28 -1.56 1.61 -2.37 3.08 C 9.0 35.24 10.26 38.96 
        6.09 44.8 c -1.28 1.87 -2.72 2.28 -4.76 3.37 c -1.89 13.81 4.36 21.52 4.33 21.48 c 5.28 -3.01 8.1 -4.27 13.59 
        -4.08 c 2.06 0.12 3.15 1.0 5.19 0.85 c 1.89 -0.12 2.86 -0.83 4.76 -1.4 c 2.91 -0.97 4.5 -1.78 7.41 -2.68 c 2.08 
        -0.59 3.32 -0.62 5.33 -1.4 c 1.73 -0.64 0.9 -0.05 2.11 -1.4 c 1.54 -1.78 1.18 -3.13 2.51 -6.03 c 1.97 -3.96 1.75 
        -4.48 0.71 -4.91 c 0.66 -2.04 0.85 -3.35 0.69 -5.48 c -0.21 -1.66 0.5 -2.82 -1.25 -4.06 c -2.39 -1.85 -7.41 
        -6.03 -8.67 -6.05 c -1.94 0.02 -7.53 -0.19 -10.37 1.68 c -0.64 0.5 -0.83 0.9 -0.28 -0.55 c 0.12 -0.26 7.08 -5.7 
        7.84 -5.77 c 4.97 -0.11 6.22 -0.31 6.45 -0.42 c 0.49 0.01 4.72 5.16 7.28 3.37 c 0.95 -0.64 1.42 -1.21 1.82 -2.23 
        C 50.42 28.35 48.86 27.26 47.41 26.43 z M 28.77 42.43 c 2.27 -1.68 2.41 -0.36 7.7 -3.23 c 0.0 -0.07 2.18 2.21 
        5.61 3.23 c -0.02 0.02 0.92 4.48 2.79 6.03 c -4.45 3.35 -4.33 6.22 -5.04 6.17 c -1.59 -0.19 -4.12 -1.0 -8.81 
        0.71 c -2.72 -5.08 -5.97 -4.79 -5.04 -7.74 C 26.97 44.23 26.86 43.8 28.77 42.43 z" transform="matrix(1.0 0.0 0.0 1.0 -0.0 -3.81E-6)"/>
</svg>