<?xml version="1.0" standalone="no"?>
<!--Created with Sketsa SVG Editor (http://www.kiyut.com)-->
<?xml-stylesheet type="text/css" href="..\healthcare.css" ?>
<svg contentScriptType="text/ecmascript" width="100.0px" xmlns:xlink="http://www.w3.org/1999/xlink" baseProfile="full"
    zoomAndPan="magnify" contentStyleType="text/css" height="100.0px" preserveAspectRatio="xMidYMid meet" xmlns="http://www.w3.org/2000/svg"
    version="1.0">
    <path d="M 89.22 55.72 V 36.0 c 0.0 -2.8 2.32 -5.07 5.18 -5.07 c 2.85 0.0 5.15 2.28 5.15 5.07 V 63.01 c 0.0 3.73 
        -1.36 7.34 -3.81 10.16 L 78.65 91.04 c -1.7 1.57 -2.11 2.97 -2.11 5.08 V 99.38 h -18.61 l -0.02 -7.75 c 0.0 
        -2.95 -0.24 -6.89 3.5 -10.76 l 21.69 -21.45 c 0.77 -0.73 1.79 -1.13 2.86 -1.13 c 2.27 0.0 4.12 1.81 4.12 4.05 c 
        0.0 0.96 -0.35 1.9 -0.98 2.64 L 78.64 76.0 c -0.68 0.78 -1.82 2.26 -2.4 4.07 c -0.31 0.94 -0.4 1.86 -0.41 2.9 h 
        3.37 c 0.01 -0.75 0.07 -1.35 0.25 -1.91 c 0.33 -1.04 0.99 -1.98 1.48 -2.58 l 10.62 -11.48 c 1.34 -1.33 2.07 
        -3.04 2.07 -4.85 C 93.61 59.44 91.96 56.95 89.22 55.72 z"/>
    <path d="M 10.83 55.72 V 36.0 c 0.0 -2.8 -2.32 -5.07 -5.18 -5.07 C 2.8 30.93 0.5 33.21 0.5 36.0 V 63.01 c 0.0 3.73 
        1.36 7.34 3.81 10.16 l 17.1 17.88 c 1.7 1.57 2.11 2.97 2.11 5.08 V 99.38 h 18.61 l 0.02 -7.75 c 0.0 -2.95 0.24 
        -6.89 -3.5 -10.76 L 16.95 59.42 c -0.77 -0.73 -1.79 -1.13 -2.86 -1.13 c -2.27 0.0 -4.12 1.81 -4.12 4.05 c 0.0 
        0.96 0.35 1.9 0.98 2.64 l 10.46 11.04 c 0.68 0.78 1.83 2.26 2.4 4.07 c 0.31 0.94 0.39 1.86 0.41 2.9 h -3.37 c 
        -0.01 -0.75 -0.07 -1.35 -0.25 -1.91 c -0.33 -1.04 -0.99 -1.98 -1.48 -2.58 L 8.51 67.0 c -1.34 -1.33 -2.07 -3.04 
        -2.07 -4.85 C 6.44 59.44 8.09 56.95 10.83 55.72 z"/>
    <path d="M 51.98 9.36 c 2.44 0.0 4.42 -1.95 4.42 -4.35 c 0.0 -2.4 -1.98 -4.35 -4.42 -4.35 c -2.44 5.96E-8 -4.41 1.95 
        -4.41 4.35 C 47.57 7.41 49.55 9.36 51.98 9.36 z"/>
    <path d="M 28.02 9.38 c -2.48 0.0 -4.48 -1.96 -4.48 -4.38 C 23.54 2.58 25.55 0.62 28.02 0.62 s 4.49 1.96 4.49 4.38 C 
        32.51 7.43 30.5 9.38 28.02 9.38 z"/>
    <circle cx="73.93" r="3.1" cy="23.13"/>
    <path d="M 78.41 27.68 c -1.09 0.0 -7.3 0.0 -8.36 0.0 c -0.04 0.0 -2.8 -0.25 -2.8 -0.25 L 63.76 15.42 c -1.41 -4.84 
        -5.53 -4.69 -5.53 -4.69 h -5.77 h -5.56 c 0.0 0.0 -4.12 -0.15 -5.52 4.69 l -1.73 5.92 l -1.72 -5.92 c -1.42 
        -4.84 -5.52 -4.69 -5.52 -4.69 h -4.39 h -4.38 c 0.0 0.0 -4.12 -0.15 -5.53 4.69 l -3.53 12.11 c -0.33 1.13 0.29 
        1.99 1.3 2.28 c 1.0 0.28 2.03 -0.22 2.29 -1.12 l 3.44 -11.8 l 1.67 -0.0 l -5.02 20.44 h 4.43 v 0.01 V 51.84 c 
        0.0 1.19 0.98 2.17 2.2 2.17 c 1.21 0.0 2.21 -0.97 2.21 -2.17 V 37.32 h 1.86 V 51.84 c 0.0 1.19 0.98 2.17 2.19 
        2.17 c 1.22 0.0 2.21 -0.97 2.21 -2.17 V 37.33 v -0.01 h 4.36 l -4.97 -20.44 l 1.67 0.0 l 3.4 11.68 c 0.06 0.2 
        0.15 0.38 0.27 0.54 c 0.33 0.5 0.91 0.77 1.56 0.75 c 0.65 0.02 1.22 -0.25 1.56 -0.74 c 0.14 -0.18 0.23 -0.38 
        0.29 -0.6 l 3.38 -11.63 l 1.54 -0.0 c 0.0 0.0 0.0 32.45 0.0 34.53 c 0.0 1.41 1.17 2.55 2.6 2.55 c 1.43 0.0 2.59 
        -1.14 2.59 -2.55 c 0.0 -2.08 0.0 -19.65 0.0 -19.65 h 1.92 c 0.0 1.91E-6 0.0 17.57 0.0 19.65 c 0.0 1.41 1.16 2.55 
        2.59 2.55 c 1.43 0.0 2.61 -1.14 2.61 -2.55 c 0.0 -2.08 0.0 -34.53 0.0 -34.53 l 1.68 0.0 l 3.29 11.8 c 0.18 0.58 
        0.67 0.96 1.26 1.11 c 0.02 0.01 0.04 0.02 0.06 0.02 c 0.52 0.12 2.94 0.79 4.72 1.29 c 0.0 3.19 0.0 20.09 0.0 
        21.42 c 0.0 0.99 0.82 1.79 1.82 1.79 s 1.82 -0.8 1.82 -1.79 c 0.0 -1.47 0.0 -10.7 0.0 -10.7 h 1.43 c 0.0 0.0 0.0 
        9.23 0.0 10.7 c 0.0 0.99 0.81 1.79 1.82 1.79 s 1.83 -0.8 1.83 -1.79 c 0.0 -1.47 0.0 -20.01 0.0 -20.01 h 1.4 c 
        0.0 0.0 0.0 5.92 0.0 6.78 c 0.0 0.74 0.61 1.34 1.36 1.34 c 0.75 0.0 1.34 -0.6 1.34 -1.34 c 0.0 -0.73 0.0 -6.61 
        0.0 -7.71 C 82.54 29.44 80.61 27.68 78.41 27.68 z"/>
</svg>