<?xml version="1.0" standalone="no"?>
<!--Created with Sketsa SVG Editor (http://www.kiyut.com)-->
<?xml-stylesheet type="text/css" href="..\healthcare.css" ?>
<svg contentScriptType="text/ecmascript" width="100.0px" xmlns:xlink="http://www.w3.org/1999/xlink" baseProfile="full"
    zoomAndPan="magnify" contentStyleType="text/css" height="100.0px" preserveAspectRatio="xMidYMid meet" xmlns="http://www.w3.org/2000/svg"
    version="1.0">
    <path d="M 4.47 4.07 C 4.3 3.75 4.42 3.35 4.73 3.18 l 4.7 -2.6 c 0.31 -0.18 0.7 -0.06 0.88 0.26 l 1.89 3.49 c 7.13 
        -2.17 15.04 0.91 18.75 7.8 l -9.12 5.04 c 1.51 2.79 0.49 6.3 -2.27 7.84 c -2.77 1.52 -6.23 0.5 -7.74 -2.3 l 
        -9.12 5.04 c -3.72 -6.89 -2.01 -15.29 3.66 -20.19 L 4.47 4.07 z"/>
    <rect x="68.7" width="30.68" y="66.92" height="32.15"/>
    <path d="M 65.18 82.98 H 40.4 c -4.32 0.0 -7.83 -3.56 -7.83 -7.93 c 0.0 -4.39 3.51 -7.94 7.83 -7.94 h 24.78 V 82.98 
        z"/>
    <path d="M 11.76 89.42 c 0.0 -1.77 1.42 -3.22 3.17 -3.22 h 50.25 v 12.86 H 11.76 V 89.42 z"/>
    <ellipse rx="9.46" ry="9.58" cx="21.35" cy="73.4"/>
    <path d="M 82.54 46.58 l -5.32 -15.36 c -1.03 -2.9 -3.02 -5.16 -8.61 -5.16 H 44.03 c -5.59 0.0 -7.58 2.26 -8.61 5.16 
        L 30.1 46.58 c -0.4 0.99 -0.61 3.22 1.56 4.72 l 12.52 8.36 c 1.82 1.22 4.29 0.71 5.49 -1.14 s 0.7 -4.35 -1.13 
        -5.57 l -6.01 -4.02 l -3.92 -2.62 l 2.8 -7.82 h 3.87 l -2.27 6.34 l 7.54 5.04 c 1.69 1.13 2.85 2.86 3.26 4.88 c 
        0.41 2.02 0.02 4.07 -1.1 5.79 c -0.45 0.68 -1.0 1.27 -1.61 1.76 h 10.44 c -0.61 -0.5 -1.16 -1.08 -1.61 -1.76 c 
        -1.12 -1.72 -1.51 -3.78 -1.1 -5.79 c 0.41 -2.02 1.57 -3.75 3.26 -4.88 l 7.54 -5.04 l -2.28 -6.34 h 3.87 l 2.8 
        7.82 l -3.92 2.62 L 64.1 52.95 c -1.83 1.22 -2.34 3.72 -1.13 5.57 s 3.67 2.36 5.5 1.14 l 12.51 -8.36 C 83.14 
        49.8 82.94 47.57 82.54 46.58 z"/>
    <path d="M 58.77 11.02 c -0.59 1.3 -1.89 2.21 -3.4 2.21 c -1.51 0.0 -2.81 -0.9 -3.4 -2.21 h -6.86 c -0.11 0.61 -0.18 
        1.23 -0.18 1.88 c 0.0 5.86 4.69 10.6 10.47 10.6 c 5.78 0.0 10.47 -4.75 10.47 -10.6 c 0.0 -0.64 -0.07 -1.27 -0.17 
        -1.88 H 58.77 z"/>
    <path d="M 51.73 8.52 c 0.41 -1.65 1.88 -2.87 3.64 -2.87 c 1.75 0.0 3.23 1.23 3.63 2.87 h 5.94 c -1.65 -3.67 -5.29 
        -6.22 -9.53 -6.22 c -4.24 0.0 -7.88 2.56 -9.53 6.22 H 51.73 z"/>
</svg>