<?xml version="1.0" standalone="no"?>
<!--Created with Sketsa SVG Editor (http://www.kiyut.com)-->
<?xml-stylesheet type="text/css" href="..\healthcare.css" ?>
<svg contentScriptType="text/ecmascript" width="100.0px" xmlns:xlink="http://www.w3.org/1999/xlink" baseProfile="full"
    zoomAndPan="magnify" contentStyleType="text/css" height="100.0px" preserveAspectRatio="xMidYMid meet" xmlns="http://www.w3.org/2000/svg"
    version="1.0">
    <path id="path3900_1_" d="M 66.25 20.56 v 5.79 c 0.0 1.62 1.32 2.94 2.94 2.94 h 17.21 c 1.64 0.0 2.94 -1.32 2.94 
        -2.94 v -5.79 H 66.25 z"/>
    <path id="path3904_1_" d="M 89.32 39.32 h -8.81 c -1.32 0.0 -2.36 1.05 -2.36 2.34 v 6.43 c 0.0 1.31 1.04 2.34 2.36 
        2.34 h 8.81 c 1.32 0.0 2.36 -1.04 2.36 -2.34 v -6.43 C 91.67 40.37 90.63 39.32 89.32 39.32"/>
    <path id="path3908_1_" d="M 89.32 72.55 h -8.81 c -1.32 0.0 -2.36 1.04 -2.36 2.36 v 6.42 c 0.0 1.29 1.04 2.36 2.36 
        2.36 h 8.81 c 1.32 0.0 2.36 -1.06 2.36 -2.36 v -6.42 C 91.67 73.59 90.63 72.55 89.32 72.55"/>
    <path id="path3912_1_" d="M 79.94 88.26 H 18.77 c -1.29 0.0 -2.36 1.04 -2.36 2.33 v 6.45 c 0.0 1.29 1.07 2.33 2.36 
        2.33 h 61.16 c 1.29 0.0 2.33 -1.04 2.33 -2.33 v -6.45 C 82.27 89.3 81.23 88.26 79.94 88.26"/>
    <path id="path3916_1_" d="M 21.02 81.34 v -6.44 c 0.0 -1.31 -1.06 -2.34 -2.36 -2.34 H 9.83 c -1.28 0.0 -2.32 1.04 
        -2.32 2.34 v 6.44 c 0.0 1.29 1.04 2.36 2.32 2.36 h 8.83 C 19.96 83.69 21.02 82.63 21.02 81.34"/>
    <path id="path3920_1_" d="M 9.83 50.44 h 8.83 c 1.29 0.0 2.36 -1.04 2.36 -2.34 v -6.43 c 0.0 -1.29 -1.06 -2.34 -2.36 
        -2.34 H 9.83 C 8.54 39.32 7.5 40.37 7.5 41.66 v 6.43 C 7.5 49.4 8.54 50.44 9.83 50.44"/>
    <path id="path3924_1_" d="M 11.81 29.3 h 17.2 c 1.63 0.0 2.95 -1.32 2.95 -2.94 v -5.79 H 8.87 v 5.79 C 8.87 27.98 
        10.18 29.3 11.81 29.3"/>
    <path id="path3928_1_" d="M 71.67 39.32 h -8.83 c -1.29 0.0 -2.33 1.05 -2.33 2.34 v 6.43 c 0.0 1.31 1.04 2.34 2.33 
        2.34 h 8.83 c 1.29 0.0 2.33 -1.04 2.33 -2.34 v -6.43 C 74.0 40.37 72.96 39.32 71.67 39.32"/>
    <path id="path3932_1_" d="M 82.93 64.78 v -6.44 c 0.0 -1.28 -1.07 -2.34 -2.36 -2.34 h -8.83 c -1.28 0.0 -2.32 1.06 
        -2.32 2.34 v 6.44 c 0.0 1.32 1.04 2.36 2.32 2.36 h 8.83 C 81.86 67.14 82.93 66.1 82.93 64.78"/>
    <path id="path3936_1_" d="M 62.83 83.69 h 8.83 c 1.29 0.0 2.33 -1.07 2.33 -2.36 v -6.42 c 0.0 -1.32 -1.04 -2.36 
        -2.33 -2.36 h -8.83 c -1.29 0.0 -2.33 1.04 -2.33 2.36 v 6.42 C 60.5 82.62 61.54 83.69 62.83 83.69"/>
    <path id="path3940_1_" d="M 65.26 64.78 v -6.44 c 0.0 -1.28 -1.04 -2.34 -2.33 -2.34 H 54.09 c -1.28 0.0 -2.35 1.06 
        -2.35 2.34 v 6.44 c 0.0 1.32 1.06 2.36 2.35 2.36 h 8.83 C 64.22 67.14 65.26 66.1 65.26 64.78"/>
    <path id="path3944_1_" d="M 45.18 83.69 h 8.81 c 1.29 0.0 2.36 -1.07 2.36 -2.36 v -6.42 c 0.0 -1.32 -1.06 -2.36 
        -2.36 -2.36 H 45.18 c -1.32 0.0 -2.36 1.04 -2.36 2.36 v 6.42 C 42.82 82.62 43.86 83.69 45.18 83.69"/>
    <path id="path3948_1_" d="M 53.99 50.44 c 1.29 0.0 2.36 -1.04 2.36 -2.34 v -6.43 c 0.0 -1.29 -1.06 -2.34 -2.36 -2.34 
        h -8.81 c -1.32 0.0 -2.36 1.05 -2.36 2.34 v 6.43 c 0.0 1.3 1.04 2.34 2.36 2.34 H 53.99 z"/>
    <path id="path3952_1_" d="M 47.61 64.78 v -6.44 c 0.0 -1.28 -1.06 -2.34 -2.36 -2.34 h -8.83 c -1.28 0.0 -2.32 1.06 
        -2.32 2.34 v 6.44 c 0.0 1.32 1.04 2.36 2.32 2.36 h 8.83 C 46.54 67.14 47.61 66.1 47.61 64.78"/>
    <path id="path3956_1_" d="M 27.63 83.69 h 8.83 c 1.29 0.0 2.36 -1.07 2.36 -2.36 v -6.42 c 0.0 -1.32 -1.07 -2.36 
        -2.36 -2.36 H 27.63 c -1.29 0.0 -2.33 1.04 -2.33 2.36 v 6.42 C 25.3 82.62 26.34 83.69 27.63 83.69"/>
    <path id="path3960_1_" d="M 36.34 50.44 c 1.29 0.0 2.33 -1.04 2.33 -2.34 v -6.43 c 0.0 -1.29 -1.04 -2.34 -2.33 -2.34 
        H 27.51 c -1.29 0.0 -2.33 1.05 -2.33 2.34 v 6.43 c 0.0 1.3 1.04 2.34 2.33 2.34 H 36.34 z"/>
    <path id="path3964_1_" d="M 16.42 58.35 v 6.44 c 0.0 1.3 1.07 2.34 2.36 2.34 h 8.83 c 1.28 0.0 2.32 -1.04 2.32 -2.34 
        v -6.44 c 0.0 -1.29 -1.04 -2.36 -2.32 -2.36 h -8.83 C 17.48 55.99 16.42 57.06 16.42 58.35"/>
    <path id="path3968_1_" d="M 31.96 18.26 c 0.0 -1.67 1.41 -4.55 17.16 -4.6 c 15.72 -0.05 17.12 2.93 17.12 4.6 v 0.48 
        h 23.09 v -0.61 C 89.34 15.13 83.92 0.5 49.12 0.5 C 14.28 0.5 8.87 15.13 8.87 18.13 v 0.61 h 23.09 V 18.26 z"/>
</svg>