<?xml version="1.0" standalone="no"?>
<!--Created with Sketsa SVG Editor (http://www.kiyut.com)-->
<?xml-stylesheet type="text/css" href="..\healthcare.css" ?>
<svg contentScriptType="text/ecmascript" width="100.0px" xmlns:xlink="http://www.w3.org/1999/xlink" baseProfile="full"
    zoomAndPan="magnify" contentStyleType="text/css" height="100.0px" preserveAspectRatio="xMidYMid meet" xmlns="http://www.w3.org/2000/svg"
    version="1.0">
    <path d="M 49.84 53.98 c 7.48 0.0 10.95 5.61 11.68 13.59 c 0.17 1.91 -0.01 4.69 -0.25 7.91 C 60.43 86.18 59.46 99.33 
        66.67 99.33 c 6.1 0.0 9.23 -11.56 11.04 -24.74 c 1.74 -13.05 -0.1 -19.54 0.81 -25.33 c 1.73 -10.98 11.42 -20.82 
        8.43 -34.81 c -1.66 -7.76 -5.98 -11.42 -10.27 -12.95 C 66.81 -2.06 60.44 4.78 49.84 4.78 S 32.87 -2.06 23.0 1.49 
        c -4.28 1.54 -8.6 5.19 -10.27 12.95 C 9.75 28.44 19.43 38.28 21.17 49.26 c 0.91 5.79 -0.94 12.29 0.81 25.33 C 
        23.78 87.77 26.92 99.33 33.01 99.33 c 7.21 0.0 6.24 -13.15 5.4 -23.85 c -0.25 -3.22 -0.43 -6.0 -0.25 -7.91 C 
        38.88 59.6 42.4 53.98 49.84 53.98 z"/>
</svg>