<?xml version="1.0" standalone="no"?>
<!--Created with Sketsa SVG Editor (http://www.kiyut.com)-->
<?xml-stylesheet type="text/css" href="..\healthcare.css" ?>
<svg contentScriptType="text/ecmascript" width="100.0px" xmlns:xlink="http://www.w3.org/1999/xlink" baseProfile="full"
    zoomAndPan="magnify" contentStyleType="text/css" height="100.0px" preserveAspectRatio="xMidYMid meet" xmlns="http://www.w3.org/2000/svg"
    version="1.0">
    <path d="M 85.88 85.39 c 2.61 -3.16 3.52 -7.54 2.0 -11.65 l -1.37 -3.76 h 8.33 V 0.38 H 4.5 v 69.6 h 48.58 l 5.3 
        14.41 c 1.5 4.1 5.05 6.89 9.09 7.64 l 2.49 7.47 L 90.81 99.5 L 85.88 85.39 z M 78.3 47.78 c -4.45 1.61 -6.75 6.5 
        -5.13 10.91 l 3.21 8.69 H 7.12 V 2.97 h 85.12 v 64.41 h -6.69 L 78.3 47.78 z" transform="matrix(1.0 0.0 0.0 1.0 -0.0 3.81E-6)"/>
    <path d="M 84.51 36.04 c -19.24 19.07 -50.43 19.07 -69.67 0.0 L 43.1 8.01 c 3.62 3.6 9.5 3.6 13.12 0.0 L 84.51 36.04 
        z M 64.45 30.35 c 3.08 -2.1 3.87 -6.26 1.77 -9.33 c -2.12 -3.05 -6.33 -3.84 -9.4 -1.74 c -3.08 2.11 -3.87 6.27 
        -1.76 9.32 C 57.16 31.65 61.37 32.43 64.45 30.35 z M 57.15 34.29 c -0.14 -0.39 -0.31 -0.76 -0.62 -1.08 c 0.0 0.0 
        -5.49 -5.74 -6.84 -7.15 c 0.09 -1.71 0.3 -6.13 0.3 -6.13 c 0.07 -1.59 -1.18 -2.95 -2.78 -3.02 c -1.6 -0.08 -2.98 
        1.15 -3.05 2.75 l -0.35 7.36 c -0.04 0.79 0.25 1.56 0.79 2.13 l 2.51 2.63 l -7.53 4.93 l 0.41 -5.64 c -0.19 
        -2.17 -2.13 -3.78 -4.31 -3.59 c 0.0 0.0 -7.16 0.49 -9.76 0.71 c -1.64 0.14 -2.87 1.58 -2.72 3.21 c 0.14 1.63 
        1.59 2.84 3.23 2.71 c 1.81 -0.16 6.05 -0.3 7.77 -0.44 c 0.0 0.0 -1.49 4.29 -1.18 6.41 c 0.19 1.39 0.6 2.79 1.45 
        4.03 c 2.64 3.82 7.92 4.8 11.77 2.18 c 1.38 -0.93 8.24 -5.58 9.53 -6.46 C 57.58 38.56 58.14 36.19 57.15 34.29 z"
        transform="matrix(1.0 0.0 0.0 1.0 -0.0 3.81E-6)"/>
</svg>