<?xml version="1.0" standalone="no"?>
<!--Created with Sketsa SVG Editor (http://www.kiyut.com)-->
<?xml-stylesheet type="text/css" href="..\healthcare.css" ?>
<svg contentScriptType="text/ecmascript" width="100.0px" xmlns:xlink="http://www.w3.org/1999/xlink" baseProfile="full"
    zoomAndPan="magnify" contentStyleType="text/css" height="100.0px" preserveAspectRatio="xMidYMid meet" xmlns="http://www.w3.org/2000/svg"
    version="1.0">
    <path d="M 89.62 75.7 l -8.73 3.88 L 68.65 52.68 l -1.19 -2.6 l -2.87 0.04 L 38.14 50.49 l -0.24 -5.59 h 21.93 v 
        -8.69 H 37.53 l -0.77 -18.05 c 3.3 -1.42 5.6 -4.67 5.6 -8.45 C 42.36 4.62 38.19 0.5 33.06 0.5 c -5.15 0.0 -9.31 
        4.12 -9.31 9.21 c 0.0 3.22 1.67 6.05 4.2 7.69 l 1.6 37.68 l 0.17 4.22 l 4.27 -0.06 l 27.84 -0.39 l 12.86 28.24 l 
        1.8 3.96 l 3.99 -1.77 l 12.73 -5.66 L 89.62 75.7 L 89.62 75.7 L 89.62 75.7 z M 62.36 73.35 l -1.18 -0.28 c -2.58 
        10.44 -11.99 17.73 -22.86 17.73 c -12.98 0.0 -23.54 -10.45 -23.54 -23.3 c 0.0 -7.91 4.01 -15.12 10.57 -19.42 l 
        -1.11 -7.55 l -0.77 -1.46 C 12.69 44.6 6.0 55.5 6.0 67.51 C 6.0 85.14 20.5 99.5 38.32 99.5 c 12.27 0.0 23.16 
        -6.76 28.63 -17.15 L 62.36 73.35 L 62.36 73.35 L 62.36 73.35 z" clip-rule="evenodd" fill-rule="evenodd"/>
</svg>