<?xml version="1.0" standalone="no"?>
<!--Created with Sketsa SVG Editor (http://www.kiyut.com)-->
<?xml-stylesheet type="text/css" href="..\healthcare.css" ?>
<svg contentScriptType="text/ecmascript" width="100.0px" xmlns:xlink="http://www.w3.org/1999/xlink" baseProfile="full"
    zoomAndPan="magnify" contentStyleType="text/css" height="100.0px" preserveAspectRatio="xMidYMid meet" xmlns="http://www.w3.org/2000/svg"
    version="1.0">
    <path d="M 67.74 65.18 c 0.0 0.14 0.01 0.28 0.01 0.43 c 0.0 14.64 -12.07 26.54 -26.9 26.54 c -14.83 0.0 -26.9 -11.91 
        -26.9 -26.54 c 4.77E-7 -8.85 4.41 -16.69 11.18 -21.52 l -0.92 -7.93 C 13.75 41.93 6.67 52.97 6.67 65.6 C 6.67 
        84.2 22.0 99.33 40.85 99.33 c 15.98 0.0 29.43 -10.87 33.15 -25.51 L 67.74 65.18 z"/>
    <circle cx="36.46" r="8.7" cy="9.25"/>
    <path d="M 92.53 75.75 L 73.02 48.82 c -1.02 -1.41 -2.73 -2.08 -4.46 -1.93 c -0.13 -0.01 -0.26 -0.02 -0.39 -0.02 H 
        45.88 l -0.55 -4.79 h 16.57 c 1.93 0.0 3.49 -1.54 3.49 -3.44 s -1.56 -3.44 -3.49 -3.44 H 44.53 l -0.91 -7.86 c 
        -0.53 -4.6 -4.74 -7.9 -9.4 -7.38 c -4.66 0.52 -8.01 4.68 -7.48 9.28 l 2.56 22.21 c 0.5 4.29 4.2 7.46 8.48 7.43 c 
        0.01 0.0 0.03 0.0 0.04 0.0 h 29.17 l 16.74 23.09 c 1.6 2.21 4.87 2.61 7.3 0.89 C 93.46 81.14 94.13 77.96 92.53 
        75.75 z"/>
</svg>