<?xml version="1.0" standalone="no"?>
<!DOCTYPE svg PUBLIC "-//W3C//DTD SVG 1.1//EN"
    "http://www.w3.org/Graphics/SVG/1.1/DTD/svg11.dtd">
<?xml-stylesheet type="text/css" href="..\networking.css" ?>
<!-- Generator: Adobe Illustrator 14.0.0, SVG Export Plug-In . SVG Version: 6.00 Build 43363)  -->
<svg contentScriptType="text/ecmascript" zoomAndPan="magnify" xmlns:xlink="http://www.w3.org/1999/xlink" baseProfile="full"
    contentStyleType="text/css" id="Layer_1" enable-background="new 0 0 70 70" version="1.1" width="70px" xml:space="preserve"
    preserveAspectRatio="xMidYMid meet" viewBox="0 0 70 70" height="70px" xmlns="http://www.w3.org/2000/svg" x="0px" y="0px">      
    <g>           
        <path d="M35,7.333C19.168,7.333,6.334,20.167,6.334,36c0,15.833,12.834,28.667,28.666,28.667 
            c15.833,0,28.667-12.834,28.667-28.667C63.667,20.167,50.833,7.333,35,7.333z 
            M53,27h-9v-1.791l-2.795,3.525l-1.285-1.816 
            L27.236,35H38v-1.922l6,2.244V32h9v9h-9v-3.323l-6,2.245V38H27.238l12.799,8.081l1.168-1.878L44,47.791V46h9v9h-9v-3.598 
            l-6.218-1.496l0.85-1.805L23,37.989V44H13V29h10v6.01l15.748-10.112l-0.965-1.804L44,21.597V18h9V27z"/> </g> </svg>