<?xml version="1.0" standalone="no"?>
<!DOCTYPE svg PUBLIC "-//W3C//DTD SVG 1.1//EN"
    "http://www.w3.org/Graphics/SVG/1.1/DTD/svg11.dtd">
<?xml-stylesheet type="text/css" href="..\networking.css" ?>
<!-- Generator: Adobe Illustrator 14.0.0, SVG Export Plug-In . SVG Version: 6.00 Build 43363)  -->
<svg contentScriptType="text/ecmascript" zoomAndPan="magnify" xmlns:xlink="http://www.w3.org/1999/xlink" baseProfile="full"
    contentStyleType="text/css" id="Layer_1" enable-background="new 0 0 70 70" version="1.1" width="70px" xml:space="preserve"
    preserveAspectRatio="xMidYMid meet" viewBox="0 0 70 70" height="70px" xmlns="http://www.w3.org/2000/svg" x="0px" y="0px">      
    <g>           
        <path d="M5.881,10.854v14.118H64.5V10.854H5.881z M12.727,22.152h-1.346v-6.241H9.644v-0.899h0.13 
            c0.804,0,1.738-0.193,1.973-1.287v-0.17h0.98V22.152z 
            M20.275,14.818c-1.312,1.76-2.446,4.748-2.636,7.334h-1.417 
            c0.188-2.563,1.417-5.428,2.753-7.188h-3.664v-1.239h4.964V14.818z 
            M26.262,22.152H21.37c0-3.74,3.511-3.654,3.511-6.326 
            c0-0.705-0.297-1.299-1.041-1.299c-1.004,0-1.17,0.922-1.17,1.797h-1.276c0-1.713,0.686-2.77,2.47-2.77 
            c1.713,0,2.363,1.045,2.363,2.295c0,2.854-2.719,3.037-3.355,5.137h3.391V22.152z 
            M29.094,22.152h-1.346v-1.604h1.346V22.152z 
            M33.983,22.152h-1.347v-6.241h-1.737v-0.899h0.131c0.804,0,1.736-0.193,1.974-1.287v-0.17h0.979V22.152z 
            M39.025,22.322 
            c-2.115,0-2.517-1.651-2.517-4.116c0-2.574,0.461-4.651,2.671-4.651c1.466,0,2.256,0.681,2.256,2.089h-1.347 
            c0-0.497-0.225-1.116-0.897-1.116c-1.265,0-1.335,1.711-1.335,2.963l0.036,0.023c0.329-0.619,0.896-0.91,1.629-0.91 
            c1.146,0,2.068,0.85,2.068,2.562C41.59,21.145,40.798,22.322,39.025,22.322z 
            M44.328,22.152h-1.347v-1.604h1.347V22.152z 
            M48.261,22.322c-1.606,0-2.505-1.044-2.505-4.384c0-3.339,0.898-4.384,2.505-4.384c1.607,0,2.505,1.045,2.505,4.384 
            C50.766,21.278,49.868,22.322,48.261,22.322z M53.539,22.152h-1.347v-1.604h1.347V22.152z M57.472,22.322 
            c-1.607,0-2.505-1.044-2.505-4.384c0-3.339,0.897-4.384,2.505-4.384c1.606,0,2.505,1.045,2.505,4.384 
            C59.977,21.278,59.078,22.322,57.472,22.322z"/>           
        <path d="M5.881,43.116H64.5V28.998H5.881V43.116z M57.472,31.699c1.606,0,2.505,1.045,2.505,4.384 
            s-0.898,4.384-2.505,4.384c-1.607,0-2.505-1.045-2.505-4.384S55.864,31.699,57.472,31.699z 
            M52.192,38.693h1.347v1.604h-1.347 V38.693z 
            M46.134,33.156h0.131c0.803,0,1.736-0.193,1.974-1.287v-0.17h0.979v8.598h-1.347v-6.242h-1.737V33.156z 
            M42.981,38.693 h1.347v1.604h-1.347V38.693z 
            M39.18,31.699c1.466,0,2.256,0.68,2.256,2.089h-1.347c0-0.497-0.225-1.117-0.897-1.117 
            c-1.265,0-1.335,1.712-1.335,2.963l0.036,0.024c0.329-0.619,0.896-0.91,1.629-0.91c1.146,0,2.068,0.85,2.068,2.562 
            c0,1.979-0.792,3.157-2.564,3.157c-2.115,0-2.517-1.651-2.517-4.116C36.509,33.776,36.97,31.699,39.18,31.699z 
            M30.899,33.156 h0.131c0.804,0,1.736-0.193,1.974-1.287v-0.17h0.979v8.598h-1.347v-6.242h-1.737V33.156z 
            M27.748,38.693h1.346v1.604h-1.346V38.693 z 
            M23.84,32.671c-1.004,0-1.17,0.923-1.17,1.798h-1.276c0-1.713,0.686-2.77,2.47-2.77c1.713,0,2.363,1.045,2.363,2.295 
            c0,2.854-2.719,3.036-3.355,5.137h3.391v1.166H21.37c0-3.74,3.511-3.654,3.511-6.326C24.881,33.266,24.584,32.671,23.84,32.671z 
            M15.312,31.869h4.964v1.094c-1.312,1.76-2.446,4.748-2.636,7.334h-1.417c0.188-2.563,1.417-5.428,2.753-7.189h-3.664V31.869z 
            M9.644,33.156h0.13c0.804,0,1.738-0.193,1.973-1.287v-0.17h0.98v8.598h-1.346v-6.242H9.644V33.156z"/>           
        <path d="M5.881,60.424H64.5V46.307H5.881V60.424z M57.472,49.008c1.606,0,2.505,1.045,2.505,4.384 
            s-0.898,4.384-2.505,4.384c-1.607,0-2.505-1.045-2.505-4.384S55.864,49.008,57.472,49.008z 
            M52.192,56.002h1.347v1.604h-1.347 V56.002z 
            M48.284,49.979c-1.004,0-1.169,0.924-1.169,1.798h-1.276c0-1.712,0.685-2.769,2.47-2.769c1.713,0,2.363,1.045,2.363,2.295 
            c0,2.854-2.718,3.035-3.356,5.137h3.392v1.166h-4.893c0-3.74,3.51-3.656,3.51-6.327C49.324,50.574,49.029,49.979,48.284,49.979z 
            M42.981,56.002h1.347v1.604h-1.347V56.002z 
            M39.18,49.008c1.466,0,2.256,0.68,2.256,2.088h-1.347c0-0.498-0.225-1.117-0.897-1.117 
            c-1.265,0-1.335,1.713-1.335,2.963l0.036,0.025c0.329-0.62,0.896-0.912,1.629-0.912c1.146,0,2.068,0.852,2.068,2.563 
            c0,1.98-0.792,3.158-2.564,3.158c-2.115,0-2.517-1.652-2.517-4.117C36.509,51.084,36.97,49.008,39.18,49.008z 
            M30.899,50.465h0.131 c0.804,0,1.736-0.194,1.974-1.287v-0.17h0.979v8.598h-1.347v-6.242h-1.737V50.465z 
            M27.748,56.002h1.346v1.604h-1.346V56.002z 
            M23.84,49.979c-1.004,0-1.17,0.924-1.17,1.798h-1.276c0-1.712,0.686-2.769,2.47-2.769c1.713,0,2.363,1.045,2.363,2.295 
            c0,2.854-2.719,3.035-3.355,5.137h3.391v1.166H21.37c0-3.74,3.511-3.656,3.511-6.327C24.881,50.574,24.584,49.979,23.84,49.979z 
            M15.312,49.178h4.964v1.093c-1.312,1.761-2.446,4.747-2.636,7.335h-1.417c0.188-2.563,1.417-5.428,2.753-7.189h-3.664V49.178z 
            M9.644,50.465h0.13c0.804,0,1.738-0.194,1.973-1.287v-0.17h0.98v8.598h-1.346v-6.242H9.644V50.465z"/>           
        <path d="M48.261,14.652c-0.922,0-1.157,0.912-1.157,3.412c0,2.502,0.235,3.412,1.157,3.412 
            c0.923,0,1.158-0.91,1.158-3.412C49.419,15.564,49.184,14.652,48.261,14.652z"/>           
        <path d="M57.472,14.652c-0.921,0-1.158,0.912-1.158,3.412c0,2.502,0.237,3.412,1.158,3.412 
            c0.922,0,1.158-0.91,1.158-3.412C58.63,15.564,58.394,14.652,57.472,14.652z"/>           
        <path d="M57.472,39.621c0.922,0,1.158-0.91,1.158-3.412c0-2.501-0.236-3.412-1.158-3.412 
            c-0.921,0-1.158,0.911-1.158,3.412C56.313,38.711,56.551,39.621,57.472,39.621z"/>           
        <path d="M39.133,39.621c0.826,0,1.109-0.838,1.109-1.846c0-1.189-0.342-1.857-1.109-1.857 
            c-0.981,0-1.159,0.887-1.159,1.919C37.974,38.832,38.341,39.621,39.133,39.621z"/>           
        <path d="M57.472,56.93c0.922,0,1.158-0.91,1.158-3.412s-0.236-3.412-1.158-3.412c-0.921,0-1.158,0.91-1.158,3.412 
            S56.551,56.93,57.472,56.93z"/>           
        <path d="M39.133,56.93c0.826,0,1.109-0.838,1.109-1.846c0-1.189-0.342-1.857-1.109-1.857 
            c-0.981,0-1.159,0.887-1.159,1.918C37.974,56.141,38.341,56.93,39.133,56.93z"/>           
        <path d="M39.133,21.477c0.826,0,1.109-0.838,1.109-1.846c0-1.189-0.342-1.857-1.109-1.857 
            c-0.981,0-1.159,0.887-1.159,1.919C37.974,20.688,38.341,21.477,39.133,21.477z"/> </g> </svg>