<?xml version="1.0" standalone="no"?>
<!DOCTYPE svg PUBLIC "-//W3C//DTD SVG 1.1//EN"
    "http://www.w3.org/Graphics/SVG/1.1/DTD/svg11.dtd">
<?xml-stylesheet type="text/css" href="..\networking.css" ?>
<!-- Generator: Adobe Illustrator 14.0.0, SVG Export Plug-In . SVG Version: 6.00 Build 43363)  -->
<svg contentScriptType="text/ecmascript" zoomAndPan="magnify" xmlns:xlink="http://www.w3.org/1999/xlink" baseProfile="full"
    contentStyleType="text/css" id="Layer_1" enable-background="new 0 0 70 70" version="1.1" width="70px" xml:space="preserve"
    preserveAspectRatio="xMidYMid meet" viewBox="0 0 70 70" height="70px" xmlns="http://www.w3.org/2000/svg" x="0px" y="0px">      
    <path d="M62.355,45.143c-2.689,13.294-15.579,7.922-26.021,16.571c-0.593,0.492-0.882,0-0.882,0 
        c-6.332-7.699-25.861-1.27-28.284-16.571c-1.327-8.373,3.69-9.396,3.977-15.691c0.222-4.859-3.977-10.163-3.977-10.163l9.28-11.271 
        c0,0,9.143,9.227,18.313,0c0.37-0.368,1.08-0.095,1.188,0.028C44.68,17.99,53.57,8.017,53.57,8.017l7.958,10.387 
        c0,0-4.2,4.971-3.978,10.498C57.813,35.412,63.848,37.768,62.355,45.143z"/> </svg>