<?xml version="1.0" standalone="no"?>
<!DOCTYPE svg PUBLIC "-//W3C//DTD SVG 1.1//EN"
    "http://www.w3.org/Graphics/SVG/1.1/DTD/svg11.dtd">
<?xml-stylesheet type="text/css" href="..\networking.css" ?>
<!-- Generator: Adobe Illustrator 14.0.0, SVG Export Plug-In . SVG Version: 6.00 Build 43363)  -->
<svg contentScriptType="text/ecmascript" zoomAndPan="magnify" xmlns:xlink="http://www.w3.org/1999/xlink" baseProfile="full"
    contentStyleType="text/css" id="Layer_1" enable-background="new 0 0 70 70" version="1.1" width="70px" xml:space="preserve"
    preserveAspectRatio="xMidYMid meet" viewBox="0 0 70 70" height="70px" xmlns="http://www.w3.org/2000/svg" x="0px" y="0px">      
    <path d="M63.742,45.674c-2.796,13.823-16.195,8.237-27.049,17.229c-0.617,0.511-0.918,0-0.918,0 
        C29.193,54.9,8.891,61.581,6.371,45.674c-1.379-8.7,3.837-9.764,4.135-16.309c0.23-5.054-4.135-10.566-4.135-10.566l9.647-11.716 
        c0,0,9.505,9.591,19.038,0c0.383-0.385,1.122-0.101,1.235,0.028c9.073,10.338,18.317-0.028,18.317-0.028l8.271,10.796 
        c0,0-4.365,5.169-4.136,10.912C59.016,35.563,65.291,38.009,63.742,45.674z"/> </svg>