<?xml version="1.0" standalone="no"?>
<!DOCTYPE svg PUBLIC "-//W3C//DTD SVG 1.1//EN"
    "http://www.w3.org/Graphics/SVG/1.1/DTD/svg11.dtd">
<?xml-stylesheet type="text/css" href="..\networking.css" ?>
<!-- Generator: Adobe Illustrator 14.0.0, SVG Export Plug-In . SVG Version: 6.00 Build 43363)  -->
<svg contentScriptType="text/ecmascript" zoomAndPan="magnify" xmlns:xlink="http://www.w3.org/1999/xlink" baseProfile="full"
    contentStyleType="text/css" id="Layer_1" enable-background="new 0 0 70 70" version="1.1" width="70px" xml:space="preserve"
    preserveAspectRatio="xMidYMid meet" viewBox="0 0 70 70" height="70px" xmlns="http://www.w3.org/2000/svg" x="0px" y="0px">      
    <g>           
        <path d="M16.263,35.596c0,9.891,8.018,17.909,17.908,17.909c9.892,0,17.91-8.019,17.91-17.909 
            s-8.019-17.909-17.91-17.909C24.28,17.687,16.263,25.705,16.263,35.596z 
            M19.772,38.064v-0.469c0-1.916,1.451-4.454,3.596-5.388 
            c0.166-4.181,3.62-7.529,7.842-7.529c2.813,0,5.397,1.516,6.791,3.921c0.539-0.234,1.123-0.355,1.721-0.355 
            c2.144,0,3.914,1.525,4.277,3.574c2.926,0.581,5.043,3.401,5.043,5.777v0.469c0,2.893-2.975,5.43-6.367,5.43H26.14 
            C22.748,43.494,19.772,40.957,19.772,38.064z"/>           
        <g>                
            <path d="M38.396,30.658l-1.236,0.854l-0.615-1.371c-0.943-2.104-3.037-3.462-5.335-3.462 
                c-1.563,0-3.029,0.611-4.132,1.721c-1.106,1.114-1.715,2.601-1.714,4.175l0.024,1.092l-0.921,0.267 
                c-1.493,0.433-2.695,2.357-2.695,3.663v0.469c0,1.586,1.907,3.43,4.367,3.43h16.535c2.46,0,4.367-1.844,4.367-3.43v-0.469 
                c0-1.597-1.768-3.697-3.831-3.873l-1.108-0.094l-0.036-1.111c-0.041-1.274-1.071-2.273-2.345-2.273 
                C39.246,30.244,38.788,30.387,38.396,30.658z"/>  </g> </g> </svg>