<?xml version="1.0" standalone="no"?>
<!DOCTYPE svg PUBLIC "-//W3C//DTD SVG 1.1//EN"
    "http://www.w3.org/Graphics/SVG/1.1/DTD/svg11.dtd">
<?xml-stylesheet type="text/css" href="..\networking.css" ?>
<!-- Generator: Adobe Illustrator 14.0.0, SVG Export Plug-In . SVG Version: 6.00 Build 43363)  -->
<svg contentScriptType="text/ecmascript" zoomAndPan="magnify" xmlns:xlink="http://www.w3.org/1999/xlink" baseProfile="full"
    contentStyleType="text/css" id="Layer_1" enable-background="new 0 0 70 70" version="1.1" width="70px" xml:space="preserve"
    preserveAspectRatio="xMidYMid meet" viewBox="0 0 70 70" height="70px" xmlns="http://www.w3.org/2000/svg" x="0px" y="0px">      
    <g>           
        <path d="M52.549,36.388l-6.091,2.424v-1.686H35.916v10.745h1.809l-2.339,5.878 
            C44.77,53.375,52.283,45.798,52.549,36.388z"/>           
        <path d="M35.916,24.121v10.505h10.543v-2.195l6.064,2.412c-0.527-9.2-7.98-16.525-17.234-16.845l2.436,6.123H35.916 
            z"/>           
        <path d=
            "M33.416,47.871V37.126H22.333V39l-5.529-2.199c0.472,9.218,7.897,16.58,17.143,16.948l-2.339-5.878H33.416z"/>           
        <path d="M22.333,34.626h11.083V24.121h-1.809l2.436-6.123c-9.289,0.32-16.766,7.703-17.239,16.953l5.529-2.199 
            V34.626z"/> </g> </svg>