<?xml version="1.0" standalone="no"?>
<!DOCTYPE svg PUBLIC "-//W3C//DTD SVG 1.1//EN"
    "http://www.w3.org/Graphics/SVG/1.1/DTD/svg11.dtd">
<?xml-stylesheet type="text/css" href="..\networking.css" ?>
<!-- Generator: Adobe Illustrator 14.0.0, SVG Export Plug-In . SVG Version: 6.00 Build 43363)  -->
<svg contentScriptType="text/ecmascript" zoomAndPan="magnify" xmlns:xlink="http://www.w3.org/1999/xlink" baseProfile="full"
    contentStyleType="text/css" id="Layer_1" enable-background="new 0 0 70 70" version="1.1" width="70px" xml:space="preserve"
    preserveAspectRatio="xMidYMid meet" viewBox="0 0 70 70" height="70px" xmlns="http://www.w3.org/2000/svg" x="0px" y="0px">      
    <g>           
        <path d="M36.182,17.346c-9.891,0-17.909,8.019-17.909,17.909s8.019,17.909,17.909,17.909 
            s17.909-8.019,17.909-17.909S46.072,17.346,36.182,17.346z M44.48,43.455H27.883v-9.296h2.843v-4.194 
            c0.281-2.772,2.65-4.91,5.496-4.91c2.838,0,5.205,2.148,5.495,4.91v4.194h2.764V43.455z"/>           
        <path d="M36.221,27.403c-2.828-0.009-2.827,2.562-2.827,2.562l-0.019,4.194h5.656l0.018-4.194 
            C39.049,29.965,38.929,27.411,36.221,27.403z"/> </g> </svg>