<?xml version="1.0" standalone="no"?>
<!--Created with Sketsa SVG Editor (http://www.kiyut.com)-->
<svg contentScriptType="text/ecmascript" width="1000.0px" xmlns:xlink="http://www.w3.org/1999/xlink" baseProfile="full"
    zoomAndPan="magnify" contentStyleType="text/css" height="1000.0px" preserveAspectRatio="xMidYMid meet" xmlns="http://www.w3.org/2000/svg"
    version="1.0">
    <line transform="matrix(0 1 -1 0 320.78745 -98.11298)" fill="none" x1="131" x2="131" y1="100" y2="123" stroke="#818181"/>
    <line transform="matrix(0 1 -1 0 320.78745 -98.11298)" fill="none" x1="157" x2="157" y1="100" y2="123" stroke="#818181"/>
    <line transform="matrix(0 1 -1 0 320.78745 -98.11298)" fill="none" x1="184" x2="184" y1="100" y2="123" stroke="#818181"/>
    <line transform="matrix(0 1 -1 0 320.78745 -98.11298)" fill="none" x1="209" x2="209" y1="100.4" y2="123" stroke="#818181"/>
    <line transform="matrix(0 1 -1 0 320.78745 -98.11298)" fill="none" x1="235" x2="235" y1="100" y2="123" stroke="#818181"/>
    <line transform="matrix(0 1 -1 0 320.78745 -98.11298)" fill="none" x1="261" x2="261" y1="100" y2="123" stroke="#818181"/>
    <line transform="matrix(0 1 -1 0 320.78745 -98.11298)" fill="none" x1="288" x2="288" y1="100" y2="123" stroke="#818181"/>
    <rect x="100" y="109" transform="matrix(0 1 -1 0 320.78745 -98.11298)" fill="#f2f2f2" width="219" rx="5" height="9"
        ry="5" stroke="#818181"/>
    <rect x="160" y="109" transform="matrix(0 1 -1 0 320.78745 -98.11298)" fill="#4a3ca7" width="100" height="9.0"
        stroke="#818181"/>
    <polygon fill="#7f7f7f" points="157.0,105.0 162.0,109.0 162.0,123.0 152.0,123.0 152.0,109.0" transform="matrix(0 1 -1 0 320.78745 -98.11298)"
        stroke="#333333"/>
    <polygon fill="#7f7f7f" points="261.2,105.0 266.2,109.0 266.2,123.0 256.2,123.0 256.2,109.0" transform="matrix(0 1 -1 0 320.78745 -98.11298)"
        stroke="#333333"/>
</svg>