<?xml version="1.0" standalone="no"?>
<!--Created with Sketsa SVG Editor (http://www.kiyut.com)-->
<?xml-stylesheet type="text/css" href="..\safety.css" ?>
<svg contentScriptType="text/ecmascript" width="100.0px" xmlns:xlink="http://www.w3.org/1999/xlink" baseProfile="full"
    zoomAndPan="magnify" contentStyleType="text/css" height="100.0px" preserveAspectRatio="xMidYMid meet" xmlns="http://www.w3.org/2000/svg"
    version="1.0">
    <path d="M 51.54 1.0 c 10.88 0.87 19.45 10.07 19.45 21.26 c 0.0 11.4 -8.89 20.69 -20.06 21.27 v 4.37 c 3.05 0.49 
        5.38 3.15 5.38 6.36 c 0.0 0.78 -0.14 1.54 -0.4 2.23 l 3.96 2.31 c 6.12 -9.32 18.46 -12.36 28.19 -6.7 c 9.71 5.65 
        13.29 17.91 8.4 27.89 c 6.72 -13.18 2.05 -29.51 -10.82 -37.0 c -3.22 -1.87 -6.65 -3.01 -10.12 -3.49 c 1.33 -3.26 
        2.06 -6.84 2.06 -10.58 C 77.6 14.06 66.07 1.89 51.54 1.0 L 51.54 1.0 z M 48.0 1.02 c -14.46 0.96 -25.91 13.1 
        -25.91 27.91 c 0.0 3.64 0.69 7.12 1.95 10.31 c -3.37 0.5 -6.7 1.63 -9.82 3.45 C 1.44 50.12 -3.25 66.28 3.27 
        79.41 c -4.71 -9.94 -1.1 -22.03 8.52 -27.63 c 9.79 -5.7 22.22 -2.58 28.3 6.88 l 3.82 -2.22 c -0.24 -0.68 -0.36 
        -1.41 -0.36 -2.17 c 0.0 -3.07 2.14 -5.64 4.99 -6.28 v -4.46 c -11.06 -0.68 -19.84 -9.94 -19.84 -21.26 C 28.7 
        11.12 37.19 1.96 48.0 1.02 L 48.0 1.02 z M 49.23 27.8 c -5.58 0.13 -10.73 2.05 -14.96 5.16 c 0.34 0.5 0.7 0.99 
        1.08 1.46 c 0.38 0.47 0.79 0.92 1.21 1.34 s 0.87 0.84 1.33 1.22 c 0.34 0.28 0.71 0.54 1.07 0.8 c 3.12 -2.07 6.85 
        -3.28 10.88 -3.28 c 4.02 0.0 7.75 1.21 10.87 3.28 c 0.36 -0.26 0.73 -0.51 1.07 -0.8 c 0.46 -0.39 0.91 -0.79 1.33 
        -1.22 s 0.83 -0.88 1.21 -1.34 c 0.38 -0.47 0.75 -0.96 1.08 -1.46 c -4.38 -3.23 -9.75 -5.16 -15.56 -5.16 c -0.14 
        0.0 -0.28 -0.0 -0.41 0.0 C 49.37 27.8 49.3 27.8 49.23 27.8 L 49.23 27.8 z M 23.78 51.3 C 23.19 56.74 24.22 62.39 
        27.13 67.47 c 2.91 5.08 7.25 8.81 12.22 11.01 c 0.27 -0.55 0.5 -1.11 0.71 -1.68 c 0.21 -0.57 0.39 -1.14 0.55 
        -1.73 s 0.29 -1.18 0.39 -1.78 c 0.07 -0.44 0.11 -0.88 0.15 -1.33 c -3.33 -1.69 -6.24 -4.35 -8.25 -7.86 C 30.88 
        60.6 30.06 56.74 30.27 52.98 c -0.4 -0.19 -0.81 -0.37 -1.22 -0.53 c -0.56 -0.21 -1.13 -0.4 -1.71 -0.55 c -0.58 
        -0.16 -1.17 -0.28 -1.76 -0.38 C 24.98 51.42 24.38 51.34 23.78 51.3 L 23.78 51.3 z M 76.09 51.62 c -0.6 0.04 -1.2 
        0.12 -1.79 0.22 c -0.59 0.1 -1.18 0.23 -1.76 0.38 c -0.58 0.16 -1.16 0.34 -1.72 0.55 c -0.41 0.16 -0.81 0.35 
        -1.22 0.54 c 0.22 3.75 -0.61 7.62 -2.63 11.13 c -2.01 3.51 -4.92 6.16 -8.25 7.85 c 0.04 0.44 0.08 0.89 0.16 1.33 
        c 0.1 0.6 0.23 1.19 0.38 1.78 c 0.16 0.58 0.34 1.17 0.55 1.73 c 0.21 0.57 0.44 1.13 0.71 1.67 c 4.96 -2.21 9.31 
        -5.93 12.21 -11.01 C 75.65 62.72 76.68 57.05 76.09 51.62 L 76.09 51.62 z M 45.13 58.49 l -3.85 2.25 c 4.94 10.0 
        1.39 22.3 -8.34 27.96 c -9.68 5.64 -21.96 2.67 -28.11 -6.54 c 7.98 12.4 24.3 16.46 37.14 8.99 c 3.11 -1.81 5.73 
        -4.14 7.84 -6.82 c 2.15 2.81 4.86 5.25 8.1 7.14 c 12.85 7.48 29.19 3.4 37.16 -9.02 c -6.14 9.25 -18.44 12.24 
        -28.14 6.6 c -9.79 -5.7 -13.33 -18.11 -8.24 -28.15 l -4.0 -2.33 C 53.52 59.87 51.82 60.7 49.94 60.7 C 48.02 60.7 
        46.3 59.84 45.13 58.49 L 45.13 58.49 z" transform="matrix(1.0 0.0 0.0 1.0 -0.0 3.81E-6)"/>
</svg>