<?xml version="1.0" standalone="no"?>
<!--Created with Sketsa SVG Editor (http://www.kiyut.com)-->
<?xml-stylesheet type="text/css" href="..\safety.css" ?>
<svg contentScriptType="text/ecmascript" width="100.0px" xmlns:xlink="http://www.w3.org/1999/xlink" baseProfile="full"
    zoomAndPan="magnify" contentStyleType="text/css" height="100.0px" preserveAspectRatio="xMidYMid meet" xmlns="http://www.w3.org/2000/svg"
    version="1.0">
    <path id="path2602" d="M 43.64 12.75 c 1.28 -4.29 -1.12 -8.83 -5.4 -10.14 c -4.26 -1.33 -8.79 1.08 -10.11 5.39 c 
        -1.31 4.31 1.12 8.84 5.38 10.15 C 37.79 19.47 42.32 17.05 43.64 12.75" transform="matrix(1.0 0.0 0.0 1.0 -0.0 -3.81E-6)"/>
    <path id="path2604" d="M 58.81 37.75 l -3.07 -19.03 L 74.5 7.7 c 0.89 -0.5 1.59 -1.3 1.88 -2.32 c 0.6 -2.06 -0.57 
        -4.23 -2.63 -4.85 c -1.09 -0.32 -2.23 -0.14 -3.15 0.43 L 43.86 16.73 c -0.94 0.5 -1.75 1.2 -2.45 2.01 l -11.28 
        15.2 l -15.53 -1.86 c -0.99 0.34 -1.84 1.1 -2.28 2.11 c -0.86 1.99 0.05 4.28 2.01 5.12 c 0.82 0.38 1.71 0.43 
        2.54 0.2 l 15.81 1.8 c 0.57 -0.23 1.09 -0.57 1.51 -1.04 l 6.42 -8.09 l 3.07 17.46 c 0.57 2.46 2.21 4.62 4.53 5.8 
        l 13.78 4.13 l 2.03 15.9 c 0.25 1.8 1.5 3.39 3.3 4.04 c 2.63 0.94 5.51 -0.46 6.42 -3.1 c 0.29 -0.79 0.34 -1.66 
        0.23 -2.46 l -2.49 -19.45 c -0.29 -1.43 -1.18 -2.69 -2.5 -3.44 l -8.58 -2.59 l 14.2 -8.64 l 17.36 7.72 c 0.11 
        0.05 0.22 0.1 0.32 0.15 c 2.63 0.92 5.51 -0.46 6.42 -3.1 c 0.86 -2.48 -0.31 -5.17 -2.63 -6.27 l -19.78 -8.85 c 
        -0.1 -0.03 -0.16 -0.08 -0.27 -0.1 c -1.42 -0.5 -2.93 -0.32 -4.14 0.34 L 58.81 37.75 z" transform="matrix(1.0 0.0 0.0 1.0 -0.0 -3.81E-6)"/>
    <path id="path2606" d="M 21.28 44.84 H 0.5 v 5.69 h 16.0 v 16.2 h 16.64 v 15.09 H 49.26 V 99.5 h 21.22 v -5.69 H 
        54.95 V 76.14 H 38.81 V 61.03 h -16.61 V 44.84 H 21.28 z" transform="matrix(1.0 0.0 0.0 1.0 -0.0 -3.81E-6)"/>
</svg>