<?xml version="1.0" standalone="no"?>
<!--Created with Sketsa SVG Editor (http://www.kiyut.com)-->
<?xml-stylesheet type="text/css" href="..\safety.css" ?>
<svg contentScriptType="text/ecmascript" width="100.0px" xmlns:xlink="http://www.w3.org/1999/xlink" baseProfile="full"
    zoomAndPan="magnify" contentStyleType="text/css" height="100.0px" preserveAspectRatio="xMidYMid meet" xmlns="http://www.w3.org/2000/svg"
    version="1.0">
    <path d="M 49.88 99.38 c -27.29 0.0 -49.5 -22.18 -49.5 -49.44 S 22.58 0.5 49.88 0.5 c 27.29 0.0 49.5 22.18 49.5 
        49.44 S 77.17 99.38 49.88 99.38 L 49.88 99.38 z M 49.88 6.12 C 25.69 6.12 6.01 25.78 6.01 49.94 S 25.69 93.75 
        49.88 93.75 S 93.74 74.1 93.74 49.94 S 74.06 6.12 49.88 6.12 L 49.88 6.12 z"/>
    <path d="M 49.89 59.45 c -5.14 0.0 -9.33 -4.18 -9.33 -9.32 c 0.0 -5.14 4.19 -9.32 9.33 -9.32 c 5.15 0.0 9.33 4.18 
        9.33 9.32 C 59.22 55.27 55.03 59.45 49.89 59.45 L 49.89 59.45 z M 49.89 42.22 c -4.37 0.0 -7.92 3.55 -7.92 7.91 
        c 0.0 4.36 3.55 7.91 7.92 7.91 s 7.92 -3.55 7.92 -7.91 C 57.81 45.77 54.26 42.22 49.89 42.22 L 49.89 42.22 z"/>
    <path d="M 53.41 39.66 l -0.87 -0.22 c -0.75 -0.18 -2.37 -0.27 -2.66 -0.28 c -0.72 0.03 -2.0 0.13 -2.67 0.28 l -0.87 
        0.2 v -7.4 c -5.01 -1.54 -8.47 -6.18 -8.47 -11.46 c 0.0 -6.52 5.1 -11.79 11.62 -11.99 l 0.04 0.0 h 0.03 l 0.06 
        0.0 l 0.08 0.0 l 0.07 0.0 l 0.1 0.0 c 6.62 0.0 12.0 5.38 12.0 11.99 c 0.0 5.28 -3.45 9.92 -8.47 11.46 L 53.41 
        39.66 L 53.41 39.66 z M 49.55 10.2 c -5.76 0.18 -10.26 4.83 -10.26 10.59 c 0.0 4.82 3.27 9.04 7.94 10.25 l 0.53 
        0.14 v 6.76 c 0.76 -0.1 1.63 -0.15 2.1 -0.17 c 0.04 -0.0 1.17 0.04 2.15 0.17 l 0.01 -6.76 l 0.53 -0.14 c 4.67 
        -1.21 7.94 -5.42 7.94 -10.25 c 0.0 -5.84 -4.75 -10.59 -10.59 -10.59 l -0.1 0.0 l -0.07 0.0 l -0.08 0.0 l -0.05 
        0.0 H 49.55 L 49.55 10.2 z"/>
    <path d="M 24.45 76.82 C 24.45 76.82 24.45 76.82 24.45 76.82 c -4.19 0.0 -8.01 -2.12 -10.22 -5.66 c -0.01 -0.02 
        -0.02 -0.04 -0.04 -0.06 c -0.02 -0.04 -0.04 -0.07 -0.06 -0.1 l -0.1 -0.18 c -1.6 -2.77 -2.03 -6.0 -1.2 -9.1 c 
        0.83 -3.09 2.82 -5.68 5.59 -7.28 c 1.82 -1.05 3.89 -1.61 5.99 -1.61 c 3.02 0.0 5.97 1.16 8.18 3.2 l 6.43 -3.69 l 
        0.25 0.86 c 0.21 0.74 0.95 2.19 1.08 2.44 c 0.38 0.61 1.11 1.67 1.58 2.17 l 0.61 0.65 l -6.42 3.7 c 1.17 5.11 
        -1.12 10.41 -5.7 13.06 C 28.62 76.26 26.55 76.82 24.45 76.82 L 24.45 76.82 z M 24.43 54.24 c -1.85 0.0 -3.67 
        0.49 -5.28 1.42 c -2.45 1.41 -4.2 3.7 -4.94 6.43 c -0.73 2.73 -0.36 5.58 1.05 8.03 l 0.14 0.24 c 0.01 0.02 0.02 
        0.04 0.03 0.06 c 1.95 3.13 5.32 5.0 9.02 5.0 c 1.85 9.84E-4 3.68 -0.49 5.29 -1.42 c 4.18 -2.41 6.2 -7.34 4.91 
        -11.99 l -0.15 -0.53 l 5.86 -3.38 c -0.47 -0.61 -0.95 -1.33 -1.2 -1.73 c -0.03 -0.05 -0.55 -1.04 -0.93 -1.95 l 
        -5.86 3.36 l -0.38 -0.39 C 30.02 55.39 27.26 54.24 24.43 54.24 L 24.43 54.24 z"/>
    <path d="M 75.3 76.82 c -2.1 0.0 -4.17 -0.56 -6.0 -1.61 c -4.58 -2.64 -6.87 -7.95 -5.7 -13.06 l -6.42 -3.7 l 0.61 
        -0.65 c 0.47 -0.5 1.2 -1.56 1.58 -2.17 c 0.13 -0.24 0.87 -1.7 1.08 -2.44 l 0.25 -0.86 l 6.43 3.69 c 2.21 -2.04 
        5.15 -3.2 8.18 -3.2 c 2.09 0.0 4.17 0.56 5.99 1.61 c 2.78 1.6 4.76 4.19 5.59 7.28 c 0.83 3.1 0.41 6.33 -1.2 9.1 
        L 85.61 71.0 c -0.02 0.03 -0.03 0.06 -0.05 0.09 c -0.02 0.03 -0.03 0.05 -0.04 0.07 C 83.32 74.7 79.5 76.82 75.3 
        76.82 L 75.3 76.82 z M 59.38 58.1 l 5.86 3.38 l -0.15 0.53 c -1.29 4.65 0.73 9.58 4.91 11.99 c 1.61 0.93 3.44 
        1.42 5.29 1.42 c 3.7 0.0 7.07 -1.87 9.02 -5.0 l 0.17 -0.3 c 1.41 -2.45 1.79 -5.3 1.05 -8.03 c -0.73 -2.73 -2.49 
        -5.01 -4.94 -6.43 c -1.61 -0.93 -3.44 -1.42 -5.28 -1.42 c -2.83 0.0 -5.59 1.15 -7.57 3.16 l -0.38 0.39 l -5.86 
        -3.36 c -0.38 0.91 -0.9 1.91 -0.93 1.95 C 60.33 56.77 59.85 57.49 59.38 58.1 L 59.38 58.1 z"/>
    <path d="M 49.89 66.0 c -3.52 0.0 -6.85 -1.13 -9.64 -3.26 l -0.84 -0.64 l 4.63 -2.67 l 0.35 0.2 c 1.66 0.96 3.57 
        1.47 5.5 1.47 c 1.93 0.0 3.83 -0.51 5.49 -1.46 l 0.35 -0.2 l 4.63 2.68 l -0.84 0.64 C 56.73 64.88 53.4 66.0 
        49.89 66.0 L 49.89 66.0 z M 41.98 62.25 c 2.35 1.54 5.07 2.35 7.91 2.35 c 2.84 0.0 5.55 -0.81 7.9 -2.34 l -2.07 
        -1.2 c -1.79 0.95 -3.79 1.45 -5.83 1.45 c -2.04 0.0 -4.06 -0.5 -5.84 -1.46 L 41.98 62.25 L 41.98 62.25 z"/>
    <path d="M 65.5 53.27 l -4.63 -2.66 l 0.0 -0.54 c 0.0 -3.93 -2.06 -7.46 -5.52 -9.45 l -0.35 -0.2 l -0.0 -5.34 l 0.97 
        0.4 c 5.95 2.47 9.8 8.22 9.8 14.66 c 0.0 0.7 -0.05 1.4 -0.14 2.09 L 65.5 53.27 L 65.5 53.27 z M 62.28 49.79 l 
        2.06 1.19 c 0.02 -0.28 0.02 -0.56 0.02 -0.85 c 0.0 -5.51 -3.09 -10.46 -7.96 -12.92 l 9.92E-4 2.39 C 60.02 41.83 
        62.19 45.6 62.28 49.79 L 62.28 49.79 z"/>
    <path d="M 34.27 53.25 l -0.14 -1.04 c -0.09 -0.68 -0.13 -1.38 -0.13 -2.07 c 0.0 -6.43 3.84 -12.19 9.79 -14.66 l 
        0.97 -0.4 l 0.01 5.34 l -0.35 0.2 c -3.41 1.96 -5.53 5.61 -5.53 9.53 l 0.0 0.46 L 34.27 53.25 L 34.27 53.25 z M 
        43.36 37.22 c -4.87 2.45 -7.95 7.41 -7.95 12.92 c 0.0 0.28 0.01 0.55 0.02 0.83 l 2.06 -1.18 c 0.12 -4.15 2.34 
        -7.99 5.87 -10.18 L 43.36 37.22 L 43.36 37.22 z"/>
</svg>