<?xml version="1.0" standalone="no"?>
<!--Created with Sketsa SVG Editor (http://www.kiyut.com)-->
<?xml-stylesheet type="text/css" href="..\safety.css" ?>
<svg contentScriptType="text/ecmascript" width="100.0px" xmlns:xlink="http://www.w3.org/1999/xlink" baseProfile="full"
    zoomAndPan="magnify" contentStyleType="text/css" height="100.0px" preserveAspectRatio="xMidYMid meet" xmlns="http://www.w3.org/2000/svg"
    version="1.0">
    <path d="M 54.79 65.12 L 16.76 21.87 L 8.51 2.8 L 0.5 0.5 l 0.03 94.12 c 0.0 2.61 2.24 4.71 5.01 4.71 l 68.37 -0.06 
        l -5.6 -18.77 L 54.79 65.12"/>
    <polygon points="41.86,10.79 49.07,7.63 45.72,0.86 38.53,3.99"/>
    <polygon points="38.68,16.52 26.78,12.75 22.74,23.95 34.67,27.72"/>
    <polygon points="38.77,21.21 60.53,19.3 62.36,38.81 46.69,40.56 40.33,32.6"/>
    <polygon points="65.63,53.87 73.2,58.19 77.59,57.44 82.77,49.38 82.77,49.18 75.2,44.86 70.81,45.61 65.63,53.67"/>
    <polygon points="68.84,63.93 82.89,65.7 81.09,79.23 71.14,77.9 67.43,71.14"/>
    <polygon points="49.19,50.07 52.49,47.74 47.81,41.89 44.63,44.14 44.63,50.07"/>
    <polygon points="99.3,99.5 86.9,99.5 86.9,91.21 91.96,86.41 99.3,91.68"/>
</svg>