<?xml version="1.0" standalone="no"?>
<!--Created with Sketsa SVG Editor (http://www.kiyut.com)-->
<?xml-stylesheet type="text/css" href="..\safety.css" ?>
<svg contentScriptType="text/ecmascript" width="100.0px" xmlns:xlink="http://www.w3.org/1999/xlink" baseProfile="full"
    zoomAndPan="magnify" contentStyleType="text/css" height="100.0px" preserveAspectRatio="xMidYMid meet" xmlns="http://www.w3.org/2000/svg"
    version="1.0">
    <path d="M 82.67 0.37 l 3.94 37.09 c 0.0 4.62 -0.82 8.98 -2.48 13.06 c -1.65 4.08 -3.9 7.63 -6.74 10.66 c -2.84 3.03 
        -6.24 5.42 -10.21 7.19 c -3.96 1.76 -8.26 2.65 -12.91 2.65 v 19.18 h 22.63 c 1.95 0.0 3.39 0.48 4.32 1.44 C 
        82.16 92.61 82.63 93.68 82.63 94.85 c 0.0 1.18 -0.46 2.26 -1.4 3.27 C 80.3 99.13 78.86 99.63 76.91 99.63 H 21.78 
        c -1.95 0.0 -3.39 -0.49 -4.32 -1.51 c -0.93 -1.0 -1.4 -2.09 -1.4 -3.27 c 0.0 -1.17 0.46 -2.24 1.4 -3.2 c 0.93 
        -0.96 2.38 -1.44 4.32 -1.44 H 44.79 V 71.03 c -4.58 0.0 -8.84 -0.89 -12.77 -2.65 c -3.94 -1.77 -7.33 -4.16 
        -10.17 -7.19 c -2.84 -3.03 -5.09 -6.58 -6.74 -10.66 C 13.45 46.45 12.63 42.1 12.63 37.47 L 16.44 0.38 h 44.5 l 
        7.88 17.54 l 2.54 1.14 L 81.03 42.27 l 0.51 -0.25 L 65.12 0.37 H 82.67 L 82.67 0.37 z"/>
</svg>