<?xml version="1.0" standalone="no"?>
<!--Created with Sketsa SVG Editor (http://www.kiyut.com)-->
<?xml-stylesheet type="text/css" href="..\safety.css" ?>
<svg contentScriptType="text/ecmascript" width="100.0px" xmlns:xlink="http://www.w3.org/1999/xlink" baseProfile="full"
    zoomAndPan="magnify" contentStyleType="text/css" height="100.0px" preserveAspectRatio="xMidYMid meet" xmlns="http://www.w3.org/2000/svg"
    version="1.0">
    <path d="M 5.41 9.29 c 1.18 -1.26 2.5 -1.88 3.95 -1.88 c 1.44 0.0 2.8 0.63 4.07 1.88 c 1.27 1.26 1.92 3.14 1.92 5.66 
        v 21.49 c -1.52 0.17 -2.96 0.8 -4.31 1.88 c -1.35 1.09 -2.03 2.34 -2.03 3.76 c 0.0 1.09 0.3 2.05 0.89 2.88 l 
        7.26 11.92 v -1.25 L 10.43 44.63 c -0.59 -0.75 -0.89 -1.54 -0.89 -2.37 c 0.0 -0.75 0.21 -1.43 0.63 -2.06 c 0.42 
        -0.63 0.97 -1.19 1.65 -1.69 c 0.68 -0.5 1.42 -0.89 2.22 -1.19 c 0.8 -0.29 1.54 -0.44 2.22 -0.44 c 1.35 0.0 2.48 
        0.6 3.42 1.79 L 36.73 61.8 c 1.18 1.67 2.03 3.69 2.58 6.03 c 0.55 2.35 0.82 4.49 0.82 6.41 V 99.38 H 18.95 V 
        76.5 c 0.0 -1.17 -0.27 -2.26 -0.82 -3.27 c -0.55 -1.01 -0.94 -1.67 -1.19 -2.01 c -3.02 -4.27 -5.43 -7.7 -7.23 
        -10.3 c -1.8 -2.6 -3.14 -4.72 -4.02 -6.35 c -0.88 -1.63 -1.45 -2.97 -1.7 -4.02 C 3.75 49.5 3.63 48.39 3.63 47.22 
        V 14.94 C 3.63 12.43 4.22 10.54 5.41 9.29 L 5.41 9.29 z"/>
    <polygon points="30.22,35.99 30.22,12.86 49.61,24.3 49.61,46.96 30.22,35.99"/>
    <polygon points="69.51,35.99 50.13,46.96 50.12,24.3 69.51,12.86 69.51,35.99"/>
    <polygon points="49.9,0.25 69.23,11.81 49.9,23.38 30.44,11.81 49.9,0.25"/>
    <path d="M 95.59 47.22 c 0.0 1.17 -0.13 2.28 -0.37 3.33 c -0.25 1.05 -0.82 2.39 -1.72 4.02 c -0.9 1.63 -2.22 3.75 
        -3.94 6.35 c -1.72 2.6 -4.06 6.03 -7.0 10.3 c -0.33 0.34 -0.72 1.01 -1.17 2.01 c -0.45 1.01 -0.68 2.09 -0.68 
        3.27 V 99.38 H 59.53 V 74.24 c 0.0 -1.93 0.27 -4.07 0.82 -6.41 c 0.55 -2.34 1.41 -4.36 2.59 -6.03 l 16.81 -23.13 
        c 0.93 -1.19 2.11 -1.79 3.54 -1.79 s 2.89 0.57 4.37 1.69 s 2.22 2.48 2.22 4.07 c 0.0 0.84 -0.21 1.5 -0.63 2.0 l 
        -6.85 11.0 v 1.25 l 7.25 -11.92 c 0.25 -0.42 0.42 -0.82 0.51 -1.2 c 0.08 -0.38 0.13 -0.78 0.13 -1.19 c 0.0 -1.59 
        -0.63 -2.96 -1.9 -4.13 s -2.62 -1.85 -4.06 -2.01 V 14.94 c 0.0 -2.51 0.58 -4.4 1.75 -5.66 c 1.17 -1.26 2.46 
        -1.88 3.88 -1.88 c 1.42 0.0 2.71 0.63 3.88 1.88 c 1.17 1.26 1.75 3.14 1.75 5.66 V 47.22 L 95.59 47.22 z"/>
</svg>