<?xml version="1.0" standalone="no"?>
<!--Created with Sketsa SVG Editor (http://www.kiyut.com)-->
<?xml-stylesheet type="text/css" href="..\safety.css" ?>
<svg contentScriptType="text/ecmascript" width="100.0px" xmlns:xlink="http://www.w3.org/1999/xlink" baseProfile="full"
    zoomAndPan="magnify" contentStyleType="text/css" height="100.0px" preserveAspectRatio="xMidYMid meet" xmlns="http://www.w3.org/2000/svg"
    version="1.0">
    <path id="path3432" d="M 47.84 34.33 L 36.18 63.5 L 52.51 57.81 L 48.31 73.79 L 45.51 71.57 L 46.95 80.56 L 53.23 
        73.04 L 49.34 73.99 L 58.97 52.86 L 41.56 58.36 L 54.13 34.14 z M 49.63 5.7 c -0.89 0.14 -1.65 0.69 -2.08 1.46 L 
        0.99 89.58 c -0.51 0.91 -0.51 2.07 0.0 2.97 c 0.52 0.92 1.48 1.51 2.53 1.51 h 93.1 c 1.04 0.0 2.01 -0.6 2.52 
        -1.51 c 0.51 -0.9 0.51 -2.07 0.0 -2.97 L 52.6 7.16 C 52.0 6.1 50.84 5.51 49.63 5.7 z M 50.07 15.19 l 39.53 71.14 
        H 10.49 L 50.07 15.19 z"/>
</svg>