<?xml version="1.0" standalone="no"?>
<!--Created with Sketsa SVG Editor (http://www.kiyut.com)-->
<?xml-stylesheet type="text/css" href="..\safety.css" ?>
<svg contentScriptType="text/ecmascript" width="100.0px" xmlns:xlink="http://www.w3.org/1999/xlink" baseProfile="full"
    zoomAndPan="magnify" contentStyleType="text/css" height="100.0px" preserveAspectRatio="xMidYMid meet" xmlns="http://www.w3.org/2000/svg"
    version="1.0">
    <path d="M 64.22 78.76 c -2.3 1.3 -4.61 2.6 -6.91 3.9 c -0.09 0.05 -0.15 0.1 -0.2 0.15 c 0.03 -0.06 0.06 -0.15 0.09 
        -0.27 c 0.17 -0.66 0.34 -1.32 0.51 -1.99 c 1.52 -5.91 3.04 -11.83 4.56 -17.74 c 2.79 -10.87 5.58 -21.74 8.37 
        -32.6 c 0.03 -0.12 -0.1 -0.23 -0.22 -0.17 c -6.22 3.63 -12.45 7.26 -18.67 10.89 c -2.78 1.62 -5.55 3.24 -8.32 
        4.85 c 0.07 -0.09 0.16 -0.23 0.24 -0.42 c 0.48 -1.09 0.96 -2.18 1.44 -3.26 c 6.12 -13.84 12.23 -27.67 18.35 
        -41.51 C 63.49 0.5 63.44 0.37 63.32 0.37 C 57.58 0.37 51.84 0.37 46.1 0.37 c -0.06 0.0 -0.13 0.04 -0.15 0.11 C 
        40.84 20.36 35.74 40.24 30.63 60.11 c -0.03 0.13 0.1 0.23 0.22 0.17 c 5.76 -3.29 11.51 -6.58 17.27 -9.87 c 2.6 
        -1.49 5.21 -2.98 7.82 -4.47 c 0.08 -0.05 0.13 -0.09 0.16 -0.12 c -0.05 0.07 -0.13 0.24 -0.18 0.58 c -0.17 1.16 
        -0.34 2.31 -0.5 3.47 c -1.2 8.27 -2.4 16.53 -3.6 24.8 c -0.34 2.35 -1.02 7.05 -1.02 7.05 s -3.95 -5.18 -5.04 
        -6.55 c -0.1 -0.13 -0.28 0.01 -0.25 0.14 c 1.65 7.98 3.3 15.96 4.94 23.94 c 0.0 0.02 0.01 0.03 0.02 0.04 c 0.03 
        0.06 0.09 0.09 0.15 0.07 c 0.04 -0.0 0.08 -0.02 0.1 -0.06 c 4.57 -6.78 9.13 -13.56 13.7 -20.34 C 64.51 78.84 
        64.34 78.69 64.22 78.76 z M 70.32 30.26 l -0.03 0.02 c 0.02 -0.04 0.04 -0.08 0.05 -0.11 C 70.33 30.19 70.33 
        30.22 70.32 30.26 z M 63.21 0.68 l 0.01 -0.01 c 0.01 0.0 0.02 0.0 0.03 0.0 C 63.24 0.67 63.22 0.68 63.21 0.68 z 
        M 31.07 60.0 l 0.61 -0.35 C 31.37 59.91 31.15 60.08 31.07 60.0 z M 45.87 75.53 l -0.02 -0.03 c -0.02 -0.07 -0.03 
        -0.14 -0.05 -0.22 C 45.82 75.37 45.85 75.45 45.87 75.53 z M 64.07 79.21 l 0.02 -0.03 c 0.05 -0.03 0.1 -0.06 0.15 
        -0.09 C 64.19 79.12 64.13 79.16 64.07 79.21 z"/>
</svg>