<?xml version="1.0" standalone="no"?>
<!--Created with Sketsa SVG Editor (http://www.kiyut.com)-->
<?xml-stylesheet type="text/css" href="..\safety.css" ?>
<svg contentScriptType="text/ecmascript" width="100.0px" xmlns:xlink="http://www.w3.org/1999/xlink" baseProfile="full"
    zoomAndPan="magnify" contentStyleType="text/css" height="100.0px" preserveAspectRatio="xMidYMid meet" xmlns="http://www.w3.org/2000/svg"
    version="1.0">
    <path d="M 47.6 60.66 c 0.0 0.0 -0.01 25.09 -0.01 28.88 c 0.0 4.25 -4.61 5.83 -6.36 5.83 c -1.75 0.0 -5.33 -1.42 
        -5.72 -6.22 c 0.0 -1.22 -1.0 -2.21 -2.23 -2.21 c -1.23 0.0 -2.22 0.99 -2.22 2.21 C 31.22 92.77 33.68 99.63 41.23 
        99.63 c 8.43 0.0 10.97 -6.46 10.97 -10.8 V 60.74 L 47.6 60.66 L 47.6 60.66 z"/>
    <path d="M 50.13 59.12 c 2.2 -3.15 6.34 -5.21 10.5 -5.21 c 4.13 0.0 7.77 2.03 9.98 5.14 c 2.2 -3.14 5.75 -5.14 9.9 
        -5.14 c 4.15 0.0 7.81 2.05 10.02 5.19 c -1.75 -11.91 -16.57 -28.6 -40.16 -28.6 c -23.59 0.0 -38.41 16.69 -40.16 
        28.6 c 2.2 -3.14 5.87 -5.19 10.02 -5.19 c 4.15 0.0 7.69 2.0 9.9 5.14 c 2.21 -3.11 5.86 -5.14 9.98 -5.14 C 44.26 
        53.91 47.93 55.97 50.13 59.12"/>
    <path d="M 52.0 28.44 v -7.15 c 0.0 -1.25 -1.03 -2.27 -2.29 -2.27 c -1.27 0.0 -2.29 1.02 -2.29 2.27 v 7.15 H 52.0 L 
        52.0 28.44 z"/>
    <path d="M 28.42 14.0 c 0.02 0.7 -0.14 1.42 -0.52 2.07 c -1.08 1.85 -3.47 2.49 -5.34 1.42 c -1.87 -1.07 -2.51 -3.44 
        -1.43 -5.29 c 0.38 -0.65 0.91 -1.14 1.53 -1.47 l 5.76 -3.29 L 28.42 14.0 L 28.42 14.0 z"/>
    <path d="M 16.19 35.0 c 0.03 0.7 -0.14 1.42 -0.52 2.07 c -1.08 1.85 -3.47 2.49 -5.33 1.42 c -1.87 -1.07 -2.51 -3.44 
        -1.43 -5.29 c 0.38 -0.64 0.91 -1.14 1.53 -1.47 l 5.75 -3.29 L 16.19 35.0 L 16.19 35.0 z"/>
    <path d="M 38.69 25.47 c 0.02 0.7 -0.14 1.42 -0.52 2.07 c -1.08 1.85 -3.47 2.49 -5.34 1.42 c -1.87 -1.07 -2.51 -3.44 
        -1.43 -5.29 c 0.38 -0.65 0.92 -1.14 1.53 -1.47 l 5.76 -3.29 L 38.69 25.47 L 38.69 25.47 z"/>
    <path d="M 55.07 7.07 c 0.02 0.7 -0.14 1.42 -0.52 2.07 c -1.08 1.85 -3.47 2.49 -5.34 1.42 c -1.87 -1.07 -2.51 -3.44 
        -1.43 -5.29 c 0.38 -0.65 0.92 -1.14 1.53 -1.47 L 55.07 0.5 L 55.07 7.07 L 55.07 7.07 z"/>
    <path d="M 69.27 23.95 c 0.03 0.7 -0.14 1.42 -0.52 2.07 c -1.09 1.85 -3.47 2.49 -5.34 1.42 c -1.87 -1.07 -2.51 -3.44 
        -1.43 -5.29 c 0.38 -0.64 0.92 -1.14 1.53 -1.47 l 5.76 -3.29 V 23.95 L 69.27 23.95 z"/>
    <path d="M 84.12 11.18 c 0.03 0.7 -0.14 1.42 -0.52 2.07 c -1.08 1.85 -3.47 2.49 -5.34 1.42 c -1.87 -1.07 -2.51 -3.44 
        -1.43 -5.29 c 0.38 -0.65 0.91 -1.15 1.53 -1.47 l 5.76 -3.29 V 11.18 L 84.12 11.18 z"/>
    <path d="M 91.77 32.62 c 0.03 0.7 -0.14 1.41 -0.52 2.07 c -1.08 1.85 -3.47 2.49 -5.34 1.42 c -1.87 -1.07 -2.51 -3.44 
        -1.43 -5.29 c 0.38 -0.64 0.92 -1.14 1.54 -1.47 l 5.75 -3.29 L 91.77 32.62 L 91.77 32.62 z"/>
</svg>