<?xml version="1.0" standalone="no"?>
<!--Created with Sketsa SVG Editor (http://www.kiyut.com)-->
<?xml-stylesheet type="text/css" href="..\safety.css" ?>
<svg contentScriptType="text/ecmascript" width="100.0px" xmlns:xlink="http://www.w3.org/1999/xlink" baseProfile="full"
    zoomAndPan="magnify" contentStyleType="text/css" height="100.0px" preserveAspectRatio="xMidYMid meet" xmlns="http://www.w3.org/2000/svg"
    version="1.0">
    <path d="M 84.99 14.89 C 75.63 5.53 63.18 0.38 49.94 0.38 h -0.06 C 36.65 0.38 24.22 5.53 14.87 14.89 C 5.51 24.25 
        0.37 36.69 0.37 49.91 c -0.01 13.25 5.14 25.7 14.5 35.07 C 24.23 94.34 36.67 99.5 49.91 99.5 h 0.0 c 13.25 0.0 
        25.7 -5.16 35.07 -14.52 C 94.34 75.61 99.5 63.16 99.5 49.91 C 99.5 36.68 94.35 24.24 84.99 14.89 z M 49.94 11.43 
        c 21.23 0.0 38.51 17.26 38.51 38.48 c 0.0 8.4 -2.7 16.17 -7.28 22.51 l -53.73 -53.77 c 6.5 -4.69 14.27 -7.22 
        22.44 -7.22 H 49.94 z M 22.69 77.16 c -7.27 -7.28 -11.27 -16.96 -11.27 -27.26 c -0.01 -8.43 2.69 -16.46 7.68 
        -23.08 l 53.89 53.93 c -6.44 4.83 -14.43 7.7 -23.08 7.7 C 39.63 88.45 29.96 84.44 22.69 77.16 z"/>
</svg>