<?xml version="1.0" standalone="no"?>
<!--Created with Sketsa SVG Editor (http://www.kiyut.com)-->
<?xml-stylesheet type="text/css" href="..\safety.css" ?>
<svg contentScriptType="text/ecmascript" width="100.0px" xmlns:xlink="http://www.w3.org/1999/xlink" baseProfile="full"
    zoomAndPan="magnify" contentStyleType="text/css" height="100.0px" preserveAspectRatio="xMidYMid meet" xmlns="http://www.w3.org/2000/svg"
    version="1.0">
    <path d="M 67.93 65.06 l 4.69 4.79 c 6.38 -6.14 10.34 -14.86 10.34 -24.53 c 0.0 -9.52 -3.86 -18.12 -10.07 -24.25 l 
        -5.1 5.36 c 5.0 4.86 8.14 11.72 8.14 19.32 C 75.93 53.3 72.89 60.2 67.93 65.06 z" transform="matrix(1.0 0.0 0.0 1.0 -0.0 -3.81E-6)"/>
    <path d="M 56.49 53.35 l 5.79 5.92 c 3.55 -3.37 5.79 -8.18 5.79 -13.54 c 0.0 -5.43 -2.3 -10.3 -5.93 -13.68 l -5.79 
        6.06 c 2.06 1.86 3.45 4.56 3.45 7.61 C 59.8 48.76 58.5 51.49 56.49 53.35 z" transform="matrix(1.0 0.0 0.0 1.0 -0.0 -3.81E-6)"/>
    <path d="M 20.36 16.83 l -5.93 -6.06 C 5.83 19.85 0.5 32.13 0.5 45.74 c 0.0 13.58 5.23 25.9 13.79 34.97 l 6.07 -6.2 
        C 13.34 66.98 9.05 56.78 9.05 45.6 C 9.05 34.41 13.34 24.32 20.36 16.83 z" transform="matrix(1.0 0.0 0.0 1.0 -0.0 -3.81E-6)"/>
    <path d="M 78.28 75.63 l 6.07 6.2 C 93.57 72.66 99.38 59.93 99.38 45.74 C 99.38 31.48 93.51 18.69 84.21 9.5 L 78.28 
        15.56 c 7.71 7.59 12.55 18.2 12.55 30.03 C 90.82 57.4 85.95 68.01 78.28 75.63 z" transform="matrix(1.0 0.0 0.0 1.0 -0.0 -3.81E-6)"/>
    <path d="M 25.87 22.47 c -5.44 6.01 -8.83 14.01 -8.83 22.84 c 0.0 9.02 3.46 17.22 9.1 23.27 l 4.69 -4.8 c -4.25 
        -4.75 -6.9 -11.08 -6.9 -18.05 c 0.0 -7.0 2.6 -13.42 6.9 -18.19 L 25.87 22.47 z" transform="matrix(1.0 0.0 0.0 1.0 -0.0 -3.81E-6)"/>
    <path d="M 42.28 52.08 c -1.38 -1.75 -2.2 -3.93 -2.2 -6.35 c 0.0 -2.48 0.89 -4.72 2.34 -6.49 l -5.79 -5.78 c -2.9 
        3.27 -4.83 7.51 -4.83 12.26 c 0.0 4.72 1.82 9.01 4.69 12.27 L 42.28 52.08 z" transform="matrix(1.0 0.0 0.0 1.0 -0.0 -3.81E-6)"/>
    <path d="M 45.82 45.74 c 0.0 2.32 1.84 4.21 4.11 4.21 c 2.27 0.0 4.11 -1.88 4.11 -4.21 c 0.0 -2.32 -1.84 -4.2 -4.11 
        -4.2 C 47.67 41.53 45.82 43.42 45.82 45.74 z" transform="matrix(1.0 0.0 0.0 1.0 -0.0 -3.81E-6)"/>
    <path d="M 45.3 55.73 L 34.61 92.92 h 29.95 L 53.86 55.73 C 51.03 56.37 48.18 56.6 45.3 55.73 z" transform="matrix(1.0 0.0 0.0 1.0 -0.0 -3.81E-6)"/>
</svg>