<?xml version="1.0" standalone="no"?>
<!--Created with Sketsa SVG Editor (http://www.kiyut.com)-->
<?xml-stylesheet type="text/css" href="..\safety.css" ?>
<svg contentScriptType="text/ecmascript" width="100.0px" xmlns:xlink="http://www.w3.org/1999/xlink" baseProfile="full"
    zoomAndPan="magnify" contentStyleType="text/css" height="100.0px" preserveAspectRatio="xMidYMid meet" xmlns="http://www.w3.org/2000/svg"
    version="1.0">
    <path d="M 53.43 15.56 c 4.09 0.32 7.67 -2.73 7.99 -6.77 c 0.32 -4.07 -2.72 -7.62 -6.81 -7.94 c -4.1 -0.32 -7.67 2.7 
        -7.99 6.77 S 49.35 15.25 53.43 15.56 z"/>
    <path d="M 47.15 18.59 c 1.46 -1.0 3.26 -1.68 5.2 -1.54 c 2.55 0.22 4.66 1.78 5.91 3.7 l 7.49 14.76 l 10.21 6.99 c 
        0.88 0.66 1.4 1.75 1.32 2.92 c -0.15 1.83 -1.76 3.19 -3.62 3.04 c -0.54 -0.02 -0.98 -0.24 -1.52 -0.49 l -11.14 
        -7.62 c -0.34 -0.29 -0.61 -0.61 -0.83 -1.0 l -2.82 -5.53 L 54.01 48.57 L 67.17 64.04 c 0.29 0.49 0.49 1.02 0.61 
        1.58 l 3.55 18.68 c -0.02 0.41 0.05 0.68 0.02 1.02 c -0.22 2.75 -2.64 4.8 -5.41 4.58 c -2.28 -0.17 -3.99 -1.88 
        -4.53 -3.95 l -3.35 -17.52 L 47.38 56.81 L 44.89 68.16 c -0.07 0.54 -0.78 1.66 -1.0 2.12 L 33.64 87.47 c -1.04 
        1.58 -2.74 2.58 -4.71 2.44 c -2.77 -0.22 -4.83 -2.63 -4.61 -5.38 c 0.06 -0.78 0.39 -1.58 0.67 -2.14 l 9.55 
        -15.93 l 7.93 -35.08 l -5.19 4.19 L 34.53 48.06 c -0.37 1.58 -1.84 2.9 -3.57 2.75 c -1.84 -0.15 -3.22 -1.73 
        -3.08 -3.58 c 0.02 -0.15 0.05 -0.29 0.07 -0.44 l 3.28 -14.57 c 0.17 -0.66 0.54 -1.19 1.03 -1.61 L 47.15 18.59 z"/>
    <rect x="0.5" width="7.64" height="6.04" y="71.1"/>
    <rect x="15.58" width="7.64" y="71.1" height="6.04"/>
    <rect x="45.94" width="7.64" y="71.1" height="6.04"/>
    <rect x="76.5" width="7.64" y="71.1" height="6.04"/>
    <rect x="91.58" width="7.64" y="71.1" height="6.04"/>
    <rect x="0.5" width="7.64" height="6.04" y="93.13"/>
    <rect x="15.58" width="7.64" y="93.13" height="6.04"/>
    <rect x="30.86" width="7.64" y="93.13" height="6.04"/>
    <rect x="61.42" width="7.64" y="93.13" height="6.04"/>
    <rect x="45.94" width="7.64" y="93.13" height="6.04"/>
    <rect x="76.5" width="7.64" y="93.13" height="6.04"/>
    <rect x="91.58" width="7.64" y="93.13" height="6.04"/>
</svg>