<?xml version="1.0" standalone="no"?>
<!--Created with Sketsa SVG Editor (http://www.kiyut.com)-->
<?xml-stylesheet type="text/css" href="..\safety.css" ?>
<svg contentScriptType="text/ecmascript" width="100.0px" xmlns:xlink="http://www.w3.org/1999/xlink" baseProfile="full"
    zoomAndPan="magnify" contentStyleType="text/css" height="100.0px" preserveAspectRatio="xMidYMid meet" xmlns="http://www.w3.org/2000/svg"
    version="1.0">
    <path d="M 74.69 89.71 l -16.41 -28.37 c -3.02 2.0 -8.69 2.13 -8.69 2.13 s -5.74 -0.13 -8.75 -2.13 l -16.46 28.37 c 
        0.0 0.0 9.67 7.53 25.43 7.53 C 65.5 97.24 74.69 89.71 74.69 89.71 L 74.69 89.71 L 74.69 89.71 z"/>
    <path d="M 49.88 56.6 c 5.38 0.0 9.67 -4.41 9.67 -9.79 c 0.0 -5.42 -4.3 -9.83 -9.67 -9.83 s -9.72 4.41 -9.72 9.83 C 
        40.16 52.19 44.5 56.6 49.88 56.6 L 49.88 56.6 L 49.88 56.6 z"/>
    <path d="M 74.36 3.7 L 58.19 32.24 c 3.21 1.62 6.12 6.49 6.12 6.49 s 2.8 5.2 2.56 8.87 l 32.63 -0.03 c 0.0 0.0 1.65 
        -12.12 -6.2 -25.88 C 85.39 7.95 74.36 3.7 74.36 3.7 L 74.36 3.7 L 74.36 3.7 z"/>
    <path d="M 0.55 46.97 h 32.66 c -0.25 -3.67 2.49 -8.74 2.49 -8.74 s 2.97 -4.95 6.24 -6.59 L 25.73 3.13 c 0.0 0.0 
        -11.3 4.66 -19.18 18.4 C -1.3 35.23 0.55 46.97 0.55 46.97 L 0.55 46.97 L 0.55 46.97 z"/>
</svg>