<?xml version="1.0" standalone="no"?>
<!--Created with Sketsa SVG Editor (http://www.kiyut.com)-->
<?xml-stylesheet type="text/css" href="..\safety.css" ?>
<svg contentScriptType="text/ecmascript" width="100.0px" xmlns:xlink="http://www.w3.org/1999/xlink" baseProfile="full"
    zoomAndPan="magnify" contentStyleType="text/css" height="100.0px" preserveAspectRatio="xMidYMid meet" xmlns="http://www.w3.org/2000/svg"
    version="1.0">
    <path d="M 87.14 11.75 c 2.54 -2.52 2.54 -6.73 0.0 -9.25 c -2.54 -2.52 -6.79 -2.52 -9.34 0.0 C 70.49 9.75 63.18 
        16.99 55.87 24.22 c -0.02 0.02 -0.04 0.05 -0.06 0.07 c 1.2 -1.81 1.9 -3.98 1.9 -6.3 c 0.0 -6.35 -5.2 -11.5 
        -11.62 -11.5 c -6.42 0.0 -11.62 5.15 -11.62 11.5 c 0.0 3.86 1.92 7.27 4.87 9.36 c -1.34 0.21 -2.62 0.8 -3.63 1.8 
        C 28.41 36.39 21.09 43.63 13.78 50.87 c -2.54 2.52 -2.54 6.73 0.0 9.25 c 2.54 2.52 6.8 2.52 9.34 0.0 c 4.21 
        -4.17 8.41 -8.33 12.62 -12.5 c 0.0 3.3 0.0 6.6 0.0 9.9 c 0.0 2.1 0.53 4.1 1.45 5.88 c 0.32 0.86 0.81 1.67 1.5 
        2.36 c 0.14 0.14 0.29 0.28 0.43 0.43 c 0.34 0.38 0.7 0.73 1.08 1.07 c 10.06 9.96 20.12 19.92 30.18 29.88 c 0.21 
        0.21 0.42 0.41 0.62 0.62 c 2.54 2.52 6.79 2.52 9.34 0.0 c 2.55 -2.52 2.55 -6.73 0.0 -9.25 c -7.35 -7.27 -14.69 
        -14.55 -22.04 -21.82 l 0.0 0.0 l -0.25 -0.25 l 2.11 -2.1 l 0.0 0.0 c 3.7 -3.66 7.4 -7.32 11.09 -10.98 c 0.47 
        6.91 0.95 13.81 1.42 20.72 c 0.24 3.55 2.82 6.54 6.6 6.54 c 3.42 0.0 6.85 -2.98 6.6 -6.54 c -0.81 -11.83 -1.62 
        -23.67 -2.43 -35.5 c -0.01 -0.14 -0.03 -0.28 -0.05 -0.41 c -0.09 -1.54 -0.72 -3.05 -1.89 -4.21 c -0.4 -0.4 -0.85 
        -0.73 -1.33 -1.0 c -0.95 -0.58 -2.08 -0.91 -3.34 -0.91 c -0.61 0.0 -1.22 0.1 -1.81 0.27 c -1.05 0.29 -2.04 0.83 
        -2.86 1.64 c -3.34 3.31 -6.69 6.62 -10.03 9.93 c 0.0 -1.77 0.0 -3.54 0.0 -5.31 c 0.0 -1.14 -0.16 -2.25 -0.44 
        -3.31 c 1.29 -0.22 2.52 -0.82 3.5 -1.78 C 72.52 26.23 79.83 18.99 87.14 11.75 z"/>
</svg>