<?xml version="1.0" standalone="no"?>
<!--Created with Sketsa SVG Editor (http://www.kiyut.com)-->
<?xml-stylesheet type="text/css" href="..\safety.css" ?>
<svg contentScriptType="text/ecmascript" width="100.0px" xmlns:xlink="http://www.w3.org/1999/xlink" baseProfile="full"
    zoomAndPan="magnify" contentStyleType="text/css" height="100.0px" preserveAspectRatio="xMidYMid meet" xmlns="http://www.w3.org/2000/svg"
    version="1.0">
    <path d="M 93.67 89.87 c 1.92 0.0 3.34 0.48 4.26 1.43 c 0.92 0.96 1.38 2.03 1.38 3.19 c 0.0 1.17 -0.46 2.25 -1.38 
        3.25 c -0.92 1.01 -2.34 1.5 -4.26 1.5 H 6.28 c -1.84 0.0 -3.24 -0.5 -4.2 -1.5 c -0.96 -1.0 -1.44 -2.08 -1.44 
        -3.25 c 0.0 -1.17 0.48 -2.23 1.44 -3.19 c 0.96 -0.96 2.36 -1.43 4.2 -1.43 H 93.67 L 93.67 89.87 z"/>
    <path d="M 29.28 16.32 v 58.4 c 0.0 1.93 -0.48 3.35 -1.43 4.27 c -0.96 0.92 -2.02 1.38 -3.18 1.38 c -1.17 0.0 -2.25 
        -0.46 -3.25 -1.38 c -1.0 -0.92 -1.5 -2.35 -1.5 -4.27 V 16.32 L 9.77 26.24 c -0.67 0.75 -1.38 1.28 -2.13 1.57 c 
        -0.76 0.29 -1.46 0.44 -2.13 0.44 c -1.34 0.0 -2.44 -0.44 -3.32 -1.32 c -0.88 -0.88 -1.32 -2.03 -1.32 -3.46 c 
        5.96E-8 -0.59 0.15 -1.23 0.44 -1.95 c 0.29 -0.71 0.82 -1.4 1.57 -2.07 L 19.92 2.25 c 0.66 -0.75 1.39 -1.21 2.18 
        -1.38 c 0.79 -0.17 1.64 -0.25 2.56 -0.25 c 0.83 0.0 1.62 0.08 2.37 0.25 c 0.75 0.17 1.5 0.63 2.25 1.38 l 17.17 
        17.21 c 0.67 0.67 1.13 1.36 1.38 2.07 c 0.25 0.71 0.38 1.36 0.38 1.95 c 0.0 1.42 -0.4 2.57 -1.19 3.46 c -0.8 
        0.88 -1.9 1.32 -3.32 1.32 c -0.67 0.0 -1.38 -0.15 -2.13 -0.44 c -0.75 -0.29 -1.5 -0.82 -2.26 -1.57 L 29.28 16.32 
        L 29.28 16.32 z"/>
    <path d="M 80.1 16.32 v 58.4 c 0.0 1.93 -0.51 3.35 -1.54 4.27 c -1.03 0.92 -2.04 1.38 -3.02 1.38 c -1.16 0.0 -2.24 
        -0.46 -3.26 -1.38 c -1.03 -0.92 -1.54 -2.35 -1.54 -4.27 V 16.32 L 60.58 26.24 c -1.34 1.34 -2.8 2.01 -4.39 2.01 
        c -1.33 0.0 -2.4 -0.44 -3.2 -1.32 c -0.8 -0.88 -1.19 -2.03 -1.19 -3.46 c 0.0 -0.59 0.13 -1.23 0.38 -1.95 c 0.25 
        -0.71 0.71 -1.4 1.38 -2.07 L 70.74 2.25 c 1.15 -1.01 2.79 -1.51 4.93 -1.51 c 1.8 -5.96E-8 3.28 0.5 4.43 1.51 l 
        17.18 17.21 c 1.17 1.34 1.75 2.68 1.75 4.02 c 0.0 1.42 -0.4 2.57 -1.19 3.46 c -0.79 0.88 -1.9 1.32 -3.32 1.32 c 
        -1.59 0.0 -3.05 -0.67 -4.39 -2.01 L 80.1 16.32 L 80.1 16.32 z"/>
</svg>