<?xml version="1.0" standalone="no"?>
<!--Created with Sketsa SVG Editor (http://www.kiyut.com)-->
<?xml-stylesheet type="text/css" href="..\thermionic_devices.css" ?>
<svg contentScriptType="text/ecmascript" width="100.0px" xmlns:xlink="http://www.w3.org/1999/xlink" baseProfile="full"
    zoomAndPan="magnify" contentStyleType="text/css" height="100.0px" preserveAspectRatio="xMidYMid meet" xmlns="http://www.w3.org/2000/svg"
    version="1.0">
    <rect rx="15" ry="15" x="15" width="70" height="70" y="15"/>
    <line y2="25" x1="35" x2="35" y1="15"/>
    <line y2="25" stroke-width="2" x1="25" x2="45" y1="25"/>
    <line y2="70" stroke-width="3" x1="25" x2="75" y1="70"/>
    <line y2="84" x1="25.5" x2="25.5" y1="70"/>
    <path fill="none" d="M 45.0 84.5 L 45.0 80.0 A 5.0 5.0 0.0 0 1 55.0 80.0 A 45.0 50.0 0.0 0 1 55.0 84.5"/>
    <line y2="25" x1="65" x2="65" y1="15"/>
    <line y2="25" stroke-width="2" x1="55" x2="75" y1="25"/>
    <line y2="50" x1="15" x2="25" y1="50"/>
    <line y2="50" x1="35" x2="45" y1="50"/>
    <line y2="50" x1="55" x2="65" y1="50"/>
    <line y2="50" x1="75" x2="85" y1="50"/>
</svg>