<?xml version="1.0" standalone="no"?>
<!--Created with Sketsa SVG Editor (http://www.kiyut.com)-->
<?xml-stylesheet type="text/css" href="..\radio.css" ?>
<svg contentScriptType="text/ecmascript" width="100.0px" xmlns:xlink="http://www.w3.org/1999/xlink" baseProfile="full"
    zoomAndPan="magnify" contentStyleType="text/css" height="100.0px" preserveAspectRatio="xMidYMid meet" xmlns="http://www.w3.org/2000/svg"
    version="1.0">
    <rect width="100" height="20" y="60" stroke="none"/>
    <line y2="60" stroke-width="2" x2="100" y1="60"/>
    <line y2="60" x2="5" y1="65"/>
    <line y2="60" x2="10" y1="70"/>
    <line y2="60" x2="15" y1="75"/>
    <line y2="60" x2="20" y1="80"/>
    <line y2="60" x1="5" x2="25" y1="80"/>
    <line y2="60" x1="10" x2="30" y1="80"/>
    <line y2="60" x1="15" x2="35" y1="80"/>
    <line y2="60.0" x1="20" x2="40" y1="80.0"/>
    <line y2="60" x1="25" x2="45" y1="80"/>
    <line y2="60" x1="30" x2="50" y1="80"/>
    <line y2="60" x1="35" x2="55" y1="80"/>
    <line y2="60" x1="40" x2="60" y1="80"/>
    <line y2="60" x1="45" x2="65" y1="80"/>
    <line y2="60" x1="50" x2="70" y1="80"/>
    <line y2="60" x1="55" x2="75" y1="80"/>
    <line y2="60" x1="60" x2="80" y1="80"/>
    <line y2="60" x1="65" x2="85" y1="80"/>
    <line y2="60" x1="70" x2="90" y1="80"/>
    <line y2="60" x1="75" x2="95" y1="80"/>
    <line y2="60" x1="80" x2="100" y1="80"/>
    <line y2="65" x1="85" x2="100" y1="80"/>
    <line y2="70" x1="90" x2="100" y1="80"/>
    <line y2="75" x1="95" x2="100" y1="80"/>
    <line y2="60" stroke-width="2" x1="50" x2="50" y1="40"/>
</svg>