<?xml version="1.0" standalone="no"?>
<!DOCTYPE svg PUBLIC "-//W3C//DTD SVG 1.1//EN"
    "http://www.w3.org/Graphics/SVG/1.1/DTD/svg11.dtd">
<?xml-stylesheet type="text/css" href="..\compute.css" ?>
<!-- Generator: Adobe Illustrator 14.0.0, SVG Export Plug-In . SVG Version: 6.00 Build 43363)  -->
<svg contentScriptType="text/ecmascript" zoomAndPan="magnify" xmlns:xlink="http://www.w3.org/1999/xlink" baseProfile="full"
    contentStyleType="text/css" id="Layer_1" enable-background="new 0 0 70 70" version="1.1" width="70px" xml:space="preserve"
    preserveAspectRatio="xMidYMid meet" viewBox="0 0 70 70" height="70px" xmlns="http://www.w3.org/2000/svg" x="0px" y="0px">      
    <g>           
        <path d="M30.879,61.843c0,1.657,1.345,3.002,3.002,3.002h27.436c1.658,0,3.002-1.345,3.002-3.002V33.738 
            c0-1.658-1.344-3.002-3.002-3.002H33.881c-1.657,0-3.002,1.344-3.002,3.002V61.843z"/>           
        <path d="M28.232,31.124c0-1.658,1.345-3.002,3.002-3.002h20.566v-7.145c0-1.658-1.344-3.002-3.001-3.002H21.365 
            c-1.658,0-3.002,1.344-3.002,3.002v28.104c0,1.658,1.344,3.002,3.002,3.002h6.867V31.124z"/>           
        <path d="M15.87,18.427c0-1.658,1.344-3.002,3.002-3.002h20.566V8.28c0-1.658-1.345-3.002-3.002-3.002H9.002 
            C7.344,5.278,6,6.622,6,8.28v28.105c0,1.657,1.344,3.002,3.002,3.002h6.868V18.427z"/> </g> </svg>