<?xml version="1.0" standalone="no"?>
<!DOCTYPE svg PUBLIC "-//W3C//DTD SVG 1.1//EN"
    "http://www.w3.org/Graphics/SVG/1.1/DTD/svg11.dtd">
<?xml-stylesheet type="text/css" href="..\compute.css" ?>
<!-- Generator: Adobe Illustrator 14.0.0, SVG Export Plug-In . SVG Version: 6.00 Build 43363)  -->
<svg contentScriptType="text/ecmascript" zoomAndPan="magnify" xmlns:xlink="http://www.w3.org/1999/xlink" baseProfile="full"
    contentStyleType="text/css" id="Layer_1" enable-background="new 0 0 70 70" version="1.1" width="70px" xml:space="preserve"
    preserveAspectRatio="xMidYMid meet" viewBox="0 0 70 70" height="70px" xmlns="http://www.w3.org/2000/svg" x="0px" y="0px">                              
    <path d="M57.183,6.594H11.486c-2.762,0-5,2.239-5,5v46.813c0,2.761,2.238,5,5,5h45.696c2.762,0,5-2.239,5-5V11.594 
        C62.183,8.833,59.944,6.594,57.183,6.594z M51.96,51.417H16.711V36.792H51.96V51.417z 
        M51.96,32.75H16.711V18.125H51.96V32.75z"/>     
    <rect x="30.211" width="8.499" y="39.292" height="9.625"/>                                           
    <rect x="19.211" width="8.5" y="39.292" height="9.625"/>                                           
    <rect x="41.21" width="8.25" y="39.292" height="9.625"/>                                           
    <rect x="41.21" width="8.25" y="20.625" height="9.625"/>                                           
    <rect x="30.211" width="8.499" y="20.625" height="9.625"/>                                           
    <rect x="19.211" width="8.5" y="20.625" height="9.625"/>                                           </svg>