<?xml version="1.0" standalone="no"?>
<!DOCTYPE svg PUBLIC "-//W3C//DTD SVG 1.1//EN"
    "http://www.w3.org/Graphics/SVG/1.1/DTD/svg11.dtd">
<?xml-stylesheet type="text/css" href="..\compute.css" ?>
<!-- Generator: Adobe Illustrator 14.0.0, SVG Export Plug-In . SVG Version: 6.00 Build 43363)  -->
<svg contentScriptType="text/ecmascript" zoomAndPan="magnify" xmlns:xlink="http://www.w3.org/1999/xlink" baseProfile="full"
    contentStyleType="text/css" id="Layer_1" enable-background="new 0 0 70 70" version="1.1" width="70px" xml:space="preserve"
    preserveAspectRatio="xMidYMid meet" viewBox="0 0 70 70" height="70px" xmlns="http://www.w3.org/2000/svg" x="0px" y="0px">      
    <g>           
        <path d="M62.611,30C63.716,30,65,29.215,65,28.111v-7.722C65,19.284,63.716,18,62.611,18H54.89 
            c-0.635,0-1.239,0.495-1.604,0.956L49,16.122V9.304C49,8.2,48.194,7,47.091,7h-7.722C38.265,7,37,8.2,37,9.304v7.722 
            c0,0.381,0.297,0.733,0.481,1.036L21.582,36.438L22.384,37h0.023l-0.897,0.781L37,54.317v6.378C37,61.801,38.265,63,39.369,63 
            h7.722C48.194,63,49,61.801,49,60.695v-6.973l4.684-3.937C54.012,50.021,54.456,50,54.89,50h7.722C63.716,50,65,49.428,65,48.324 
            v-7.723C65,39.498,63.716,39,62.611,39H60v-9H62.611z M39.477,19h5.534l3.805,7.713l-23.145,8.236L39.477,19z 
            M53,25.276 l-2.232,0.775l-3.506-7.039c0.574-0.042,1.119-0.322,1.457-0.747L53,21.293V25.276z 
            M37.746,51.826L25.35,38.805l22.899,4.669 L44.575,51h-5.206C38.698,51,38.108,51.32,37.746,51.826z 
            M47.091,51h-0.289l3.526-7.118L53,44.401v3.653l-4.41,3.556 C48.227,51.228,47.66,51,47.091,51z 
            M53,40.602v1.759l-1.764-0.348l2.553-5.279l0.974,1.887C53.751,38.721,53,39.565,53,40.602z 
            M49.156,41.602l-23.005-4.68l23.557-8.39l2.935,5.938L49.156,41.602z M51.66,27.856L53,27.398v0.712 
            c0,1.066,0.781,1.93,1.834,1.989L53.807,32.2L51.66,27.856z M58,39h-1.085l-2.044-4.392L56.999,30H58V39z"/>           
        <path d="M21.486,31.067v-0.002c-0.235,0.039-0.469,0.068-0.703,0.1c-0.146,0.02-0.289,0.041-0.439,0.058 
            c-0.22,0.025-0.442,0.044-0.666,0.063c-0.164,0.015-0.329,0.029-0.497,0.041c-0.291,0.02-0.584,0.036-0.883,0.048 
            c-0.065,0.002-0.132,0.004-0.197,0.007c-0.348,0.012-0.702,0.02-1.07,0.023c-0.077,0-0.153,0.002-0.23,0.002 
            c-3.581,0-7.183-0.567-8.936-1.66v14.396c0.099,0.332,0.951,0.767,2.146,1.157c1.608,0.474,4.091,0.867,7.37,0.867 
            c6.01,0,8.504-1.359,8.504-2.086l0.012-14.463C24.961,30.227,23.445,30.746,21.486,31.067z"/>           
        <path d="M16.8,25.833c-5.789,0-8.947,1.385-8.947,2.096c0,0.712,3.158,2.097,8.947,2.097 
            c1.839,0,3.411-0.141,4.702-0.354c2.771-0.459,4.243-1.257,4.243-1.743c0-0.485-1.472-1.283-4.243-1.742 
            C20.211,25.974,18.639,25.833,16.8,25.833z"/> </g> </svg>