<?xml version="1.0" standalone="no"?>
<!DOCTYPE svg PUBLIC "-//W3C//DTD SVG 1.1//EN"
    "http://www.w3.org/Graphics/SVG/1.1/DTD/svg11.dtd">
<?xml-stylesheet type="text/css" href="..\compute.css" ?>
<!-- Generator: Adobe Illustrator 14.0.0, SVG Export Plug-In . SVG Version: 6.00 Build 43363)  -->
<svg contentScriptType="text/ecmascript" zoomAndPan="magnify" xmlns:xlink="http://www.w3.org/1999/xlink" baseProfile="full"
    contentStyleType="text/css" id="Layer_1" enable-background="new 0 0 70 70" version="1.1" width="70px" xml:space="preserve"
    preserveAspectRatio="xMidYMid meet" viewBox="0 0 70 70" height="70px" xmlns="http://www.w3.org/2000/svg" x="0px" y="0px">      
    <path d="M58.797,30C59.9,30,61,29.215,61,28.111v-7.722C61,19.284,59.9,18,58.797,18h-7.723 
        c-0.635,0-1.331,0.495-1.697,0.956L45,16.122V9.304C45,8.2,44.379,7,43.275,7h-7.721C34.449,7,34,8.2,34,9.304v7.722 
        c0,0.38-0.11,0.732,0.074,1.035l-6.684,7.775C27.316,25.831,27.136,26,27.061,26H12.203C10.547,26,9,26.972,9,28.629v14.859 
        C9,45.146,10.547,46,12.203,46h13.894L34,54.318v6.377C34,61.801,34.449,63,35.555,63h7.721C44.379,63,45,61.801,45,60.695v-6.973 
        l4.776-3.937C50.104,50.021,50.641,50,51.074,50h7.723C59.9,50,61,49.428,61,48.324v-7.723C61,39.498,59.9,39,58.797,39H56v-9 
        H58.797z M35.661,19h5.534l3.774,7.713L30,32.047v-3.417c0-0.829-0.306-1.591-0.849-2.134L35.661,19z 
        M49,25.276l-2.14,0.775 l-3.46-7.039c0.574-0.042,1.049-0.322,1.387-0.747L49,21.293V25.276z 
        M30,43.488v-2.956l14.403,2.938L40.76,51h-5.205 
        c-0.671,0-1.261,0.32-1.624,0.826l-5.465-5.712C29.394,45.604,30,44.623,30,43.488z 
        M43.275,51h-0.289l3.435-7.118L49,44.401v3.654 l-4.316,3.556C44.319,51.228,43.845,51,43.275,51z 
        M49,40.602v1.759l-1.672-0.348l2.6-5.279l0.904,1.887 C49.82,38.721,49,39.565,49,40.602z 
        M45.311,41.602L30,38.493V34.17l15.862-5.638l2.935,5.938L45.311,41.602z M47.753,27.856 
        L49,27.399v0.712c0,1.066,0.873,1.93,1.926,1.989L49.899,32.2L47.753,27.856z 
        M54,39h-0.9l-2.044-4.392L53.184,30H54V39z"/> </svg>