<?xml version="1.0" standalone="no"?>
<!DOCTYPE svg PUBLIC "-//W3C//DTD SVG 1.1//EN"
    "http://www.w3.org/Graphics/SVG/1.1/DTD/svg11.dtd">
<?xml-stylesheet type="text/css" href="..\on_demand_workforce.css" ?>
<!-- Generator: Adobe Illustrator 14.0.0, SVG Export Plug-In . SVG Version: 6.00 Build 43363)  -->
<svg contentScriptType="text/ecmascript" zoomAndPan="magnify" xmlns:xlink="http://www.w3.org/1999/xlink" baseProfile="full"
    contentStyleType="text/css" id="Layer_1" enable-background="new 0 0 70 70" version="1.1" width="70px" xml:space="preserve"
    preserveAspectRatio="xMidYMid meet" viewBox="0 0 70 70" height="70px" xmlns="http://www.w3.org/2000/svg" x="0px" y="0px">      
    <g>           
        <path d="M65,40V30h-5.006c-0.648-3-2.01-6.651-3.938-9.519l3.244-3.166l-7.049-7.01l-3.393,3.264 
            C45.981,11.635,43,10.292,39,9.646V5H29v4.771c-3,0.671-6.021,1.94-8.666,3.68l-3.023-3.106l-7.008,7.048l3.057,2.879 
            C11.355,23.19,9.961,27,9.297,30H5v10h4.407c0.688,4,2.007,6.516,3.827,9.223l-3.245,3.315l7.048,7.084l3.08-3.228 
            C22.815,58.208,26,59.541,29,60.23V65h10v-4.644c4-0.662,7.143-2.079,10.07-4.089l3.463,3.389l7.085-7.048l-3.441-3.601 
            C57.924,46.353,59.214,43,59.883,40H65z 
            M34.646,53.581c-10.099,0-18.285-8.187-18.285-18.284s8.187-18.284,18.285-18.284 
            S52.93,25.199,52.93,35.297S44.744,53.581,34.646,53.581z"/> </g> </svg>