<?xml version="1.0" standalone="no"?>
<!DOCTYPE svg PUBLIC "-//W3C//DTD SVG 1.1//EN"
    "http://www.w3.org/Graphics/SVG/1.1/DTD/svg11.dtd">
<?xml-stylesheet type="text/css" href="..\on_demand_workforce.css" ?>
<!-- Generator: Adobe Illustrator 14.0.0, SVG Export Plug-In . SVG Version: 6.00 Build 43363)  -->
<svg contentScriptType="text/ecmascript" zoomAndPan="magnify" xmlns:xlink="http://www.w3.org/1999/xlink" baseProfile="full"
    contentStyleType="text/css" id="Layer_1" enable-background="new 0 0 70 70" version="1.1" width="70px" xml:space="preserve"
    preserveAspectRatio="xMidYMid meet" viewBox="0 0 70 70" height="70px" xmlns="http://www.w3.org/2000/svg" x="0px" y="0px">      
    <g>           
        <path d="M52.393,8.122H17.608c-1.657,0-3,1.343-3,3v47.756c0,1.657,1.343,3,3,3h34.784c1.657,0,3-1.343,3-3V11.122 
            C55.393,9.465,54.05,8.122,52.393,8.122z M42.109,15.737h8.242v3.339h-8.242V15.737z 
            M30.817,15.737h8.242v3.339h-8.242V15.737z M19.525,15.737h8.242v3.339h-8.242V15.737z 
            M19.525,21.489h8.242v3.339h-8.242V21.489z M19.578,27.24h8.242v3.339h-8.242V27.24z 
            M27.838,32.991v3.34h-8.242v-3.34H27.838z M19.596,38.743h8.242v3.339h-8.242V38.743z 
            M27.891,47.834h-8.242v-3.339h8.242V47.834z M30.817,21.489h8.242v3.339h-8.242V21.489z 
            M30.87,27.24h8.242v3.339H30.87V27.24z M39.13,32.991v3.34h-8.242v-3.34H39.13z 
            M30.888,38.743h8.242v3.339h-8.242V38.743z M39.183,47.834H30.94v-3.339h8.242V47.834z 
            M42.109,21.489h8.242v3.339h-8.242V21.489z M42.162,27.24h8.242v3.339h-8.242V27.24z 
            M50.422,32.991v3.34H42.18v-3.34H50.422z M42.18,38.743h8.242v3.339H42.18V38.743z 
            M50.475,47.834h-8.242v-3.339h8.242V47.834z"/> </g> </svg>