<?xml version="1.0" standalone="no"?>
<!DOCTYPE svg PUBLIC "-//W3C//DTD SVG 1.1//EN"
    "http://www.w3.org/Graphics/SVG/1.1/DTD/svg11.dtd">
<?xml-stylesheet type="text/css" href="..\on_demand_workforce.css" ?>
<!-- Generator: Adobe Illustrator 14.0.0, SVG Export Plug-In . SVG Version: 6.00 Build 43363)  -->
<svg contentScriptType="text/ecmascript" zoomAndPan="magnify" xmlns:xlink="http://www.w3.org/1999/xlink" baseProfile="full"
    contentStyleType="text/css" id="Layer_1" enable-background="new 0 0 70 70" version="1.1" width="70px" xml:space="preserve"
    preserveAspectRatio="xMidYMid meet" viewBox="0 0 70 70" height="70px" xmlns="http://www.w3.org/2000/svg" x="0px" y="0px">      
    <g>           
        <path d="M2.61,42.272v1.116c0,5.552,6.002,11.169,13.4,11.169h39.463c7.398,0,13.4-5.617,13.4-11.169v-1.116 
            c0-5.164-5.195-11.646-11.873-12.216c-0.149-4.613-3.928-8.31-8.576-8.31c-1.805,0-3.478,0.56-4.859,1.511 
            C40.915,17.355,35,13.236,28.111,13.236c-9.356,0-16.938,7.582-16.938,16.939c0,0.165,0.02,0.326,0.024,0.492 
            C6.179,32.119,2.61,37.996,2.61,42.272z 
            M23.816,36.034h1.957c0.259-1.408,0.797-2.717,1.566-3.861l-1.295-1.295l2.813-2.813 
            l1.295,1.295c1.148-0.771,2.462-1.31,3.875-1.568v-1.813h3.978v1.858c1.278,0.268,2.466,0.775,3.522,1.47l1.24-1.242l2.813,2.813 
            l-1.213,1.212c0.8,1.165,1.36,2.503,1.626,3.945h1.674v3.976h-1.714c-0.274,1.319-0.801,2.545-1.527,3.625l1.296,1.295 
            l-2.813,2.813l-1.296-1.295c-1.077,0.723-2.297,1.247-3.608,1.522v1.858h-3.979v-1.813c-1.447-0.265-2.789-0.826-3.957-1.627 
            l-1.354,1.354l-2.813-2.813l1.385-1.383c-0.697-1.06-1.207-2.253-1.475-3.537h-1.996V36.034z"/>           
        <circle cx="35.742" r="5.452" cy="37.903"/> </g> </svg>