<?xml version="1.0" standalone="no"?>
<!--Created with Sketsa SVG Editor (http://www.kiyut.com)-->
<?xml-stylesheet type="text/css" href="..\iec417.css" ?>
<svg contentScriptType="text/ecmascript" width="100.0px" xmlns:xlink="http://www.w3.org/1999/xlink" baseProfile="full"
    zoomAndPan="magnify" contentStyleType="text/css" height="100.0px" preserveAspectRatio="xMidYMid meet" xmlns="http://www.w3.org/2000/svg"
    version="1.0">
    <rect x="10" width="80" height="80" y="10"/>
    <line y2="10" x1="10" x2="90" y1="90"/>
    <polyline fill="none" points="45.0,5.0 50.0,10.0 45.0,15.0"/>
    <polyline fill="none" points="15.0,28.0 20.0,28.0 20.0,21.0 27.0,21.0 27.0,28.0 32.0,28.0 32.0,21.0 39.0,21.0 
        39.0,28.0 46.0,28.0 46.0,21.0 53.0,21.0 53.0,28.0 56.0,28.0"/>
    <path fill="none" d="M 65.0 75.0 A 5.5 5.5 0.0 0 1 75.0 75.0 A 5.5 5.5 0.0 0 0 85.0 75.0"/>
</svg>