<?xml version="1.0" standalone="no"?>
<!--Created with Sketsa SVG Editor (http://www.kiyut.com)-->
<?xml-stylesheet type="text/css" href="..\iec417.css" ?>
<svg contentScriptType="text/ecmascript" width="100.0px" xmlns:xlink="http://www.w3.org/1999/xlink" baseProfile="full"
    zoomAndPan="magnify" contentStyleType="text/css" height="100.0px" preserveAspectRatio="xMidYMid meet" xmlns="http://www.w3.org/2000/svg"
    version="1.0">
    <polyline points="30.0,90.0 10.0,90.0 10.0,10.0 90.0,10.0 90.0,90.0 40.0,90.0"/>
    <line y2="10" x1="10" x2="90" y1="90"/>
    <polyline fill="none" points="65.0,85.0 70.0,90.0 65.0,95.0"/>
    <ellipse rx="5" ry="5" cx="35" cy="90"/>
    <line y2="50" x1="28.7" x2="50" y1="28.7"/>
    <ellipse rx="30" fill="none" ry="30" cx="50" cy="50"/>
    <line y2="70" x1="22.7" x2="30" y1="62.6"/>
    <line y2="65" x1="20" x2="35" y1="50"/>
    <line y2="60" x1="21.2" x2="40" y1="41.2"/>
    <line y2="55" x1="24.3" x2="45" y1="34.4"/>
    <line y2="45" x1="34.5" x2="55" y1="24.5"/>
    <line y2="35" x1="50" x2="65" y1="20"/>
    <line y2="30" x1="62.9" x2="70" y1="23"/>
    <line y2="40" x1="41.4" x2="60" y1="21.6"/>
</svg>