<?xml version="1.0" standalone="no"?>
<!--Created with Sketsa SVG Editor (http://www.kiyut.com)-->
<?xml-stylesheet type="text/css" href="..\iec417.css" ?>
<svg contentScriptType="text/ecmascript" width="100.0px" xmlns:xlink="http://www.w3.org/1999/xlink" baseProfile="full"
    zoomAndPan="magnify" contentStyleType="text/css" height="100.0px" preserveAspectRatio="xMidYMid meet" xmlns="http://www.w3.org/2000/svg"
    version="1.0">
    <polyline points="30.0,90.0 10.0,90.0 10.0,10.0 90.0,10.0 90.0,90.0 40.0,90.0"/>
    <line y2="10" x1="10" x2="90" y1="90"/>
    <polyline fill="none" points="65.0,85.0 70.0,90.0 65.0,95.0"/>
    <ellipse rx="5" ry="5" cx="35" cy="90"/>
    <line y2="50" x1="71.3" x2="50" y1="71.3"/>
    <ellipse rx="30" fill="none" ry="30" cx="50" cy="50"/>
    <line y2="70" x1="37.3" x2="30" y1="77.3"/>
    <line y2="65" x1="50" x2="35" y1="80"/>
    <line y2="60" x1="58.8" x2="40" y1="78.8"/>
    <line y2="55" x1="65.7" x2="45" y1="75.6"/>
    <line y2="45" x1="75.5" x2="55" y1="65.5"/>
    <line y2="35" x1="80" x2="65" y1="50"/>
    <line y2="30" x1="77.1" x2="70" y1="37"/>
    <line y2="40" x1="78.6" x2="60" y1="58.6"/>
</svg>