<?xml version="1.0" standalone="no"?>
<!--Created with Sketsa SVG Editor (http://www.kiyut.com)-->
<?xml-stylesheet type="text/css" href="..\nature.css" ?>
<svg contentScriptType="text/ecmascript" width="100.0px" xmlns:xlink="http://www.w3.org/1999/xlink" baseProfile="full"
    zoomAndPan="magnify" contentStyleType="text/css" height="100.0px" preserveAspectRatio="xMidYMid meet" xmlns="http://www.w3.org/2000/svg"
    version="1.0">
    <path d="M 50.13 0.5 C 22.85 0.5 0.67 22.69 0.67 49.96 s 22.19 49.46 49.46 49.46 c 27.27 0.0 49.46 -22.19 49.46 
        -49.46 S 77.4 0.5 50.13 0.5 z M 92.09 46.29 H 53.79 V 8.0 C 74.1 9.75 90.33 25.98 92.09 46.29 z M 46.46 8.0 v 
        38.3 H 8.16 C 9.92 25.98 26.15 9.75 46.46 8.0 z M 8.16 53.62 h 38.3 v 38.3 C 26.15 90.16 9.92 73.93 8.16 53.62 z 
        M 53.79 91.92 V 53.62 H 92.09 C 90.33 73.93 74.1 90.16 53.79 91.92 z"/>
</svg>