<?xml version="1.0" standalone="no"?>
<!--Created with Sketsa SVG Editor (http://www.kiyut.com)-->
<?xml-stylesheet type="text/css" href="..\nature.css" ?>
<svg contentScriptType="text/ecmascript" width="100.0px" xmlns:xlink="http://www.w3.org/1999/xlink" baseProfile="full"
    zoomAndPan="magnify" contentStyleType="text/css" height="100.0px" preserveAspectRatio="xMidYMid meet" xmlns="http://www.w3.org/2000/svg"
    version="1.0">
    <path id="maple_leaf_2_" d="M 49.61 0.67 l -7.73 14.83 c -0.88 1.61 -2.45 1.46 -4.02 0.56 l -5.6 -2.98 l 4.17 22.78 
        c 0.88 4.16 -1.94 4.16 -3.33 2.36 l -9.77 -11.25 l -1.59 5.71 c -0.18 0.75 -0.99 1.54 -2.19 1.35 L 7.19 31.36 l 
        3.25 12.13 c 0.69 2.7 1.24 3.82 -0.7 4.53 L 5.33 50.15 l 21.27 17.76 c 0.84 0.67 1.27 1.88 0.97 2.97 l -1.86 
        6.28 c 7.32 -0.87 13.89 -1.65 21.21 -2.51 c 0.65 -0.01 1.73 0.56 1.72 1.33 l -0.97 23.01 h 3.56 l -0.56 -22.96 c 
        -0.01 -0.77 0.97 -1.39 1.63 -1.38 c 7.32 0.87 13.89 1.64 21.21 2.51 l -1.86 -6.28 c -0.3 -1.09 0.13 -2.3 0.97 
        -2.97 l 21.27 -17.76 l -4.4 -2.13 c -1.94 -0.71 -1.4 -1.83 -0.7 -4.53 l 3.24 -12.13 l -12.36 2.67 c -1.21 0.19 
        -2.01 -0.6 -2.19 -1.35 l -1.59 -5.71 l -9.77 11.25 c -1.39 1.8 -4.21 1.8 -3.33 -2.36 l 4.17 -22.78 l -5.6 2.98 c 
        -1.57 0.9 -3.15 1.05 -4.02 -0.56 L 49.61 0.67 z" transform="matrix(1.0 0.0 0.0 1.0 -0.0 -3.81E-6)"/>
</svg>