<?xml version="1.0" standalone="no"?>
<!--Created with Sketsa SVG Editor (http://www.kiyut.com)-->
<?xml-stylesheet type="text/css" href="..\nature.css" ?>
<svg contentScriptType="text/ecmascript" width="100.0px" xmlns:xlink="http://www.w3.org/1999/xlink" baseProfile="full"
    zoomAndPan="magnify" contentStyleType="text/css" height="100.0px" preserveAspectRatio="xMidYMid meet" xmlns="http://www.w3.org/2000/svg"
    version="1.0">
    <path d="M 91.84 21.88 L 99.38 0.37 L 78.03 7.97 l 4.21 4.24 L 67.83 26.73 c -7.14 -6.2 -16.43 -9.97 -26.58 -9.97 C 
        18.78 16.76 0.5 35.19 0.5 57.83 c 0.0 22.64 18.28 41.06 40.76 41.06 s 40.76 -18.42 40.76 -41.06 c 0.0 -9.67 
        -3.34 -18.55 -8.91 -25.58 l 14.51 -14.62 L 91.84 21.88 z M 41.26 91.23 c -18.28 0.0 -33.15 -14.98 -33.15 -33.4 c 
        -9.54E-7 -18.42 14.87 -33.4 33.15 -33.4 c 18.28 0.0 33.15 14.98 33.15 33.4 C 74.41 76.25 59.54 91.23 41.26 91.23 
        z"/>
</svg>