<?xml version="1.0" standalone="no"?>
<!--Created with Sketsa SVG Editor (http://www.kiyut.com)-->
<?xml-stylesheet type="text/css" href="..\nature.css" ?>
<svg contentScriptType="text/ecmascript" width="100.0px" xmlns:xlink="http://www.w3.org/1999/xlink" baseProfile="full"
    zoomAndPan="magnify" contentStyleType="text/css" height="100.0px" preserveAspectRatio="xMidYMid meet" xmlns="http://www.w3.org/2000/svg"
    version="1.0">
    <path d="M 54.92 69.87 c 15.49 -1.9 27.52 -15.01 27.52 -30.85 c 0.0 -8.43 -3.41 -16.08 -8.93 -21.68 c 1.54 -2.2 2.37 
        -4.81 2.37 -7.54 c 0.0 -3.56 -1.4 -6.9 -3.95 -9.42 l -5.5 5.45 c 1.07 1.06 1.66 2.47 1.66 3.97 c 0.0 0.96 -0.27 
        1.87 -0.72 2.69 c -4.77 -2.89 -10.37 -4.56 -16.35 -4.56 c -5.99 0.0 -11.59 1.67 -16.35 4.56 c -0.45 -0.82 -0.72 
        -1.73 -0.72 -2.69 C 33.96 8.29 34.55 6.88 35.63 5.82 l -5.5 -5.45 C 27.58 2.89 26.18 6.24 26.18 9.79 c 0.0 2.73 
        0.83 5.34 2.37 7.54 C 23.03 22.94 19.63 30.59 19.63 39.02 c 0.0 15.84 12.03 28.94 27.52 30.85 v 9.1 H 26.64 v 
        7.7 h 20.5 V 99.38 h 7.78 V 86.67 h 20.5 v -7.7 H 54.92 V 69.87 z M 27.41 39.02 c 0.0 -12.9 10.6 -23.39 23.63 
        -23.39 s 23.63 10.49 23.63 23.39 c 0.0 12.9 -10.6 23.39 -23.63 23.39 S 27.41 51.92 27.41 39.02 z"/>
</svg>