<?xml version="1.0" standalone="no"?>
<!--Created with Sketsa SVG Editor (http://www.kiyut.com)-->
<?xml-stylesheet type="text/css" href="..\nature.css" ?>
<svg contentScriptType="text/ecmascript" width="100.0px" xmlns:xlink="http://www.w3.org/1999/xlink" baseProfile="full"
    zoomAndPan="magnify" contentStyleType="text/css" height="100.0px" preserveAspectRatio="xMidYMid meet" xmlns="http://www.w3.org/2000/svg"
    version="1.0">
    <path d="M 61.38 99.5 C 33.81 99.5 11.38 77.29 11.38 50.0 S 33.81 0.5 61.38 0.5 c 4.8 0.0 9.57 0.68 14.19 2.03 l 
        12.02 3.52 L 75.56 9.57 C 57.6 14.82 45.06 31.45 45.06 50.0 c 0.0 18.55 12.54 35.18 30.5 40.43 l 12.01 3.51 l 
        -12.01 3.52 C 70.95 98.81 66.18 99.5 61.38 99.5 L 61.38 99.5 z M 61.38 7.83 C 37.89 7.83 18.78 26.75 18.78 50.0 
        S 37.89 92.17 61.38 92.17 c 0.04 0.0 0.09 0.0 0.13 0.0 C 47.02 83.3 37.65 67.37 37.65 50.0 c 0.0 -17.37 9.36 
        -33.3 23.85 -42.17 C 61.46 7.83 61.42 7.83 61.38 7.83 L 61.38 7.83 z"/>
</svg>