<?xml version="1.0" standalone="no"?>
<!--Created with Sketsa SVG Editor (http://www.kiyut.com)-->
<?xml-stylesheet type="text/css" href="..\nature.css" ?>
<svg contentScriptType="text/ecmascript" width="100.0px" xmlns:xlink="http://www.w3.org/1999/xlink" baseProfile="full"
    zoomAndPan="magnify" contentStyleType="text/css" height="100.0px" preserveAspectRatio="xMidYMid meet" xmlns="http://www.w3.org/2000/svg"
    version="1.0">
    <path d="M 93.51 21.76 L 83.17 0.38 L 72.83 21.76 h 6.34 v 16.69 c 0.0 14.8 -11.17 27.06 -25.6 29.0 V 21.76 h 6.34 L 
        49.57 0.38 L 39.23 21.76 h 6.34 v 45.69 C 31.13 65.51 19.97 53.25 19.97 38.45 V 21.76 h 6.34 L 15.97 0.38 L 5.63 
        21.76 h 6.34 v 16.69 c 0.0 19.17 14.74 34.99 33.6 36.97 v 7.5 h -20.13 v 7.91 h 20.13 V 99.25 h 8.0 v -8.42 h 
        20.13 v -7.91 H 53.57 v -7.5 c 18.86 -1.98 33.6 -17.8 33.6 -36.97 V 21.76 H 93.51 z" transform="matrix(1.0 0.0 0.0 1.0 -0.0 3.81E-6)"/>
</svg>