<?xml version="1.0" standalone="no"?>
<!--Created with Sketsa SVG Editor (http://www.kiyut.com)-->
<?xml-stylesheet type="text/css" href="..\nature.css" ?>
<svg contentScriptType="text/ecmascript" width="100.0px" xmlns:xlink="http://www.w3.org/1999/xlink" baseProfile="full"
    zoomAndPan="magnify" contentStyleType="text/css" height="100.0px" preserveAspectRatio="xMidYMid meet" xmlns="http://www.w3.org/2000/svg"
    version="1.0">
    <path id="path5156" d="M 42.49 50.35 l 3.91 5.78 h 7.28 l 3.36 -5.78 l -3.54 -6.15 h -7.3 L 42.49 50.35 z M 45.49 
        96.79 V 83.73 l -7.3 4.1 l -3.72 -2.13 v -4.6 l 10.82 -6.15 v -8.58 l -7.85 5.04 v -9.09 l -7.5 4.32 v 12.33 l 
        -4.1 2.54 l -3.47 -2.29 v -8.26 L 10.99 77.39 L 6.13 75.34 V 70.13 l 11.95 -6.53 L 10.6 59.84 v -4.77 l 4.24 
        -2.32 l 10.72 6.31 l 7.45 -4.3 l -0.18 -0.14 l -7.61 -4.37 l 7.39 -4.59 l -7.42 -4.3 L 14.47 47.68 l -4.02 -2.0 
        v -4.75 l 7.26 -4.08 L 6.13 30.56 v -5.21 l 4.45 -2.29 l 11.41 6.59 v -8.4 l 3.44 -2.32 l 4.22 2.43 L 29.62 
        33.93 l 7.67 4.38 l -0.03 -8.88 l 8.04 4.33 v -8.58 L 34.48 19.0 v -4.56 l 3.72 -2.16 l 7.3 4.1 V 3.36 L 49.67 
        0.63 l 4.21 2.74 v 13.03 l 7.56 -4.19 l 3.8 2.52 v 4.1 L 54.04 25.17 v 8.58 l 7.66 -4.67 v 9.34 l 7.89 -4.3 V 
        20.68 l 3.8 -1.77 l 3.99 1.77 v 8.6 l 11.74 -6.34 l 4.11 2.5 v 4.86 l -11.47 6.52 l 7.17 4.02 v 4.64 L 85.22 
        47.54 l -11.01 -6.51 l -7.61 4.84 l 7.36 4.59 l -7.59 4.37 l 7.84 4.1 L 85.22 52.78 l 3.54 2.5 v 4.44 L 81.85 
        63.6 L 92.85 70.13 v 5.13 l -4.66 2.13 l -10.81 -6.15 v 8.14 l -3.88 2.17 l -3.8 -2.17 V 67.02 l -8.0 -4.56 v 
        8.58 l -7.66 -4.67 v 8.58 l 10.82 6.15 v 4.86 l -3.73 1.86 l -7.25 -4.1 v 13.06 L 49.67 99.5 L 45.49 96.79 z"
        transform="matrix(1.0 0.0 0.0 1.0 -0.0 -3.81E-6)"/>
</svg>