<?xml version="1.0" standalone="no"?>
<!--Created with Sketsa SVG Editor (http://www.kiyut.com)-->
<?xml-stylesheet type="text/css" href="..\nature.css" ?>
<svg contentScriptType="text/ecmascript" width="100.0px" xmlns:xlink="http://www.w3.org/1999/xlink" baseProfile="full"
    zoomAndPan="magnify" contentStyleType="text/css" height="100.0px" preserveAspectRatio="xMidYMid meet" xmlns="http://www.w3.org/2000/svg"
    version="1.0">
    <path d="M 72.47 66.44 c 3.68 -5.03 5.46 -10.86 5.46 -16.64 c 0.0 -8.67 -3.99 -17.23 -11.52 -22.75 c -5.03 -3.68 
        -10.86 -5.46 -16.65 -5.46 c -8.67 0.0 -17.23 3.99 -22.75 11.52 c -3.69 5.01 -5.46 10.86 -5.46 16.64 c 0.0 8.67 
        3.99 17.23 11.53 22.75 c 5.01 3.67 10.86 5.46 16.64 5.46 C 58.38 77.96 66.95 73.97 72.47 66.44 z"/>
    <path d="M 22.96 32.19 l 0.8 -1.11 c 0.17 -0.23 0.36 -0.45 0.54 -0.68 l 0.03 0.06 l 0.93 -1.1 c 1.22 -1.45 2.61 
        -2.85 4.05 -4.06 l 1.11 -0.93 l -0.05 -0.03 c 0.2 -0.15 0.39 -0.32 0.6 -0.47 l 1.1 -0.8 l -17.29 -8.26 l 0.97 
        2.05 L 22.96 32.19 z"/>
    <path d="M 18.1 54.81 c -0.04 -0.26 -0.06 -0.54 -0.1 -0.8 l 0.08 0.02 l -0.13 -1.43 c -0.08 -0.93 -0.13 -1.86 -0.13 
        -2.79 c 0.0 -0.99 0.05 -1.96 0.13 -2.92 l 0.13 -1.44 l -0.08 0.03 c 0.03 -0.27 0.05 -0.54 0.09 -0.8 l 0.22 -1.34 
        l -1.28 0.45 L 0.25 49.74 l 18.06 6.41 L 18.1 54.81 z"/>
    <path d="M 45.45 18.11 l -0.03 0.08 l 1.43 -0.13 c 0.95 -0.08 1.9 -0.13 2.86 -0.13 c 0.96 0.0 1.91 0.05 2.86 0.13 l 
        1.43 0.13 l -0.03 -0.08 c 0.27 0.04 0.54 0.05 0.81 0.1 l 1.34 0.22 L 49.72 0.38 l -0.76 2.14 l -5.66 15.91 l 
        1.34 -0.22 C 44.91 18.16 45.18 18.15 45.45 18.11 z"/>
    <path d="M 69.08 24.37 h -0.01 l 0.26 0.22 c 0.54 0.42 1.03 0.9 1.54 1.35 c 0.94 0.83 1.82 1.72 2.66 2.65 c 0.44 
        0.49 0.88 0.96 1.29 1.47 l 0.34 0.41 l 0.01 -0.01 c 0.16 0.21 0.34 0.41 0.49 0.62 l 0.79 1.11 l 8.27 -17.37 l 
        -2.06 0.98 l -15.31 7.29 l 1.1 0.79 C 68.67 24.03 68.87 24.2 69.08 24.37 z"/>
    <path d="M 81.12 56.22 l 18.07 -6.41 l -18.07 -6.4 l 0.22 1.34 c 0.04 0.26 0.06 0.54 0.1 0.8 l -0.08 -0.03 l 0.13 
        1.44 c 0.08 0.95 0.13 1.9 0.13 2.86 c 0.0 0.96 -0.05 1.91 -0.13 2.85 l -0.13 1.44 l 0.08 -0.03 c -0.04 0.27 
        -0.06 0.54 -0.1 0.8 L 81.12 56.22 z"/>
    <path d="M 53.98 81.51 l 0.03 -0.08 l -1.44 0.13 c -0.95 0.08 -1.9 0.13 -2.86 0.13 c -0.96 0.0 -1.91 -0.05 -2.86 
        -0.13 l -1.44 -0.13 l 0.03 0.08 c -0.27 -0.04 -0.54 -0.06 -0.8 -0.1 l -1.34 -0.21 l 0.45 1.28 L 49.71 99.25 l 
        6.42 -18.05 l -1.34 0.21 C 54.52 81.46 54.25 81.47 53.98 81.51 z"/>
    <path d="M 75.66 68.54 c -0.15 0.21 -0.32 0.4 -0.47 0.6 l -0.02 -0.05 l -0.93 1.11 c -1.0 1.2 -2.13 2.35 -3.29 3.4 c 
        -0.6 0.53 -1.17 1.09 -1.8 1.58 c -0.21 0.16 -0.41 0.34 -0.63 0.49 l -1.09 0.79 l 17.31 8.27 l -8.28 -17.3 L 
        75.66 68.54 z"/>
    <path d="M 30.29 75.21 l 0.06 -0.03 l -1.1 -0.92 c -1.43 -1.2 -2.79 -2.56 -3.99 -3.99 l -0.93 -1.1 l -0.03 0.06 c 
        -0.18 -0.23 -0.37 -0.45 -0.54 -0.69 l -0.8 -1.1 l -0.58 1.23 l -7.6 16.05 l 17.29 -8.17 l -1.11 -0.8 C 30.74 
        75.58 30.52 75.38 30.29 75.21 z"/>
</svg>