<?xml version="1.0" standalone="no"?>
<!--Created with Sketsa SVG Editor (http://www.kiyut.com)-->
<?xml-stylesheet type="text/css" href="..\nature.css" ?>
<svg contentScriptType="text/ecmascript" width="100.0px" xmlns:xlink="http://www.w3.org/1999/xlink" baseProfile="full"
    zoomAndPan="magnify" contentStyleType="text/css" height="100.0px" preserveAspectRatio="xMidYMid meet" xmlns="http://www.w3.org/2000/svg"
    version="1.0">
    <path d="M 22.78 49.72 c 0.0 -15.08 12.21 -27.31 27.27 -27.31 c 15.05 0.0 27.25 12.23 27.25 27.31 c 0.0 15.08 -12.2 
        27.29 -27.25 27.29 C 34.99 77.01 22.78 64.79 22.78 49.72" id="path2662" transform="matrix(1.0 0.0 0.0 1.0 -0.0 -3.81E-6)"/>
    <path d="M 47.83 0.5 h 4.42 v 16.81 H 47.83 V 0.5 z" id="path2638" transform="matrix(1.0 0.0 0.0 1.0 -0.0 -3.81E-6)"/>
    <path d="M 47.57 82.23 h 4.42 v 16.81 h -4.42 V 82.23 z" id="path2640" transform="matrix(1.0 0.0 0.0 1.0 -0.0 -3.81E-6)"/>
    <path d="M 82.59 46.52 H 99.38 v 4.41 H 82.59 V 46.52 z" id="path2642" transform="matrix(1.0 0.0 0.0 1.0 -0.0 -3.81E-6)"/>
    <path d="M 0.62 46.25 h 16.79 v 4.42 H 0.62 V 46.25 z" id="path2644" transform="matrix(1.0 0.0 0.0 1.0 -0.0 -3.81E-6)"/>
    <path d="M 7.02 25.61 l 2.14 -3.86 l 14.67 8.14 l -2.14 3.87 L 7.02 25.61 z" id="path2646" transform="matrix(1.0 0.0 0.0 1.0 -0.0 -3.81E-6)"/>
    <path d="M 24.63 7.64 l 3.74 -2.35 l 8.91 14.26 l -3.74 2.34 L 24.63 7.64 z" id="path2648" transform="matrix(1.0 0.0 0.0 1.0 -0.0 -3.81E-6)"/>
    <path d="M 64.54 78.53 l 3.81 -2.19 l 8.39 14.55 l -3.81 2.2 L 64.54 78.53 z" id="path2650" transform="matrix(1.0 0.0 0.0 1.0 -0.0 -3.81E-6)"/>
    <path d="M 77.38 66.77 l 2.14 -3.86 l 14.69 8.14 l -2.15 3.87 L 77.38 66.77 z" id="path2652" transform="matrix(1.0 0.0 0.0 1.0 -0.0 -3.81E-6)"/>
    <path d="M 27.39 93.29 l -3.86 -2.15 l 8.13 -14.71 l 3.87 2.13 L 27.39 93.29 z" id="path2654" transform="matrix(1.0 0.0 0.0 1.0 -0.0 -3.81E-6)"/>
    <path d="M 7.88 74.62 L 5.55 70.87 l 14.23 -8.92 l 2.33 3.74 L 7.88 74.62 z" id="path2656" transform="matrix(1.0 0.0 0.0 1.0 -0.0 -3.81E-6)"/>
    <path d="M 78.96 35.17 l -2.21 -3.84 l 14.54 -8.4 l 2.21 3.84 L 78.96 35.17 z" id="path2658" transform="matrix(1.0 0.0 0.0 1.0 -0.0 -3.81E-6)"/>
    <path d="M 67.73 22.57 l -3.87 -2.16 l 8.14 -14.69 l 3.86 2.15 L 67.73 22.57 z" id="path2660" transform="matrix(1.0 0.0 0.0 1.0 -0.0 -3.81E-6)"/>
</svg>