<?xml version="1.0" standalone="no"?>
<!--Created with Sketsa SVG Editor (http://www.kiyut.com)-->
<?xml-stylesheet type="text/css" href="..\nature.css" ?>
<svg contentScriptType="text/ecmascript" width="100.0px" xmlns:xlink="http://www.w3.org/1999/xlink" baseProfile="full"
    zoomAndPan="magnify" contentStyleType="text/css" height="100.0px" preserveAspectRatio="xMidYMid meet" xmlns="http://www.w3.org/2000/svg"
    version="1.0">
    <path d="M 44.04 31.5 L 22.34 8.6 l 12.21 29.2 L 4.17 30.26 l 25.77 17.96 L 0.38 58.51 l 31.19 0.96 L 12.31 84.28 l 
        26.85 -16.18 L 36.18 99.5 l 13.83 -28.24 l 14.37 27.97 l -3.52 -31.39 l 26.99 15.77 l -19.66 -24.4 l 31.19 -1.51 
        l -29.7 -9.87 l 25.5 -18.37 l -30.24 7.95 L 76.46 8.19 L 55.3 31.36 L 49.33 0.38 L 44.04 31.5 z M 67.1 49.87 c 
        0.0 9.63 -7.69 17.55 -17.22 17.55 c -9.53 0.0 -17.22 -7.92 -17.22 -17.55 c 0.0 -9.64 7.69 -17.41 17.22 -17.41 C 
        59.41 32.46 67.1 40.23 67.1 49.87 z"/>
    <path d="M 49.87 64.81 c 8.14 0.0 14.78 -6.71 14.78 -14.94 c 0.0 -8.23 -6.64 -14.81 -14.78 -14.81 c -8.14 0.0 -14.65 
        6.58 -14.65 14.81 C 35.23 58.1 41.73 64.81 49.87 64.81 z"/>
</svg>