<?xml version="1.0" standalone="no"?>
<!--Created with Sketsa SVG Editor (http://www.kiyut.com)-->
<?xml-stylesheet type="text/css" href="..\nature.css" ?>
<svg contentScriptType="text/ecmascript" width="100.0px" xmlns:xlink="http://www.w3.org/1999/xlink" baseProfile="full"
    zoomAndPan="magnify" contentStyleType="text/css" height="100.0px" preserveAspectRatio="xMidYMid meet" xmlns="http://www.w3.org/2000/svg"
    version="1.0">
    <path d="M 55.68 36.24 V 19.72 h 5.42 L 51.84 0.5 l -9.27 19.22 h 5.42 v 16.52 C 32.1 38.13 19.75 51.55 19.75 67.79 
        C 19.75 85.32 34.14 99.58 51.84 99.58 S 83.92 85.32 83.92 67.79 C 83.92 51.55 71.57 38.13 55.68 36.24 z M 51.84 
        91.96 c -13.45 0.0 -24.39 -10.84 -24.39 -24.17 c 0.0 -13.33 10.94 -24.17 24.39 -24.17 c 13.45 0.0 24.39 10.84 
        24.39 24.17 C 76.23 81.12 65.29 91.96 51.84 91.96 z"/>
    <circle cx="51.84" r="6.62" cy="67.79"/>
</svg>