<?xml version="1.0" standalone="no"?>
<!--Created with Sketsa SVG Editor (http://www.kiyut.com)-->
<?xml-stylesheet type="text/css" href="..\lean_mapping.css" ?>
<svg contentScriptType="text/ecmascript" width="100.0px" xmlns:xlink="http://www.w3.org/1999/xlink" baseProfile="full"
    zoomAndPan="magnify" contentStyleType="text/css" height="100.0px" preserveAspectRatio="xMidYMid meet" xmlns="http://www.w3.org/2000/svg"
    version="1.0">
    <g>
        <polygon points="25.0,25.0 60.0,25.0 75.0,40.0 75.0,75.0 25.0,75.0"/>
        <line y2="75" x1="25" x2="30" y1="70"/>
        <line y2="75" x1="25" x2="40" y1="60"/>
        <line y2="75" x1="25" x2="50" y1="50"/>
        <line y2="75" x1="25.0" x2="60" y1="40"/>
        <line y2="75" x1="25" x2="70" y1="30.0"/>
        <line y2="70" x1="30" x2="75" y1="25"/>
        <line y2="60" x1="40.0" x2="75" y1="25.0"/>
        <line y2="50" x1="50" x2="75" y1="25"/>
    </g>
    <line y2="50" stroke-dasharray="5,5" x1="75" x2="100" y1="50"/>
    <polyline stroke-dasharray="5,5" fill="none" points="25.0,50.0 10.0,50.0 10.0,87.0"/>
    <polygon points="6.0,87.5 10.0,97.0 14.0,87.5"/>
</svg>