<?xml version="1.0" standalone="no"?>
<!--Created with Sketsa SVG Editor (http://www.kiyut.com)-->
<svg contentScriptType="text/ecmascript" width="1000.0px" xmlns:xlink="http://www.w3.org/1999/xlink" baseProfile="full"
    zoomAndPan="magnify" contentStyleType="text/css" height="500.0px" preserveAspectRatio="xMidYMid meet" xmlns="http://www.w3.org/2000/svg"
    version="1.0">
    <rect x="100" y="100" fill="#fbfbfb" width="91" rx="3" ry="3" height="25" stroke="#666666"/>
    <rect x="197.5" y="100" fill="#e9eaeb" width="38.0" rx="3" ry="3" height="25" stroke="#666666"/>
    <rect x="206" y="104" fill="#ecf5fc" width="21" height="17" stroke="#0033ff" stroke-width="1.5"/>
    <rect x="209.5" y="107.5" fill="#ecf5fc" width="14" height="11" stroke="#5a6ec4"/>
    <rect fill="#ffffff" x="210" width="13" height="2" y="108.0" stroke="none"/>
    <line y2="110.5" fill="none" x1="209.5" x2="223.5" stroke="#5a6ec4" y1="110.5"/>
    <line y2="112.5" fill="none" x1="209.5" x2="223.5" stroke="#5a6ec4" y1="112.5"/>
    <line y2="114.5" fill="none" x1="209.5" x2="223.5" stroke="#5a6ec4" y1="114.5"/>
    <line y2="116.5" fill="none" x1="209.5" x2="223.5" stroke="#5a6ec4" y1="116.5"/>
    <line y2="110.5" fill="none" x1="211.5" x2="211.5" stroke="#5a6ec4" y1="118.5"/>
    <line y2="110.5" fill="none" x1="213.5" x2="213.5" stroke="#5a6ec4" y1="118.5"/>
    <line y2="110.5" fill="none" x1="215.5" x2="215.5" stroke="#5a6ec4" y1="118.5"/>
    <line y2="110.5" fill="none" x1="217.5" x2="217.5" stroke="#5a6ec4" y1="118.5"/>
    <line y2="110.5" fill="none" x1="219.5" x2="219.5" stroke="#5a6ec4" y1="118.5"/>
    <line y2="110.5" fill="none" x1="221.5" x2="221.5" stroke="#5a6ec4" y1="118.5"/>
    <rect fill="none" x="217.5" width="2" height="2" y="112.5" stroke="#ff3300"/>
</svg>