<?xml version="1.0" standalone="no"?>
<!--Created with Sketsa SVG Editor (http://www.kiyut.com)-->
<svg contentScriptType="text/ecmascript" width="1000.0px" xmlns:xlink="http://www.w3.org/1999/xlink" baseProfile="full"
    zoomAndPan="magnify" contentStyleType="text/css" height="500.0px" preserveAspectRatio="xMidYMid meet" xmlns="http://www.w3.org/2000/svg"
    version="1.0">
    <rect x="317.5" y="165" fill="#f3f3f3" width="32.0" rx="3" ry="3" height="23.0" stroke="#8a8a8a"/>
    <rect width="203" x="100.0" fill="#404040" height="23" y="100.0" stroke="#404040"/>
    <rect width="203" x="364.0" fill="#404040" height="23" y="100.0" stroke="#404040"/>
    <polygon fill="#000000" points="293.0,134.0 298.0,134.0 295.5,129.0" stroke="#000000" stroke-linejoin="round"/>
    <polygon fill="#000000" points="292.66666,191.0 297.66666,191.0 295.16666,196.0" stroke-linejoin="round" stroke="#000000"/>
    <line y2="201" fill="none" x1="287.5" x2="287.5" y1="123" stroke="#404040"/>
    <line y2="139.5" fill="none" x1="287.5" x2="303" y1="139.5" stroke="#404040"/>
    <line y2="185.5" fill="none" x1="287.5" x2="303" y1="185.5" stroke="#404040"/>
    <rect x="288.5" y="140.5" fill="#cccccc" width="14" rx="3" height="25" ry="3" stroke="#999999"/>
    <rect fill="none" x="100" width="203" y="123" height="78" stroke="#404040"/>
    <rect x="317.5" y="134.5" fill="#f3f3f3" width="32.0" rx="3" height="23.0" ry="3" stroke="#8a8a8a"/>
    <polyline fill="none" stroke-width="2" points="330.5,143.0 336.0,145.5 330.5,148.0" stroke="#000000"
        stroke-linejoin="round" stroke-linecap="round"/>
    <polyline fill="none" stroke-width="2" points="336.0,174.0 330.0,176.5 336.0,179.0" stroke-linecap="round"
        stroke-linejoin="round" stroke="#000000"/>
    <polygon fill="#808080" points="557.0,134.0 562.0,134.0 559.5,129.0" stroke-linejoin="round" stroke="#808080"/>
    <polygon fill="#808080" points="556.6666,191.0 561.6666,191.0 559.1666,196.0" stroke-linejoin="round" stroke="#808080"/>
    <line y2="201.0" fill="none" x1="551.5" x2="551.5" stroke="#808080" y1="123.0"/>
    <line y2="139.5" fill="none" x1="551.5" x2="567" stroke="#808080" y1="139.5"/>
    <line y2="185.5" fill="none" x1="551.5" x2="567" stroke="#808080" y1="185.5"/>
    <rect fill="none" x="364.0" width="203" height="78" y="123.0" stroke="#808080"/>
</svg>