<?xml version="1.0" standalone="no"?>
<!--Created with Sketsa SVG Editor (http://www.kiyut.com)-->
<?xml-stylesheet type="text/css" href="..\pumps.css" ?>
<svg contentScriptType="text/ecmascript" width="100.0px" xmlns:xlink="http://www.w3.org/1999/xlink" baseProfile="full"
    zoomAndPan="magnify" contentStyleType="text/css" height="100.0px" preserveAspectRatio="xMidYMid meet" xmlns="http://www.w3.org/2000/svg"
    version="1.0">
    <path d="M 0.5 48.0 L 15.0 48.0 L 15.0 40.0 L 27.1 40.0 A 25.0 25.0 0.0 0 1 72.9 40.0 L 85.0 40.0 L 85.0 48.0 L 99.5 
        48.0 L 99.5 52.0 L 85.0 52.0 L 85.0 60.0 L 72.9 60.0 A 25.0 25.0 0.0 0 1 27.1 60.0 L 15.0 60.0 L 15.0 52.0 L 0.5 
        52.0 z"/>
    <line y2="52" x1="15" x2="15" y1="48"/>
    <line y2="52" x1="85.0" x2="85" y1="48"/>
    <path fill="none" d="M 27.1 60.0 A 25.0 25.0 0.0 0 1 27.1 40.0"/>
    <path fill="none" d="M 72.9 40.0 A 25.0 25.0 0.0 0 1 72.9 60.0"/>
</svg>