<?xml version="1.0" standalone="no"?>
<!--Created with Sketsa SVG Editor (http://www.kiyut.com)-->
<?xml-stylesheet type="text/css" href="..\animals.css" ?>
<svg contentScriptType="text/ecmascript" width="100.0px" xmlns:xlink="http://www.w3.org/1999/xlink" baseProfile="full"
    zoomAndPan="magnify" contentStyleType="text/css" height="100.0px" preserveAspectRatio="xMidYMid meet" xmlns="http://www.w3.org/2000/svg"
    version="1.0">
    <path d="M 21.68 21.03 c 0.0 0.0 -2.66 -4.11 -4.74 -3.47 c -2.29 0.7 -1.12 5.27 -1.12 5.27 c -4.26 0.74 -6.13 7.15 
        -13.75 7.66 c -2.8 0.19 -0.23 7.27 7.4 8.81 c 10.61 2.14 18.24 7.51 19.31 10.86 c 0.64 2.01 6.38 22.03 3.94 
        25.67 c 0.0 0.0 -4.59 1.07 -2.4 5.36 c 0.57 1.13 10.06 0.77 10.64 -1.36 c 0.23 -0.84 2.5 -8.13 2.5 -8.13 c 2.06 
        2.38 1.99 5.12 0.31 7.11 c -1.37 1.62 1.69 4.83 6.02 3.43 c 5.2 -1.69 5.46 -15.88 5.46 -21.49 c 0.0 0.0 9.78 
        3.64 19.94 1.85 c 0.0 0.0 1.27 12.34 0.69 13.14 c -0.6 0.82 -4.19 2.66 -1.83 5.59 c 1.63 2.02 6.15 1.54 7.56 
        0.28 c 3.02 -2.7 6.32 -14.93 6.32 -14.93 s 2.97 9.44 2.46 9.95 c -3.15 3.14 -1.14 6.22 2.06 6.22 c 0.0 0.0 5.37 
        0.91 6.58 -3.95 c 0.0 0.0 -1.36 -25.31 -0.43 -30.53 c 2.19 -12.23 -22.67 -17.9 -26.14 -18.24 c -5.93 -0.58 
        -19.92 -0.61 -21.62 -1.18 c -1.56 -0.53 -5.38 -2.72 -8.02 -3.22 c -2.13 -0.41 -5.25 0.49 -6.96 0.2 c -1.96 -0.34 
        -7.4 -2.87 -7.4 -2.87 s 0.27 -3.81 -2.24 -4.49 C 24.54 18.1 21.68 21.03 21.68 21.03 z"/>
</svg>