<?xml version="1.0" standalone="no"?>
<!--Created with Sketsa SVG Editor (http://www.kiyut.com)-->
<?xml-stylesheet type="text/css" href="..\animals.css" ?>
<svg contentScriptType="text/ecmascript" width="100.0px" xmlns:xlink="http://www.w3.org/1999/xlink" baseProfile="full"
    zoomAndPan="magnify" contentStyleType="text/css" height="100.0px" preserveAspectRatio="xMidYMid meet" xmlns="http://www.w3.org/2000/svg"
    version="1.0">
    <path d="M 11.76 55.36 c -1.55 -2.35 -2.55 -5.06 -2.89 -8.05 c -0.33 0.09 -0.65 0.16 -1.01 0.16 c -2.3 0.0 -4.17 
        -1.89 -4.17 -4.22 c -2.38E-7 -1.46 0.74 -2.73 1.85 -3.49 l 11.95 -8.4 c 2.51 -1.55 5.44 -2.51 8.61 -2.63 l 29.66 
        0.09 L 77.43 25.33 c 0.0 -0.11 0.0 -0.23 0.0 -0.34 C 77.43 22.79 79.17 21.01 81.34 21.01 c 2.17 0.0 3.93 1.78 
        3.93 3.97 c 0.0 0.34 -0.05 0.71 -0.14 1.03 l 2.01 0.27 c 2.33 0.46 4.09 2.53 4.09 5.02 c 0.0 0.16 0.0 0.3 -0.02 
        0.43 l 6.44 3.51 c 0.93 0.37 1.6 1.3 1.6 2.37 c 0.0 0.36 -0.07 0.68 -0.2 1.0 l -1.6 3.67 c -0.79 1.3 -2.15 2.21 
        -3.73 2.4 l -14.8 1.78 L 65.59 62.29 l 7.61 13.28 l 5.02 2.35 c 0.79 0.55 1.33 1.48 1.33 2.53 c 0.0 1.69 -1.36 
        3.06 -3.05 3.06 l -9.65 0.02 c -2.48 0.0 -4.63 -1.42 -5.71 -3.47 l -8.25 -15.06 l -18.61 0.02 l 6.57 10.23 l 
        4.86 2.24 c 0.9 0.55 1.49 1.53 1.49 2.65 c 0.0 1.69 -1.36 3.06 -3.03 3.06 l -9.67 0.02 c -2.35 0.0 -4.43 -1.28 
        -5.56 -3.2 l -9.06 -14.54 l -6.32 6.21 l -0.52 4.06 l 2.12 1.41 c 0.36 0.18 0.68 0.44 0.95 0.75 c 1.04 1.32 0.86 
        3.26 -0.45 4.31 c -0.56 0.48 -1.27 0.71 -1.94 0.68 l -4.25 0.02 c -1.17 -0.14 -2.24 -0.75 -2.91 -1.67 l -4.95 
        -8.63 C 1.15 71.74 0.88 70.72 0.88 69.62 c 0.0 -1.67 0.61 -3.2 1.65 -4.36 L 11.76 55.37 z"/>
</svg>