<?xml version="1.0" standalone="no"?>
<!--Created with Sketsa SVG Editor (http://www.kiyut.com)-->
<?xml-stylesheet type="text/css" href="..\animals.css" ?>
<svg contentScriptType="text/ecmascript" width="100.0px" xmlns:xlink="http://www.w3.org/1999/xlink" baseProfile="full"
    zoomAndPan="magnify" contentStyleType="text/css" height="100.0px" preserveAspectRatio="xMidYMid meet" xmlns="http://www.w3.org/2000/svg"
    version="1.0">
    <path d="M 73.4 84.94 c -0.29 -0.3 -0.41 -0.71 0.06 -1.13 c 0.47 -0.42 1.71 -0.78 2.24 -1.07 c 0.53 -0.3 0.47 -0.18 
        1.12 0.18 s 2.09 1.03 2.83 0.11 c 0.76 -0.95 2.94 -1.79 3.95 -1.79 c 1.0 -9.84E-4 2.53 -0.54 3.53 -1.13 c 1.0 
        -0.59 3.18 -1.31 4.59 -2.21 s 0.65 -1.19 -0.77 -1.07 c -1.42 0.12 -6.19 0.9 -9.78 1.38 c -4.22 0.56 -4.96 -0.23 
        -6.84 -1.65 c -0.95 -0.71 -1.18 -0.95 -2.42 -0.71 c -8.64 1.67 -16.95 1.15 -27.58 -1.44 c -2.77 3.33 -11.5 5.75 
        -18.67 7.28 c -3.97 0.84 -4.38 1.81 -6.83 4.17 c -1.29 1.25 -5.47 6.48 -6.62 7.91 c -0.51 0.64 -1.59 1.37 -2.24 
        1.55 c -0.65 0.18 -1.83 0.69 -2.21 1.13 c -0.37 0.43 -3.18 1.7 -3.88 2.12 c -0.59 0.34 -1.07 0.22 -1.36 -0.18 c 
        -0.41 -0.56 0.53 -2.26 1.06 -2.88 c 0.44 -0.52 1.68 -1.16 2.74 -1.13 c 1.06 0.03 1.68 -0.33 1.86 -1.07 c 0.17 
        -0.74 0.58 -1.16 1.82 -1.58 c 1.24 -0.42 4.62 -3.96 5.0 -5.3 c -1.0 0.69 -5.21 4.35 -5.59 5.15 c -0.38 0.8 -1.59 
        1.43 -2.59 1.58 c -0.8 0.12 -3.83 1.46 -4.62 2.0 C 1.72 95.48 1.17 95.3 1.17 94.59 c -9.73E-4 -0.89 0.33 -1.62 
        1.29 -2.68 c 0.68 -0.74 2.46 -1.3 2.97 -0.96 c 0.68 0.46 0.8 0.36 1.21 -0.63 c 0.62 -1.49 2.83 -1.99 3.21 -2.32 
        c 2.9 -2.49 5.15 -4.67 6.38 -6.87 c 0.32 -0.56 0.5 -1.13 0.79 -1.49 c 0.29 -0.36 0.44 -0.27 0.68 -0.95 c 0.4 
        -1.18 0.75 -1.4 2.0 -1.4 c 7.84 -0.01 10.56 -2.75 11.13 -5.66 c 1.2 -6.12 2.52 -10.46 5.4 -12.37 c 0.62 -0.41 
        0.65 -0.54 -9.73E-4 -0.89 c -3.78 -2.07 -3.95 -4.45 -1.43 -8.91 c 0.65 -1.14 1.24 -1.01 1.12 -0.12 c -0.12 0.89 
        -0.05 3.45 0.36 4.75 c 0.41 1.31 1.65 3.09 3.6 2.91 c 1.94 -0.18 6.66 -0.54 9.13 -0.31 c 2.48 0.23 11.85 0.52 
        15.56 0.03 c 6.58 -0.85 10.66 -3.05 9.59 -8.69 c -0.52 -2.75 -1.78 -9.45 -1.49 -12.36 c 0.08 -0.77 -0.06 -0.77 
        -0.44 -1.37 c -0.59 -0.92 -1.04 -0.71 -1.42 -1.07 c -0.71 -0.68 -1.86 -2.14 -2.51 -3.26 c -0.6 -1.03 0.2 -1.64 
        0.53 -1.49 c 0.5 0.24 0.62 0.18 0.62 -0.18 c -2.48 -2.4 -3.93 -5.22 -5.11 -7.92 c -0.83 -1.9 -3.78 -4.99 -4.34 
        -5.76 c -0.56 -0.77 -0.83 -1.28 -0.86 -1.93 c -0.03 -0.65 0.82 -0.71 0.85 -0.12 c 0.03 0.59 0.44 1.16 1.09 1.78 
        c 0.65 0.62 3.1 2.79 3.39 3.26 c 0.22 0.36 0.36 0.31 0.53 -0.09 c 0.67 -1.58 2.64 -3.67 4.06 -5.03 c 0.53 -0.51 
        0.59 -0.98 0.64 -1.43 c 0.27 -2.06 -0.06 -3.15 -1.3 -4.84 c -0.27 -0.37 -0.09 -1.04 0.62 -0.42 c 1.38 1.21 2.16 
        2.95 2.1 4.96 c -0.01 0.41 0.13 0.79 0.56 0.56 c 0.68 -0.36 2.18 -1.37 2.77 -1.88 c 0.44 -0.38 0.48 -0.52 0.5 
        -0.89 c 0.03 -0.74 -0.0 -1.05 -0.24 -1.54 c -0.15 -0.31 0.02 -0.49 0.24 -0.28 c 0.22 0.21 0.63 0.99 0.81 1.25 c 
        0.18 0.25 0.3 0.19 0.51 -0.05 c 1.04 -1.13 2.06 -2.94 2.19 -3.73 c 0.15 -0.91 0.75 -0.88 0.66 0.04 c -0.48 5.07 
        -7.94 8.69 -10.88 11.96 c -1.62 1.81 -1.47 4.25 -0.82 6.0 c 0.46 1.23 2.42 3.8 4.16 4.96 c 0.19 0.13 0.23 0.15 
        0.26 -0.06 c 0.1 -0.75 0.18 -1.46 -0.33 -2.35 c -0.12 -0.21 -0.21 -0.72 -0.12 -1.1 c 0.12 -0.48 0.12 -0.57 -0.03 
        -1.16 c -0.88 -3.53 -0.26 -5.89 0.81 -8.88 c 0.68 -1.89 0.43 -5.83 0.08 -7.01 c -0.2 -0.67 0.29 -0.95 0.62 -0.12 
        c 0.51 1.31 0.92 3.24 0.95 5.46 c 0.01 0.4 0.33 0.37 0.85 0.06 c 1.37 -0.83 2.92 -2.02 3.53 -2.74 C 79.14 8.22 
        79.14 6.73 78.88 5.95 c -0.12 -0.35 -0.14 -0.61 0.38 -0.22 c 0.52 0.39 0.77 1.68 0.69 2.14 c -0.06 0.38 0.04 
        0.43 0.35 0.21 c 1.87 -1.31 2.75 -3.45 3.04 -5.56 c 0.14 -1.01 0.68 -0.74 0.77 -0.21 c 0.54 3.21 -2.78 7.38 
        -5.29 8.92 c -3.22 1.97 -5.53 4.08 -5.77 6.81 c -0.16 1.94 0.47 5.22 1.44 6.64 c 0.1 0.19 0.25 0.3 0.32 0.05 c 
        0.37 -0.87 0.54 -2.14 0.24 -3.04 c -0.19 -0.56 -0.15 -0.71 0.38 -0.36 c 0.53 0.36 0.88 1.48 0.51 3.95 c -0.12 
        0.77 0.06 1.07 0.65 1.66 c 0.59 0.59 0.94 0.48 1.3 0.24 c 0.35 -0.24 0.71 -0.36 1.12 0.41 c 0.41 0.77 0.77 1.21 
        1.59 1.24 c 1.3 0.06 2.53 0.11 3.01 0.59 c 0.8 0.8 0.83 0.71 1.95 0.83 c 1.12 0.12 2.3 0.18 2.95 0.18 c 0.65 
        -0.0 0.77 0.47 1.48 0.53 c 0.71 0.06 1.59 0.06 2.18 0.59 c 0.59 0.53 1.03 1.19 1.03 1.84 c 0.0 0.49 0.0 0.58 
        -0.23 0.67 c -0.17 0.06 -0.16 0.22 -0.13 0.37 c 0.12 0.62 -0.63 1.24 -1.69 1.43 c -1.18 0.21 -3.62 0.72 -4.15 
        1.05 c -0.53 0.33 -1.83 1.25 -2.62 1.49 c -0.8 0.24 -0.71 1.25 -0.32 2.26 c 2.09 5.49 2.85 10.28 3.09 14.2 c 
        0.18 2.97 0.36 6.54 -0.1 9.33 c -0.22 1.3 -0.59 1.25 -0.2 2.67 c 0.29 1.06 0.04 2.25 -0.35 3.03 c -0.15 0.3 0.23 
        0.45 0.56 0.45 c 1.47 -0.0 8.02 0.64 9.58 0.79 c 0.79 0.07 1.05 0.23 1.15 0.65 c 0.12 0.48 0.59 1.37 0.71 2.14 c 
        0.12 0.77 -0.41 1.13 -0.59 2.32 c -0.13 0.86 -1.18 2.2 -3.47 3.39 c -1.09 0.57 -2.24 1.55 -3.06 2.09 c -0.83 
        0.54 -2.65 1.55 -3.12 2.02 c -0.47 0.48 -1.41 1.25 -2.0 1.49 c -0.59 0.24 -0.77 0.12 -1.59 0.9 c -0.82 0.77 
        -3.58 1.16 -4.89 1.08 c -1.77 -0.12 -5.6 0.01 -6.6 0.01 c -1.0 0.0 -0.88 -0.71 -0.59 -1.31 C 72.51 85.45 73.13 
        85.21 73.4 84.94 z" transform="matrix(1.0 0.0 0.0 1.0 -0.0 -3.81E-6)"/>
</svg>