<?xml version="1.0" standalone="no"?>
<!--Created with Sketsa SVG Editor (http://www.kiyut.com)-->
<?xml-stylesheet type="text/css" href="..\animals.css" ?>
<svg contentScriptType="text/ecmascript" width="100.0px" xmlns:xlink="http://www.w3.org/1999/xlink" baseProfile="full"
    zoomAndPan="magnify" contentStyleType="text/css" height="100.0px" preserveAspectRatio="xMidYMid meet" xmlns="http://www.w3.org/2000/svg"
    version="1.0">
    <path d="M 75.07 15.16 h 9.03 c 1.19 0.0 2.17 0.97 2.17 2.14 c 0.0 1.2 -0.98 2.17 -2.17 2.17 h -8.93 c -0.57 0.0 
        -1.14 0.19 -1.57 0.61 c -0.67 0.68 -0.83 1.65 -0.45 2.45 c 0.33 0.71 0.79 1.44 1.29 2.05 l 5.15 -0.02 c 0.38 
        0.02 0.81 0.12 1.17 0.31 l 12.1 6.41 c 1.0 0.61 1.69 1.72 1.69 2.97 c 0.0 1.96 -1.6 3.51 -3.55 3.51 h -7.89 L 
        72.52 63.41 l -6.79 6.71 v 24.55 c 0.0 2.47 -2.05 4.5 -4.57 4.5 s -4.55 -2.03 -4.55 -4.5 V 68.26 H 38.29 l -4.12 
        6.2 l 10.13 17.43 c 1.24 2.17 0.45 4.92 -1.74 6.15 c -2.19 1.23 -4.98 0.45 -6.22 -1.72 l -10.39 -17.62 v -7.82 l 
        -5.17 6.85 v 16.61 c 0.0 2.5 -2.05 4.5 -4.57 4.5 c -2.5 0.0 -4.55 -2.0 -4.55 -4.5 L 11.64 76.74 l 4.26 -6.69 v 
        -7.96 l -3.31 5.11 c -0.07 0.19 -0.26 0.31 -0.48 0.31 C 11.85 67.5 11.61 67.29 11.61 67.01 v -17.74 c 0.17 -3.49 
        3.12 -6.38 6.67 -6.38 h 44.86 l 7.12 -10.84 l -5.91 -5.82 c -0.19 -0.16 -0.31 -0.4 -0.31 -0.66 c 0.0 -0.52 0.4 
        -0.92 0.9 -0.92 l 4.31 0.02 c -1.07 -2.22 -1.69 -4.69 -1.69 -7.3 C 67.57 8.16 75.14 0.67 84.48 0.67 c 1.22 0.0 
        2.19 0.97 2.19 2.17 c 0.0 1.18 -0.98 2.19 -2.19 2.19 c -6.38 0.0 -11.67 4.76 -12.39 10.88 C 72.98 15.42 73.98 
        15.16 75.07 15.16 z"/>
</svg>