<?xml version="1.0" standalone="no"?>
<!--Created with Sketsa SVG Editor (http://www.kiyut.com)-->
<?xml-stylesheet type="text/css" href="..\animals.css" ?>
<svg contentScriptType="text/ecmascript" width="100.0px" xmlns:xlink="http://www.w3.org/1999/xlink" baseProfile="full"
    zoomAndPan="magnify" contentStyleType="text/css" height="100.0px" preserveAspectRatio="xMidYMid meet" xmlns="http://www.w3.org/2000/svg"
    version="1.0">
    <polygon points="57.31,37.29 1.17,10.3 1.17,4.93 59.17,33.05" transform="matrix(1.0 0.0 0.0 1.0 -0.0 3.81E-6)"/>
    <path d="M 38.13 66.93 h 24.57 V 89.11 c 0.0 3.62 2.89 6.55 6.48 6.55 l 0.0 0.0 c 3.58 0.0 6.51 -2.93 6.51 -6.55 V 
        66.93 c 1.94 0.0 2.12 -1.29 2.12 -2.79 v -16.54 L 57.29 37.45 H 13.65 l -5.63 -3.22 c -1.81 -1.05 -4.1 -0.4 
        -5.13 1.42 l 0.0 0.0 c -1.02 1.83 -0.4 4.14 1.41 5.18 l 8.9 5.16 V 89.11 c 0.0 3.62 2.91 6.55 6.49 6.55 l 0.0 
        0.0 c 3.58 0.0 6.49 -2.93 6.49 -6.55 l -0.01 -16.89 l 11.77 20.08 c 1.83 3.12 5.82 4.13 8.91 2.28 l 0.0 0.0 c 
        3.07 -1.85 4.08 -5.91 2.24 -9.02 L 38.13 66.93 z" transform="matrix(1.0 0.0 0.0 1.0 -0.0 3.81E-6)"/>
    <polygon points="59.3,32.94 77.79,41.83 77.79,38.34 92.84,38.31 98.37,26.31 59.3,7.48" transform="matrix(1.0 0.0 0.0 1.0 -0.0 3.81E-6)"/>
</svg>