<?xml version="1.0" standalone="no"?>
<!--Created with Sketsa SVG Editor (http://www.kiyut.com)-->
<?xml-stylesheet type="text/css" href="..\animals.css" ?>
<svg contentScriptType="text/ecmascript" width="100.0px" xmlns:xlink="http://www.w3.org/1999/xlink" baseProfile="full"
    zoomAndPan="magnify" contentStyleType="text/css" height="100.0px" preserveAspectRatio="xMidYMid meet" xmlns="http://www.w3.org/2000/svg"
    version="1.0">
    <path d="M 18.1 32.49 c 1.78 0.0 3.3 -1.45 3.3 -3.2 c 0.0 -1.77 -1.51 -3.22 -3.3 -3.22 c -1.77 0.0 -3.29 1.45 -3.29 
        3.22 C 14.81 31.04 16.33 32.49 18.1 32.49 M 1.38 37.23 L 1.38 37.23 C 1.33 37.18 1.28 37.08 1.28 36.99 c 0.0 
        -0.18 0.17 -0.33 0.36 -0.33 h 10.42 c 0.5 0.0 0.91 -0.4 0.91 -0.9 c 0.0 -0.39 -0.17 -0.64 -0.55 -0.86 l -9.43 
        -4.41 c -0.17 -0.1 -0.29 -0.28 -0.29 -0.52 c 4.77E-7 -0.16 0.05 -0.3 0.17 -0.42 c 2.38E-7 0.0 24.74 -21.51 79.55 
        -0.67 l 15.04 -7.22 c 0.15 -0.07 0.32 -0.12 0.48 -0.12 c 0.65 0.0 1.18 0.52 1.18 1.16 c 0.0 0.21 -0.07 0.4 -0.17 
        0.58 l -8.87 10.87 l 8.87 10.83 c 0.1 0.19 0.17 0.39 0.17 0.62 c 0.0 0.62 -0.53 1.14 -1.18 1.14 c -0.16 0.0 
        -0.33 -0.05 -0.48 -0.12 l -15.04 -7.22 C 82.41 39.41 30.03 59.88 1.38 37.23 z M 14.19 63.14 c 1.04 0.0 1.95 
        -0.82 1.95 -1.87 c 0.0 -1.02 -0.91 -1.87 -1.95 -1.87 c -1.02 0.0 -1.92 0.86 -1.92 1.87 C 12.28 62.32 13.17 63.14 
        14.19 63.14 M 6.78 64.22 L 6.78 64.22 c -0.03 -0.02 -0.05 -0.07 -0.05 -0.1 c 0.0 -0.08 0.07 -0.13 0.17 -0.13 h 
        4.15 c 0.18 0.0 0.36 -0.17 0.36 -0.36 c 0.0 -0.16 -0.07 -0.26 -0.22 -0.33 l -3.76 -1.77 c -0.07 -0.05 -0.12 
        -0.12 -0.12 -0.22 c 0.0 -0.07 0.02 -0.15 0.07 -0.17 c 0.0 0.0 9.88 -8.62 31.8 -0.25 l 6.02 -2.9 c 0.05 -0.02 
        0.12 -0.05 0.2 -0.05 c 0.26 0.0 0.45 0.21 0.45 0.45 c 0.0 0.1 -0.02 0.18 -0.05 0.23 l -3.55 4.35 l 3.55 4.34 c 
        0.02 0.07 0.05 0.17 0.05 0.24 c 0.0 0.25 -0.2 0.47 -0.45 0.47 c -0.07 0.0 -0.15 -0.02 -0.2 -0.05 l -6.02 -2.9 C 
        39.18 65.08 18.26 73.26 6.78 64.22 z M 64.19 62.36 c 1.04 0.0 1.95 -0.82 1.95 -1.87 c 0.0 -1.02 -0.91 -1.87 
        -1.95 -1.87 c -1.02 0.0 -1.92 0.86 -1.92 1.87 C 62.28 61.54 63.17 62.36 64.19 62.36 M 56.78 63.44 L 56.78 63.44 
        c -0.03 -0.02 -0.05 -0.07 -0.05 -0.1 c 0.0 -0.08 0.07 -0.13 0.17 -0.13 h 4.15 c 0.18 0.0 0.36 -0.17 0.36 -0.36 c 
        0.0 -0.16 -0.07 -0.26 -0.22 -0.33 l -3.76 -1.77 c -0.07 -0.05 -0.12 -0.12 -0.12 -0.22 c 0.0 -0.07 0.02 -0.15 
        0.07 -0.17 c 0.0 0.0 9.88 -8.62 31.8 -0.25 l 6.02 -2.9 c 0.05 -0.02 0.12 -0.05 0.2 -0.05 c 0.26 0.0 0.45 0.21 
        0.45 0.45 c 0.0 0.1 -0.02 0.18 -0.05 0.23 l -3.55 4.35 l 3.55 4.34 c 0.02 0.07 0.05 0.17 0.05 0.24 c 0.0 0.25 
        -0.2 0.47 -0.45 0.47 c -0.07 0.0 -0.15 -0.02 -0.2 -0.05 l -6.02 -2.9 C 89.18 64.3 68.26 72.48 56.78 63.44 z M 
        35.64 83.59 c 1.04 0.0 1.95 -0.82 1.95 -1.87 c 0.0 -1.02 -0.91 -1.87 -1.95 -1.87 c -1.02 0.0 -1.92 0.86 -1.92 
        1.87 C 33.72 82.76 34.62 83.59 35.64 83.59 M 28.23 84.66 L 28.23 84.66 c -0.03 -0.02 -0.05 -0.07 -0.05 -0.1 c 
        0.0 -0.08 0.07 -0.13 0.17 -0.13 h 4.15 c 0.18 0.0 0.36 -0.17 0.36 -0.36 c 0.0 -0.16 -0.07 -0.26 -0.22 -0.33 l 
        -3.76 -1.77 c -0.07 -0.05 -0.12 -0.12 -0.12 -0.22 c 0.0 -0.07 0.02 -0.15 0.07 -0.17 c 0.0 0.0 9.88 -8.62 31.8 
        -0.25 l 6.02 -2.9 c 0.05 -0.02 0.12 -0.05 0.2 -0.05 c 0.26 0.0 0.45 0.21 0.45 0.45 c 0.0 0.1 -0.02 0.18 -0.05 
        0.23 l -3.55 4.35 l 3.55 4.34 c 0.02 0.07 0.05 0.17 0.05 0.24 c 0.0 0.25 -0.2 0.47 -0.45 0.47 c -0.07 0.0 -0.15 
        -0.02 -0.2 -0.05 l -6.02 -2.9 C 60.63 85.52 39.71 93.71 28.23 84.66" id="path3520"/>
</svg>