<?xml version="1.0" standalone="no"?>
<!--Created with Sketsa SVG Editor (http://www.kiyut.com)-->
<?xml-stylesheet type="text/css" href="..\animals.css" ?>
<svg contentScriptType="text/ecmascript" width="100.0px" xmlns:xlink="http://www.w3.org/1999/xlink" baseProfile="full"
    zoomAndPan="magnify" contentStyleType="text/css" height="100.0px" preserveAspectRatio="xMidYMid meet" xmlns="http://www.w3.org/2000/svg"
    version="1.0">
    <polygon points="10.66,97.64 98.67,97.64 98.67,88.42 19.79,88.42 19.79,48.42 98.67,12.43 98.67,2.83 0.83,47.45 
        0.83,57.05 10.66,52.6"/>
    <path d="M 55.75 66.21 H 69.59 v 12.49 c 0.0 2.05 1.64 3.71 3.67 3.71 l 0.0 0.0 c 2.03 0.0 3.65 -1.66 3.65 -3.71 V 
        66.21 c 1.1 0.0 1.22 -0.72 1.22 -1.56 V 55.32 l -11.59 -5.71 H 41.94 l -3.16 -1.82 c -1.03 -0.58 -2.33 -0.21 
        -2.89 0.8 l 0.0 0.0 c -0.59 1.04 -0.22 2.35 0.81 2.92 l 5.0 2.89 v 24.3 c 0.0 2.05 1.64 3.71 3.67 3.71 l 0.0 0.0 
        c 2.01 0.0 3.65 -1.66 3.65 -3.71 v -9.52 l 6.61 11.33 c 1.05 1.76 3.31 2.33 5.02 1.29 l 0.0 0.0 c 1.74 -1.06 2.3 
        -3.31 1.27 -5.07 L 55.75 66.21 z"/>
    <polygon points="67.68,47.06 78.11,52.08 78.11,50.1 86.59,50.1 89.7,43.32 67.68,32.74"/>
</svg>