<?xml version="1.0" standalone="no"?>
<!--Created with Sketsa SVG Editor (http://www.kiyut.com)-->
<?xml-stylesheet type="text/css" href="..\animals.css" ?>
<svg contentScriptType="text/ecmascript" width="100.0px" xmlns:xlink="http://www.w3.org/1999/xlink" baseProfile="full"
    zoomAndPan="magnify" contentStyleType="text/css" height="100.0px" preserveAspectRatio="xMidYMid meet" xmlns="http://www.w3.org/2000/svg"
    version="1.0">
    <path d="M 98.55 67.71 c -0.71 -1.29 -1.69 -2.47 -2.88 -3.41 c -0.36 -0.29 -0.74 -0.59 -1.16 -0.91 c -0.3 -0.21 
        -0.54 -0.47 -0.68 -0.79 c -0.68 -1.24 -1.25 -2.59 -1.6 -4.0 c -0.42 -1.65 -0.74 -3.35 -0.89 -5.09 l -0.18 -1.62 
        l -0.09 -0.91 l -0.03 -0.41 c 0.0 -0.03 0.0 -0.03 0.0 -0.06 c 0.0 -0.68 -0.12 -1.35 -0.36 -2.0 c -0.36 -0.88 
        -1.07 -1.53 -1.96 -1.82 c -0.18 -0.06 -0.36 -0.09 -0.53 -0.09 c -0.15 0.0 -0.27 0.0 -0.39 0.03 c -0.09 0.03 
        -0.24 0.06 -0.42 0.09 l -0.65 0.15 l -0.45 0.12 l -0.44 0.12 l -0.68 0.12 l -0.71 0.21 l -0.8 0.18 l -0.71 0.21 
        l -0.42 0.15 c -0.21 0.12 -0.42 0.18 -0.62 0.24 c -0.12 0.03 -0.21 0.03 -0.3 0.03 c -0.74 -0.15 -1.25 -0.82 
        -1.19 -1.56 c 0.03 -0.5 0.06 -1.03 0.06 -1.53 c 0.0 -0.82 -0.06 -1.62 -0.15 -2.41 l -0.06 -0.5 c 0.18 -0.03 0.3 
        -0.12 0.44 -0.24 c 0.71 -0.77 1.13 -1.77 1.13 -2.82 c 0.0 -0.06 0.0 -0.15 0.0 -0.21 c -0.03 -0.62 -0.24 -1.24 
        -0.59 -1.74 c -0.98 -1.44 -2.35 -2.65 -3.92 -3.44 l -1.22 -0.62 l -0.65 -0.29 l -0.65 -0.24 l -0.56 -0.24 l 
        -0.62 -0.24 l -0.68 -0.26 c -0.3 -0.09 -0.59 -0.18 -0.92 -0.26 c -0.92 -0.21 -1.84 -0.32 -2.73 -0.38 c -0.71 
        -0.03 -1.42 -0.06 -2.14 -0.06 c 0.0 0.0 -0.03 0.0 -0.06 0.0 c -1.13 0.0 -2.29 0.0 -3.44 -0.03 c -0.33 -0.03 
        -0.62 -0.03 -0.92 -0.03 c -0.92 0.0 -1.84 0.06 -2.76 0.12 c -0.27 0.03 -0.51 0.03 -0.74 0.03 c -0.89 -0.03 -1.78 
        -0.12 -2.64 -0.29 c -0.68 -0.12 -1.31 -0.29 -1.96 -0.53 c -0.42 -0.18 -0.89 -0.32 -1.37 -0.47 c -0.33 -0.09 
        -0.62 -0.21 -0.89 -0.35 c -0.33 -0.18 -0.65 -0.32 -1.01 -0.47 c -0.5 -0.18 -0.98 -0.41 -1.46 -0.71 c -0.48 -0.26 
        -1.01 -0.56 -1.54 -0.82 c -0.53 -0.27 -1.07 -0.53 -1.6 -0.85 c -0.59 -0.32 -1.22 -0.59 -1.84 -0.77 c -1.22 -0.35 
        -2.46 -0.53 -3.74 -0.56 c -0.09 0.0 -0.18 0.0 -0.27 0.0 c -1.54 0.0 -3.09 0.18 -4.6 0.5 c -1.48 0.29 -2.94 0.68 
        -4.36 1.09 l -1.22 0.38 l -0.48 0.12 l 0.18 -0.27 l 0.42 -0.5 l 0.36 -0.41 l 0.53 -0.56 l 0.5 -0.47 l 0.68 -0.59 
        l 1.1 -0.94 l 0.95 -0.85 l 0.77 -0.79 l 0.95 -1.21 c 0.27 -0.44 0.47 -0.88 0.68 -1.38 c 0.21 -0.56 0.33 -1.18 
        0.36 -1.8 c 0.0 -0.06 0.0 -0.09 0.0 -0.15 c 0.0 -0.56 -0.09 -1.15 -0.21 -1.71 c 0.0 -0.06 -0.03 -0.09 -0.09 
        -0.09 h -0.06 c -0.65 1.24 -1.43 2.47 -2.26 3.65 c -0.42 0.62 -0.92 1.15 -1.51 1.53 l -0.44 0.29 c 0.3 -0.97 
        0.44 -1.97 0.44 -2.97 l 0.03 -0.65 l -0.06 -0.88 l -0.06 -0.5 c -0.06 -0.15 -0.21 -0.27 -0.36 -0.27 c -0.18 0.0 
        -0.33 0.12 -0.39 0.27 l -0.12 0.5 l -0.27 0.68 l -0.33 0.85 l -0.24 0.56 l -0.42 0.82 c -0.15 0.35 -0.39 0.68 
        -0.68 0.91 C 30.24 21.01 29.49 20.66 29.49 20.04 c 0.0 0.0 0.0 -0.06 0.0 -0.09 l 0.27 -2.0 c 0.06 -0.21 0.09 
        -0.41 0.12 -0.62 v -0.03 c 0.0 -0.09 -0.06 -0.15 -0.15 -0.18 c -0.06 -0.03 -0.09 -0.03 -0.15 -0.03 c -0.09 0.0 
        -0.21 0.03 -0.3 0.09 l -0.98 0.79 l -0.74 0.71 l -0.68 0.68 l -1.48 1.68 c -0.33 0.29 -0.83 0.12 -0.89 -0.32 L 
        24.36 19.84 l -0.12 -0.91 l -0.06 -0.91 l -0.06 -0.97 l -0.06 -0.38 c -0.03 -0.09 -0.09 -0.15 -0.18 -0.15 c 
        -0.15 0.0 -0.3 0.09 -0.39 0.21 c -0.71 0.91 -1.34 1.91 -1.84 3.0 c -0.15 0.32 -0.39 0.65 -0.62 0.91 c -0.3 0.29 
        -0.8 0.18 -0.92 -0.21 c -0.12 -0.38 -0.24 -0.74 -0.36 -1.12 c -0.15 -0.44 -0.18 -0.77 -0.09 -1.09 c 0.09 -0.44 
        0.12 -0.88 0.12 -1.32 c 0.0 -0.26 0.0 -0.53 -0.03 -0.79 l -0.12 -0.85 C 19.64 15.01 19.43 14.83 19.19 14.83 c 
        -0.15 0.0 -0.27 0.06 -0.36 0.18 c -0.3 0.35 -0.53 0.74 -0.74 1.15 c -0.42 0.79 -0.62 1.68 -0.68 2.56 l -0.03 
        0.53 c -0.8 -0.88 -1.48 -1.82 -1.99 -2.88 l -0.12 -0.24 l -0.53 3.03 l -0.21 -0.47 L 14.35 18.25 l -0.3 -0.65 L 
        13.49 16.51 l -0.74 -1.12 c -0.12 -0.12 -0.24 -0.24 -0.39 -0.35 C 12.22 14.89 12.04 14.83 11.83 14.83 c -0.45 
        0.0 -0.8 0.35 -0.8 0.79 c 0.0 0.12 0.0 0.24 0.03 0.35 c 0.03 0.65 0.15 1.32 0.39 1.94 l 0.24 0.68 l 0.39 0.82 c 
        0.03 0.03 0.06 0.06 0.06 0.12 c -0.03 0.21 -0.21 0.32 -0.39 0.29 L 11.62 19.81 l -0.27 -0.09 l -0.24 -0.15 l 
        -0.45 -0.26 L 9.13 18.04 L 8.92 17.86 L 8.62 17.63 L 8.41 17.42 L 8.24 17.22 L 7.91 16.89 c 0.0 -0.03 -0.03 
        -0.03 -0.06 -0.06 s -0.06 -0.03 -0.12 -0.03 s -0.12 0.03 -0.15 0.12 C 7.55 17.01 7.55 17.07 7.55 17.16 c 0.0 
        0.09 0.0 0.18 0.03 0.27 C 7.76 18.13 7.97 18.84 8.27 19.48 l 0.48 1.21 l 0.15 0.38 l 0.03 0.15 c 0.0 0.03 0.0 
        0.03 0.0 0.03 c 0.0 0.09 -0.06 0.15 -0.12 0.21 c -0.15 0.06 -0.3 0.06 -0.39 -0.03 L 7.88 21.16 L 7.29 20.78 L 
        6.69 20.4 L 6.04 19.98 L 5.0 19.19 L 3.7 18.07 L 2.6 17.01 C 2.51 16.95 2.45 16.92 2.33 16.89 c -0.03 0.0 -0.06 
        -0.03 -0.09 -0.03 c -0.09 0.0 -0.18 0.06 -0.24 0.15 c -0.06 0.06 -0.09 0.15 -0.09 0.24 c 0.0 0.06 0.03 0.12 0.03 
        0.15 c 0.68 1.56 1.63 2.97 2.79 4.15 c 0.56 0.56 1.13 1.09 1.75 1.56 c 0.71 0.56 1.48 1.09 2.29 1.53 c 0.24 0.15 
        0.47 0.29 0.74 0.44 c 0.36 0.24 0.71 0.47 1.04 0.74 c 0.36 0.26 0.65 0.59 0.92 0.91 l 0.24 0.32 c -1.69 0.09 
        -3.41 0.32 -5.11 0.71 c -1.4 0.32 -2.7 0.85 -3.89 1.65 c -1.1 0.74 -1.84 1.88 -2.02 3.18 C 0.67 32.64 0.67 32.72 
        0.67 32.81 c 0.0 0.79 0.5 1.5 1.25 1.74 c 0.09 0.03 0.18 0.06 0.24 0.06 c 0.18 0.0 0.33 -0.06 0.45 -0.15 l 0.12 
        -0.09 c 0.15 0.59 0.53 1.06 1.04 1.35 c 0.59 0.32 1.25 0.5 1.9 0.5 c 0.09 0.0 0.18 0.0 0.27 0.0 c 0.71 -0.03 
        1.37 -0.12 2.05 -0.18 c 0.62 -0.09 1.25 -0.18 1.87 -0.29 c 0.36 -0.06 0.71 -0.09 1.1 -0.06 c 0.39 0.06 0.74 0.24 
        1.01 0.53 c 0.21 0.18 0.36 0.41 0.5 0.68 c 0.27 0.44 0.53 0.85 0.83 1.24 c 0.8 1.09 1.87 2.0 3.06 2.65 c 0.65 
        0.35 1.31 0.68 1.99 0.94 c 0.68 0.29 1.42 0.53 2.2 0.68 c 1.37 0.32 2.67 0.53 3.98 0.77 c 0.77 0.12 1.57 0.32 
        2.35 0.62 c 0.65 0.26 1.28 0.62 1.84 1.06 c 0.68 0.68 1.1 1.56 1.1 2.53 c 0.0 0.03 0.0 0.06 0.0 0.06 l -0.06 
        1.41 c 0.0 0.06 0.0 0.12 0.0 0.18 c 0.0 0.82 0.21 1.62 0.59 2.32 c 0.09 0.21 0.18 0.38 0.27 0.56 c 0.03 0.15 
        0.09 0.26 0.12 0.41 c 0.09 0.35 0.12 0.71 0.12 1.09 c 0.0 0.21 -0.03 0.44 -0.06 0.65 c -0.06 0.53 -0.15 1.09 
        -0.3 1.65 c -0.09 0.5 -0.27 0.94 -0.53 1.38 c -0.39 0.68 -0.86 1.35 -1.34 2.0 l -2.11 2.88 l -0.8 1.12 l -1.28 
        1.82 l -1.16 1.65 l -1.16 1.68 l -1.54 2.44 c -0.48 0.82 -1.04 1.56 -1.66 2.27 c -0.68 0.76 -1.31 1.56 -1.93 
        2.35 c -0.62 0.79 -1.34 1.47 -2.14 2.0 l -0.98 0.62 l -1.1 0.62 l -1.19 0.62 l -0.27 0.21 c -0.06 0.0 -0.09 0.03 
        -0.12 0.06 c -0.09 0.06 -0.15 0.15 -0.15 0.24 c 0.0 0.03 0.0 0.06 0.0 0.09 c 0.06 0.21 0.24 0.38 0.45 0.44 c 
        0.39 0.12 0.74 0.18 1.13 0.18 c 0.06 0.0 0.12 0.0 0.18 0.0 c 1.31 -0.06 2.38 -0.12 3.47 -0.21 c 0.8 -0.06 1.75 
        -0.29 2.61 -0.71 c 0.3 -0.12 0.56 -0.29 0.86 -0.47 c 0.33 -0.24 0.65 -0.53 0.89 -0.85 c 0.18 -0.26 0.39 -0.5 
        0.59 -0.74 c 1.19 -1.56 2.32 -3.15 3.44 -4.77 c 0.5 -0.76 1.19 -1.65 1.9 -2.47 c 1.13 -1.29 2.17 -2.62 3.21 
        -3.94 c 1.25 -1.62 2.61 -3.21 4.01 -4.71 c 0.36 -0.38 0.74 -0.82 1.16 -1.3 c 0.24 -0.26 0.59 -0.62 0.92 -0.91 c 
        0.5 -0.47 0.89 -1.06 1.1 -1.74 c 0.21 -0.62 0.45 -1.18 0.65 -1.74 c 1.22 -2.82 5.37 -2.5 6.12 0.5 l 0.21 0.85 l 
        0.15 0.65 l 0.15 0.85 l 0.09 0.47 c 0.3 1.27 0.56 2.53 0.77 3.8 c 0.06 0.29 0.15 0.65 0.21 1.0 c 0.06 0.32 0.15 
        0.62 0.27 0.91 c 0.39 0.91 0.83 1.79 1.37 2.62 c 0.42 0.65 0.95 1.21 1.54 1.71 l 2.46 1.88 l 1.48 1.27 l 0.68 
        0.65 L 51.73 73.54 l -0.83 0.38 l -0.74 0.32 c -0.54 0.18 -1.16 0.35 -1.78 0.56 c -0.53 0.18 -0.89 0.32 -1.28 
        0.5 c -0.48 0.21 -0.89 0.53 -1.22 0.91 c -0.12 0.15 -0.21 0.32 -0.21 0.5 c 0.03 0.59 0.27 1.18 0.65 1.59 c 0.3 
        0.32 0.71 0.56 1.13 0.65 c 0.53 0.15 1.07 0.21 1.6 0.21 c 0.12 0.0 0.27 0.0 0.42 0.0 c 1.31 -0.09 2.55 -0.47 
        3.71 -1.15 l 2.82 -1.71 l 0.3 -0.21 c 1.25 1.0 2.52 1.88 3.86 2.68 c 0.86 0.5 1.75 0.91 2.7 1.24 c 0.59 0.21 
        1.25 0.35 1.87 0.38 l 0.39 0.03 c 0.03 -0.15 0.03 -0.32 0.03 -0.47 c 0.0 -0.24 -0.03 -0.5 -0.06 -0.74 c -0.09 
        -0.44 -0.24 -0.85 -0.42 -1.24 c -0.15 -0.29 -0.33 -0.59 -0.54 -0.85 c -0.33 -0.44 -0.71 -0.88 -1.1 -1.29 l -0.44 
        -0.47 l -0.53 -0.53 l -0.68 -0.53 l -0.59 -0.44 l -0.48 -0.38 l -0.53 -0.29 l -0.47 -0.24 c 0.74 -0.77 1.54 -1.5 
        2.38 -2.18 c 1.69 -1.38 2.94 -2.38 4.22 -3.38 c 0.59 -0.5 1.63 -1.59 2.46 -2.8 c 0.33 -0.44 0.51 -1.0 0.54 -1.56 
        l 0.03 -0.41 l 0.09 -0.97 c 0.27 -2.3 0.95 -4.53 1.99 -6.59 l 0.18 -0.35 c 1.1 2.0 3.18 3.3 5.46 3.35 c 0.06 0.0 
        0.15 0.0 0.21 0.0 c 1.57 0.0 3.09 -0.47 4.33 -1.41 l 1.28 -0.91 l 1.04 -0.71 l 1.1 -0.68 c 0.12 -0.09 0.27 -0.12 
        0.42 -0.12 c 0.59 -0.03 1.16 0.18 1.6 0.53 c 0.18 0.12 0.33 0.26 0.42 0.44 c 0.15 0.21 0.24 0.41 0.36 0.65 c 
        0.15 0.32 0.24 0.68 0.3 1.0 c 0.03 0.32 0.06 0.56 0.09 0.82 c 0.06 0.32 0.09 0.71 0.15 1.06 c 0.06 0.59 0.18 
        1.15 0.36 1.71 c 0.15 0.56 0.33 1.12 0.47 1.68 c 0.36 1.38 0.92 2.71 1.66 3.91 c 0.59 0.94 1.25 1.85 1.99 2.68 c 
        0.27 0.32 0.62 0.59 0.98 0.85 L 94.72 70.42 c 0.98 0.65 2.11 0.97 3.27 0.97 c 0.0 0.0 0.0 0.0 0.03 0.0 c 0.44 
        0.0 0.8 -0.29 0.92 -0.71 C 99.03 70.36 99.06 70.01 99.06 69.69 C 99.06 69.01 98.88 68.33 98.55 67.71 z M 62.95 
        60.09 c -0.27 1.41 -0.74 2.82 -1.4 4.12 c -1.28 2.47 -3.09 4.59 -5.31 6.24 l -0.33 -0.26 c -1.28 -1.12 -2.43 
        -2.32 -3.47 -3.65 l -1.1 -1.38 c -0.45 -0.68 -0.8 -1.41 -1.04 -2.18 c -0.3 -0.94 -0.48 -1.88 -0.53 -2.85 c -0.09 
        -1.85 -0.03 -3.74 0.18 -5.62 c 0.65 0.0 1.31 0.0 1.96 0.06 c 0.53 0.06 1.07 0.12 1.6 0.26 c 1.22 0.29 2.49 0.47 
        3.77 0.47 c 1.22 0.0 2.44 -0.15 3.62 -0.44 c 0.8 -0.18 1.57 -0.47 2.29 -0.88 l 0.06 0.71 c 0.03 0.53 0.03 1.0 
        0.03 1.5 C 63.28 57.5 63.16 58.8 62.95 60.09 z"/>
</svg>