<?xml version="1.0" standalone="no"?>
<!--Created with Sketsa SVG Editor (http://www.kiyut.com)-->
<?xml-stylesheet type="text/css" href="..\animals.css" ?>
<svg contentScriptType="text/ecmascript" width="100.0px" xmlns:xlink="http://www.w3.org/1999/xlink" baseProfile="full"
    zoomAndPan="magnify" contentStyleType="text/css" height="100.0px" preserveAspectRatio="xMidYMid meet" xmlns="http://www.w3.org/2000/svg"
    version="1.0">
    <path d="M 84.65 15.16 C 75.39 5.87 63.09 0.75 50.0 0.75 S 24.61 5.87 15.35 15.16 C 6.1 24.45 1.0 36.8 1.0 49.94 s 
        5.1 25.49 14.35 34.78 C 24.61 94.01 36.91 99.13 50.0 99.13 s 25.39 -5.12 34.65 -14.41 C 93.9 75.43 99.0 63.08 
        99.0 49.94 S 93.9 24.45 84.65 15.16 z M 88.08 49.94 c 0.0 8.32 -2.66 16.02 -7.17 22.3 L 27.78 18.92 c 6.26 -4.53 
        13.94 -7.21 22.22 -7.21 C 70.99 11.72 88.08 28.86 88.08 49.94 z M 11.93 49.94 c 0.0 -8.58 2.83 -16.52 7.61 -22.9 
        L 72.82 80.51 C 66.46 85.31 58.55 88.16 50.0 88.16 C 29.01 88.16 11.93 71.01 11.93 49.94 z"/>
    <path d="M 66.86 57.38 l 0.02 -11.29 h 13.58 c 2.32 0.0 3.77 -3.2 1.25 -5.82 C 81.67 40.23 70.89 29.41 70.89 29.41 v 
        -7.99 L 55.27 37.11 l -8.61 0.0 L 66.86 57.38 z"/>
    <path d="M 56.78 65.18 v 7.7 c 0.0 5.95 7.89 6.63 9.69 2.04 L 56.78 65.18 z"/>
    <path d="M 28.84 37.11 h -7.49 c -6.44 0.0 -6.38 9.06 0.15 9.06 h 4.57 v 26.71 c 0.0 6.72 10.15 6.72 10.15 0.0 V 
        60.64 h 16.05 L 28.84 37.11 z"/>
</svg>