<?xml version="1.0" standalone="no"?>
<!--Created with Sketsa SVG Editor (http://www.kiyut.com)-->
<?xml-stylesheet type="text/css" href="..\animals.css" ?>
<svg contentScriptType="text/ecmascript" width="100.0px" xmlns:xlink="http://www.w3.org/1999/xlink" baseProfile="full"
    zoomAndPan="magnify" contentStyleType="text/css" height="100.0px" preserveAspectRatio="xMidYMid meet" xmlns="http://www.w3.org/2000/svg"
    version="1.0">
    <path d="M 85.01 20.98 V 46.45 c 0.0 6.24 -1.85 12.01 -5.11 16.85 c 0.64 0.81 1.26 1.78 1.8 3.03 c 1.59 3.62 0.78 
        7.67 -1.72 10.39 L 67.03 90.22 c -0.22 0.3 -0.54 0.57 -0.91 0.73 c -1.1 0.49 -2.36 -0.03 -2.81 -1.11 c -0.22 
        -0.49 -0.24 -1.0 -0.11 -1.46 l 2.71 -13.77 c -3.41 1.32 -7.11 2.05 -10.98 2.05 l -29.1 -0.03 c 7.79 5.35 7.79 
        15.74 7.77 15.93 c -0.05 0.73 -0.13 1.27 -0.35 1.92 c -0.3 0.84 -0.83 1.76 -2.07 1.38 L 13.47 81.87 C 5.35 76.04 
        -1.58 66.37 1.83 56.44 c 2.36 -6.78 9.08 -9.61 15.64 -10.77 l 36.88 -7.45 L 70.42 9.18 c 1.96 -3.43 7.12 -5.91 
        10.56 -5.67 c 3.47 0.24 5.97 1.19 8.41 3.32 l 7.95 1.7 c 0.83 0.05 1.45 0.76 1.4 1.59 l -0.89 3.24 c -0.3 0.73 
        -0.62 1.27 -1.29 1.73 L 85.01 20.98 z"/>
</svg>