<?xml version="1.0" standalone="no"?>
<!--Created with Sketsa SVG Editor (http://www.kiyut.com)-->
<?xml-stylesheet type="text/css" href="..\animals.css" ?>
<svg contentScriptType="text/ecmascript" width="100.0px" xmlns:xlink="http://www.w3.org/1999/xlink" baseProfile="full"
    zoomAndPan="magnify" contentStyleType="text/css" height="100.0px" preserveAspectRatio="xMidYMid meet" xmlns="http://www.w3.org/2000/svg"
    version="1.0">
    <path d="M 98.51 59.1 c -1.13 -3.33 -2.17 -5.11 -2.99 -7.92 c -0.16 -0.55 -4.58 -12.94 -23.93 -24.31 c -3.22 -1.89 
        -15.6 -5.48 -18.39 -6.54 c -0.76 -0.39 -1.24 -0.92 -1.45 -1.09 c -1.9 -1.6 -4.71 -5.83 -7.31 -7.35 c -3.66 -2.13 
        -6.22 -2.36 -8.93 -2.55 c -2.3 -0.16 -6.26 -0.27 -10.12 1.24 c -3.86 1.5 -4.96 4.35 -5.06 5.29 L 20.1 17.5 c 
        0.63 0.57 1.05 1.57 1.05 2.49 c 0.0 0.89 -0.54 1.8 -0.54 3.01 c 0.0 1.54 0.6 4.15 3.22 6.36 c 3.0 2.52 6.95 3.88 
        10.37 5.7 c 0.05 0.03 0.12 0.06 0.19 0.12 c 3.54 3.01 1.06 6.68 1.06 6.68 l -19.7 -8.5 c -6.39 -3.26 -11.44 -1.6 
        -14.71 3.31 c -0.24 0.36 -0.31 0.47 -0.57 0.91 c -0.15 0.26 -0.11 0.62 0.08 0.77 c 0.24 0.2 0.61 0.05 0.75 -0.12 
        c 2.39 -3.05 7.36 -3.46 10.05 -1.58 c 0.14 0.1 0.28 0.21 0.42 0.31 c 0.47 1.78 0.11 1.33 1.09 5.07 c 0.59 2.24 
        2.56 3.9 2.56 3.9 s 15.38 14.65 16.94 16.1 c 2.26 2.1 7.11 3.08 11.17 1.59 c 1.62 -0.59 5.22 -2.35 8.71 -3.55 c 
        0.92 -0.32 1.4 -0.12 1.99 0.51 c 0.88 0.97 1.52 1.61 3.46 3.61 c 0.45 0.47 0.56 1.17 0.0 1.78 l -9.6 11.01 l 
        -0.06 0.06 c -3.04 3.23 -2.86 6.42 -1.95 9.51 c 0.36 1.24 1.27 2.75 2.19 3.56 c 0.23 0.21 0.43 0.15 0.61 0.06 c 
        0.2 -0.16 0.16 -0.51 0.1 -0.69 c -1.34 -4.01 -0.39 -7.27 2.99 -8.9 c 1.58 0.91 3.73 2.16 4.41 2.56 c 1.77 1.04 
        4.29 0.54 5.35 0.26 c 3.23 -0.86 17.58 -4.65 17.58 -4.65 c 11.08 -3.19 12.88 -9.99 15.74 -13.47 c 0.04 -0.05 
        0.07 -0.09 0.1 -0.14 c 1.53 0.3 2.32 0.37 3.28 -0.43 C 100.16 63.27 99.13 60.77 98.51 59.1 z M 32.26 22.41 c 
        1.96 1.16 4.92 0.96 4.92 0.96 s -0.73 2.13 -3.37 3.4 c -1.36 0.66 -3.05 1.14 -5.72 1.07 c -1.76 -0.05 -3.32 -1.0 
        -4.08 -2.16 c -0.93 -1.41 -1.08 -3.1 -1.08 -3.1 s 0.88 -0.1 2.0 -0.63 c 1.13 -0.53 1.47 -2.7 1.42 -3.74 c -0.98 
        -0.1 -2.35 -0.09 -3.77 0.13 c 0.0 0.0 0.15 -2.25 2.05 -2.75 c 1.66 -0.43 1.65 0.5 3.54 0.49 c 0.11 -0.0 0.31 
        -0.0 0.43 -0.0 c 0.42 -0.0 0.95 -0.14 1.25 -0.24 c 1.27 -0.42 1.86 -0.72 3.42 -0.66 c 1.9 0.08 4.11 0.43 4.9 
        3.17 c -2.27 -0.34 -4.38 -0.49 -7.53 -0.2 C 30.63 19.46 30.31 21.26 32.26 22.41 z"/>
    <path d="M 25.97 22.59 c -0.26 0.1 -0.43 0.49 -0.41 0.76 c 0.1 1.15 0.45 2.27 1.71 2.39 c 1.42 0.14 1.97 -1.07 1.9 
        -2.4 c -0.01 -0.07 -0.03 -0.37 -0.17 -0.47 C 27.64 21.81 26.44 22.41 25.97 22.59 z"/>
</svg>