<?xml version="1.0" standalone="no"?>
<!--Created with Sketsa SVG Editor (http://www.kiyut.com)-->
<?xml-stylesheet type="text/css" href="..\animals.css" ?>
<svg contentScriptType="text/ecmascript" width="100.0px" xmlns:xlink="http://www.w3.org/1999/xlink" baseProfile="full"
    zoomAndPan="magnify" contentStyleType="text/css" height="100.0px" preserveAspectRatio="xMidYMid meet" xmlns="http://www.w3.org/2000/svg"
    version="1.0">
    <polygon points="10.52,41.38 0.63,44.94 0.63,35.89 99.09,0.5 99.09,9.52 19.68,38.07 19.71,90.7 99.09,90.7 
        99.09,99.38 10.52,99.38"/>
    <path d="M 91.65 43.94 l -4.87 -0.86 l -2.85 5.3 c 0.47 0.1 0.94 0.14 1.43 0.14 C 88.41 48.52 90.95 46.59 91.65 
        43.94 M 68.9 46.51 l 18.66 -18.22 l -0.57 4.74 l 9.19 5.79 c 1.53 0.79 2.07 2.65 1.2 4.09 c -0.65 1.14 -2.03 1.7 
        -3.31 1.46 l -0.74 -0.14 c -0.89 3.37 -4.12 5.86 -7.96 5.86 c -0.76 0.0 -1.48 -0.09 -2.17 -0.28 l -6.96 13.44 L 
        76.21 81.66 c 0.0 1.6 -1.37 2.88 -3.03 2.88 c -1.68 0.0 -3.04 -1.28 -3.04 -2.88 v -18.84 H 54.78 l -2.74 4.44 l 
        5.72 12.95 c 0.82 1.37 0.34 3.12 -1.13 3.91 c -1.44 0.77 -3.3 0.3 -4.12 -1.07 l -6.72 -14.95 v -4.73 l -3.02 
        4.47 v 13.82 c 0.0 1.6 -1.36 2.88 -3.06 2.88 c -1.68 0.0 -3.03 -1.28 -3.03 -2.88 V 65.68 l 2.51 -3.7 V 49.4 l 
        -2.51 3.6 v 10.46 h -4.78 v -10.58 c 0.0 -3.51 3.01 -6.38 6.75 -6.38 H 68.9 z"/>
</svg>