<?xml version="1.0" standalone="no"?>
<!--Created with Sketsa SVG Editor (http://www.kiyut.com)-->
<?xml-stylesheet type="text/css" href="..\animals.css" ?>
<svg contentScriptType="text/ecmascript" width="100.0px" xmlns:xlink="http://www.w3.org/1999/xlink" baseProfile="full"
    zoomAndPan="magnify" contentStyleType="text/css" height="100.0px" preserveAspectRatio="xMidYMid meet" xmlns="http://www.w3.org/2000/svg"
    version="1.0">
    <path d="M 14.68 64.54 c -0.34 -8.34 4.17 -15.27 8.63 -20.95 l 0.61 -0.81 c 1.46 -1.95 2.42 -3.24 6.86 -2.94 c 3.4 
        0.24 6.83 2.74 6.83 7.07 c 0.0 0.01 0.0 0.02 0.0 0.03 c -0.01 2.61 -1.74 4.95 -3.56 7.41 c -2.22 3.0 -4.74 6.4 
        -4.74 11.02 c 0.0 1.32 0.3 2.35 0.58 3.33 c 0.28 0.97 0.54 1.87 0.54 3.04 c 0.0 3.98 -3.41 7.22 -7.6 7.22 C 
        17.81 78.97 15.07 74.11 14.68 64.54 z"/>
    <path d="M 36.82 99.17 c -5.56 0.0 -10.09 -4.46 -10.09 -9.94 c 0.0 -5.49 4.52 -9.94 10.09 -9.94 c 5.56 0.0 10.08 
        4.46 10.08 9.94 C 46.89 94.71 42.37 99.17 36.82 99.17 z"/>
    <path d="M 61.6 99.17 c -5.56 0.0 -10.08 -4.46 -10.08 -9.94 c 0.0 -5.49 4.52 -9.94 10.08 -9.94 c 5.56 0.0 10.08 4.46 
        10.08 9.94 C 71.68 94.71 67.16 99.17 61.6 99.17 z"/>
    <path d="M 75.39 78.97 c -4.19 0.0 -7.6 -3.24 -7.6 -7.22 c 0.0 -1.17 0.26 -2.08 0.54 -3.04 c 0.29 -0.98 0.58 -2.0 
        0.58 -3.33 c 0.0 -4.62 -2.51 -8.02 -4.73 -11.02 c -1.83 -2.47 -3.55 -4.81 -3.56 -7.41 c 0.0 -0.01 0.0 -0.02 0.0 
        -0.03 c 0.0 -4.33 3.43 -6.84 6.83 -7.07 c 4.43 -0.3 5.4 0.99 6.86 2.94 l 0.62 0.81 c 4.45 5.68 8.95 12.6 8.63 
        20.95 C 83.17 74.11 80.42 78.97 75.39 78.97 z"/>
    <path d="M 67.6 0.51 c -7.77 -0.37 -9.26 5.3 -9.26 5.3 s -3.6 -2.17 -9.22 -2.17 c -5.63 0.0 -9.23 2.17 -9.23 2.17 s 
        -1.49 -5.67 -9.26 -5.3 c -4.53 0.21 -8.22 3.95 -8.22 8.42 c 0.0 4.19 2.79 9.81 7.34 9.95 l 0.59 0.02 c -0.14 
        0.76 -0.18 2.88 -0.18 3.44 c 0.0 10.32 8.51 18.72 18.96 18.72 c 10.45 0.0 18.96 -8.4 18.96 -18.72 c 0.0 -0.56 
        -0.05 -2.68 -0.18 -3.44 l 0.58 -0.02 c 4.55 -0.14 7.34 -5.76 7.34 -9.95 C 75.82 4.46 72.13 0.73 67.6 0.51 z M 
        38.91 21.3 c 0.0 -1.37 1.13 -2.48 2.52 -2.48 c 1.39 0.0 2.52 1.11 2.52 2.48 c 0.0 1.38 -1.13 2.49 -2.52 2.49 C 
        40.04 23.78 38.91 22.68 38.91 21.3 z M 57.53 32.35 c -0.07 0.15 -1.62 3.53 -4.92 3.53 c -1.43 0.0 -2.59 -0.33 
        -3.49 -0.95 c -0.94 0.56 -2.12 0.86 -3.53 0.86 c -3.61 0.0 -5.3 -3.24 -5.37 -3.37 c -0.38 -0.74 -0.08 -1.65 0.66 
        -2.03 c 0.75 -0.39 1.67 -0.1 2.07 0.64 c 0.01 0.02 0.93 1.73 2.64 1.73 c 1.2 0.0 1.81 -0.29 2.09 -0.49 c 0.0 
        -0.35 0.0 -1.77 0.0 -2.38 c -1.05 -0.24 -1.83 -1.16 -1.83 -2.26 c 0.0 -1.27 1.05 -2.31 2.34 -2.31 l 2.14 -0.02 c 
        1.22 0.0 2.25 1.07 2.25 2.33 c 0.0 1.09 -0.8 1.99 -1.83 2.18 c 0.0 0.64 0.0 2.25 0.0 2.56 c 0.21 0.18 0.72 0.47 
        1.87 0.47 c 1.3 0.0 2.12 -1.72 2.12 -1.73 c 0.17 -0.37 0.47 -0.66 0.85 -0.8 c 0.38 -0.15 0.8 -0.13 1.17 0.04 C 
        57.32 30.61 57.67 31.16 57.67 31.74 C 57.67 31.95 57.62 32.15 57.53 32.35 z M 56.84 23.78 c -1.38 0.0 -2.51 
        -1.11 -2.51 -2.49 c 0.0 -1.37 1.13 -2.48 2.51 -2.48 c 1.39 0.0 2.52 1.11 2.52 2.48 C 59.36 22.68 58.23 23.78 
        56.84 23.78 z"/>
</svg>